<?xml version="1.0" encoding="UTF-8" standalone="no"?>
<svg
   xmlns:dc="http://purl.org/dc/elements/1.1/"
   xmlns:cc="http://creativecommons.org/ns#"
   xmlns:rdf="http://www.w3.org/1999/02/22-rdf-syntax-ns#"
   xmlns:svg="http://www.w3.org/2000/svg"
   xmlns="http://www.w3.org/2000/svg"
   xmlns:sodipodi="http://sodipodi.sourceforge.net/DTD/sodipodi-0.dtd"
   xmlns:inkscape="http://www.inkscape.org/namespaces/inkscape"
   width="20"
   height="20"
   viewBox="0 0 20 20"
   version="1.2"
   id="svg38"
   sodipodi:docname="60401010231.svg"
   inkscape:version="0.92.4 (5da689c313, 2019-01-14)">
  <metadata
     id="metadata42">
    <rdf:RDF>
      <cc:Work
         rdf:about="">
        <dc:format>image/svg+xml</dc:format>
        <dc:type
           rdf:resource="http://purl.org/dc/dcmitype/StillImage" />
      </cc:Work>
    </rdf:RDF>
  </metadata>
  <sodipodi:namedview
     pagecolor="#ffffff"
     bordercolor="#666666"
     borderopacity="1"
     objecttolerance="10"
     gridtolerance="10"
     guidetolerance="10"
     inkscape:pageopacity="0"
     inkscape:pageshadow="2"
     inkscape:window-width="1920"
     inkscape:window-height="1017"
     id="namedview40"
     showgrid="false"
     inkscape:zoom="11.8"
     inkscape:cx="10"
     inkscape:cy="10"
     inkscape:window-x="-8"
     inkscape:window-y="-8"
     inkscape:window-maximized="1"
     inkscape:current-layer="svg38" />
  <title
     id="title2">Qt SVG Document</title>
  <desc
     id="desc4">Generated with Qt</desc>
  <defs
     id="defs6" />
  <g
     id="g36"
     transform="matrix(0.65217391,0,0,0.65217391,-0.43478256,-0.43478256)"
     style="fill:none;fill-rule:evenodd;stroke:#000000;stroke-width:1;stroke-linecap:square;stroke-linejoin:bevel">
    <g
       transform="translate(16,16)"
       font-size="8.25"
       font-weight="400"
       font-style="normal"
       id="g8"
       style="font-style:normal;font-weight:400;font-size:8.25px;font-family:'MS Shell Dlg 2';fill:none;stroke:#000000;stroke-width:1;stroke-linecap:square;stroke-linejoin:bevel;stroke-opacity:1" />
    <g
       transform="matrix(1.33333,0,0,1.33333,16,16)"
       font-size="8.25"
       font-weight="400"
       font-style="normal"
       id="g10"
       style="font-style:normal;font-weight:400;font-size:8.25px;font-family:'MS Shell Dlg 2';fill:none;stroke:#000000;stroke-width:1;stroke-linecap:square;stroke-linejoin:bevel;stroke-opacity:1" />
    <g
       transform="translate(4.5,23.1875)"
       font-size="17.0078"
       font-weight="400"
       font-style="normal"
       id="g14"
       style="font-style:normal;font-weight:400;font-size:17.00779915px;font-family:icomoon;fill:#ffffff;fill-opacity:1;stroke:none">
      <path
         d="M 2.02148,-18.6875 H 20.9785 c 0.5541,0 1.0295,0.1984 1.4263,0.5952 C 22.8016,-17.6955 23,-17.2201 23,-16.666 V 2.29102 C 23,2.84505 22.8016,3.32048 22.4048,3.71729 22.008,4.1141 21.5326,4.3125 20.9785,4.3125 H 2.02148 C 1.46745,4.3125 0.992025,4.1141 0.595215,3.71729 0.198405,3.32048 0,2.84505 0,2.29102 V -16.666 c 0,-0.5541 0.198405,-1.0295 0.595215,-1.4263 0.39681,-0.3968 0.872235,-0.5952 1.426265,-0.5952"
         id="path12"
         inkscape:connector-curvature="0"
         style="vector-effect:none;fill-rule:nonzero" />
    </g>
    <g
       transform="matrix(1.33333,0,0,1.33333,16,16)"
       font-size="8.25"
       font-weight="400"
       font-style="normal"
       id="g16"
       style="font-style:normal;font-weight:400;font-size:8.25px;font-family:'MS Shell Dlg 2';fill:none;stroke:#000000;stroke-width:1;stroke-linecap:square;stroke-linejoin:bevel;stroke-opacity:1" />
    <g
       transform="translate(16,16)"
       font-size="8.25"
       font-weight="400"
       font-style="normal"
       id="g18"
       style="font-style:normal;font-weight:400;font-size:8.25px;font-family:'MS Shell Dlg 2';fill:none;stroke:#000000;stroke-width:1;stroke-linecap:square;stroke-linejoin:bevel;stroke-opacity:1" />
    <g
       font-size="8.25"
       font-weight="400"
       font-style="normal"
       id="g20"
       style="font-style:normal;font-weight:400;font-size:8.25px;font-family:'MS Shell Dlg 2';fill:none;stroke:#000000;stroke-width:1;stroke-linecap:square;stroke-linejoin:bevel;stroke-opacity:1" />
    <g
       transform="translate(16,16)"
       font-size="8.25"
       font-weight="400"
       font-style="normal"
       id="g22"
       style="font-style:normal;font-weight:400;font-size:8.25px;font-family:'MS Shell Dlg 2';fill:none;stroke:#000000;stroke-width:1;stroke-linecap:square;stroke-linejoin:bevel;stroke-opacity:1" />
    <g
       transform="matrix(1.33333,0,0,1.33333,16,16)"
       font-size="8.25"
       font-weight="400"
       font-style="normal"
       id="g24"
       style="font-style:normal;font-weight:400;font-size:8.25px;font-family:'MS Shell Dlg 2';fill:none;stroke:#000000;stroke-width:1;stroke-linecap:square;stroke-linejoin:bevel;stroke-opacity:1" />
    <g
       transform="translate(4.5,23.1875)"
       font-size="17.0078"
       font-weight="400"
       font-style="normal"
       id="g28"
       style="font-style:normal;font-weight:400;font-size:17.00779915px;font-family:icomoon;fill:#000000;fill-opacity:1;stroke:none">
      <path
         d="m 20.9785,-18.0137 c 0.3744,0 0.6926,0.1311 0.9546,0.3931 0.262,0.262 0.3931,0.5802 0.3931,0.9546 V 2.29102 c 0,0.37434 -0.1311,0.69254 -0.3931,0.95459 -0.262,0.26204 -0.5802,0.39306 -0.9546,0.39306 H 2.02148 C 1.64714,3.63867 1.32894,3.50765 1.06689,3.24561 0.80485,2.98356 0.673828,2.66536 0.673828,2.29102 V -16.666 c 0,-0.3744 0.131022,-0.6926 0.393062,-0.9546 0.26205,-0.262 0.58025,-0.3931 0.95459,-0.3931 H 20.9785 m 0,-0.6738 H 2.02148 c -0.55403,0 -1.029455,0.1984 -1.426265,0.5952 C 0.198405,-17.6955 0,-17.2201 0,-16.666 V 2.29102 C 0,2.84505 0.198405,3.32048 0.595215,3.71729 0.992025,4.1141 1.46745,4.3125 2.02148,4.3125 H 20.9785 c 0.5541,0 1.0295,-0.1984 1.4263,-0.59521 C 22.8016,3.32048 23,2.84505 23,2.29102 V -16.666 c 0,-0.5541 -0.1984,-1.0295 -0.5952,-1.4263 -0.3968,-0.3968 -0.8722,-0.5952 -1.4263,-0.5952 M 18.71,-6.1543 c -0.1947,-0.10481 -0.4043,-0.19091 -0.6289,-0.2583 -0.2247,-0.06738 -0.4642,-0.10107 -0.7188,-0.10107 -0.4342,0 -0.8385,0.09733 -1.2129,0.29199 -0.3743,0.19466 -0.6813,0.45671 -0.9209,0.78613 h -0.0224 l -3.0323,-1.75195 3.0323,-1.75195 c 0.2545,0.32942 0.569,0.59147 0.9433,0.78613 0.3744,0.19466 0.7787,0.29199 1.2129,0.29199 0.7487,0 1.3888,-0.26579 1.9204,-0.79736 0.5316,-0.53158 0.7974,-1.17171 0.7974,-1.92041 0,-0.7487 -0.2658,-1.3851 -0.7974,-1.9092 -0.5316,-0.5241 -1.1717,-0.7861 -1.9204,-0.7861 -0.7337,0 -1.3664,0.262 -1.8979,0.7861 -0.5316,0.5241 -0.7974,1.1605 -0.7974,1.9092 0,0.1947 0.0187,0.3818 0.0561,0.5615 0.0375,0.17971 0.0936,0.35191 0.1685,0.51662 l -0.0225,-0.02246 -3.0322,1.75196 v -3.48142 c 0.6738,-0.0899 1.2354,-0.3856 1.6846,-0.8872 0.4492,-0.5017 0.6738,-1.0969 0.6738,-1.7857 0,-0.7487 -0.262,-1.3888 -0.7861,-1.9204 -0.5241,-0.5316 -1.1605,-0.7974 -1.9092,-0.7974 -0.7487,0 -1.3851,0.2658 -1.90918,0.7974 -0.52409,0.5316 -0.78613,1.1717 -0.78613,1.9204 0,0.6888 0.22461,1.284 0.67383,1.7857 0.44921,0.5016 1.00328,0.7973 1.66208,0.8872 h 0.0225 v 3.50388 L 8.1084,-9.52344 c 0.07487,-0.14974 0.13102,-0.31445 0.16846,-0.49416 0.03743,-0.1797 0.05615,-0.3668 0.05615,-0.5615 0,-0.7487 -0.26579,-1.3851 -0.79737,-1.9092 -0.53157,-0.5241 -1.17171,-0.7861 -1.92041,-0.7861 -0.74869,0 -1.38509,0.262 -1.90918,0.7861 -0.52408,0.5241 -0.78613,1.1605 -0.78613,1.9092 0,0.7487 0.26205,1.38883 0.78613,1.92041 0.52409,0.53157 1.16049,0.79736 1.90918,0.79736 0.44922,0 0.86101,-0.09733 1.23536,-0.29199 0.37434,-0.19466 0.68131,-0.45671 0.92089,-0.78613 L 10.8262,-7.1875 7.79395,-5.43555 C 7.53939,-5.76497 7.22493,-6.02702 6.85059,-6.22168 6.47624,-6.41634 6.07194,-6.51367 5.6377,-6.51367 c -0.7487,0 -1.38884,0.26579 -1.92041,0.79736 -0.53158,0.53158 -0.79737,1.17171 -0.79737,1.92041 0,0.7487 0.26579,1.38509 0.79737,1.90918 0.53157,0.52409 1.17171,0.78613 1.92041,0.78613 0.73372,0 1.36637,-0.26204 1.89794,-0.78613 0.53158,-0.52409 0.79737,-1.16048 0.79737,-1.90918 0,-0.19466 -0.01872,-0.38183 -0.05615,-0.56152 C 8.23942,-4.53711 8.18327,-4.70931 8.1084,-4.87402 l 0.02246,0.02246 3.03224,-1.75196 v 3.50391 c -0.6738,0.08984 -1.23537,0.38932 -1.68458,0.89844 -0.44922,0.50911 -0.67383,1.10807 -0.67383,1.796873 0,0.748698 0.26204,1.385091 0.78613,1.909177 0.52408,0.52409 1.16048,0.78614 1.90918,0.78614 0.7487,0 1.3851,-0.26205 1.9092,-0.78614 0.5241,-0.524086 0.7861,-1.160479 0.7861,-1.909177 0,-0.688803 -0.2246,-1.287763 -0.6738,-1.796873 -0.4492,-0.50912 -1.0033,-0.8086 -1.6621,-0.89844 h -0.0225 v -3.50391 l 3.0547,1.75196 c -0.0749,0.16471 -0.131,0.33317 -0.1685,0.50537 -0.0374,0.1722 -0.0561,0.35563 -0.0561,0.55029 0,0.7487 0.2658,1.38509 0.7974,1.90918 0.5315,0.52409 1.1717,0.78613 1.9204,0.78613 0.7487,0 1.3851,-0.26204 1.9091,-0.78613 0.5241,-0.52409 0.7862,-1.16048 0.7862,-1.90918 0,-0.49414 -0.1236,-0.95084 -0.3706,-1.37012 -0.2471,-0.41927 -0.5728,-0.74121 -0.9771,-0.96582 L 18.71,-6.1543"
         id="path26"
         inkscape:connector-curvature="0"
         style="vector-effect:none;fill-rule:nonzero" />
    </g>
    <g
       transform="matrix(1.33333,0,0,1.33333,16,16)"
       font-size="8.25"
       font-weight="400"
       font-style="normal"
       id="g30"
       style="font-style:normal;font-weight:400;font-size:8.25px;font-family:'MS Shell Dlg 2';fill:none;stroke:#000000;stroke-width:1;stroke-linecap:square;stroke-linejoin:bevel;stroke-opacity:1" />
    <g
       transform="translate(16,16)"
       font-size="8.25"
       font-weight="400"
       font-style="normal"
       id="g32"
       style="font-style:normal;font-weight:400;font-size:8.25px;font-family:'MS Shell Dlg 2';fill:none;stroke:#000000;stroke-width:1;stroke-linecap:square;stroke-linejoin:bevel;stroke-opacity:1" />
    <g
       font-size="8.25"
       font-weight="400"
       font-style="normal"
       id="g34"
       style="font-style:normal;font-weight:400;font-size:8.25px;font-family:'MS Shell Dlg 2';fill:none;stroke:#000000;stroke-width:1;stroke-linecap:square;stroke-linejoin:bevel;stroke-opacity:1" />
  </g>
</svg>
