<?xml version="1.0" encoding="UTF-8" standalone="no"?>
<svg
        xmlns:dc="http://purl.org/dc/elements/1.1/"
        xmlns:cc="http://creativecommons.org/ns#"
        xmlns:rdf="http://www.w3.org/1999/02/22-rdf-syntax-ns#"
        xmlns:sodipodi="http://sodipodi.sourceforge.net/DTD/sodipodi-0.dtd"
        xmlns:inkscape="http://www.inkscape.org/namespaces/inkscape"
        xmlns="http://www.w3.org/2000/svg"
        width="20"
        height="20"
        viewBox="0 0 20 20"
        version="1.2"
        id="svg38"
        sodipodi:docname="60401010403.svg"
        inkscape:version="0.92.4 (5da689c313, 2019-01-14)">
    <metadata
            id="metadata42">
        <rdf:RDF>
            <cc:Work
                    rdf:about="">
                <dc:format>image/svg+xml</dc:format>
                <dc:type
                        rdf:resource="http://purl.org/dc/dcmitype/StillImage"/>
                <dc:title>Qt SVG Document</dc:title>
            </cc:Work>
        </rdf:RDF>
    </metadata>
    <sodipodi:namedview
            pagecolor="#ffffff"
            bordercolor="#666666"
            borderopacity="1"
            objecttolerance="10"
            gridtolerance="10"
            guidetolerance="10"
            inkscape:pageopacity="0"
            inkscape:pageshadow="2"
            inkscape:window-width="1920"
            inkscape:window-height="1017"
            id="namedview40"
            showgrid="false"
            inkscape:zoom="11.8"
            inkscape:cx="-5.2542373"
            inkscape:cy="10"
            inkscape:window-x="-8"
            inkscape:window-y="-8"
            inkscape:window-maximized="1"
            inkscape:current-layer="svg38"/>
    <title
            id="title2">Qt SVG Document
    </title>
    <desc
            id="desc4">Generated with Qt
    </desc>
    <defs
            id="defs6"/>
    <path
            d="M 3.818357,2.5 H 16.18163 c 0.36137,0 0.671413,0.1293913 0.930196,0.3881739 C 17.370609,3.1469562 17.5,3.4570002 17.5,3.8183692 V 16.181643 c 0,0.361324 -0.129391,0.671387 -0.388174,0.930177 C 16.853043,17.370609 16.543,17.5 16.18163,17.5 H 3.818357 C 3.457033,17.5 3.146973,17.370609 2.888184,17.11182 2.629395,16.85303 2.5,16.542967 2.5,16.181643 V 3.8183692 C 2.5,3.4570002 2.629395,3.1469562 2.888184,2.8881739 3.146973,2.6293913 3.457033,2.5 3.818357,2.5"
            id="path12-0"
            inkscape:connector-curvature="0"
            style="font-style:normal;font-weight:400;font-size:17.00779915px;font-family:icomoon;vector-effect:none;fill:#ffff00;fill-opacity:1;fill-rule:nonzero;stroke:none;stroke-width:0.65217394;stroke-linecap:square;stroke-linejoin:bevel"/>
    <path
            d="m 16.18163,2.9394347 c 0.244174,0 0.451696,0.0855 0.622566,0.2563696 0.170869,0.1708696 0.256369,0.3783913 0.256369,0.6225653 V 16.181643 c 0,0.244135 -0.0855,0.451657 -0.256369,0.622559 -0.17087,0.170896 -0.378392,0.256344 -0.622566,0.256344 H 3.818357 c -0.244135,0 -0.451657,-0.08545 -0.622559,-0.256344 C 3.024902,16.6333 2.939453,16.425778 2.939453,16.181643 V 3.8183696 c 0,-0.2441739 0.08545,-0.4516956 0.256345,-0.6225653 C 3.3667,3.0249348 3.574222,2.9394347 3.818357,2.9394347 H 16.18163 M 16.18163,2.5 H 3.818357 C 3.457033,2.5 3.146973,2.6293913 2.888184,2.8881739 2.629395,3.1469565 2.5,3.457 2.5,3.8183696 V 16.181643 c 0,0.361324 0.129395,0.671387 0.388184,0.930177 C 3.146973,17.370609 3.457033,17.5 3.818357,17.5 H 16.18163 c 0.36137,0 0.671413,-0.129391 0.930196,-0.38818 C 17.370609,16.85303 17.5,16.542967 17.5,16.181643 V 3.8183696 C 17.5,3.457 17.370609,3.1469565 17.111826,2.8881739 16.853043,2.6293913 16.543,2.5 16.18163,2.5 M 10,5.7958913 l 0.62987,1.2011737 0.351586,0.6445439 0.688435,-0.219718 1.303761,-0.395543 -0.395543,1.3037281 -0.219718,0.6884809 0.644544,0.35156 1.201174,0.629883 -1.201174,0.6298831 -0.644544,0.35156 0.219718,0.688481 0.395543,1.303709 -1.303761,-0.395511 -0.688435,-0.219724 -0.351586,0.64453 L 10,14.204102 9.37013,13.002928 9.018556,12.358398 8.330076,12.578122 7.026367,12.973633 7.421878,11.669924 7.641602,10.981443 6.997072,10.629883 5.795898,10 6.997072,9.370117 7.641602,9.0185569 7.421878,8.330076 7.026367,7.0263479 8.330076,7.4218909 9.018556,7.6416089 9.37013,6.997065 10,5.7958913 M 10,3.8916086 8.579102,6.586913 5.678709,5.7079782 6.572265,8.6083979 3.891602,10 6.586913,11.420898 5.708011,14.321289 8.608398,13.427735 10,16.108398 11.420891,13.413087 14.321304,14.291992 13.427761,11.391602 16.108391,10 13.413087,8.579102 14.292022,5.6786956 11.391609,6.5722391 10,3.8916086"
            id="path26"
            inkscape:connector-curvature="0"
            style="font-style:normal;font-weight:400;font-size:17.00779915px;font-family:icomoon;vector-effect:none;fill:#000000;fill-opacity:1;fill-rule:nonzero;stroke:none;stroke-width:0.65217394;stroke-linecap:square;stroke-linejoin:bevel"/>
</svg>
