<?xml version="1.0" encoding="UTF-8" standalone="no"?>
<svg
   xmlns:dc="http://purl.org/dc/elements/1.1/"
   xmlns:cc="http://creativecommons.org/ns#"
   xmlns:rdf="http://www.w3.org/1999/02/22-rdf-syntax-ns#"
   xmlns:svg="http://www.w3.org/2000/svg"
   xmlns="http://www.w3.org/2000/svg"
   xmlns:sodipodi="http://sodipodi.sourceforge.net/DTD/sodipodi-0.dtd"
   xmlns:inkscape="http://www.inkscape.org/namespaces/inkscape"
   width="20"
   height="20"
   viewBox="0 0 20 20"
   version="1.2"
   id="svg38"
   sodipodi:docname="60401010131.svg"
   inkscape:version="0.92.4 (5da689c313, 2019-01-14)">
  <metadata
     id="metadata42">
    <rdf:RDF>
      <cc:Work
         rdf:about="">
        <dc:format>image/svg+xml</dc:format>
        <dc:type
           rdf:resource="http://purl.org/dc/dcmitype/StillImage" />
      </cc:Work>
    </rdf:RDF>
  </metadata>
  <sodipodi:namedview
     pagecolor="#ffffff"
     bordercolor="#666666"
     borderopacity="1"
     objecttolerance="10"
     gridtolerance="10"
     guidetolerance="10"
     inkscape:pageopacity="0"
     inkscape:pageshadow="2"
     inkscape:window-width="1920"
     inkscape:window-height="1017"
     id="namedview40"
     showgrid="false"
     inkscape:zoom="11.8"
     inkscape:cx="10"
     inkscape:cy="10"
     inkscape:window-x="-8"
     inkscape:window-y="-8"
     inkscape:window-maximized="1"
     inkscape:current-layer="svg38" />
  <title
     id="title2">Qt SVG Document</title>
  <desc
     id="desc4">Generated with Qt</desc>
  <defs
     id="defs6" />
  <g
     id="g36"
     transform="matrix(0.65217391,0,0,0.65217391,-0.43478256,-0.43478256)"
     style="fill:none;fill-rule:evenodd;stroke:#000000;stroke-width:1;stroke-linecap:square;stroke-linejoin:bevel">
    <g
       transform="translate(16,16)"
       font-size="8.25"
       font-weight="400"
       font-style="normal"
       id="g8"
       style="font-style:normal;font-weight:400;font-size:8.25px;font-family:'MS Shell Dlg 2';fill:none;stroke:#000000;stroke-width:1;stroke-linecap:square;stroke-linejoin:bevel;stroke-opacity:1" />
    <g
       transform="matrix(1.33333,0,0,1.33333,16,16)"
       font-size="8.25"
       font-weight="400"
       font-style="normal"
       id="g10"
       style="font-style:normal;font-weight:400;font-size:8.25px;font-family:'MS Shell Dlg 2';fill:none;stroke:#000000;stroke-width:1;stroke-linecap:square;stroke-linejoin:bevel;stroke-opacity:1" />
    <g
       transform="translate(4.5,23.1875)"
       font-size="17.0078"
       font-weight="400"
       font-style="normal"
       id="g14"
       style="font-style:normal;font-weight:400;font-size:17.00779915px;font-family:icomoon;fill:#ffffff;fill-opacity:1;stroke:none">
      <path
         d="M 2.02148,-18.6875 H 20.9785 c 0.5541,0 1.0295,0.1984 1.4263,0.5952 C 22.8016,-17.6955 23,-17.2201 23,-16.666 V 2.29102 C 23,2.84505 22.8016,3.32048 22.4048,3.71729 22.008,4.1141 21.5326,4.3125 20.9785,4.3125 H 2.02148 C 1.46745,4.3125 0.992025,4.1141 0.595215,3.71729 0.198405,3.32048 0,2.84505 0,2.29102 V -16.666 c 0,-0.5541 0.198405,-1.0295 0.595215,-1.4263 0.39681,-0.3968 0.872235,-0.5952 1.426265,-0.5952"
         id="path12"
         inkscape:connector-curvature="0"
         style="vector-effect:none;fill-rule:nonzero" />
    </g>
    <g
       transform="matrix(1.33333,0,0,1.33333,16,16)"
       font-size="8.25"
       font-weight="400"
       font-style="normal"
       id="g16"
       style="font-style:normal;font-weight:400;font-size:8.25px;font-family:'MS Shell Dlg 2';fill:none;stroke:#000000;stroke-width:1;stroke-linecap:square;stroke-linejoin:bevel;stroke-opacity:1" />
    <g
       transform="translate(16,16)"
       font-size="8.25"
       font-weight="400"
       font-style="normal"
       id="g18"
       style="font-style:normal;font-weight:400;font-size:8.25px;font-family:'MS Shell Dlg 2';fill:none;stroke:#000000;stroke-width:1;stroke-linecap:square;stroke-linejoin:bevel;stroke-opacity:1" />
    <g
       font-size="8.25"
       font-weight="400"
       font-style="normal"
       id="g20"
       style="font-style:normal;font-weight:400;font-size:8.25px;font-family:'MS Shell Dlg 2';fill:none;stroke:#000000;stroke-width:1;stroke-linecap:square;stroke-linejoin:bevel;stroke-opacity:1" />
    <g
       transform="translate(16,16)"
       font-size="8.25"
       font-weight="400"
       font-style="normal"
       id="g22"
       style="font-style:normal;font-weight:400;font-size:8.25px;font-family:'MS Shell Dlg 2';fill:none;stroke:#000000;stroke-width:1;stroke-linecap:square;stroke-linejoin:bevel;stroke-opacity:1" />
    <g
       transform="matrix(1.33333,0,0,1.33333,16,16)"
       font-size="8.25"
       font-weight="400"
       font-style="normal"
       id="g24"
       style="font-style:normal;font-weight:400;font-size:8.25px;font-family:'MS Shell Dlg 2';fill:none;stroke:#000000;stroke-width:1;stroke-linecap:square;stroke-linejoin:bevel;stroke-opacity:1" />
    <g
       transform="translate(4.5,23.1875)"
       font-size="17.0078"
       font-weight="400"
       font-style="normal"
       id="g28"
       style="font-style:normal;font-weight:400;font-size:17.00779915px;font-family:icomoon;fill:#000000;fill-opacity:1;stroke:none">
      <path
         d="m 20.9785,-18.0137 c 0.3744,0 0.6926,0.1311 0.9546,0.3931 0.262,0.262 0.3931,0.5802 0.3931,0.9546 V 2.29102 c 0,0.37434 -0.1311,0.69254 -0.3931,0.95459 -0.262,0.26204 -0.5802,0.39306 -0.9546,0.39306 H 2.02148 C 1.64714,3.63867 1.32894,3.50765 1.06689,3.24561 0.80485,2.98356 0.673828,2.66536 0.673828,2.29102 V -16.666 c 0,-0.3744 0.131022,-0.6926 0.393062,-0.9546 0.26205,-0.262 0.58025,-0.3931 0.95459,-0.3931 H 20.9785 m 0,-0.6738 H 2.02148 c -0.55403,0 -1.029455,0.1984 -1.426265,0.5952 C 0.198405,-17.6955 0,-17.2201 0,-16.666 V 2.29102 C 0,2.84505 0.198405,3.32048 0.595215,3.71729 0.992025,4.1141 1.46745,4.3125 2.02148,4.3125 H 20.9785 c 0.5541,0 1.0295,-0.1984 1.4263,-0.59521 C 22.8016,3.32048 23,2.84505 23,2.29102 V -16.666 c 0,-0.5541 -0.1984,-1.0295 -0.5952,-1.4263 -0.3968,-0.3968 -0.8722,-0.5952 -1.4263,-0.5952 m -4.582,16.55371 H 6.60352 v -4.37988 h 1.01074 v 3.36914 h 7.77144 v -3.36914 h 1.0108 v 4.37988 M 11.5,-16.0146 5.07617,-12.8252 H 17.9238 L 11.5,-16.0146 m -4.78418,9.8603 c -0.01497,0 -0.02995,0 -0.04492,0 -0.01498,0 -0.02995,0 -0.04492,0 -0.7487,0 -1.38884,-0.26204 -1.92041,-0.78613 C 4.17399,-7.46452 3.9082,-8.10091 3.9082,-8.84961 c 0,-0.01497 0,-0.02995 0,-0.04492 0,-0.01498 0,-0.02995 0,-0.04492 0,-0.97331 0.35563,-1.68455 1.0669,-2.13375 0.71126,-0.4493 1.32145,-0.7113 1.83056,-0.7862 0,0 0.00375,0 0.01123,0 0.00749,0 0.01872,0 0.0337,0 0.08984,0 0.16845,0.0337 0.23584,0.1011 0.06738,0.0674 0.10107,0.146 0.10107,0.2358 0,0.0899 -0.0262,0.1648 -0.07861,0.2246 -0.05241,0.0599 -0.12354,0.0974 -0.21338,0.1124 -0.04492,0 -0.44173,0.1422 -1.19043,0.4267 -0.7487,0.2845 -1.12305,0.89845 -1.12305,1.84181 0,0 0,0.00748 0,0.02246 0,0.01497 0,0.02995 0,0.04492 0,0.56901 0.19841,1.05192 0.59522,1.44873 0.39681,0.39681 0.87972,0.59522 1.44873,0.59522 0.01497,0 0.02994,0 0.04492,0 0.01497,0 0.02995,0 0.04492,0 0.50911,0 1.007,-0.10108 1.49365,-0.30323 C 8.69613,-7.31104 8.93945,-7.72656 8.93945,-8.35547 8.90951,-8.65495 8.78597,-8.91325 8.56885,-9.13037 8.35173,-9.34749 8.09342,-9.47103 7.79395,-9.50098 7.73405,-9.51595 7.67415,-9.52718 7.61426,-9.53467 7.55436,-9.54215 7.48698,-9.5459 7.41211,-9.5459 c -0.23958,0 -0.46419,0.0599 -0.67383,0.17969 -0.20963,0.11979 -0.36686,0.2845 -0.47168,0.49414 -0.02995,0.0599 -0.07112,0.1123 -0.12353,0.15723 -0.05241,0.04492 -0.11605,0.06738 -0.19092,0.06738 -0.08985,0 -0.16846,-0.03369 -0.23584,-0.10108 -0.06738,-0.06738 -0.10108,-0.15348 -0.10108,-0.2583 0,-0.01497 0,-0.03369 0,-0.05615 0,-0.02246 0.00749,-0.04866 0.02247,-0.07861 v 0.02246 c 0.16471,-0.32943 0.40429,-0.59522 0.71875,-0.79736 0.31445,-0.2022 0.66634,-0.3032 1.05566,-0.3032 0.08984,0 0.17969,0.0037 0.26953,0.0112 0.08984,0.0075 0.17969,0.0262 0.26953,0.0562 H 7.92871 c 0.46419,0.0599 0.85352,0.25826 1.16797,0.59517 0.31445,0.33692 0.48665,0.72998 0.5166,1.1792 v 0.02246 c 0,0.70378 -0.25456,1.24658 -0.76367,1.62842 -0.50912,0.38184 -1.22038,0.57275 -2.13379,0.57275 m 9.56838,0 c -0.9134,0 -1.6247,-0.19091 -2.1338,-0.57275 -0.5091,-0.38184 -0.7637,-0.93213 -0.7637,-1.65088 0.03,-0.46419 0.2022,-0.86475 0.5166,-1.20166 0.3145,-0.33691 0.7038,-0.52781 1.168,-0.57271 v -0.0225 c 0.0749,-0.015 0.1572,-0.03 0.2471,-0.0449 0.0898,-0.015 0.1796,-0.0225 0.2695,-0.0225 0.3893,0 0.7412,0.1011 1.0557,0.30324 0.3144,0.20214 0.554,0.46793 0.7187,0.79736 0.015,0.02995 0.0225,0.05615 0.0225,0.07861 0,0.02246 0,0.04118 0,0.05615 0,0.08985 -0.0337,0.16846 -0.1011,0.23584 -0.0674,0.06739 -0.146,0.10108 -0.2358,0.10108 -0.0749,0 -0.1386,-0.01872 -0.191,-0.05615 -0.0524,-0.03744 -0.0936,-0.0861 -0.1235,-0.146 -0.1048,-0.20964 -0.262,-0.37809 -0.4717,-0.50537 -0.2096,-0.12728 -0.4342,-0.19092 -0.6738,-0.19092 -0.0749,0 -0.1423,0.00749 -0.2022,0.02246 -0.0599,0.01498 -0.1197,0.02995 -0.1796,0.04492 -0.2995,0.02995 -0.5578,0.14974 -0.7749,0.35938 -0.2172,0.20963 -0.3407,0.46419 -0.3707,0.76367 0,0.64388 0.2434,1.06315 0.73,1.25781 0.4867,0.19466 0.9846,0.29199 1.4937,0.29199 0.015,0 0.0299,0 0.0449,0 0.015,0 0.0299,0 0.0449,0 0.569,0 1.0519,-0.1984 1.4488,-0.59521 0.3968,-0.39681 0.5952,-0.87223 0.5952,-1.42627 0,-0.01497 0,-0.02995 0,-0.04492 0,-0.01498 -0.0075,-0.02995 -0.0225,-0.04492 h 0.0225 c 0,-0.94336 -0.3856,-1.55355 -1.1568,-1.83055 -0.7711,-0.277 -1.1567,-0.4155 -1.1567,-0.4155 -0.0899,-0.015 -0.161,-0.0562 -0.2134,-0.1236 -0.0524,-0.0674 -0.0786,-0.1385 -0.0786,-0.2134 0,-0.1048 0.0337,-0.1909 0.1011,-0.2583 0.0674,-0.0673 0.146,-0.101 0.2358,-0.101 0.015,0 0.0262,0.0037 0.0337,0.0112 0.0075,0.0075 0.0112,0.0112 0.0112,0.0112 0.5092,0.0749 1.1193,0.3332 1.8306,0.7749 0.7113,0.4418 1.0669,1.15677 1.0669,2.14505 0,0.01497 0,0.02994 0,0.04492 0,0.01497 0,0.02995 0,0.04492 0,0.7487 -0.2658,1.38509 -0.7974,1.90918 -0.5315,0.52409 -1.1717,0.78613 -1.9204,0.78613 -0.015,0 -0.0299,0 -0.0449,0 -0.015,0 -0.0299,0 -0.0449,0 m -9.43361,-5.7051 h 9.38871 v 0.6739 H 6.85059 v -0.6739 M 4.06543,-1.14551 H 18.9346 V 1.5498 H 4.06543 v -2.69531"
         id="path26"
         inkscape:connector-curvature="0"
         style="vector-effect:none;fill-rule:nonzero" />
    </g>
    <g
       transform="matrix(1.33333,0,0,1.33333,16,16)"
       font-size="8.25"
       font-weight="400"
       font-style="normal"
       id="g30"
       style="font-style:normal;font-weight:400;font-size:8.25px;font-family:'MS Shell Dlg 2';fill:none;stroke:#000000;stroke-width:1;stroke-linecap:square;stroke-linejoin:bevel;stroke-opacity:1" />
    <g
       transform="translate(16,16)"
       font-size="8.25"
       font-weight="400"
       font-style="normal"
       id="g32"
       style="font-style:normal;font-weight:400;font-size:8.25px;font-family:'MS Shell Dlg 2';fill:none;stroke:#000000;stroke-width:1;stroke-linecap:square;stroke-linejoin:bevel;stroke-opacity:1" />
    <g
       font-size="8.25"
       font-weight="400"
       font-style="normal"
       id="g34"
       style="font-style:normal;font-weight:400;font-size:8.25px;font-family:'MS Shell Dlg 2';fill:none;stroke:#000000;stroke-width:1;stroke-linecap:square;stroke-linejoin:bevel;stroke-opacity:1" />
  </g>
</svg>
