<svg xmlns="http://www.w3.org/2000/svg" width="20" height="20" version="1.2">
    <g font-weight="400" style="fill:none;fill-rule:evenodd;stroke:#000;stroke-width:1;stroke-linecap:square;stroke-linejoin:bevel">
        <g style="font-style:normal;font-weight:400;font-size:19.84250069px;font-family:icomoon;fill:#fff;fill-opacity:1;stroke:none">
            <path d="M2.285-21.125h21.43a2.2 2.2 0 0 1 1.612.673A2.2 2.2 0 0 1 26-18.84V2.59a2.2 2.2 0 0 1-.673 1.612 2.2 2.2 0 0 1-1.612.673H2.285a2.2 2.2 0 0 1-1.612-.673A2.2 2.2 0 0 1 0 2.59v-21.43a2.2 2.2 0 0 1 .673-1.612 2.2 2.2 0 0 1 1.612-.673" font-size="19.843" style="vector-effect:none;fill-rule:nonzero" transform="matrix(.6923 0 0 .6923 1 15.625)"/>
        </g>
        <g style="font-style:normal;font-weight:400;font-size:17.00779915px;font-family:icomoon;fill:#000;fill-opacity:1;stroke:none">
            <path d="M20.979-18.014a1.3 1.3 0 0 1 .954.393 1.3 1.3 0 0 1 .393.955V2.291a1.3 1.3 0 0 1-.393.955 1.3 1.3 0 0 1-.955.393H2.021a1.3 1.3 0 0 1-.954-.393 1.3 1.3 0 0 1-.393-.955v-18.957a1.3 1.3 0 0 1 .393-.955 1.3 1.3 0 0 1 .954-.393h18.957m0-.674H2.021c-.554 0-1.029.199-1.426.596A1.946 1.946 0 0 0 0-16.666V2.291c0 .554.198 1.03.595 1.426.397.397.872.595 1.426.595h18.957c.555 0 1.03-.198 1.427-.595.397-.397.595-.872.595-1.426v-18.957c0-.554-.198-1.03-.595-1.426a1.946 1.946 0 0 0-1.426-.596M9.164-15.564h4.74v4.739h-4.74v-4.74m2.673 9.928h-.023a18.704 18.704 0 0 1-5.817-.92l.135.044.494-1.617a17.408 17.408 0 0 0 5.121.764h.18c.913 0 1.812-.068 2.695-.202a15.952 15.952 0 0 0 2.56-.607l-.112.045.517 1.617c-.854.27-1.76.483-2.718.64-.958.158-1.947.236-2.965.236h-.067m0 4.043h-.202c-.66 0-1.318-.03-1.977-.09a20.295 20.295 0 0 1-3.773-.808 17.634 17.634 0 0 1-1.752-.674l.112.045.674-1.55c.988.45 2.055.797 3.2 1.045 1.146.247 2.325.37 3.538.37h.18-.022.157c1.228 0 2.422-.127 3.582-.382a16.39 16.39 0 0 0 3.313-1.1l-.09.045.674 1.527c-.554.255-1.123.48-1.707.674a18.828 18.828 0 0 1-3.75.808c-.66.06-1.326.09-2 .09h-.157m0 4.066h-.27a17.456 17.456 0 0 1-4.896-.697 17.107 17.107 0 0 1-2.269-.83A20.103 20.103 0 0 1 2.291-.158l.067.022.921-1.415c.6.375 1.22.704 1.865.988.643.285 1.314.528 2.01.73a15.592 15.592 0 0 0 4.39.618h.315-.022.314c.779 0 1.543-.052 2.291-.157.75-.12 1.48-.285 2.19-.494a15.656 15.656 0 0 0 3.965-1.797l-.068.045.944 1.392c-.66.42-1.355.801-2.09 1.146a17.323 17.323 0 0 1-7.232 1.55H11.814h.023" font-size="17.008" style="vector-effect:none;fill-rule:nonzero" transform="matrix(.6923 0 0 .6923 2.038 14.976)"/>
        </g>
        <g style="font-style:normal;font-weight:400;font-size:19.84250069px;font-family:icomoon;fill:#000;fill-opacity:1;stroke:none">
            <path d="M23.943-20.44c.373 0 .694.136.965.407.271.27.406.592.406.965V2.818c0 .373-.135.694-.406.965-.27.271-.592.406-.965.406H2.057c-.373 0-.694-.135-.965-.406a1.318 1.318 0 0 1-.406-.965v-21.886c0-.373.135-.694.406-.965.27-.271.592-.407.965-.407h21.886m0-.685H2.057c-.576 0-1.063.199-1.46.597A1.986 1.986 0 0 0 0-19.068V2.818c0 .576.199 1.063.597 1.46.397.398.884.597 1.46.597h21.886c.576 0 1.063-.199 1.46-.597.398-.397.597-.884.597-1.46v-21.886c0-.576-.199-1.063-.597-1.46a1.986 1.986 0 0 0-1.46-.597" font-size="19.843" style="vector-effect:none;fill-rule:nonzero" transform="matrix(.6923 0 0 .6923 1 15.625)"/>
        </g>
    </g>
</svg>
