<?xml version="1.0" encoding="UTF-8" standalone="no"?>
<svg
   xmlns:dc="http://purl.org/dc/elements/1.1/"
   xmlns:cc="http://creativecommons.org/ns#"
   xmlns:rdf="http://www.w3.org/1999/02/22-rdf-syntax-ns#"
   xmlns:svg="http://www.w3.org/2000/svg"
   xmlns="http://www.w3.org/2000/svg"
   xmlns:sodipodi="http://sodipodi.sourceforge.net/DTD/sodipodi-0.dtd"
   xmlns:inkscape="http://www.inkscape.org/namespaces/inkscape"
   width="20"
   height="20"
   viewBox="0 0 20 20"
   version="1.2"
   id="svg66"
   sodipodi:docname="60204011214.svg"
   inkscape:version="0.92.4 (5da689c313, 2019-01-14)">
  <metadata
     id="metadata70">
    <rdf:RDF>
      <cc:Work
         rdf:about="">
        <dc:format>image/svg+xml</dc:format>
        <dc:type
           rdf:resource="http://purl.org/dc/dcmitype/StillImage" />
      </cc:Work>
    </rdf:RDF>
  </metadata>
  <sodipodi:namedview
     pagecolor="#ffffff"
     bordercolor="#666666"
     borderopacity="1"
     objecttolerance="10"
     gridtolerance="10"
     guidetolerance="10"
     inkscape:pageopacity="0"
     inkscape:pageshadow="2"
     inkscape:window-width="1920"
     inkscape:window-height="1017"
     id="namedview68"
     showgrid="false"
     inkscape:zoom="11.8"
     inkscape:cx="-5.2542373"
     inkscape:cy="10"
     inkscape:window-x="-8"
     inkscape:window-y="-8"
     inkscape:window-maximized="1"
     inkscape:current-layer="svg66" />
  <title
     id="title2">Qt SVG Document</title>
  <desc
     id="desc4">Generated with Qt</desc>
  <defs
     id="defs6" />
  <g
     id="g64"
     transform="matrix(0.66666667,0,0,0.66666667,-0.66666672,-0.66666672)"
     style="fill:none;fill-rule:evenodd;stroke:#000000;stroke-width:1;stroke-linecap:square;stroke-linejoin:bevel">
    <g
       transform="translate(16,16)"
       font-size="8.25"
       font-weight="400"
       font-style="normal"
       id="g8"
       style="font-style:normal;font-weight:400;font-size:8.25px;font-family:'MS Shell Dlg 2';fill:none;stroke:#000000;stroke-width:1;stroke-linecap:square;stroke-linejoin:bevel;stroke-opacity:1" />
    <g
       transform="matrix(1.33333,0,0,1.33333,16,16)"
       font-size="8.25"
       font-weight="400"
       font-style="normal"
       id="g10"
       style="font-style:normal;font-weight:400;font-size:8.25px;font-family:'MS Shell Dlg 2';fill:none;stroke:#000000;stroke-width:1;stroke-linecap:square;stroke-linejoin:bevel;stroke-opacity:1" />
    <g
       transform="translate(1,25.375)"
       font-size="22.6771"
       font-weight="400"
       font-style="normal"
       id="g14"
       style="font-style:normal;font-weight:400;font-size:22.67709923px;font-family:icomoon;fill:#ffffff;fill-opacity:1;stroke:none">
      <path
         d="M 2.63672,-24.375 H 27.3633 c 0.7226,0 1.3428,0.2588 1.8603,0.7764 0.5176,0.5175 0.7764,1.1377 0.7764,1.8603 V 2.98828 C 30,3.71094 29.7412,4.33105 29.2236,4.84863 28.7061,5.36621 28.0859,5.625 27.3633,5.625 H 2.63672 C 1.91406,5.625 1.29395,5.36621 0.776367,4.84863 0.258789,4.33105 0,3.71094 0,2.98828 V -21.7383 c 0,-0.7226 0.258789,-1.3428 0.776367,-1.8603 0.517583,-0.5176 1.137693,-0.7764 1.860353,-0.7764"
         id="path12"
         inkscape:connector-curvature="0"
         style="vector-effect:none;fill-rule:nonzero" />
    </g>
    <g
       transform="matrix(1.33333,0,0,1.33333,16,16)"
       font-size="8.25"
       font-weight="400"
       font-style="normal"
       id="g16"
       style="font-style:normal;font-weight:400;font-size:8.25px;font-family:'MS Shell Dlg 2';fill:none;stroke:#000000;stroke-width:1;stroke-linecap:square;stroke-linejoin:bevel;stroke-opacity:1" />
    <g
       transform="translate(16,16)"
       font-size="8.25"
       font-weight="400"
       font-style="normal"
       id="g18"
       style="font-style:normal;font-weight:400;font-size:8.25px;font-family:'MS Shell Dlg 2';fill:none;stroke:#000000;stroke-width:1;stroke-linecap:square;stroke-linejoin:bevel;stroke-opacity:1" />
    <g
       font-size="8.25"
       font-weight="400"
       font-style="normal"
       id="g20"
       style="font-style:normal;font-weight:400;font-size:8.25px;font-family:'MS Shell Dlg 2';fill:none;stroke:#000000;stroke-width:1;stroke-linecap:square;stroke-linejoin:bevel;stroke-opacity:1" />
    <g
       transform="translate(16,16)"
       font-size="8.25"
       font-weight="400"
       font-style="normal"
       id="g22"
       style="font-style:normal;font-weight:400;font-size:8.25px;font-family:'MS Shell Dlg 2';fill:none;stroke:#000000;stroke-width:1;stroke-linecap:square;stroke-linejoin:bevel;stroke-opacity:1" />
    <g
       transform="matrix(1.33333,0,0,1.33333,16,16)"
       font-size="8.25"
       font-weight="400"
       font-style="normal"
       id="g24"
       style="font-style:normal;font-weight:400;font-size:8.25px;font-family:'MS Shell Dlg 2';fill:none;stroke:#000000;stroke-width:1;stroke-linecap:square;stroke-linejoin:bevel;stroke-opacity:1" />
    <g
       transform="translate(4.5,23.1875)"
       font-size="17.0078"
       font-weight="400"
       font-style="normal"
       id="g28"
       style="font-style:normal;font-weight:400;font-size:17.00779915px;font-family:icomoon;fill:#000000;fill-opacity:1;stroke:none">
      <path
         d="m 20.9785,-18.0137 c 0.3744,0 0.6926,0.1311 0.9546,0.3931 0.262,0.262 0.3931,0.5802 0.3931,0.9546 V 2.29102 c 0,0.37434 -0.1311,0.69254 -0.3931,0.95459 -0.262,0.26204 -0.5802,0.39306 -0.9546,0.39306 H 2.02148 C 1.64714,3.63867 1.32894,3.50765 1.06689,3.24561 0.80485,2.98356 0.673828,2.66536 0.673828,2.29102 V -16.666 c 0,-0.3744 0.131022,-0.6926 0.393062,-0.9546 0.26205,-0.262 0.58025,-0.3931 0.95459,-0.3931 H 20.9785 m 0,-0.6738 H 2.02148 c -0.55403,0 -1.029455,0.1984 -1.426265,0.5952 C 0.198405,-17.6955 0,-17.2201 0,-16.666 V 2.29102 C 0,2.84505 0.198405,3.32048 0.595215,3.71729 0.992025,4.1141 1.46745,4.3125 2.02148,4.3125 H 20.9785 c 0.5541,0 1.0295,-0.1984 1.4263,-0.59521 C 22.8016,3.32048 23,2.84505 23,2.29102 V -16.666 c 0,-0.5541 -0.1984,-1.0295 -0.5952,-1.4263 -0.3968,-0.3968 -0.8722,-0.5952 -1.4263,-0.5952 M 6.22168,-7.56934 c 0.07487,0.10482 0.16846,0.18344 0.28076,0.23584 0.11231,0.05241 0.22835,0.07862 0.34815,0.07862 0.02994,0 0.0524,0 0.06738,0 0.01497,0 0.03743,-0.00749 0.06738,-0.02246 0.56901,-0.0599 1.11182,-0.17969 1.62842,-0.35938 0.5166,-0.17969 0.99951,-0.41178 1.44873,-0.69629 l -0.0449,0.02246 c 0,1.00326 0.1235,1.86426 0.3706,2.58301 0.2471,0.71875 0.5428,1.07813 0.8872,1.07813 0.3444,0 0.6364,-0.35938 0.876,-1.07813 0.2396,-0.71875 0.3593,-1.57975 0.3593,-2.58301 0.4343,0.26953 0.906,0.49414 1.4151,0.67383 0.5091,0.17969 1.0407,0.29948 1.5947,0.35938 h 0.0449 c 0.1797,0 0.3332,-0.02246 0.4605,-0.06739 0.1273,-0.04492 0.2208,-0.11979 0.2807,-0.22461 0.1648,-0.2845 -0.0037,-0.71126 -0.5053,-1.28027 -0.5017,-0.56901 -1.1867,-1.10807 -2.0552,-1.61719 0.8685,-0.5091 1.5535,-1.0482 2.0552,-1.6172 0.5016,-0.569 0.6701,-1.0032 0.5053,-1.3027 -0.0599,-0.0899 -0.1534,-0.1572 -0.2807,-0.2022 -0.1273,-0.0449 -0.2808,-0.0674 -0.4605,-0.0674 -0.584,0.0599 -1.1305,0.1797 -1.6396,0.3594 -0.5091,0.1797 -0.9883,0.4193 -1.4375,0.7188 l 0.0224,-0.0225 c 0,-1.0182 -0.1235,-1.883 -0.3706,-2.5942 -0.247,-0.7113 -0.5353,-1.0669 -0.8647,-1.0669 -0.3444,0 -0.6364,0.3556 -0.876,1.0669 -0.2396,0.7112 -0.3668,1.576 -0.3818,2.5942 -0.43427,-0.2845 -0.90595,-0.5166 -1.41506,-0.6963 -0.50912,-0.1797 -1.04069,-0.292 -1.59473,-0.3369 H 6.98535 c -0.19466,0 -0.35563,0.0225 -0.48291,0.0674 -0.12728,0.0449 -0.22086,0.1123 -0.28076,0.2021 -0.16471,0.2995 0.00374,0.7338 0.50537,1.3028 0.50163,0.569 1.18669,1.108 2.05518,1.6172 -0.86849,0.4941 -1.55355,1.02568 -2.05518,1.59469 -0.50163,0.56901 -0.67008,0.99577 -0.50537,1.28027 m 4.73922,-2.89746 0.045,-0.1572 0.1123,-0.1123 0.1797,-0.0674 0.1572,0.0674 c 0.0299,0.0149 0.0524,0.0299 0.0674,0.0449 0.0149,0.015 0.0374,0.0374 0.0673,0.0674 0,0.015 0,0.0374 0,0.0674 0,0.0299 0.0075,0.0599 0.0225,0.0898 l -0.0225,0.1572 -0.1347,0.1348 -0.1572,0.0225 -0.1797,-0.0225 -0.1123,-0.1348 -0.045,-0.1572 m 0.337,5.05371 c -0.1797,-0.37434 -0.322,-0.78239 -0.4268,-1.22412 -0.1048,-0.44173 -0.1572,-0.89469 -0.1572,-1.35888 0,-0.07487 0,-0.14226 0,-0.20215 0,-0.0599 0.0075,-0.11979 0.0224,-0.17969 v 0.02246 c 0,-0.07487 0,-0.14225 0,-0.20215 0,-0.05989 0,-0.11979 0,-0.17968 l 0.2696,-0.20215 c 0.0449,0.02994 0.0898,0.05241 0.1347,0.06738 0.0449,0.01497 0.0974,0.02246 0.1573,0.02246 0.0449,0 0.0898,-0.00749 0.1347,-0.02246 0.0449,-0.01497 0.0899,-0.03744 0.1348,-0.06738 l 0.2695,0.20215 c 0,0.05989 0,0.11979 0,0.17968 0,0.0599 0,0.12728 0,0.20215 0.015,0.04492 0.0225,0.09359 0.0225,0.146 0,0.05241 0,0.10856 0,0.16845 0,0.47917 -0.0524,0.94336 -0.1573,1.39258 -0.1048,0.44922 -0.2545,0.87598 -0.4492,1.28028 l 0.0225,-0.04493 h 0.0225 m 4.3798,-2.53808 h -0.1123 c -0.5241,-0.0599 -1.0182,-0.1722 -1.4824,-0.33692 -0.4642,-0.16471 -0.8984,-0.38183 -1.3027,-0.65136 l 0.0224,0.02246 -0.3369,-0.20215 c 0,-0.0599 0,-0.11979 0,-0.17969 0,-0.05989 0,-0.11979 0,-0.17969 0.0449,-0.01497 0.0861,-0.03743 0.1236,-0.06738 0.0374,-0.02995 0.0711,-0.06738 0.101,-0.1123 0.015,-0.02995 0.0262,-0.06364 0.0337,-0.10108 0.0075,-0.03743 0.0113,-0.07861 0.0113,-0.12353 0,-0.01498 0,-0.02621 0,-0.03369 0,-0.00749 0,-0.01872 0,-0.0337 l 0.3144,-0.1348 c 0.0599,0.03 0.1161,0.0599 0.1685,0.08988 0.0524,0.02995 0.1085,0.0599 0.1684,0.08985 0.4642,0.23958 0.8835,0.52034 1.2578,0.84228 0.3744,0.32194 0.7038,0.68506 0.9883,1.08936 v 0.02246 h 0.0449 m -0.1123,-5.03123 h 0.0674 c -0.2995,0.4043 -0.6364,0.7711 -1.0107,1.1006 -0.3744,0.3294 -0.7862,0.6064 -1.2354,0.831 l -0.0224,0.0225 c -0.045,0.0299 -0.0936,0.0599 -0.146,0.0898 -0.0524,0.03 -0.1086,0.0599 -0.1685,0.0899 h -0.0225 l -0.3144,-0.1573 c 0,0 0,-0.0037 0,-0.0112 0,-0.0075 0,-0.0187 0,-0.0337 0,-0.0449 -0.0038,-0.0861 -0.0112,-0.1235 -0.0075,-0.0375 -0.0262,-0.0711 -0.0562,-0.1011 h 0.0225 c -0.03,-0.0449 -0.0637,-0.0823 -0.1011,-0.1123 -0.0374,-0.0299 -0.0786,-0.0524 -0.1235,-0.0674 0,-0.0599 0,-0.1198 0,-0.1797 0,-0.0599 0,-0.1198 0,-0.1797 l 0.3369,-0.2021 c 0.3893,-0.2546 0.8161,-0.4642 1.2802,-0.6289 0.4642,-0.1647 0.9509,-0.277 1.46,-0.3369 h 0.0449 m -4.29,-2.5381 c 0.1797,0.3893 0.3182,0.8011 0.4155,1.2353 0.0973,0.4343 0.146,0.891 0.146,1.3702 0,0.0599 0,0.1198 0,0.1796 0,0.0599 0,0.1198 0,0.1797 0,0.0599 0,0.1198 0,0.1797 0,0.0599 0,0.1198 0,0.1797 l -0.292,0.2022 c -0.0299,-0.03 -0.0711,-0.0524 -0.1235,-0.0674 -0.0524,-0.015 -0.1011,-0.0225 -0.146,-0.0225 -0.0449,0 -0.0936,0.0075 -0.146,0.0225 -0.0524,0.015 -0.0936,0.0374 -0.1235,0.0674 l -0.292,-0.2022 c 0,-0.0599 0,-0.1198 0,-0.1797 0,-0.0599 0,-0.1198 0,-0.1797 0,-0.0599 -0.0038,-0.1235 -0.0113,-0.1909 -0.0075,-0.0674 -0.0112,-0.1385 -0.0112,-0.2134 0,-0.4642 0.0524,-0.9134 0.1572,-1.3476 0.1049,-0.4343 0.2471,-0.846 0.4268,-1.2354 v 0.0225 m -4.37989,2.5381 h 0.08984 c 0.50912,0.0599 0.99577,0.1722 1.45996,0.3369 0.4642,0.1647 0.89844,0.3818 1.30274,0.6514 l -0.02246,-0.0225 0.33691,0.2021 c 0,0.0599 0,0.1198 0,0.1797 0,0.0599 0,0.1198 0,0.1797 -0.0449,0.015 -0.0861,0.0375 -0.12354,0.0674 -0.03743,0.03 -0.07112,0.0674 -0.10107,0.1123 -0.01497,0.03 -0.0262,0.0636 -0.03369,0.1011 -0.00749,0.0374 -0.01123,0.0786 -0.01123,0.1235 0,0.015 0,0.0262 0,0.0337 0,0.0075 0,0.0187 0,0.0337 v -0.0225 L 9.47852,-10.8486 9.1416,-11.0283 C 8.67741,-11.2679 8.26188,-11.5487 7.89502,-11.8706 7.52816,-12.1925 7.20247,-12.5557 6.91797,-12.96 l -0.02246,-0.0224 m 2.26855,3.09959 0.33692,-0.20219 0.31445,0.15727 c 0,0.01497 0,0.0262 0,0.03369 0,0.00748 0,0.01123 0,0.01123 0,0.04492 0.00374,0.0861 0.01123,0.12353 0.00749,0.03744 0.01872,0.07862 0.03369,0.12354 0.02995,0.02995 0.06364,0.05989 0.10108,0.08984 0.03743,0.02995 0.07857,0.0599 0.12357,0.08985 0,0.05989 0,0.11604 0,0.16845 0,0.05241 0,0.10856 0,0.16846 L 9.77051,-8.91699 C 9.36621,-8.66243 8.93571,-8.44906 8.479,-8.27686 8.0223,-8.10465 7.53939,-7.98861 7.03027,-7.92871 H 7.00781 6.89551 C 7.19499,-8.34798 7.5319,-8.72233 7.90625,-9.05176 8.2806,-9.38118 8.69238,-9.6582 9.1416,-9.88281 h 0.02246 m 6.80564,5.70508 c -0.6439,0 -1.2054,0.2246 -1.6845,0.67382 -0.4792,0.44922 -0.9359,0.93588 -1.3702,1.45996 -0.2246,0.25456 -0.4866,0.5503 -0.7861,0.88721 -0.2995,0.336916 -0.5316,0.505373 -0.6963,0.505373 -0.1647,0 -0.4043,-0.172201 -0.7187,-0.516603 -0.3145,-0.3444 -0.584,-0.64388 -0.80863,-0.89844 -0.43424,-0.53906 -0.89469,-1.0332 -1.38134,-1.48242 -0.48666,-0.44922 -1.05192,-0.67383 -1.6958,-0.67383 -0.49415,0 -1.01075,0.15723 -1.54981,0.47168 -0.55404,0.32943 -1.08187,0.71127 -1.5835,1.14551 -0.50162,0.43425 -0.9471,0.86849 -1.33642,1.30274 -0.4043,0.43424 -0.70378,0.763667 -0.89844,0.988277 L 3.00977,0.988281 C 3.72852,0.14974 4.46973,-0.591471 5.2334,-1.23535 c 0.76367,-0.64388 1.29525,-0.96582 1.59473,-0.96582 0.16471,0 0.40429,0.1722 0.71875,0.5166 0.31445,0.3444 0.58398,0.65137 0.80859,0.920898 0.43424,0.524089 0.89469,1.010742 1.38135,1.459961 0.48668,0.449221 1.05188,0.673831 1.69578,0.673831 0.6439,0 1.2017,-0.22461 1.6734,-0.673831 0.4716,-0.449219 0.9321,-0.935872 1.3813,-1.459961 0.2096,-0.254558 0.4679,-0.546548 0.7749,-0.875978 0.307,-0.32943 0.5428,-0.49414 0.7075,-0.49414 0.3594,0 0.9546,0.35938 1.7857,1.07813 0.831,0.718746 1.576,1.474931 2.2348,2.26855 L 21.54,-0.0898438 C 21.3454,-0.329427 21.0384,-0.681315 20.6191,-1.14551 20.1999,-1.59473 19.7282,-2.04395 19.2041,-2.49316 18.68,-2.94238 18.1335,-3.33171 17.5645,-3.66113 c -0.5691,-0.3444 -1.1006,-0.5166 -1.5948,-0.5166"
         id="path26"
         inkscape:connector-curvature="0"
         style="vector-effect:none;fill-rule:nonzero" />
    </g>
    <g
       transform="matrix(1.33333,0,0,1.33333,16,16)"
       font-size="8.25"
       font-weight="400"
       font-style="normal"
       id="g30"
       style="font-style:normal;font-weight:400;font-size:8.25px;font-family:'MS Shell Dlg 2';fill:none;stroke:#000000;stroke-width:1;stroke-linecap:square;stroke-linejoin:bevel;stroke-opacity:1" />
    <g
       transform="translate(16,16)"
       font-size="8.25"
       font-weight="400"
       font-style="normal"
       id="g32"
       style="font-style:normal;font-weight:400;font-size:8.25px;font-family:'MS Shell Dlg 2';fill:none;stroke:#000000;stroke-width:1;stroke-linecap:square;stroke-linejoin:bevel;stroke-opacity:1" />
    <g
       font-size="8.25"
       font-weight="400"
       font-style="normal"
       id="g34"
       style="font-style:normal;font-weight:400;font-size:8.25px;font-family:'MS Shell Dlg 2';fill:none;stroke:#000000;stroke-width:1;stroke-linecap:square;stroke-linejoin:bevel;stroke-opacity:1" />
    <g
       transform="translate(16,16)"
       font-size="8.25"
       font-weight="400"
       font-style="normal"
       id="g36"
       style="font-style:normal;font-weight:400;font-size:8.25px;font-family:'MS Shell Dlg 2';fill:none;stroke:#000000;stroke-width:1;stroke-linecap:square;stroke-linejoin:bevel;stroke-opacity:1" />
    <g
       transform="matrix(1.33333,0,0,1.33333,16,16)"
       font-size="8.25"
       font-weight="400"
       font-style="normal"
       id="g38"
       style="font-style:normal;font-weight:400;font-size:8.25px;font-family:'MS Shell Dlg 2';fill:none;stroke:#000000;stroke-width:1;stroke-linecap:square;stroke-linejoin:bevel;stroke-opacity:1" />
    <g
       transform="translate(1,25.375)"
       font-size="22.6771"
       font-weight="400"
       font-style="normal"
       id="g42"
       style="font-style:normal;font-weight:400;font-size:22.67709923px;font-family:icomoon;fill:#000000;fill-opacity:1;stroke:none">
      <path
         d="m 26.4258,-22.2363 c 0.3906,0 0.7275,0.1416 1.0107,0.4248 0.2832,0.2832 0.4248,0.6201 0.4248,1.0107 V 2.05078 c 0,0.39063 -0.1416,0.72754 -0.4248,1.01074 -0.2832,0.28321 -0.6201,0.42481 -1.0107,0.42481 H 3.57422 C 3.18359,3.48633 2.84668,3.34473 2.56348,3.06152 2.28027,2.77832 2.13867,2.44141 2.13867,2.05078 V -20.8008 c 0,-0.3906 0.1416,-0.7275 0.42481,-1.0107 0.2832,-0.2832 0.62011,-0.4248 1.01074,-0.4248 H 26.4258 m 0,-0.7032 H 3.57422 c -0.58594,0 -1.08887,0.21 -1.50879,0.6299 -0.41992,0.42 -0.62988,0.9229 -0.62988,1.5088 V 2.05078 c 0,0.58594 0.20996,1.08887 0.62988,1.50879 0.41992,0.41992 0.92285,0.62988 1.50879,0.62988 H 26.4258 c 0.5859,0 1.0888,-0.20996 1.5088,-0.62988 0.4199,-0.41992 0.6299,-0.92285 0.6299,-1.50879 V -20.8008 c 0,-0.5859 -0.21,-1.0888 -0.6299,-1.5088 -0.42,-0.4199 -0.9229,-0.6299 -1.5088,-0.6299 m 1.4355,-0.7324 c 0.3907,0 0.7276,0.1416 1.0108,0.4248 0.2832,0.2832 0.4248,0.6201 0.4248,1.0108 V 3.48633 c 0,0.39062 -0.1416,0.72754 -0.4248,1.01074 -0.2832,0.2832 -0.6201,0.42481 -1.0108,0.42481 H 2.13867 C 1.74805,4.92188 1.41113,4.78027 1.12793,4.49707 0.844727,4.21387 0.703125,3.87695 0.703125,3.48633 V -22.2363 c 0,-0.3907 0.141602,-0.7276 0.424805,-1.0108 0.2832,-0.2832 0.62012,-0.4248 1.01074,-0.4248 H 27.8613 m 0,-0.7031 H 2.13867 c -0.58594,0 -1.08887,0.21 -1.508787,0.6299 C 0.209961,-23.3252 0,-22.8223 0,-22.2363 V 3.48633 C 0,4.07227 0.209961,4.5752 0.629883,4.99512 1.0498,5.41504 1.55273,5.625 2.13867,5.625 H 27.8613 c 0.586,0 1.0889,-0.20996 1.5088,-0.62988 C 29.79,4.5752 30,4.07227 30,3.48633 V -22.2363 c 0,-0.586 -0.21,-1.0889 -0.6299,-1.5088 -0.4199,-0.4199 -0.9228,-0.6299 -1.5088,-0.6299"
         id="path40"
         inkscape:connector-curvature="0"
         style="vector-effect:none;fill-rule:nonzero" />
    </g>
    <g
       transform="matrix(1.33333,0,0,1.33333,16,16)"
       font-size="8.25"
       font-weight="400"
       font-style="normal"
       id="g44"
       style="font-style:normal;font-weight:400;font-size:8.25px;font-family:'MS Shell Dlg 2';fill:none;stroke:#000000;stroke-width:1;stroke-linecap:square;stroke-linejoin:bevel;stroke-opacity:1" />
    <g
       transform="translate(16,16)"
       font-size="8.25"
       font-weight="400"
       font-style="normal"
       id="g46"
       style="font-style:normal;font-weight:400;font-size:8.25px;font-family:'MS Shell Dlg 2';fill:none;stroke:#000000;stroke-width:1;stroke-linecap:square;stroke-linejoin:bevel;stroke-opacity:1" />
    <g
       font-size="8.25"
       font-weight="400"
       font-style="normal"
       id="g48"
       style="font-style:normal;font-weight:400;font-size:8.25px;font-family:'MS Shell Dlg 2';fill:none;stroke:#000000;stroke-width:1;stroke-linecap:square;stroke-linejoin:bevel;stroke-opacity:1" />
    <g
       transform="translate(16,16)"
       font-size="8.25"
       font-weight="400"
       font-style="normal"
       id="g50"
       style="font-style:normal;font-weight:400;font-size:8.25px;font-family:'MS Shell Dlg 2';fill:none;stroke:#000000;stroke-width:1;stroke-linecap:square;stroke-linejoin:bevel;stroke-opacity:1" />
    <g
       transform="matrix(1.33333,0,0,1.33333,16,16)"
       font-size="8.25"
       font-weight="400"
       font-style="normal"
       id="g52"
       style="font-style:normal;font-weight:400;font-size:8.25px;font-family:'MS Shell Dlg 2';fill:none;stroke:#000000;stroke-width:1;stroke-linecap:square;stroke-linejoin:bevel;stroke-opacity:1" />
    <g
       transform="translate(1.5,25.0625)"
       font-size="21.5433"
       font-weight="400"
       font-style="normal"
       id="g56"
       style="font-style:normal;font-weight:400;font-size:21.54330063px;font-family:icomoon;fill:#ff0000;fill-opacity:1;stroke:none">
      <path
         d="M 0.90625,5.4375 C 0.774089,5.4375 0.656087,5.4139 0.552246,5.3667 0.448405,5.3195 0.349284,5.25814 0.254883,5.18262 0.179362,5.08822 0.118001,4.9891 0.0708008,4.88525 0.0236003,4.78141 0,4.66341 0,4.53125 0,4.39909 0.0236003,4.28109 0.0708008,4.17725 0.118001,4.0734 0.179362,3.97428 0.254883,3.87988 L 27.4424,-23.3076 c 0.0944,-0.0755 0.1935,-0.1369 0.2973,-0.1841 0.1039,-0.0472 0.2219,-0.0708 0.3541,-0.0708 0.2454,0 0.4578,0.0897 0.6372,0.269 0.1793,0.1794 0.269,0.3918 0.269,0.6372 0,0.1322 -0.0236,0.2502 -0.0708,0.3541 -0.0472,0.1038 -0.1086,0.2029 -0.1841,0.2973 L 1.55762,5.18262 C 1.46322,5.25814 1.3641,5.3195 1.26025,5.3667 1.15641,5.4139 1.03841,5.4375 0.90625,5.4375"
         id="path54"
         inkscape:connector-curvature="0"
         style="vector-effect:none;fill-rule:nonzero" />
    </g>
    <g
       transform="matrix(1.33333,0,0,1.33333,16,16)"
       font-size="8.25"
       font-weight="400"
       font-style="normal"
       id="g58"
       style="font-style:normal;font-weight:400;font-size:8.25px;font-family:'MS Shell Dlg 2';fill:none;stroke:#000000;stroke-width:1;stroke-linecap:square;stroke-linejoin:bevel;stroke-opacity:1" />
    <g
       transform="translate(16,16)"
       font-size="8.25"
       font-weight="400"
       font-style="normal"
       id="g60"
       style="font-style:normal;font-weight:400;font-size:8.25px;font-family:'MS Shell Dlg 2';fill:none;stroke:#000000;stroke-width:1;stroke-linecap:square;stroke-linejoin:bevel;stroke-opacity:1" />
    <g
       font-size="8.25"
       font-weight="400"
       font-style="normal"
       id="g62"
       style="font-style:normal;font-weight:400;font-size:8.25px;font-family:'MS Shell Dlg 2';fill:none;stroke:#000000;stroke-width:1;stroke-linecap:square;stroke-linejoin:bevel;stroke-opacity:1" />
  </g>
</svg>
