<?xml version="1.0" encoding="UTF-8" standalone="no"?>
<svg
   xmlns:dc="http://purl.org/dc/elements/1.1/"
   xmlns:cc="http://creativecommons.org/ns#"
   xmlns:rdf="http://www.w3.org/1999/02/22-rdf-syntax-ns#"
   xmlns:svg="http://www.w3.org/2000/svg"
   xmlns="http://www.w3.org/2000/svg"
   xmlns:sodipodi="http://sodipodi.sourceforge.net/DTD/sodipodi-0.dtd"
   xmlns:inkscape="http://www.inkscape.org/namespaces/inkscape"
   width="20"
   height="20"
   viewBox="0 0 20 20"
   version="1.2"
   id="svg52"
   sodipodi:docname="60204011111.svg"
   inkscape:version="0.92.4 (5da689c313, 2019-01-14)">
  <metadata
     id="metadata56">
    <rdf:RDF>
      <cc:Work
         rdf:about="">
        <dc:format>image/svg+xml</dc:format>
        <dc:type
           rdf:resource="http://purl.org/dc/dcmitype/StillImage" />
      </cc:Work>
    </rdf:RDF>
  </metadata>
  <sodipodi:namedview
     pagecolor="#ffffff"
     bordercolor="#666666"
     borderopacity="1"
     objecttolerance="10"
     gridtolerance="10"
     guidetolerance="10"
     inkscape:pageopacity="0"
     inkscape:pageshadow="2"
     inkscape:window-width="1920"
     inkscape:window-height="1017"
     id="namedview54"
     showgrid="false"
     inkscape:zoom="11.8"
     inkscape:cx="-5.2542373"
     inkscape:cy="10"
     inkscape:window-x="-8"
     inkscape:window-y="-8"
     inkscape:window-maximized="1"
     inkscape:current-layer="svg52" />
  <title
     id="title2">Qt SVG Document</title>
  <desc
     id="desc4">Generated with Qt</desc>
  <defs
     id="defs6" />
  <g
     id="g50"
     transform="matrix(0.66666667,0,0,0.66666667,-0.66666672,-0.66666672)"
     style="fill:none;fill-rule:evenodd;stroke:#000000;stroke-width:1;stroke-linecap:square;stroke-linejoin:bevel">
    <g
       transform="translate(16,16)"
       font-size="8.25"
       font-weight="400"
       font-style="normal"
       id="g8"
       style="font-style:normal;font-weight:400;font-size:8.25px;font-family:'MS Shell Dlg 2';fill:none;stroke:#000000;stroke-width:1;stroke-linecap:square;stroke-linejoin:bevel;stroke-opacity:1" />
    <g
       transform="matrix(1.33333,0,0,1.33333,16,16)"
       font-size="8.25"
       font-weight="400"
       font-style="normal"
       id="g10"
       style="font-style:normal;font-weight:400;font-size:8.25px;font-family:'MS Shell Dlg 2';fill:none;stroke:#000000;stroke-width:1;stroke-linecap:square;stroke-linejoin:bevel;stroke-opacity:1" />
    <g
       transform="translate(1,25.375)"
       font-size="22.6771"
       font-weight="400"
       font-style="normal"
       id="g14"
       style="font-style:normal;font-weight:400;font-size:22.67709923px;font-family:icomoon;fill:#ffffff;fill-opacity:1;stroke:none">
      <path
         d="M 2.63672,-24.375 H 27.3633 c 0.7226,0 1.3428,0.2588 1.8603,0.7764 0.5176,0.5175 0.7764,1.1377 0.7764,1.8603 V 2.98828 C 30,3.71094 29.7412,4.33105 29.2236,4.84863 28.7061,5.36621 28.0859,5.625 27.3633,5.625 H 2.63672 C 1.91406,5.625 1.29395,5.36621 0.776367,4.84863 0.258789,4.33105 0,3.71094 0,2.98828 V -21.7383 c 0,-0.7226 0.258789,-1.3428 0.776367,-1.8603 0.517583,-0.5176 1.137693,-0.7764 1.860353,-0.7764"
         id="path12"
         inkscape:connector-curvature="0"
         style="vector-effect:none;fill-rule:nonzero" />
    </g>
    <g
       transform="matrix(1.33333,0,0,1.33333,16,16)"
       font-size="8.25"
       font-weight="400"
       font-style="normal"
       id="g16"
       style="font-style:normal;font-weight:400;font-size:8.25px;font-family:'MS Shell Dlg 2';fill:none;stroke:#000000;stroke-width:1;stroke-linecap:square;stroke-linejoin:bevel;stroke-opacity:1" />
    <g
       transform="translate(16,16)"
       font-size="8.25"
       font-weight="400"
       font-style="normal"
       id="g18"
       style="font-style:normal;font-weight:400;font-size:8.25px;font-family:'MS Shell Dlg 2';fill:none;stroke:#000000;stroke-width:1;stroke-linecap:square;stroke-linejoin:bevel;stroke-opacity:1" />
    <g
       font-size="8.25"
       font-weight="400"
       font-style="normal"
       id="g20"
       style="font-style:normal;font-weight:400;font-size:8.25px;font-family:'MS Shell Dlg 2';fill:none;stroke:#000000;stroke-width:1;stroke-linecap:square;stroke-linejoin:bevel;stroke-opacity:1" />
    <g
       transform="translate(16,16)"
       font-size="8.25"
       font-weight="400"
       font-style="normal"
       id="g22"
       style="font-style:normal;font-weight:400;font-size:8.25px;font-family:'MS Shell Dlg 2';fill:none;stroke:#000000;stroke-width:1;stroke-linecap:square;stroke-linejoin:bevel;stroke-opacity:1" />
    <g
       transform="matrix(1.33333,0,0,1.33333,16,16)"
       font-size="8.25"
       font-weight="400"
       font-style="normal"
       id="g24"
       style="font-style:normal;font-weight:400;font-size:8.25px;font-family:'MS Shell Dlg 2';fill:none;stroke:#000000;stroke-width:1;stroke-linecap:square;stroke-linejoin:bevel;stroke-opacity:1" />
    <g
       transform="translate(4.5,23.1875)"
       font-size="17.0078"
       font-weight="400"
       font-style="normal"
       id="g28"
       style="font-style:normal;font-weight:400;font-size:17.00779915px;font-family:icomoon;fill:#000000;fill-opacity:1;stroke:none">
      <path
         d="m 20.9785,-18.0137 c 0.3744,0 0.6926,0.1311 0.9546,0.3931 0.262,0.262 0.3931,0.5802 0.3931,0.9546 V 2.29102 c 0,0.37434 -0.1311,0.69254 -0.3931,0.95459 -0.262,0.26204 -0.5802,0.39306 -0.9546,0.39306 H 2.02148 C 1.64714,3.63867 1.32894,3.50765 1.06689,3.24561 0.80485,2.98356 0.673828,2.66536 0.673828,2.29102 V -16.666 c 0,-0.3744 0.131022,-0.6926 0.393062,-0.9546 0.26205,-0.262 0.58025,-0.3931 0.95459,-0.3931 H 20.9785 m 0,-0.6738 H 2.02148 c -0.55403,0 -1.029455,0.1984 -1.426265,0.5952 C 0.198405,-17.6955 0,-17.2201 0,-16.666 V 2.29102 C 0,2.84505 0.198405,3.32048 0.595215,3.71729 0.992025,4.1141 1.46745,4.3125 2.02148,4.3125 H 20.9785 c 0.5541,0 1.0295,-0.1984 1.4263,-0.59521 C 22.8016,3.32048 23,2.84505 23,2.29102 V -16.666 c 0,-0.5541 -0.1984,-1.0295 -0.5952,-1.4263 -0.3968,-0.3968 -0.8722,-0.5952 -1.4263,-0.5952 m -5.6601,11.5 c 1.3776,-0.79362 2.4557,-1.6359 3.2343,-2.52686 0.7787,-0.89094 1.0332,-1.56854 0.7637,-2.03274 -0.1048,-0.1347 -0.2433,-0.2433 -0.4155,-0.3257 -0.1722,-0.0823 -0.3557,-0.1235 -0.5503,-0.1235 -0.03,0 -0.0599,0 -0.0899,0 -0.0299,0 -0.0599,0 -0.0898,0 -0.8984,0.0899 -1.752,0.277 -2.5605,0.5615 -0.8086,0.2845 -1.5648,0.6514 -2.2686,1.1006 l 0.0449,-0.0449 c 0,-1.5872 -0.1909,-2.9386 -0.5727,-4.0542 -0.3819,-1.1156 -0.8348,-1.6733 -1.3589,-1.6733 -0.5391,0 -0.9995,0.5615 -1.3814,1.6845 -0.38181,1.1231 -0.58021,2.4707 -0.59518,4.043 -0.67383,-0.4193 -1.40756,-0.7712 -2.20118,-1.0557 -0.79362,-0.2845 -1.62467,-0.4642 -2.49316,-0.539 l -0.04492,-0.0225 c -0.02995,0 -0.0599,0 -0.08985,0 -0.02994,0 -0.05989,0 -0.08984,0 -0.19466,0 -0.37809,0.0412 -0.55029,0.1235 -0.1722,0.0824 -0.3182,0.1985 -0.43799,0.3482 -0.26953,0.4642 -0.01497,1.138 0.76367,2.02147 0.77865,0.88347 1.85677,1.72201 3.23438,2.51563 -1.37761,0.80859 -2.45573,1.65462 -3.23438,2.53809 -0.77864,0.88346 -1.0332,1.55729 -0.76367,2.02148 0.08984,0.14974 0.23584,0.26204 0.43799,0.33691 0.20215,0.07487 0.44547,0.11231 0.72998,0.11231 0.88346,-0.08984 1.72575,-0.27702 2.52685,-0.56152 0.80111,-0.28451 1.55355,-0.65137 2.25733,-1.10059 L 9.47852,-3.7959 c 0,1.58724 0.19091,2.938641 0.57278,4.054201 0.3818,1.115559 0.8348,1.673339 1.3589,1.673339 0.539,0 0.9957,-0.55778 1.3701,-1.673339 0.3743,-1.11556 0.569,-2.466961 0.584,-4.054201 0.6738,0.43425 1.4113,0.78988 2.2124,1.0669 0.8011,0.27701 1.6434,0.46045 2.5268,0.55029 h 0.0449 c 0.2845,0 0.5241,-0.03369 0.7188,-0.10108 0.1946,-0.06738 0.3369,-0.18343 0.4267,-0.34814 0.2846,-0.46419 0.0375,-1.13802 -0.7412,-2.02148 -0.7786,-0.88347 -1.8567,-1.7295 -3.2343,-2.53809 m 2.8525,-4.335 c 0.015,0 0.0299,0 0.0449,0 0.015,0 0.0375,0 0.0674,0 0.0749,0 0.1535,0.0113 0.2358,0.0337 0.0824,0.0225 0.161,0.0487 0.2359,0.0786 0.0599,0.1797 -0.2097,0.6327 -0.8086,1.3589 -0.599,0.72627 -1.6097,1.50117 -3.0322,2.32474 -0.045,0.02995 -0.0936,0.05615 -0.146,0.07861 -0.0524,0.02246 -0.1011,0.04867 -0.146,0.07861 -0.1947,-0.10481 -0.4081,-0.20589 -0.6402,-0.30322 -0.2321,-0.09733 -0.4679,-0.18343 -0.7075,-0.2583 L 13.207,-8.15332 c 0.045,-0.23958 0.0824,-0.49414 0.1123,-0.76367 0.03,-0.26953 0.045,-0.53906 0.045,-0.8086 v -0.02246 l 0.292,-0.17968 c 0.6438,-0.41927 1.3439,-0.76367 2.1,-1.03317 0.7562,-0.2696 1.5461,-0.4493 2.3697,-0.5391 h 0.0449 v -0.0225 m -6.7158,4.91898 c -0.015,0 -0.0225,0 -0.0225,0 0,0 -0.0075,0 -0.0224,0 -0.1049,0 -0.2134,-0.01123 -0.3257,-0.03369 -0.1123,-0.02246 -0.2209,-0.05615 -0.3257,-0.10107 -0.03,-0.0599 -0.0599,-0.12728 -0.0899,-0.20215 C 10.639,-7.0153 10.6165,-7.09017 10.6016,-7.16504 L 10.5791,-7.1875 c 0.0299,-0.08984 0.0599,-0.1722 0.0898,-0.24707 0.03,-0.07487 0.0674,-0.14974 0.1124,-0.22461 l -0.0225,0.02246 c 0.1048,-0.04492 0.2134,-0.07861 0.3257,-0.10107 0.1123,-0.02246 0.2283,-0.03369 0.3481,-0.03369 0.015,0 0.0225,0 0.0225,0 0.1198,0 0.2358,0.01123 0.3481,0.03369 0.1123,0.02246 0.2209,0.05615 0.3257,0.10107 0.03,0.0599 0.0599,0.12728 0.0899,0.20215 0.0299,0.07487 0.0598,0.15723 0.0898,0.24707 -0.03,0.08984 -0.0636,0.17594 -0.1011,0.2583 -0.0374,0.08236 -0.0711,0.16097 -0.1011,0.23584 l 0.0225,-0.04492 c -0.1048,0.04492 -0.2134,0.08236 -0.3257,0.1123 -0.1123,0.02995 -0.2283,0.04493 -0.3481,0.04493 v -0.02247 m 1.0107,-1.75195 c -0.0599,-0.08984 -0.131,-0.17594 -0.2134,-0.2583 -0.0823,-0.08236 -0.1609,-0.16097 -0.2358,-0.23584 h -0.0225 c 0.2097,-0.14974 0.4343,-0.30697 0.6739,-0.47168 0,0.19466 -0.0113,0.37809 -0.0337,0.55029 -0.0225,0.1722 -0.0487,0.34066 -0.0786,0.50537 v -0.06738 l -0.0899,-0.02246 m -2.0215,0 h -0.0898 c -0.015,-0.14974 -0.0337,-0.30696 -0.0562,-0.47168 -0.0224,-0.16471 -0.0411,-0.33691 -0.0561,-0.5166 0.2396,0.16471 0.4642,0.32194 0.6738,0.47168 -0.1048,0.07487 -0.1984,0.15348 -0.2807,0.23584 -0.0824,0.08236 -0.1535,0.17594 -0.2134,0.28076 h 0.0224 m -0.60641,0.87598 c 0,0.02995 0,0.05615 0,0.07861 0,0.02246 0,0.04867 0,0.07861 0,0.01498 0,0.03744 0,0.06739 0,0.02995 0,0.05241 0,0.06738 0,0.01497 0,0.03743 0,0.06738 0,0.02995 0,0.05241 0,0.06739 0,0.02994 0,0.05615 0,0.07861 0,0.02246 0,0.04866 0,0.07861 C 9.7181,-6.94043 9.59456,-6.9891 9.46729,-7.0415 9.34001,-7.09391 9.20898,-7.15007 9.07422,-7.20996 9.20898,-7.26986 9.34001,-7.32601 9.46729,-7.37842 9.59456,-7.43083 9.7181,-7.47949 9.83789,-7.52441 v 0.04492 m 0.60641,1.45996 c 0.0599,0.10482 0.1273,0.1984 0.2022,0.28076 0.0749,0.08236 0.1647,0.15348 0.2695,0.21338 -0.2096,0.14974 -0.4342,0.30697 -0.6738,0.47168 0,-0.17969 0.0112,-0.34815 0.0337,-0.50537 0.0224,-0.15723 0.0486,-0.3182 0.0786,-0.48291 l 0.0898,0.02246 m 2.0215,0 h 0.0899 c 0.0149,0.13476 0.0337,0.2845 0.0561,0.44922 0.0225,0.16471 0.0412,0.33691 0.0562,0.5166 v 0.02246 c -0.2546,-0.16471 -0.4792,-0.32194 -0.6739,-0.47168 0.0899,-0.0599 0.176,-0.13477 0.2583,-0.22461 0.0824,-0.08984 0.1535,-0.17969 0.2134,-0.26953 v -0.02246 m 0.6065,-0.87598 c 0,-0.02995 0,-0.05615 0,-0.07861 0,-0.02246 0,-0.04867 0,-0.07861 0,-0.01498 0,-0.03744 0,-0.06739 0,-0.02995 0,-0.05241 0,-0.06738 0,-0.01497 0,-0.03743 0,-0.06738 0,-0.02995 0,-0.05241 0,-0.06739 0,-0.02994 0,-0.05615 0,-0.07861 0,-0.02246 0,-0.04866 0,-0.07861 0.1198,0.04492 0.2433,0.09359 0.3706,0.14599 0.1272,0.05241 0.2583,0.10857 0.393,0.16846 -0.1347,0.0599 -0.2658,0.11605 -0.393,0.16846 -0.1273,0.05241 -0.2508,0.10107 -0.3706,0.14599 v -0.04492 m -1.6172,-8.71489 c 0.1797,0.03 0.4342,0.4867 0.7637,1.3702 0.3294,0.8834 0.4941,2.1412 0.4941,3.7734 0,0.0599 0,0.1161 0,0.1685 0,0.0524 0,0.1085 0,0.1684 -0.2396,0.14976 -0.4642,0.29575 -0.6738,0.43801 -0.2097,0.14225 -0.4193,0.28824 -0.6289,0.43798 l 0.0449,-0.02246 c -0.1797,-0.13476 -0.3744,-0.27327 -0.584,-0.41552 -0.2096,-0.14226 -0.4343,-0.28825 -0.6738,-0.43801 0,-0.0599 0,-0.116 0,-0.1684 0,-0.0524 0,-0.1086 0,-0.1685 -0.03,-1.6322 0.1235,-2.89 0.4604,-3.7734 0.3369,-0.8835 0.6027,-1.3402 0.7974,-1.3702 m -7.29983,4.2227 c 0,0 0.04493,-0.0187 0.13477,-0.0561 0.08984,-0.0375 0.2321,-0.0562 0.42676,-0.0562 0.85351,0.0898 1.65836,0.277 2.41455,0.5615 0.75618,0.2845 1.47119,0.6439 2.14502,1.07815 l -0.04492,-0.02246 0.29199,0.15722 c 0,0.28451 0.01497,0.56527 0.04492,0.84229 0.02995,0.27702 0.06738,0.55029 0.1123,0.81982 v -0.06738 c -0.2845,0.08984 -0.54655,0.18718 -0.78613,0.29199 -0.23958,0.10482 -0.47168,0.21713 -0.69629,0.33692 L 8.26563,-7.54688 C 8.2207,-7.56185 8.17204,-7.58431 8.11963,-7.61426 8.06722,-7.64421 8.01107,-7.67415 7.95117,-7.7041 6.54362,-8.52767 5.54036,-9.30257 4.94141,-10.0288 4.34245,-10.755 4.0804,-11.208 4.15527,-11.3877 m 0.58399,8.53516 c -0.20964,0 -0.35563,-0.01497 -0.43799,-0.04492 -0.08236,-0.02995 -0.13102,-0.05241 -0.146,-0.06738 -0.07487,-0.17969 0.18718,-0.63265 0.78614,-1.35889 0.59895,-0.72624 1.6097,-1.49365 3.03222,-2.30225 0.04492,-0.02994 0.09359,-0.05615 0.146,-0.07861 0.05241,-0.02246 0.10856,-0.05615 0.16846,-0.10107 0.19466,0.11979 0.40804,0.22835 0.64013,0.32568 0.2321,0.09733 0.46794,0.18343 0.70752,0.2583 l 0.06739,0.02246 C 9.6582,-5.97461 9.62077,-5.72754 9.59082,-5.45801 9.56087,-5.18848 9.53841,-4.91146 9.52344,-4.62695 v 0.02246 L 9.23145,-4.4248 C 8.60254,-4.02051 7.90999,-3.67985 7.15381,-3.40283 6.39762,-3.12581 5.60775,-2.94238 4.78418,-2.85254 H 4.73926 M 11.4551,1.25781 C 11.2754,1.22786 11.0208,0.771159 10.6914,-0.112305 10.362,-0.995768 10.1973,-2.25358 10.1973,-3.88574 c 0,-0.0599 0,-0.11605 0,-0.16846 0,-0.05241 0,-0.10856 0,-0.16846 0.2395,-0.14974 0.4642,-0.29573 0.6738,-0.43798 0.2096,-0.14226 0.4043,-0.28077 0.584,-0.41553 0.1797,0.13476 0.3706,0.27327 0.5727,0.41553 0.2022,0.14225 0.4081,0.28076 0.6177,0.41552 l 0.0674,0.02246 c 0,0.0599 0,0.11605 0,0.16846 0,0.05241 0,0.10856 0,0.16846 0,1.63216 -0.1647,2.889972 -0.4941,3.773435 -0.3295,0.883464 -0.584,1.340165 -0.7637,1.370115 m 7.2998,-4.22265 c 0,0 -0.0449,0.01871 -0.1348,0.05615 -0.0898,0.03743 -0.2321,0.05615 -0.4267,0.05615 -0.8536,-0.08984 -1.6621,-0.27327 -2.4258,-0.55029 -0.7637,-0.27702 -1.475,-0.63265 -2.1338,-1.0669 l 0.0449,0.04493 -0.292,-0.17969 C 13.3717,-4.889 13.3493,-5.1735 13.3193,-5.45801 13.2894,-5.74251 13.252,-6.01953 13.207,-6.28906 v 0.08984 c 0.2845,-0.08984 0.5466,-0.18717 0.7862,-0.29199 0.2395,-0.10482 0.4716,-0.21712 0.6963,-0.33692 l -0.0674,0.02247 c 0.0599,0.04492 0.116,0.07861 0.1684,0.10107 0.0524,0.02246 0.1011,0.04867 0.146,0.07861 1.4076,0.8086 2.4108,1.57601 3.0098,2.30225 0.5989,0.72624 0.8685,1.1792 0.8086,1.35889"
         id="path26"
         inkscape:connector-curvature="0"
         style="vector-effect:none;fill-rule:nonzero" />
    </g>
    <g
       transform="matrix(1.33333,0,0,1.33333,16,16)"
       font-size="8.25"
       font-weight="400"
       font-style="normal"
       id="g30"
       style="font-style:normal;font-weight:400;font-size:8.25px;font-family:'MS Shell Dlg 2';fill:none;stroke:#000000;stroke-width:1;stroke-linecap:square;stroke-linejoin:bevel;stroke-opacity:1" />
    <g
       transform="translate(16,16)"
       font-size="8.25"
       font-weight="400"
       font-style="normal"
       id="g32"
       style="font-style:normal;font-weight:400;font-size:8.25px;font-family:'MS Shell Dlg 2';fill:none;stroke:#000000;stroke-width:1;stroke-linecap:square;stroke-linejoin:bevel;stroke-opacity:1" />
    <g
       font-size="8.25"
       font-weight="400"
       font-style="normal"
       id="g34"
       style="font-style:normal;font-weight:400;font-size:8.25px;font-family:'MS Shell Dlg 2';fill:none;stroke:#000000;stroke-width:1;stroke-linecap:square;stroke-linejoin:bevel;stroke-opacity:1" />
    <g
       transform="translate(16,16)"
       font-size="8.25"
       font-weight="400"
       font-style="normal"
       id="g36"
       style="font-style:normal;font-weight:400;font-size:8.25px;font-family:'MS Shell Dlg 2';fill:none;stroke:#000000;stroke-width:1;stroke-linecap:square;stroke-linejoin:bevel;stroke-opacity:1" />
    <g
       transform="matrix(1.33333,0,0,1.33333,16,16)"
       font-size="8.25"
       font-weight="400"
       font-style="normal"
       id="g38"
       style="font-style:normal;font-weight:400;font-size:8.25px;font-family:'MS Shell Dlg 2';fill:none;stroke:#000000;stroke-width:1;stroke-linecap:square;stroke-linejoin:bevel;stroke-opacity:1" />
    <g
       transform="translate(1,25.375)"
       font-size="22.6771"
       font-weight="400"
       font-style="normal"
       id="g42"
       style="font-style:normal;font-weight:400;font-size:22.67709923px;font-family:icomoon;fill:#000000;fill-opacity:1;stroke:none">
      <path
         d="m 26.4258,-22.2363 c 0.3906,0 0.7275,0.1416 1.0107,0.4248 0.2832,0.2832 0.4248,0.6201 0.4248,1.0107 V 2.05078 c 0,0.39063 -0.1416,0.72754 -0.4248,1.01074 -0.2832,0.28321 -0.6201,0.42481 -1.0107,0.42481 H 3.57422 C 3.18359,3.48633 2.84668,3.34473 2.56348,3.06152 2.28027,2.77832 2.13867,2.44141 2.13867,2.05078 V -20.8008 c 0,-0.3906 0.1416,-0.7275 0.42481,-1.0107 0.2832,-0.2832 0.62011,-0.4248 1.01074,-0.4248 H 26.4258 m 0,-0.7032 H 3.57422 c -0.58594,0 -1.08887,0.21 -1.50879,0.6299 -0.41992,0.42 -0.62988,0.9229 -0.62988,1.5088 V 2.05078 c 0,0.58594 0.20996,1.08887 0.62988,1.50879 0.41992,0.41992 0.92285,0.62988 1.50879,0.62988 H 26.4258 c 0.5859,0 1.0888,-0.20996 1.5088,-0.62988 0.4199,-0.41992 0.6299,-0.92285 0.6299,-1.50879 V -20.8008 c 0,-0.5859 -0.21,-1.0888 -0.6299,-1.5088 -0.42,-0.4199 -0.9229,-0.6299 -1.5088,-0.6299 m 1.4355,-0.7324 c 0.3907,0 0.7276,0.1416 1.0108,0.4248 0.2832,0.2832 0.4248,0.6201 0.4248,1.0108 V 3.48633 c 0,0.39062 -0.1416,0.72754 -0.4248,1.01074 -0.2832,0.2832 -0.6201,0.42481 -1.0108,0.42481 H 2.13867 C 1.74805,4.92188 1.41113,4.78027 1.12793,4.49707 0.844727,4.21387 0.703125,3.87695 0.703125,3.48633 V -22.2363 c 0,-0.3907 0.141602,-0.7276 0.424805,-1.0108 0.2832,-0.2832 0.62012,-0.4248 1.01074,-0.4248 H 27.8613 m 0,-0.7031 H 2.13867 c -0.58594,0 -1.08887,0.21 -1.508787,0.6299 C 0.209961,-23.3252 0,-22.8223 0,-22.2363 V 3.48633 C 0,4.07227 0.209961,4.5752 0.629883,4.99512 1.0498,5.41504 1.55273,5.625 2.13867,5.625 H 27.8613 c 0.586,0 1.0889,-0.20996 1.5088,-0.62988 C 29.79,4.5752 30,4.07227 30,3.48633 V -22.2363 c 0,-0.586 -0.21,-1.0889 -0.6299,-1.5088 -0.4199,-0.4199 -0.9228,-0.6299 -1.5088,-0.6299"
         id="path40"
         inkscape:connector-curvature="0"
         style="vector-effect:none;fill-rule:nonzero" />
    </g>
    <g
       transform="matrix(1.33333,0,0,1.33333,16,16)"
       font-size="8.25"
       font-weight="400"
       font-style="normal"
       id="g44"
       style="font-style:normal;font-weight:400;font-size:8.25px;font-family:'MS Shell Dlg 2';fill:none;stroke:#000000;stroke-width:1;stroke-linecap:square;stroke-linejoin:bevel;stroke-opacity:1" />
    <g
       transform="translate(16,16)"
       font-size="8.25"
       font-weight="400"
       font-style="normal"
       id="g46"
       style="font-style:normal;font-weight:400;font-size:8.25px;font-family:'MS Shell Dlg 2';fill:none;stroke:#000000;stroke-width:1;stroke-linecap:square;stroke-linejoin:bevel;stroke-opacity:1" />
    <g
       font-size="8.25"
       font-weight="400"
       font-style="normal"
       id="g48"
       style="font-style:normal;font-weight:400;font-size:8.25px;font-family:'MS Shell Dlg 2';fill:none;stroke:#000000;stroke-width:1;stroke-linecap:square;stroke-linejoin:bevel;stroke-opacity:1" />
  </g>
</svg>
