<?xml version="1.0" encoding="UTF-8" standalone="no"?>
<svg
   xmlns:dc="http://purl.org/dc/elements/1.1/"
   xmlns:cc="http://creativecommons.org/ns#"
   xmlns:rdf="http://www.w3.org/1999/02/22-rdf-syntax-ns#"
   xmlns:svg="http://www.w3.org/2000/svg"
   xmlns="http://www.w3.org/2000/svg"
   xmlns:sodipodi="http://sodipodi.sourceforge.net/DTD/sodipodi-0.dtd"
   xmlns:inkscape="http://www.inkscape.org/namespaces/inkscape"
   width="20"
   height="20"
   viewBox="0 0 20 20"
   version="1.2"
   id="svg38"
   sodipodi:docname="60204011033.svg"
   inkscape:version="0.92.4 (5da689c313, 2019-01-14)">
  <metadata
     id="metadata42">
    <rdf:RDF>
      <cc:Work
         rdf:about="">
        <dc:format>image/svg+xml</dc:format>
        <dc:type
           rdf:resource="http://purl.org/dc/dcmitype/StillImage" />
      </cc:Work>
    </rdf:RDF>
  </metadata>
  <sodipodi:namedview
     pagecolor="#ffffff"
     bordercolor="#666666"
     borderopacity="1"
     objecttolerance="10"
     gridtolerance="10"
     guidetolerance="10"
     inkscape:pageopacity="0"
     inkscape:pageshadow="2"
     inkscape:window-width="1920"
     inkscape:window-height="1017"
     id="namedview40"
     showgrid="false"
     inkscape:zoom="11.8"
     inkscape:cx="-5.2542373"
     inkscape:cy="10"
     inkscape:window-x="-8"
     inkscape:window-y="-8"
     inkscape:window-maximized="1"
     inkscape:current-layer="svg38" />
  <title
     id="title2">Qt SVG Document</title>
  <desc
     id="desc4">Generated with Qt</desc>
  <defs
     id="defs6" />
  <g
     id="g36"
     transform="matrix(0.65217391,0,0,0.65217391,-0.43478256,-0.43478256)"
     style="fill:none;fill-rule:evenodd;stroke:#000000;stroke-width:1;stroke-linecap:square;stroke-linejoin:bevel">
    <g
       transform="translate(16,16)"
       font-size="8.25"
       font-weight="400"
       font-style="normal"
       id="g8"
       style="font-style:normal;font-weight:400;font-size:8.25px;font-family:'MS Shell Dlg 2';fill:none;stroke:#000000;stroke-width:1;stroke-linecap:square;stroke-linejoin:bevel;stroke-opacity:1" />
    <g
       transform="matrix(1.33333,0,0,1.33333,16,16)"
       font-size="8.25"
       font-weight="400"
       font-style="normal"
       id="g10"
       style="font-style:normal;font-weight:400;font-size:8.25px;font-family:'MS Shell Dlg 2';fill:none;stroke:#000000;stroke-width:1;stroke-linecap:square;stroke-linejoin:bevel;stroke-opacity:1" />
    <g
       transform="translate(4.5,23.1875)"
       font-size="17.0078"
       font-weight="400"
       font-style="normal"
       id="g14"
       style="font-style:normal;font-weight:400;font-size:17.00779915px;font-family:icomoon;fill:#ffff00;fill-opacity:1;stroke:none">
      <path
         d="M 2.02148,-18.6875 H 20.9785 c 0.5541,0 1.0295,0.1984 1.4263,0.5952 C 22.8016,-17.6955 23,-17.2201 23,-16.666 V 2.29102 C 23,2.84505 22.8016,3.32048 22.4048,3.71729 22.008,4.1141 21.5326,4.3125 20.9785,4.3125 H 2.02148 C 1.46745,4.3125 0.992025,4.1141 0.595215,3.71729 0.198405,3.32048 0,2.84505 0,2.29102 V -16.666 c 0,-0.5541 0.198405,-1.0295 0.595215,-1.4263 0.39681,-0.3968 0.872235,-0.5952 1.426265,-0.5952"
         id="path12"
         inkscape:connector-curvature="0"
         style="vector-effect:none;fill-rule:nonzero" />
    </g>
    <g
       transform="matrix(1.33333,0,0,1.33333,16,16)"
       font-size="8.25"
       font-weight="400"
       font-style="normal"
       id="g16"
       style="font-style:normal;font-weight:400;font-size:8.25px;font-family:'MS Shell Dlg 2';fill:none;stroke:#000000;stroke-width:1;stroke-linecap:square;stroke-linejoin:bevel;stroke-opacity:1" />
    <g
       transform="translate(16,16)"
       font-size="8.25"
       font-weight="400"
       font-style="normal"
       id="g18"
       style="font-style:normal;font-weight:400;font-size:8.25px;font-family:'MS Shell Dlg 2';fill:none;stroke:#000000;stroke-width:1;stroke-linecap:square;stroke-linejoin:bevel;stroke-opacity:1" />
    <g
       font-size="8.25"
       font-weight="400"
       font-style="normal"
       id="g20"
       style="font-style:normal;font-weight:400;font-size:8.25px;font-family:'MS Shell Dlg 2';fill:none;stroke:#000000;stroke-width:1;stroke-linecap:square;stroke-linejoin:bevel;stroke-opacity:1" />
    <g
       transform="translate(16,16)"
       font-size="8.25"
       font-weight="400"
       font-style="normal"
       id="g22"
       style="font-style:normal;font-weight:400;font-size:8.25px;font-family:'MS Shell Dlg 2';fill:none;stroke:#000000;stroke-width:1;stroke-linecap:square;stroke-linejoin:bevel;stroke-opacity:1" />
    <g
       transform="matrix(1.33333,0,0,1.33333,16,16)"
       font-size="8.25"
       font-weight="400"
       font-style="normal"
       id="g24"
       style="font-style:normal;font-weight:400;font-size:8.25px;font-family:'MS Shell Dlg 2';fill:none;stroke:#000000;stroke-width:1;stroke-linecap:square;stroke-linejoin:bevel;stroke-opacity:1" />
    <g
       transform="translate(4.5,23.1875)"
       font-size="17.0078"
       font-weight="400"
       font-style="normal"
       id="g28"
       style="font-style:normal;font-weight:400;font-size:17.00779915px;font-family:icomoon;fill:#000000;fill-opacity:1;stroke:none">
      <path
         d="m 20.9785,-18.0137 c 0.3744,0 0.6926,0.1311 0.9546,0.3931 0.262,0.262 0.3931,0.5802 0.3931,0.9546 V 2.29102 c 0,0.37434 -0.1311,0.69254 -0.3931,0.95459 -0.262,0.26204 -0.5802,0.39306 -0.9546,0.39306 H 2.02148 C 1.64714,3.63867 1.32894,3.50765 1.06689,3.24561 0.80485,2.98356 0.673828,2.66536 0.673828,2.29102 V -16.666 c 0,-0.3744 0.131022,-0.6926 0.393062,-0.9546 0.26205,-0.262 0.58025,-0.3931 0.95459,-0.3931 H 20.9785 m 0,-0.6738 H 2.02148 c -0.55403,0 -1.029455,0.1984 -1.426265,0.5952 C 0.198405,-17.6955 0,-17.2201 0,-16.666 V 2.29102 C 0,2.84505 0.198405,3.32048 0.595215,3.71729 0.992025,4.1141 1.46745,4.3125 2.02148,4.3125 H 20.9785 c 0.5541,0 1.0295,-0.1984 1.4263,-0.59521 C 22.8016,3.32048 23,2.84505 23,2.29102 V -16.666 c 0,-0.5541 -0.1984,-1.0295 -0.5952,-1.4263 -0.3968,-0.3968 -0.8722,-0.5952 -1.4263,-0.5952 m -5.3232,9.05176 -1.4151,-6.64846 h -1.7295 l -1.415,6.64846 H 11.0732 L 9.6582,-11.8594 H 7.65918 L 6.24414,-9.63574 H 4.85156 v 4.15527 H 17.2949 v -4.15527 h -1.6396 m 4.8291,9.7255838 C 20.2747,-0.164714 19.9827,-0.494141 19.6084,-0.898438 19.234,-1.30273 18.826,-1.6958 18.3843,-2.07764 c -0.4418,-0.38183 -0.8797,-0.715 -1.314,-0.99951 -0.4342,-0.2845 -0.8086,-0.42676 -1.123,-0.42676 -0.3295,0 -0.6626,0.1722 -0.9995,0.51661 -0.337,0.3444 -0.6776,0.71875 -1.022,1.12304 -0.3893,0.46419 -0.7862,0.890953 -1.1904,1.280276 C 12.3311,-0.194661 11.8818,0 11.3877,0 10.9085,0 10.4631,-0.198405 10.0513,-0.595215 9.63949,-0.992025 9.23145,-1.42253 8.82715,-1.88672 8.49772,-2.30599 8.16455,-2.68783 7.82764,-3.03223 c -0.33692,-0.3444 -0.67757,-0.5166 -1.02198,-0.5166 -0.29948,0 -0.65885,0.13477 -1.07812,0.4043 C 5.32324,-2.875 4.91146,-2.5568 4.49219,-2.18994 4.07292,-1.82308 3.68359,-1.44499 3.32422,-1.05566 2.96484,-0.666341 2.68034,-0.351888 2.4707,-0.112305 L 1.9541,-0.561523 c 0.08985,-0.089844 0.30697,-0.329428 0.65137,-0.718747 0.35937,-0.4043 0.7749,-0.82357 1.24658,-1.25782 0.47168,-0.43424 0.97705,-0.82356 1.51611,-1.16796 0.52409,-0.34441 1.00326,-0.51661 1.4375,-0.51661 0.47917,0 0.92839,0.19841 1.34766,0.59522 0.41927,0.39681 0.82357,0.8348 1.21289,1.31396 0.32943,0.4043 0.67009,0.77865 1.02199,1.12305 0.3519,0.344401 0.685,0.516602 0.9995,0.516602 0.3294,0 0.6663,-0.172201 1.0107,-0.516602 0.3444,-0.3444 0.6888,-0.71875 1.0332,-1.12305 0.3744,-0.44922 0.7675,-0.87223 1.1792,-1.26904 0.4118,-0.39681 0.8573,-0.59521 1.3365,-0.59521 0.4492,0 0.9508,0.17968 1.5048,0.53906 0.5541,0.35937 1.0819,0.76741 1.5835,1.22412 0.5017,0.4567 0.9322,0.89469 1.2915,1.31396 0.3744,0.404301 0.599,0.658858 0.6739,0.763676 l -0.5166,0.4267578 m 0,1.7294962 C 20.2747,1.56478 19.9827,1.23535 19.6084,0.831055 19.234,0.426758 18.826,0.0299479 18.3843,-0.359375 17.9425,-0.748698 17.5046,-1.07813 17.0703,-1.34766 c -0.4342,-0.2845 -0.8086,-0.42675 -1.123,-0.42675 -0.3295,0 -0.6626,0.1722 -0.9995,0.5166 -0.337,0.344399 -0.6776,0.718747 -1.022,1.123044 -0.3893,0.464193 -0.7862,0.894694 -1.1904,1.291506 -0.4043,0.39681 -0.8536,0.59521 -1.3477,0.59521 -0.4792,0 -0.9246,-0.20215 -1.3364,-0.60644 C 9.63949,0.741211 9.23145,0.306966 8.82715,-0.157227 8.49772,-0.561523 8.16455,-0.939616 7.82764,-1.2915 7.49072,-1.64339 7.15007,-1.81934 6.80566,-1.81934 c -0.29948,0 -0.65885,0.13477 -1.07812,0.4043 -0.4043,0.26953 -0.81608,0.587729 -1.23535,0.954591 C 4.07292,-0.0935872 3.68359,0.284505 3.32422,0.673828 2.96484,1.06315 2.68034,1.3776 2.4707,1.61719 L 1.9541,1.16797 C 2.04395,1.07813 2.26107,0.838542 2.60547,0.449219 2.96484,0.0449219 3.38037,-0.374349 3.85205,-0.808594 4.32373,-1.24284 4.8291,-1.63216 5.36816,-1.97656 c 0.52409,-0.3444 1.00326,-0.5166 1.4375,-0.5166 0.47917,0 0.92839,0.1984 1.34766,0.59521 0.41927,0.39681 0.82357,0.82731 1.21289,1.291505 0.32943,0.419271 0.67009,0.801106 1.02199,1.145508 0.3519,0.344401 0.685,0.516597 0.9995,0.516597 0.3294,0 0.6663,-0.172196 1.0107,-0.516597 0.3444,-0.344402 0.6888,-0.711264 1.0332,-1.100586 0.3894,-0.464197 0.7862,-0.894697 1.1905,-1.291507 0.4043,-0.39681 0.846,-0.59521 1.3252,-0.59521 0.4642,0 0.9658,0.17969 1.5048,0.53906 0.5541,0.35938 1.0819,0.76742 1.5835,1.224121 0.5017,0.456706 0.9397,0.894694 1.314,1.313965 C 20.709,1.0332 20.9261,1.28776 21.001,1.39258 l -0.5166,0.42676"
         id="path26"
         inkscape:connector-curvature="0"
         style="vector-effect:none;fill-rule:nonzero" />
    </g>
    <g
       transform="matrix(1.33333,0,0,1.33333,16,16)"
       font-size="8.25"
       font-weight="400"
       font-style="normal"
       id="g30"
       style="font-style:normal;font-weight:400;font-size:8.25px;font-family:'MS Shell Dlg 2';fill:none;stroke:#000000;stroke-width:1;stroke-linecap:square;stroke-linejoin:bevel;stroke-opacity:1" />
    <g
       transform="translate(16,16)"
       font-size="8.25"
       font-weight="400"
       font-style="normal"
       id="g32"
       style="font-style:normal;font-weight:400;font-size:8.25px;font-family:'MS Shell Dlg 2';fill:none;stroke:#000000;stroke-width:1;stroke-linecap:square;stroke-linejoin:bevel;stroke-opacity:1" />
    <g
       font-size="8.25"
       font-weight="400"
       font-style="normal"
       id="g34"
       style="font-style:normal;font-weight:400;font-size:8.25px;font-family:'MS Shell Dlg 2';fill:none;stroke:#000000;stroke-width:1;stroke-linecap:square;stroke-linejoin:bevel;stroke-opacity:1" />
  </g>
</svg>
