<?xml version="1.0" encoding="UTF-8" standalone="no"?>
<svg
   xmlns:dc="http://purl.org/dc/elements/1.1/"
   xmlns:cc="http://creativecommons.org/ns#"
   xmlns:rdf="http://www.w3.org/1999/02/22-rdf-syntax-ns#"
   xmlns:svg="http://www.w3.org/2000/svg"
   xmlns="http://www.w3.org/2000/svg"
   xmlns:sodipodi="http://sodipodi.sourceforge.net/DTD/sodipodi-0.dtd"
   xmlns:inkscape="http://www.inkscape.org/namespaces/inkscape"
   width="20"
   height="20"
   viewBox="0 0 20 20"
   version="1.2"
   id="svg52"
   sodipodi:docname="60204011912.svg"
   inkscape:version="0.92.4 (5da689c313, 2019-01-14)">
  <metadata
     id="metadata56">
    <rdf:RDF>
      <cc:Work
         rdf:about="">
        <dc:format>image/svg+xml</dc:format>
        <dc:type
           rdf:resource="http://purl.org/dc/dcmitype/StillImage" />
      </cc:Work>
    </rdf:RDF>
  </metadata>
  <sodipodi:namedview
     pagecolor="#ffffff"
     bordercolor="#666666"
     borderopacity="1"
     objecttolerance="10"
     gridtolerance="10"
     guidetolerance="10"
     inkscape:pageopacity="0"
     inkscape:pageshadow="2"
     inkscape:window-width="1920"
     inkscape:window-height="1017"
     id="namedview54"
     showgrid="false"
     inkscape:zoom="11.8"
     inkscape:cx="-5.2542373"
     inkscape:cy="10"
     inkscape:window-x="-8"
     inkscape:window-y="-8"
     inkscape:window-maximized="1"
     inkscape:current-layer="svg52" />
  <title
     id="title2">Qt SVG Document</title>
  <desc
     id="desc4">Generated with Qt</desc>
  <defs
     id="defs6" />
  <g
     id="g50"
     transform="matrix(0.66666667,0,0,0.66666667,-0.66666672,-0.66666672)"
     style="fill:none;fill-rule:evenodd;stroke:#000000;stroke-width:1;stroke-linecap:square;stroke-linejoin:bevel">
    <g
       transform="translate(16,16)"
       font-size="8.25"
       font-weight="400"
       font-style="normal"
       id="g8"
       style="font-style:normal;font-weight:400;font-size:8.25px;font-family:'MS Shell Dlg 2';fill:none;stroke:#000000;stroke-width:1;stroke-linecap:square;stroke-linejoin:bevel;stroke-opacity:1" />
    <g
       transform="matrix(1.33333,0,0,1.33333,16,16)"
       font-size="8.25"
       font-weight="400"
       font-style="normal"
       id="g10"
       style="font-style:normal;font-weight:400;font-size:8.25px;font-family:'MS Shell Dlg 2';fill:none;stroke:#000000;stroke-width:1;stroke-linecap:square;stroke-linejoin:bevel;stroke-opacity:1" />
    <g
       transform="translate(1,25.375)"
       font-size="22.6771"
       font-weight="400"
       font-style="normal"
       id="g14"
       style="font-style:normal;font-weight:400;font-size:22.67709923px;font-family:icomoon;fill:#ff0000;fill-opacity:1;stroke:none">
      <path
         d="M 2.63672,-24.375 H 27.3633 c 0.7226,0 1.3428,0.2588 1.8603,0.7764 0.5176,0.5175 0.7764,1.1377 0.7764,1.8603 V 2.98828 C 30,3.71094 29.7412,4.33105 29.2236,4.84863 28.7061,5.36621 28.0859,5.625 27.3633,5.625 H 2.63672 C 1.91406,5.625 1.29395,5.36621 0.776367,4.84863 0.258789,4.33105 0,3.71094 0,2.98828 V -21.7383 c 0,-0.7226 0.258789,-1.3428 0.776367,-1.8603 0.517583,-0.5176 1.137693,-0.7764 1.860353,-0.7764"
         id="path12"
         inkscape:connector-curvature="0"
         style="vector-effect:none;fill-rule:nonzero" />
    </g>
    <g
       transform="matrix(1.33333,0,0,1.33333,16,16)"
       font-size="8.25"
       font-weight="400"
       font-style="normal"
       id="g16"
       style="font-style:normal;font-weight:400;font-size:8.25px;font-family:'MS Shell Dlg 2';fill:none;stroke:#000000;stroke-width:1;stroke-linecap:square;stroke-linejoin:bevel;stroke-opacity:1" />
    <g
       transform="translate(16,16)"
       font-size="8.25"
       font-weight="400"
       font-style="normal"
       id="g18"
       style="font-style:normal;font-weight:400;font-size:8.25px;font-family:'MS Shell Dlg 2';fill:none;stroke:#000000;stroke-width:1;stroke-linecap:square;stroke-linejoin:bevel;stroke-opacity:1" />
    <g
       font-size="8.25"
       font-weight="400"
       font-style="normal"
       id="g20"
       style="font-style:normal;font-weight:400;font-size:8.25px;font-family:'MS Shell Dlg 2';fill:none;stroke:#000000;stroke-width:1;stroke-linecap:square;stroke-linejoin:bevel;stroke-opacity:1" />
    <g
       transform="translate(16,16)"
       font-size="8.25"
       font-weight="400"
       font-style="normal"
       id="g22"
       style="font-style:normal;font-weight:400;font-size:8.25px;font-family:'MS Shell Dlg 2';fill:none;stroke:#000000;stroke-width:1;stroke-linecap:square;stroke-linejoin:bevel;stroke-opacity:1" />
    <g
       transform="matrix(1.33333,0,0,1.33333,16,16)"
       font-size="8.25"
       font-weight="400"
       font-style="normal"
       id="g24"
       style="font-style:normal;font-weight:400;font-size:8.25px;font-family:'MS Shell Dlg 2';fill:none;stroke:#000000;stroke-width:1;stroke-linecap:square;stroke-linejoin:bevel;stroke-opacity:1" />
    <g
       transform="translate(4.5,23.1875)"
       font-size="17.0078"
       font-weight="400"
       font-style="normal"
       id="g28"
       style="font-style:normal;font-weight:400;font-size:17.00779915px;font-family:icomoon;fill:#000000;fill-opacity:1;stroke:none">
      <path
         d="m 20.9785,-18.0137 c 0.3744,0 0.6926,0.1311 0.9546,0.3931 0.262,0.262 0.3931,0.5802 0.3931,0.9546 V 2.29102 c 0,0.37434 -0.1311,0.69254 -0.3931,0.95459 -0.262,0.26204 -0.5802,0.39306 -0.9546,0.39306 H 2.02148 C 1.64714,3.63867 1.32894,3.50765 1.06689,3.24561 0.80485,2.98356 0.673828,2.66536 0.673828,2.29102 V -16.666 c 0,-0.3744 0.131022,-0.6926 0.393062,-0.9546 0.26205,-0.262 0.58025,-0.3931 0.95459,-0.3931 H 20.9785 m 0,-0.6738 H 2.02148 c -0.55403,0 -1.029455,0.1984 -1.426265,0.5952 C 0.198405,-17.6955 0,-17.2201 0,-16.666 V 2.29102 C 0,2.84505 0.198405,3.32048 0.595215,3.71729 0.992025,4.1141 1.46745,4.3125 2.02148,4.3125 H 20.9785 c 0.5541,0 1.0295,-0.1984 1.4263,-0.59521 C 22.8016,3.32048 23,2.84505 23,2.29102 V -16.666 c 0,-0.5541 -0.1984,-1.0295 -0.5952,-1.4263 -0.3968,-0.3968 -0.8722,-0.5952 -1.4263,-0.5952 m -1.3701,2.0215 H 3.3916 c -0.37435,0 -0.69629,0.1347 -0.96582,0.4043 -0.26953,0.2695 -0.4043,0.5915 -0.4043,0.9658 V 0.920898 c 0,0.374352 0.13477,0.696292 0.4043,0.965822 0.26953,0.26953 0.59147,0.4043 0.96582,0.4043 h 16.2168 c 0.3743,0 0.6963,-0.13477 0.9658,-0.4043 0.2696,-0.26953 0.4043,-0.59147 0.4043,-0.965822 V -15.2959 c 0,-0.3743 -0.1347,-0.6963 -0.4043,-0.9658 -0.2695,-0.2696 -0.5915,-0.4043 -0.9658,-0.4043 m -5.6377,11.23045 c 0.1797,-0.23958 0.3219,-0.50911 0.4268,-0.80859 0.1048,-0.29948 0.1572,-0.61393 0.1572,-0.94336 0,-0.32943 -0.0524,-0.64388 -0.1572,-0.94336 -0.1049,-0.29948 -0.2471,-0.5765 -0.4268,-0.83105 v 0.02246 l 5.6377,-5.63765 V 0.202148 L 13.9707,-5.43555 M 13.252,-9.6582 C 13.0872,-9.79297 12.9001,-9.90527 12.6904,-9.99512 12.4808,-10.085 12.2562,-10.1449 12.0166,-10.1748 v -5.1211 h 6.873 l -5.6376,5.6377 m -2.2686,-0.5166 c -0.2246,0.0299 -0.4455,0.0898 -0.6626,0.17968 -0.2171,0.08985 -0.41553,0.20215 -0.59521,0.33692 h 0.02246 l -5.6377,-5.6377 h 6.87305 v 5.1211 m -1.9541,1.23535 c -0.17969,0.23958 -0.3182,0.50911 -0.41553,0.80859 -0.09733,0.29948 -0.15348,0.61393 -0.16846,0.94336 0,0.32943 0.05241,0.64388 0.15723,0.94336 0.10482,0.29948 0.24707,0.5765 0.42676,0.83105 V -5.43555 L 3.3916,0.202148 V -14.5771 l 5.6377,5.63765 M 4.11035,0.920898 9.74805,-4.7168 c 0.16471,0.13477 0.35185,0.24707 0.56155,0.33692 0.2096,0.08984 0.4342,0.14974 0.6738,0.17968 V 0.920898 H 4.11035 M 12.0166,-4.2002 c 0.2246,-0.02994 0.4455,-0.08984 0.6626,-0.17968 0.2171,-0.08985 0.4155,-0.20215 0.5952,-0.33692 H 13.252 l 5.6376,5.637698 h -6.873 V -4.2002"
         id="path26"
         inkscape:connector-curvature="0"
         style="vector-effect:none;fill-rule:nonzero" />
    </g>
    <g
       transform="matrix(1.33333,0,0,1.33333,16,16)"
       font-size="8.25"
       font-weight="400"
       font-style="normal"
       id="g30"
       style="font-style:normal;font-weight:400;font-size:8.25px;font-family:'MS Shell Dlg 2';fill:none;stroke:#000000;stroke-width:1;stroke-linecap:square;stroke-linejoin:bevel;stroke-opacity:1" />
    <g
       transform="translate(16,16)"
       font-size="8.25"
       font-weight="400"
       font-style="normal"
       id="g32"
       style="font-style:normal;font-weight:400;font-size:8.25px;font-family:'MS Shell Dlg 2';fill:none;stroke:#000000;stroke-width:1;stroke-linecap:square;stroke-linejoin:bevel;stroke-opacity:1" />
    <g
       font-size="8.25"
       font-weight="400"
       font-style="normal"
       id="g34"
       style="font-style:normal;font-weight:400;font-size:8.25px;font-family:'MS Shell Dlg 2';fill:none;stroke:#000000;stroke-width:1;stroke-linecap:square;stroke-linejoin:bevel;stroke-opacity:1" />
    <g
       transform="translate(16,16)"
       font-size="8.25"
       font-weight="400"
       font-style="normal"
       id="g36"
       style="font-style:normal;font-weight:400;font-size:8.25px;font-family:'MS Shell Dlg 2';fill:none;stroke:#000000;stroke-width:1;stroke-linecap:square;stroke-linejoin:bevel;stroke-opacity:1" />
    <g
       transform="matrix(1.33333,0,0,1.33333,16,16)"
       font-size="8.25"
       font-weight="400"
       font-style="normal"
       id="g38"
       style="font-style:normal;font-weight:400;font-size:8.25px;font-family:'MS Shell Dlg 2';fill:none;stroke:#000000;stroke-width:1;stroke-linecap:square;stroke-linejoin:bevel;stroke-opacity:1" />
    <g
       transform="translate(1,25.375)"
       font-size="22.6771"
       font-weight="400"
       font-style="normal"
       id="g42"
       style="font-style:normal;font-weight:400;font-size:22.67709923px;font-family:icomoon;fill:#000000;fill-opacity:1;stroke:none">
      <path
         d="m 26.4258,-22.2363 c 0.3906,0 0.7275,0.1416 1.0107,0.4248 0.2832,0.2832 0.4248,0.6201 0.4248,1.0107 V 2.05078 c 0,0.39063 -0.1416,0.72754 -0.4248,1.01074 -0.2832,0.28321 -0.6201,0.42481 -1.0107,0.42481 H 3.57422 C 3.18359,3.48633 2.84668,3.34473 2.56348,3.06152 2.28027,2.77832 2.13867,2.44141 2.13867,2.05078 V -20.8008 c 0,-0.3906 0.1416,-0.7275 0.42481,-1.0107 0.2832,-0.2832 0.62011,-0.4248 1.01074,-0.4248 H 26.4258 m 0,-0.7032 H 3.57422 c -0.58594,0 -1.08887,0.21 -1.50879,0.6299 -0.41992,0.42 -0.62988,0.9229 -0.62988,1.5088 V 2.05078 c 0,0.58594 0.20996,1.08887 0.62988,1.50879 0.41992,0.41992 0.92285,0.62988 1.50879,0.62988 H 26.4258 c 0.5859,0 1.0888,-0.20996 1.5088,-0.62988 0.4199,-0.41992 0.6299,-0.92285 0.6299,-1.50879 V -20.8008 c 0,-0.5859 -0.21,-1.0888 -0.6299,-1.5088 -0.42,-0.4199 -0.9229,-0.6299 -1.5088,-0.6299 m 1.4355,-0.7324 c 0.3907,0 0.7276,0.1416 1.0108,0.4248 0.2832,0.2832 0.4248,0.6201 0.4248,1.0108 V 3.48633 c 0,0.39062 -0.1416,0.72754 -0.4248,1.01074 -0.2832,0.2832 -0.6201,0.42481 -1.0108,0.42481 H 2.13867 C 1.74805,4.92188 1.41113,4.78027 1.12793,4.49707 0.844727,4.21387 0.703125,3.87695 0.703125,3.48633 V -22.2363 c 0,-0.3907 0.141602,-0.7276 0.424805,-1.0108 0.2832,-0.2832 0.62012,-0.4248 1.01074,-0.4248 H 27.8613 m 0,-0.7031 H 2.13867 c -0.58594,0 -1.08887,0.21 -1.508787,0.6299 C 0.209961,-23.3252 0,-22.8223 0,-22.2363 V 3.48633 C 0,4.07227 0.209961,4.5752 0.629883,4.99512 1.0498,5.41504 1.55273,5.625 2.13867,5.625 H 27.8613 c 0.586,0 1.0889,-0.20996 1.5088,-0.62988 C 29.79,4.5752 30,4.07227 30,3.48633 V -22.2363 c 0,-0.586 -0.21,-1.0889 -0.6299,-1.5088 -0.4199,-0.4199 -0.9228,-0.6299 -1.5088,-0.6299"
         id="path40"
         inkscape:connector-curvature="0"
         style="vector-effect:none;fill-rule:nonzero" />
    </g>
    <g
       transform="matrix(1.33333,0,0,1.33333,16,16)"
       font-size="8.25"
       font-weight="400"
       font-style="normal"
       id="g44"
       style="font-style:normal;font-weight:400;font-size:8.25px;font-family:'MS Shell Dlg 2';fill:none;stroke:#000000;stroke-width:1;stroke-linecap:square;stroke-linejoin:bevel;stroke-opacity:1" />
    <g
       transform="translate(16,16)"
       font-size="8.25"
       font-weight="400"
       font-style="normal"
       id="g46"
       style="font-style:normal;font-weight:400;font-size:8.25px;font-family:'MS Shell Dlg 2';fill:none;stroke:#000000;stroke-width:1;stroke-linecap:square;stroke-linejoin:bevel;stroke-opacity:1" />
    <g
       font-size="8.25"
       font-weight="400"
       font-style="normal"
       id="g48"
       style="font-style:normal;font-weight:400;font-size:8.25px;font-family:'MS Shell Dlg 2';fill:none;stroke:#000000;stroke-width:1;stroke-linecap:square;stroke-linejoin:bevel;stroke-opacity:1" />
  </g>
</svg>
