<?xml version="1.0" encoding="UTF-8" standalone="no"?>
<svg
   xmlns:dc="http://purl.org/dc/elements/1.1/"
   xmlns:cc="http://creativecommons.org/ns#"
   xmlns:rdf="http://www.w3.org/1999/02/22-rdf-syntax-ns#"
   xmlns:svg="http://www.w3.org/2000/svg"
   xmlns="http://www.w3.org/2000/svg"
   xmlns:sodipodi="http://sodipodi.sourceforge.net/DTD/sodipodi-0.dtd"
   xmlns:inkscape="http://www.inkscape.org/namespaces/inkscape"
   width="20"
   height="20"
   viewBox="0 0 20 20"
   version="1.2"
   id="svg38"
   sodipodi:docname="60204011332.svg"
   inkscape:version="0.92.4 (5da689c313, 2019-01-14)">
  <metadata
     id="metadata42">
    <rdf:RDF>
      <cc:Work
         rdf:about="">
        <dc:format>image/svg+xml</dc:format>
        <dc:type
           rdf:resource="http://purl.org/dc/dcmitype/StillImage" />
      </cc:Work>
    </rdf:RDF>
  </metadata>
  <sodipodi:namedview
     pagecolor="#ffffff"
     bordercolor="#666666"
     borderopacity="1"
     objecttolerance="10"
     gridtolerance="10"
     guidetolerance="10"
     inkscape:pageopacity="0"
     inkscape:pageshadow="2"
     inkscape:window-width="1920"
     inkscape:window-height="1017"
     id="namedview40"
     showgrid="false"
     inkscape:zoom="11.8"
     inkscape:cx="-5.2542373"
     inkscape:cy="10"
     inkscape:window-x="-8"
     inkscape:window-y="-8"
     inkscape:window-maximized="1"
     inkscape:current-layer="svg38" />
  <title
     id="title2">Qt SVG Document</title>
  <desc
     id="desc4">Generated with Qt</desc>
  <defs
     id="defs6" />
  <g
     id="g36"
     transform="matrix(0.65217391,0,0,0.65217391,-0.43478256,-0.43478256)"
     style="fill:none;fill-rule:evenodd;stroke:#000000;stroke-width:1;stroke-linecap:square;stroke-linejoin:bevel">
    <g
       transform="translate(16,16)"
       font-size="8.25"
       font-weight="400"
       font-style="normal"
       id="g8"
       style="font-style:normal;font-weight:400;font-size:8.25px;font-family:'MS Shell Dlg 2';fill:none;stroke:#000000;stroke-width:1;stroke-linecap:square;stroke-linejoin:bevel;stroke-opacity:1" />
    <g
       transform="matrix(1.33333,0,0,1.33333,16,16)"
       font-size="8.25"
       font-weight="400"
       font-style="normal"
       id="g10"
       style="font-style:normal;font-weight:400;font-size:8.25px;font-family:'MS Shell Dlg 2';fill:none;stroke:#000000;stroke-width:1;stroke-linecap:square;stroke-linejoin:bevel;stroke-opacity:1" />
    <g
       transform="translate(4.5,23.1875)"
       font-size="17.0078"
       font-weight="400"
       font-style="normal"
       id="g14"
       style="font-style:normal;font-weight:400;font-size:17.00779915px;font-family:icomoon;fill:#ff0000;fill-opacity:1;stroke:none">
      <path
         d="M 2.02148,-18.6875 H 20.9785 c 0.5541,0 1.0295,0.1984 1.4263,0.5952 C 22.8016,-17.6955 23,-17.2201 23,-16.666 V 2.29102 C 23,2.84505 22.8016,3.32048 22.4048,3.71729 22.008,4.1141 21.5326,4.3125 20.9785,4.3125 H 2.02148 C 1.46745,4.3125 0.992025,4.1141 0.595215,3.71729 0.198405,3.32048 0,2.84505 0,2.29102 V -16.666 c 0,-0.5541 0.198405,-1.0295 0.595215,-1.4263 0.39681,-0.3968 0.872235,-0.5952 1.426265,-0.5952"
         id="path12"
         inkscape:connector-curvature="0"
         style="vector-effect:none;fill-rule:nonzero" />
    </g>
    <g
       transform="matrix(1.33333,0,0,1.33333,16,16)"
       font-size="8.25"
       font-weight="400"
       font-style="normal"
       id="g16"
       style="font-style:normal;font-weight:400;font-size:8.25px;font-family:'MS Shell Dlg 2';fill:none;stroke:#000000;stroke-width:1;stroke-linecap:square;stroke-linejoin:bevel;stroke-opacity:1" />
    <g
       transform="translate(16,16)"
       font-size="8.25"
       font-weight="400"
       font-style="normal"
       id="g18"
       style="font-style:normal;font-weight:400;font-size:8.25px;font-family:'MS Shell Dlg 2';fill:none;stroke:#000000;stroke-width:1;stroke-linecap:square;stroke-linejoin:bevel;stroke-opacity:1" />
    <g
       font-size="8.25"
       font-weight="400"
       font-style="normal"
       id="g20"
       style="font-style:normal;font-weight:400;font-size:8.25px;font-family:'MS Shell Dlg 2';fill:none;stroke:#000000;stroke-width:1;stroke-linecap:square;stroke-linejoin:bevel;stroke-opacity:1" />
    <g
       transform="translate(16,16)"
       font-size="8.25"
       font-weight="400"
       font-style="normal"
       id="g22"
       style="font-style:normal;font-weight:400;font-size:8.25px;font-family:'MS Shell Dlg 2';fill:none;stroke:#000000;stroke-width:1;stroke-linecap:square;stroke-linejoin:bevel;stroke-opacity:1" />
    <g
       transform="matrix(1.33333,0,0,1.33333,16,16)"
       font-size="8.25"
       font-weight="400"
       font-style="normal"
       id="g24"
       style="font-style:normal;font-weight:400;font-size:8.25px;font-family:'MS Shell Dlg 2';fill:none;stroke:#000000;stroke-width:1;stroke-linecap:square;stroke-linejoin:bevel;stroke-opacity:1" />
    <g
       transform="translate(4.5,23.1875)"
       font-size="17.0078"
       font-weight="400"
       font-style="normal"
       id="g28"
       style="font-style:normal;font-weight:400;font-size:17.00779915px;font-family:icomoon;fill:#000000;fill-opacity:1;stroke:none">
      <path
         d="m 20.9785,-18.0137 c 0.3744,0 0.6926,0.1311 0.9546,0.3931 0.262,0.262 0.3931,0.5802 0.3931,0.9546 V 2.29102 c 0,0.37434 -0.1311,0.69254 -0.3931,0.95459 -0.262,0.26204 -0.5802,0.39306 -0.9546,0.39306 H 2.02148 C 1.64714,3.63867 1.32894,3.50765 1.06689,3.24561 0.80485,2.98356 0.673828,2.66536 0.673828,2.29102 V -16.666 c 0,-0.3744 0.131022,-0.6926 0.393062,-0.9546 0.26205,-0.262 0.58025,-0.3931 0.95459,-0.3931 H 20.9785 m 0,-0.6738 H 2.02148 c -0.55403,0 -1.029455,0.1984 -1.426265,0.5952 C 0.198405,-17.6955 0,-17.2201 0,-16.666 V 2.29102 C 0,2.84505 0.198405,3.32048 0.595215,3.71729 0.992025,4.1141 1.46745,4.3125 2.02148,4.3125 H 20.9785 c 0.5541,0 1.0295,-0.1984 1.4263,-0.59521 C 22.8016,3.32048 23,2.84505 23,2.29102 V -16.666 c 0,-0.5541 -0.1984,-1.0295 -0.5952,-1.4263 -0.3968,-0.3968 -0.8722,-0.5952 -1.4263,-0.5952 M 4.80664,-4.58203 c 0.10482,0.11979 0.22835,0.21712 0.37061,0.29199 0.14225,0.07487 0.29573,0.11231 0.46045,0.11231 0.02994,0 0.05615,0 0.07861,0 0.02246,0 0.04866,-0.00749 0.07861,-0.02247 0.76367,-0.07487 1.48617,-0.23209 2.16748,-0.47168 0.68132,-0.23958 1.32145,-0.55403 1.92041,-0.94335 l -0.02246,0.02246 c 0,1.36263 0.16095,2.51562 0.48295,3.45898 0.3219,0.94336 0.7075,1.41504 1.1567,1.41504 0.4492,0 0.8348,-0.47168 1.1567,-1.41504 0.322,-0.94336 0.4829,-2.09635 0.4829,-3.45898 0.584,0.37435 1.2167,0.68131 1.898,0.92089 0.6813,0.23959 1.3888,0.39681 2.1226,0.47168 h 0.0449 c 0.0299,0.01498 0.0561,0.02247 0.0786,0.02247 0.0225,0 0.0487,0 0.0786,0 0.1647,0 0.3182,-0.03744 0.4605,-0.11231 0.1422,-0.07487 0.2657,-0.1722 0.3706,-0.29199 0.2246,-0.38932 0.0074,-0.96208 -0.6514,-1.71826 -0.6589,-0.75619 -1.5648,-1.47119 -2.7178,-2.14502 1.153,-0.67383 2.0627,-1.38884 2.729,-2.14499 0.6664,-0.7562 0.8797,-1.329 0.6402,-1.7183 -0.1049,-0.1198 -0.2284,-0.2171 -0.3706,-0.292 -0.1423,-0.0749 -0.2958,-0.1123 -0.4605,-0.1123 -0.0299,0 -0.0561,0.0038 -0.0786,0.0112 -0.0225,0.0075 -0.0487,0.0113 -0.0786,0.0113 -0.7637,0.0748 -1.4862,0.2321 -2.1675,0.4716 -0.6813,0.2396 -1.3215,0.5541 -1.9204,0.9434 l 0.0224,-0.0225 c 0,-1.3476 -0.1609,-2.4969 -0.4829,-3.4477 -0.3219,-0.9509 -0.7075,-1.4263 -1.1567,-1.4263 -0.4492,0 -0.8348,0.4754 -1.1567,1.4263 -0.322,0.9508 -0.48295,2.1001 -0.48295,3.4477 -0.58398,-0.3743 -1.21663,-0.6813 -1.89795,-0.9209 -0.68131,-0.2395 -1.38883,-0.3968 -2.12256,-0.4716 H 5.79492 c -0.02995,0 -0.05615,-0.0038 -0.07861,-0.0113 -0.02246,-0.0074 -0.04867,-0.0112 -0.07861,-0.0112 -0.16472,0 -0.3182,0.0374 -0.46045,0.1123 -0.14226,0.0749 -0.26579,0.1722 -0.37061,0.292 -0.22461,0.3893 -0.00749,0.9621 0.65137,1.7183 0.65885,0.75615 1.56478,1.47116 2.71777,2.14499 -1.15299,0.67383 -2.05892,1.38883 -2.71777,2.14502 -0.65886,0.75618 -0.87598,1.32894 -0.65137,1.71826 m 6.08696,-3.86328 c 0.0149,-0.0599 0.0336,-0.11605 0.0561,-0.16846 0.0225,-0.05241 0.0487,-0.10856 0.0786,-0.16846 v 0.02246 c 0.0599,-0.02994 0.131,-0.04866 0.2134,-0.05615 0.0824,-0.00748 0.161,-0.01123 0.2358,-0.01123 0.0899,0 0.176,0.00375 0.2583,0.01123 0.0824,0.00749 0.161,0.02621 0.2359,0.05615 h -0.0225 c 0.03,0.04493 0.0524,0.09359 0.0674,0.146 0.015,0.05241 0.0374,0.10107 0.0674,0.146 v 0.02246 c -0.015,0.05989 -0.0337,0.11979 -0.0562,0.17968 -0.0224,0.0599 -0.0486,0.11231 -0.0786,0.15723 v -0.02246 c -0.0599,0.02995 -0.131,0.05241 -0.2134,0.06738 -0.0823,0.01498 -0.1684,0.02246 -0.2583,0.02246 -0.0748,0 -0.1534,-0.00748 -0.2358,-0.02246 -0.0824,-0.01497 -0.161,-0.03743 -0.2358,-0.06738 h 0.0224 c -0.0299,-0.04492 -0.0524,-0.09359 -0.0674,-0.146 -0.0149,-0.0524 -0.0299,-0.10107 -0.0449,-0.14599 l -0.0224,-0.02246 m 1.4375,1.01074 c 0.0149,0.08984 0.0262,0.18717 0.0336,0.29199 0.0075,0.10482 0.0188,0.20215 0.0337,0.29199 -0.0599,-0.04492 -0.1235,-0.0861 -0.1909,-0.12353 -0.0674,-0.03744 -0.1235,-0.07861 -0.1684,-0.12354 0.0599,-0.04492 0.1123,-0.09358 0.1572,-0.14599 0.0449,-0.05241 0.0898,-0.10856 0.1348,-0.16846 v -0.02246 m 0.539,-0.85352 c 0,-0.01497 0,-0.02994 0,-0.04492 0,-0.01497 0,-0.02995 0,-0.04492 0,0 0,-0.00749 0,-0.02246 0,-0.01497 0,-0.02995 0,-0.04492 0,-0.01498 0,-0.02621 0,-0.03369 0,-0.00749 0,-0.01872 0,-0.0337 0,-0.01497 0,-0.02994 0,-0.04492 0,-0.01497 0,-0.02995 0,-0.04492 l 0.4043,0.15723 -0.4043,0.15722 m -0.831,-1.50488 0.3593,-0.24703 c 0,0.10478 -0.0074,0.20585 -0.0224,0.30318 -0.015,0.09733 -0.03,0.19092 -0.0449,0.28077 -0.045,-0.0599 -0.0899,-0.11605 -0.1348,-0.16846 -0.0449,-0.05241 -0.0973,-0.10856 -0.1572,-0.16846 m -1.3477,0.33692 c 0,-0.08985 -0.0112,-0.18344 -0.0337,-0.28077 -0.0224,-0.09733 -0.0412,-0.1984 -0.0561,-0.30318 l 0.3818,0.24703 c -0.0749,0.04492 -0.1348,0.09733 -0.1797,0.15723 -0.0449,0.05989 -0.0898,0.11979 -0.1348,0.17969 h 0.0225 m -0.5391,0.85351 c 0,0.01497 0,0.02995 0,0.04492 0,0.01498 0,0.02995 0,0.04492 0,0.01498 0,0.02621 0,0.0337 0,0.00748 0,0.01871 0,0.03369 0,0.01497 0,0.02995 0,0.04492 0,0.01497 0,0.02246 0,0.02246 0,0.01497 0,0.02995 0,0.04492 0,0.01498 0,0.02995 0,0.04492 L 9.74805,-8.44531 10.1523,-8.60254 m 0.8311,1.50488 -0.3594,0.26953 c 0,-0.10481 0.0075,-0.20963 0.0225,-0.31445 0.015,-0.10482 0.0299,-0.20215 0.0449,-0.29199 0.0449,0.07487 0.0861,0.13851 0.1235,0.19092 0.0375,0.05241 0.0861,0.10107 0.146,0.14599 h 0.0225 M 11.5,-1.39258 c -0.1497,-0.10482 -0.3481,-0.51286 -0.5952,-1.22412 -0.2471,-0.71126 -0.3706,-1.72575 -0.3706,-3.04346 0,-0.05989 0,-0.11604 0,-0.16845 0,-0.05241 0,-0.10856 0,-0.16846 0.1797,-0.11979 0.3481,-0.23584 0.5054,-0.34814 0.1572,-0.11231 0.3032,-0.22087 0.4379,-0.32569 0.1498,0.10482 0.3033,0.21338 0.4605,0.32569 0.1572,0.1123 0.3257,0.22835 0.5054,0.34814 0,0.0599 0,0.11605 0,0.16846 0,0.05241 0,0.10856 0,0.16845 0.0149,1.31771 -0.1011,2.3322 -0.3482,3.04346 -0.2471,0.71126 -0.4455,1.1193 -0.5952,1.22412 m 6.0869,-3.52637 c -0.0449,0.01498 -0.0973,0.02621 -0.1572,0.0337 -0.0599,0.00748 -0.1198,0.01123 -0.1797,0.01123 -0.015,0 -0.0262,0 -0.0337,0 -0.0075,0 -0.0187,0 -0.0337,0 h 0.0225 c -0.7188,-0.08985 -1.3963,-0.25082 -2.0327,-0.48291 -0.6364,-0.2321 -1.2316,-0.52784 -1.7857,-0.88721 l 0.0225,0.02246 -0.292,-0.17969 C 13.1022,-6.62598 13.0835,-6.84684 13.061,-7.06396 13.0386,-7.28109 13.0124,-7.49447 12.9824,-7.7041 v 0.06738 c 0.2097,-0.07487 0.4081,-0.14974 0.5952,-0.22461 0.1872,-0.07487 0.3706,-0.15722 0.5503,-0.24707 l -0.0449,0.02246 0.3145,0.17969 c 1.138,0.65885 1.9541,1.27279 2.4482,1.8418 0.4941,0.56901 0.7412,0.95084 0.7412,1.1455 m -0.3818,-7.09765 c 0.015,0 0.0262,0 0.0337,0 0.0075,0 0.0112,0 0.0112,0 0.0599,0 0.1198,0.0037 0.1797,0.0112 0.0599,0.0075 0.1198,0.0187 0.1797,0.0337 0,0.1947 -0.2508,0.5765 -0.7525,1.1455 -0.5016,0.569 -1.3139,1.18297 -2.437,1.84182 l -0.3369,0.15723 c -0.1497,-0.07487 -0.3107,-0.14974 -0.4829,-0.22461 -0.1722,-0.07487 -0.3556,-0.14225 -0.5503,-0.20215 l -0.0449,-0.02246 c 0.0299,-0.17968 0.0561,-0.3706 0.0786,-0.57275 0.0225,-0.20218 0.0337,-0.41548 0.0337,-0.64018 v -0.0224 l 0.3144,-0.1797 c 0.5391,-0.3444 1.1231,-0.6289 1.752,-0.8535 0.6289,-0.2246 1.2878,-0.3819 1.9766,-0.4717 h 0.0449 M 11.5,-15.498 c 0.1497,0.1048 0.3481,0.5128 0.5952,1.2241 0.2471,0.7112 0.3706,1.7257 0.3706,3.0434 0,0.0599 0,0.1161 0,0.1685 0,0.0524 0,0.116 0,0.1909 -0.1797,0.1048 -0.3481,0.2171 -0.5054,0.3369 -0.1572,0.1198 -0.3107,0.2321 -0.4604,0.3369 h 0.0225 c -0.1498,-0.1198 -0.2995,-0.2321 -0.4493,-0.3369 -0.1497,-0.1048 -0.3069,-0.2096 -0.4716,-0.3144 l -0.045,-0.0225 c 0,-0.0749 0,-0.1385 0,-0.1909 0,-0.0524 0,-0.1086 0,-0.1685 -0.0149,-1.3177 0.1011,-2.3322 0.3482,-3.0434 0.2471,-0.7113 0.4455,-1.1193 0.5952,-1.2241 m -6.08691,3.5263 c 0.04492,-0.015 0.09733,-0.0262 0.15722,-0.0337 0.0599,-0.0075 0.11979,-0.0112 0.17969,-0.0112 0.01497,0 0.0262,0 0.03369,0 0.00749,0 0.01872,0 0.03369,0 H 5.79492 c 0.71875,0.0898 1.39632,0.2508 2.03272,0.4829 0.63639,0.2321 1.2316,0.5278 1.78564,0.8872 l -0.02246,-0.0224 0.29199,0.1796 c 0.01498,0.2247 0.03369,0.4455 0.05615,0.66264 0.02247,0.21712 0.04867,0.4305 0.07864,0.64014 V -9.25391 C 9.80794,-9.17904 9.60954,-9.10417 9.42236,-9.0293 9.23519,-8.95443 9.05176,-8.87207 8.87207,-8.78223 L 8.91699,-8.80469 8.60254,-8.98438 C 7.46452,-9.64323 6.64844,-10.2572 6.1543,-10.8262 5.66016,-11.3952 5.41309,-11.777 5.41309,-11.9717 m 3.18945,4.06545 0.31445,-0.15723 c 0.14974,0.07487 0.31446,0.14974 0.49414,0.22461 0.17969,0.07487 0.35938,0.14226 0.53907,0.20215 h 0.0674 C 9.98763,-7.45703 9.96143,-7.26237 9.93896,-7.05273 9.9165,-6.8431 9.89779,-6.63346 9.88281,-6.42383 v 0.02246 l -0.29199,0.17969 c -0.53906,0.35938 -1.12679,0.65511 -1.76318,0.88721 -0.6364,0.23209 -1.29899,0.38558 -1.9878,0.46045 l -0.04492,0.02246 c 0,0 -0.00374,0 -0.01123,0 -0.00749,0 -0.01123,0 -0.01123,0 -0.05989,0 -0.12353,-0.00749 -0.19092,-0.02246 C 5.51416,-4.889 5.45801,-4.90397 5.41309,-4.91895 c 0,-0.19466 0.24707,-0.57275 0.74121,-1.13427 0.49414,-0.56153 1.31022,-1.16423 2.44824,-1.80811 V -7.90625 M 2.69531,-0.336914 H 20.3047 V 2.38086 H 2.69531 v -2.717774"
         id="path26"
         inkscape:connector-curvature="0"
         style="vector-effect:none;fill-rule:nonzero" />
    </g>
    <g
       transform="matrix(1.33333,0,0,1.33333,16,16)"
       font-size="8.25"
       font-weight="400"
       font-style="normal"
       id="g30"
       style="font-style:normal;font-weight:400;font-size:8.25px;font-family:'MS Shell Dlg 2';fill:none;stroke:#000000;stroke-width:1;stroke-linecap:square;stroke-linejoin:bevel;stroke-opacity:1" />
    <g
       transform="translate(16,16)"
       font-size="8.25"
       font-weight="400"
       font-style="normal"
       id="g32"
       style="font-style:normal;font-weight:400;font-size:8.25px;font-family:'MS Shell Dlg 2';fill:none;stroke:#000000;stroke-width:1;stroke-linecap:square;stroke-linejoin:bevel;stroke-opacity:1" />
    <g
       font-size="8.25"
       font-weight="400"
       font-style="normal"
       id="g34"
       style="font-style:normal;font-weight:400;font-size:8.25px;font-family:'MS Shell Dlg 2';fill:none;stroke:#000000;stroke-width:1;stroke-linecap:square;stroke-linejoin:bevel;stroke-opacity:1" />
  </g>
</svg>
