<?xml version="1.0" encoding="UTF-8" standalone="no"?>
<svg
   xmlns:dc="http://purl.org/dc/elements/1.1/"
   xmlns:cc="http://creativecommons.org/ns#"
   xmlns:rdf="http://www.w3.org/1999/02/22-rdf-syntax-ns#"
   xmlns:svg="http://www.w3.org/2000/svg"
   xmlns="http://www.w3.org/2000/svg"
   xmlns:sodipodi="http://sodipodi.sourceforge.net/DTD/sodipodi-0.dtd"
   xmlns:inkscape="http://www.inkscape.org/namespaces/inkscape"
   width="20"
   height="20"
   viewBox="0 0 20 20"
   version="1.2"
   id="svg38"
   sodipodi:docname="60202020731.svg"
   inkscape:version="0.92.4 (5da689c313, 2019-01-14)">
  <metadata
     id="metadata42">
    <rdf:RDF>
      <cc:Work
         rdf:about="">
        <dc:format>image/svg+xml</dc:format>
        <dc:type
           rdf:resource="http://purl.org/dc/dcmitype/StillImage" />
      </cc:Work>
    </rdf:RDF>
  </metadata>
  <sodipodi:namedview
     pagecolor="#ffffff"
     bordercolor="#666666"
     borderopacity="1"
     objecttolerance="10"
     gridtolerance="10"
     guidetolerance="10"
     inkscape:pageopacity="0"
     inkscape:pageshadow="2"
     inkscape:window-width="1920"
     inkscape:window-height="1017"
     id="namedview40"
     showgrid="false"
     inkscape:zoom="11.8"
     inkscape:cx="-5.2542373"
     inkscape:cy="10"
     inkscape:window-x="-8"
     inkscape:window-y="-8"
     inkscape:window-maximized="1"
     inkscape:current-layer="svg38" />
  <title
     id="title2">Qt SVG Document</title>
  <desc
     id="desc4">Generated with Qt</desc>
  <defs
     id="defs6" />
  <g
     id="g36"
     transform="matrix(0.65217391,0,0,0.65217391,-0.43478256,-0.43478256)"
     style="fill:none;fill-rule:evenodd;stroke:#000000;stroke-width:1;stroke-linecap:square;stroke-linejoin:bevel">
    <g
       transform="translate(16,16)"
       font-size="8.25"
       font-weight="400"
       font-style="normal"
       id="g8"
       style="font-style:normal;font-weight:400;font-size:8.25px;font-family:'MS Shell Dlg 2';fill:none;stroke:#000000;stroke-width:1;stroke-linecap:square;stroke-linejoin:bevel;stroke-opacity:1" />
    <g
       transform="matrix(1.33333,0,0,1.33333,16,16)"
       font-size="8.25"
       font-weight="400"
       font-style="normal"
       id="g10"
       style="font-style:normal;font-weight:400;font-size:8.25px;font-family:'MS Shell Dlg 2';fill:none;stroke:#000000;stroke-width:1;stroke-linecap:square;stroke-linejoin:bevel;stroke-opacity:1" />
    <g
       transform="translate(4.5,23.1875)"
       font-size="17.0078"
       font-weight="400"
       font-style="normal"
       id="g14"
       style="font-style:normal;font-weight:400;font-size:17.00779915px;font-family:icomoon;fill:#ffffff;fill-opacity:1;stroke:none">
      <path
         d="M 2.02148,-18.6875 H 20.9785 c 0.5541,0 1.0295,0.1984 1.4263,0.5952 C 22.8016,-17.6955 23,-17.2201 23,-16.666 V 2.29102 C 23,2.84505 22.8016,3.32048 22.4048,3.71729 22.008,4.1141 21.5326,4.3125 20.9785,4.3125 H 2.02148 C 1.46745,4.3125 0.992025,4.1141 0.595215,3.71729 0.198405,3.32048 0,2.84505 0,2.29102 V -16.666 c 0,-0.5541 0.198405,-1.0295 0.595215,-1.4263 0.39681,-0.3968 0.872235,-0.5952 1.426265,-0.5952"
         id="path12"
         inkscape:connector-curvature="0"
         style="vector-effect:none;fill-rule:nonzero" />
    </g>
    <g
       transform="matrix(1.33333,0,0,1.33333,16,16)"
       font-size="8.25"
       font-weight="400"
       font-style="normal"
       id="g16"
       style="font-style:normal;font-weight:400;font-size:8.25px;font-family:'MS Shell Dlg 2';fill:none;stroke:#000000;stroke-width:1;stroke-linecap:square;stroke-linejoin:bevel;stroke-opacity:1" />
    <g
       transform="translate(16,16)"
       font-size="8.25"
       font-weight="400"
       font-style="normal"
       id="g18"
       style="font-style:normal;font-weight:400;font-size:8.25px;font-family:'MS Shell Dlg 2';fill:none;stroke:#000000;stroke-width:1;stroke-linecap:square;stroke-linejoin:bevel;stroke-opacity:1" />
    <g
       font-size="8.25"
       font-weight="400"
       font-style="normal"
       id="g20"
       style="font-style:normal;font-weight:400;font-size:8.25px;font-family:'MS Shell Dlg 2';fill:none;stroke:#000000;stroke-width:1;stroke-linecap:square;stroke-linejoin:bevel;stroke-opacity:1" />
    <g
       transform="translate(16,16)"
       font-size="8.25"
       font-weight="400"
       font-style="normal"
       id="g22"
       style="font-style:normal;font-weight:400;font-size:8.25px;font-family:'MS Shell Dlg 2';fill:none;stroke:#000000;stroke-width:1;stroke-linecap:square;stroke-linejoin:bevel;stroke-opacity:1" />
    <g
       transform="matrix(1.33333,0,0,1.33333,16,16)"
       font-size="8.25"
       font-weight="400"
       font-style="normal"
       id="g24"
       style="font-style:normal;font-weight:400;font-size:8.25px;font-family:'MS Shell Dlg 2';fill:none;stroke:#000000;stroke-width:1;stroke-linecap:square;stroke-linejoin:bevel;stroke-opacity:1" />
    <g
       transform="translate(4.5,23.1875)"
       font-size="17.0078"
       font-weight="400"
       font-style="normal"
       id="g28"
       style="font-style:normal;font-weight:400;font-size:17.00779915px;font-family:icomoon;fill:#000000;fill-opacity:1;stroke:none">
      <path
         d="m 20.9785,-18.0137 c 0.3744,0 0.6926,0.1311 0.9546,0.3931 0.262,0.262 0.3931,0.5802 0.3931,0.9546 V 2.29102 c 0,0.37434 -0.1311,0.69254 -0.3931,0.95459 -0.262,0.26204 -0.5802,0.39306 -0.9546,0.39306 H 2.02148 C 1.64714,3.63867 1.32894,3.50765 1.06689,3.24561 0.80485,2.98356 0.673828,2.66536 0.673828,2.29102 V -16.666 c 0,-0.3744 0.131022,-0.6926 0.393062,-0.9546 0.26205,-0.262 0.58025,-0.3931 0.95459,-0.3931 H 20.9785 m 0,-0.6738 H 2.02148 c -0.55403,0 -1.029455,0.1984 -1.426265,0.5952 C 0.198405,-17.6955 0,-17.2201 0,-16.666 V 2.29102 C 0,2.84505 0.198405,3.32048 0.595215,3.71729 0.992025,4.1141 1.46745,4.3125 2.02148,4.3125 H 20.9785 c 0.5541,0 1.0295,-0.1984 1.4263,-0.59521 C 22.8016,3.32048 23,2.84505 23,2.29102 V -16.666 c 0,-0.5541 -0.1984,-1.0295 -0.5952,-1.4263 -0.3968,-0.3968 -0.8722,-0.5952 -1.4263,-0.5952 m -1.4599,10.15234 c -0.1498,-0.95833 -0.307,-1.40006 -0.4717,-1.32519 -0.1647,0.07487 -0.0899,-0.20215 0.2246,-0.83105 0.3144,-0.6139 0.4005,-1.0107 0.2583,-1.1904 -0.1423,-0.1797 -0.3332,-0.0824 -0.5728,0.292 -0.1497,0.2395 -0.4305,0.4005 -0.8423,0.4829 -0.4117,0.0823 -0.8572,0.1085 -1.3364,0.0786 -0.7337,-0.5241 -1.5498,-0.9359 -2.4482,-1.2354 -0.8985,-0.2995 -1.8418,-0.4492 -2.8301,-0.4492 -0.6589,0 -1.2952,0.0899 -1.90918,0.2695 -0.59896,0.1648 -1.16797,0.3781 -1.70703,0.6402 -0.53906,0.262 -1.05566,0.5428 -1.54981,0.8423 -0.47916,0.3144 -0.92089,0.6064 -1.32519,0.8759 -0.23958,0.14978 -0.51286,0.22465 -0.81983,0.22465 -0.30696,0 -0.43798,-0.14975 -0.39306,-0.44925 0.04492,-0.2845 0.14974,-0.4979 0.31445,-0.6401 0.16472,-0.1423 0.35938,-0.3182 0.58399,-0.5278 0,0 -0.36687,0.0748 -1.10059,0.2246 -0.73372,0.1497 -1.10059,0.6738 -1.10059,1.57224 0,0.37434 0.15349,0.67757 0.46045,0.90966 0.30697,0.2321 0.63265,0.41553 0.97705,0.5503 0,0.05989 0.04118,0.56526 0.12354,1.51611 0.08236,0.95085 0.52783,1.64339 1.33643,2.07764 0.04492,0.02994 0.10856,0.11605 0.19091,0.2583 0.08236,0.14225 0.146,0.22086 0.19092,0.23584 -0.02995,0.43424 0.02995,0.91341 0.17969,1.4375 0.14974,0.52409 0.4043,0.78613 0.76367,0.78613 h 1.77441 c 0,-0.01497 0,-0.02246 0,-0.02246 0,-0.14974 -0.04866,-0.27328 -0.14599,-0.37061 C 8.24691,-2.39958 8.13086,-2.45573 7.99609,-2.4707 7.83138,-2.50065 7.74902,-2.71403 7.74902,-3.11084 c 0,-0.39681 0.11231,-0.71501 0.33692,-0.95459 0.05989,-0.04492 0.13102,-0.08236 0.21338,-0.1123 0.08235,-0.02995 0.16845,-0.04493 0.2583,-0.04493 0.01497,0 0.03369,0 0.05615,0 0.02246,0 0.04118,0.00749 0.05615,0.02246 0.52409,0.01498 1.05192,0.0861 1.58348,0.21338 0.5316,0.12728 1.0744,0.19092 1.6284,0.19092 0,0 0.0038,0 0.0113,0 0.0075,0 0.0112,0 0.0112,0 0.2695,0 0.5391,-0.01123 0.8086,-0.03369 0.2695,-0.02246 0.5316,-0.05615 0.7861,-0.10107 l -0.0449,0.02246 c 0,0.32942 0.0487,0.74495 0.146,1.24658 0.0973,0.50163 0.2882,0.75244 0.5728,0.75244 h 2.2011 c 0,0 0.0038,-0.08984 0.0113,-0.26953 0.0074,-0.17969 -0.146,-0.27702 -0.4605,-0.29199 -0.2396,0 -0.3818,-0.28076 -0.4268,-0.84229 -0.0449,-0.56152 0.1198,-1.02197 0.4942,-1.38135 0.1348,-0.11979 0.2845,-0.22835 0.4492,-0.32568 0.1647,-0.09733 0.3369,-0.17594 0.5166,-0.23584 l 0.0225,-0.02246 c 0.1048,-0.01497 0.2133,-0.02995 0.3257,-0.04492 0.1123,-0.01498 0.2283,-0.02246 0.3481,-0.02246 0.3893,0 0.7599,0.07487 1.1118,0.22461 0.3519,0.14974 0.6626,0.35188 0.9321,0.60644 0.1947,0.20964 0.5541,-0.02246 1.0782,-0.69629 0.5241,-0.67383 0.7861,-1.01074 0.7861,-1.01074 -0.554,-0.14974 -1.0145,-0.4305 -1.3813,-0.84228 -0.3669,-0.41179 -0.5803,-0.90219 -0.6402,-1.4712 h -0.0224"
         id="path26"
         inkscape:connector-curvature="0"
         style="vector-effect:none;fill-rule:nonzero" />
    </g>
    <g
       transform="matrix(1.33333,0,0,1.33333,16,16)"
       font-size="8.25"
       font-weight="400"
       font-style="normal"
       id="g30"
       style="font-style:normal;font-weight:400;font-size:8.25px;font-family:'MS Shell Dlg 2';fill:none;stroke:#000000;stroke-width:1;stroke-linecap:square;stroke-linejoin:bevel;stroke-opacity:1" />
    <g
       transform="translate(16,16)"
       font-size="8.25"
       font-weight="400"
       font-style="normal"
       id="g32"
       style="font-style:normal;font-weight:400;font-size:8.25px;font-family:'MS Shell Dlg 2';fill:none;stroke:#000000;stroke-width:1;stroke-linecap:square;stroke-linejoin:bevel;stroke-opacity:1" />
    <g
       font-size="8.25"
       font-weight="400"
       font-style="normal"
       id="g34"
       style="font-style:normal;font-weight:400;font-size:8.25px;font-family:'MS Shell Dlg 2';fill:none;stroke:#000000;stroke-width:1;stroke-linecap:square;stroke-linejoin:bevel;stroke-opacity:1" />
  </g>
</svg>
