<?xml version="1.0" encoding="UTF-8" standalone="no"?>
<svg
   xmlns:dc="http://purl.org/dc/elements/1.1/"
   xmlns:cc="http://creativecommons.org/ns#"
   xmlns:rdf="http://www.w3.org/1999/02/22-rdf-syntax-ns#"
   xmlns:svg="http://www.w3.org/2000/svg"
   xmlns="http://www.w3.org/2000/svg"
   xmlns:sodipodi="http://sodipodi.sourceforge.net/DTD/sodipodi-0.dtd"
   xmlns:inkscape="http://www.inkscape.org/namespaces/inkscape"
   width="20"
   height="20"
   viewBox="0 0 20 20"
   version="1.2"
   id="svg38"
   sodipodi:docname="60202020632.svg"
   inkscape:version="0.92.4 (5da689c313, 2019-01-14)">
  <metadata
     id="metadata42">
    <rdf:RDF>
      <cc:Work
         rdf:about="">
        <dc:format>image/svg+xml</dc:format>
        <dc:type
           rdf:resource="http://purl.org/dc/dcmitype/StillImage" />
      </cc:Work>
    </rdf:RDF>
  </metadata>
  <sodipodi:namedview
     pagecolor="#ffffff"
     bordercolor="#666666"
     borderopacity="1"
     objecttolerance="10"
     gridtolerance="10"
     guidetolerance="10"
     inkscape:pageopacity="0"
     inkscape:pageshadow="2"
     inkscape:window-width="1920"
     inkscape:window-height="1017"
     id="namedview40"
     showgrid="false"
     inkscape:zoom="11.8"
     inkscape:cx="-5.2542373"
     inkscape:cy="10"
     inkscape:window-x="-8"
     inkscape:window-y="-8"
     inkscape:window-maximized="1"
     inkscape:current-layer="svg38" />
  <title
     id="title2">Qt SVG Document</title>
  <desc
     id="desc4">Generated with Qt</desc>
  <defs
     id="defs6" />
  <g
     id="g36"
     transform="matrix(0.65217391,0,0,0.65217391,-0.43478256,-0.43478256)"
     style="fill:none;fill-rule:evenodd;stroke:#000000;stroke-width:1;stroke-linecap:square;stroke-linejoin:bevel">
    <g
       transform="translate(16,16)"
       font-size="8.25"
       font-weight="400"
       font-style="normal"
       id="g8"
       style="font-style:normal;font-weight:400;font-size:8.25px;font-family:'MS Shell Dlg 2';fill:none;stroke:#000000;stroke-width:1;stroke-linecap:square;stroke-linejoin:bevel;stroke-opacity:1" />
    <g
       transform="matrix(1.33333,0,0,1.33333,16,16)"
       font-size="8.25"
       font-weight="400"
       font-style="normal"
       id="g10"
       style="font-style:normal;font-weight:400;font-size:8.25px;font-family:'MS Shell Dlg 2';fill:none;stroke:#000000;stroke-width:1;stroke-linecap:square;stroke-linejoin:bevel;stroke-opacity:1" />
    <g
       transform="translate(4.5,23.1875)"
       font-size="17.0078"
       font-weight="400"
       font-style="normal"
       id="g14"
       style="font-style:normal;font-weight:400;font-size:17.00779915px;font-family:icomoon;fill:#ff0000;fill-opacity:1;stroke:none">
      <path
         d="M 2.02148,-18.6875 H 20.9785 c 0.5541,0 1.0295,0.1984 1.4263,0.5952 C 22.8016,-17.6955 23,-17.2201 23,-16.666 V 2.29102 C 23,2.84505 22.8016,3.32048 22.4048,3.71729 22.008,4.1141 21.5326,4.3125 20.9785,4.3125 H 2.02148 C 1.46745,4.3125 0.992025,4.1141 0.595215,3.71729 0.198405,3.32048 0,2.84505 0,2.29102 V -16.666 c 0,-0.5541 0.198405,-1.0295 0.595215,-1.4263 0.39681,-0.3968 0.872235,-0.5952 1.426265,-0.5952"
         id="path12"
         inkscape:connector-curvature="0"
         style="vector-effect:none;fill-rule:nonzero" />
    </g>
    <g
       transform="matrix(1.33333,0,0,1.33333,16,16)"
       font-size="8.25"
       font-weight="400"
       font-style="normal"
       id="g16"
       style="font-style:normal;font-weight:400;font-size:8.25px;font-family:'MS Shell Dlg 2';fill:none;stroke:#000000;stroke-width:1;stroke-linecap:square;stroke-linejoin:bevel;stroke-opacity:1" />
    <g
       transform="translate(16,16)"
       font-size="8.25"
       font-weight="400"
       font-style="normal"
       id="g18"
       style="font-style:normal;font-weight:400;font-size:8.25px;font-family:'MS Shell Dlg 2';fill:none;stroke:#000000;stroke-width:1;stroke-linecap:square;stroke-linejoin:bevel;stroke-opacity:1" />
    <g
       font-size="8.25"
       font-weight="400"
       font-style="normal"
       id="g20"
       style="font-style:normal;font-weight:400;font-size:8.25px;font-family:'MS Shell Dlg 2';fill:none;stroke:#000000;stroke-width:1;stroke-linecap:square;stroke-linejoin:bevel;stroke-opacity:1" />
    <g
       transform="translate(16,16)"
       font-size="8.25"
       font-weight="400"
       font-style="normal"
       id="g22"
       style="font-style:normal;font-weight:400;font-size:8.25px;font-family:'MS Shell Dlg 2';fill:none;stroke:#000000;stroke-width:1;stroke-linecap:square;stroke-linejoin:bevel;stroke-opacity:1" />
    <g
       transform="matrix(1.33333,0,0,1.33333,16,16)"
       font-size="8.25"
       font-weight="400"
       font-style="normal"
       id="g24"
       style="font-style:normal;font-weight:400;font-size:8.25px;font-family:'MS Shell Dlg 2';fill:none;stroke:#000000;stroke-width:1;stroke-linecap:square;stroke-linejoin:bevel;stroke-opacity:1" />
    <g
       transform="translate(4.5,23.1875)"
       font-size="17.0078"
       font-weight="400"
       font-style="normal"
       id="g28"
       style="font-style:normal;font-weight:400;font-size:17.00779915px;font-family:icomoon;fill:#000000;fill-opacity:1;stroke:none">
      <path
         d="m 20.9785,-18.0137 c 0.3744,0 0.6926,0.1311 0.9546,0.3931 0.262,0.262 0.3931,0.5802 0.3931,0.9546 V 2.29102 c 0,0.37434 -0.1311,0.69254 -0.3931,0.95459 -0.262,0.26204 -0.5802,0.39306 -0.9546,0.39306 H 2.02148 C 1.64714,3.63867 1.32894,3.50765 1.06689,3.24561 0.80485,2.98356 0.673828,2.66536 0.673828,2.29102 V -16.666 c 0,-0.3744 0.131022,-0.6926 0.393062,-0.9546 0.26205,-0.262 0.58025,-0.3931 0.95459,-0.3931 H 20.9785 m 0,-0.6738 H 2.02148 c -0.55403,0 -1.029455,0.1984 -1.426265,0.5952 C 0.198405,-17.6955 0,-17.2201 0,-16.666 V 2.29102 C 0,2.84505 0.198405,3.32048 0.595215,3.71729 0.992025,4.1141 1.46745,4.3125 2.02148,4.3125 H 20.9785 c 0.5541,0 1.0295,-0.1984 1.4263,-0.59521 C 22.8016,3.32048 23,2.84505 23,2.29102 V -16.666 c 0,-0.5541 -0.1984,-1.0295 -0.5952,-1.4263 -0.3968,-0.3968 -0.8722,-0.5952 -1.4263,-0.5952 m -0.831,9.41113 c -0.1348,-0.16471 -0.2471,-0.34814 -0.337,-0.55029 -0.0898,-0.20214 -0.1572,-0.42304 -0.2021,-0.66264 -0.0449,-0.3144 -0.161,-0.5989 -0.3481,-0.8535 -0.1872,-0.2545 -0.4156,-0.4492 -0.6851,-0.584 h -0.0225 c 0,-0.1497 -0.0262,-0.292 -0.0786,-0.4267 -0.0524,-0.1348 -0.1235,-0.2546 -0.2134,-0.3594 -0.1647,-0.2246 -0.5203,-0.3781 -1.0669,-0.4604 -0.5465,-0.0824 -0.9695,-0.1011 -1.269,-0.0562 -0.4642,0.1198 -0.8984,0.2883 -1.3027,0.5054 -0.4043,0.2171 -0.7712,0.4829 -1.1006,0.7973 -0.2695,-0.2246 -0.5765,-0.408 -0.9209,-0.5503 -0.3444,-0.1422 -0.7038,-0.2283 -1.0781,-0.2583 H 11.5 c -0.2396,0 -0.4642,0.0412 -0.6738,0.1236 -0.2097,0.0823 -0.4043,0.1909 -0.584,0.3257 -0.1947,-0.0749 -0.40805,-0.1311 -0.64015,-0.1685 -0.2321,-0.0374 -0.46794,-0.0561 -0.70752,-0.0561 -0.01497,0 -0.0262,0 -0.03369,0 -0.00749,0 -0.01123,0 -0.01123,0 -0.91341,0 -1.59847,0.1834 -2.05518,0.5503 -0.4567,0.3668 -0.72249,0.7075 -0.79736,1.0219 -0.26953,0.1048 -0.51286,0.2471 -0.72998,0.4268 -0.21712,0.1797 -0.40804,0.3818 -0.57275,0.60643 v 0.02246 c -0.0599,0.07487 -0.11605,0.16097 -0.16846,0.2583 -0.05241,0.09733 -0.09359,0.1984 -0.12354,0.30322 H 4.37988 C 4.00553,-9.2015 3.66113,-9.02181 3.34668,-8.78223 3.03223,-8.54264 2.875,-8.20573 2.875,-7.77148 c 0,0.02994 0,0.05989 0,0.08984 0,0.02995 0,0.0599 0,0.08984 0,0.43425 0.11979,0.82357 0.35938,1.16797 0.23958,0.3444 0.54654,0.59896 0.92089,0.76367 0.1198,0.28451 0.28825,0.53907 0.50537,0.76368 0.21713,0.2246 0.46045,0.40429 0.72999,0.53906 h 0.02246 c -0.01498,0.10482 -0.02246,0.21712 -0.02246,0.33691 0,0.11979 0,0.23959 0,0.35938 0,0.22461 0.00748,0.44547 0.02246,0.66259 0.01497,0.21713 0.03743,0.43051 0.06738,0.64014 v -0.04492 c 0.01497,0.10482 0.0861,0.26953 0.21338,0.49414 0.12728,0.22461 0.26579,0.33691 0.41553,0.33691 h 1.50488 c 0.04492,-0.10481 0.08235,-0.20963 0.1123,-0.31445 0.02995,-0.10482 0.04492,-0.21712 0.04492,-0.33691 0,-0.02995 -0.00374,-0.0599 -0.01123,-0.08985 C 7.75277,-2.34342 7.74902,-2.37337 7.74902,-2.40332 7.7041,-2.50814 7.65544,-2.60921 7.60303,-2.70654 7.55062,-2.80387 7.50195,-2.89746 7.45703,-2.9873 v 0.02246 c 0,-0.01498 0,-0.0337 0,-0.05616 0,-0.02246 0,-0.04117 0,-0.05615 0,-0.04492 0.00374,-0.09359 0.01123,-0.14599 0.00749,-0.05241 0.01872,-0.10108 0.03369,-0.146 0.3444,-0.0599 0.66634,-0.13102 0.96582,-0.21338 0.29948,-0.08236 0.58399,-0.17594 0.85352,-0.28076 l -0.08984,0.02246 c 0.41927,0.10482 0.86475,0.18717 1.33645,0.24707 0.4717,0.0599 0.9546,0.09733 1.4487,0.1123 0.1198,0 0.3032,-0.00374 0.5503,-0.01123 0.2471,-0.00748 0.4155,-0.01871 0.5054,-0.03369 0.0149,0.31446 0.0748,0.61394 0.1797,0.89844 0.1048,0.28451 0.2395,0.54655 0.4043,0.78613 0.0748,0.08985 0.1422,0.15723 0.2021,0.20215 0.0599,0.04492 0.1497,0.06738 0.2695,0.06738 0,0 0.1198,0 0.3594,0 0.2396,0 0.3669,0 0.3818,0 0.1797,-0.05989 0.337,-0.23584 0.4717,-0.52783 0.1348,-0.29199 0.277,-0.69254 0.4268,-1.20166 0.1946,-0.50911 0.4305,-0.98079 0.7075,-1.41504 0.277,-0.43424 0.5877,-0.83105 0.9321,-1.19043 0.1647,-0.22461 0.3032,-0.46793 0.4156,-0.72998 0.1123,-0.26204 0.1984,-0.53532 0.2583,-0.81982 v -0.02246 c 0.0299,0 0.0599,0 0.0898,0 0.0299,0 0.0599,0 0.0898,0 0.1049,0 0.2022,0.00748 0.292,0.02246 0.0899,0.01497 0.1797,0.03743 0.2696,0.06738 0.0599,0.02995 0.1235,0.05241 0.1909,0.06738 0.0674,0.01498 0.146,0.02247 0.2358,0.02247 0.1048,0 0.2097,-0.01498 0.3145,-0.04493 0.1048,-0.02994 0.2021,-0.07487 0.292,-0.13476 0.1797,-0.11979 0.3219,-0.27328 0.4267,-0.46045 0.1048,-0.18718 0.1573,-0.39307 0.1573,-0.61768 0,-0.01497 0,-0.0262 0,-0.03369 0,-0.00749 0,-0.01123 0,-0.01123 -0.015,-0.13476 -0.0487,-0.2583 -0.1011,-0.3706 -0.0524,-0.11231 -0.1161,-0.21338 -0.1909,-0.30323"
         id="path26"
         inkscape:connector-curvature="0"
         style="vector-effect:none;fill-rule:nonzero" />
    </g>
    <g
       transform="matrix(1.33333,0,0,1.33333,16,16)"
       font-size="8.25"
       font-weight="400"
       font-style="normal"
       id="g30"
       style="font-style:normal;font-weight:400;font-size:8.25px;font-family:'MS Shell Dlg 2';fill:none;stroke:#000000;stroke-width:1;stroke-linecap:square;stroke-linejoin:bevel;stroke-opacity:1" />
    <g
       transform="translate(16,16)"
       font-size="8.25"
       font-weight="400"
       font-style="normal"
       id="g32"
       style="font-style:normal;font-weight:400;font-size:8.25px;font-family:'MS Shell Dlg 2';fill:none;stroke:#000000;stroke-width:1;stroke-linecap:square;stroke-linejoin:bevel;stroke-opacity:1" />
    <g
       font-size="8.25"
       font-weight="400"
       font-style="normal"
       id="g34"
       style="font-style:normal;font-weight:400;font-size:8.25px;font-family:'MS Shell Dlg 2';fill:none;stroke:#000000;stroke-width:1;stroke-linecap:square;stroke-linejoin:bevel;stroke-opacity:1" />
  </g>
</svg>
