<?xml version="1.0" encoding="UTF-8" standalone="no"?>
<svg
   xmlns:dc="http://purl.org/dc/elements/1.1/"
   xmlns:cc="http://creativecommons.org/ns#"
   xmlns:rdf="http://www.w3.org/1999/02/22-rdf-syntax-ns#"
   xmlns:svg="http://www.w3.org/2000/svg"
   xmlns="http://www.w3.org/2000/svg"
   xmlns:sodipodi="http://sodipodi.sourceforge.net/DTD/sodipodi-0.dtd"
   xmlns:inkscape="http://www.inkscape.org/namespaces/inkscape"
   width="20"
   height="20"
   viewBox="0 0 20 20"
   version="1.2"
   id="svg38"
   sodipodi:docname="60202021133.svg"
   inkscape:version="0.92.4 (5da689c313, 2019-01-14)">
  <metadata
     id="metadata42">
    <rdf:RDF>
      <cc:Work
         rdf:about="">
        <dc:format>image/svg+xml</dc:format>
        <dc:type
           rdf:resource="http://purl.org/dc/dcmitype/StillImage" />
      </cc:Work>
    </rdf:RDF>
  </metadata>
  <sodipodi:namedview
     pagecolor="#ffffff"
     bordercolor="#666666"
     borderopacity="1"
     objecttolerance="10"
     gridtolerance="10"
     guidetolerance="10"
     inkscape:pageopacity="0"
     inkscape:pageshadow="2"
     inkscape:window-width="1920"
     inkscape:window-height="1017"
     id="namedview40"
     showgrid="false"
     inkscape:zoom="11.8"
     inkscape:cx="-5.2542373"
     inkscape:cy="10"
     inkscape:window-x="-8"
     inkscape:window-y="-8"
     inkscape:window-maximized="1"
     inkscape:current-layer="svg38" />
  <title
     id="title2">Qt SVG Document</title>
  <desc
     id="desc4">Generated with Qt</desc>
  <defs
     id="defs6" />
  <g
     id="g36"
     transform="matrix(0.65217391,0,0,0.65217391,-0.43478256,-0.43478256)"
     style="fill:none;fill-rule:evenodd;stroke:#000000;stroke-width:1;stroke-linecap:square;stroke-linejoin:bevel">
    <g
       transform="translate(16,16)"
       font-size="8.25"
       font-weight="400"
       font-style="normal"
       id="g8"
       style="font-style:normal;font-weight:400;font-size:8.25px;font-family:'MS Shell Dlg 2';fill:none;stroke:#000000;stroke-width:1;stroke-linecap:square;stroke-linejoin:bevel;stroke-opacity:1" />
    <g
       transform="matrix(1.33333,0,0,1.33333,16,16)"
       font-size="8.25"
       font-weight="400"
       font-style="normal"
       id="g10"
       style="font-style:normal;font-weight:400;font-size:8.25px;font-family:'MS Shell Dlg 2';fill:none;stroke:#000000;stroke-width:1;stroke-linecap:square;stroke-linejoin:bevel;stroke-opacity:1" />
    <g
       transform="translate(4.5,23.1875)"
       font-size="17.0078"
       font-weight="400"
       font-style="normal"
       id="g14"
       style="font-style:normal;font-weight:400;font-size:17.00779915px;font-family:icomoon;fill:#ffff00;fill-opacity:1;stroke:none">
      <path
         d="M 2.02148,-18.6875 H 20.9785 c 0.5541,0 1.0295,0.1984 1.4263,0.5952 C 22.8016,-17.6955 23,-17.2201 23,-16.666 V 2.29102 C 23,2.84505 22.8016,3.32048 22.4048,3.71729 22.008,4.1141 21.5326,4.3125 20.9785,4.3125 H 2.02148 C 1.46745,4.3125 0.992025,4.1141 0.595215,3.71729 0.198405,3.32048 0,2.84505 0,2.29102 V -16.666 c 0,-0.5541 0.198405,-1.0295 0.595215,-1.4263 0.39681,-0.3968 0.872235,-0.5952 1.426265,-0.5952"
         id="path12"
         inkscape:connector-curvature="0"
         style="vector-effect:none;fill-rule:nonzero" />
    </g>
    <g
       transform="matrix(1.33333,0,0,1.33333,16,16)"
       font-size="8.25"
       font-weight="400"
       font-style="normal"
       id="g16"
       style="font-style:normal;font-weight:400;font-size:8.25px;font-family:'MS Shell Dlg 2';fill:none;stroke:#000000;stroke-width:1;stroke-linecap:square;stroke-linejoin:bevel;stroke-opacity:1" />
    <g
       transform="translate(16,16)"
       font-size="8.25"
       font-weight="400"
       font-style="normal"
       id="g18"
       style="font-style:normal;font-weight:400;font-size:8.25px;font-family:'MS Shell Dlg 2';fill:none;stroke:#000000;stroke-width:1;stroke-linecap:square;stroke-linejoin:bevel;stroke-opacity:1" />
    <g
       font-size="8.25"
       font-weight="400"
       font-style="normal"
       id="g20"
       style="font-style:normal;font-weight:400;font-size:8.25px;font-family:'MS Shell Dlg 2';fill:none;stroke:#000000;stroke-width:1;stroke-linecap:square;stroke-linejoin:bevel;stroke-opacity:1" />
    <g
       transform="translate(16,16)"
       font-size="8.25"
       font-weight="400"
       font-style="normal"
       id="g22"
       style="font-style:normal;font-weight:400;font-size:8.25px;font-family:'MS Shell Dlg 2';fill:none;stroke:#000000;stroke-width:1;stroke-linecap:square;stroke-linejoin:bevel;stroke-opacity:1" />
    <g
       transform="matrix(1.33333,0,0,1.33333,16,16)"
       font-size="8.25"
       font-weight="400"
       font-style="normal"
       id="g24"
       style="font-style:normal;font-weight:400;font-size:8.25px;font-family:'MS Shell Dlg 2';fill:none;stroke:#000000;stroke-width:1;stroke-linecap:square;stroke-linejoin:bevel;stroke-opacity:1" />
    <g
       transform="translate(4.5,23.1875)"
       font-size="17.0078"
       font-weight="400"
       font-style="normal"
       id="g28"
       style="font-style:normal;font-weight:400;font-size:17.00779915px;font-family:icomoon;fill:#000000;fill-opacity:1;stroke:none">
      <path
         d="m 20.9785,-18.0137 c 0.3744,0 0.6926,0.1311 0.9546,0.3931 0.262,0.262 0.3931,0.5802 0.3931,0.9546 V 2.29102 c 0,0.37434 -0.1311,0.69254 -0.3931,0.95459 -0.262,0.26204 -0.5802,0.39306 -0.9546,0.39306 H 2.02148 C 1.64714,3.63867 1.32894,3.50765 1.06689,3.24561 0.80485,2.98356 0.673828,2.66536 0.673828,2.29102 V -16.666 c 0,-0.3744 0.131022,-0.6926 0.393062,-0.9546 0.26205,-0.262 0.58025,-0.3931 0.95459,-0.3931 H 20.9785 m 0,-0.6738 H 2.02148 c -0.55403,0 -1.029455,0.1984 -1.426265,0.5952 C 0.198405,-17.6955 0,-17.2201 0,-16.666 V 2.29102 C 0,2.84505 0.198405,3.32048 0.595215,3.71729 0.992025,4.1141 1.46745,4.3125 2.02148,4.3125 H 20.9785 c 0.5541,0 1.0295,-0.1984 1.4263,-0.59521 C 22.8016,3.32048 23,2.84505 23,2.29102 V -16.666 c 0,-0.5541 -0.1984,-1.0295 -0.5952,-1.4263 -0.3968,-0.3968 -0.8722,-0.5952 -1.4263,-0.5952 m -3.998,5.6377 c 0.1198,-0.015 0.247,-0.0262 0.3818,-0.0337 0.1348,-0.0075 0.2695,-0.0112 0.4043,-0.0112 0.1497,0 0.292,0.0037 0.4268,0.0112 0.1347,0.0075 0.2695,0.0187 0.4043,0.0337 h -0.0225 c 0,0 0.0075,0 0.0225,0 0.0149,0 0.0224,0 0.0224,0 0.1498,0 0.2733,-0.0487 0.3706,-0.146 0.0974,-0.0973 0.146,-0.2209 0.146,-0.3706 0,-0.1198 -0.0449,-0.2284 -0.1347,-0.3257 -0.0899,-0.0973 -0.1947,-0.1535 -0.3145,-0.1684 -0.1048,-0.015 -0.2134,-0.0225 -0.3257,-0.0225 -0.1123,0 -0.2283,0 -0.3481,0 -0.1198,0 -0.2359,0 -0.3482,0 -0.1123,0 -0.2283,0.0075 -0.3481,0.0225 h 0.0449 c 0,-0.1797 -0.0187,-0.3557 -0.0561,-0.5279 -0.0375,-0.1722 -0.0861,-0.3406 -0.146,-0.5054 v 0.0225 c -0.045,-0.0749 -0.1049,-0.131 -0.1797,-0.1684 -0.0749,-0.0375 -0.1573,-0.0562 -0.2471,-0.0562 -0.1348,0 -0.2508,0.0487 -0.3481,0.146 -0.0974,0.0973 -0.146,0.2134 -0.146,0.3481 0,0.015 0,0.03 0,0.045 0,0.0149 0,0.0299 0,0.0449 0.0299,0.0898 0.0561,0.1872 0.0786,0.292 0.0224,0.1048 0.0337,0.2096 0.0337,0.3144 0,0.03 0,0.0524 0,0.0674 0,0.015 0,0.03 0,0.0449 -0.2097,0.03 -0.4081,0.0749 -0.5953,0.1348 -0.1871,0.0599 -0.3631,0.1348 -0.5278,0.2246 l 0.0225,-0.0225 c -0.1947,-0.0449 -0.3819,-0.0973 -0.5615,-0.1572 -0.1797,-0.0599 -0.3519,-0.1347 -0.5166,-0.2246 l 0.0224,0.0225 c 0.2246,-0.569 0.4642,-0.9284 0.7188,-1.0782 0.2545,-0.1497 0.4492,-0.2096 0.5839,-0.1796 0.03,0.0149 0.0562,0.0224 0.0787,0.0224 0.0224,0 0.0486,0 0.0786,0 0.1347,0 0.2545,-0.0486 0.3593,-0.146 0.1049,-0.0973 0.1573,-0.2134 0.1573,-0.3481 0,-0.1198 -0.0337,-0.2246 -0.1011,-0.3145 -0.0674,-0.0898 -0.1535,-0.1497 -0.2583,-0.1797 0,0 -0.3032,0.0075 -0.9097,0.0225 -0.6064,0.015 -1.1342,0.569 -1.5835,1.6621 h -0.0449 c -0.3144,-0.2246 -0.6551,-0.4267 -1.022,-0.6064 -0.3668,-0.1797 -0.7524,-0.3295 -1.1567,-0.4493 l -0.0449,-0.0224 c -0.1348,0.015 -0.2508,0.0711 -0.3482,0.1684 -0.0973,0.0974 -0.146,0.2134 -0.146,0.3482 0,0.0898 0.0225,0.1759 0.0674,0.2583 0.0449,0.0823 0.1123,0.146 0.2022,0.1909 0.3144,0.0899 0.6102,0.1984 0.8872,0.3257 0.277,0.1273 0.5353,0.2808 0.7749,0.4604 l -0.0225,-0.0224 c -0.0599,0.1048 -0.1085,0.2171 -0.146,0.3369 -0.0374,0.1198 -0.0561,0.2471 -0.0561,0.3818 0.0149,0.3295 0.0823,0.6402 0.2021,0.9322 0.1198,0.292 0.277,0.5577 0.4717,0.7973 v -0.0224 c 0,0.0449 0,0.0898 0,0.1347 0,0.0449 0,0.0899 0,0.1348 0,0.4792 0.0861,0.9284 0.2583,1.34765 0.1722,0.41927 0.408,0.78613 0.7075,1.10058 -0.0599,0.08985 -0.1273,0.17969 -0.2021,0.26954 -0.0749,0.08984 -0.1573,0.16471 -0.2471,0.2246 -0.4492,-0.23958 -1.2279,-0.47542 -2.3359,-0.70751 -1.1081,-0.2321 -2.52315,-0.05616 -4.24515,0.52783 -0.23959,0.05989 -0.4642,0.14599 -0.67383,0.2583 -0.20964,0.1123 -0.4043,0.25081 -0.58399,0.41553 H 5.6377 C 5.56283,-7.80143 5.49544,-7.83138 5.43555,-7.86133 5.37565,-7.89128 5.31576,-7.92871 5.25586,-7.97363 4.89648,-8.31803 4.77669,-8.6512 4.89648,-8.97314 5.01628,-9.29508 4.98633,-9.49349 4.80664,-9.56836 4.61198,-9.6582 4.32747,-9.41113 3.95313,-8.82715 c -0.37435,0.58399 -0.11231,1.47494 0.78613,2.67285 0.04492,0.07487 0.09733,0.14226 0.15722,0.20215 0.0599,0.0599 0.1198,0.11979 0.17969,0.17969 0.02995,0.41927 0.12354,0.82731 0.28076,1.22412 0.15723,0.39681 0.44548,0.64762 0.86475,0.75244 0.01497,0.04492 0.03743,0.0861 0.06738,0.12354 0.02995,0.03743 0.0599,0.07112 0.08985,0.10107 l 0.56152,0.56152 -0.53906,0.49414 c -0.07487,0.0599 -0.13102,0.13103 -0.16846,0.21338 -0.03743,0.08236 -0.05615,0.17595 -0.05615,0.28077 0,0.13476 0.03743,0.2583 0.1123,0.3706 0.07487,0.11231 0.1722,0.19841 0.29199,0.2583 l 1.25782,0.561525 c 0.07487,0.104818 0.13476,0.22461 0.17968,0.359375 0.04493,0.134766 0.06739,0.277019 0.06739,0.4267581 0,0.0748698 -0.00375,0.1422526 -0.01123,0.2021489 C 8.06722,0.217122 8.05599,0.277018 8.04102,0.336914 L 7.79395,0.673828 C 7.764,0.733724 7.73779,0.797363 7.71533,0.864746 7.69287,0.932129 7.68164,1.00326 7.68164,1.07813 c 0,0.10481 0.02621,0.20589 0.07861,0.30322 0.05241,0.09733 0.12354,0.17594 0.21338,0.23584 0.04492,0.04492 0.10108,0.07861 0.16846,0.10107 0.06738,0.02246 0.13851,0.03369 0.21338,0.03369 0.11979,0 0.22835,-0.0262 0.32568,-0.07861 C 8.77848,1.62093 8.8571,1.5498 8.91699,1.45996 L 9.86035,0.0673828 10.8711,0.516602 10.6689,0.943359 C 10.654,0.988281 10.639,1.03695 10.624,1.08936 c -0.015,0.0524 -0.0224,0.10107 -0.0224,0.14599 0,0.13477 0.0374,0.2583 0.1123,0.37061 0.0748,0.1123 0.1647,0.19092 0.2695,0.23584 0.0449,0.02994 0.0936,0.04866 0.146,0.05615 0.0524,0.00749 0.1011,0.01123 0.146,0.01123 0.1348,0 0.2583,-0.03369 0.3706,-0.10107 0.1123,-0.06739 0.1909,-0.16097 0.2358,-0.28077 L 12.1289,1.0332 c 0,0 0.0037,0 0.0112,0 0.0075,0 0.0188,0 0.0337,0 0.015,0 0.0262,0 0.0337,0 0.0075,0 0.0113,0 0.0113,0 0.1347,0 0.2583,-0.037432 0.3706,-0.112302 0.1123,-0.074869 0.1984,-0.1722 0.2583,-0.291992 0.0149,-0.029948 0.0262,-0.067383 0.0336,-0.112304 0.0075,-0.044922 0.0113,-0.089844 0.0113,-0.134766 0,-0.014974 0,-0.033691 0,-0.056152 0,-0.022461 -0.0075,-0.041179 -0.0225,-0.056153 0.5241,-0.119791 1.0594,-0.2882484 1.606,-0.505371 0.5465,-0.217122 0.9546,-0.497884 1.2241,-0.84229 l 0.0449,-0.04492 c 0.2995,-0.20963 0.5391,-0.47542 0.7188,-0.79736 0.1797,-0.32194 0.2695,-0.67757 0.2695,-1.06689 0,-0.10482 -0.0075,-0.20215 -0.0225,-0.292 -0.0149,-0.08984 -0.0374,-0.17968 -0.0673,-0.26953 0.0149,0 0.0224,-0.00374 0.0224,-0.01123 0,-0.00749 0,-0.01123 0,-0.01123 0,-0.25456 -0.0449,-0.49414 -0.1347,-0.71875 -0.0899,-0.22461 -0.2172,-0.42676 -0.3819,-0.60644 V -4.94141 H 16.127 C 16.0072,-5.07617 15.9136,-5.22965 15.8462,-5.40186 15.7788,-5.57406 15.7301,-5.75 15.7002,-5.92969 l -0.0225,-0.02246 c -0.1048,-0.6289 -0.0411,-1.22412 0.191,-1.78564 0.232,-0.56153 0.6101,-0.86475 1.1342,-0.90967 0.7637,-0.0599 1.2316,-0.13851 1.4038,-0.23584 0.1722,-0.09733 0.2434,-0.28825 0.2134,-0.57275 -0.015,-0.26954 -0.3107,-0.46045 -0.8872,-0.57275 -0.5765,-0.1123 -1.0968,-0.3706 -1.561,-0.7749 -0.3145,-0.2246 -0.4455,-0.5129 -0.3931,-0.8648 0.0524,-0.3518 0.1385,-0.6626 0.2583,-0.9321 0.1797,-0.015 0.3519,-0.0636 0.5166,-0.146 0.1647,-0.0823 0.307,-0.1834 0.4268,-0.3032 m -6.4688,11.94921 c 0,-0.08984 -0.0187,-0.1722 -0.0561,-0.24707 -0.0375,-0.07487 -0.0861,-0.14225 -0.146,-0.20214 L 9.47852,-2.38086 c -0.01498,-0.04492 -0.02621,-0.09359 -0.0337,-0.146 -0.00748,-0.0524 -0.01123,-0.10856 -0.01123,-0.16845 0,-0.17969 0.03744,-0.35563 0.11231,-0.52783 0.07487,-0.17221 0.1722,-0.3182 0.29199,-0.43799 l 1.88671,-0.04492 c 0.1048,0.14973 0.1909,0.32194 0.2583,0.5166 0.0674,0.19466 0.1011,0.39681 0.1011,0.60644 0,0.13477 -0.0112,0.26579 -0.0337,0.39307 -0.0225,0.12728 -0.0636,0.24333 -0.1235,0.34814 h 0.0224 L 11.5,-0.786133 H 11.3203 L 10.5117,-1.10059 m 3.3467,-0.31445 c 0.1048,-0.20963 0.1834,-0.43424 0.2358,-0.67383 0.0524,-0.23958 0.0787,-0.48665 0.0787,-0.74121 0,-0.10482 -0.0038,-0.20589 -0.0113,-0.30322 -0.0075,-0.09733 -0.0187,-0.19092 -0.0337,-0.28076 v 0.02246 c 0.045,0 0.0974,0 0.1573,0 0.0599,0 0.1272,0 0.2021,0 0.0599,0 0.1198,0 0.1797,0 0.0599,0 0.1198,0 0.1797,0 h -0.0225 c 0.015,0.02995 0.0225,0.06364 0.0225,0.10107 0,0.03744 0,0.07862 0,0.12354 0,0.22461 -0.0187,0.44547 -0.0562,0.6626 -0.0374,0.21712 -0.0936,0.42301 -0.1684,0.61767 l 0.0224,-0.02246 c -0.1048,0.10482 -0.2246,0.19466 -0.3593,0.26953 -0.1348,0.07487 -0.2771,0.14225 -0.4268,0.20215 v 0.02246"
         id="path26"
         inkscape:connector-curvature="0"
         style="vector-effect:none;fill-rule:nonzero" />
    </g>
    <g
       transform="matrix(1.33333,0,0,1.33333,16,16)"
       font-size="8.25"
       font-weight="400"
       font-style="normal"
       id="g30"
       style="font-style:normal;font-weight:400;font-size:8.25px;font-family:'MS Shell Dlg 2';fill:none;stroke:#000000;stroke-width:1;stroke-linecap:square;stroke-linejoin:bevel;stroke-opacity:1" />
    <g
       transform="translate(16,16)"
       font-size="8.25"
       font-weight="400"
       font-style="normal"
       id="g32"
       style="font-style:normal;font-weight:400;font-size:8.25px;font-family:'MS Shell Dlg 2';fill:none;stroke:#000000;stroke-width:1;stroke-linecap:square;stroke-linejoin:bevel;stroke-opacity:1" />
    <g
       font-size="8.25"
       font-weight="400"
       font-style="normal"
       id="g34"
       style="font-style:normal;font-weight:400;font-size:8.25px;font-family:'MS Shell Dlg 2';fill:none;stroke:#000000;stroke-width:1;stroke-linecap:square;stroke-linejoin:bevel;stroke-opacity:1" />
  </g>
</svg>
