<?xml version="1.0" encoding="UTF-8" standalone="no"?>
<svg
   xmlns:dc="http://purl.org/dc/elements/1.1/"
   xmlns:cc="http://creativecommons.org/ns#"
   xmlns:rdf="http://www.w3.org/1999/02/22-rdf-syntax-ns#"
   xmlns:svg="http://www.w3.org/2000/svg"
   xmlns="http://www.w3.org/2000/svg"
   xmlns:sodipodi="http://sodipodi.sourceforge.net/DTD/sodipodi-0.dtd"
   xmlns:inkscape="http://www.inkscape.org/namespaces/inkscape"
   width="20"
   height="20"
   viewBox="0 0 20 20"
   version="1.2"
   id="svg66"
   sodipodi:docname="60202021324.svg"
   inkscape:version="0.92.4 (5da689c313, 2019-01-14)">
  <metadata
     id="metadata70">
    <rdf:RDF>
      <cc:Work
         rdf:about="">
        <dc:format>image/svg+xml</dc:format>
        <dc:type
           rdf:resource="http://purl.org/dc/dcmitype/StillImage" />
      </cc:Work>
    </rdf:RDF>
  </metadata>
  <sodipodi:namedview
     pagecolor="#ffffff"
     bordercolor="#666666"
     borderopacity="1"
     objecttolerance="10"
     gridtolerance="10"
     guidetolerance="10"
     inkscape:pageopacity="0"
     inkscape:pageshadow="2"
     inkscape:window-width="1920"
     inkscape:window-height="1017"
     id="namedview68"
     showgrid="false"
     inkscape:zoom="11.8"
     inkscape:cx="-5.2542373"
     inkscape:cy="10"
     inkscape:window-x="-8"
     inkscape:window-y="-8"
     inkscape:window-maximized="1"
     inkscape:current-layer="svg66" />
  <title
     id="title2">Qt SVG Document</title>
  <desc
     id="desc4">Generated with Qt</desc>
  <defs
     id="defs6" />
  <g
     id="g64"
     transform="matrix(0.69230769,0,0,0.69230769,-1.076923,-1.076923)"
     style="fill:none;fill-rule:evenodd;stroke:#000000;stroke-width:1;stroke-linecap:square;stroke-linejoin:bevel">
    <g
       transform="translate(16,16)"
       font-size="8.25"
       font-weight="400"
       font-style="normal"
       id="g8"
       style="font-style:normal;font-weight:400;font-size:8.25px;font-family:'MS Shell Dlg 2';fill:none;stroke:#000000;stroke-width:1;stroke-linecap:square;stroke-linejoin:bevel;stroke-opacity:1" />
    <g
       transform="matrix(1.33333,0,0,1.33333,16,16)"
       font-size="8.25"
       font-weight="400"
       font-style="normal"
       id="g10"
       style="font-style:normal;font-weight:400;font-size:8.25px;font-family:'MS Shell Dlg 2';fill:none;stroke:#000000;stroke-width:1;stroke-linecap:square;stroke-linejoin:bevel;stroke-opacity:1" />
    <g
       transform="translate(3,24.125)"
       font-size="19.8425"
       font-weight="400"
       font-style="normal"
       id="g14"
       style="font-style:normal;font-weight:400;font-size:19.84250069px;font-family:icomoon;fill:#ffffff;fill-opacity:1;stroke:none">
      <path
         d="M 2.28516,-21.125 H 23.7148 c 0.6263,0 1.1638,0.2243 1.6123,0.6729 0.4486,0.4485 0.6729,0.986 0.6729,1.6123 V 2.58984 C 26,3.21615 25.7757,3.75358 25.3271,4.20215 24.8786,4.65072 24.3411,4.875 23.7148,4.875 H 2.28516 C 1.65885,4.875 1.12142,4.65072 0.672852,4.20215 0.224284,3.75358 0,3.21615 0,2.58984 V -18.8398 c 0,-0.6263 0.224284,-1.1638 0.672852,-1.6123 0.448568,-0.4486 0.985998,-0.6729 1.612308,-0.6729"
         id="path12"
         inkscape:connector-curvature="0"
         style="vector-effect:none;fill-rule:nonzero" />
    </g>
    <g
       transform="matrix(1.33333,0,0,1.33333,16,16)"
       font-size="8.25"
       font-weight="400"
       font-style="normal"
       id="g16"
       style="font-style:normal;font-weight:400;font-size:8.25px;font-family:'MS Shell Dlg 2';fill:none;stroke:#000000;stroke-width:1;stroke-linecap:square;stroke-linejoin:bevel;stroke-opacity:1" />
    <g
       transform="translate(16,16)"
       font-size="8.25"
       font-weight="400"
       font-style="normal"
       id="g18"
       style="font-style:normal;font-weight:400;font-size:8.25px;font-family:'MS Shell Dlg 2';fill:none;stroke:#000000;stroke-width:1;stroke-linecap:square;stroke-linejoin:bevel;stroke-opacity:1" />
    <g
       font-size="8.25"
       font-weight="400"
       font-style="normal"
       id="g20"
       style="font-style:normal;font-weight:400;font-size:8.25px;font-family:'MS Shell Dlg 2';fill:none;stroke:#000000;stroke-width:1;stroke-linecap:square;stroke-linejoin:bevel;stroke-opacity:1" />
    <g
       transform="translate(16,16)"
       font-size="8.25"
       font-weight="400"
       font-style="normal"
       id="g22"
       style="font-style:normal;font-weight:400;font-size:8.25px;font-family:'MS Shell Dlg 2';fill:none;stroke:#000000;stroke-width:1;stroke-linecap:square;stroke-linejoin:bevel;stroke-opacity:1" />
    <g
       transform="matrix(1.33333,0,0,1.33333,16,16)"
       font-size="8.25"
       font-weight="400"
       font-style="normal"
       id="g24"
       style="font-style:normal;font-weight:400;font-size:8.25px;font-family:'MS Shell Dlg 2';fill:none;stroke:#000000;stroke-width:1;stroke-linecap:square;stroke-linejoin:bevel;stroke-opacity:1" />
    <g
       transform="translate(4.5,23.1875)"
       font-size="17.0078"
       font-weight="400"
       font-style="normal"
       id="g28"
       style="font-style:normal;font-weight:400;font-size:17.00779915px;font-family:icomoon;fill:#000000;fill-opacity:1;stroke:none">
      <path
         d="m 20.9785,-18.0137 c 0.3744,0 0.6926,0.1311 0.9546,0.3931 0.262,0.262 0.3931,0.5802 0.3931,0.9546 V 2.29102 c 0,0.37434 -0.1311,0.69254 -0.3931,0.95459 -0.262,0.26204 -0.5802,0.39306 -0.9546,0.39306 H 2.02148 C 1.64714,3.63867 1.32894,3.50765 1.06689,3.24561 0.80485,2.98356 0.673828,2.66536 0.673828,2.29102 V -16.666 c 0,-0.3744 0.131022,-0.6926 0.393062,-0.9546 0.26205,-0.262 0.58025,-0.3931 0.95459,-0.3931 H 20.9785 m 0,-0.6738 H 2.02148 c -0.55403,0 -1.029455,0.1984 -1.426265,0.5952 C 0.198405,-17.6955 0,-17.2201 0,-16.666 V 2.29102 C 0,2.84505 0.198405,3.32048 0.595215,3.71729 0.992025,4.1141 1.46745,4.3125 2.02148,4.3125 H 20.9785 c 0.5541,0 1.0295,-0.1984 1.4263,-0.59521 C 22.8016,3.32048 23,2.84505 23,2.29102 V -16.666 c 0,-0.5541 -0.1984,-1.0295 -0.5952,-1.4263 -0.3968,-0.3968 -0.8722,-0.5952 -1.4263,-0.5952 M 10.8936,-4.22266 c 0.5839,-0.01497 1.1529,-0.06738 1.707,-0.15722 0.554,-0.08985 1.0856,-0.22461 1.5947,-0.4043 l -0.0674,0.02246 c 0.8985,-0.26953 1.7108,-0.80859 2.437,-1.61719 0.7263,-0.80859 1.2391,-1.4375 1.5386,-1.88672 0.8985,0.08985 1.4637,0.08985 1.6958,0 0.2321,-0.08984 0.3482,-0.13476 0.3482,-0.13476 v -4.64941 c -0.7787,0.1647 -1.4862,0.4642 -2.1226,0.8984 -0.6364,0.4343 -1.1642,0.9584 -1.5835,1.5723 h -0.0225 c -0.1946,-0.015 -0.4005,-0.0299 -0.6176,-0.0449 -0.2172,-0.015 -0.438,-0.0225 -0.6626,-0.0225 -0.3894,0 -0.7749,0.0225 -1.1568,0.0674 -0.3818,0.0449 -0.7524,0.1123 -1.1118,0.2021 h 0.0674 c 0.8835,-0.7936 1.3327,-1.5198 1.3477,-2.1787 0.0149,-0.6588 -0.1198,-1.123 -0.4043,-1.3925 -0.3744,-0.3594 -0.8423,-0.3332 -1.4038,0.0786 -0.5616,0.4118 -1.0744,0.9546 -1.5386,1.6284 v -2.3584 c 0,0 0,-0.0038 0,-0.0112 0,-0.0075 0,-0.0113 0,-0.0113 0,-0.2695 -0.0974,-0.5053 -0.292,-0.7075 -0.1947,-0.2021 -0.4343,-0.3032 -0.71877,-0.3032 -0.26953,0 -0.50162,0.0973 -0.69628,0.292 -0.19467,0.1946 -0.292,0.4342 -0.292,0.7187 v 2.291 c -0.20963,-0.2695 -0.46793,-0.4829 -0.7749,-0.6401 -0.30697,-0.1572 -0.64014,-0.2358 -0.99951,-0.2358 -0.16471,0 -0.32943,0.0187 -0.49414,0.0561 -0.16472,0.0375 -0.31445,0.0936 -0.44922,0.1685 v -0.0225 c -0.64388,0.2845 -0.69255,0.9022 -0.146,1.853 0.54655,0.9509 1.50114,1.92794 2.86377,2.9312 v 1.0332 c -0.2845,0.44922 -0.49788,0.861 -0.64013,1.23535 -0.14226,0.37435 -0.16097,0.63639 -0.05616,0.78613 0.08985,0.10482 0.18718,0.19841 0.292,0.28077 0.10481,0.08235 0.21712,0.15348 0.33691,0.21337 v 1.48243 c 0,0.01497 0,0.03369 0,0.05615 0,0.02246 0,0.04118 0,0.05615 0,0.01498 0,0.03369 0,0.05615 0,0.02246 0,0.04118 0,0.05616 -0.17969,0.10481 -0.37435,0.19091 -0.58398,0.2583 -0.20964,0.06738 -0.43425,0.10107 -0.67383,0.10107 -0.17969,0 -0.35563,-0.02246 -0.52783,-0.06738 -0.1722,-0.04492 -0.34066,-0.10482 -0.50538,-0.17969 l 0.02247,0.02246 C 6.18424,-3.11458 5.84733,-3.4777 5.59277,-3.91943 5.33822,-4.36117 5.18848,-4.84408 5.14355,-5.36816 V -5.39063 C 5.02376,-6.0944 4.72054,-6.36393 4.23389,-6.19922 c -0.48666,0.16471 -0.79737,0.3444 -0.93213,0.53906 -0.16472,0.22461 -0.29199,0.59896 -0.38184,1.12305 -0.08984,0.50912 -0.10107,1.04443 -0.03369,1.60596 0.06738,0.56152 0.24333,1.08935 0.52783,1.58349 0.26953,0.509118 0.6888,0.87598 1.25782,1.10059 0.6289,0.25455698 1.24283,0.3144528 1.84179,0.1796872 C 7.09766,-0.202148 7.62174,-0.400553 8.08594,-0.662598 8.55013,-0.924642 8.92448,-1.18294 9.20898,-1.4375 c 0.26954,-0.25456 0.4043,-0.38184 0.4043,-0.38184 0.19466,0.883468 0.64762,1.617192 1.35892,2.201176 0.7112,0.583984 1.5385,0.875974 2.4819,0.875974 0.0299,0 0.0562,0 0.0786,0 0.0225,0 0.0487,0 0.0786,0 1.0782,0 1.9991,-0.12728 2.7627,-0.381833 0.7787,-0.254558 1.4188,-0.554037 1.9204,-0.8984379 0.5017,-0.3444011 0.8798,-0.7112631 1.1343,-1.1005891 0.2546,-0.37435 0.4043,-0.6888 0.4492,-0.94336 0.1348,-0.83854 -0.0561,-1.63964 -0.5727,-2.40332 -0.5166,-0.76367 -1.1118,-0.99576 -1.7857,-0.69629 -0.6738,0.31446 -1.2653,0.90219 -1.7744,1.76319 -0.5091,0.861 -1.3476,1.30648 -2.5156,1.33642 -0.0599,0.01498 -0.1235,0.02246 -0.1909,0.02246 -0.0674,0 -0.1385,0 -0.2134,0 -0.3893,0 -0.7562,-0.05989 -1.1006,-0.17968 -0.3444,-0.11979 -0.6588,-0.28451 -0.9433,-0.49414 v 0.02246 c 0.0449,-0.07487 0.0786,-0.15349 0.101,-0.23584 0.0225,-0.08236 0.0337,-0.16846 0.0337,-0.2583 l -0.0224,-1.03321 m 3.0322,-2.76269 c 0,0 -0.2508,0.21338 -0.7525,0.64014 -0.5016,0.42675 -0.977,0.55778 -1.4262,0.39306 0.1647,-0.89844 0.569,-1.29525 1.2129,-1.19043 0.6438,0.10482 0.9658,0.15723 0.9658,0.15723"
         id="path26"
         inkscape:connector-curvature="0"
         style="vector-effect:none;fill-rule:nonzero" />
    </g>
    <g
       transform="matrix(1.33333,0,0,1.33333,16,16)"
       font-size="8.25"
       font-weight="400"
       font-style="normal"
       id="g30"
       style="font-style:normal;font-weight:400;font-size:8.25px;font-family:'MS Shell Dlg 2';fill:none;stroke:#000000;stroke-width:1;stroke-linecap:square;stroke-linejoin:bevel;stroke-opacity:1" />
    <g
       transform="translate(16,16)"
       font-size="8.25"
       font-weight="400"
       font-style="normal"
       id="g32"
       style="font-style:normal;font-weight:400;font-size:8.25px;font-family:'MS Shell Dlg 2';fill:none;stroke:#000000;stroke-width:1;stroke-linecap:square;stroke-linejoin:bevel;stroke-opacity:1" />
    <g
       font-size="8.25"
       font-weight="400"
       font-style="normal"
       id="g34"
       style="font-style:normal;font-weight:400;font-size:8.25px;font-family:'MS Shell Dlg 2';fill:none;stroke:#000000;stroke-width:1;stroke-linecap:square;stroke-linejoin:bevel;stroke-opacity:1" />
    <g
       transform="translate(16,16)"
       font-size="8.25"
       font-weight="400"
       font-style="normal"
       id="g36"
       style="font-style:normal;font-weight:400;font-size:8.25px;font-family:'MS Shell Dlg 2';fill:none;stroke:#000000;stroke-width:1;stroke-linecap:square;stroke-linejoin:bevel;stroke-opacity:1" />
    <g
       transform="matrix(1.33333,0,0,1.33333,16,16)"
       font-size="8.25"
       font-weight="400"
       font-style="normal"
       id="g38"
       style="font-style:normal;font-weight:400;font-size:8.25px;font-family:'MS Shell Dlg 2';fill:none;stroke:#000000;stroke-width:1;stroke-linecap:square;stroke-linejoin:bevel;stroke-opacity:1" />
    <g
       transform="translate(3,24.125)"
       font-size="19.8425"
       font-weight="400"
       font-style="normal"
       id="g42"
       style="font-style:normal;font-weight:400;font-size:19.84250069px;font-family:icomoon;fill:#000000;fill-opacity:1;stroke:none">
      <path
         d="m 23.9434,-20.4395 c 0.3724,0 0.694,0.1355 0.9648,0.4063 0.2708,0.2708 0.4063,0.5924 0.4063,0.9648 V 2.81836 c 0,0.3724 -0.1355,0.69401 -0.4063,0.96484 -0.2708,0.27084 -0.5924,0.40625 -0.9648,0.40625 H 2.05664 C 1.68424,4.18945 1.36263,4.05404 1.0918,3.7832 0.820964,3.51237 0.685547,3.19076 0.685547,2.81836 V -19.0684 c 0,-0.3724 0.135417,-0.694 0.406253,-0.9648 0.27083,-0.2708 0.59244,-0.4063 0.96484,-0.4063 H 23.9434 m 0,-0.6855 H 2.05664 c -0.57552,0 -1.062174,0.1989 -1.45996,0.5967 C 0.198893,-20.1305 0,-19.6439 0,-19.0684 V 2.81836 C 0,3.39388 0.198893,3.88053 0.59668,4.27832 0.994466,4.67611 1.48112,4.875 2.05664,4.875 H 23.9434 c 0.5755,0 1.0621,-0.19889 1.4599,-0.59668 C 25.8011,3.88053 26,3.39388 26,2.81836 V -19.0684 c 0,-0.5755 -0.1989,-1.0621 -0.5967,-1.4599 -0.3978,-0.3978 -0.8844,-0.5967 -1.4599,-0.5967"
         id="path40"
         inkscape:connector-curvature="0"
         style="vector-effect:none;fill-rule:nonzero" />
    </g>
    <g
       transform="matrix(1.33333,0,0,1.33333,16,16)"
       font-size="8.25"
       font-weight="400"
       font-style="normal"
       id="g44"
       style="font-style:normal;font-weight:400;font-size:8.25px;font-family:'MS Shell Dlg 2';fill:none;stroke:#000000;stroke-width:1;stroke-linecap:square;stroke-linejoin:bevel;stroke-opacity:1" />
    <g
       transform="translate(16,16)"
       font-size="8.25"
       font-weight="400"
       font-style="normal"
       id="g46"
       style="font-style:normal;font-weight:400;font-size:8.25px;font-family:'MS Shell Dlg 2';fill:none;stroke:#000000;stroke-width:1;stroke-linecap:square;stroke-linejoin:bevel;stroke-opacity:1" />
    <g
       font-size="8.25"
       font-weight="400"
       font-style="normal"
       id="g48"
       style="font-style:normal;font-weight:400;font-size:8.25px;font-family:'MS Shell Dlg 2';fill:none;stroke:#000000;stroke-width:1;stroke-linecap:square;stroke-linejoin:bevel;stroke-opacity:1" />
    <g
       transform="translate(16,16)"
       font-size="8.25"
       font-weight="400"
       font-style="normal"
       id="g50"
       style="font-style:normal;font-weight:400;font-size:8.25px;font-family:'MS Shell Dlg 2';fill:none;stroke:#000000;stroke-width:1;stroke-linecap:square;stroke-linejoin:bevel;stroke-opacity:1" />
    <g
       transform="matrix(1.33333,0,0,1.33333,16,16)"
       font-size="8.25"
       font-weight="400"
       font-style="normal"
       id="g52"
       style="font-style:normal;font-weight:400;font-size:8.25px;font-family:'MS Shell Dlg 2';fill:none;stroke:#000000;stroke-width:1;stroke-linecap:square;stroke-linejoin:bevel;stroke-opacity:1" />
    <g
       transform="translate(3.5,23.8125)"
       font-size="18.7086"
       font-weight="400"
       font-style="normal"
       id="g56"
       style="font-style:normal;font-weight:400;font-size:18.70859909px;font-family:icomoon;fill:#ff0000;fill-opacity:1;stroke:none">
      <path
         d="M 0.78125,4.6875 C 0.667318,4.6875 0.565592,4.66715 0.476074,4.62646 0.386556,4.58577 0.301107,4.53288 0.219727,4.46777 0.154622,4.38639 0.101725,4.30094 0.0610352,4.21143 0.0203451,4.12191 0,4.02018 0,3.90625 0,3.79232 0.0203451,3.69059 0.0610352,3.60107 0.101725,3.51156 0.154622,3.42611 0.219727,3.34473 L 23.6572,-20.0928 c 0.0814,-0.0651 0.1669,-0.118 0.2564,-0.1587 0.0895,-0.0407 0.1912,-0.061 0.3052,-0.061 0.2115,0 0.3946,0.0773 0.5493,0.2319 0.1546,0.1547 0.2319,0.3378 0.2319,0.5493 0,0.114 -0.0203,0.2157 -0.061,0.3052 -0.0407,0.0895 -0.0936,0.175 -0.1587,0.2564 L 1.34277,4.46777 C 1.26139,4.53288 1.17594,4.58577 1.08643,4.62646 0.996908,4.66715 0.895182,4.6875 0.78125,4.6875"
         id="path54"
         inkscape:connector-curvature="0"
         style="vector-effect:none;fill-rule:nonzero" />
    </g>
    <g
       transform="matrix(1.33333,0,0,1.33333,16,16)"
       font-size="8.25"
       font-weight="400"
       font-style="normal"
       id="g58"
       style="font-style:normal;font-weight:400;font-size:8.25px;font-family:'MS Shell Dlg 2';fill:none;stroke:#000000;stroke-width:1;stroke-linecap:square;stroke-linejoin:bevel;stroke-opacity:1" />
    <g
       transform="translate(16,16)"
       font-size="8.25"
       font-weight="400"
       font-style="normal"
       id="g60"
       style="font-style:normal;font-weight:400;font-size:8.25px;font-family:'MS Shell Dlg 2';fill:none;stroke:#000000;stroke-width:1;stroke-linecap:square;stroke-linejoin:bevel;stroke-opacity:1" />
    <g
       font-size="8.25"
       font-weight="400"
       font-style="normal"
       id="g62"
       style="font-style:normal;font-weight:400;font-size:8.25px;font-family:'MS Shell Dlg 2';fill:none;stroke:#000000;stroke-width:1;stroke-linecap:square;stroke-linejoin:bevel;stroke-opacity:1" />
  </g>
</svg>
