<?xml version="1.0" encoding="UTF-8" standalone="no"?>
<svg
   xmlns:dc="http://purl.org/dc/elements/1.1/"
   xmlns:cc="http://creativecommons.org/ns#"
   xmlns:rdf="http://www.w3.org/1999/02/22-rdf-syntax-ns#"
   xmlns:svg="http://www.w3.org/2000/svg"
   xmlns="http://www.w3.org/2000/svg"
   xmlns:sodipodi="http://sodipodi.sourceforge.net/DTD/sodipodi-0.dtd"
   xmlns:inkscape="http://www.inkscape.org/namespaces/inkscape"
   width="20"
   height="20"
   viewBox="0 0 20 20"
   version="1.2"
   id="svg38"
   sodipodi:docname="60202020531.svg"
   inkscape:version="0.92.4 (5da689c313, 2019-01-14)">
  <metadata
     id="metadata42">
    <rdf:RDF>
      <cc:Work
         rdf:about="">
        <dc:format>image/svg+xml</dc:format>
        <dc:type
           rdf:resource="http://purl.org/dc/dcmitype/StillImage" />
      </cc:Work>
    </rdf:RDF>
  </metadata>
  <sodipodi:namedview
     pagecolor="#ffffff"
     bordercolor="#666666"
     borderopacity="1"
     objecttolerance="10"
     gridtolerance="10"
     guidetolerance="10"
     inkscape:pageopacity="0"
     inkscape:pageshadow="2"
     inkscape:window-width="1920"
     inkscape:window-height="1017"
     id="namedview40"
     showgrid="false"
     inkscape:zoom="11.8"
     inkscape:cx="-5.2542373"
     inkscape:cy="10"
     inkscape:window-x="-8"
     inkscape:window-y="-8"
     inkscape:window-maximized="1"
     inkscape:current-layer="svg38" />
  <title
     id="title2">Qt SVG Document</title>
  <desc
     id="desc4">Generated with Qt</desc>
  <defs
     id="defs6" />
  <g
     id="g36"
     transform="matrix(0.65217391,0,0,0.65217391,-0.43478256,-0.43478256)"
     style="fill:none;fill-rule:evenodd;stroke:#000000;stroke-width:1;stroke-linecap:square;stroke-linejoin:bevel">
    <g
       transform="translate(16,16)"
       font-size="8.25"
       font-weight="400"
       font-style="normal"
       id="g8"
       style="font-style:normal;font-weight:400;font-size:8.25px;font-family:'MS Shell Dlg 2';fill:none;stroke:#000000;stroke-width:1;stroke-linecap:square;stroke-linejoin:bevel;stroke-opacity:1" />
    <g
       transform="matrix(1.33333,0,0,1.33333,16,16)"
       font-size="8.25"
       font-weight="400"
       font-style="normal"
       id="g10"
       style="font-style:normal;font-weight:400;font-size:8.25px;font-family:'MS Shell Dlg 2';fill:none;stroke:#000000;stroke-width:1;stroke-linecap:square;stroke-linejoin:bevel;stroke-opacity:1" />
    <g
       transform="translate(4.5,23.1875)"
       font-size="17.0078"
       font-weight="400"
       font-style="normal"
       id="g14"
       style="font-style:normal;font-weight:400;font-size:17.00779915px;font-family:icomoon;fill:#ffffff;fill-opacity:1;stroke:none">
      <path
         d="M 2.02148,-18.6875 H 20.9785 c 0.5541,0 1.0295,0.1984 1.4263,0.5952 C 22.8016,-17.6955 23,-17.2201 23,-16.666 V 2.29102 C 23,2.84505 22.8016,3.32048 22.4048,3.71729 22.008,4.1141 21.5326,4.3125 20.9785,4.3125 H 2.02148 C 1.46745,4.3125 0.992025,4.1141 0.595215,3.71729 0.198405,3.32048 0,2.84505 0,2.29102 V -16.666 c 0,-0.5541 0.198405,-1.0295 0.595215,-1.4263 0.39681,-0.3968 0.872235,-0.5952 1.426265,-0.5952"
         id="path12"
         inkscape:connector-curvature="0"
         style="vector-effect:none;fill-rule:nonzero" />
    </g>
    <g
       transform="matrix(1.33333,0,0,1.33333,16,16)"
       font-size="8.25"
       font-weight="400"
       font-style="normal"
       id="g16"
       style="font-style:normal;font-weight:400;font-size:8.25px;font-family:'MS Shell Dlg 2';fill:none;stroke:#000000;stroke-width:1;stroke-linecap:square;stroke-linejoin:bevel;stroke-opacity:1" />
    <g
       transform="translate(16,16)"
       font-size="8.25"
       font-weight="400"
       font-style="normal"
       id="g18"
       style="font-style:normal;font-weight:400;font-size:8.25px;font-family:'MS Shell Dlg 2';fill:none;stroke:#000000;stroke-width:1;stroke-linecap:square;stroke-linejoin:bevel;stroke-opacity:1" />
    <g
       font-size="8.25"
       font-weight="400"
       font-style="normal"
       id="g20"
       style="font-style:normal;font-weight:400;font-size:8.25px;font-family:'MS Shell Dlg 2';fill:none;stroke:#000000;stroke-width:1;stroke-linecap:square;stroke-linejoin:bevel;stroke-opacity:1" />
    <g
       transform="translate(16,16)"
       font-size="8.25"
       font-weight="400"
       font-style="normal"
       id="g22"
       style="font-style:normal;font-weight:400;font-size:8.25px;font-family:'MS Shell Dlg 2';fill:none;stroke:#000000;stroke-width:1;stroke-linecap:square;stroke-linejoin:bevel;stroke-opacity:1" />
    <g
       transform="matrix(1.33333,0,0,1.33333,16,16)"
       font-size="8.25"
       font-weight="400"
       font-style="normal"
       id="g24"
       style="font-style:normal;font-weight:400;font-size:8.25px;font-family:'MS Shell Dlg 2';fill:none;stroke:#000000;stroke-width:1;stroke-linecap:square;stroke-linejoin:bevel;stroke-opacity:1" />
    <g
       transform="translate(4.5,23.1875)"
       font-size="17.0078"
       font-weight="400"
       font-style="normal"
       id="g28"
       style="font-style:normal;font-weight:400;font-size:17.00779915px;font-family:icomoon;fill:#000000;fill-opacity:1;stroke:none">
      <path
         d="m 20.9785,-18.0137 c 0.3744,0 0.6926,0.1311 0.9546,0.3931 0.262,0.262 0.3931,0.5802 0.3931,0.9546 V 2.29102 c 0,0.37434 -0.1311,0.69254 -0.3931,0.95459 -0.262,0.26204 -0.5802,0.39306 -0.9546,0.39306 H 2.02148 C 1.64714,3.63867 1.32894,3.50765 1.06689,3.24561 0.80485,2.98356 0.673828,2.66536 0.673828,2.29102 V -16.666 c 0,-0.3744 0.131022,-0.6926 0.393062,-0.9546 0.26205,-0.262 0.58025,-0.3931 0.95459,-0.3931 H 20.9785 m 0,-0.6738 H 2.02148 c -0.55403,0 -1.029455,0.1984 -1.426265,0.5952 C 0.198405,-17.6955 0,-17.2201 0,-16.666 V 2.29102 C 0,2.84505 0.198405,3.32048 0.595215,3.71729 0.992025,4.1141 1.46745,4.3125 2.02148,4.3125 H 20.9785 c 0.5541,0 1.0295,-0.1984 1.4263,-0.59521 C 22.8016,3.32048 23,2.84505 23,2.29102 V -16.666 c 0,-0.5541 -0.1984,-1.0295 -0.5952,-1.4263 -0.3968,-0.3968 -0.8722,-0.5952 -1.4263,-0.5952 m -1.0107,5.5928 c -0.2396,-0.2097 -0.5391,-0.2845 -0.8985,-0.2246 -0.3593,0.0599 -0.6663,0.0973 -0.9209,0.1123 -0.1497,-0.1348 -0.2807,-0.322 -0.393,-0.5616 -0.1123,-0.2395 -0.3781,-0.3743 -0.7974,-0.4043 -0.2396,0 -0.5016,0.1273 -0.7861,0.3819 -0.2845,0.2545 -0.4717,0.5765 -0.5615,0.9658 -0.1348,0.5241 -0.1423,0.9509 -0.0225,1.2803 0.1198,0.3294 -0.0824,0.6813 -0.6065,1.0556 -0.2246,0 -0.4305,-0.131 -0.6176,-0.393 -0.1872,-0.2621 -0.4006,-0.5129 -0.6402,-0.7525 -0.1497,-0.1497 -0.2695,-0.3294 -0.3593,-0.539 -0.0899,-0.2097 -0.1348,-0.4268 -0.1348,-0.6514 0,-0.0299 0.0037,-0.0561 0.0112,-0.0786 0.0075,-0.0225 0.0113,-0.0487 0.0113,-0.0786 -0.03,-0.3294 -0.161,-0.6102 -0.3931,-0.8423 -0.2321,-0.2321 -0.5129,-0.3631 -0.8423,-0.3931 -0.5241,0 -0.8797,0.146 -1.0669,0.438 -0.1872,0.292 -0.3257,0.5728 -0.4155,0.8423 -0.0899,0.2695 -0.176,0.4604 -0.2583,0.5728 -0.0824,0.1123 -0.2209,0.1684 -0.41555,0.1684 -0.19466,0 -0.34814,-0.0636 -0.46045,-0.1909 -0.1123,-0.1273 -0.22086,-0.3407 -0.32568,-0.6401 -0.10482,-0.2995 -0.23584,-0.5728 -0.39307,-0.8199 -0.15722,-0.247 -0.44547,-0.3706 -0.86474,-0.3706 -0.47917,0 -0.81608,0.1984 -1.01075,0.5952 -0.19466,0.3969 -0.3444,0.8124 -0.44921,1.2466 -0.0599,0.2845 -0.14226,0.5503 -0.24707,0.7974 -0.10482,0.2471 -0.2321,0.4754 -0.38184,0.685 v -0.0224 c -0.13477,0.1497 -0.29948,0.3369 -0.49414,0.5615 -0.19466,0.2246 -0.38932,0.3444 -0.58399,0.35938 -0.35937,0.02995 -0.66259,0.17595 -0.90966,0.43799 -0.24707,0.26205 -0.37061,0.56527 -0.37061,0.90967 0,0.02995 0.00374,0.05241 0.01123,0.06738 0.00749,0.01498 0.01123,0.02995 0.01123,0.04492 0,0.38933 0.04492,0.7487 0.13477,1.07813 0.08984,0.32943 0.08235,0.6289 -0.02246,0.89844 -0.1198,0.26953 -0.26205,0.67008 -0.42676,1.20166 -0.16472,0.53157 -0.0599,0.9471 0.31445,1.24658 0,0 0,0.19466 0,0.58398 0,0.37435 0.01872,0.79362 0.05615,1.25782 0.03744,0.46419 0.09359,0.89095 0.16846,1.280269 0.0599,0.389323 0.15723,0.591471 0.29199,0.606445 0.56901,0.014974 0.96957,0.022461 1.20166,0.022461 0.2321,0 0.34815,0 0.34815,0 0,0 0.02995,-0.063639 0.08984,-0.190918 C 5.60775,-0.677572 5.50293,-0.838542 5.2334,-1.0332 4.94889,-1.22786 4.8029,-1.59847 4.79541,-2.14502 4.78792,-2.69157 4.84408,-3.24186 4.96387,-3.7959 c 0.02995,0 0.05241,0.00375 0.06738,0.01123 0.01497,0.00749 0.03743,0.01123 0.06738,0.01123 0.01498,0 0.03369,-0.00374 0.05616,-0.01123 C 5.17725,-3.79215 5.20345,-3.7959 5.2334,-3.7959 h 0.04492 c 0.17969,0.85352 0.44173,1.63965 0.78613,2.3584 0.3444,0.71875 0.5765,1.078125 0.69629,1.078125 0.86849,0 1.41504,0 1.63965,0 0.22461,0 0.33691,-0.059896 0.33691,-0.179688 0,-0.179687 -0.12353,-0.310709 -0.3706,-0.393066 C 8.11963,-1.01449 7.92871,-1.08561 7.79395,-1.14551 7.56934,-1.28027 7.38216,-1.49365 7.23242,-1.78564 7.08268,-2.07764 6.94043,-2.56055 6.80566,-3.23438 6.79069,-3.30924 6.7832,-3.39535 6.7832,-3.49268 c 0,-0.09733 0,-0.19091 0,-0.28076 0,-0.35937 0.01872,-0.71875 0.05616,-1.07812 0.03743,-0.35938 0.09358,-0.71127 0.16845,-1.05567 l -0.02246,0.06739 c 0.02995,-0.0599 0.0599,-0.1198 0.08985,-0.17969 0.02994,-0.0599 0.0524,-0.12728 0.06738,-0.20215 0.49414,0.29948 1.02946,0.53158 1.60596,0.69629 0.57649,0.16471 1.17919,0.24707 1.80806,0.24707 0.0749,0 0.1535,0 0.2359,0 0.0823,0 0.161,0 0.2358,0 h -0.0224 c 0.1647,0.88346 0.2096,1.78564 0.1347,2.70654 -0.0748,0.9209 -0.0374,1.576012 0.1123,1.965335 0.0599,0.194661 0.5878,0.280761 1.5835,0.2583 0.9958,-0.02246 1.4937,-0.093587 1.4937,-0.213378 0,-0.179688 -0.131,-0.306967 -0.3931,-0.381836 C 13.675,-1.01823 13.4915,-1.0931 13.3867,-1.16797 13.1322,-1.3776 12.9824,-1.62842 12.9375,-1.92041 12.8926,-2.2124 12.8851,-2.7028 12.915,-3.3916 c 0.03,-0.38932 0.0861,-0.77116 0.1685,-1.14551 0.0824,-0.37435 0.1909,-0.72624 0.3257,-1.05566 l -0.0225,0.04492 c 0.2995,-0.0599 0.5578,-0.17969 0.7749,-0.35938 0.2171,-0.17968 0.3856,-0.39681 0.5054,-0.65136 l 0.0225,-0.02246 c 0.4791,0 0.9283,-0.07487 1.3476,-0.22461 0.4193,-0.14974 0.8086,-0.35189 1.168,-0.60645 h -0.0225 c 0.599,-0.38932 0.9958,-0.91715 1.1904,-1.5835 0.1947,-0.66634 0.2546,-1.35889 0.1797,-2.07759 0.1049,-0.4043 0.423,-0.6477 0.9546,-0.73 0.5316,-0.0824 0.7974,-0.3107 0.7974,-0.6851 0,-0.1497 -0.0262,-0.262 -0.0786,-0.3369 -0.0524,-0.0749 -0.1385,-0.1647 -0.2583,-0.2695"
         id="path26"
         inkscape:connector-curvature="0"
         style="vector-effect:none;fill-rule:nonzero" />
    </g>
    <g
       transform="matrix(1.33333,0,0,1.33333,16,16)"
       font-size="8.25"
       font-weight="400"
       font-style="normal"
       id="g30"
       style="font-style:normal;font-weight:400;font-size:8.25px;font-family:'MS Shell Dlg 2';fill:none;stroke:#000000;stroke-width:1;stroke-linecap:square;stroke-linejoin:bevel;stroke-opacity:1" />
    <g
       transform="translate(16,16)"
       font-size="8.25"
       font-weight="400"
       font-style="normal"
       id="g32"
       style="font-style:normal;font-weight:400;font-size:8.25px;font-family:'MS Shell Dlg 2';fill:none;stroke:#000000;stroke-width:1;stroke-linecap:square;stroke-linejoin:bevel;stroke-opacity:1" />
    <g
       font-size="8.25"
       font-weight="400"
       font-style="normal"
       id="g34"
       style="font-style:normal;font-weight:400;font-size:8.25px;font-family:'MS Shell Dlg 2';fill:none;stroke:#000000;stroke-width:1;stroke-linecap:square;stroke-linejoin:bevel;stroke-opacity:1" />
  </g>
</svg>
