<?xml version="1.0" encoding="UTF-8" standalone="no"?>
<svg
   xmlns:dc="http://purl.org/dc/elements/1.1/"
   xmlns:cc="http://creativecommons.org/ns#"
   xmlns:rdf="http://www.w3.org/1999/02/22-rdf-syntax-ns#"
   xmlns:svg="http://www.w3.org/2000/svg"
   xmlns="http://www.w3.org/2000/svg"
   xmlns:sodipodi="http://sodipodi.sourceforge.net/DTD/sodipodi-0.dtd"
   xmlns:inkscape="http://www.inkscape.org/namespaces/inkscape"
   width="20"
   height="20"
   viewBox="0 0 20 20"
   version="1.2"
   id="svg38"
   sodipodi:docname="60202020432.svg"
   inkscape:version="0.92.4 (5da689c313, 2019-01-14)">
  <metadata
     id="metadata42">
    <rdf:RDF>
      <cc:Work
         rdf:about="">
        <dc:format>image/svg+xml</dc:format>
        <dc:type
           rdf:resource="http://purl.org/dc/dcmitype/StillImage" />
      </cc:Work>
    </rdf:RDF>
  </metadata>
  <sodipodi:namedview
     pagecolor="#ffffff"
     bordercolor="#666666"
     borderopacity="1"
     objecttolerance="10"
     gridtolerance="10"
     guidetolerance="10"
     inkscape:pageopacity="0"
     inkscape:pageshadow="2"
     inkscape:window-width="1920"
     inkscape:window-height="1017"
     id="namedview40"
     showgrid="false"
     inkscape:zoom="11.8"
     inkscape:cx="-5.2542373"
     inkscape:cy="10"
     inkscape:window-x="-8"
     inkscape:window-y="-8"
     inkscape:window-maximized="1"
     inkscape:current-layer="svg38" />
  <title
     id="title2">Qt SVG Document</title>
  <desc
     id="desc4">Generated with Qt</desc>
  <defs
     id="defs6" />
  <g
     id="g36"
     transform="matrix(0.65217391,0,0,0.65217391,-0.43478256,-0.43478256)"
     style="fill:none;fill-rule:evenodd;stroke:#000000;stroke-width:1;stroke-linecap:square;stroke-linejoin:bevel">
    <g
       transform="translate(16,16)"
       font-size="8.25"
       font-weight="400"
       font-style="normal"
       id="g8"
       style="font-style:normal;font-weight:400;font-size:8.25px;font-family:'MS Shell Dlg 2';fill:none;stroke:#000000;stroke-width:1;stroke-linecap:square;stroke-linejoin:bevel;stroke-opacity:1" />
    <g
       transform="matrix(1.33333,0,0,1.33333,16,16)"
       font-size="8.25"
       font-weight="400"
       font-style="normal"
       id="g10"
       style="font-style:normal;font-weight:400;font-size:8.25px;font-family:'MS Shell Dlg 2';fill:none;stroke:#000000;stroke-width:1;stroke-linecap:square;stroke-linejoin:bevel;stroke-opacity:1" />
    <g
       transform="translate(4.5,23.1875)"
       font-size="17.0078"
       font-weight="400"
       font-style="normal"
       id="g14"
       style="font-style:normal;font-weight:400;font-size:17.00779915px;font-family:icomoon;fill:#ff0000;fill-opacity:1;stroke:none">
      <path
         d="M 2.02148,-18.6875 H 20.9785 c 0.5541,0 1.0295,0.1984 1.4263,0.5952 C 22.8016,-17.6955 23,-17.2201 23,-16.666 V 2.29102 C 23,2.84505 22.8016,3.32048 22.4048,3.71729 22.008,4.1141 21.5326,4.3125 20.9785,4.3125 H 2.02148 C 1.46745,4.3125 0.992025,4.1141 0.595215,3.71729 0.198405,3.32048 0,2.84505 0,2.29102 V -16.666 c 0,-0.5541 0.198405,-1.0295 0.595215,-1.4263 0.39681,-0.3968 0.872235,-0.5952 1.426265,-0.5952"
         id="path12"
         inkscape:connector-curvature="0"
         style="vector-effect:none;fill-rule:nonzero" />
    </g>
    <g
       transform="matrix(1.33333,0,0,1.33333,16,16)"
       font-size="8.25"
       font-weight="400"
       font-style="normal"
       id="g16"
       style="font-style:normal;font-weight:400;font-size:8.25px;font-family:'MS Shell Dlg 2';fill:none;stroke:#000000;stroke-width:1;stroke-linecap:square;stroke-linejoin:bevel;stroke-opacity:1" />
    <g
       transform="translate(16,16)"
       font-size="8.25"
       font-weight="400"
       font-style="normal"
       id="g18"
       style="font-style:normal;font-weight:400;font-size:8.25px;font-family:'MS Shell Dlg 2';fill:none;stroke:#000000;stroke-width:1;stroke-linecap:square;stroke-linejoin:bevel;stroke-opacity:1" />
    <g
       font-size="8.25"
       font-weight="400"
       font-style="normal"
       id="g20"
       style="font-style:normal;font-weight:400;font-size:8.25px;font-family:'MS Shell Dlg 2';fill:none;stroke:#000000;stroke-width:1;stroke-linecap:square;stroke-linejoin:bevel;stroke-opacity:1" />
    <g
       transform="translate(16,16)"
       font-size="8.25"
       font-weight="400"
       font-style="normal"
       id="g22"
       style="font-style:normal;font-weight:400;font-size:8.25px;font-family:'MS Shell Dlg 2';fill:none;stroke:#000000;stroke-width:1;stroke-linecap:square;stroke-linejoin:bevel;stroke-opacity:1" />
    <g
       transform="matrix(1.33333,0,0,1.33333,16,16)"
       font-size="8.25"
       font-weight="400"
       font-style="normal"
       id="g24"
       style="font-style:normal;font-weight:400;font-size:8.25px;font-family:'MS Shell Dlg 2';fill:none;stroke:#000000;stroke-width:1;stroke-linecap:square;stroke-linejoin:bevel;stroke-opacity:1" />
    <g
       transform="translate(4.5,23.1875)"
       font-size="17.0078"
       font-weight="400"
       font-style="normal"
       id="g28"
       style="font-style:normal;font-weight:400;font-size:17.00779915px;font-family:icomoon;fill:#000000;fill-opacity:1;stroke:none">
      <path
         d="m 20.9785,-18.0137 c 0.3744,0 0.6926,0.1311 0.9546,0.3931 0.262,0.262 0.3931,0.5802 0.3931,0.9546 V 2.29102 c 0,0.37434 -0.1311,0.69254 -0.3931,0.95459 -0.262,0.26204 -0.5802,0.39306 -0.9546,0.39306 H 2.02148 C 1.64714,3.63867 1.32894,3.50765 1.06689,3.24561 0.80485,2.98356 0.673828,2.66536 0.673828,2.29102 V -16.666 c 0,-0.3744 0.131022,-0.6926 0.393062,-0.9546 0.26205,-0.262 0.58025,-0.3931 0.95459,-0.3931 H 20.9785 m 0,-0.6738 H 2.02148 c -0.55403,0 -1.029455,0.1984 -1.426265,0.5952 C 0.198405,-17.6955 0,-17.2201 0,-16.666 V 2.29102 C 0,2.84505 0.198405,3.32048 0.595215,3.71729 0.992025,4.1141 1.46745,4.3125 2.02148,4.3125 H 20.9785 c 0.5541,0 1.0295,-0.1984 1.4263,-0.59521 C 22.8016,3.32048 23,2.84505 23,2.29102 V -16.666 c 0,-0.5541 -0.1984,-1.0295 -0.5952,-1.4263 -0.3968,-0.3968 -0.8722,-0.5952 -1.4263,-0.5952 M 19.3613,-5.30078 C 19.2415,-5.45052 19.1442,-5.61523 19.0693,-5.79492 18.9945,-5.97461 18.957,-6.16178 18.957,-6.35645 v -0.02246 c 0,-0.43424 -0.1422,-0.72623 -0.4267,-0.87597 -0.2845,-0.14974 -0.599,-0.26953 -0.9434,-0.35938 l -0.1797,-0.04492 c -0.3294,-0.10482 -0.5091,-0.35189 -0.539,-0.74121 -0.03,-0.38932 -0.045,-0.58399 -0.045,-0.58399 v -1.81932 c 0,0 0,-0.0674 0,-0.2022 0,-0.1347 0.045,-0.2395 0.1348,-0.3144 0.03,-0.03 0.0636,-0.0487 0.1011,-0.0562 0.0374,-0.0075 0.0786,-0.0112 0.1235,-0.0112 0.015,0 0.0337,0 0.0562,0 0.0224,0 0.0486,0.0075 0.0786,0.0225 0.2995,0.0748 0.5877,0.277 0.8647,0.6064 0.277,0.3294 0.5428,0.5241 0.7974,0.584 0.2096,-0.03 0.3818,-0.1273 0.5166,-0.292 0.1348,-0.1647 0.2021,-0.3594 0.2021,-0.584 0,-0.015 0,-0.0337 0,-0.0561 0,-0.0225 0,-0.0412 0,-0.0562 v 0.0225 c -0.2246,-0.7487 -0.4604,-1.4488 -0.7075,-2.1001 -0.247,-0.6514 -0.5128,-1.2766 -0.7973,-1.8755 l 0.0673,0.1572 c -0.0599,-0.0599 -0.1085,-0.1273 -0.146,-0.2021 -0.0374,-0.0749 -0.0561,-0.1573 -0.0561,-0.2471 0,-0.0449 0.0037,-0.0861 0.0112,-0.1235 0.0075,-0.0375 0.0187,-0.0787 0.0337,-0.1236 v 0.0225 c 0,-0.0449 0,-0.0824 0,-0.1123 0,-0.03 0,-0.0449 0,-0.0449 -0.1048,-0.0899 -0.3893,-0.0113 -0.8535,0.2358 -0.4642,0.2471 -0.8011,0.453 -1.0107,0.6177 -0.584,0.4791 -1.1268,0.9883 -1.6285,1.5273 -0.5016,0.5391 -0.962,1.1156 -1.3813,1.7295 l -0.0449,0.0449 c -0.6888,0.9134 -1.43,1.2279 -2.2237,0.9434 -0.7936,-0.2845 -1.50485,-0.4642 -2.13375,-0.5391 -0.95833,-0.1198 -1.89421,0.0562 -2.80762,0.5279 -0.91341,0.4716 -1.48991,1.0444 -1.72949,1.71822 -0.11979,0.32943 -0.23584,0.75619 -0.34815,1.28028 -0.1123,0.52409 -0.20589,0.91341 -0.28076,1.16797 -0.13476,0.46419 -0.27327,0.87223 -0.41552,1.22412 -0.14226,0.35189 -0.09359,1.09684 0.14599,2.23486 0.07487,0.4043 0.23958,0.58773 0.49414,0.55029 0.25456,-0.03743 0.28451,0.07113 0.08985,0.32569 0,0.01497 0,0.02995 0,0.04492 0,0.01497 0,0.02995 0,0.04492 0,0.28451 0.02994,0.55404 0.08984,0.8086 0.0599,0.25455 0.14974,0.501623 0.26953,0.741207 L 4.3125,-0.583984 c 0.13477,0.044921 0.27327,0.082356 0.41553,0.112304 0.14225,0.029948 0.28825,0.044922 0.43799,0.044922 0.14974,0 0.29573,-0.014974 0.43798,-0.044922 0.14226,-0.029948 0.28077,-0.067383 0.41553,-0.112304 H 5.99707 c 0.02995,-0.029948 0.05241,-0.059896 0.06738,-0.089844 0.01498,-0.029948 0.02246,-0.067383 0.02246,-0.112305 0,0 0,-0.003743 0,-0.01123 0,-0.007487 -0.00748,-0.018718 -0.02246,-0.033692 C 6.03451,-0.920898 5.98958,-1.007 5.92969,-1.08936 5.86979,-1.17171 5.79492,-1.23535 5.70508,-1.28027 5.61523,-1.3252 5.49544,-1.40755 5.3457,-1.52734 5.19596,-1.64714 5.24837,-2.06641 5.50293,-2.78516 5.5778,-3.02474 5.81364,-3.44401 6.21045,-4.04297 c 0.39681,-0.59896 0.9471,-0.86849 1.65088,-0.80859 0.10482,0 0.18343,0.05615 0.23584,0.16845 0.05241,0.11231 0.06364,0.25831 0.03369,0.43799 -0.07487,0.53907 0.17594,0.97705 0.75244,1.31397 0.5765,0.33691 0.87223,0.51286 0.88721,0.52783 0.22461,0.08984 0.28079,0.3182 0.16845,0.68506 -0.1123,0.36686 -0.16845,0.55029 -0.16845,0.55029 0,0 0.0262,0.03369 0.07861,0.10108 0.05241,0.067378 0.27328,0.10107 0.66258,0.10107 0,0 0.0038,0 0.0112,0 0.0075,0 0.0113,0 0.0113,0 0.2096,0 0.393,-0.07113 0.5503,-0.21338 0.1572,-0.14225 0.2433,-0.3182 0.2583,-0.52783 -0.03,-0.3444 -0.1273,-0.65886 -0.292,-0.94336 C 10.8861,-2.9349 10.6839,-3.18197 10.4443,-3.3916 H 10.4219 C 10.0326,-3.736 9.83789,-3.99805 9.83789,-4.17773 c 0,-0.17969 0,-0.30697 0,-0.38184 0.13477,-0.07487 0.26201,-0.16471 0.38181,-0.26953 0.1198,-0.10482 0.2321,-0.20964 0.3369,-0.31445 v -0.02247 c 0.1797,-0.23958 0.4118,-0.43424 0.6963,-0.58398 0.2845,-0.14974 0.5915,-0.22461 0.9209,-0.22461 0.03,-0.01497 0.0637,-0.02246 0.1011,-0.02246 0.0374,0 0.0711,0 0.1011,0 0.2995,0 0.584,0.0599 0.8535,0.17969 0.2695,0.11979 0.5091,0.27702 0.7187,0.47168 0.1198,0.2845 0.2134,0.59147 0.2808,0.9209 0.0674,0.32942 0.1011,0.67382 0.1011,1.0332 0,0.19466 -0.0113,0.39306 -0.0337,0.59521 -0.0225,0.20215 -0.0562,0.39307 -0.1011,0.57276 v -0.02246 c -0.0299,0.11979 -0.0561,0.24332 -0.0786,0.3706 -0.0225,0.12728 -0.0337,0.2583 -0.0337,0.39307 0,0.14974 0.0112,0.29199 0.0337,0.42676 0.0225,0.134762 0.0562,0.26204 0.1011,0.381832 l -0.0225,-0.022461 c 0.2096,0.029948 0.4305,0.056152 0.6626,0.078613 0.2321,0.022461 0.4754,0.033692 0.73,0.033692 h 0.0225 c 0.1048,0 0.1984,-0.003744 0.2807,-0.011231 0.0824,-0.007487 0.131,-0.026204 0.146,-0.056152 0.0449,-0.209636 -0.0037,-0.374353 -0.146,-0.494143 -0.1422,-0.11979 -0.2658,-0.27702 -0.3706,-0.47168 -0.0449,-0.17969 -0.0786,-0.36686 -0.1011,-0.56152 -0.0224,-0.19466 -0.0337,-0.38932 -0.0337,-0.58399 0,-0.32942 0.03,-0.65511 0.0899,-0.97705 0.0599,-0.32194 0.1422,-0.62516 0.2471,-0.90966 v 0.02246 c 0.1197,-0.26953 0.2695,-0.5166 0.4492,-0.74121 0.1797,-0.22461 0.3818,-0.42676 0.6064,-0.60645 0.0899,-0.01497 0.1797,-0.0262 0.2696,-0.03369 0.0898,-0.00749 0.1796,-0.01123 0.2695,-0.01123 0.015,0 0.0337,-0.00374 0.0561,-0.01123 0.0225,-0.00749 0.0487,-0.01123 0.0786,-0.01123 0.1198,0 0.2321,0.02246 0.337,0.06738 0.1048,0.04492 0.2021,0.10482 0.292,0.17969 0.1048,0.14974 0.1834,0.31445 0.2358,0.49414 0.0524,0.17969 0.0786,0.36686 0.0786,0.56152 0,0.02995 0,0.05615 0,0.07862 0,0.02246 0,0.04866 0,0.07861 -0.0299,0.19466 -0.1235,0.26953 -0.2808,0.22461 -0.1572,-0.04492 -0.2433,-0.06738 -0.2583,-0.06738 l 0.3594,1.34765 c 0.1647,0 0.3294,-0.00749 0.4942,-0.02246 0.1647,-0.01497 0.3219,-0.03743 0.4716,-0.06738 h -0.0224 c 0.3444,-0.13477 0.4904,-0.47917 0.438,-1.03321 -0.0524,-0.55403 -0.1311,-0.92089 -0.2359,-1.10058 M 4.96387,-5.54785 C 4.94889,-5.62272 4.93766,-5.70133 4.93018,-5.78369 4.92269,-5.86605 4.91895,-5.94466 4.91895,-6.01953 c 0,-0.25456 0.03743,-0.4904 0.1123,-0.70752 0.07487,-0.21712 0.18717,-0.40804 0.33691,-0.57275 0,0 0.06364,0.05615 0.19092,0.16845 0.12728,0.11231 0.146,0.39307 0.05615,0.84229 -0.08984,0.44922 -0.20963,0.68131 -0.35937,0.69629 -0.14974,0.01497 -0.24707,0.02994 -0.29199,0.04492"
         id="path26"
         inkscape:connector-curvature="0"
         style="vector-effect:none;fill-rule:nonzero" />
    </g>
    <g
       transform="matrix(1.33333,0,0,1.33333,16,16)"
       font-size="8.25"
       font-weight="400"
       font-style="normal"
       id="g30"
       style="font-style:normal;font-weight:400;font-size:8.25px;font-family:'MS Shell Dlg 2';fill:none;stroke:#000000;stroke-width:1;stroke-linecap:square;stroke-linejoin:bevel;stroke-opacity:1" />
    <g
       transform="translate(16,16)"
       font-size="8.25"
       font-weight="400"
       font-style="normal"
       id="g32"
       style="font-style:normal;font-weight:400;font-size:8.25px;font-family:'MS Shell Dlg 2';fill:none;stroke:#000000;stroke-width:1;stroke-linecap:square;stroke-linejoin:bevel;stroke-opacity:1" />
    <g
       font-size="8.25"
       font-weight="400"
       font-style="normal"
       id="g34"
       style="font-style:normal;font-weight:400;font-size:8.25px;font-family:'MS Shell Dlg 2';fill:none;stroke:#000000;stroke-width:1;stroke-linecap:square;stroke-linejoin:bevel;stroke-opacity:1" />
  </g>
</svg>
