<?xml version="1.0" encoding="UTF-8" standalone="no"?>
<svg
   xmlns:dc="http://purl.org/dc/elements/1.1/"
   xmlns:cc="http://creativecommons.org/ns#"
   xmlns:rdf="http://www.w3.org/1999/02/22-rdf-syntax-ns#"
   xmlns:svg="http://www.w3.org/2000/svg"
   xmlns="http://www.w3.org/2000/svg"
   xmlns:sodipodi="http://sodipodi.sourceforge.net/DTD/sodipodi-0.dtd"
   xmlns:inkscape="http://www.inkscape.org/namespaces/inkscape"
   width="20"
   height="20"
   viewBox="0 0 20 20"
   version="1.2"
   id="svg38"
   sodipodi:docname="60202021232.svg"
   inkscape:version="0.92.4 (5da689c313, 2019-01-14)">
  <metadata
     id="metadata42">
    <rdf:RDF>
      <cc:Work
         rdf:about="">
        <dc:format>image/svg+xml</dc:format>
        <dc:type
           rdf:resource="http://purl.org/dc/dcmitype/StillImage" />
      </cc:Work>
    </rdf:RDF>
  </metadata>
  <sodipodi:namedview
     pagecolor="#ffffff"
     bordercolor="#666666"
     borderopacity="1"
     objecttolerance="10"
     gridtolerance="10"
     guidetolerance="10"
     inkscape:pageopacity="0"
     inkscape:pageshadow="2"
     inkscape:window-width="1920"
     inkscape:window-height="1017"
     id="namedview40"
     showgrid="false"
     inkscape:zoom="11.8"
     inkscape:cx="-5.2542373"
     inkscape:cy="10"
     inkscape:window-x="-8"
     inkscape:window-y="-8"
     inkscape:window-maximized="1"
     inkscape:current-layer="svg38" />
  <title
     id="title2">Qt SVG Document</title>
  <desc
     id="desc4">Generated with Qt</desc>
  <defs
     id="defs6" />
  <g
     id="g36"
     transform="matrix(0.65217391,0,0,0.65217391,-0.43478256,-0.43478256)"
     style="fill:none;fill-rule:evenodd;stroke:#000000;stroke-width:1;stroke-linecap:square;stroke-linejoin:bevel">
    <g
       transform="translate(16,16)"
       font-size="8.25"
       font-weight="400"
       font-style="normal"
       id="g8"
       style="font-style:normal;font-weight:400;font-size:8.25px;font-family:'MS Shell Dlg 2';fill:none;stroke:#000000;stroke-width:1;stroke-linecap:square;stroke-linejoin:bevel;stroke-opacity:1" />
    <g
       transform="matrix(1.33333,0,0,1.33333,16,16)"
       font-size="8.25"
       font-weight="400"
       font-style="normal"
       id="g10"
       style="font-style:normal;font-weight:400;font-size:8.25px;font-family:'MS Shell Dlg 2';fill:none;stroke:#000000;stroke-width:1;stroke-linecap:square;stroke-linejoin:bevel;stroke-opacity:1" />
    <g
       transform="translate(4.5,23.1875)"
       font-size="17.0078"
       font-weight="400"
       font-style="normal"
       id="g14"
       style="font-style:normal;font-weight:400;font-size:17.00779915px;font-family:icomoon;fill:#ff0000;fill-opacity:1;stroke:none">
      <path
         d="M 2.02148,-18.6875 H 20.9785 c 0.5541,0 1.0295,0.1984 1.4263,0.5952 C 22.8016,-17.6955 23,-17.2201 23,-16.666 V 2.29102 C 23,2.84505 22.8016,3.32048 22.4048,3.71729 22.008,4.1141 21.5326,4.3125 20.9785,4.3125 H 2.02148 C 1.46745,4.3125 0.992025,4.1141 0.595215,3.71729 0.198405,3.32048 0,2.84505 0,2.29102 V -16.666 c 0,-0.5541 0.198405,-1.0295 0.595215,-1.4263 0.39681,-0.3968 0.872235,-0.5952 1.426265,-0.5952"
         id="path12"
         inkscape:connector-curvature="0"
         style="vector-effect:none;fill-rule:nonzero" />
    </g>
    <g
       transform="matrix(1.33333,0,0,1.33333,16,16)"
       font-size="8.25"
       font-weight="400"
       font-style="normal"
       id="g16"
       style="font-style:normal;font-weight:400;font-size:8.25px;font-family:'MS Shell Dlg 2';fill:none;stroke:#000000;stroke-width:1;stroke-linecap:square;stroke-linejoin:bevel;stroke-opacity:1" />
    <g
       transform="translate(16,16)"
       font-size="8.25"
       font-weight="400"
       font-style="normal"
       id="g18"
       style="font-style:normal;font-weight:400;font-size:8.25px;font-family:'MS Shell Dlg 2';fill:none;stroke:#000000;stroke-width:1;stroke-linecap:square;stroke-linejoin:bevel;stroke-opacity:1" />
    <g
       font-size="8.25"
       font-weight="400"
       font-style="normal"
       id="g20"
       style="font-style:normal;font-weight:400;font-size:8.25px;font-family:'MS Shell Dlg 2';fill:none;stroke:#000000;stroke-width:1;stroke-linecap:square;stroke-linejoin:bevel;stroke-opacity:1" />
    <g
       transform="translate(16,16)"
       font-size="8.25"
       font-weight="400"
       font-style="normal"
       id="g22"
       style="font-style:normal;font-weight:400;font-size:8.25px;font-family:'MS Shell Dlg 2';fill:none;stroke:#000000;stroke-width:1;stroke-linecap:square;stroke-linejoin:bevel;stroke-opacity:1" />
    <g
       transform="matrix(1.33333,0,0,1.33333,16,16)"
       font-size="8.25"
       font-weight="400"
       font-style="normal"
       id="g24"
       style="font-style:normal;font-weight:400;font-size:8.25px;font-family:'MS Shell Dlg 2';fill:none;stroke:#000000;stroke-width:1;stroke-linecap:square;stroke-linejoin:bevel;stroke-opacity:1" />
    <g
       transform="translate(4.5,23.1875)"
       font-size="17.0078"
       font-weight="400"
       font-style="normal"
       id="g28"
       style="font-style:normal;font-weight:400;font-size:17.00779915px;font-family:icomoon;fill:#000000;fill-opacity:1;stroke:none">
      <path
         d="m 20.9785,-18.0137 c 0.3744,0 0.6926,0.1311 0.9546,0.3931 0.262,0.262 0.3931,0.5802 0.3931,0.9546 V 2.29102 c 0,0.37434 -0.1311,0.69254 -0.3931,0.95459 -0.262,0.26204 -0.5802,0.39306 -0.9546,0.39306 H 2.02148 C 1.64714,3.63867 1.32894,3.50765 1.06689,3.24561 0.80485,2.98356 0.673828,2.66536 0.673828,2.29102 V -16.666 c 0,-0.3744 0.131022,-0.6926 0.393062,-0.9546 0.26205,-0.262 0.58025,-0.3931 0.95459,-0.3931 H 20.9785 m 0,-0.6738 H 2.02148 c -0.55403,0 -1.029455,0.1984 -1.426265,0.5952 C 0.198405,-17.6955 0,-17.2201 0,-16.666 V 2.29102 C 0,2.84505 0.198405,3.32048 0.595215,3.71729 0.992025,4.1141 1.46745,4.3125 2.02148,4.3125 H 20.9785 c 0.5541,0 1.0295,-0.1984 1.4263,-0.59521 C 22.8016,3.32048 23,2.84505 23,2.29102 V -16.666 c 0,-0.5541 -0.1984,-1.0295 -0.5952,-1.4263 -0.3968,-0.3968 -0.8722,-0.5952 -1.4263,-0.5952 m -3.9306,13.43164 c 0,-0.94336 0.0299,-1.74821 0.0898,-2.41455 0.0599,-0.66634 0.0299,-1.31397 -0.0898,-1.94287 -0.015,-0.14974 -0.0412,-0.28825 -0.0787,-0.41552 -0.0374,-0.1273 -0.0786,-0.2508 -0.1235,-0.3706 v 0.0224 c 0,0 0,-0.0037 0,-0.0112 0,-0.0075 0,-0.0112 0,-0.0112 0,0 0,-0.0038 0,-0.0112 0,-0.0075 0,-0.0113 0,-0.0113 -0.015,-0.0299 -0.0337,-0.0561 -0.0561,-0.0786 -0.0225,-0.0224 -0.0487,-0.0487 -0.0787,-0.0786 -0.4043,-0.6738 -1.1043,-1.2354 -2.1001,-1.6846 -0.9957,-0.4492 -2.13,-0.6738 -3.4028,-0.6738 0,0 -0.0075,0 -0.0225,0 -0.0149,0 -0.0299,0 -0.0449,0 -0.3294,0 -0.6513,0.0112 -0.9658,0.0337 -0.31445,0.0225 -0.63639,0.0487 -0.96582,0.0786 h 0.08985 c -0.0599,-0.2096 -0.10482,-0.4305 -0.13477,-0.6626 -0.02995,-0.2321 -0.04492,-0.4754 -0.04492,-0.73 0,-0.0149 0,-0.0299 0,-0.0449 0,-0.015 0,-0.0299 0,-0.0449 0,-0.3294 -0.13102,-0.6476 -0.39307,-0.9546 -0.26204,-0.307 -0.89469,-0.408 -1.89794,-0.3032 -0.62891,0.0449 -1.16423,0.0898 -1.60596,0.1347 -0.44173,0.045 -0.6626,0.292 -0.6626,0.7412 0,0.3295 0.20589,0.6776 0.61768,1.0445 0.41178,0.3668 0.90966,0.5727 1.49365,0.6177 0.02995,0.0898 0.05615,0.1834 0.07861,0.2807 0.02246,0.0973 0.03369,0.1909 0.03369,0.2808 0,0.1048 -0.01123,0.2059 -0.03369,0.3032 -0.02246,0.0973 -0.04866,0.1909 -0.07861,0.2808 -0.28451,0.2545 -0.50912,0.5615 -0.67383,0.9209 -0.16471,0.3593 -0.24707,0.7412 -0.24707,1.14547 0,0.02995 0,0.06364 0,0.10107 0,0.03744 0,0.07113 0,0.10108 0.01497,0.4043 0.10856,0.78613 0.28076,1.14551 0.1722,0.35937 0.39307,0.67382 0.6626,0.94336 -0.22461,0.25455 -0.47917,0.47916 -0.76367,0.67382 -0.28451,0.19467 -0.59147,0.35189 -0.9209,0.47168 H 4.96387 c -0.4642,0.10482 -0.61394,0.38184 -0.44922,0.83106 0.16471,0.44922 0.58398,0.67383 1.25781,0.67383 0.80859,0 1.38509,-0.08236 1.72949,-0.24707 0.3444,-0.16472 0.59147,-0.3444 0.74121,-0.53907 0.41927,0.01498 0.81983,0.06364 1.20166,0.146 0.38184,0.08236 0.75248,0.19092 1.11178,0.32568 h -0.0449 c -0.4043,0.13477 -0.78611,0.26205 -1.14549,0.38184 -0.35937,0.11979 -0.53906,0.35189 -0.53906,0.69629 0,0.56901 0.38932,0.77864 1.16797,0.6289 0.77868,-0.14973 1.38508,-0.05989 1.81938,0.26954 0.4492,0.32942 1.0219,0.44921 1.7182,0.35937 0.6963,-0.08984 1.1493,-0.26953 1.3589,-0.53906 0.3145,0.02995 0.6289,0.10107 0.9434,0.21338 0.3144,0.1123 0.524,0.28076 0.6289,0.50537 0.1797,0.43424 0.1572,0.97331 -0.0674,1.61719 -0.2246,0.643876 -1.1455,1.1080689 -2.7627,1.392574 -0.5391,0.104818 -1.1343,0.198405 -1.7857,0.280762 -0.6513,0.082357 -1.3139,0.153483 -1.98775,0.213379 H 9.74805 C 10.347,0.96582 10.9834,1.06689 11.6572,1.13428 c 0.6739,0.06738 1.3627,0.10856 2.0664,0.12353 1.0332,0 2.0852,-0.24707 3.1558,-0.741208 1.0706,-0.4941411 1.6284,-1.317709 1.6733,-2.470702 0.045,-1.13802 -0.1946,-1.79688 -0.7187,-1.97656 -0.5241,-0.17969 -0.7861,-0.62142 -0.7861,-1.3252"
         id="path26"
         inkscape:connector-curvature="0"
         style="vector-effect:none;fill-rule:nonzero" />
    </g>
    <g
       transform="matrix(1.33333,0,0,1.33333,16,16)"
       font-size="8.25"
       font-weight="400"
       font-style="normal"
       id="g30"
       style="font-style:normal;font-weight:400;font-size:8.25px;font-family:'MS Shell Dlg 2';fill:none;stroke:#000000;stroke-width:1;stroke-linecap:square;stroke-linejoin:bevel;stroke-opacity:1" />
    <g
       transform="translate(16,16)"
       font-size="8.25"
       font-weight="400"
       font-style="normal"
       id="g32"
       style="font-style:normal;font-weight:400;font-size:8.25px;font-family:'MS Shell Dlg 2';fill:none;stroke:#000000;stroke-width:1;stroke-linecap:square;stroke-linejoin:bevel;stroke-opacity:1" />
    <g
       font-size="8.25"
       font-weight="400"
       font-style="normal"
       id="g34"
       style="font-style:normal;font-weight:400;font-size:8.25px;font-family:'MS Shell Dlg 2';fill:none;stroke:#000000;stroke-width:1;stroke-linecap:square;stroke-linejoin:bevel;stroke-opacity:1" />
  </g>
</svg>
