<?xml version="1.0" encoding="UTF-8" standalone="no"?>
<svg
   xmlns:dc="http://purl.org/dc/elements/1.1/"
   xmlns:cc="http://creativecommons.org/ns#"
   xmlns:rdf="http://www.w3.org/1999/02/22-rdf-syntax-ns#"
   xmlns:svg="http://www.w3.org/2000/svg"
   xmlns="http://www.w3.org/2000/svg"
   xmlns:sodipodi="http://sodipodi.sourceforge.net/DTD/sodipodi-0.dtd"
   xmlns:inkscape="http://www.inkscape.org/namespaces/inkscape"
   width="20"
   height="20"
   viewBox="0 0 20 20"
   version="1.2"
   id="svg52"
   sodipodi:docname="60202020234.svg"
   inkscape:version="0.92.4 (5da689c313, 2019-01-14)">
  <metadata
     id="metadata56">
    <rdf:RDF>
      <cc:Work
         rdf:about="">
        <dc:format>image/svg+xml</dc:format>
        <dc:type
           rdf:resource="http://purl.org/dc/dcmitype/StillImage" />
      </cc:Work>
    </rdf:RDF>
  </metadata>
  <sodipodi:namedview
     pagecolor="#ffffff"
     bordercolor="#666666"
     borderopacity="1"
     objecttolerance="10"
     gridtolerance="10"
     guidetolerance="10"
     inkscape:pageopacity="0"
     inkscape:pageshadow="2"
     inkscape:window-width="1920"
     inkscape:window-height="1017"
     id="namedview54"
     showgrid="false"
     inkscape:zoom="11.8"
     inkscape:cx="-5.2542373"
     inkscape:cy="10"
     inkscape:window-x="-8"
     inkscape:window-y="-8"
     inkscape:window-maximized="1"
     inkscape:current-layer="svg52" />
  <title
     id="title2">Qt SVG Document</title>
  <desc
     id="desc4">Generated with Qt</desc>
  <defs
     id="defs6" />
  <g
     id="g50"
     transform="matrix(0.65217391,0,0,0.65217391,-0.43478256,-0.43478256)"
     style="fill:none;fill-rule:evenodd;stroke:#000000;stroke-width:1;stroke-linecap:square;stroke-linejoin:bevel">
    <g
       transform="translate(16,16)"
       font-size="8.25"
       font-weight="400"
       font-style="normal"
       id="g8"
       style="font-style:normal;font-weight:400;font-size:8.25px;font-family:'MS Shell Dlg 2';fill:none;stroke:#000000;stroke-width:1;stroke-linecap:square;stroke-linejoin:bevel;stroke-opacity:1" />
    <g
       transform="matrix(1.33333,0,0,1.33333,16,16)"
       font-size="8.25"
       font-weight="400"
       font-style="normal"
       id="g10"
       style="font-style:normal;font-weight:400;font-size:8.25px;font-family:'MS Shell Dlg 2';fill:none;stroke:#000000;stroke-width:1;stroke-linecap:square;stroke-linejoin:bevel;stroke-opacity:1" />
    <g
       transform="translate(4.5,23.1875)"
       font-size="17.0078"
       font-weight="400"
       font-style="normal"
       id="g14"
       style="font-style:normal;font-weight:400;font-size:17.00779915px;font-family:icomoon;fill:#ffffff;fill-opacity:1;stroke:none">
      <path
         d="M 2.02148,-18.6875 H 20.9785 c 0.5541,0 1.0295,0.1984 1.4263,0.5952 C 22.8016,-17.6955 23,-17.2201 23,-16.666 V 2.29102 C 23,2.84505 22.8016,3.32048 22.4048,3.71729 22.008,4.1141 21.5326,4.3125 20.9785,4.3125 H 2.02148 C 1.46745,4.3125 0.992025,4.1141 0.595215,3.71729 0.198405,3.32048 0,2.84505 0,2.29102 V -16.666 c 0,-0.5541 0.198405,-1.0295 0.595215,-1.4263 0.39681,-0.3968 0.872235,-0.5952 1.426265,-0.5952"
         id="path12"
         inkscape:connector-curvature="0"
         style="vector-effect:none;fill-rule:nonzero" />
    </g>
    <g
       transform="matrix(1.33333,0,0,1.33333,16,16)"
       font-size="8.25"
       font-weight="400"
       font-style="normal"
       id="g16"
       style="font-style:normal;font-weight:400;font-size:8.25px;font-family:'MS Shell Dlg 2';fill:none;stroke:#000000;stroke-width:1;stroke-linecap:square;stroke-linejoin:bevel;stroke-opacity:1" />
    <g
       transform="translate(16,16)"
       font-size="8.25"
       font-weight="400"
       font-style="normal"
       id="g18"
       style="font-style:normal;font-weight:400;font-size:8.25px;font-family:'MS Shell Dlg 2';fill:none;stroke:#000000;stroke-width:1;stroke-linecap:square;stroke-linejoin:bevel;stroke-opacity:1" />
    <g
       font-size="8.25"
       font-weight="400"
       font-style="normal"
       id="g20"
       style="font-style:normal;font-weight:400;font-size:8.25px;font-family:'MS Shell Dlg 2';fill:none;stroke:#000000;stroke-width:1;stroke-linecap:square;stroke-linejoin:bevel;stroke-opacity:1" />
    <g
       transform="translate(16,16)"
       font-size="8.25"
       font-weight="400"
       font-style="normal"
       id="g22"
       style="font-style:normal;font-weight:400;font-size:8.25px;font-family:'MS Shell Dlg 2';fill:none;stroke:#000000;stroke-width:1;stroke-linecap:square;stroke-linejoin:bevel;stroke-opacity:1" />
    <g
       transform="matrix(1.33333,0,0,1.33333,16,16)"
       font-size="8.25"
       font-weight="400"
       font-style="normal"
       id="g24"
       style="font-style:normal;font-weight:400;font-size:8.25px;font-family:'MS Shell Dlg 2';fill:none;stroke:#000000;stroke-width:1;stroke-linecap:square;stroke-linejoin:bevel;stroke-opacity:1" />
    <g
       transform="translate(4.5,23.1875)"
       font-size="17.0078"
       font-weight="400"
       font-style="normal"
       id="g28"
       style="font-style:normal;font-weight:400;font-size:17.00779915px;font-family:icomoon;fill:#000000;fill-opacity:1;stroke:none">
      <path
         d="m 20.9785,-18.0137 c 0.3744,0 0.6926,0.1311 0.9546,0.3931 0.262,0.262 0.3931,0.5802 0.3931,0.9546 V 2.29102 c 0,0.37434 -0.1311,0.69254 -0.3931,0.95459 -0.262,0.26204 -0.5802,0.39306 -0.9546,0.39306 H 2.02148 C 1.64714,3.63867 1.32894,3.50765 1.06689,3.24561 0.80485,2.98356 0.673828,2.66536 0.673828,2.29102 V -16.666 c 0,-0.3744 0.131022,-0.6926 0.393062,-0.9546 0.26205,-0.262 0.58025,-0.3931 0.95459,-0.3931 H 20.9785 m 0,-0.6738 H 2.02148 c -0.55403,0 -1.029455,0.1984 -1.426265,0.5952 C 0.198405,-17.6955 0,-17.2201 0,-16.666 V 2.29102 C 0,2.84505 0.198405,3.32048 0.595215,3.71729 0.992025,4.1141 1.46745,4.3125 2.02148,4.3125 H 20.9785 c 0.5541,0 1.0295,-0.1984 1.4263,-0.59521 C 22.8016,3.32048 23,2.84505 23,2.29102 V -16.666 c 0,-0.5541 -0.1984,-1.0295 -0.5952,-1.4263 -0.3968,-0.3968 -0.8722,-0.5952 -1.4263,-0.5952 m -16.39647,6.6484 -1.88672,1.6397 c -0.01497,0.0299 -0.02995,0.0674 -0.04492,0.1123 -0.01497,0.0449 -0.02246,0.0898 -0.02246,0.1348 0,0.0149 0,0.0336 0,0.0561 0,0.0225 0,0.0412 0,0.0562 0.04492,0.10478 0.09359,0.2358 0.146,0.39303 0.0524,0.15722 0.1385,0.25081 0.2583,0.28076 0,0 0.00374,0 0.01123,0 0.00748,0 0.01123,0 0.01123,0 0.23958,0 0.47168,0.01123 0.69629,0.03369 0.22461,0.02246 0.44922,0.05615 0.67382,0.10107 L 4.37988,-9.25391 c 0.31446,0.1198 0.61019,0.24333 0.88721,0.37061 0.27702,0.12728 0.53532,0.26579 0.7749,0.41553 L 6.01953,-8.49023 c 0.04492,0.10481 0.26953,0.55403 0.67383,1.34765 0.4043,0.79362 0.64388,1.22787 0.71875,1.30274 0.07487,0.07487 0.2583,0.1984 0.55029,0.3706 0.29199,0.1722 0.44548,0.33317 0.46045,0.48291 0.01498,0.13477 0.05241,0.44548 0.11231,0.93213 0.05989,0.48665 0.08984,0.72998 0.08984,0.72998 l -0.89844,1.70703 -0.29199,0.17969 0.06738,0.24707 h 0.89844 l 0.20215,-0.17969 0.87598,-1.97656 0.31445,-0.17969 v 1.10059 l -0.67383,0.87598 0.06738,0.15722 h 1.01078 l 0.247,-0.4043 c 0,0 0.1086,-0.47542 0.3257,-1.42626 0.2171,-0.95085 0.3557,-1.4712 0.4155,-1.56104 0,0 0.0787,-0.10856 0.2359,-0.32568 0.1572,-0.21713 0.3032,-0.31071 0.438,-0.28077 0.1497,0.01498 0.5353,0.07113 1.1567,0.16846 0.6214,0.09733 0.9995,0.17595 1.1343,0.23584 0.2396,0.11979 0.4567,0.25082 0.6514,0.39307 0.1946,0.14225 0.3818,0.29573 0.5615,0.46045 0.1347,0.14974 0.2433,0.1984 0.3257,0.14599 0.0823,-0.05241 0.1609,-0.07861 0.2358,-0.07861 0.0749,0 0.1535,0.02246 0.2358,0.06738 0.0824,0.04492 0.1685,0.04492 0.2583,0 0.0899,-0.05989 0.1498,-0.11979 0.1797,-0.17968 0.03,-0.0599 0.0974,-0.08236 0.2022,-0.06739 0.0449,0.01498 0.0898,0.03369 0.1347,0.05616 0.045,0.02246 0.0899,0.04117 0.1348,0.05615 l -0.6738,1.9541 -0.9658,0.60644 0.0898,0.17969 h 1.0781 l 0.2696,-0.1123 0.4267,-0.62891 0.7637,-1.77441 h 0.3144 l 0.4493,1.10058 -0.876,1.50489 0.2471,0.1123 h 1.0107 l 0.2471,-0.22461 c 0,0 0.0524,-0.57275 0.1572,-1.71826 0.1048,-1.14551 0.1497,-1.76318 0.1348,-1.85303 -0.0599,-0.22461 -0.1123,-0.47542 -0.1573,-0.75244 -0.0449,-0.27702 -0.0823,-0.56527 -0.1123,-0.86475 L 19.4512,-6.6709 c 0.0299,-0.11979 0.1048,-0.47542 0.2246,-1.06689 0.1198,-0.59147 0.1797,-0.88721 0.1797,-0.88721 0,0 -0.015,0.18343 -0.045,0.55029 -0.0299,0.36686 -0.0374,0.6027 -0.0224,0.70752 0,0.10482 0.0374,0.31446 0.1123,0.62891 0.0749,0.31445 0.1797,0.50911 0.3144,0.58398 0.1348,0.07487 0.1984,-0.09358 0.191,-0.50537 -0.0075,-0.41178 -0.0113,-0.61767 -0.0113,-0.61767 0,0 -0.0374,-0.26579 -0.1123,-0.79737 -0.0748,-0.53157 -0.1123,-0.89469 -0.1123,-1.08935 0.015,-0.19466 -0.0374,-0.52409 -0.1572,-0.98824 -0.1198,-0.4642 -0.277,-0.7712 -0.4717,-0.9209 -0.1946,-0.1348 -0.4155,-0.3407 -0.6626,-0.6177 -0.2471,-0.277 -0.8722,-0.4155 -1.8755,-0.4155 -0.554,0 -1.2241,0.0823 -2.0102,0.247 -0.7862,0.1647 -1.606,0.2471 -2.4595,0.2471 -0.8984,0 -1.8081,-0.131 -2.729,-0.3931 -0.9209,-0.262 -1.868,-0.2283 -2.84131,0.1011 -0.07487,0.03 -0.16471,-0.0337 -0.26953,-0.1909 -0.10482,-0.1572 -0.15723,-0.2359 -0.15723,-0.2359 l 0.17969,-0.4492 c 0,-0.0299 0.00374,-0.0561 0.01123,-0.0786 0.00749,-0.0224 0.01123,-0.0487 0.01123,-0.0786 0,-0.0299 -0.00374,-0.0562 -0.01123,-0.0786 -0.00749,-0.0225 -0.01123,-0.0487 -0.01123,-0.0786 -0.02995,-0.0449 -0.08236,-0.0712 -0.15723,-0.0786 -0.07487,-0.0075 -0.1123,-0.0113 -0.1123,-0.0113 l -0.9209,0.584 c 0,0 -0.15348,-0.0936 -0.46045,-0.2807 -0.30696,-0.1872 -0.48291,-0.2808 -0.52783,-0.2808 -0.02995,0 -0.09359,-0.0112 -0.19092,-0.0337 -0.09733,-0.0225 -0.17594,-0.0112 -0.23584,0.0337 -0.07487,0.0599 -0.10107,0.1797 -0.07861,0.3594 0.02246,0.1797 0.03369,0.2695 0.03369,0.2695 l 0.5166,0.4941"
         id="path26"
         inkscape:connector-curvature="0"
         style="vector-effect:none;fill-rule:nonzero" />
    </g>
    <g
       transform="matrix(1.33333,0,0,1.33333,16,16)"
       font-size="8.25"
       font-weight="400"
       font-style="normal"
       id="g30"
       style="font-style:normal;font-weight:400;font-size:8.25px;font-family:'MS Shell Dlg 2';fill:none;stroke:#000000;stroke-width:1;stroke-linecap:square;stroke-linejoin:bevel;stroke-opacity:1" />
    <g
       transform="translate(16,16)"
       font-size="8.25"
       font-weight="400"
       font-style="normal"
       id="g32"
       style="font-style:normal;font-weight:400;font-size:8.25px;font-family:'MS Shell Dlg 2';fill:none;stroke:#000000;stroke-width:1;stroke-linecap:square;stroke-linejoin:bevel;stroke-opacity:1" />
    <g
       font-size="8.25"
       font-weight="400"
       font-style="normal"
       id="g34"
       style="font-style:normal;font-weight:400;font-size:8.25px;font-family:'MS Shell Dlg 2';fill:none;stroke:#000000;stroke-width:1;stroke-linecap:square;stroke-linejoin:bevel;stroke-opacity:1" />
    <g
       transform="translate(16,16)"
       font-size="8.25"
       font-weight="400"
       font-style="normal"
       id="g36"
       style="font-style:normal;font-weight:400;font-size:8.25px;font-family:'MS Shell Dlg 2';fill:none;stroke:#000000;stroke-width:1;stroke-linecap:square;stroke-linejoin:bevel;stroke-opacity:1" />
    <g
       transform="matrix(1.33333,0,0,1.33333,16,16)"
       font-size="8.25"
       font-weight="400"
       font-style="normal"
       id="g38"
       style="font-style:normal;font-weight:400;font-size:8.25px;font-family:'MS Shell Dlg 2';fill:none;stroke:#000000;stroke-width:1;stroke-linecap:square;stroke-linejoin:bevel;stroke-opacity:1" />
    <g
       transform="translate(5.5,22.5625)"
       font-size="15.874"
       font-weight="400"
       font-style="normal"
       id="g42"
       style="font-style:normal;font-weight:400;font-size:15.8739996px;font-family:icomoon;fill:#ff0000;fill-opacity:1;stroke:none">
      <path
         d="M 0.65625,3.9375 C 0.560547,3.9375 0.475098,3.92041 0.399902,3.88623 0.324707,3.85205 0.25293,3.80762 0.18457,3.75293 0.129883,3.68457 0.0854492,3.61279 0.0512695,3.5376 0.0170898,3.4624 0,3.37695 0,3.28125 0,3.18555 0.0170898,3.1001 0.0512695,3.0249 0.0854492,2.94971 0.129883,2.87793 0.18457,2.80957 L 19.8721,-16.8779 c 0.0683,-0.0547 0.1401,-0.0992 0.2153,-0.1333 0.0752,-0.0342 0.1606,-0.0513 0.2564,-0.0513 0.1777,0 0.3315,0.0649 0.4614,0.1948 0.1299,0.1299 0.1948,0.2837 0.1948,0.4614 0,0.0958 -0.0171,0.1812 -0.0513,0.2564 -0.0341,0.0752 -0.0786,0.147 -0.1333,0.2153 L 1.12793,3.75293 C 1.05957,3.80762 0.987793,3.85205 0.912598,3.88623 0.837402,3.92041 0.751953,3.9375 0.65625,3.9375"
         id="path40"
         inkscape:connector-curvature="0"
         style="vector-effect:none;fill-rule:nonzero" />
    </g>
    <g
       transform="matrix(1.33333,0,0,1.33333,16,16)"
       font-size="8.25"
       font-weight="400"
       font-style="normal"
       id="g44"
       style="font-style:normal;font-weight:400;font-size:8.25px;font-family:'MS Shell Dlg 2';fill:none;stroke:#000000;stroke-width:1;stroke-linecap:square;stroke-linejoin:bevel;stroke-opacity:1" />
    <g
       transform="translate(16,16)"
       font-size="8.25"
       font-weight="400"
       font-style="normal"
       id="g46"
       style="font-style:normal;font-weight:400;font-size:8.25px;font-family:'MS Shell Dlg 2';fill:none;stroke:#000000;stroke-width:1;stroke-linecap:square;stroke-linejoin:bevel;stroke-opacity:1" />
    <g
       font-size="8.25"
       font-weight="400"
       font-style="normal"
       id="g48"
       style="font-style:normal;font-weight:400;font-size:8.25px;font-family:'MS Shell Dlg 2';fill:none;stroke:#000000;stroke-width:1;stroke-linecap:square;stroke-linejoin:bevel;stroke-opacity:1" />
  </g>
</svg>
