<svg xmlns="http://www.w3.org/2000/svg" width="20" height="20" version="1.2">
    <g font-weight="400" style="fill:none;fill-rule:evenodd;stroke:#000;stroke-width:1;stroke-linecap:square;stroke-linejoin:bevel">
        <g style="font-style:normal;font-weight:400;font-size:19.84250069px;font-family:icomoon;fill:#ff0;fill-opacity:1;stroke:none">
            <path d="M2.285-21.125h21.43a2.2 2.2 0 0 1 1.612.673A2.2 2.2 0 0 1 26-18.84V2.59a2.2 2.2 0 0 1-.673 1.612 2.2 2.2 0 0 1-1.612.673H2.285a2.2 2.2 0 0 1-1.612-.673A2.2 2.2 0 0 1 0 2.59v-21.43a2.2 2.2 0 0 1 .673-1.612 2.2 2.2 0 0 1 1.612-.673" font-size="19.843" style="vector-effect:none;fill-rule:nonzero" transform="matrix(.6923 0 0 .6923 1 15.625)"/>
        </g>
        <g style="font-style:normal;font-weight:400;font-size:17.00779915px;font-family:icomoon;fill:#000;fill-opacity:1;stroke:none">
            <path d="M20.979-18.014a1.3 1.3 0 0 1 .954.393 1.3 1.3 0 0 1 .393.955V2.291a1.3 1.3 0 0 1-.393.955 1.3 1.3 0 0 1-.955.393H2.021a1.3 1.3 0 0 1-.954-.393 1.3 1.3 0 0 1-.393-.955v-18.957a1.3 1.3 0 0 1 .393-.955 1.3 1.3 0 0 1 .954-.393h18.957m0-.674H2.021c-.554 0-1.029.199-1.426.596A1.946 1.946 0 0 0 0-16.666V2.291c0 .554.198 1.03.595 1.426.397.397.872.595 1.426.595h18.957c.555 0 1.03-.198 1.427-.595.397-.397.595-.872.595-1.426v-18.957c0-.554-.198-1.03-.595-1.426a1.946 1.946 0 0 0-1.426-.596M10.825-3.302h-.674v-.674h.674v-.673h-.674v-.674h.674v-1.528c0-.18.068-.336.202-.471a.647.647 0 0 1 .472-.202c.18 0 .337.067.472.202a.647.647 0 0 1 .202.471v1.528h.674v.674h-.674v.673h.674v.674h-.674v2.291l.764-.718a32.58 32.58 0 0 0 1.64-1.73 19.942 19.942 0 0 0 1.639-2.111c.494-.734.726-1.355.696-1.865-.075-.27-.153-.52-.236-.752a5.86 5.86 0 0 0-.28-.663l.044.068-1.302 2.134a.622.622 0 0 1-.18.19.422.422 0 0 1-.247.08.885.885 0 0 0-.135-.035.346.346 0 0 1-.135-.056l.023.023a.531.531 0 0 1-.247-.45.63.63 0 0 1 .011-.123.354.354 0 0 1 .056-.124h-.022c.21-.27.408-.561.595-.876.187-.314.348-.636.483-.965l.022-.068c0-.045.004-.09.011-.135a.966.966 0 0 0 .012-.157c0-.224-.034-.441-.101-.651a2.336 2.336 0 0 0-.281-.584L13.589-8.49a.455.455 0 0 1-.191.202.532.532 0 0 1-.258.067.424.424 0 0 1-.135-.022.87.87 0 0 1-.112-.045.516.516 0 0 1-.18-.18.471.471 0 0 1-.067-.247c0-.045.003-.09.01-.135a.2.2 0 0 1 .057-.112c.15-.254.292-.52.427-.797.134-.277.254-.566.359-.865l.023-.067v-.045c0-.315-.034-.614-.102-.899a4.129 4.129 0 0 0-.28-.808v.022l-.46.966c-.308.644-.551 1.1-.73 1.37a.58.58 0 0 1-.158.146.374.374 0 0 1-.202.056h-.045a.423.423 0 0 1-.314-.135.638.638 0 0 1-.18-.235.768.768 0 0 1-.056-.438.398.398 0 0 1 .033-.113c.09-.27.217-.546.382-.83.165-.285.292-.562.382-.832 0-.224-.022-.442-.067-.651a4.043 4.043 0 0 0-.18-.607v.023l-.966.977c-.644.651-.996 1.202-1.056 1.65a7.9 7.9 0 0 0 .203 1.348c.104.435.232.854.381 1.258l-.022-.067c.015.03.026.06.034.09.007.03.01.067.01.112a.477.477 0 0 1-.1.292.48.48 0 0 1-.258.18h-.158a.463.463 0 0 1-.303-.101.718.718 0 0 1-.19-.236l-.765-2.381c-.224.105-.408.25-.55.438-.142.187-.236.4-.28.64-.046.374.12.887.494 1.539l.561.977c.015.03.03.063.045.1a.458.458 0 0 1-.056.393.56.56 0 0 1-.214.18c-.03.015-.063.03-.1.045a.276.276 0 0 1-.102.023h-.022a.69.69 0 0 1-.258-.101.581.581 0 0 1-.191-.191 10.722 10.722 0 0 1-.562-.921c-.18-.33-.344-.666-.494-1.01l-.045-.09-.213.258c-.143.172-.214.49-.214.954 0 .524.247 1.153.742 1.887.479.719 1.01 1.411 1.594 2.078a28.927 28.927 0 0 0 1.595 1.695l.741.697v-2.314m.674 5.975-9.86-9.86 9.86-9.838 9.86 9.837-9.86 9.86m-8.895-9.86L11.5 1.707l8.895-8.895-8.895-8.894-8.895 8.895" font-size="17.008" style="vector-effect:none;fill-rule:nonzero" transform="matrix(.6923 0 0 .6923 2.038 14.976)"/>
        </g>
        <g style="font-style:normal;font-weight:400;font-size:19.84250069px;font-family:icomoon;fill:#000;fill-opacity:1;stroke:none">
            <path d="M23.943-20.44c.373 0 .694.136.965.407.271.27.406.592.406.965V2.818c0 .373-.135.694-.406.965-.27.271-.592.406-.965.406H2.057c-.373 0-.694-.135-.965-.406a1.318 1.318 0 0 1-.406-.965v-21.886c0-.373.135-.694.406-.965.27-.271.592-.407.965-.407h21.886m0-.685H2.057c-.576 0-1.063.199-1.46.597A1.986 1.986 0 0 0 0-19.068V2.818c0 .576.199 1.063.597 1.46.397.398.884.597 1.46.597h21.886c.576 0 1.063-.199 1.46-.597.398-.397.597-.884.597-1.46v-21.886c0-.576-.199-1.063-.597-1.46a1.986 1.986 0 0 0-1.46-.597" font-size="19.843" style="vector-effect:none;fill-rule:nonzero" transform="matrix(.6923 0 0 .6923 1 15.625)"/>
        </g>
    </g>
</svg>
