<?xml version="1.0" encoding="UTF-8" standalone="no"?>
<svg
   xmlns:dc="http://purl.org/dc/elements/1.1/"
   xmlns:cc="http://creativecommons.org/ns#"
   xmlns:rdf="http://www.w3.org/1999/02/22-rdf-syntax-ns#"
   xmlns:svg="http://www.w3.org/2000/svg"
   xmlns="http://www.w3.org/2000/svg"
   xmlns:sodipodi="http://sodipodi.sourceforge.net/DTD/sodipodi-0.dtd"
   xmlns:inkscape="http://www.inkscape.org/namespaces/inkscape"
   width="20"
   height="20"
   viewBox="0 0 20 20"
   version="1.2"
   id="svg66"
   sodipodi:docname="60205020324.svg"
   inkscape:version="0.92.4 (5da689c313, 2019-01-14)">
  <metadata
     id="metadata70">
    <rdf:RDF>
      <cc:Work
         rdf:about="">
        <dc:format>image/svg+xml</dc:format>
        <dc:type
           rdf:resource="http://purl.org/dc/dcmitype/StillImage" />
      </cc:Work>
    </rdf:RDF>
  </metadata>
  <sodipodi:namedview
     pagecolor="#ffffff"
     bordercolor="#666666"
     borderopacity="1"
     objecttolerance="10"
     gridtolerance="10"
     guidetolerance="10"
     inkscape:pageopacity="0"
     inkscape:pageshadow="2"
     inkscape:window-width="751"
     inkscape:window-height="480"
     id="namedview68"
     showgrid="false"
     inkscape:zoom="11.8"
     inkscape:cx="10"
     inkscape:cy="10"
     inkscape:window-x="0"
     inkscape:window-y="0"
     inkscape:window-maximized="0"
     inkscape:current-layer="svg66" />
  <title
     id="title2">Qt SVG Document</title>
  <desc
     id="desc4">Generated with Qt</desc>
  <defs
     id="defs6" />
  <g
     id="g64"
     transform="matrix(0.69230769,0,0,0.69230769,-1.076923,-1.076923)"
     style="fill:none;fill-rule:evenodd;stroke:#000000;stroke-width:1;stroke-linecap:square;stroke-linejoin:bevel">
    <g
       transform="translate(16,16)"
       font-size="8.25"
       font-weight="400"
       font-style="normal"
       id="g8"
       style="font-style:normal;font-weight:400;font-size:8.25px;font-family:'MS Shell Dlg 2';fill:none;stroke:#000000;stroke-width:1;stroke-linecap:square;stroke-linejoin:bevel;stroke-opacity:1" />
    <g
       transform="matrix(1.33333,0,0,1.33333,16,16)"
       font-size="8.25"
       font-weight="400"
       font-style="normal"
       id="g10"
       style="font-style:normal;font-weight:400;font-size:8.25px;font-family:'MS Shell Dlg 2';fill:none;stroke:#000000;stroke-width:1;stroke-linecap:square;stroke-linejoin:bevel;stroke-opacity:1" />
    <g
       transform="translate(3,24.125)"
       font-size="19.8425"
       font-weight="400"
       font-style="normal"
       id="g14"
       style="font-style:normal;font-weight:400;font-size:19.84250069px;font-family:icomoon;fill:#ffffff;fill-opacity:1;stroke:none">
      <path
         d="M 2.28516,-21.125 H 23.7148 c 0.6263,0 1.1638,0.2243 1.6123,0.6729 0.4486,0.4485 0.6729,0.986 0.6729,1.6123 V 2.58984 C 26,3.21615 25.7757,3.75358 25.3271,4.20215 24.8786,4.65072 24.3411,4.875 23.7148,4.875 H 2.28516 C 1.65885,4.875 1.12142,4.65072 0.672852,4.20215 0.224284,3.75358 0,3.21615 0,2.58984 V -18.8398 c 0,-0.6263 0.224284,-1.1638 0.672852,-1.6123 0.448568,-0.4486 0.985998,-0.6729 1.612308,-0.6729"
         id="path12"
         inkscape:connector-curvature="0"
         style="vector-effect:none;fill-rule:nonzero" />
    </g>
    <g
       transform="matrix(1.33333,0,0,1.33333,16,16)"
       font-size="8.25"
       font-weight="400"
       font-style="normal"
       id="g16"
       style="font-style:normal;font-weight:400;font-size:8.25px;font-family:'MS Shell Dlg 2';fill:none;stroke:#000000;stroke-width:1;stroke-linecap:square;stroke-linejoin:bevel;stroke-opacity:1" />
    <g
       transform="translate(16,16)"
       font-size="8.25"
       font-weight="400"
       font-style="normal"
       id="g18"
       style="font-style:normal;font-weight:400;font-size:8.25px;font-family:'MS Shell Dlg 2';fill:none;stroke:#000000;stroke-width:1;stroke-linecap:square;stroke-linejoin:bevel;stroke-opacity:1" />
    <g
       font-size="8.25"
       font-weight="400"
       font-style="normal"
       id="g20"
       style="font-style:normal;font-weight:400;font-size:8.25px;font-family:'MS Shell Dlg 2';fill:none;stroke:#000000;stroke-width:1;stroke-linecap:square;stroke-linejoin:bevel;stroke-opacity:1" />
    <g
       transform="translate(16,16)"
       font-size="8.25"
       font-weight="400"
       font-style="normal"
       id="g22"
       style="font-style:normal;font-weight:400;font-size:8.25px;font-family:'MS Shell Dlg 2';fill:none;stroke:#000000;stroke-width:1;stroke-linecap:square;stroke-linejoin:bevel;stroke-opacity:1" />
    <g
       transform="matrix(1.33333,0,0,1.33333,16,16)"
       font-size="8.25"
       font-weight="400"
       font-style="normal"
       id="g24"
       style="font-style:normal;font-weight:400;font-size:8.25px;font-family:'MS Shell Dlg 2';fill:none;stroke:#000000;stroke-width:1;stroke-linecap:square;stroke-linejoin:bevel;stroke-opacity:1" />
    <g
       transform="translate(4.5,23.1875)"
       font-size="17.0078"
       font-weight="400"
       font-style="normal"
       id="g28"
       style="font-style:normal;font-weight:400;font-size:17.00779915px;font-family:icomoon;fill:#000000;fill-opacity:1;stroke:none">
      <path
         d="m 20.9785,-18.0137 c 0.3744,0 0.6926,0.1311 0.9546,0.3931 0.262,0.262 0.3931,0.5802 0.3931,0.9546 V 2.29102 c 0,0.37434 -0.1311,0.69254 -0.3931,0.95459 -0.262,0.26204 -0.5802,0.39306 -0.9546,0.39306 H 2.02148 C 1.64714,3.63867 1.32894,3.50765 1.06689,3.24561 0.80485,2.98356 0.673828,2.66536 0.673828,2.29102 V -16.666 c 0,-0.3744 0.131022,-0.6926 0.393062,-0.9546 0.26205,-0.262 0.58025,-0.3931 0.95459,-0.3931 H 20.9785 m 0,-0.6738 H 2.02148 c -0.55403,0 -1.029455,0.1984 -1.426265,0.5952 C 0.198405,-17.6955 0,-17.2201 0,-16.666 V 2.29102 C 0,2.84505 0.198405,3.32048 0.595215,3.71729 0.992025,4.1141 1.46745,4.3125 2.02148,4.3125 H 20.9785 c 0.5541,0 1.0295,-0.1984 1.4263,-0.59521 C 22.8016,3.32048 23,2.84505 23,2.29102 V -16.666 c 0,-0.5541 -0.1984,-1.0295 -0.5952,-1.4263 -0.3968,-0.3968 -0.8722,-0.5952 -1.4263,-0.5952 M 10.8262,-3.30176 h -0.6739 v -0.67383 h 0.6739 v -0.67382 h -0.6739 v -0.67383 h 0.6739 v -1.52735 c 0,-0.17968 0.0674,-0.33691 0.2021,-0.47168 0.1348,-0.13476 0.292,-0.20214 0.4717,-0.20214 0.1797,0 0.3369,0.06738 0.4717,0.20214 0.1347,0.13477 0.2021,0.292 0.2021,0.47168 v 1.52735 h 0.6739 v 0.67383 h -0.6739 v 0.67382 h 0.6739 v 0.67383 h -0.6739 v 2.29102 c 0,0 0.2546,-0.23959 0.7637,-0.71875 0.4941,-0.47917 1.0407,-1.05567 1.6396,-1.72949 0.599,-0.67383 1.1456,-1.37761 1.6397,-2.11133 0.4941,-0.73373 0.7262,-1.35515 0.6963,-1.86426 -0.0749,-0.26953 -0.1535,-0.52035 -0.2359,-0.75244 -0.0823,-0.2321 -0.1759,-0.45296 -0.2807,-0.6626 l 0.0449,0.06738 -1.3027,2.13379 c -0.0449,0.07487 -0.1048,0.13851 -0.1797,0.19092 -0.0749,0.05241 -0.1572,0.07861 -0.2471,0.07861 -0.0449,-0.01497 -0.0898,-0.0262 -0.1348,-0.03369 -0.0449,-0.00748 -0.0898,-0.0262 -0.1347,-0.05615 l 0.0224,0.02246 c -0.0748,-0.04492 -0.1347,-0.10856 -0.1796,-0.19092 -0.045,-0.08235 -0.0674,-0.16845 -0.0674,-0.2583 0,-0.04492 0.0037,-0.0861 0.0112,-0.12353 0.0075,-0.03744 0.0262,-0.07862 0.0562,-0.12354 h -0.0225 c 0.2096,-0.26953 0.408,-0.56152 0.5952,-0.87597 0.1872,-0.31446 0.3482,-0.6364 0.4829,-0.96583 l 0.0225,-0.06738 c 0,-0.04492 0.0037,-0.08984 0.0112,-0.13476 0.0075,-0.04493 0.0112,-0.09733 0.0112,-0.15723 0,-0.22461 -0.0336,-0.44173 -0.101,-0.65137 -0.0674,-0.20968 -0.161,-0.40428 -0.2808,-0.58398 l -1.415,2.08887 c -0.045,0.08984 -0.1086,0.15722 -0.191,0.20214 -0.0823,0.04493 -0.1684,0.06739 -0.2583,0.06739 -0.0449,0 -0.0898,-0.00749 -0.1347,-0.02246 C 12.96,-8.25814 12.9225,-8.27311 12.8926,-8.28809 12.8177,-8.33301 12.7578,-8.3929 12.7129,-8.46777 12.668,-8.54264 12.6455,-8.625 12.6455,-8.71484 c 0,-0.04493 0.0038,-0.08985 0.0112,-0.13477 0.0075,-0.04492 0.0262,-0.08236 0.0562,-0.1123 0.1497,-0.25456 0.292,-0.52035 0.4267,-0.79737 0.1348,-0.27702 0.2546,-0.56522 0.3594,-0.86472 l 0.0225,-0.0674 c 0,-0.015 0,-0.0262 0,-0.0337 0,-0.0075 0,-0.0112 0,-0.0112 0,-0.3145 -0.0337,-0.614 -0.1011,-0.8985 -0.0674,-0.2845 -0.161,-0.554 -0.2808,-0.8086 v 0.0225 c 0,0 -0.1534,0.3219 -0.4604,0.9658 -0.307,0.6439 -0.5503,1.1006 -0.73,1.3701 -0.0449,0.0599 -0.0973,0.1086 -0.1572,0.14604 -0.0599,0.03743 -0.1273,0.05615 -0.2022,0.05615 -0.0149,0 -0.0224,0 -0.0224,0 0,0 -0.0075,0 -0.0225,0 -0.0599,0 -0.116,-0.01123 -0.1684,-0.03369 -0.0524,-0.02246 -0.1011,-0.05616 -0.146,-0.1011 -0.0749,-0.0599 -0.1348,-0.1385 -0.1797,-0.2358 -0.0449,-0.0973 -0.0674,-0.2059 -0.0674,-0.3257 0,-0.0299 0.0037,-0.0674 0.0112,-0.1123 0.0075,-0.0449 0.0187,-0.0824 0.0337,-0.1123 0.0899,-0.2695 0.2171,-0.5466 0.3819,-0.8311 0.1647,-0.2845 0.2919,-0.5615 0.3818,-0.831 0,-0.2246 -0.0225,-0.4418 -0.0674,-0.6514 -0.0449,-0.2096 -0.1048,-0.4118 -0.1797,-0.6064 v 0.0224 c 0,0 -0.3219,0.3257 -0.9658,0.9771 -0.64388,0.6513 -0.99577,1.2016 -1.05566,1.6509 0.02995,0.4642 0.09733,0.9134 0.20215,1.34761 0.10481,0.43425 0.23209,0.85352 0.38181,1.25782 L 10.085,-8.53516 c 0.0149,0.02995 0.0262,0.0599 0.0337,0.08985 0.0074,0.02995 0.0112,0.06738 0.0112,0.1123 0,0.10482 -0.0337,0.20215 -0.1011,0.29199 -0.06737,0.08985 -0.15347,0.14974 -0.25829,0.17969 -0.01498,0 -0.02995,0 -0.04492,0 -0.01498,0 -0.02995,0 -0.04493,0 -0.01497,0 -0.02994,0 -0.04492,0 -0.01497,0 -0.02246,0 -0.02246,0 -0.11979,0 -0.22086,-0.03369 -0.30322,-0.10107 -0.08236,-0.06739 -0.146,-0.146 -0.19092,-0.23584 L 8.35547,-10.5791 c -0.22461,0.1048 -0.40804,0.2508 -0.55029,0.438 -0.14226,0.18716 -0.23584,0.40054 -0.28077,0.64012 -0.04492,0.37435 0.1198,0.88721 0.49414,1.53858 0.37435,0.65136 0.56153,0.97705 0.56153,0.97705 0.01497,0.02995 0.02995,0.06364 0.04492,0.10107 0.01497,0.03744 0.02246,0.07862 0.02246,0.12354 0,0.10482 -0.0262,0.19466 -0.07861,0.26953 -0.05241,0.07487 -0.12354,0.13476 -0.21338,0.17969 -0.02995,0.01497 -0.06364,0.02994 -0.10108,0.04492 -0.03743,0.01497 -0.07112,0.02246 -0.10107,0.02246 -0.01497,0 -0.02246,0 -0.02246,0 C 8.04102,-6.25911 7.95492,-6.29281 7.87256,-6.34521 7.7902,-6.39762 7.72656,-6.46126 7.68164,-6.53613 7.48698,-6.82064 7.2998,-7.1276 7.12012,-7.45703 6.94043,-7.78646 6.77572,-8.12337 6.62598,-8.46777 L 6.58105,-8.55762 c 0,0 -0.07112,0.0861 -0.21337,0.2583 -0.14226,0.1722 -0.21338,0.4904 -0.21338,0.95459 0,0.52409 0.24707,1.153 0.74121,1.88672 0.47916,0.71875 1.01074,1.4113 1.59472,2.07764 0.58399,0.66634 1.11556,1.23161 1.59477,1.6958 0.4941,0.46419 0.7412,0.696289 0.7412,0.696289 V -3.30176 M 11.5,2.67285 1.63965,-7.1875 11.5,-17.0254 21.3604,-7.1875 11.5,2.67285 M 2.60547,-7.1875 11.5,1.70703 20.3945,-7.1875 11.5,-16.082 2.60547,-7.1875"
         id="path26"
         inkscape:connector-curvature="0"
         style="vector-effect:none;fill-rule:nonzero" />
    </g>
    <g
       transform="matrix(1.33333,0,0,1.33333,16,16)"
       font-size="8.25"
       font-weight="400"
       font-style="normal"
       id="g30"
       style="font-style:normal;font-weight:400;font-size:8.25px;font-family:'MS Shell Dlg 2';fill:none;stroke:#000000;stroke-width:1;stroke-linecap:square;stroke-linejoin:bevel;stroke-opacity:1" />
    <g
       transform="translate(16,16)"
       font-size="8.25"
       font-weight="400"
       font-style="normal"
       id="g32"
       style="font-style:normal;font-weight:400;font-size:8.25px;font-family:'MS Shell Dlg 2';fill:none;stroke:#000000;stroke-width:1;stroke-linecap:square;stroke-linejoin:bevel;stroke-opacity:1" />
    <g
       font-size="8.25"
       font-weight="400"
       font-style="normal"
       id="g34"
       style="font-style:normal;font-weight:400;font-size:8.25px;font-family:'MS Shell Dlg 2';fill:none;stroke:#000000;stroke-width:1;stroke-linecap:square;stroke-linejoin:bevel;stroke-opacity:1" />
    <g
       transform="translate(16,16)"
       font-size="8.25"
       font-weight="400"
       font-style="normal"
       id="g36"
       style="font-style:normal;font-weight:400;font-size:8.25px;font-family:'MS Shell Dlg 2';fill:none;stroke:#000000;stroke-width:1;stroke-linecap:square;stroke-linejoin:bevel;stroke-opacity:1" />
    <g
       transform="matrix(1.33333,0,0,1.33333,16,16)"
       font-size="8.25"
       font-weight="400"
       font-style="normal"
       id="g38"
       style="font-style:normal;font-weight:400;font-size:8.25px;font-family:'MS Shell Dlg 2';fill:none;stroke:#000000;stroke-width:1;stroke-linecap:square;stroke-linejoin:bevel;stroke-opacity:1" />
    <g
       transform="translate(3,24.125)"
       font-size="19.8425"
       font-weight="400"
       font-style="normal"
       id="g42"
       style="font-style:normal;font-weight:400;font-size:19.84250069px;font-family:icomoon;fill:#000000;fill-opacity:1;stroke:none">
      <path
         d="m 23.9434,-20.4395 c 0.3724,0 0.694,0.1355 0.9648,0.4063 0.2708,0.2708 0.4063,0.5924 0.4063,0.9648 V 2.81836 c 0,0.3724 -0.1355,0.69401 -0.4063,0.96484 -0.2708,0.27084 -0.5924,0.40625 -0.9648,0.40625 H 2.05664 C 1.68424,4.18945 1.36263,4.05404 1.0918,3.7832 0.820964,3.51237 0.685547,3.19076 0.685547,2.81836 V -19.0684 c 0,-0.3724 0.135417,-0.694 0.406253,-0.9648 0.27083,-0.2708 0.59244,-0.4063 0.96484,-0.4063 H 23.9434 m 0,-0.6855 H 2.05664 c -0.57552,0 -1.062174,0.1989 -1.45996,0.5967 C 0.198893,-20.1305 0,-19.6439 0,-19.0684 V 2.81836 C 0,3.39388 0.198893,3.88053 0.59668,4.27832 0.994466,4.67611 1.48112,4.875 2.05664,4.875 H 23.9434 c 0.5755,0 1.0621,-0.19889 1.4599,-0.59668 C 25.8011,3.88053 26,3.39388 26,2.81836 V -19.0684 c 0,-0.5755 -0.1989,-1.0621 -0.5967,-1.4599 -0.3978,-0.3978 -0.8844,-0.5967 -1.4599,-0.5967"
         id="path40"
         inkscape:connector-curvature="0"
         style="vector-effect:none;fill-rule:nonzero" />
    </g>
    <g
       transform="matrix(1.33333,0,0,1.33333,16,16)"
       font-size="8.25"
       font-weight="400"
       font-style="normal"
       id="g44"
       style="font-style:normal;font-weight:400;font-size:8.25px;font-family:'MS Shell Dlg 2';fill:none;stroke:#000000;stroke-width:1;stroke-linecap:square;stroke-linejoin:bevel;stroke-opacity:1" />
    <g
       transform="translate(16,16)"
       font-size="8.25"
       font-weight="400"
       font-style="normal"
       id="g46"
       style="font-style:normal;font-weight:400;font-size:8.25px;font-family:'MS Shell Dlg 2';fill:none;stroke:#000000;stroke-width:1;stroke-linecap:square;stroke-linejoin:bevel;stroke-opacity:1" />
    <g
       font-size="8.25"
       font-weight="400"
       font-style="normal"
       id="g48"
       style="font-style:normal;font-weight:400;font-size:8.25px;font-family:'MS Shell Dlg 2';fill:none;stroke:#000000;stroke-width:1;stroke-linecap:square;stroke-linejoin:bevel;stroke-opacity:1" />
    <g
       transform="translate(16,16)"
       font-size="8.25"
       font-weight="400"
       font-style="normal"
       id="g50"
       style="font-style:normal;font-weight:400;font-size:8.25px;font-family:'MS Shell Dlg 2';fill:none;stroke:#000000;stroke-width:1;stroke-linecap:square;stroke-linejoin:bevel;stroke-opacity:1" />
    <g
       transform="matrix(1.33333,0,0,1.33333,16,16)"
       font-size="8.25"
       font-weight="400"
       font-style="normal"
       id="g52"
       style="font-style:normal;font-weight:400;font-size:8.25px;font-family:'MS Shell Dlg 2';fill:none;stroke:#000000;stroke-width:1;stroke-linecap:square;stroke-linejoin:bevel;stroke-opacity:1" />
    <g
       transform="translate(3.5,23.8125)"
       font-size="18.7086"
       font-weight="400"
       font-style="normal"
       id="g56"
       style="font-style:normal;font-weight:400;font-size:18.70859909px;font-family:icomoon;fill:#ff0000;fill-opacity:1;stroke:none">
      <path
         d="M 0.78125,4.6875 C 0.667318,4.6875 0.565592,4.66715 0.476074,4.62646 0.386556,4.58577 0.301107,4.53288 0.219727,4.46777 0.154622,4.38639 0.101725,4.30094 0.0610352,4.21143 0.0203451,4.12191 0,4.02018 0,3.90625 0,3.79232 0.0203451,3.69059 0.0610352,3.60107 0.101725,3.51156 0.154622,3.42611 0.219727,3.34473 L 23.6572,-20.0928 c 0.0814,-0.0651 0.1669,-0.118 0.2564,-0.1587 0.0895,-0.0407 0.1912,-0.061 0.3052,-0.061 0.2115,0 0.3946,0.0773 0.5493,0.2319 0.1546,0.1547 0.2319,0.3378 0.2319,0.5493 0,0.114 -0.0203,0.2157 -0.061,0.3052 -0.0407,0.0895 -0.0936,0.175 -0.1587,0.2564 L 1.34277,4.46777 C 1.26139,4.53288 1.17594,4.58577 1.08643,4.62646 0.996908,4.66715 0.895182,4.6875 0.78125,4.6875"
         id="path54"
         inkscape:connector-curvature="0"
         style="vector-effect:none;fill-rule:nonzero" />
    </g>
    <g
       transform="matrix(1.33333,0,0,1.33333,16,16)"
       font-size="8.25"
       font-weight="400"
       font-style="normal"
       id="g58"
       style="font-style:normal;font-weight:400;font-size:8.25px;font-family:'MS Shell Dlg 2';fill:none;stroke:#000000;stroke-width:1;stroke-linecap:square;stroke-linejoin:bevel;stroke-opacity:1" />
    <g
       transform="translate(16,16)"
       font-size="8.25"
       font-weight="400"
       font-style="normal"
       id="g60"
       style="font-style:normal;font-weight:400;font-size:8.25px;font-family:'MS Shell Dlg 2';fill:none;stroke:#000000;stroke-width:1;stroke-linecap:square;stroke-linejoin:bevel;stroke-opacity:1" />
    <g
       font-size="8.25"
       font-weight="400"
       font-style="normal"
       id="g62"
       style="font-style:normal;font-weight:400;font-size:8.25px;font-family:'MS Shell Dlg 2';fill:none;stroke:#000000;stroke-width:1;stroke-linecap:square;stroke-linejoin:bevel;stroke-opacity:1" />
  </g>
</svg>
