<svg xmlns="http://www.w3.org/2000/svg" width="20" height="20" version="1.2">
    <g font-weight="400" style="fill:none;fill-rule:evenodd;stroke:#000;stroke-width:1;stroke-linecap:square;stroke-linejoin:bevel">
        <g style="font-style:normal;font-weight:400;font-size:22.67709923px;font-family:icomoon;fill:#ff0;fill-opacity:1;stroke:none">
            <path d="M2.637-24.375h24.726c.723 0 1.343.259 1.86.776.518.518.777 1.138.777 1.86V2.989c0 .723-.259 1.343-.776 1.86a2.538 2.538 0 0 1-1.86.777H2.636a2.538 2.538 0 0 1-1.86-.776A2.538 2.538 0 0 1 0 2.989v-24.727c0-.723.259-1.343.776-1.86a2.538 2.538 0 0 1 1.86-.777" font-size="22.677" style="vector-effect:none;fill-rule:nonzero" transform="matrix(.66667 0 0 .66667 0 16.25)"/>
        </g>
        <g style="font-style:normal;font-weight:400;font-size:17.00779915px;font-family:icomoon;fill:#000;fill-opacity:1;stroke:none">
            <path d="M20.979-18.688H2.02c-.554 0-1.029.199-1.426.596A1.946 1.946 0 0 0 0-16.666V2.291c0 .554.198 1.03.595 1.426.397.397.872.595 1.426.595h18.957c.555 0 1.03-.198 1.427-.595.397-.397.595-.872.595-1.426v-18.957c0-.554-.198-1.03-.595-1.426a1.946 1.946 0 0 0-1.426-.596m1.347 20.979a1.3 1.3 0 0 1-.393.955 1.3 1.3 0 0 1-.955.393H2.021a1.3 1.3 0 0 1-.954-.393 1.3 1.3 0 0 1-.393-.955v-18.957a1.3 1.3 0 0 1 .393-.955 1.3 1.3 0 0 1 .954-.393h18.957a1.3 1.3 0 0 1 .955.393 1.3 1.3 0 0 1 .393.955V2.291M11.77-16.059c-.36 0-.715.018-1.067.056a13.96 13.96 0 0 0-1.022.146h.067c-4.747 1.482-7.12 4.402-7.12 8.76v1.122c1.437 5.107 4.305 7.66 8.602 7.66h.54c.329 0 .655-.02.977-.057.321-.037.64-.086.954-.146l-.067.023c4.492-1.602 6.738-4.402 6.738-8.4V-8.02a8.563 8.563 0 0 0-.213-1.201 7.17 7.17 0 0 0-.37-1.09l.021.045c-1.781-3.863-4.462-5.795-8.04-5.795m7.524 8.199c-.374.344-.734.703-1.078 1.078-.345.374-.674.756-.988 1.145l-.045.023-2.606-.989h-.09A13.735 13.735 0 0 0 13.68-9.5l.022.09c.315-.255.592-.547.831-.876.24-.33.442-.689.607-1.078v-.023l2.448.135C18.17-9.44 18.74-8.31 19.294-7.86m-6.94 6.087-.18-.955c-.12-.636-.21-1.18-.27-1.628a61.94 61.94 0 0 1 1.494-1.056c.397-.27.693-.464.887-.584.33.24.685.48 1.067.719.382.24.775.471 1.18.696l.09.045v2.628c-.345.284-.708.554-1.09.808-.382.255-.783.487-1.202.697l-.067.022c-.36-.21-.697-.43-1.011-.662a9.554 9.554 0 0 1-.899-.753v.023m5.773-10.153-.067.135-2.718-.494-1.617-2.269a10.298 10.298 0 0 0 .292-.54v-.021c1.033.42 1.89.895 2.571 1.426.682.532 1.195 1.12 1.539 1.763m-4.964-2.246c.165.315.393.726.685 1.235.292.51.536.906.73 1.19l-1.482 1.865H9.793a3.248 3.248 0 0 0-.55-.954 3.581 3.581 0 0 0-.798-.708v-.022c.195-.495.408-.963.64-1.404.233-.442.476-.865.73-1.27l-.022.068h3.37m-4.179-.943a2.355 2.355 0 0 0 .18.629l-.022-.023-1.46 2.201-2.471.742a1.156 1.156 0 0 0-.146-.124.32.32 0 0 0-.191-.056c.015-.884 1.385-2.007 4.11-3.37m-3.683 4.268 2.56-.539c0 .24.173.55.517.932.344.382.674.685.988.91-.165.374-.314.782-.449 1.224-.135.442-.247.895-.337 1.36v.066a18.176 18.176 0 0 0-2.74 1.617l.067-.044a14.785 14.785 0 0 0-.595-.73 13.161 13.161 0 0 0-.618-.663l-.988-1.033c.33-.45.629-.928.898-1.438.27-.509.495-1.04.674-1.594l.023-.068m-.247 8.985A9.565 9.565 0 0 1 3.717-4.46c-.322-.95-.498-1.95-.528-2.998h.045A22.453 22.453 0 0 1 5.368-4.2l.068.135.314 2.088-.696.113m1.302-.09V-2c0-.404-.015-.805-.044-1.202a10.37 10.37 0 0 0-.158-1.179l.023.09c0-.12.288-.344.865-.674.576-.33 1.096-.681 1.56-1.056l2.539 1.663.09 2.29c-.345.315-.775.678-1.292 1.09-.517.412-.895.73-1.134.955A9.98 9.98 0 0 0 7.67-1.078a8.414 8.414 0 0 0-1.269-.831l-.045-.045m5.975 3.077h-.92A8.908 8.908 0 0 1 10.22 1C9.83.932 9.456.846 9.097.74h.067c0-.06-.007-.12-.022-.18a.877.877 0 0 0-.068-.18v.023c.3-.15.719-.389 1.258-.718.54-.33.958-.6 1.258-.809.36.255.741.494 1.145.719.405.224.824.434 1.258.629l.09.022c-.12.3-.326.52-.618.663-.292.142-.67.213-1.134.213m5.615-2.987-.74-.157c.059-.3.104-.618.134-.955.03-.337.045-.678.045-1.022V-4.29c.3-.629.651-1.213 1.055-1.752a9.62 9.62 0 0 1 1.348-1.46l.023-.022V-7.232a8.306 8.306 0 0 1-.506 2.897 9.205 9.205 0 0 1-1.381 2.493l.022-.022" font-size="17.008" style="vector-effect:none;fill-rule:nonzero" transform="matrix(.66667 0 0 .66667 2.333 14.792)"/>
        </g>
        <g style="font-style:normal;font-weight:400;font-size:22.67709923px;font-family:icomoon;fill:#000;fill-opacity:1;stroke:none">
            <path d="M26.426-22.236c.39 0 .727.141 1.01.425.284.283.425.62.425 1.01V2.051c0 .39-.141.727-.425 1.01a1.38 1.38 0 0 1-1.01.425H3.574a1.38 1.38 0 0 1-1.01-.424 1.38 1.38 0 0 1-.425-1.011v-22.852c0-.39.141-.727.424-1.01a1.38 1.38 0 0 1 1.011-.425h22.852m0-.703H3.574c-.586 0-1.089.21-1.509.63-.42.42-.63.922-.63 1.508V2.051c0 .586.21 1.089.63 1.509.42.42.923.63 1.51.63h22.85c.587 0 1.09-.21 1.51-.63.42-.42.63-.923.63-1.51V-20.8c0-.587-.21-1.09-.63-1.51-.42-.42-.923-.63-1.51-.63m1.436-.732c.391 0 .728.142 1.011.425.283.283.425.62.425 1.01V3.487c0 .39-.142.728-.425 1.011a1.38 1.38 0 0 1-1.01.425H2.138a1.38 1.38 0 0 1-1.011-.425 1.38 1.38 0 0 1-.425-1.01v-25.723c0-.391.142-.728.425-1.011a1.38 1.38 0 0 1 1.01-.425h25.723m0-.703H2.14c-.586 0-1.09.21-1.51.63-.419.42-.629.923-.629 1.509V3.486c0 .586.21 1.09.63 1.51.42.419.923.629 1.509.629H27.86c.586 0 1.09-.21 1.51-.63.419-.42.629-.923.629-1.509v-25.722c0-.586-.21-1.09-.63-1.51-.42-.419-.923-.629-1.509-.629" font-size="22.677" style="vector-effect:none;fill-rule:nonzero" transform="matrix(.66667 0 0 .66667 0 16.25)"/>
        </g>
    </g>
</svg>
