<svg xmlns="http://www.w3.org/2000/svg" width="20" height="20" version="1.2">
    <g font-weight="400" style="fill:none;fill-rule:evenodd;stroke:#000;stroke-width:1;stroke-linecap:square;stroke-linejoin:bevel">
        <g style="font-style:normal;font-weight:400;font-size:22.67709923px;font-family:icomoon;fill:red;fill-opacity:1;stroke:none">
            <path d="M2.637-24.375h24.726c.723 0 1.343.259 1.86.776.518.518.777 1.138.777 1.86V2.989c0 .723-.259 1.343-.776 1.86a2.538 2.538 0 0 1-1.86.777H2.636a2.538 2.538 0 0 1-1.86-.776A2.538 2.538 0 0 1 0 2.989v-24.727c0-.723.259-1.343.776-1.86a2.538 2.538 0 0 1 1.86-.777" font-size="22.677" style="vector-effect:none;fill-rule:nonzero" transform="matrix(.66667 0 0 .66667 0 16.25)"/>
        </g>
        <g style="font-style:normal;font-weight:400;font-size:17.00779915px;font-family:icomoon;fill:#000;fill-opacity:1;stroke:none">
            <path d="M20.979-18.014a1.3 1.3 0 0 1 .954.393 1.3 1.3 0 0 1 .393.955V2.291a1.3 1.3 0 0 1-.393.955 1.3 1.3 0 0 1-.955.393H2.021a1.3 1.3 0 0 1-.954-.393 1.3 1.3 0 0 1-.393-.955v-18.957a1.3 1.3 0 0 1 .393-.955 1.3 1.3 0 0 1 .954-.393h18.957m0-.674H2.021c-.554 0-1.029.199-1.426.596A1.946 1.946 0 0 0 0-16.666V2.291c0 .554.198 1.03.595 1.426.397.397.872.595 1.426.595h18.957c.555 0 1.03-.198 1.427-.595.397-.397.595-.872.595-1.426v-18.957c0-.554-.198-1.03-.595-1.426a1.946 1.946 0 0 0-1.426-.596M11.5-15.296c-1.123 0-2.179.21-3.167.629a8.07 8.07 0 0 0-2.583 1.73 8.069 8.069 0 0 0-1.73 2.582 8.024 8.024 0 0 0-.628 3.168c0 1.123.21 2.178.629 3.166A8.07 8.07 0 0 0 5.75-1.438 8.07 8.07 0 0 0 8.333.292c.988.42 2.044.629 3.167.629 1.123 0 2.179-.21 3.167-.629a8.069 8.069 0 0 0 2.583-1.73 8.07 8.07 0 0 0 1.73-2.583c.419-.988.628-2.043.628-3.167 0-1.123-.21-2.178-.628-3.167a8.07 8.07 0 0 0-1.73-2.582 8.07 8.07 0 0 0-2.583-1.73 8.024 8.024 0 0 0-3.167-.629m0 14.87a6.742 6.742 0 0 1-2.628-.517 6.945 6.945 0 0 1-2.156-1.46 6.945 6.945 0 0 1-1.46-2.157 6.742 6.742 0 0 1-.517-2.628c0-.928.172-1.804.517-2.627a6.946 6.946 0 0 1 1.46-2.157 6.945 6.945 0 0 1 2.156-1.46 6.742 6.742 0 0 1 2.628-.516c.928 0 1.804.172 2.628.516.824.36 1.542.846 2.156 1.46a6.945 6.945 0 0 1 1.46 2.157c.344.823.517 1.7.517 2.628 0 .928-.172 1.804-.517 2.627a6.945 6.945 0 0 1-1.46 2.157 6.946 6.946 0 0 1-2.156 1.46c-.824.344-1.7.516-2.628.516m3.055-6.76c0 .838-.3 1.557-.899 2.156a2.941 2.941 0 0 1-2.156.898 2.94 2.94 0 0 1-2.156-.898 2.94 2.94 0 0 1-.899-2.157c0-.838.3-1.557.899-2.156a2.94 2.94 0 0 1 2.156-.898c.839 0 1.557.3 2.156.898a2.94 2.94 0 0 1 .899 2.156" font-size="17.008" style="vector-effect:none;fill-rule:nonzero" transform="matrix(.66667 0 0 .66667 2.333 14.792)"/>
        </g>
        <g style="font-style:normal;font-weight:400;font-size:22.67709923px;font-family:icomoon;fill:#000;fill-opacity:1;stroke:none">
            <path d="M26.426-22.236c.39 0 .727.141 1.01.425.284.283.425.62.425 1.01V2.051c0 .39-.141.727-.425 1.01a1.38 1.38 0 0 1-1.01.425H3.574a1.38 1.38 0 0 1-1.01-.424 1.38 1.38 0 0 1-.425-1.011v-22.852c0-.39.141-.727.424-1.01a1.38 1.38 0 0 1 1.011-.425h22.852m0-.703H3.574c-.586 0-1.089.21-1.509.63-.42.42-.63.922-.63 1.508V2.051c0 .586.21 1.089.63 1.509.42.42.923.63 1.51.63h22.85c.587 0 1.09-.21 1.51-.63.42-.42.63-.923.63-1.51V-20.8c0-.587-.21-1.09-.63-1.51-.42-.42-.923-.63-1.51-.63m1.436-.732c.391 0 .728.142 1.011.425.283.283.425.62.425 1.01V3.487c0 .39-.142.728-.425 1.011a1.38 1.38 0 0 1-1.01.425H2.138a1.38 1.38 0 0 1-1.011-.425 1.38 1.38 0 0 1-.425-1.01v-25.723c0-.391.142-.728.425-1.011a1.38 1.38 0 0 1 1.01-.425h25.723m0-.703H2.14c-.586 0-1.09.21-1.51.63-.419.42-.629.923-.629 1.509V3.486c0 .586.21 1.09.63 1.51.42.419.923.629 1.509.629H27.86c.586 0 1.09-.21 1.51-.63.419-.42.629-.923.629-1.509v-25.722c0-.586-.21-1.09-.63-1.51-.42-.419-.923-.629-1.509-.629" font-size="22.677" style="vector-effect:none;fill-rule:nonzero" transform="matrix(.66667 0 0 .66667 0 16.25)"/>
        </g>
    </g>
</svg>
