<svg xmlns="http://www.w3.org/2000/svg" width="20" height="20" version="1.2">
    <g font-weight="400" style="fill:none;fill-rule:evenodd;stroke:#000;stroke-width:1;stroke-linecap:square;stroke-linejoin:bevel">
        <g style="font-style:normal;font-weight:400;font-size:17.00779915px;font-family:icomoon;fill:#fff;fill-opacity:1;stroke:none">
            <path d="M2.021-18.688h18.957c.555 0 1.03.199 1.427.596.397.396.595.872.595 1.426V2.291c0 .554-.198 1.03-.595 1.426a1.946 1.946 0 0 1-1.427.595H2.021c-.554 0-1.029-.198-1.426-.595A1.946 1.946 0 0 1 0 2.291v-18.957c0-.554.198-1.03.595-1.426a1.946 1.946 0 0 1 1.426-.596" font-size="17.008" style="vector-effect:none;fill-rule:nonzero" transform="matrix(.65217 0 0 .65217 2.5 14.687)"/>
        </g>
        <g style="font-style:normal;font-weight:400;font-size:17.00779915px;font-family:icomoon;fill:#000;fill-opacity:1;stroke:none">
            <path d="M20.979-18.014a1.3 1.3 0 0 1 .954.393 1.3 1.3 0 0 1 .393.955V2.291a1.3 1.3 0 0 1-.393.955 1.3 1.3 0 0 1-.955.393H2.021a1.3 1.3 0 0 1-.954-.393 1.3 1.3 0 0 1-.393-.955v-18.957a1.3 1.3 0 0 1 .393-.955 1.3 1.3 0 0 1 .954-.393h18.957m0-.674H2.021c-.554 0-1.029.199-1.426.596A1.946 1.946 0 0 0 0-16.666V2.291c0 .554.198 1.03.595 1.426.397.397.872.595 1.426.595h18.957c.555 0 1.03-.198 1.427-.595.397-.397.595-.872.595-1.426v-18.957c0-.554-.198-1.03-.595-1.426a1.946 1.946 0 0 0-1.426-.596m-9.434 9.21h.674a8.968 8.968 0 0 0 .719 2.964c.404.929.928 1.76 1.572 2.493.09.105.202.191.337.259a.941.941 0 0 0 .426.1h.045c.12 0 .236-.022.349-.067.112-.044.213-.104.303-.18h-.023c.12-.089.21-.201.27-.336.06-.135.09-.277.09-.427a.99.99 0 0 0-.068-.37 1.123 1.123 0 0 0-.18-.304 7.043 7.043 0 0 1-1.201-1.886 7.262 7.262 0 0 1-.573-2.224l-.022-.023h.966c.134.165.299.3.494.405.194.105.411.157.651.157.39 0 .719-.135.988-.404.27-.27.405-.6.405-.989s-.135-.722-.405-1a1.326 1.326 0 0 0-.988-.415c-.3 0-.565.083-.797.248-.232.164-.4.374-.506.628h-.786c.105-.763.31-1.486.618-2.167a7.17 7.17 0 0 1 1.179-1.83 1 1 0 0 0 .292-.719.97.97 0 0 0-.303-.708.995.995 0 0 0-.73-.303 1.024 1.024 0 0 0-.809.404 9.468 9.468 0 0 0-1.538 2.426 9.026 9.026 0 0 0-.73 2.875l-.023.022h-.943l-.674-3.728h-4.02V.359H3.998v1.932h13.679V.359h-4.313l-1.82-9.838" font-size="17.008" style="vector-effect:none;fill-rule:nonzero" transform="matrix(.65217 0 0 .65217 2.5 14.687)"/>
        </g>
        <g style="font-style:normal;font-weight:400;font-size:15.8739996px;font-family:icomoon;fill:red;fill-opacity:1;stroke:none">
            <path d="M.656 3.938A.613.613 0 0 1 .4 3.885a1.02 1.02 0 0 1-.215-.133 1.02 1.02 0 0 1-.134-.215A.613.613 0 0 1 0 3.28c0-.095.017-.18.051-.256a1.02 1.02 0 0 1 .134-.215l19.687-19.688c.068-.055.14-.1.215-.133a.613.613 0 0 1 .257-.051.63.63 0 0 1 .461.194.63.63 0 0 1 .195.462.613.613 0 0 1-.051.256 1.014 1.014 0 0 1-.134.215L1.128 3.753c-.068.055-.14.1-.215.133a.613.613 0 0 1-.257.051" font-size="15.874" style="vector-effect:none;fill-rule:nonzero" transform="matrix(.65217 0 0 .65217 3.152 14.28)"/>
        </g>
    </g>
</svg>
