<svg xmlns="http://www.w3.org/2000/svg" width="20" height="20">
<defs><clipPath id="a" clipPathUnits="userSpaceOnUse">
<path fill="red" d="M-1940.836-385.533c-8.988.01-17.975.02-26.963.068-6.925 8.261-19.81 14.325-38.695 14.356-6.96.01-13.92-.037-20.881.05-5.69.242-11.264 1.242-16.713 2.858-5.559 1.72-11.168 3.392-16.578 5.547-5.365 2.552-11.025 4.367-16.588 6.418-5.964 2.494-12.181 4.247-18.36 6.105-5.045 1.692-10.038 3.532-15.085 5.217-4.95 1.842-10.043 3.246-15.031 4.97-.096.03-.189.066-.284.096-5.788 3.37-12.263 6.481-19.38 9.309-.143.101-.295.189-.436.291-5.337 4.299-10.474 8.84-15.617 13.367-2.356 2.137-4.582 4.405-6.809 6.672-.182.226-.359.455-.54.68-7.903 9.57-16 18.976-24.073 28.402a391.38 391.38 0 0 0-8.941 15.611c-.511 1.065-1.007 2.136-1.542 3.188-.764 1.504-1.67 2.925-2.484 4.4-1.78 3.468-3.508 6.964-4.83 10.637-2.531 6.05-4.81 12.206-7.568 18.158-2.613 5.434-5.44 10.754-8.2 16.114-.424.798-.903 1.567-1.27 2.394-1.42 3.209-2.662 6.5-4.067 9.715-2.388 5.852-4.541 11.8-6.891 17.668-.392.935-.727 1.89-1.1 2.832-.578 9.773-.877 19.561-1.047 29.35-.022 8.62-.284 17.24-1.412 25.794-.574 4.36-1.2 7.518-1.98 11.791-1.328 6.352-3.294 12.535-4.848 18.823.304 3.52.634 7.038 1.16 10.535.665 4.58 1.3 9.145 1.711 13.756.227 2.534.818 8.667.594 10.783-.27 2.548-.813 5.058-1.324 7.572 3.057 1.5 5.314 3.314 9.17 6.084 5.788 5.367 9.903 11.831 12.785 19.131 1.134 2.872 1.694 4.819 2.597 7.695 2.047 6.152 2.971 12.556 3.885 18.948.552 1.973.744 4.058 1.479 5.984.028.073.143.082.177.152.283.581.51 1.188.764 1.782 2.858 5.887 6.087 11.575 9.414 17.207 1.847 3.016 3.069 4.933 4.813 8.185 1.08 2.014 2.069 4.072 3.107 6.108a1555.858 1555.858 0 0 1 9.012 17.908c4.127 8.346 8.147 16.74 12.29 25.078.094.107.186.216.278.324 10.992 11.677 23.718 21.498 36.313 31.352 5.162 3.796 10.293 7.653 15.531 11.353 6.436 1.936 12.858 3.919 19.29 5.875 6.934 1.933 13.852 3.926 20.827 5.703 6.197 1.414 12.459 2.54 18.748 3.453 7.076 1.018 14.14 2.208 21.045 4.088 6.931 1.986 12.533 4.099 18.041 9.211.202.188.37.417.569.612h34.943c3.157-.533 6.327-.985 9.515-1.256 4.577-.216 11.757-.62 15.534 1.281 13.587.126 23.865 3.484 31.146 8.455 1.379-.82 2.764-1.627 4.137-2.455.444-.268-.882.547-1.342.787-.077.04.12-.126.188-.182.31-.261.63-.514.945-.771.417-.443.323-.354 1.184-1.047.822-.662 1.641-1.33 2.496-1.95.135-.097.4-.301.595-.45 3.55-3.094 7.433-5.886 11.746-7.807 1.353-.602 2.746-1.105 4.12-1.658 5.225-1.846 10.723-2.494 16.218-2.861 1.29-.106 2.583-.116 3.875-.149 6.995-2.225 13.985-4.464 21.002-6.621 3.12-1.123 6.522-2.315 9.604-3.549 7.644-3.06 15.03-6.73 22.177-10.812 10.482-6.018 20.971-12.025 31.325-18.262 1.758-1.116 5.466-3.441 7.304-4.703 4.793-3.29 9.422-6.824 13.973-10.438 4.201-3.362 8.28-6.874 11.813-10.953 2.059-2.46 4.186-4.868 6.162-7.396 2.366-3.03 2.063-2.785 4.646-6.295 1.092-1.483 2.204-2.95 3.307-4.426 9.475-11.893-2.368 2.923 6.181-7.629 4.454-5.496 8.617-11.221 12.985-16.785 6.494-8.88 12.847-17.862 18.357-27.4 4.973-8.445 10.062-16.865 14.201-25.758 1.137-2.644.865-1.836 1.739-4.574.162-.508.197-1.068.459-1.532.062-.11.205.423.234.3.144-.62.035-2.867.02-3.427-.316-3.22-.152-1.732-.503-4.681-.046-.393-.158-.783-.14-1.178 0-.104.134.16.18.254 1.718 3.543-.032.364 2.138 4.105.405.7.783 1.27 1.174 1.9 1.337-9.858 2.71-19.711 3.736-29.609.798-8.726 1.093-17.487 1.328-26.244.249-11.915.264-23.835.305-35.752.359-10.724-.362-21.418-.963-32.117 0-7.08-1.012-13.984-2.307-20.92-.06-.348-.144-.691-.207-1.039-4.198-4.384-7.875-9.204-11.375-14.152-4.048-5.722-7.659-11.73-10.99-17.89-2.165-4.522-4.72-8.84-7.344-13.106-3.735-6.007-7.3-12.117-10.543-18.403a595.686 595.686 0 0 1-9.263-21.603 421.859 421.859 0 0 0-3.909-10.846 223.714 223.714 0 0 1-5.468-5.736c-.92-1.002-1.794-2.047-2.69-3.07-4.102-4.814-8.104-9.706-12.156-14.561-.242-.315-.428-.678-.707-.961-1.749-1.773-4.012-2.932-5.914-4.518a502.622 502.622 0 0 1-17.123-11.69c-5.606-3.668-11.35-7.15-17.344-10.151-7.128-3.648-14.327-7.157-21.434-10.848-9.34-4.882-18.664-9.796-27.931-14.816-7.654-4.22-15.188-8.637-22.469-13.479-4.325-2.633-8.639-5.293-13.03-7.814-.947-.55-1.876-1.135-2.831-1.672-2.448-1.378-5.089-2.367-7.61-3.596-4.556-2.065-9.13-4.096-13.515-6.512-.904-.6.01-.023-2.25-1.004-1.231-.535-2.467-1.061-3.678-1.64-3.44-1.644-6.693-3.652-9.783-5.881-.053-.045-.18-.16-.236-.207zm-309.666 314.242.281 1.768c.085.14.225.58.256.42.065-.33-.016-.689-.142-1-.153-.375-.271-.785-.395-1.188z"/>
</clipPath></defs><path fill="#fff" d="M2 .282h16.127c.47 0 .875.17 1.213.507.337.341.505.747.505 1.22v16.199c0 .474-.168.88-.505 1.22a1.65 1.65 0 0 1-1.213.507H2a1.65 1.65 0 0 1-1.214-.508 1.656 1.663 0 0 1-.505-1.22V2.01c0-.473.167-.879.505-1.218A1.65 1.65 0 0 1 2 .283" font-family="icomoon" font-size="19.843" font-weight="400"/>
<path d="M9.391 4.074c-.016.004-.03.004-.045.01-.01.005-.021.006-.028.013-.01.01.027.004.04-.002l.032-.02z" font-family="icomoon" font-size="17.008" font-weight="400"/>
<path d="M1.753 0C1.273 0 .86.174.516.52A1.688 1.695 0 0 0 0 1.762v16.514c0 .482.173.897.516 1.242.344.347.757.52 1.237.52h16.442a1.68 1.68 0 0 0 1.236-.52c.346-.345.518-.76.518-1.242V1.762A1.7 1.7 0 0 0 19.433.52 1.688 1.695 0 0 0 18.196 0Zm0 .588h16.442c.325 0 .6.113.828.342.226.228.34.506.34.832v16.514a1.128 1.133 0 0 1-.34.832 1.126 1.131 0 0 1-.828.342H1.753a1.126 1.131 0 0 1-.827-.342 1.128 1.133 0 0 1-.342-.832V1.762c0-.326.114-.604.342-.832a1.128 1.133 0 0 1 .827-.342Z" font-family="icomoon" font-size="17.008" font-weight="400"/><path d="M-2000.657 151.888c-2.2-.28-10.574-1.733-18.608-3.226l-14.607-2.716-17.57-5.782-17.571-5.782-15.014-7.485c-18.9-9.421-37.133-21.34-52.916-34.587-14.496-12.166-26.526-24.987-38.95-41.512-16.735-22.258-28.103-43.778-37.46-70.915l-5.412-15.694-3.582-16.696-3.583-16.695s-1.573-23.667-1.573-35c0-11.334 1.573-33 1.573-33l3.582-16.695 3.583-16.695 5.374-15.585c6.79-19.694 13.57-34.363 23.11-50.008 9.356-15.345 18.29-27.21 31.069-41.257l9.92-10.908 12.318-10.347c6.774-5.691 18.578-14.428 26.23-19.415l13.913-9.068 14.087-6.854 14.087-6.855 17.392-5.73 17.393-5.73 15.274-3.093 15.274-3.093s21.778-2.288 32.667-2.288c10.889 0 32.667 2.288 32.667 2.288l15.274 3.093 15.274 3.092 17.57 5.782 17.57 5.782 15.015 7.485c18.9 9.422 37.132 21.34 52.916 34.587 14.496 12.167 26.526 24.988 38.95 41.512 16.735 22.258 28.103 43.778 37.46 70.916l5.412 15.694 3.573 16.695 3.574 16.695s1.543 21.717 1.556 32.828c.013 11.111-1.478 33.839-1.478 33.839l-3.093 15.274-3.092 15.275-5.734 17.392-5.734 17.392-6.085 12.667c-3.347 6.967-8.624 16.867-11.728 22-12.987 21.48-31.317 43.43-49.775 59.605l-12.092 10.596-13.885 9.331-13.886 9.331-14.114 7.066c-26.053 13.043-51.547 21.183-79.156 25.274l-14.373 2.13-21.29.23c-13.361.143-29.096-.86-31.296-1.14zm13.39-141.477c-1.235-1.235-24.804 2.48-39.685 6.255-8.271 2.098-19.321 5.49-24.556 7.537l-9.517 3.721 1.374 4.104c.755 2.257 4.279 10.324 7.83 17.926l6.459 13.823 7.628 11.51 7.628 11.511 10.27 10.19 10.27 10.19 11.122 5.567 11.12 5.566.349-53.63c.192-29.496.06-53.918-.291-54.27zm47.874 100.641 8.006-4.254 10.09-10 10.089-10 7.46-11.333c8.509-12.925 13.004-21.482 19.24-36.62l4.374-10.62-7.595-3.121c-4.177-1.716-12.695-4.617-18.928-6.447-11.272-3.308-38.689-8.525-44.8-8.525h-3.2v107.934l3.629-1.38c1.996-.76 7.232-3.294 11.635-5.634zm-124.267-18.587-7.396-11-8.466-17.333c-4.657-9.534-8.467-18.084-8.467-19-.001-.917-.343-1.667-.761-1.667-2.073 0-28.422 19.777-28.422 21.333 0 1.306 15.367 13.094 26.634 20.431 6.299 4.102 16.467 9.883 22.596 12.847 6.13 2.964 11.264 5.389 11.411 5.389.147 0-3.06-4.95-7.129-11zm193.225 4.246c4.645-2.33 13.544-7.545 19.778-11.588 11.129-7.219 26.515-19.013 26.515-20.325 0-1.556-26.35-21.333-28.422-21.333-.418 0-.76.75-.76 1.667-.001.916-3.812 9.466-8.468 19l-8.467 17.333-7.32 10.886-7.32 10.886 3.01-1.144c1.656-.63 6.81-3.051 11.454-5.382zm-239.846-79.2 10.376-6.566-.607-1.583c-.334-.87-2.2-8.685-4.147-17.365-4.527-20.181-8.25-45.589-9.442-64.409l-.936-14.79h-78.598l.943 9c1.48 14.131 5.645 32.83 10.63 47.728l4.576 13.676 5.574 11.131c6.511 13.004 18.061 31.156 25.488 40.056l5.22 6.257 10.274-8.285c5.65-4.557 14.942-11.24 20.65-14.85zm326.607 1.287c4.38-6.6 10.675-17.387 13.99-23.972l6.027-11.973 5.037-15.36 5.038-15.361 2.795-16.5c1.538-9.076 2.796-17.926 2.796-19.668v-3.166h-78.287l-.936 14.79c-1.202 18.998-4.939 44.372-9.512 64.586-1.986 8.776-3.683 16.617-3.77 17.422l-.161 1.465 14 9.46c7.7 5.202 16.7 11.877 20 14.832l6 5.373 4.51-4.964c2.481-2.73 8.094-10.364 12.473-16.964zm-268.209-29.22 17.892-5.888 14-2.684c7.7-1.475 18.35-3.104 23.667-3.618l9.667-.934v-63.656h-94.667v6.526c0 9.813 2.404 32.188 5.375 50.039 2.528 15.181 4.948 26.102 5.784 26.102.214 0 8.441-2.65 18.282-5.888zm182.497.785c3.783-14.051 9.395-56.483 9.395-71.04v-6.525h-94.666v63.632l9 .875c4.95.48 15.6 2.112 23.666 3.624l14.667 2.75 16.667 5.681c9.166 3.125 17.393 5.776 18.282 5.893l1.615.212zm-244.715-124.355c1.191-18.82 4.915-44.227 9.442-64.409 1.947-8.68 3.813-16.494 4.147-17.365l.607-1.583-10.376-6.565c-5.707-3.611-14.999-10.294-20.65-14.85l-10.272-8.285-5.221 6.257c-7.427 8.9-18.977 27.052-25.488 40.055l-5.574 11.132-4.576 13.675c-4.985 14.899-9.15 33.597-10.63 47.728l-.943 9h78.598zm127.444-17.037v-31.828l-9.667-.935c-5.317-.514-15.967-2.142-23.667-3.618l-14-2.683-17.916-5.896-17.916-5.895-.988 1.598c-2.91 4.707-10.513 57.802-10.513 73.41v7.674h94.667zm126.146 16.574c-1.012-16.925-4.788-44.352-8.105-58.872l-2.16-9.459-11.752 4.414c-6.464 2.428-17.644 5.945-24.845 7.816l-13.094 3.402-17.095 2.286-17.095 2.287v63.38h95.058zm111.889 6.253c-1.48-14.13-5.645-32.829-10.63-47.728l-4.576-13.675-5.574-11.132c-6.511-13.003-18.062-31.155-25.488-40.055l-5.221-6.257-10.273 8.285c-5.65 4.556-14.942 11.239-20.65 14.85l-10.376 6.565.608 1.583c.334.871 2.2 8.685 4.147 17.365 4.526 20.182 8.25 45.59 9.442 64.41l.935 14.79h78.598zm-238.035-142.3v-53.967l-3.63 1.38c-1.995.759-7.231 3.294-11.635 5.633l-8.006 4.254-10.089 10-10.09 10-7.46 11.334c-8.508 12.925-13.004 21.482-19.239 36.62l-4.374 10.62 7.595 3.12c4.177 1.717 12.694 4.62 18.928 6.453 12.009 3.53 36.413 8.232 43.666 8.412l4.334.108zm53.534 51.367c16.432-2.823 33.423-7.454 45.394-12.372l7.595-3.12-4.375-10.621c-6.235-15.138-10.73-23.695-19.238-36.62l-7.461-11.334-10.09-10-10.089-10-8.006-4.254c-4.403-2.34-9.64-4.874-11.635-5.633l-3.63-1.38v107.934h3.202c1.76 0 10.01-1.17 18.333-2.6zm-154.867-32.4c.001-.917 3.811-9.467 8.468-19l8.466-17.333 7.32-10.886 7.32-10.886-3.01 1.144c-6.856 2.606-20.605 10.077-31.231 16.97-11.092 7.194-26.503 19.001-26.528 20.324-.029 1.525 25.922 21.093 28.194 21.26.55.04 1.001-.676 1.001-1.593zm242.426-2.57c7.647-5.191 21.422-16.185 21.422-17.097 0-1.312-15.386-13.106-26.515-20.324-10.627-6.893-24.375-14.364-31.231-16.97l-3.01-1.145 7.32 10.887 7.32 10.886 8.466 17.333c4.656 9.533 8.467 18.083 8.467 19 0 .917.343 1.667.76 1.667.419 0 3.569-1.907 7-4.237z" clip-path="url(#a)" transform="matrix(.03505 0 0 .03521 78.955 13.816)"/>
</svg>