<svg xmlns="http://www.w3.org/2000/svg" width="210mm" height="297mm" viewBox="0 0 210 297">
    <path d="M112.13 134.483a.018.018 0 0 0-.005.004h.005z" style="font-style:normal;font-weight:400;font-size:17.0078px;font-family:icomoon;vector-effect:none;fill:#000;fill-opacity:1;fill-rule:nonzero;stroke:none;stroke-width:.394479;stroke-linecap:square;stroke-linejoin:bevel" transform="translate(-101.708 -120.464)"/>
    <g style="font-style:normal;font-weight:400;font-size:22.6771px;font-family:icomoon;display:inline;fill:#fff;fill-opacity:1;fill-rule:evenodd;stroke:none;stroke-width:1;stroke-linecap:square;stroke-linejoin:bevel">
        <path d="M2.637-24.375h24.726c.723 0 1.343.259 1.86.776.518.518.777 1.138.777 1.86V2.989c0 .723-.259 1.343-.776 1.86a2.538 2.538 0 0 1-1.86.777H2.636a2.538 2.538 0 0 1-1.86-.776A2.538 2.538 0 0 1 0 2.989v-24.727c0-.723.259-1.343.776-1.86a2.538 2.538 0 0 1 1.86-.777" font-size="22.677" font-weight="400" style="vector-effect:none;fill:#fff;fill-opacity:1;fill-rule:nonzero" transform="matrix(.4904 0 0 .4904 .13 12.118)"/>
    </g>
    <path d="M140.466 212.097c-.361 0-.67.13-.93.39a1.268 1.268 0 0 0-.388.929v12.363c0 .361.13.671.388.93.26.259.569.388.93.388h12.363c.362 0 .671-.13.93-.388.259-.259.389-.569.389-.93v-12.363c0-.362-.13-.671-.389-.93a1.268 1.268 0 0 0-.93-.389zm0 .44h12.363c.245 0 .453.085.623.256.171.17.256.379.256.623v12.363a.848.848 0 0 1-.256.623.848.848 0 0 1-.623.256h-12.363a.848.848 0 0 1-.623-.256.848.848 0 0 1-.256-.623v-12.363c0-.244.085-.452.256-.623a.848.848 0 0 1 .623-.256z" style="font-style:normal;font-weight:400;font-size:17.0078px;font-family:icomoon;vector-effect:none;fill:#000;fill-opacity:1;fill-rule:nonzero;stroke:none;stroke-width:.652173;stroke-linecap:square;stroke-linejoin:bevel" transform="translate(-139.148 -212.098)"/>
    <g transform="matrix(.00158 0 0 .00158 5.092 4.006)">
        <circle cx="834.952" cy="3215.937" r="228.334" style="fill:#000;fill-opacity:1;stroke:#000;stroke-width:27;stroke-linecap:round;stroke-linejoin:bevel;stroke-opacity:0;paint-order:stroke markers fill"/>
        <path d="M977.909 3187.721h1431.258v61.047H977.909z" style="fill:#000;fill-opacity:1;stroke:#000;stroke-width:108.953;stroke-linecap:round;stroke-linejoin:bevel;stroke-opacity:0;paint-order:stroke markers fill"/>
        <circle cx="2542.952" cy="3215.937" r="228.334" style="fill:#000;fill-opacity:1;stroke:#000;stroke-width:27;stroke-linecap:round;stroke-linejoin:bevel;stroke-opacity:0;paint-order:stroke markers fill"/>
        <circle cx="1274.369" cy="3668.979" r="228.334" style="fill:#000;fill-opacity:1;stroke:#000;stroke-width:27;stroke-linecap:round;stroke-linejoin:bevel;stroke-opacity:0;paint-order:stroke markers fill"/>
        <path d="M1301.83 3633.336h694.254v55.592H1301.83z" style="fill:#000;fill-opacity:1;stroke:#000;stroke-width:72.4122;stroke-linecap:round;stroke-linejoin:bevel;stroke-opacity:0;paint-order:stroke markers fill"/>
        <circle cx="2104.369" cy="3668.979" r="228.334" style="fill:#000;fill-opacity:1;stroke:#000;stroke-width:27;stroke-linecap:round;stroke-linejoin:bevel;stroke-opacity:0;paint-order:stroke markers fill"/>
        <circle cx="490.952" cy="2687.937" r="228.334" style="fill:#000;fill-opacity:1;stroke:#000;stroke-width:27;stroke-linecap:round;stroke-linejoin:bevel;stroke-opacity:0;paint-order:stroke markers fill"/>
        <path d="M1339.909 2659.721h1431.258v61.047H1339.909z" style="fill:#000;fill-opacity:1;stroke:#000;stroke-width:108.953;stroke-linecap:round;stroke-linejoin:bevel;stroke-opacity:0;paint-order:stroke markers fill"/>
        <circle cx="2904.952" cy="2687.937" r="228.334" style="fill:#000;fill-opacity:1;stroke:#000;stroke-width:27;stroke-linecap:round;stroke-linejoin:bevel;stroke-opacity:0;paint-order:stroke markers fill"/>
        <path d="M619.909 2659.721h1431.258v61.047H619.909z" style="fill:#000;fill-opacity:1;stroke:#000;stroke-width:108.953;stroke-linecap:round;stroke-linejoin:bevel;stroke-opacity:0;paint-order:stroke markers fill"/>
        <circle cx="422.952" cy="2161.937" r="228.334" style="fill:#000;fill-opacity:1;stroke:#000;stroke-width:27;stroke-linecap:round;stroke-linejoin:bevel;stroke-opacity:0;paint-order:stroke markers fill"/>
        <path d="M1419.909 2133.721h1431.258v61.047H1419.909z" style="fill:#000;fill-opacity:1;stroke:#000;stroke-width:108.953;stroke-linecap:round;stroke-linejoin:bevel;stroke-opacity:0;paint-order:stroke markers fill"/>
        <circle cx="2984.952" cy="2161.937" r="228.334" style="fill:#000;fill-opacity:1;stroke:#000;stroke-width:27;stroke-linecap:round;stroke-linejoin:bevel;stroke-opacity:0;paint-order:stroke markers fill"/>
        <path d="M551.909 2133.721h1431.258v61.047H551.909z" style="fill:#000;fill-opacity:1;stroke:#000;stroke-width:108.953;stroke-linecap:round;stroke-linejoin:bevel;stroke-opacity:0;paint-order:stroke markers fill"/>
        <circle cx="1686.369" cy="4014.979" r="228.334" style="fill:#000;fill-opacity:1;stroke:#000;stroke-width:27;stroke-linecap:round;stroke-linejoin:bevel;stroke-opacity:0;paint-order:stroke markers fill"/>
        <circle cx="834.952" cy="-4804.624" r="228.334" style="fill:#000;fill-opacity:1;stroke:#000;stroke-width:27;stroke-linecap:round;stroke-linejoin:bevel;stroke-opacity:0;paint-order:stroke markers fill" transform="scale(1 -1)"/>
        <path d="M977.909-4832.84h1431.258v61.047H977.909z" style="fill:#000;fill-opacity:1;stroke:#000;stroke-width:108.953;stroke-linecap:round;stroke-linejoin:bevel;stroke-opacity:0;paint-order:stroke markers fill" transform="scale(1 -1)"/>
        <circle cx="2542.952" cy="-4804.624" r="228.334" style="fill:#000;fill-opacity:1;stroke:#000;stroke-width:27;stroke-linecap:round;stroke-linejoin:bevel;stroke-opacity:0;paint-order:stroke markers fill" transform="scale(1 -1)"/>
        <circle cx="1274.369" cy="-4351.583" r="228.334" style="fill:#000;fill-opacity:1;stroke:#000;stroke-width:27;stroke-linecap:round;stroke-linejoin:bevel;stroke-opacity:0;paint-order:stroke markers fill" transform="scale(1 -1)"/>
        <path d="M1301.83-4387.225h694.254v55.592H1301.83z" style="fill:#000;fill-opacity:1;stroke:#000;stroke-width:72.4122;stroke-linecap:round;stroke-linejoin:bevel;stroke-opacity:0;paint-order:stroke markers fill" transform="scale(1 -1)"/>
        <circle cx="2104.369" cy="-4351.583" r="228.334" style="fill:#000;fill-opacity:1;stroke:#000;stroke-width:27;stroke-linecap:round;stroke-linejoin:bevel;stroke-opacity:0;paint-order:stroke markers fill" transform="scale(1 -1)"/>
        <circle cx="490.952" cy="-5332.624" r="228.334" style="fill:#000;fill-opacity:1;stroke:#000;stroke-width:27;stroke-linecap:round;stroke-linejoin:bevel;stroke-opacity:0;paint-order:stroke markers fill" transform="scale(1 -1)"/>
        <path d="M1339.909-5360.84h1431.258v61.047H1339.909z" style="fill:#000;fill-opacity:1;stroke:#000;stroke-width:108.953;stroke-linecap:round;stroke-linejoin:bevel;stroke-opacity:0;paint-order:stroke markers fill" transform="scale(1 -1)"/>
        <circle cx="2904.952" cy="-5332.624" r="228.334" style="fill:#000;fill-opacity:1;stroke:#000;stroke-width:27;stroke-linecap:round;stroke-linejoin:bevel;stroke-opacity:0;paint-order:stroke markers fill" transform="scale(1 -1)"/>
        <path d="M619.909-5360.84h1431.258v61.047H619.909z" style="fill:#000;fill-opacity:1;stroke:#000;stroke-width:108.953;stroke-linecap:round;stroke-linejoin:bevel;stroke-opacity:0;paint-order:stroke markers fill" transform="scale(1 -1)"/>
        <circle cx="422.952" cy="-5858.624" r="228.334" style="fill:#000;fill-opacity:1;stroke:#000;stroke-width:27;stroke-linecap:round;stroke-linejoin:bevel;stroke-opacity:0;paint-order:stroke markers fill" transform="scale(1 -1)"/>
        <path d="M1419.909-5886.84h1431.258v61.047H1419.909z" style="fill:#000;fill-opacity:1;stroke:#000;stroke-width:108.953;stroke-linecap:round;stroke-linejoin:bevel;stroke-opacity:0;paint-order:stroke markers fill" transform="scale(1 -1)"/>
        <circle cx="2984.952" cy="-5858.624" r="228.334" style="fill:#000;fill-opacity:1;stroke:#000;stroke-width:27;stroke-linecap:round;stroke-linejoin:bevel;stroke-opacity:0;paint-order:stroke markers fill" transform="scale(1 -1)"/>
        <path d="M551.909-5886.84h1431.258v61.047H551.909z" style="fill:#000;fill-opacity:1;stroke:#000;stroke-width:108.953;stroke-linecap:round;stroke-linejoin:bevel;stroke-opacity:0;paint-order:stroke markers fill" transform="scale(1 -1)"/>
        <circle cx="1686.369" cy="-4005.582" r="228.334" style="fill:#000;fill-opacity:1;stroke:#000;stroke-width:27;stroke-linecap:round;stroke-linejoin:bevel;stroke-opacity:0;paint-order:stroke markers fill" transform="scale(1 -1)"/>
        <circle cx="834.952" cy="-476.063" r="228.334" style="fill:#000;fill-opacity:1;stroke:#000;stroke-width:27;stroke-linecap:round;stroke-linejoin:bevel;stroke-opacity:0;paint-order:stroke markers fill"/>
        <path d="M977.909-504.279h1431.258v61.047H977.909z" style="fill:#000;fill-opacity:1;stroke:#000;stroke-width:108.953;stroke-linecap:round;stroke-linejoin:bevel;stroke-opacity:0;paint-order:stroke markers fill"/>
        <circle cx="2542.952" cy="-476.063" r="228.334" style="fill:#000;fill-opacity:1;stroke:#000;stroke-width:27;stroke-linecap:round;stroke-linejoin:bevel;stroke-opacity:0;paint-order:stroke markers fill"/>
        <circle cx="1274.369" cy="-23.021" r="228.334" style="fill:#000;fill-opacity:1;stroke:#000;stroke-width:27;stroke-linecap:round;stroke-linejoin:bevel;stroke-opacity:0;paint-order:stroke markers fill"/>
        <path d="M1301.83-58.664h694.254v55.592H1301.83z" style="fill:#000;fill-opacity:1;stroke:#000;stroke-width:72.4122;stroke-linecap:round;stroke-linejoin:bevel;stroke-opacity:0;paint-order:stroke markers fill"/>
        <circle cx="2104.369" cy="-23.021" r="228.334" style="fill:#000;fill-opacity:1;stroke:#000;stroke-width:27;stroke-linecap:round;stroke-linejoin:bevel;stroke-opacity:0;paint-order:stroke markers fill"/>
        <circle cx="490.952" cy="-1004.063" r="228.334" style="fill:#000;fill-opacity:1;stroke:#000;stroke-width:27;stroke-linecap:round;stroke-linejoin:bevel;stroke-opacity:0;paint-order:stroke markers fill"/>
        <path d="M1339.909-1032.279h1431.258v61.047H1339.909z" style="fill:#000;fill-opacity:1;stroke:#000;stroke-width:108.953;stroke-linecap:round;stroke-linejoin:bevel;stroke-opacity:0;paint-order:stroke markers fill"/>
        <circle cx="2904.952" cy="-1004.063" r="228.334" style="fill:#000;fill-opacity:1;stroke:#000;stroke-width:27;stroke-linecap:round;stroke-linejoin:bevel;stroke-opacity:0;paint-order:stroke markers fill"/>
        <path d="M619.909-1032.279h1431.258v61.047H619.909z" style="fill:#000;fill-opacity:1;stroke:#000;stroke-width:108.953;stroke-linecap:round;stroke-linejoin:bevel;stroke-opacity:0;paint-order:stroke markers fill"/>
        <circle cx="422.952" cy="-1530.063" r="228.334" style="fill:#000;fill-opacity:1;stroke:#000;stroke-width:27;stroke-linecap:round;stroke-linejoin:bevel;stroke-opacity:0;paint-order:stroke markers fill"/>
        <path d="M1419.909-1558.279h1431.258v61.047H1419.909z" style="fill:#000;fill-opacity:1;stroke:#000;stroke-width:108.953;stroke-linecap:round;stroke-linejoin:bevel;stroke-opacity:0;paint-order:stroke markers fill"/>
        <circle cx="2984.952" cy="-1530.063" r="228.334" style="fill:#000;fill-opacity:1;stroke:#000;stroke-width:27;stroke-linecap:round;stroke-linejoin:bevel;stroke-opacity:0;paint-order:stroke markers fill"/>
        <path d="M551.909-1558.279h1431.258v61.047H551.909z" style="fill:#000;fill-opacity:1;stroke:#000;stroke-width:108.953;stroke-linecap:round;stroke-linejoin:bevel;stroke-opacity:0;paint-order:stroke markers fill"/>
        <circle cx="1686.369" cy="322.979" r="228.334" style="fill:#000;fill-opacity:1;stroke:#000;stroke-width:27;stroke-linecap:round;stroke-linejoin:bevel;stroke-opacity:0;paint-order:stroke markers fill"/>
        <circle cx="834.952" cy="-1112.624" r="228.334" style="fill:#000;fill-opacity:1;stroke:#000;stroke-width:27;stroke-linecap:round;stroke-linejoin:bevel;stroke-opacity:0;paint-order:stroke markers fill" transform="scale(1 -1)"/>
        <path d="M977.909-1140.84h1431.258v61.047H977.909z" style="fill:#000;fill-opacity:1;stroke:#000;stroke-width:108.953;stroke-linecap:round;stroke-linejoin:bevel;stroke-opacity:0;paint-order:stroke markers fill" transform="scale(1 -1)"/>
        <circle cx="2542.952" cy="-1112.624" r="228.334" style="fill:#000;fill-opacity:1;stroke:#000;stroke-width:27;stroke-linecap:round;stroke-linejoin:bevel;stroke-opacity:0;paint-order:stroke markers fill" transform="scale(1 -1)"/>
        <circle cx="1274.369" cy="-659.583" r="228.334" style="fill:#000;fill-opacity:1;stroke:#000;stroke-width:27;stroke-linecap:round;stroke-linejoin:bevel;stroke-opacity:0;paint-order:stroke markers fill" transform="scale(1 -1)"/>
        <path d="M1301.83-695.225h694.254v55.592H1301.83z" style="fill:#000;fill-opacity:1;stroke:#000;stroke-width:72.4122;stroke-linecap:round;stroke-linejoin:bevel;stroke-opacity:0;paint-order:stroke markers fill" transform="scale(1 -1)"/>
        <circle cx="2104.369" cy="-659.583" r="228.334" style="fill:#000;fill-opacity:1;stroke:#000;stroke-width:27;stroke-linecap:round;stroke-linejoin:bevel;stroke-opacity:0;paint-order:stroke markers fill" transform="scale(1 -1)"/>
        <circle cx="490.952" cy="-1640.624" r="228.334" style="fill:#000;fill-opacity:1;stroke:#000;stroke-width:27;stroke-linecap:round;stroke-linejoin:bevel;stroke-opacity:0;paint-order:stroke markers fill" transform="scale(1 -1)"/>
        <path d="M1339.909-1668.84h1431.258v61.047H1339.909z" style="fill:#000;fill-opacity:1;stroke:#000;stroke-width:108.953;stroke-linecap:round;stroke-linejoin:bevel;stroke-opacity:0;paint-order:stroke markers fill" transform="scale(1 -1)"/>
        <circle cx="2904.952" cy="-1640.624" r="228.334" style="fill:#000;fill-opacity:1;stroke:#000;stroke-width:27;stroke-linecap:round;stroke-linejoin:bevel;stroke-opacity:0;paint-order:stroke markers fill" transform="scale(1 -1)"/>
        <path d="M619.909-1668.84h1431.258v61.047H619.909z" style="fill:#000;fill-opacity:1;stroke:#000;stroke-width:108.953;stroke-linecap:round;stroke-linejoin:bevel;stroke-opacity:0;paint-order:stroke markers fill" transform="scale(1 -1)"/>
        <circle cx="422.952" cy="-2166.624" r="228.334" style="fill:#000;fill-opacity:1;stroke:#000;stroke-width:27;stroke-linecap:round;stroke-linejoin:bevel;stroke-opacity:0;paint-order:stroke markers fill" transform="scale(1 -1)"/>
        <path d="M1419.909-2194.84h1431.258v61.047H1419.909z" style="fill:#000;fill-opacity:1;stroke:#000;stroke-width:108.953;stroke-linecap:round;stroke-linejoin:bevel;stroke-opacity:0;paint-order:stroke markers fill" transform="scale(1 -1)"/>
        <circle cx="2984.952" cy="-2166.624" r="228.334" style="fill:#000;fill-opacity:1;stroke:#000;stroke-width:27;stroke-linecap:round;stroke-linejoin:bevel;stroke-opacity:0;paint-order:stroke markers fill" transform="scale(1 -1)"/>
        <path d="M551.909-2194.84h1431.258v61.047H551.909z" style="fill:#000;fill-opacity:1;stroke:#000;stroke-width:108.953;stroke-linecap:round;stroke-linejoin:bevel;stroke-opacity:0;paint-order:stroke markers fill" transform="scale(1 -1)"/>
        <circle cx="1686.369" cy="-313.583" r="228.334" style="fill:#000;fill-opacity:1;stroke:#000;stroke-width:27;stroke-linecap:round;stroke-linejoin:bevel;stroke-opacity:0;paint-order:stroke markers fill" transform="scale(1 -1)"/>
    </g>
    <path d="M102.788 134.811a.4.4 0 0 1-.167-.033.67.67 0 0 1-.14-.087.66.66 0 0 1-.087-.14.4.4 0 0 1-.034-.168.4.4 0 0 1 .034-.167.67.67 0 0 1 .087-.14l12.84-12.84a.659.659 0 0 1 .14-.087.4.4 0 0 1 .167-.033c.116 0 .216.042.3.127a.411.411 0 0 1 .128.3.398.398 0 0 1-.034.168.663.663 0 0 1-.086.14l-12.84 12.84a.665.665 0 0 1-.14.087.4.4 0 0 1-.168.033" style="font-style:normal;font-weight:400;font-size:15.874px;font-family:icomoon;display:inline;vector-effect:none;fill:red;fill-opacity:1;fill-rule:nonzero;stroke:none;stroke-width:.652173;stroke-linecap:square;stroke-linejoin:bevel" transform="translate(-101.708 -120.464)"/>
</svg>
