<svg
	xmlns="http://www.w3.org/2000/svg"
	xmlns:xlink="http://www.w3.org/1999/xlink" xml:space="preserve" width="20" height="20">
	<defs>
		<path id="a" d="M954.424 863.471c-30.296-.244-34.588 8.353-34.14 22.656.463 14.746 7.367 20.007 33.748 19.588l240.627.068-10.134-40.46z"/>
	</defs>
	<path fill="#fff" d="M1.758 0H18.25c.482 0 .896.173 1.24.52.346.35.519.766.519 1.252v16.626c0 .486-.173.902-.518 1.25a1.693 1.706 0 0 1-1.24.523H1.758a1.693 1.706 0 0 1-1.24-.522A1.693 1.706 0 0 1 0 18.398V1.772C0 1.286.172.87.517.522a1.693 1.706 0 0 1 1.24-.523" font-family="icomoon" font-size="22.677" font-weight="400"/>
	<path d="M3.755 2.352c-.37 0-.686.134-.95.401a1.298 1.308 0 0 0-.398.958v12.747c0 .372.133.692.397.958.265.268.582.4.951.4H16.4c.37 0 .686-.132.95-.4a1.31 1.31 0 0 0 .398-.958V3.712c0-.373-.133-.693-.397-.959a1.298 1.308 0 0 0-.95-.4Zm0 .454H16.4a.86.86 0 0 1 .636.264.867.874 0 0 1 .263.642v12.746a.876.876 0 0 1-.263.642.866.873 0 0 1-.636.264H3.755a.867.874 0 0 1-.636-.264.866.873 0 0 1-.262-.642V3.712c0-.252.087-.466.262-.642a.867.874 0 0 1 .636-.264ZM6.02 5.893c-.004.02-.01.035-.016.052l.03.002z" font-family="icomoon" font-size="17.008" font-weight="400"/>
	<path d="M17.624 1.437c.26 0 .485.095.674.286a.93.93 0 0 1 .283.68v15.364a.93.93 0 0 1-.283.679.92.928 0 0 1-.674.286H2.384a.92.928 0 0 1-.674-.285.92.928 0 0 1-.284-.68V2.402a.93.93 0 0 1 .283-.679.92.928 0 0 1 .674-.286h15.241m0-.472H2.384c-.392 0-.727.14-1.007.423-.28.283-.42.62-.42 1.014v15.365c0 .394.14.732.42 1.014.28.283.615.424 1.007.424h15.24c.391 0 .727-.141 1.007-.424.28-.282.42-.62.42-1.015V2.403c0-.395-.14-.733-.42-1.015a1.368 1.368 0 0 0-1.007-.424m.957-.492c.261 0 .486.095.675.286.188.19.283.416.283.679v17.295c0 .263-.095.49-.283.68a.92.928 0 0 1-.674.286H1.426a.92.928 0 0 1-.675-.286.92.928 0 0 1-.283-.679V1.438a.93.93 0 0 1 .283-.68.92.928 0 0 1 .674-.285H18.58m0-.473H1.427C1.036 0 .7.14.42.423.14.706 0 1.044 0 1.438v17.294c0 .394.14.733.42 1.015.28.282.616.423 1.007.423H18.58c.39 0 .727-.141 1.007-.424.28-.282.42-.62.42-1.014V1.437c0-.394-.14-.733-.421-1.015A1.37 1.37 0 0 0 18.581 0" font-family="icomoon" font-size="22.677" font-weight="400"/>
	<g paint-order="stroke markers fill" transform="matrix(.01861 0 0 .01876 -8.875 -2.357)">
		<circle cx="1019.344" cy="445.21" r="109.043"/>
		<path d="M1161.052 725.684c14.97 26.34 24.443 25.858 36.63 18.359 12.564-7.732 13.697-16.338.219-39.02l-130.735-219.837-27.71 26.555z"/>
	</g>
	<g paint-order="stroke markers fill" transform="matrix(.01861 0 0 .01876 -8.875 -2.357)">
		<circle cx="133.021" cy="-1537.865" r="109.043" transform="rotate(119.81)"/>
		<use xlink:href="#a"/>
	</g>
	<g paint-order="stroke markers fill" transform="matrix(-.00938 .0162 -.01608 -.00946 31.308 1.908)">
		<circle cx="133.021" cy="-1537.865" r="109.043" transform="rotate(119.81)"/>
		<use xlink:href="#a"/>
	</g>
	<g fill="#f9f9f9" paint-order="stroke markers fill" transform="matrix(.01861 0 0 .01876 -8.875 -2.357)">
		<circle cx="986.209" cy="412.678" r="51.187"/>
		<circle cx="724.746" cy="850.056" r="51.187"/>
		<circle cx="1240.443" cy="850.056" r="51.187"/>
	</g>
	<path fill="red" d="M.95 19.86a.564.569 0 0 1-.236-.047.942.95 0 0 1-.198-.124.934.942 0 0 1-.123-.2.564.569 0 0 1-.047-.238c0-.089.015-.168.047-.238a.942.95 0 0 1 .123-.2L18.647.533a.94.948 0 0 1 .198-.123.564.569 0 0 1 .236-.048.58.585 0 0 1 .425.182c.12.12.18.262.18.427a.564.569 0 0 1-.047.238.942.95 0 0 1-.124.2L1.384 19.69a.934.942 0 0 1-.198.124.564.569 0 0 1-.236.047" font-family="icomoon" font-size="21.543" font-weight="400"/>
</svg>
