<svg xmlns="http://www.w3.org/2000/svg" width="210mm" height="297mm" viewBox="0 0 210 297">
    <g style="font-style:normal;font-weight:400;font-size:22.6771px;font-family:icomoon;display:inline;fill:#fff;fill-opacity:1;fill-rule:evenodd;stroke:none;stroke-width:1;stroke-linecap:square;stroke-linejoin:bevel">
        <path d="M2.637-24.375h24.726c.723 0 1.343.259 1.86.776.518.518.777 1.138.777 1.86V2.989c0 .723-.259 1.343-.776 1.86a2.538 2.538 0 0 1-1.86.777H2.636a2.538 2.538 0 0 1-1.86-.776A2.538 2.538 0 0 1 0 2.989v-24.727c0-.723.259-1.343.776-1.86a2.538 2.538 0 0 1 1.86-.777" font-size="22.677" font-weight="400" style="vector-effect:none;fill:#fff;fill-opacity:1;fill-rule:nonzero" transform="translate(.256 14.6) scale(.58805)"/>
    </g>
    <path d="M140.085 229.137c-.383 0-.711.137-.986.412a1.345 1.345 0 0 0-.412.986v13.125c0 .384.137.712.412.986.275.275.603.412.986.412h13.125c.384 0 .712-.137.987-.412.274-.274.412-.602.412-.986v-13.125c0-.384-.138-.712-.412-.986a1.345 1.345 0 0 0-.987-.412zm0 .466h13.125c.26 0 .479.09.66.272a.898.898 0 0 1 .272.66v13.125c0 .26-.09.479-.272.66a.897.897 0 0 1-.66.272h-13.125a.898.898 0 0 1-.66-.272.898.898 0 0 1-.271-.66v-13.125c0-.26.09-.479.271-.66a.898.898 0 0 1 .66-.272z" style="font-style:normal;font-weight:400;font-size:17.0078px;font-family:icomoon;vector-effect:none;fill:#000;fill-opacity:1;fill-rule:nonzero;stroke:none;stroke-width:.692313;stroke-linecap:square;stroke-linejoin:bevel" transform="translate(-137.648 -228.097)"/>
    <path d="M139.072 228.097c-.399 0-.735.14-1.01.415a1.373 1.373 0 0 0-.414 1.01v15.152c0 .398.138.734.414 1.01.275.275.611.414 1.01.414h15.152c.398 0 .734-.14 1.01-.415.275-.275.414-.61.414-1.01v-15.152c0-.398-.139-.734-.414-1.01a1.373 1.373 0 0 0-1.01-.413zm0 .475h15.152c.258 0 .48.094.668.281.187.188.281.41.281.668v15.153c0 .257-.094.48-.281.668a.912.912 0 0 1-.668.28h-15.152a.912.912 0 0 1-.668-.28.913.913 0 0 1-.282-.668V229.52c0-.257.094-.48.282-.668a.913.913 0 0 1 .668-.28z" style="font-style:normal;font-weight:400;font-size:19.8425px;font-family:icomoon;vector-effect:none;fill:#000;fill-opacity:1;fill-rule:nonzero;stroke:none;stroke-width:.692313;stroke-linecap:square;stroke-linejoin:bevel" transform="translate(-137.648 -228.097)"/>
    <g transform="matrix(.00158 0 0 .00158 6.655 5.506)">
        <circle cx="834.952" cy="3215.937" r="228.334" style="fill:#000;fill-opacity:1;stroke:#000;stroke-width:27;stroke-linecap:round;stroke-linejoin:bevel;stroke-opacity:0;paint-order:stroke markers fill"/>
        <path d="M977.909 3187.721h1431.258v61.047H977.909z" style="fill:#000;fill-opacity:1;stroke:#000;stroke-width:108.953;stroke-linecap:round;stroke-linejoin:bevel;stroke-opacity:0;paint-order:stroke markers fill"/>
        <circle cx="2542.952" cy="3215.937" r="228.334" style="fill:#000;fill-opacity:1;stroke:#000;stroke-width:27;stroke-linecap:round;stroke-linejoin:bevel;stroke-opacity:0;paint-order:stroke markers fill"/>
        <circle cx="1274.369" cy="3668.979" r="228.334" style="fill:#000;fill-opacity:1;stroke:#000;stroke-width:27;stroke-linecap:round;stroke-linejoin:bevel;stroke-opacity:0;paint-order:stroke markers fill"/>
        <path d="M1301.83 3633.336h694.254v55.592H1301.83z" style="fill:#000;fill-opacity:1;stroke:#000;stroke-width:72.4122;stroke-linecap:round;stroke-linejoin:bevel;stroke-opacity:0;paint-order:stroke markers fill"/>
        <circle cx="2104.369" cy="3668.979" r="228.334" style="fill:#000;fill-opacity:1;stroke:#000;stroke-width:27;stroke-linecap:round;stroke-linejoin:bevel;stroke-opacity:0;paint-order:stroke markers fill"/>
        <circle cx="490.952" cy="2687.937" r="228.334" style="fill:#000;fill-opacity:1;stroke:#000;stroke-width:27;stroke-linecap:round;stroke-linejoin:bevel;stroke-opacity:0;paint-order:stroke markers fill"/>
        <path d="M1339.909 2659.721h1431.258v61.047H1339.909z" style="fill:#000;fill-opacity:1;stroke:#000;stroke-width:108.953;stroke-linecap:round;stroke-linejoin:bevel;stroke-opacity:0;paint-order:stroke markers fill"/>
        <circle cx="2904.952" cy="2687.937" r="228.334" style="fill:#000;fill-opacity:1;stroke:#000;stroke-width:27;stroke-linecap:round;stroke-linejoin:bevel;stroke-opacity:0;paint-order:stroke markers fill"/>
        <path d="M619.909 2659.721h1431.258v61.047H619.909z" style="fill:#000;fill-opacity:1;stroke:#000;stroke-width:108.953;stroke-linecap:round;stroke-linejoin:bevel;stroke-opacity:0;paint-order:stroke markers fill"/>
        <circle cx="422.952" cy="2161.937" r="228.334" style="fill:#000;fill-opacity:1;stroke:#000;stroke-width:27;stroke-linecap:round;stroke-linejoin:bevel;stroke-opacity:0;paint-order:stroke markers fill"/>
        <path d="M1419.909 2133.721h1431.258v61.047H1419.909z" style="fill:#000;fill-opacity:1;stroke:#000;stroke-width:108.953;stroke-linecap:round;stroke-linejoin:bevel;stroke-opacity:0;paint-order:stroke markers fill"/>
        <circle cx="2984.952" cy="2161.937" r="228.334" style="fill:#000;fill-opacity:1;stroke:#000;stroke-width:27;stroke-linecap:round;stroke-linejoin:bevel;stroke-opacity:0;paint-order:stroke markers fill"/>
        <path d="M551.909 2133.721h1431.258v61.047H551.909z" style="fill:#000;fill-opacity:1;stroke:#000;stroke-width:108.953;stroke-linecap:round;stroke-linejoin:bevel;stroke-opacity:0;paint-order:stroke markers fill"/>
        <circle cx="1686.369" cy="4014.979" r="228.334" style="fill:#000;fill-opacity:1;stroke:#000;stroke-width:27;stroke-linecap:round;stroke-linejoin:bevel;stroke-opacity:0;paint-order:stroke markers fill"/>
        <circle cx="834.952" cy="-4804.624" r="228.334" style="fill:#000;fill-opacity:1;stroke:#000;stroke-width:27;stroke-linecap:round;stroke-linejoin:bevel;stroke-opacity:0;paint-order:stroke markers fill" transform="scale(1 -1)"/>
        <path d="M977.909-4832.84h1431.258v61.047H977.909z" style="fill:#000;fill-opacity:1;stroke:#000;stroke-width:108.953;stroke-linecap:round;stroke-linejoin:bevel;stroke-opacity:0;paint-order:stroke markers fill" transform="scale(1 -1)"/>
        <circle cx="2542.952" cy="-4804.624" r="228.334" style="fill:#000;fill-opacity:1;stroke:#000;stroke-width:27;stroke-linecap:round;stroke-linejoin:bevel;stroke-opacity:0;paint-order:stroke markers fill" transform="scale(1 -1)"/>
        <circle cx="1274.369" cy="-4351.583" r="228.334" style="fill:#000;fill-opacity:1;stroke:#000;stroke-width:27;stroke-linecap:round;stroke-linejoin:bevel;stroke-opacity:0;paint-order:stroke markers fill" transform="scale(1 -1)"/>
        <path d="M1301.83-4387.225h694.254v55.592H1301.83z" style="fill:#000;fill-opacity:1;stroke:#000;stroke-width:72.4122;stroke-linecap:round;stroke-linejoin:bevel;stroke-opacity:0;paint-order:stroke markers fill" transform="scale(1 -1)"/>
        <circle cx="2104.369" cy="-4351.583" r="228.334" style="fill:#000;fill-opacity:1;stroke:#000;stroke-width:27;stroke-linecap:round;stroke-linejoin:bevel;stroke-opacity:0;paint-order:stroke markers fill" transform="scale(1 -1)"/>
        <circle cx="490.952" cy="-5332.624" r="228.334" style="fill:#000;fill-opacity:1;stroke:#000;stroke-width:27;stroke-linecap:round;stroke-linejoin:bevel;stroke-opacity:0;paint-order:stroke markers fill" transform="scale(1 -1)"/>
        <path d="M1339.909-5360.84h1431.258v61.047H1339.909z" style="fill:#000;fill-opacity:1;stroke:#000;stroke-width:108.953;stroke-linecap:round;stroke-linejoin:bevel;stroke-opacity:0;paint-order:stroke markers fill" transform="scale(1 -1)"/>
        <circle cx="2904.952" cy="-5332.624" r="228.334" style="fill:#000;fill-opacity:1;stroke:#000;stroke-width:27;stroke-linecap:round;stroke-linejoin:bevel;stroke-opacity:0;paint-order:stroke markers fill" transform="scale(1 -1)"/>
        <path d="M619.909-5360.84h1431.258v61.047H619.909z" style="fill:#000;fill-opacity:1;stroke:#000;stroke-width:108.953;stroke-linecap:round;stroke-linejoin:bevel;stroke-opacity:0;paint-order:stroke markers fill" transform="scale(1 -1)"/>
        <circle cx="422.952" cy="-5858.624" r="228.334" style="fill:#000;fill-opacity:1;stroke:#000;stroke-width:27;stroke-linecap:round;stroke-linejoin:bevel;stroke-opacity:0;paint-order:stroke markers fill" transform="scale(1 -1)"/>
        <path d="M1419.909-5886.84h1431.258v61.047H1419.909z" style="fill:#000;fill-opacity:1;stroke:#000;stroke-width:108.953;stroke-linecap:round;stroke-linejoin:bevel;stroke-opacity:0;paint-order:stroke markers fill" transform="scale(1 -1)"/>
        <circle cx="2984.952" cy="-5858.624" r="228.334" style="fill:#000;fill-opacity:1;stroke:#000;stroke-width:27;stroke-linecap:round;stroke-linejoin:bevel;stroke-opacity:0;paint-order:stroke markers fill" transform="scale(1 -1)"/>
        <path d="M551.909-5886.84h1431.258v61.047H551.909z" style="fill:#000;fill-opacity:1;stroke:#000;stroke-width:108.953;stroke-linecap:round;stroke-linejoin:bevel;stroke-opacity:0;paint-order:stroke markers fill" transform="scale(1 -1)"/>
        <circle cx="1686.369" cy="-4005.582" r="228.334" style="fill:#000;fill-opacity:1;stroke:#000;stroke-width:27;stroke-linecap:round;stroke-linejoin:bevel;stroke-opacity:0;paint-order:stroke markers fill" transform="scale(1 -1)"/>
        <circle cx="834.952" cy="-476.063" r="228.334" style="fill:#000;fill-opacity:1;stroke:#000;stroke-width:27;stroke-linecap:round;stroke-linejoin:bevel;stroke-opacity:0;paint-order:stroke markers fill"/>
        <path d="M977.909-504.279h1431.258v61.047H977.909z" style="fill:#000;fill-opacity:1;stroke:#000;stroke-width:108.953;stroke-linecap:round;stroke-linejoin:bevel;stroke-opacity:0;paint-order:stroke markers fill"/>
        <circle cx="2542.952" cy="-476.063" r="228.334" style="fill:#000;fill-opacity:1;stroke:#000;stroke-width:27;stroke-linecap:round;stroke-linejoin:bevel;stroke-opacity:0;paint-order:stroke markers fill"/>
        <circle cx="1274.369" cy="-23.021" r="228.334" style="fill:#000;fill-opacity:1;stroke:#000;stroke-width:27;stroke-linecap:round;stroke-linejoin:bevel;stroke-opacity:0;paint-order:stroke markers fill"/>
        <path d="M1301.83-58.664h694.254v55.592H1301.83z" style="fill:#000;fill-opacity:1;stroke:#000;stroke-width:72.4122;stroke-linecap:round;stroke-linejoin:bevel;stroke-opacity:0;paint-order:stroke markers fill"/>
        <circle cx="2104.369" cy="-23.021" r="228.334" style="fill:#000;fill-opacity:1;stroke:#000;stroke-width:27;stroke-linecap:round;stroke-linejoin:bevel;stroke-opacity:0;paint-order:stroke markers fill"/>
        <circle cx="490.952" cy="-1004.063" r="228.334" style="fill:#000;fill-opacity:1;stroke:#000;stroke-width:27;stroke-linecap:round;stroke-linejoin:bevel;stroke-opacity:0;paint-order:stroke markers fill"/>
        <path d="M1339.909-1032.279h1431.258v61.047H1339.909z" style="fill:#000;fill-opacity:1;stroke:#000;stroke-width:108.953;stroke-linecap:round;stroke-linejoin:bevel;stroke-opacity:0;paint-order:stroke markers fill"/>
        <circle cx="2904.952" cy="-1004.063" r="228.334" style="fill:#000;fill-opacity:1;stroke:#000;stroke-width:27;stroke-linecap:round;stroke-linejoin:bevel;stroke-opacity:0;paint-order:stroke markers fill"/>
        <path d="M619.909-1032.279h1431.258v61.047H619.909z" style="fill:#000;fill-opacity:1;stroke:#000;stroke-width:108.953;stroke-linecap:round;stroke-linejoin:bevel;stroke-opacity:0;paint-order:stroke markers fill"/>
        <circle cx="422.952" cy="-1530.063" r="228.334" style="fill:#000;fill-opacity:1;stroke:#000;stroke-width:27;stroke-linecap:round;stroke-linejoin:bevel;stroke-opacity:0;paint-order:stroke markers fill"/>
        <path d="M1419.909-1558.279h1431.258v61.047H1419.909z" style="fill:#000;fill-opacity:1;stroke:#000;stroke-width:108.953;stroke-linecap:round;stroke-linejoin:bevel;stroke-opacity:0;paint-order:stroke markers fill"/>
        <circle cx="2984.952" cy="-1530.063" r="228.334" style="fill:#000;fill-opacity:1;stroke:#000;stroke-width:27;stroke-linecap:round;stroke-linejoin:bevel;stroke-opacity:0;paint-order:stroke markers fill"/>
        <path d="M551.909-1558.279h1431.258v61.047H551.909z" style="fill:#000;fill-opacity:1;stroke:#000;stroke-width:108.953;stroke-linecap:round;stroke-linejoin:bevel;stroke-opacity:0;paint-order:stroke markers fill"/>
        <circle cx="1686.369" cy="322.979" r="228.334" style="fill:#000;fill-opacity:1;stroke:#000;stroke-width:27;stroke-linecap:round;stroke-linejoin:bevel;stroke-opacity:0;paint-order:stroke markers fill"/>
        <circle cx="834.952" cy="-1112.624" r="228.334" style="fill:#000;fill-opacity:1;stroke:#000;stroke-width:27;stroke-linecap:round;stroke-linejoin:bevel;stroke-opacity:0;paint-order:stroke markers fill" transform="scale(1 -1)"/>
        <path d="M977.909-1140.84h1431.258v61.047H977.909z" style="fill:#000;fill-opacity:1;stroke:#000;stroke-width:108.953;stroke-linecap:round;stroke-linejoin:bevel;stroke-opacity:0;paint-order:stroke markers fill" transform="scale(1 -1)"/>
        <circle cx="2542.952" cy="-1112.624" r="228.334" style="fill:#000;fill-opacity:1;stroke:#000;stroke-width:27;stroke-linecap:round;stroke-linejoin:bevel;stroke-opacity:0;paint-order:stroke markers fill" transform="scale(1 -1)"/>
        <circle cx="1274.369" cy="-659.583" r="228.334" style="fill:#000;fill-opacity:1;stroke:#000;stroke-width:27;stroke-linecap:round;stroke-linejoin:bevel;stroke-opacity:0;paint-order:stroke markers fill" transform="scale(1 -1)"/>
        <path d="M1301.83-695.225h694.254v55.592H1301.83z" style="fill:#000;fill-opacity:1;stroke:#000;stroke-width:72.4122;stroke-linecap:round;stroke-linejoin:bevel;stroke-opacity:0;paint-order:stroke markers fill" transform="scale(1 -1)"/>
        <circle cx="2104.369" cy="-659.583" r="228.334" style="fill:#000;fill-opacity:1;stroke:#000;stroke-width:27;stroke-linecap:round;stroke-linejoin:bevel;stroke-opacity:0;paint-order:stroke markers fill" transform="scale(1 -1)"/>
        <circle cx="490.952" cy="-1640.624" r="228.334" style="fill:#000;fill-opacity:1;stroke:#000;stroke-width:27;stroke-linecap:round;stroke-linejoin:bevel;stroke-opacity:0;paint-order:stroke markers fill" transform="scale(1 -1)"/>
        <path d="M1339.909-1668.84h1431.258v61.047H1339.909z" style="fill:#000;fill-opacity:1;stroke:#000;stroke-width:108.953;stroke-linecap:round;stroke-linejoin:bevel;stroke-opacity:0;paint-order:stroke markers fill" transform="scale(1 -1)"/>
        <circle cx="2904.952" cy="-1640.624" r="228.334" style="fill:#000;fill-opacity:1;stroke:#000;stroke-width:27;stroke-linecap:round;stroke-linejoin:bevel;stroke-opacity:0;paint-order:stroke markers fill" transform="scale(1 -1)"/>
        <path d="M619.909-1668.84h1431.258v61.047H619.909z" style="fill:#000;fill-opacity:1;stroke:#000;stroke-width:108.953;stroke-linecap:round;stroke-linejoin:bevel;stroke-opacity:0;paint-order:stroke markers fill" transform="scale(1 -1)"/>
        <circle cx="422.952" cy="-2166.624" r="228.334" style="fill:#000;fill-opacity:1;stroke:#000;stroke-width:27;stroke-linecap:round;stroke-linejoin:bevel;stroke-opacity:0;paint-order:stroke markers fill" transform="scale(1 -1)"/>
        <path d="M1419.909-2194.84h1431.258v61.047H1419.909z" style="fill:#000;fill-opacity:1;stroke:#000;stroke-width:108.953;stroke-linecap:round;stroke-linejoin:bevel;stroke-opacity:0;paint-order:stroke markers fill" transform="scale(1 -1)"/>
        <circle cx="2984.952" cy="-2166.624" r="228.334" style="fill:#000;fill-opacity:1;stroke:#000;stroke-width:27;stroke-linecap:round;stroke-linejoin:bevel;stroke-opacity:0;paint-order:stroke markers fill" transform="scale(1 -1)"/>
        <path d="M551.909-2194.84h1431.258v61.047H551.909z" style="fill:#000;fill-opacity:1;stroke:#000;stroke-width:108.953;stroke-linecap:round;stroke-linejoin:bevel;stroke-opacity:0;paint-order:stroke markers fill" transform="scale(1 -1)"/>
        <circle cx="1686.369" cy="-313.583" r="228.334" style="fill:#000;fill-opacity:1;stroke:#000;stroke-width:27;stroke-linecap:round;stroke-linejoin:bevel;stroke-opacity:0;paint-order:stroke markers fill" transform="scale(1 -1)"/>
    </g>
    <path d="M104.043 134.673a.505.505 0 0 1-.211-.042.841.841 0 0 1-.177-.11.838.838 0 0 1-.11-.178.505.505 0 0 1-.043-.211c0-.079.014-.15.043-.211a.842.842 0 0 1 .11-.178l16.225-16.226a.84.84 0 0 1 .178-.11.505.505 0 0 1 .211-.042.52.52 0 0 1 .38.16.52.52 0 0 1 .161.38c0 .08-.014.15-.042.212a.842.842 0 0 1-.11.178l-16.226 16.226a.838.838 0 0 1-.177.11.505.505 0 0 1-.212.042" style="font-style:normal;font-weight:400;font-size:18.7086px;font-family:icomoon;display:inline;vector-effect:none;fill:red;fill-opacity:1;fill-rule:nonzero;stroke:none;stroke-width:.692313;stroke-linecap:square;stroke-linejoin:bevel" transform="translate(-103.156 -117.019)"/>
</svg>
