<svg
	xmlns="http://www.w3.org/2000/svg" width="20" height="20">
	<path fill="red" d="M1.942.133h16.137c.472 0 .877.17 1.214.508.339.339.507.745.507 1.218v16.186c0 .472-.168.878-.507 1.217a1.653 1.653 0 0 1-1.212.508H1.94c-.47 0-.876-.17-1.213-.508a1.653 1.66 0 0 1-.507-1.219V1.858C.221 1.386.39.98.728.64A1.657 1.657 0 0 1 1.94.133" font-family="icomoon" font-size="19.843" font-weight="400"/>
	<path d="M9.412 4.083c-.016.004-.03.004-.045.01-.01.005-.021.006-.028.013-.01.01.027.004.04-.001l.032-.022z" font-family="icomoon" font-size="17.008" font-weight="400"/>
	<path d="M1.757 0C1.276 0 .862.174.517.52A1.691 1.699 0 0 0 0 1.767v16.55c0 .484.173.9.517 1.246.345.348.759.52 1.24.52h16.478c.483 0 .896-.174 1.24-.52.346-.346.518-.762.518-1.245V1.766c0-.483-.173-.9-.517-1.245a1.691 1.699 0 0 0-1.24-.52zm0 .589h16.478c.327 0 .603.114.83.343.227.229.342.507.342.834v16.55a1.13 1.135 0 0 1-.341.835 1.129 1.134 0 0 1-.83.342H1.755a1.129 1.134 0 0 1-.828-.342 1.13 1.135 0 0 1-.343-.834V1.766c0-.327.115-.605.343-.834a1.13 1.135 0 0 1 .829-.343Z" font-family="icomoon" font-size="17.008" font-weight="400"/>
	<path d="M6.817 13.907a.962.967 0 0 1-.28-.106.71.714 0 0 1-.354-.566l-.007-.06.012-.104a.989.993 0 0 1 .092-.334c.053-.117.124-.228.319-.506a6.98 6.98 0 0 0 .386-.592c.215-.392.333-.785.453-1.512.086-.508.092-.58.216-2.34a88.286 88.68 0 0 1 .07-.945l.009-.107-.09-.007-.093-.006-.196.01-.197.011-.136.024c-.413.071-.65.197-.922.489a4.382 4.402 0 0 0-.493.675L5.562 8h-.27l.009-.037c.014-.07.177-.549.24-.708l.06-.157.102-.205.101-.203.09-.14c.052-.077.132-.19.178-.25l.086-.11.162-.165.164-.165.093-.067c.05-.039.13-.09.174-.114l.082-.043.12-.04.121-.04.146-.03a3.92 3.92 0 0 1 .254-.042l.11-.014 3.146-.005 3.146-.005v1.266l-1.04.003c-.573 0-1.043.005-1.045.006-.013.014-.164 1.208-.21 1.673a21.54 21.54 0 0 0-.12 1.77l-.014.472.014.377.013.38.036.133c.04.158.075.25.14.371a.96.96 0 0 0 .516.458c.59.244 1.223-.052 1.374-.676l.04-.165.006-.03.071-.009c.04-.004.103-.008.139-.008h.066l-.005.043c-.036.255-.107.6-.168.82-.13.463-.297.781-.552 1.05a2.202 2.212 0 0 1-.354.294 2.775 2.775 0 0 1-.168.093 1.247 1.253 0 0 1-1.293-.107l-.092-.067-.113-.118-.112-.117-.065-.098a2.04 2.048 0 0 1-.276-.663 5.646 5.67 0 0 1-.134-.862l-.02-.193-.002-.553-.003-.553.01-.326.009-.325.037-.416c.101-1.166.164-1.759.25-2.412l.031-.23-.008-.008-.008-.008-1.069.002c-.588 0-1.07.004-1.071.006-.003.002-.018.187-.063.84-.035.495-.088 1.217-.121 1.66a28.162 28.162 0 0 1-.32 2.4c-.14.772-.293 1.349-.43 1.623a2.392 2.403 0 0 1-.114.192 1.269 1.274 0 0 1-.353.372.777.78 0 0 1-.132.062.716.719 0 0 1-.333.021z"/>
</svg>