<svg
	xmlns="http://www.w3.org/2000/svg" width="20" height="20">
	<path fill="#fff" d="M2.008.296h16.156c.473 0 .878.17 1.216.507.338.338.507.744.507 1.215v16.158c0 .473-.169.878-.507 1.216a1.658 1.658 0 0 1-1.215.507H2.007a1.658 1.658 0 0 1-1.215-.507 1.658 1.658 0 0 1-.508-1.216V2.02c0-.472.17-.878.508-1.215A1.658 1.658 0 0 1 2.007.296" font-family="icomoon" font-size="22.677" font-weight="400"/>
	<path d="M2.708 1.156c-.426 0-.79.152-1.096.457a1.495 1.495 0 0 0-.457 1.096v14.584c0 .427.152.791.457 1.096.306.306.67.458 1.096.458h14.584c.427 0 .791-.152 1.097-.458.305-.305.458-.669.458-1.096V2.71c0-.427-.153-.791-.458-1.096a1.495 1.495 0 0 0-1.097-.457zm0 .517h14.584c.29 0 .533.1.734.303a.998.998 0 0 1 .302.733v14.584c0 .29-.1.533-.302.734a.997.997 0 0 1-.734.302H2.708a.998.998 0 0 1-.733-.302.998.998 0 0 1-.302-.734V2.71c0-.289.1-.532.302-.733a.998.998 0 0 1 .733-.303Z" font-family="icomoon" font-size="17.008" font-weight="400"/>
	<path d="M1.582 0C1.14 0 .766.156.46.461A1.526 1.526 0 0 0 0 1.583V18.42c0 .442.153.816.46 1.122.306.306.679.46 1.122.46H18.42c.442 0 .816-.155 1.122-.46.306-.306.46-.679.46-1.123V1.582a1.53 1.53 0 0 0-.46-1.122A1.526 1.526 0 0 0 18.42.001Zm0 .528H18.42c.287 0 .533.104.742.312.208.209.313.456.313.742V18.42c0 .286-.105.533-.313.742a1.013 1.013 0 0 1-.742.311H1.582a1.013 1.013 0 0 1-.742-.31 1.015 1.015 0 0 1-.313-.743V1.581c0-.285.104-.533.313-.742a1.015 1.015 0 0 1 .742-.311Z" font-family="icomoon" font-size="19.843" font-weight="400"/>
	<g paint-order="stroke markers fill" transform="translate(7.395 6.118) scale(.00176)">
		<circle cx="834.952" cy="3215.937" r="228.334"/>
		<path d="M977.909 3187.721h1431.258v61.047H977.909Z"/>
		<circle cx="2542.952" cy="3215.937" r="228.334"/>
		<circle cx="1274.369" cy="3668.979" r="228.334"/>
		<path d="M1301.83 3633.336h694.254v55.592H1301.83Z"/>
		<circle cx="2104.369" cy="3668.979" r="228.334"/>
		<circle cx="490.952" cy="2687.937" r="228.334"/>
		<path d="M1339.909 2659.721h1431.258v61.047H1339.909Z"/>
		<circle cx="2904.952" cy="2687.937" r="228.334"/>
		<path d="M619.909 2659.721h1431.258v61.047H619.909Z"/>
		<circle cx="422.952" cy="2161.937" r="228.334"/>
		<path d="M1419.909 2133.721h1431.258v61.047H1419.909Z"/>
		<circle cx="2984.952" cy="2161.937" r="228.334"/>
		<path d="M551.909 2133.721h1431.258v61.047H551.909Z"/>
		<circle cx="1686.369" cy="4014.979" r="228.334"/>
		<circle cx="834.952" cy="-4804.624" r="228.334" transform="scale(1 -1)"/>
		<path d="M977.909 4832.84h1431.258v-61.047H977.909Z"/>
		<circle cx="2542.952" cy="-4804.624" r="228.334" transform="scale(1 -1)"/>
		<circle cx="1274.369" cy="-4351.583" r="228.334" transform="scale(1 -1)"/>
		<path d="M1301.83 4387.225h694.254v-55.592H1301.83Z"/>
		<circle cx="2104.369" cy="-4351.583" r="228.334" transform="scale(1 -1)"/>
		<circle cx="490.952" cy="-5332.624" r="228.334" transform="scale(1 -1)"/>
		<path d="M1339.909 5360.84h1431.258v-61.047H1339.909Z"/>
		<circle cx="2904.952" cy="-5332.624" r="228.334" transform="scale(1 -1)"/>
		<path d="M619.909 5360.84h1431.258v-61.047H619.909Z"/>
		<circle cx="422.952" cy="-5858.624" r="228.334" transform="scale(1 -1)"/>
		<path d="M1419.909 5886.84h1431.258v-61.047H1419.909Z"/>
		<circle cx="2984.952" cy="-5858.624" r="228.334" transform="scale(1 -1)"/>
		<path d="M551.909 5886.84h1431.258v-61.047H551.909Z"/>
		<circle cx="1686.369" cy="-4005.582" r="228.334" transform="scale(1 -1)"/>
		<circle cx="834.952" cy="-476.063" r="228.334"/>
		<path d="M977.909-504.279h1431.258v61.047H977.909Z"/>
		<circle cx="2542.952" cy="-476.063" r="228.334"/>
		<circle cx="1274.369" cy="-23.021" r="228.334"/>
		<path d="M1301.83-58.664h694.254v55.592H1301.83Z"/>
		<circle cx="2104.369" cy="-23.021" r="228.334"/>
		<circle cx="490.952" cy="-1004.063" r="228.334"/>
		<path d="M1339.909-1032.279h1431.258v61.047H1339.909Z"/>
		<circle cx="2904.952" cy="-1004.063" r="228.334"/>
		<path d="M619.909-1032.279h1431.258v61.047H619.909Z"/>
		<circle cx="422.952" cy="-1530.063" r="228.334"/>
		<path d="M1419.909-1558.279h1431.258v61.047H1419.909Z"/>
		<circle cx="2984.952" cy="-1530.063" r="228.334"/>
		<path d="M551.909-1558.279h1431.258v61.047H551.909Z"/>
		<circle cx="1686.369" cy="322.979" r="228.334"/>
		<circle cx="834.952" cy="-1112.624" r="228.334" transform="scale(1 -1)"/>
		<path d="M977.909 1140.84h1431.258v-61.047H977.909Z"/>
		<circle cx="2542.952" cy="-1112.624" r="228.334" transform="scale(1 -1)"/>
		<circle cx="1274.369" cy="-659.583" r="228.334" transform="scale(1 -1)"/>
		<path d="M1301.83 695.225h694.254v-55.592H1301.83Z"/>
		<circle cx="2104.369" cy="-659.583" r="228.334" transform="scale(1 -1)"/>
		<circle cx="490.952" cy="-1640.624" r="228.334" transform="scale(1 -1)"/>
		<path d="M1339.909 1668.84h1431.258v-61.047H1339.909Z"/>
		<circle cx="2904.952" cy="-1640.624" r="228.334" transform="scale(1 -1)"/>
		<path d="M619.909 1668.84h1431.258v-61.047H619.909Z"/>
		<circle cx="422.952" cy="-2166.624" r="228.334" transform="scale(1 -1)"/>
		<path d="M1419.909 2194.84h1431.258v-61.047H1419.909Z"/>
		<circle cx="2984.952" cy="-2166.624" r="228.334" transform="scale(1 -1)"/>
		<path d="M551.909 2194.84h1431.258v-61.047H551.909Z"/>
		<circle cx="1686.369" cy="-313.583" r="228.334" transform="scale(1 -1)"/>
	</g>
	<path fill="red" d="M.986 19.617a.561.561 0 0 1-.235-.047.935.935 0 0 1-.196-.122.931.931 0 0 1-.123-.198.561.561 0 0 1-.047-.234c0-.088.015-.167.047-.235a.936.936 0 0 1 .123-.198L18.583.553a.933.933 0 0 1 .198-.122.561.561 0 0 1 .235-.047.578.578 0 0 1 .422.178.578.578 0 0 1 .179.423.564.564 0 0 1-.047.235.936.936 0 0 1-.122.198l-18.03 18.03a.931.931 0 0 1-.197.122.561.561 0 0 1-.235.047" font-family="icomoon" font-size="18.709" font-weight="400"/>
</svg>