<svg xmlns="http://www.w3.org/2000/svg" width="20" height="20" version="1.2">
    <g font-weight="400" style="fill:none;fill-rule:evenodd;stroke:#000;stroke-width:1;stroke-linecap:square;stroke-linejoin:bevel">
        <g style="font-style:normal;font-weight:400;font-size:17.00779915px;font-family:icomoon;fill:#fff;fill-opacity:1;stroke:none">
            <path d="M2.021-18.688h18.957c.555 0 1.03.199 1.427.596.397.396.595.872.595 1.426V2.291c0 .554-.198 1.03-.595 1.426a1.946 1.946 0 0 1-1.427.595H2.021c-.554 0-1.029-.198-1.426-.595A1.946 1.946 0 0 1 0 2.291v-18.957c0-.554.198-1.03.595-1.426a1.946 1.946 0 0 1 1.426-.596" font-size="17.008" style="vector-effect:none;fill-rule:nonzero" transform="matrix(.65217 0 0 .65217 2.5 14.687)"/>
        </g>
        <g style="font-style:normal;font-weight:400;font-size:17.00779915px;font-family:icomoon;fill:#000;fill-opacity:1;stroke:none">
            <path d="M20.979-18.014a1.3 1.3 0 0 1 .954.393 1.3 1.3 0 0 1 .393.955V2.291a1.3 1.3 0 0 1-.393.955 1.3 1.3 0 0 1-.955.393H2.021a1.3 1.3 0 0 1-.954-.393 1.3 1.3 0 0 1-.393-.955v-18.957a1.3 1.3 0 0 1 .393-.955 1.3 1.3 0 0 1 .954-.393h18.957m0-.674H2.021c-.554 0-1.029.199-1.426.596A1.946 1.946 0 0 0 0-16.666V2.291c0 .554.198 1.03.595 1.426.397.397.872.595 1.426.595h18.957c.555 0 1.03-.198 1.427-.595.397-.397.595-.872.595-1.426v-18.957c0-.554-.198-1.03-.595-1.426a1.946 1.946 0 0 0-1.426-.596m-3.01 3.64a.323.323 0 0 0-.101-.237.323.323 0 0 0-.236-.1.272.272 0 0 0-.18.055.58.58 0 0 0-.112.124l-6.828 1.82h-.045a.323.323 0 0 0-.236.1.323.323 0 0 0-.101.236v9.86a3.098 3.098 0 0 0-.966-.685 2.867 2.867 0 0 0-1.213-.258h-.18c-.733 0-1.362.247-1.886.741a2.643 2.643 0 0 0-.854 1.82v.022c.045.704.326 1.307.843 1.808a2.567 2.567 0 0 0 1.853.753h.404c.719 0 1.336-.247 1.853-.741.517-.495.797-1.101.842-1.82v-9.321l6.469-1.73v7.435a3.216 3.216 0 0 0-.988-.674 2.977 2.977 0 0 0-1.213-.247h-.18c-.734 0-1.363.243-1.887.73a2.603 2.603 0 0 0-.853 1.808c.045.719.326 1.33.842 1.83a2.567 2.567 0 0 0 1.853.753h.112a.2.2 0 0 0 .09-.022h-.022c.03.015.056.022.078.022h.08c.733 0 1.362-.25 1.886-.752a2.662 2.662 0 0 0 .853-1.808v-.023l.023-11.5" font-size="17.008" style="vector-effect:none;fill-rule:nonzero" transform="matrix(.65217 0 0 .65217 2.5 14.687)"/>
        </g>
    </g>
</svg>
