<svg
	xmlns="http://www.w3.org/2000/svg" width="20" height="20">
	<defs>
		<clipPath id="a" clipPathUnits="userSpaceOnUse">
			<path fill="red" stroke-width=".265" d="M32.017 225.513v.183a.807.807 0 0 1 .079-.032c.08-.028.179-.047.261-.005.046.023.077.068.115.103.014.05.04.1.041.152.003.13-.063.23-.147.323a1.166 1.166 0 0 1-.163.14l-.01.008a1.287 1.287 0 0 1-.176.588v1.469h3.554v-2.929zm.201.404a.395.395 0 0 0-.116.03c.016.038.03.077.048.114l.002.012c.107-.118.011-.02.068-.114.003-.005.01-.007.015-.01.01-.002.023.002.03-.005.005-.005.003-.02-.004-.022a.117.117 0 0 0-.043-.005z"/>
		</clipPath>
	</defs>
	<path fill="red" d="M1.757 0h16.475c.482 0 .895.172 1.24.518.344.344.517.758.517 1.24v16.484c0 .483-.172.896-.517 1.24a1.69 1.69 0 0 1-1.24.518H1.757c-.482 0-.895-.172-1.24-.518A1.691 1.692 0 0 1 0 18.242V1.758C0 1.276.172.862.518.518A1.69 1.69 0 0 1 1.757 0" font-family="icomoon" font-size="19.843" font-weight="400"/>
	<path d="M2.707 1.153c-.426 0-.791.154-1.096.46a1.496 1.497 0 0 0-.458 1.096V17.29c0 .427.153.793.458 1.097.305.306.67.459 1.096.459h14.575c.426 0 .791-.153 1.096-.459.305-.304.458-.67.458-1.097V2.71c0-.427-.153-.792-.458-1.097a1.496 1.497 0 0 0-1.096-.459Zm0 .52h14.575a1 1 0 0 1 .733.301 1 1 0 0 1 .303.735V17.29a1 1 0 0 1-.302.734 1 1 0 0 1-.734.303H2.707a1 1 0 0 1-.733-.302 1 1 0 0 1-.303-.735V2.71a1 1 0 0 1 .302-.733 1 1 0 0 1 .734-.304Z" font-family="icomoon" font-size="17.008" font-weight="400"/>
	<path d="M1.581 0A1.52 1.52 0 0 0 .46.459 1.527 1.528 0 0 0 0 1.58v16.837c0 .443.153.817.459 1.122.305.307.68.46 1.121.46h16.828a1.52 1.52 0 0 0 1.121-.459c.307-.306.46-.68.46-1.122V1.581c0-.443-.153-.817-.459-1.122A1.527 1.528 0 0 0 18.41 0Zm0 .528h16.827c.286 0 .533.103.742.31.208.21.312.458.312.744v16.836c0 .287-.104.533-.311.742a1.013 1.013 0 0 1-.743.312H1.58a1.014 1.014 0 0 1-.741-.31 1.014 1.014 0 0 1-.312-.744V1.582c0-.286.103-.533.31-.742A1.014 1.014 0 0 1 1.58.528Z" font-family="icomoon" font-size="19.843" font-weight="400"/>
	<path d="M6.763 14.303c.118-1.84.774-5.695 3.882-7.405.692-.38 1.792-.867 2.623-1.409 1.134-.738 3.02-2.264 3.205-2.493.231-.287.408 4.744-1.628 7.807-2.114 3.184-8.083 3.5-8.083 3.5z"/>
	<path fill="red" d="M7.537 13.586c.63-1.3 1.476-2.6 2.632-3.64 1.12-1.005 2.787-1.665 3.822-2.75.648-.678 1.164-1.573 1.555-2.438-.189.938-.542 1.844-1.184 2.669-.974 1.25-2.48 1.886-3.701 2.898-1.233 1.02-2.099 2.125-3.123 3.26Z"/>
	<path fill="#020202" d="M32.59 228.18c-.198.002-.363 0-.57 0 .136-.11 0 .001.061-.051l3.102-2.561a.263.263 0 0 1 .322 0 .165.165 0 0 1 0 .265l-2.8 2.254a.895.895 0 0 1-.115.093z" clip-path="url(#a)" transform="matrix(1.1105 0 0 1.11112 -32.045 -236.753)"/>
</svg>