<svg xmlns="http://www.w3.org/2000/svg" width="20" height="20" version="1.2">
    <g font-weight="400" style="fill:none;fill-rule:evenodd;stroke:#000;stroke-width:1;stroke-linecap:square;stroke-linejoin:bevel">
        <g style="font-style:normal;font-weight:400;font-size:22.67709923px;font-family:icomoon;fill:red;fill-opacity:1;stroke:none">
            <path d="M2.637-24.375h24.726c.723 0 1.343.259 1.86.776.518.518.777 1.138.777 1.86V2.989c0 .723-.259 1.343-.776 1.86a2.538 2.538 0 0 1-1.86.777H2.636a2.538 2.538 0 0 1-1.86-.776A2.538 2.538 0 0 1 0 2.989v-24.727c0-.723.259-1.343.776-1.86a2.538 2.538 0 0 1 1.86-.777" font-size="22.677" style="vector-effect:none;fill-rule:nonzero" transform="matrix(.66667 0 0 .66667 0 16.25)"/>
        </g>
        <g style="font-style:normal;font-weight:400;font-size:17.00779915px;font-family:icomoon;fill:#000;fill-opacity:1;stroke:none">
            <path d="M20.979-18.014a1.3 1.3 0 0 1 .954.393 1.3 1.3 0 0 1 .393.955V2.291a1.3 1.3 0 0 1-.393.955 1.3 1.3 0 0 1-.955.393H2.021a1.3 1.3 0 0 1-.954-.393 1.3 1.3 0 0 1-.393-.955v-18.957a1.3 1.3 0 0 1 .393-.955 1.3 1.3 0 0 1 .954-.393h18.957m0-.674H2.021c-.554 0-1.029.199-1.426.596A1.946 1.946 0 0 0 0-16.666V2.291c0 .554.198 1.03.595 1.426.397.397.872.595 1.426.595h18.957c.555 0 1.03-.198 1.427-.595.397-.397.595-.872.595-1.426v-18.957c0-.554-.198-1.03-.595-1.426a1.946 1.946 0 0 0-1.426-.596m-6.761 4.807c0 .749-.266 1.389-.798 1.92a2.618 2.618 0 0 1-1.92.798 2.581 2.581 0 0 1-1.91-.797 2.637 2.637 0 0 1-.785-1.92c0-.75.262-1.386.786-1.91a2.6 2.6 0 0 1 1.909-.786c.749 0 1.389.262 1.92.786a2.58 2.58 0 0 1 .798 1.91M9.95-1.214l.562-.45c.164-.134.292-.291.382-.47.09-.18.134-.383.134-.607a1.3 1.3 0 0 0-.393-.955 1.3 1.3 0 0 0-.954-.393c-.165 0-.319.026-.46.079a1.537 1.537 0 0 0-.394.213L7.165-2.448a1.28 1.28 0 0 0-.337.404c-.09.165-.142.337-.157.517 0 .03-.004.052-.011.067a.156.156 0 0 0-.012.067c0 .165.03.322.09.472.06.15.143.285.247.404l1.932 2.269c.135.135.288.247.46.337.173.09.364.135.573.135.375 0 .693-.135.955-.405s.393-.591.393-.965c0-.165-.026-.322-.079-.472a1.221 1.221 0 0 0-.236-.404L9.95-1.212m7.75-5.055-3.325-4.02a1.99 1.99 0 0 0-.135-.124.805.805 0 0 0-.157-.1.753.753 0 0 0-.236-.225.57.57 0 0 0-.303-.09H9.479a.613.613 0 0 0-.315.078.801.801 0 0 0-.225.191 3.314 3.314 0 0 0-.314.27l-3.324 4.02a1.353 1.353 0 0 0-.315.854c0 .21.045.404.135.584.09.18.21.337.36.472a1.488 1.488 0 0 0 .875.292c.21 0 .405-.042.584-.124.18-.082.33-.198.45-.348l1.415-1.707v.83a.654.654 0 0 0 .674.675h4.043a.655.655 0 0 0 .673-.674v-.809l1.415 1.685c.12.15.274.273.46.37.188.098.386.146.596.146.374 0 .696-.13.966-.393.27-.262.404-.58.404-.954 0-.18-.034-.345-.1-.494a1.62 1.62 0 0 0-.26-.405h.023m-1.864 3.819-1.662-1.348c-.12-.09-.251-.16-.393-.213a1.258 1.258 0 0 0-.438-.079 1.3 1.3 0 0 0-.955.393 1.3 1.3 0 0 0-.393.955 1.313 1.313 0 0 0 .494 1.056l.562.449-1.033 1.19c-.075.105-.131.22-.169.348a1.469 1.469 0 0 0-.056.416c0 .374.131.692.393.954a1.3 1.3 0 0 0 .955.393c.18 0 .348-.03.505-.09.157-.06.296-.15.415-.269l1.932-2.246c.105-.12.184-.255.236-.404.052-.15.079-.307.079-.472v-.135a1.311 1.311 0 0 0-.146-.505 1.19 1.19 0 0 0-.326-.393" font-size="17.008" style="vector-effect:none;fill-rule:nonzero" transform="matrix(.66667 0 0 .66667 2.333 14.792)"/>
        </g>
        <g style="font-style:normal;font-weight:400;font-size:22.67709923px;font-family:icomoon;fill:#000;fill-opacity:1;stroke:none">
            <path d="M26.426-22.236c.39 0 .727.141 1.01.425.284.283.425.62.425 1.01V2.051c0 .39-.141.727-.425 1.01a1.38 1.38 0 0 1-1.01.425H3.574a1.38 1.38 0 0 1-1.01-.424 1.38 1.38 0 0 1-.425-1.011v-22.852c0-.39.141-.727.424-1.01a1.38 1.38 0 0 1 1.011-.425h22.852m0-.703H3.574c-.586 0-1.089.21-1.509.63-.42.42-.63.922-.63 1.508V2.051c0 .586.21 1.089.63 1.509.42.42.923.63 1.51.63h22.85c.587 0 1.09-.21 1.51-.63.42-.42.63-.923.63-1.51V-20.8c0-.587-.21-1.09-.63-1.51-.42-.42-.923-.63-1.51-.63m1.436-.732c.391 0 .728.142 1.011.425.283.283.425.62.425 1.01V3.487c0 .39-.142.728-.425 1.011a1.38 1.38 0 0 1-1.01.425H2.138a1.38 1.38 0 0 1-1.011-.425 1.38 1.38 0 0 1-.425-1.01v-25.723c0-.391.142-.728.425-1.011a1.38 1.38 0 0 1 1.01-.425h25.723m0-.703H2.14c-.586 0-1.09.21-1.51.63-.419.42-.629.923-.629 1.509V3.486c0 .586.21 1.09.63 1.51.42.419.923.629 1.509.629H27.86c.586 0 1.09-.21 1.51-.63.419-.42.629-.923.629-1.509v-25.722c0-.586-.21-1.09-.63-1.51-.42-.419-.923-.629-1.509-.629" font-size="22.677" style="vector-effect:none;fill-rule:nonzero" transform="matrix(.66667 0 0 .66667 0 16.25)"/>
        </g>
    </g>
</svg>
