<svg
	xmlns="http://www.w3.org/2000/svg" width="20" height="20">
	<path fill="red" d="M1.754 0H18.2c.48 0 .893.174 1.238.518.343.345.516.76.516 1.242v16.498a1.7 1.7 0 0 1-.516 1.242 1.686 1.686 0 0 1-1.238.517H1.754c-.481 0-.894-.172-1.237-.517A1.688 1.694 0 0 1 0 18.258V1.76C0 1.278.172.864.517.518A1.686 1.686 0 0 1 1.754 0" font-family="icomoon" font-size="19.843" font-weight="400"/>
	<path d="m9.46 4.755-.038.008c-.008.004-.02.006-.025.012-.007.01.024.004.034-.002a.216.216 0 0 0 .03-.018z" font-family="icomoon" font-size="17.008" font-weight="400"/>
	<path d="M2.703 1.155c-.426 0-.79.153-1.096.459a1.493 1.498 0 0 0-.456 1.097v14.596c0 .426.153.792.456 1.098.305.305.67.458 1.096.458H17.25c.425 0 .79-.153 1.095-.458a1.5 1.5 0 0 0 .456-1.098V2.711a1.5 1.5 0 0 0-.456-1.097 1.493 1.498 0 0 0-1.095-.459Zm0 .519H17.25a.998 1 0 0 1 .732.303.998 1 0 0 1 .303.734v14.596a.998 1 0 0 1-.302.734.998 1 0 0 1-.733.302H2.703a.998 1 0 0 1-.733-.302.998 1 0 0 1-.302-.734V2.711a.998 1 0 0 1 .302-.734.998 1 0 0 1 .732-.303Z" font-family="icomoon" font-size="17.008" font-weight="400"/>
	<path d="M1.579.001c-.443 0-.816.152-1.121.46A1.524 1.53 0 0 0 0 1.583v16.85c0 .443.152.818.458 1.124.305.307.678.46 1.12.46h16.798c.44 0 .814-.153 1.12-.46a1.53 1.53 0 0 0 .458-1.123V1.582c0-.442-.153-.817-.458-1.123A1.524 1.53 0 0 0 18.376 0Zm0 .527h16.797c.286 0 .532.105.74.313.207.209.312.456.312.743v16.85c0 .286-.105.534-.312.744a1.011 1.014 0 0 1-.74.31H1.579a1.012 1.015 0 0 1-.74-.31 1.012 1.015 0 0 1-.314-.743V1.582c0-.286.105-.533.313-.742a1.012 1.015 0 0 1 .74-.312Z" font-family="icomoon" font-size="19.843" font-weight="400"/>
	<path d="M7.473 13.22a.8.803 0 0 1-.233-.088.59.593 0 0 1-.295-.47l-.005-.05.01-.086a.823.825 0 0 1 .076-.278c.044-.096.103-.189.265-.42.17-.243.263-.385.322-.492.178-.325.277-.651.376-1.255.071-.423.077-.482.18-1.945a73.433 73.665 0 0 1 .059-.784l.006-.09-.075-.005-.076-.005-.163.009-.164.009-.114.02c-.343.059-.54.163-.767.405a3.645 3.656 0 0 0-.41.561l-.036.059h-.224l.006-.031a9.19 9.19 0 0 1 .2-.589l.05-.13.085-.17.084-.169.076-.115a3.83 3.83 0 0 1 .147-.208l.071-.093.135-.136.137-.137.077-.056c.041-.032.108-.074.144-.094l.07-.036.099-.033.1-.034.122-.024a2.93 2.93 0 0 1 .211-.036l.092-.01 2.617-.005 2.616-.005v1.052l-.865.002c-.477 0-.868.005-.869.006a32.326 32.326 0 0 0-.175 1.389c-.061.602-.083.933-.1 1.47l-.011.393.011.313.011.315.03.111c.033.131.062.207.116.308.1.184.238.306.43.38.49.203 1.017-.043 1.142-.561l.034-.137.005-.025.059-.007c.033-.003.085-.007.115-.007h.056l-.005.036c-.03.211-.088.498-.14.68-.107.385-.247.65-.458.872a1.831 1.837 0 0 1-.295.245 2.307 2.307 0 0 1-.14.078 1.038 1.04 0 0 1-1.075-.09l-.077-.055-.094-.098-.093-.098-.054-.08a1.696 1.701 0 0 1-.23-.551 4.696 4.71 0 0 1-.11-.716l-.017-.16-.003-.46-.002-.46.008-.27.008-.27.03-.345c.085-.969.137-1.462.21-2.004l.025-.192-.007-.006-.007-.007-.889.002c-.489 0-.89.004-.891.005-.002.002-.014.155-.052.697l-.1 1.379c-.04.514-.156 1.387-.267 1.994-.116.642-.244 1.12-.358 1.349a1.99 1.996 0 0 1-.094.159 1.055 1.059 0 0 1-.294.309.646.648 0 0 1-.11.051.595.597 0 0 1-.277.018Z"/>
</svg>