<svg xmlns="http://www.w3.org/2000/svg" width="20" height="20" version="1.2">
    <g style="fill:none;fill-rule:evenodd;stroke:#000;stroke-width:1;stroke-linecap:square;stroke-linejoin:bevel">
        <g stroke="none">
            <path d="M2.742 9.354h10.425c.305 0 .566.11.785.327.218.219.327.48.327.785V20.89c0 .305-.11.566-.327.784a1.07 1.07 0 0 1-.785.328H2.742a1.07 1.07 0 0 1-.784-.328 1.07 1.07 0 0 1-.328-.784V10.466c0-.305.11-.566.328-.785a1.07 1.07 0 0 1 .784-.327" style="font-style:normal;font-weight:400;font-size:19.84250069px;font-family:icomoon;vector-effect:none;fill:#ff0;fill-opacity:1;fill-rule:nonzero;stroke:none;stroke-width:.48648649" transform="matrix(1.42308 0 0 1.42308 -1.32 -12.312)"/>
            <path d="M12.566 10.412c.182 0 .337.063.464.19a.632.632 0 0 1 .191.465v9.223a.632.632 0 0 1-.19.464.632.632 0 0 1-.465.191H3.343a.632.632 0 0 1-.464-.191.632.632 0 0 1-.191-.464v-9.223c0-.182.064-.337.191-.464a.632.632 0 0 1 .464-.191h9.223m0-.328H3.343c-.27 0-.5.096-.693.29a.947.947 0 0 0-.29.693v9.223c0 .27.097.5.29.693.193.193.424.29.693.29h9.223c.27 0 .5-.097.694-.29a.947.947 0 0 0 .29-.693v-9.223c0-.27-.097-.5-.29-.694a.947.947 0 0 0-.694-.29m-4.611 7.453-.164-.087-2.787-1.552h-.109v1.978h5.595v-1.749l-2.535 1.41m-.066-2.371h-.087a.775.775 0 0 1-.52-.191.722.722 0 0 1-.256-.487.722.722 0 0 1 .257-.486.775.775 0 0 1 .519-.191h.142a.845.845 0 0 1 .776.514v.01c.007-.007.014-.01.021-.01h.044c.007 0 .015.003.022.01l2.448.984 1.42-.798-4.72-2.622-4.72 2.633 4.72 2.633 2.928-1.65-2.163-.874a.88.88 0 0 1-.306.377.809.809 0 0 1-.481.148h-.055.011m3.551.983V15.46a.152.152 0 0 0-.038-.06.153.153 0 0 0-.06-.038l-.098-.044-.372.207.23.099v.524a.33.33 0 0 0-.12.115.317.317 0 0 0-.044.17v2.698c0 .088.032.164.098.23a.315.315 0 0 0 .459 0 .314.314 0 0 0 .098-.23v-2.699a.349.349 0 0 0-.153-.284" style="font-style:normal;font-weight:400;font-size:17.00779915px;font-family:icomoon;vector-effect:none;fill:#000;fill-opacity:1;fill-rule:nonzero;stroke:none;stroke-width:.48648649" transform="matrix(1.42308 0 0 1.42308 -1.32 -12.312)"/>
            <path d="M13.278 9.688c.182 0 .338.066.47.197a.641.641 0 0 1 .197.47v10.647a.641.641 0 0 1-.197.47.641.641 0 0 1-.47.197H2.631a.641.641 0 0 1-.47-.197.641.641 0 0 1-.197-.47V10.355c0-.182.066-.338.197-.47a.641.641 0 0 1 .47-.197h10.647m0-.334H2.631a.966.966 0 0 0-.71.29.966.966 0 0 0-.29.71v10.648c0 .28.096.517.29.71.193.194.43.29.71.29h10.647c.28 0 .517-.096.71-.29a.966.966 0 0 0 .291-.71V10.355a.966.966 0 0 0-.29-.71.966.966 0 0 0-.71-.29" style="font-style:normal;font-weight:400;font-size:19.84250069px;font-family:icomoon;vector-effect:none;fill:#000;fill-opacity:1;fill-rule:nonzero;stroke:none;stroke-width:.48648649" transform="matrix(1.42308 0 0 1.42308 -1.32 -12.312)"/>
        </g>
    </g>
</svg>
