<svg
	xmlns="http://www.w3.org/2000/svg" width="20" height="20">
	<path fill="#fff" d="M2.005.284h16.162c.472 0 .877.17 1.216.51.338.344.506.752.506 1.228V18.33c0 .478-.168.886-.506 1.228a1.65 1.65 0 0 1-1.216.51H2.005a1.65 1.65 0 0 1-1.217-.51 1.66 1.674 0 0 1-.507-1.228V2.022c0-.476.168-.884.507-1.226a1.65 1.65 0 0 1 1.217-.51" font-family="icomoon" font-size="19.843" font-weight="400"/>
	<path d="M9.412 4.101c-.016.004-.03.004-.045.01-.01.005-.021.006-.028.013-.01.01.027.004.04-.001L9.41 4.1z" font-family="icomoon" font-size="17.008" font-weight="400"/>
	<path d="M1.757 0C1.276 0 .862.175.517.523A1.691 1.706 0 0 0 0 1.773v16.625c0 .485.173.903.517 1.25.345.35.759.523 1.24.523h16.478a1.68 1.68 0 0 0 1.24-.523c.346-.347.518-.765.518-1.25V1.774c0-.486-.173-.904-.517-1.25A1.691 1.706 0 0 0 18.236 0zm0 .592h16.478c.327 0 .603.114.83.344.227.23.342.51.342.838v16.624a1.13 1.14 0 0 1-.341.838 1.129 1.139 0 0 1-.83.344H1.755a1.129 1.139 0 0 1-.828-.344 1.13 1.14 0 0 1-.343-.838V1.774c0-.328.115-.608.343-.838a1.13 1.14 0 0 1 .829-.344Z" font-family="icomoon" font-size="17.008" font-weight="400"/>
	<path d="M7.234 14.306a.962.97 0 0 1-.28-.106.71.717 0 0 1-.354-.57l-.007-.06.012-.103a.989.998 0 0 1 .092-.336c.054-.117.124-.229.319-.509.204-.293.316-.465.386-.594.215-.394.334-.788.453-1.518.086-.511.092-.582.216-2.352a88.286 89.074 0 0 1 .071-.948l.008-.107-.09-.007-.093-.007-.195.01-.198.012-.136.024c-.413.071-.65.198-.922.49a4.382 4.421 0 0 0-.493.678l-.044.072h-.27l.009-.038c.014-.07.177-.551.24-.711l.06-.158.102-.205.101-.205.091-.14c.05-.078.13-.19.177-.251l.086-.112.162-.165.164-.166.093-.067c.05-.039.13-.09.174-.114L7.25 6l.12-.04.122-.04.145-.03a3.38 3.38 0 0 1 .254-.043l.111-.014 3.145-.005 3.146-.006v1.272l-1.04.003c-.573 0-1.043.006-1.045.007-.013.013-.164 1.213-.21 1.68a21.73 21.73 0 0 0-.12 1.777l-.014.475.014.379.013.38.036.135c.04.159.075.25.14.372.12.222.285.37.516.46.59.245 1.223-.052 1.374-.679l.04-.165.007-.031.07-.008c.04-.004.103-.008.139-.008h.067l-.006.043a7.396 7.396 0 0 1-.168.823c-.129.465-.297.785-.551 1.054a2.202 2.221 0 0 1-.355.296 2.775 2.775 0 0 1-.168.094 1.247 1.259 0 0 1-1.293-.108l-.092-.067-.113-.118-.112-.119-.065-.098a2.04 2.057 0 0 1-.276-.665 5.646 5.696 0 0 1-.133-.866l-.02-.194-.003-.555-.003-.556.01-.328.009-.327.037-.416c.101-1.172.164-1.767.25-2.423l.031-.232-.008-.008-.008-.008-1.069.003c-.587 0-1.07.004-1.071.005a27.7 27.7 0 0 0-.063.843c-.034.498-.088 1.224-.121 1.668a28.26 28.26 0 0 1-.32 2.41c-.14.777-.293 1.356-.43 1.632a2.392 2.414 0 0 1-.114.192 1.269 1.28 0 0 1-.353.374.777.784 0 0 1-.132.062.716.722 0 0 1-.333.021z"/>
</svg>