<svg
	xmlns="http://www.w3.org/2000/svg" width="20" height="20">
	<path d="M13.897 18.704a.024.024 0 0 0-.007.006h.007z" font-family="icomoon" font-size="17.008" font-weight="400"/>
	<path fill="#fff" d="M1.898.22h16.17c.473 0 .878.17 1.217.508.338.338.508.744.508 1.216v16.178c0 .473-.17.879-.508 1.217a1.66 1.66 0 0 1-1.216.509H1.897a1.66 1.66 0 0 1-1.216-.508 1.66 1.66 0 0 1-.508-1.218V1.945c0-.473.17-.879.508-1.217A1.66 1.66 0 0 1 1.897.22" font-family="icomoon" font-size="22.677" font-weight="400"/>
	<path d="M1.758-.001a1.69 1.69 0 0 0-1.24.52A1.691 1.692 0 0 0 0 1.76v16.493c0 .482.173.895.517 1.24.347.346.76.518 1.24.518h16.487c.483 0 .895-.173 1.24-.517.346-.346.52-.76.52-1.241V1.759c0-.483-.174-.895-.52-1.241a1.691 1.692 0 0 0-1.24-.519zm0 .587h16.486c.327 0 .605.113.831.342.228.226.342.505.342.83v16.494a1.13 1.131 0 0 1-.342.831 1.13 1.131 0 0 1-.83.342H1.757a1.13 1.131 0 0 1-.831-.342 1.13 1.131 0 0 1-.342-.831V1.759c0-.326.114-.603.342-.831a1.13 1.131 0 0 1 .83-.342Z" font-family="icomoon" font-size="17.008" font-weight="400"/>
	<path d="M6.904 13.61a.963.963 0 0 1-.28-.106.71.711 0 0 1-.355-.564l-.007-.06.012-.103a.99.99 0 0 1 .092-.334c.054-.116.124-.226.32-.504a7.07 7.07 0 0 0 .386-.59c.215-.39.333-.781.453-1.506.086-.507.092-.577.216-2.333a88.338 88.372 0 0 1 .071-.94l.008-.107-.09-.007-.093-.007-.196.011-.197.01-.136.025c-.413.07-.65.196-.923.487a4.385 4.386 0 0 0-.493.672l-.044.07h-.27l.008-.037c.015-.069.178-.547.24-.705l.062-.156.101-.205.101-.202.091-.14c.05-.076.13-.189.177-.249l.086-.11.162-.164.164-.164.094-.067c.05-.039.13-.09.173-.114l.083-.042.12-.04.121-.04.146-.03c.08-.016.194-.036.254-.042l.111-.014 3.147-.005 3.147-.005v1.262l-1.04.002c-.573 0-1.044.006-1.045.007-.014.013-.164 1.203-.211 1.666-.073.722-.1 1.12-.12 1.764l-.013.47.013.377.013.378.036.133c.04.157.075.248.14.37a.96.96 0 0 0 .516.456c.591.243 1.225-.052 1.375-.674l.04-.164.007-.03.07-.009a1.71 1.71 0 0 1 .14-.008h.066l-.005.043a7.28 7.28 0 0 1-.168.816c-.13.462-.298.78-.552 1.046a2.203 2.204 0 0 1-.355.294 2.779 2.779 0 0 1-.168.093 1.248 1.249 0 0 1-1.294-.107l-.092-.066-.113-.118-.112-.117-.065-.097a2.04 2.041 0 0 1-.276-.66 5.649 5.651 0 0 1-.134-.86l-.02-.192-.002-.551-.003-.551.01-.326.008-.324.038-.413c.101-1.162.164-1.753.25-2.404l.031-.23-.008-.008-.008-.008-1.07.003c-.587 0-1.07.004-1.072.005-.002.003-.017.187-.062.837-.035.493-.088 1.214-.121 1.654a27.813 27.813 0 0 1-.32 2.392c-.14.77-.294 1.345-.431 1.618a2.394 2.395 0 0 1-.114.191 1.27 1.27 0 0 1-.353.371.777.778 0 0 1-.132.061.716.716 0 0 1-.333.022z"/>
	<path fill="red" d="M1.44 19.143a.533.534 0 0 1-.222-.045.893.894 0 0 1-.187-.116.88.88 0 0 1-.117-.187.533.534 0 0 1-.044-.223.533.534 0 0 1 .044-.224.893.894 0 0 1 .116-.187l17.122-17.13a.879.88 0 0 1 .187-.114.533.534 0 0 1 .223-.045c.155 0 .29.056.401.169a.548.548 0 0 1 .17.402.53.531 0 0 1-.044.222.884.884 0 0 1-.116.187L1.85 18.982a.887.887 0 0 1-.187.116.533.534 0 0 1-.223.045" font-family="icomoon" font-size="15.874" font-weight="400"/>
</svg>