<svg xmlns="http://www.w3.org/2000/svg" width="210mm" height="297mm" viewBox="0 0 210 297">
    <path d="M51.152 212.308h12.127c.354 0 .658.127.912.38.254.255.38.559.38.913v12.127c0 .355-.126.659-.38.913s-.558.38-.912.38H51.152c-.355 0-.659-.126-.913-.38a1.245 1.245 0 0 1-.38-.913v-12.127c0-.354.126-.658.38-.912s.558-.38.913-.38" style="font-style:normal;font-weight:400;font-size:19.8425px;font-family:icomoon;display:inline;vector-effect:none;fill:#fff;fill-opacity:1;fill-rule:nonzero;stroke:none;stroke-width:.565899;stroke-linecap:square;stroke-linejoin:bevel" transform="translate(58.333 -90.129)"/>
    <path d="M56.71 215.147c-.012.003-.023.003-.034.007-.007.004-.016.005-.021.01-.007.008.02.003.03-.001l.024-.016z" style="font-style:normal;font-weight:400;font-size:17.0078px;font-family:icomoon;vector-effect:none;fill:#000;fill-opacity:1;fill-rule:nonzero;stroke:none;stroke-width:.652176;stroke-linecap:square;stroke-linejoin:bevel" transform="translate(58.333 -90.129)"/>
    <path d="M50.966 212.097c-.361 0-.671.13-.93.389a1.269 1.269 0 0 0-.388.93v12.363c0 .361.13.672.388.93.259.26.569.389.93.389H63.33c.362 0 .672-.13.93-.389.26-.258.389-.569.389-.93v-12.363c0-.361-.13-.672-.388-.93a1.269 1.269 0 0 0-.93-.388zm0 .44H63.33c.245 0 .452.085.623.256.17.171.256.379.256.623v12.363a.848.848 0 0 1-.256.623.847.847 0 0 1-.623.256H50.966a.847.847 0 0 1-.622-.256.848.848 0 0 1-.257-.623v-12.363c0-.244.086-.452.257-.623a.848.848 0 0 1 .622-.256z" style="font-style:normal;font-weight:400;font-size:17.0078px;font-family:icomoon;vector-effect:none;fill:#000;fill-opacity:1;fill-rule:nonzero;stroke:none;stroke-width:.652176;stroke-linecap:square;stroke-linejoin:bevel" transform="translate(58.333 -90.129)"/>
    <g transform="matrix(.00158 0 0 .00158 113.073 125.912)">
        <circle cx="834.952" cy="3215.937" r="228.334" style="fill:#000;fill-opacity:1;stroke:#000;stroke-width:27;stroke-linecap:round;stroke-linejoin:bevel;stroke-opacity:0;paint-order:stroke markers fill"/>
        <path d="M977.909 3187.721h1431.258v61.047H977.909z" style="fill:#000;fill-opacity:1;stroke:#000;stroke-width:108.953;stroke-linecap:round;stroke-linejoin:bevel;stroke-opacity:0;paint-order:stroke markers fill"/>
        <circle cx="2542.952" cy="3215.937" r="228.334" style="fill:#000;fill-opacity:1;stroke:#000;stroke-width:27;stroke-linecap:round;stroke-linejoin:bevel;stroke-opacity:0;paint-order:stroke markers fill"/>
        <circle cx="1274.369" cy="3668.979" r="228.334" style="fill:#000;fill-opacity:1;stroke:#000;stroke-width:27;stroke-linecap:round;stroke-linejoin:bevel;stroke-opacity:0;paint-order:stroke markers fill"/>
        <path d="M1301.83 3633.336h694.254v55.592H1301.83z" style="fill:#000;fill-opacity:1;stroke:#000;stroke-width:72.4122;stroke-linecap:round;stroke-linejoin:bevel;stroke-opacity:0;paint-order:stroke markers fill"/>
        <circle cx="2104.369" cy="3668.979" r="228.334" style="fill:#000;fill-opacity:1;stroke:#000;stroke-width:27;stroke-linecap:round;stroke-linejoin:bevel;stroke-opacity:0;paint-order:stroke markers fill"/>
        <circle cx="490.952" cy="2687.937" r="228.334" style="fill:#000;fill-opacity:1;stroke:#000;stroke-width:27;stroke-linecap:round;stroke-linejoin:bevel;stroke-opacity:0;paint-order:stroke markers fill"/>
        <path d="M1339.909 2659.721h1431.258v61.047H1339.909z" style="fill:#000;fill-opacity:1;stroke:#000;stroke-width:108.953;stroke-linecap:round;stroke-linejoin:bevel;stroke-opacity:0;paint-order:stroke markers fill"/>
        <circle cx="2904.952" cy="2687.937" r="228.334" style="fill:#000;fill-opacity:1;stroke:#000;stroke-width:27;stroke-linecap:round;stroke-linejoin:bevel;stroke-opacity:0;paint-order:stroke markers fill"/>
        <path d="M619.909 2659.721h1431.258v61.047H619.909z" style="fill:#000;fill-opacity:1;stroke:#000;stroke-width:108.953;stroke-linecap:round;stroke-linejoin:bevel;stroke-opacity:0;paint-order:stroke markers fill"/>
        <circle cx="422.952" cy="2161.937" r="228.334" style="fill:#000;fill-opacity:1;stroke:#000;stroke-width:27;stroke-linecap:round;stroke-linejoin:bevel;stroke-opacity:0;paint-order:stroke markers fill"/>
        <path d="M1419.909 2133.721h1431.258v61.047H1419.909z" style="fill:#000;fill-opacity:1;stroke:#000;stroke-width:108.953;stroke-linecap:round;stroke-linejoin:bevel;stroke-opacity:0;paint-order:stroke markers fill"/>
        <circle cx="2984.952" cy="2161.937" r="228.334" style="fill:#000;fill-opacity:1;stroke:#000;stroke-width:27;stroke-linecap:round;stroke-linejoin:bevel;stroke-opacity:0;paint-order:stroke markers fill"/>
        <path d="M551.909 2133.721h1431.258v61.047H551.909z" style="fill:#000;fill-opacity:1;stroke:#000;stroke-width:108.953;stroke-linecap:round;stroke-linejoin:bevel;stroke-opacity:0;paint-order:stroke markers fill"/>
        <circle cx="1686.369" cy="4014.979" r="228.334" style="fill:#000;fill-opacity:1;stroke:#000;stroke-width:27;stroke-linecap:round;stroke-linejoin:bevel;stroke-opacity:0;paint-order:stroke markers fill"/>
        <circle cx="834.952" cy="-4804.624" r="228.334" style="fill:#000;fill-opacity:1;stroke:#000;stroke-width:27;stroke-linecap:round;stroke-linejoin:bevel;stroke-opacity:0;paint-order:stroke markers fill" transform="scale(1 -1)"/>
        <path d="M977.909-4832.84h1431.258v61.047H977.909z" style="fill:#000;fill-opacity:1;stroke:#000;stroke-width:108.953;stroke-linecap:round;stroke-linejoin:bevel;stroke-opacity:0;paint-order:stroke markers fill" transform="scale(1 -1)"/>
        <circle cx="2542.952" cy="-4804.624" r="228.334" style="fill:#000;fill-opacity:1;stroke:#000;stroke-width:27;stroke-linecap:round;stroke-linejoin:bevel;stroke-opacity:0;paint-order:stroke markers fill" transform="scale(1 -1)"/>
        <circle cx="1274.369" cy="-4351.583" r="228.334" style="fill:#000;fill-opacity:1;stroke:#000;stroke-width:27;stroke-linecap:round;stroke-linejoin:bevel;stroke-opacity:0;paint-order:stroke markers fill" transform="scale(1 -1)"/>
        <path d="M1301.83-4387.225h694.254v55.592H1301.83z" style="fill:#000;fill-opacity:1;stroke:#000;stroke-width:72.4122;stroke-linecap:round;stroke-linejoin:bevel;stroke-opacity:0;paint-order:stroke markers fill" transform="scale(1 -1)"/>
        <circle cx="2104.369" cy="-4351.583" r="228.334" style="fill:#000;fill-opacity:1;stroke:#000;stroke-width:27;stroke-linecap:round;stroke-linejoin:bevel;stroke-opacity:0;paint-order:stroke markers fill" transform="scale(1 -1)"/>
        <circle cx="490.952" cy="-5332.624" r="228.334" style="fill:#000;fill-opacity:1;stroke:#000;stroke-width:27;stroke-linecap:round;stroke-linejoin:bevel;stroke-opacity:0;paint-order:stroke markers fill" transform="scale(1 -1)"/>
        <path d="M1339.909-5360.84h1431.258v61.047H1339.909z" style="fill:#000;fill-opacity:1;stroke:#000;stroke-width:108.953;stroke-linecap:round;stroke-linejoin:bevel;stroke-opacity:0;paint-order:stroke markers fill" transform="scale(1 -1)"/>
        <circle cx="2904.952" cy="-5332.624" r="228.334" style="fill:#000;fill-opacity:1;stroke:#000;stroke-width:27;stroke-linecap:round;stroke-linejoin:bevel;stroke-opacity:0;paint-order:stroke markers fill" transform="scale(1 -1)"/>
        <path d="M619.909-5360.84h1431.258v61.047H619.909z" style="fill:#000;fill-opacity:1;stroke:#000;stroke-width:108.953;stroke-linecap:round;stroke-linejoin:bevel;stroke-opacity:0;paint-order:stroke markers fill" transform="scale(1 -1)"/>
        <circle cx="422.952" cy="-5858.624" r="228.334" style="fill:#000;fill-opacity:1;stroke:#000;stroke-width:27;stroke-linecap:round;stroke-linejoin:bevel;stroke-opacity:0;paint-order:stroke markers fill" transform="scale(1 -1)"/>
        <path d="M1419.909-5886.84h1431.258v61.047H1419.909z" style="fill:#000;fill-opacity:1;stroke:#000;stroke-width:108.953;stroke-linecap:round;stroke-linejoin:bevel;stroke-opacity:0;paint-order:stroke markers fill" transform="scale(1 -1)"/>
        <circle cx="2984.952" cy="-5858.624" r="228.334" style="fill:#000;fill-opacity:1;stroke:#000;stroke-width:27;stroke-linecap:round;stroke-linejoin:bevel;stroke-opacity:0;paint-order:stroke markers fill" transform="scale(1 -1)"/>
        <path d="M551.909-5886.84h1431.258v61.047H551.909z" style="fill:#000;fill-opacity:1;stroke:#000;stroke-width:108.953;stroke-linecap:round;stroke-linejoin:bevel;stroke-opacity:0;paint-order:stroke markers fill" transform="scale(1 -1)"/>
        <circle cx="1686.369" cy="-4005.582" r="228.334" style="fill:#000;fill-opacity:1;stroke:#000;stroke-width:27;stroke-linecap:round;stroke-linejoin:bevel;stroke-opacity:0;paint-order:stroke markers fill" transform="scale(1 -1)"/>
        <circle cx="834.952" cy="-476.063" r="228.334" style="fill:#000;fill-opacity:1;stroke:#000;stroke-width:27;stroke-linecap:round;stroke-linejoin:bevel;stroke-opacity:0;paint-order:stroke markers fill"/>
        <path d="M977.909-504.279h1431.258v61.047H977.909z" style="fill:#000;fill-opacity:1;stroke:#000;stroke-width:108.953;stroke-linecap:round;stroke-linejoin:bevel;stroke-opacity:0;paint-order:stroke markers fill"/>
        <circle cx="2542.952" cy="-476.063" r="228.334" style="fill:#000;fill-opacity:1;stroke:#000;stroke-width:27;stroke-linecap:round;stroke-linejoin:bevel;stroke-opacity:0;paint-order:stroke markers fill"/>
        <circle cx="1274.369" cy="-23.021" r="228.334" style="fill:#000;fill-opacity:1;stroke:#000;stroke-width:27;stroke-linecap:round;stroke-linejoin:bevel;stroke-opacity:0;paint-order:stroke markers fill"/>
        <path d="M1301.83-58.664h694.254v55.592H1301.83z" style="fill:#000;fill-opacity:1;stroke:#000;stroke-width:72.4122;stroke-linecap:round;stroke-linejoin:bevel;stroke-opacity:0;paint-order:stroke markers fill"/>
        <circle cx="2104.369" cy="-23.021" r="228.334" style="fill:#000;fill-opacity:1;stroke:#000;stroke-width:27;stroke-linecap:round;stroke-linejoin:bevel;stroke-opacity:0;paint-order:stroke markers fill"/>
        <circle cx="490.952" cy="-1004.063" r="228.334" style="fill:#000;fill-opacity:1;stroke:#000;stroke-width:27;stroke-linecap:round;stroke-linejoin:bevel;stroke-opacity:0;paint-order:stroke markers fill"/>
        <path d="M1339.909-1032.279h1431.258v61.047H1339.909z" style="fill:#000;fill-opacity:1;stroke:#000;stroke-width:108.953;stroke-linecap:round;stroke-linejoin:bevel;stroke-opacity:0;paint-order:stroke markers fill"/>
        <circle cx="2904.952" cy="-1004.063" r="228.334" style="fill:#000;fill-opacity:1;stroke:#000;stroke-width:27;stroke-linecap:round;stroke-linejoin:bevel;stroke-opacity:0;paint-order:stroke markers fill"/>
        <path d="M619.909-1032.279h1431.258v61.047H619.909z" style="fill:#000;fill-opacity:1;stroke:#000;stroke-width:108.953;stroke-linecap:round;stroke-linejoin:bevel;stroke-opacity:0;paint-order:stroke markers fill"/>
        <circle cx="422.952" cy="-1530.063" r="228.334" style="fill:#000;fill-opacity:1;stroke:#000;stroke-width:27;stroke-linecap:round;stroke-linejoin:bevel;stroke-opacity:0;paint-order:stroke markers fill"/>
        <path d="M1419.909-1558.279h1431.258v61.047H1419.909z" style="fill:#000;fill-opacity:1;stroke:#000;stroke-width:108.953;stroke-linecap:round;stroke-linejoin:bevel;stroke-opacity:0;paint-order:stroke markers fill"/>
        <circle cx="2984.952" cy="-1530.063" r="228.334" style="fill:#000;fill-opacity:1;stroke:#000;stroke-width:27;stroke-linecap:round;stroke-linejoin:bevel;stroke-opacity:0;paint-order:stroke markers fill"/>
        <path d="M551.909-1558.279h1431.258v61.047H551.909z" style="fill:#000;fill-opacity:1;stroke:#000;stroke-width:108.953;stroke-linecap:round;stroke-linejoin:bevel;stroke-opacity:0;paint-order:stroke markers fill"/>
        <circle cx="1686.369" cy="322.979" r="228.334" style="fill:#000;fill-opacity:1;stroke:#000;stroke-width:27;stroke-linecap:round;stroke-linejoin:bevel;stroke-opacity:0;paint-order:stroke markers fill"/>
        <circle cx="834.952" cy="-1112.624" r="228.334" style="fill:#000;fill-opacity:1;stroke:#000;stroke-width:27;stroke-linecap:round;stroke-linejoin:bevel;stroke-opacity:0;paint-order:stroke markers fill" transform="scale(1 -1)"/>
        <path d="M977.909-1140.84h1431.258v61.047H977.909z" style="fill:#000;fill-opacity:1;stroke:#000;stroke-width:108.953;stroke-linecap:round;stroke-linejoin:bevel;stroke-opacity:0;paint-order:stroke markers fill" transform="scale(1 -1)"/>
        <circle cx="2542.952" cy="-1112.624" r="228.334" style="fill:#000;fill-opacity:1;stroke:#000;stroke-width:27;stroke-linecap:round;stroke-linejoin:bevel;stroke-opacity:0;paint-order:stroke markers fill" transform="scale(1 -1)"/>
        <circle cx="1274.369" cy="-659.583" r="228.334" style="fill:#000;fill-opacity:1;stroke:#000;stroke-width:27;stroke-linecap:round;stroke-linejoin:bevel;stroke-opacity:0;paint-order:stroke markers fill" transform="scale(1 -1)"/>
        <path d="M1301.83-695.225h694.254v55.592H1301.83z" style="fill:#000;fill-opacity:1;stroke:#000;stroke-width:72.4122;stroke-linecap:round;stroke-linejoin:bevel;stroke-opacity:0;paint-order:stroke markers fill" transform="scale(1 -1)"/>
        <circle cx="2104.369" cy="-659.583" r="228.334" style="fill:#000;fill-opacity:1;stroke:#000;stroke-width:27;stroke-linecap:round;stroke-linejoin:bevel;stroke-opacity:0;paint-order:stroke markers fill" transform="scale(1 -1)"/>
        <circle cx="490.952" cy="-1640.624" r="228.334" style="fill:#000;fill-opacity:1;stroke:#000;stroke-width:27;stroke-linecap:round;stroke-linejoin:bevel;stroke-opacity:0;paint-order:stroke markers fill" transform="scale(1 -1)"/>
        <path d="M1339.909-1668.84h1431.258v61.047H1339.909z" style="fill:#000;fill-opacity:1;stroke:#000;stroke-width:108.953;stroke-linecap:round;stroke-linejoin:bevel;stroke-opacity:0;paint-order:stroke markers fill" transform="scale(1 -1)"/>
        <circle cx="2904.952" cy="-1640.624" r="228.334" style="fill:#000;fill-opacity:1;stroke:#000;stroke-width:27;stroke-linecap:round;stroke-linejoin:bevel;stroke-opacity:0;paint-order:stroke markers fill" transform="scale(1 -1)"/>
        <path d="M619.909-1668.84h1431.258v61.047H619.909z" style="fill:#000;fill-opacity:1;stroke:#000;stroke-width:108.953;stroke-linecap:round;stroke-linejoin:bevel;stroke-opacity:0;paint-order:stroke markers fill" transform="scale(1 -1)"/>
        <circle cx="422.952" cy="-2166.624" r="228.334" style="fill:#000;fill-opacity:1;stroke:#000;stroke-width:27;stroke-linecap:round;stroke-linejoin:bevel;stroke-opacity:0;paint-order:stroke markers fill" transform="scale(1 -1)"/>
        <path d="M1419.909-2194.84h1431.258v61.047H1419.909z" style="fill:#000;fill-opacity:1;stroke:#000;stroke-width:108.953;stroke-linecap:round;stroke-linejoin:bevel;stroke-opacity:0;paint-order:stroke markers fill" transform="scale(1 -1)"/>
        <circle cx="2984.952" cy="-2166.624" r="228.334" style="fill:#000;fill-opacity:1;stroke:#000;stroke-width:27;stroke-linecap:round;stroke-linejoin:bevel;stroke-opacity:0;paint-order:stroke markers fill" transform="scale(1 -1)"/>
        <path d="M551.909-2194.84h1431.258v61.047H551.909z" style="fill:#000;fill-opacity:1;stroke:#000;stroke-width:108.953;stroke-linecap:round;stroke-linejoin:bevel;stroke-opacity:0;paint-order:stroke markers fill" transform="scale(1 -1)"/>
        <circle cx="1686.369" cy="-313.583" r="228.334" style="fill:#000;fill-opacity:1;stroke:#000;stroke-width:27;stroke-linecap:round;stroke-linejoin:bevel;stroke-opacity:0;paint-order:stroke markers fill" transform="scale(1 -1)"/>
    </g>
</svg>
