<svg xmlns="http://www.w3.org/2000/svg" width="210mm" height="297mm" viewBox="0 0 210 297">
    <path d="M79.23 228.097h14.836c.433 0 .805.156 1.116.466.31.31.466.683.466 1.117v14.835c0 .434-.156.806-.466 1.117-.31.31-.683.465-1.116.465H79.23c-.434 0-.806-.155-1.116-.465a1.523 1.523 0 0 1-.466-1.117V229.68c0-.434.155-.806.466-1.117.31-.31.682-.466 1.116-.466" style="font-style:normal;font-weight:400;font-size:19.8425px;font-family:icomoon;display:inline;vector-effect:none;fill:red;fill-opacity:1;fill-rule:nonzero;stroke:none;stroke-width:.692308;stroke-linecap:square;stroke-linejoin:bevel" transform="translate(-77.648 -228.098)"/>
    <path d="m86.182 232.373-.035.007c-.007.004-.017.005-.022.011-.007.008.021.003.03-.002.011-.005.018-.01.027-.016z" style="font-style:normal;font-weight:400;font-size:17.0078px;font-family:icomoon;vector-effect:none;fill:#000;fill-opacity:1;fill-rule:nonzero;stroke:none;stroke-width:.692308;stroke-linecap:square;stroke-linejoin:bevel" transform="translate(-77.648 -228.098)"/>
    <path d="M80.086 229.136c-.384 0-.713.137-.988.412a1.347 1.347 0 0 0-.412.987v13.125c0 .383.138.712.412.987.275.275.604.412.988.412H93.21c.383 0 .713-.137.987-.412.275-.275.412-.604.412-.987v-13.125c0-.383-.137-.712-.412-.987a1.347 1.347 0 0 0-.987-.412zm0 .466H93.21a.9.9 0 0 1 .66.273.9.9 0 0 1 .273.66v13.125a.9.9 0 0 1-.272.66.9.9 0 0 1-.661.272H80.086a.9.9 0 0 1-.661-.272.9.9 0 0 1-.272-.66v-13.125a.9.9 0 0 1 .272-.66.9.9 0 0 1 .66-.273z" style="font-style:normal;font-weight:400;font-size:17.0078px;font-family:icomoon;vector-effect:none;fill:#000;fill-opacity:1;fill-rule:nonzero;stroke:none;stroke-width:.692308;stroke-linecap:square;stroke-linejoin:bevel" transform="translate(-77.648 -228.098)"/>
    <path d="M79.072 228.098c-.399 0-.736.137-1.011.413a1.375 1.375 0 0 0-.413 1.01v15.153c0 .398.137.735.413 1.01.275.276.612.413 1.01.413h15.153c.398 0 .735-.137 1.01-.413.276-.275.414-.612.414-1.01V229.52c0-.398-.138-.735-.413-1.01a1.375 1.375 0 0 0-1.011-.413zm0 .474h15.152c.258 0 .48.094.668.281.187.188.281.41.281.668v15.153c0 .257-.094.48-.281.668a.912.912 0 0 1-.668.28H79.072a.913.913 0 0 1-.668-.28.913.913 0 0 1-.282-.668V229.52c0-.258.094-.48.282-.668a.913.913 0 0 1 .668-.28z" style="font-style:normal;font-weight:400;font-size:19.8425px;font-family:icomoon;vector-effect:none;fill:#000;fill-opacity:1;fill-rule:nonzero;stroke:none;stroke-width:.692308;stroke-linecap:square;stroke-linejoin:bevel" transform="translate(-77.648 -228.098)"/>
    <g transform="matrix(.00158 0 0 .00158 6.53 5.38)">
        <circle cx="834.952" cy="3215.937" r="228.334" style="fill:#000;fill-opacity:1;stroke:#000;stroke-width:27;stroke-linecap:round;stroke-linejoin:bevel;stroke-opacity:0;paint-order:stroke markers fill"/>
        <path d="M977.909 3187.721h1431.258v61.047H977.909z" style="fill:#000;fill-opacity:1;stroke:#000;stroke-width:108.953;stroke-linecap:round;stroke-linejoin:bevel;stroke-opacity:0;paint-order:stroke markers fill"/>
        <circle cx="2542.952" cy="3215.937" r="228.334" style="fill:#000;fill-opacity:1;stroke:#000;stroke-width:27;stroke-linecap:round;stroke-linejoin:bevel;stroke-opacity:0;paint-order:stroke markers fill"/>
        <circle cx="1274.369" cy="3668.979" r="228.334" style="fill:#000;fill-opacity:1;stroke:#000;stroke-width:27;stroke-linecap:round;stroke-linejoin:bevel;stroke-opacity:0;paint-order:stroke markers fill"/>
        <path d="M1301.83 3633.336h694.254v55.592H1301.83z" style="fill:#000;fill-opacity:1;stroke:#000;stroke-width:72.4122;stroke-linecap:round;stroke-linejoin:bevel;stroke-opacity:0;paint-order:stroke markers fill"/>
        <circle cx="2104.369" cy="3668.979" r="228.334" style="fill:#000;fill-opacity:1;stroke:#000;stroke-width:27;stroke-linecap:round;stroke-linejoin:bevel;stroke-opacity:0;paint-order:stroke markers fill"/>
        <circle cx="490.952" cy="2687.937" r="228.334" style="fill:#000;fill-opacity:1;stroke:#000;stroke-width:27;stroke-linecap:round;stroke-linejoin:bevel;stroke-opacity:0;paint-order:stroke markers fill"/>
        <path d="M1339.909 2659.721h1431.258v61.047H1339.909z" style="fill:#000;fill-opacity:1;stroke:#000;stroke-width:108.953;stroke-linecap:round;stroke-linejoin:bevel;stroke-opacity:0;paint-order:stroke markers fill"/>
        <circle cx="2904.952" cy="2687.937" r="228.334" style="fill:#000;fill-opacity:1;stroke:#000;stroke-width:27;stroke-linecap:round;stroke-linejoin:bevel;stroke-opacity:0;paint-order:stroke markers fill"/>
        <path d="M619.909 2659.721h1431.258v61.047H619.909z" style="fill:#000;fill-opacity:1;stroke:#000;stroke-width:108.953;stroke-linecap:round;stroke-linejoin:bevel;stroke-opacity:0;paint-order:stroke markers fill"/>
        <circle cx="422.952" cy="2161.937" r="228.334" style="fill:#000;fill-opacity:1;stroke:#000;stroke-width:27;stroke-linecap:round;stroke-linejoin:bevel;stroke-opacity:0;paint-order:stroke markers fill"/>
        <path d="M1419.909 2133.721h1431.258v61.047H1419.909z" style="fill:#000;fill-opacity:1;stroke:#000;stroke-width:108.953;stroke-linecap:round;stroke-linejoin:bevel;stroke-opacity:0;paint-order:stroke markers fill"/>
        <circle cx="2984.952" cy="2161.937" r="228.334" style="fill:#000;fill-opacity:1;stroke:#000;stroke-width:27;stroke-linecap:round;stroke-linejoin:bevel;stroke-opacity:0;paint-order:stroke markers fill"/>
        <path d="M551.909 2133.721h1431.258v61.047H551.909z" style="fill:#000;fill-opacity:1;stroke:#000;stroke-width:108.953;stroke-linecap:round;stroke-linejoin:bevel;stroke-opacity:0;paint-order:stroke markers fill"/>
        <circle cx="1686.369" cy="4014.979" r="228.334" style="fill:#000;fill-opacity:1;stroke:#000;stroke-width:27;stroke-linecap:round;stroke-linejoin:bevel;stroke-opacity:0;paint-order:stroke markers fill"/>
        <circle cx="834.952" cy="-4804.624" r="228.334" style="fill:#000;fill-opacity:1;stroke:#000;stroke-width:27;stroke-linecap:round;stroke-linejoin:bevel;stroke-opacity:0;paint-order:stroke markers fill" transform="scale(1 -1)"/>
        <path d="M977.909-4832.84h1431.258v61.047H977.909z" style="fill:#000;fill-opacity:1;stroke:#000;stroke-width:108.953;stroke-linecap:round;stroke-linejoin:bevel;stroke-opacity:0;paint-order:stroke markers fill" transform="scale(1 -1)"/>
        <circle cx="2542.952" cy="-4804.624" r="228.334" style="fill:#000;fill-opacity:1;stroke:#000;stroke-width:27;stroke-linecap:round;stroke-linejoin:bevel;stroke-opacity:0;paint-order:stroke markers fill" transform="scale(1 -1)"/>
        <circle cx="1274.369" cy="-4351.583" r="228.334" style="fill:#000;fill-opacity:1;stroke:#000;stroke-width:27;stroke-linecap:round;stroke-linejoin:bevel;stroke-opacity:0;paint-order:stroke markers fill" transform="scale(1 -1)"/>
        <path d="M1301.83-4387.225h694.254v55.592H1301.83z" style="fill:#000;fill-opacity:1;stroke:#000;stroke-width:72.4122;stroke-linecap:round;stroke-linejoin:bevel;stroke-opacity:0;paint-order:stroke markers fill" transform="scale(1 -1)"/>
        <circle cx="2104.369" cy="-4351.583" r="228.334" style="fill:#000;fill-opacity:1;stroke:#000;stroke-width:27;stroke-linecap:round;stroke-linejoin:bevel;stroke-opacity:0;paint-order:stroke markers fill" transform="scale(1 -1)"/>
        <circle cx="490.952" cy="-5332.624" r="228.334" style="fill:#000;fill-opacity:1;stroke:#000;stroke-width:27;stroke-linecap:round;stroke-linejoin:bevel;stroke-opacity:0;paint-order:stroke markers fill" transform="scale(1 -1)"/>
        <path d="M1339.909-5360.84h1431.258v61.047H1339.909z" style="fill:#000;fill-opacity:1;stroke:#000;stroke-width:108.953;stroke-linecap:round;stroke-linejoin:bevel;stroke-opacity:0;paint-order:stroke markers fill" transform="scale(1 -1)"/>
        <circle cx="2904.952" cy="-5332.624" r="228.334" style="fill:#000;fill-opacity:1;stroke:#000;stroke-width:27;stroke-linecap:round;stroke-linejoin:bevel;stroke-opacity:0;paint-order:stroke markers fill" transform="scale(1 -1)"/>
        <path d="M619.909-5360.84h1431.258v61.047H619.909z" style="fill:#000;fill-opacity:1;stroke:#000;stroke-width:108.953;stroke-linecap:round;stroke-linejoin:bevel;stroke-opacity:0;paint-order:stroke markers fill" transform="scale(1 -1)"/>
        <circle cx="422.952" cy="-5858.624" r="228.334" style="fill:#000;fill-opacity:1;stroke:#000;stroke-width:27;stroke-linecap:round;stroke-linejoin:bevel;stroke-opacity:0;paint-order:stroke markers fill" transform="scale(1 -1)"/>
        <path d="M1419.909-5886.84h1431.258v61.047H1419.909z" style="fill:#000;fill-opacity:1;stroke:#000;stroke-width:108.953;stroke-linecap:round;stroke-linejoin:bevel;stroke-opacity:0;paint-order:stroke markers fill" transform="scale(1 -1)"/>
        <circle cx="2984.952" cy="-5858.624" r="228.334" style="fill:#000;fill-opacity:1;stroke:#000;stroke-width:27;stroke-linecap:round;stroke-linejoin:bevel;stroke-opacity:0;paint-order:stroke markers fill" transform="scale(1 -1)"/>
        <path d="M551.909-5886.84h1431.258v61.047H551.909z" style="fill:#000;fill-opacity:1;stroke:#000;stroke-width:108.953;stroke-linecap:round;stroke-linejoin:bevel;stroke-opacity:0;paint-order:stroke markers fill" transform="scale(1 -1)"/>
        <circle cx="1686.369" cy="-4005.582" r="228.334" style="fill:#000;fill-opacity:1;stroke:#000;stroke-width:27;stroke-linecap:round;stroke-linejoin:bevel;stroke-opacity:0;paint-order:stroke markers fill" transform="scale(1 -1)"/>
        <circle cx="834.952" cy="-476.063" r="228.334" style="fill:#000;fill-opacity:1;stroke:#000;stroke-width:27;stroke-linecap:round;stroke-linejoin:bevel;stroke-opacity:0;paint-order:stroke markers fill"/>
        <path d="M977.909-504.279h1431.258v61.047H977.909z" style="fill:#000;fill-opacity:1;stroke:#000;stroke-width:108.953;stroke-linecap:round;stroke-linejoin:bevel;stroke-opacity:0;paint-order:stroke markers fill"/>
        <circle cx="2542.952" cy="-476.063" r="228.334" style="fill:#000;fill-opacity:1;stroke:#000;stroke-width:27;stroke-linecap:round;stroke-linejoin:bevel;stroke-opacity:0;paint-order:stroke markers fill"/>
        <circle cx="1274.369" cy="-23.021" r="228.334" style="fill:#000;fill-opacity:1;stroke:#000;stroke-width:27;stroke-linecap:round;stroke-linejoin:bevel;stroke-opacity:0;paint-order:stroke markers fill"/>
        <path d="M1301.83-58.664h694.254v55.592H1301.83z" style="fill:#000;fill-opacity:1;stroke:#000;stroke-width:72.4122;stroke-linecap:round;stroke-linejoin:bevel;stroke-opacity:0;paint-order:stroke markers fill"/>
        <circle cx="2104.369" cy="-23.021" r="228.334" style="fill:#000;fill-opacity:1;stroke:#000;stroke-width:27;stroke-linecap:round;stroke-linejoin:bevel;stroke-opacity:0;paint-order:stroke markers fill"/>
        <circle cx="490.952" cy="-1004.063" r="228.334" style="fill:#000;fill-opacity:1;stroke:#000;stroke-width:27;stroke-linecap:round;stroke-linejoin:bevel;stroke-opacity:0;paint-order:stroke markers fill"/>
        <path d="M1339.909-1032.279h1431.258v61.047H1339.909z" style="fill:#000;fill-opacity:1;stroke:#000;stroke-width:108.953;stroke-linecap:round;stroke-linejoin:bevel;stroke-opacity:0;paint-order:stroke markers fill"/>
        <circle cx="2904.952" cy="-1004.063" r="228.334" style="fill:#000;fill-opacity:1;stroke:#000;stroke-width:27;stroke-linecap:round;stroke-linejoin:bevel;stroke-opacity:0;paint-order:stroke markers fill"/>
        <path d="M619.909-1032.279h1431.258v61.047H619.909z" style="fill:#000;fill-opacity:1;stroke:#000;stroke-width:108.953;stroke-linecap:round;stroke-linejoin:bevel;stroke-opacity:0;paint-order:stroke markers fill"/>
        <circle cx="422.952" cy="-1530.063" r="228.334" style="fill:#000;fill-opacity:1;stroke:#000;stroke-width:27;stroke-linecap:round;stroke-linejoin:bevel;stroke-opacity:0;paint-order:stroke markers fill"/>
        <path d="M1419.909-1558.279h1431.258v61.047H1419.909z" style="fill:#000;fill-opacity:1;stroke:#000;stroke-width:108.953;stroke-linecap:round;stroke-linejoin:bevel;stroke-opacity:0;paint-order:stroke markers fill"/>
        <circle cx="2984.952" cy="-1530.063" r="228.334" style="fill:#000;fill-opacity:1;stroke:#000;stroke-width:27;stroke-linecap:round;stroke-linejoin:bevel;stroke-opacity:0;paint-order:stroke markers fill"/>
        <path d="M551.909-1558.279h1431.258v61.047H551.909z" style="fill:#000;fill-opacity:1;stroke:#000;stroke-width:108.953;stroke-linecap:round;stroke-linejoin:bevel;stroke-opacity:0;paint-order:stroke markers fill"/>
        <circle cx="1686.369" cy="322.979" r="228.334" style="fill:#000;fill-opacity:1;stroke:#000;stroke-width:27;stroke-linecap:round;stroke-linejoin:bevel;stroke-opacity:0;paint-order:stroke markers fill"/>
        <circle cx="834.952" cy="-1112.624" r="228.334" style="fill:#000;fill-opacity:1;stroke:#000;stroke-width:27;stroke-linecap:round;stroke-linejoin:bevel;stroke-opacity:0;paint-order:stroke markers fill" transform="scale(1 -1)"/>
        <path d="M977.909-1140.84h1431.258v61.047H977.909z" style="fill:#000;fill-opacity:1;stroke:#000;stroke-width:108.953;stroke-linecap:round;stroke-linejoin:bevel;stroke-opacity:0;paint-order:stroke markers fill" transform="scale(1 -1)"/>
        <circle cx="2542.952" cy="-1112.624" r="228.334" style="fill:#000;fill-opacity:1;stroke:#000;stroke-width:27;stroke-linecap:round;stroke-linejoin:bevel;stroke-opacity:0;paint-order:stroke markers fill" transform="scale(1 -1)"/>
        <circle cx="1274.369" cy="-659.583" r="228.334" style="fill:#000;fill-opacity:1;stroke:#000;stroke-width:27;stroke-linecap:round;stroke-linejoin:bevel;stroke-opacity:0;paint-order:stroke markers fill" transform="scale(1 -1)"/>
        <path d="M1301.83-695.225h694.254v55.592H1301.83z" style="fill:#000;fill-opacity:1;stroke:#000;stroke-width:72.4122;stroke-linecap:round;stroke-linejoin:bevel;stroke-opacity:0;paint-order:stroke markers fill" transform="scale(1 -1)"/>
        <circle cx="2104.369" cy="-659.583" r="228.334" style="fill:#000;fill-opacity:1;stroke:#000;stroke-width:27;stroke-linecap:round;stroke-linejoin:bevel;stroke-opacity:0;paint-order:stroke markers fill" transform="scale(1 -1)"/>
        <circle cx="490.952" cy="-1640.624" r="228.334" style="fill:#000;fill-opacity:1;stroke:#000;stroke-width:27;stroke-linecap:round;stroke-linejoin:bevel;stroke-opacity:0;paint-order:stroke markers fill" transform="scale(1 -1)"/>
        <path d="M1339.909-1668.84h1431.258v61.047H1339.909z" style="fill:#000;fill-opacity:1;stroke:#000;stroke-width:108.953;stroke-linecap:round;stroke-linejoin:bevel;stroke-opacity:0;paint-order:stroke markers fill" transform="scale(1 -1)"/>
        <circle cx="2904.952" cy="-1640.624" r="228.334" style="fill:#000;fill-opacity:1;stroke:#000;stroke-width:27;stroke-linecap:round;stroke-linejoin:bevel;stroke-opacity:0;paint-order:stroke markers fill" transform="scale(1 -1)"/>
        <path d="M619.909-1668.84h1431.258v61.047H619.909z" style="fill:#000;fill-opacity:1;stroke:#000;stroke-width:108.953;stroke-linecap:round;stroke-linejoin:bevel;stroke-opacity:0;paint-order:stroke markers fill" transform="scale(1 -1)"/>
        <circle cx="422.952" cy="-2166.624" r="228.334" style="fill:#000;fill-opacity:1;stroke:#000;stroke-width:27;stroke-linecap:round;stroke-linejoin:bevel;stroke-opacity:0;paint-order:stroke markers fill" transform="scale(1 -1)"/>
        <path d="M1419.909-2194.84h1431.258v61.047H1419.909z" style="fill:#000;fill-opacity:1;stroke:#000;stroke-width:108.953;stroke-linecap:round;stroke-linejoin:bevel;stroke-opacity:0;paint-order:stroke markers fill" transform="scale(1 -1)"/>
        <circle cx="2984.952" cy="-2166.624" r="228.334" style="fill:#000;fill-opacity:1;stroke:#000;stroke-width:27;stroke-linecap:round;stroke-linejoin:bevel;stroke-opacity:0;paint-order:stroke markers fill" transform="scale(1 -1)"/>
        <path d="M551.909-2194.84h1431.258v61.047H551.909z" style="fill:#000;fill-opacity:1;stroke:#000;stroke-width:108.953;stroke-linecap:round;stroke-linejoin:bevel;stroke-opacity:0;paint-order:stroke markers fill" transform="scale(1 -1)"/>
        <circle cx="1686.369" cy="-313.583" r="228.334" style="fill:#000;fill-opacity:1;stroke:#000;stroke-width:27;stroke-linecap:round;stroke-linejoin:bevel;stroke-opacity:0;paint-order:stroke markers fill" transform="scale(1 -1)"/>
    </g>
</svg>
