<svg xmlns="http://www.w3.org/2000/svg" width="20" height="20" version="1.2">
    <g font-weight="400" style="fill:none;fill-rule:evenodd;stroke:#000;stroke-width:1;stroke-linecap:square;stroke-linejoin:bevel">
        <g style="font-style:normal;font-weight:400;font-size:17.00779915px;font-family:icomoon;fill:red;fill-opacity:1;stroke:none">
            <path d="M2.021-18.688h18.957c.555 0 1.03.199 1.427.596.397.396.595.872.595 1.426V2.291c0 .554-.198 1.03-.595 1.426a1.946 1.946 0 0 1-1.427.595H2.021c-.554 0-1.029-.198-1.426-.595A1.946 1.946 0 0 1 0 2.291v-18.957c0-.554.198-1.03.595-1.426a1.946 1.946 0 0 1 1.426-.596" font-size="17.008" style="vector-effect:none;fill-rule:nonzero" transform="matrix(.65217 0 0 .65217 2.5 14.687)"/>
        </g>
        <g style="font-style:normal;font-weight:400;font-size:17.00779915px;font-family:icomoon;fill:#000;fill-opacity:1;stroke:none">
            <path d="M20.979-18.014a1.3 1.3 0 0 1 .954.393 1.3 1.3 0 0 1 .393.955V2.291a1.3 1.3 0 0 1-.393.955 1.3 1.3 0 0 1-.955.393H2.021a1.3 1.3 0 0 1-.954-.393 1.3 1.3 0 0 1-.393-.955v-18.957a1.3 1.3 0 0 1 .393-.955 1.3 1.3 0 0 1 .954-.393h18.957m0-.674H2.021c-.554 0-1.029.199-1.426.596A1.946 1.946 0 0 0 0-16.666V2.291c0 .554.198 1.03.595 1.426.397.397.872.595 1.426.595h18.957c.555 0 1.03-.198 1.427-.595.397-.397.595-.872.595-1.426v-18.957c0-.554-.198-1.03-.595-1.426a1.946 1.946 0 0 0-1.426-.596M11.5-3.368l-.337-.18-5.727-3.19H5.21v4.066h11.5v-3.594L11.5-3.369m-.135-4.874h-.18c-.404 0-.76-.131-1.066-.393a1.484 1.484 0 0 1-.528-1c.045-.404.22-.737.528-1a1.594 1.594 0 0 1 1.067-.392h.292c.359 0 .68.097.965.292.285.194.495.449.63.763v.023c.014-.015.03-.023.044-.023h.09c.015 0 .03.008.045.023l5.031 2.021 2.92-1.64-9.703-5.39-9.703 5.413L11.5-4.133l6.02-3.391-4.448-1.797a1.81 1.81 0 0 1-.629.775 1.663 1.663 0 0 1-.988.303h-.112.022m7.3 2.021v-1.415a.314.314 0 0 0-.079-.123.315.315 0 0 0-.123-.079l-.202-.09-.764.427.472.202v1.078a.68.68 0 0 0-.247.236.651.651 0 0 0-.09.348V-.09c0 .18.067.337.202.472a.647.647 0 0 0 .472.202c.18 0 .337-.067.471-.202a.646.646 0 0 0 .202-.472v-5.548a.717.717 0 0 0-.314-.584" font-size="17.008" style="vector-effect:none;fill-rule:nonzero" transform="matrix(.65217 0 0 .65217 2.5 14.687)"/>
        </g>
    </g>
</svg>
