<svg
	xmlns="http://www.w3.org/2000/svg"
	xmlns:xlink="http://www.w3.org/1999/xlink" xml:space="preserve" width="20" height="20">
	<defs>
		<path id="a" d="M954.424 863.471c-30.296-.244-34.588 8.353-34.14 22.656.463 14.746 7.367 20.007 33.748 19.588l240.627.068-10.134-40.46z"/>
	</defs>
	<g transform="matrix(1.11411 0 0 1.11308 88.014 44.52)">
		<path fill="red" d="M-77.418-40.001h14.836c.433 0 .805.156 1.116.466.31.31.466.683.466 1.117v14.835c0 .434-.156.806-.466 1.117-.31.31-.683.465-1.116.465h-14.836c-.434 0-.806-.155-1.116-.465A1.523 1.523 0 0 1-79-23.583v-14.835c0-.434.155-.806.466-1.117.31-.31.682-.466 1.116-.466" font-family="icomoon" font-size="19.843" font-weight="400"/>
		<path d="M-76.562-38.962c-.384 0-.713.137-.988.412a1.347 1.347 0 0 0-.412.987v13.125c0 .383.138.712.412.987.275.275.604.412.988.412h13.124c.383 0 .713-.137.987-.412.275-.275.412-.604.412-.987v-13.125c0-.383-.137-.712-.412-.987a1.347 1.347 0 0 0-.987-.412zm0 .466h13.124a.9.9 0 0 1 .66.273.9.9 0 0 1 .273.66v13.125a.9.9 0 0 1-.272.66.9.9 0 0 1-.661.272h-13.124a.9.9 0 0 1-.661-.272.9.9 0 0 1-.272-.66v-13.125a.9.9 0 0 1 .272-.66.9.9 0 0 1 .66-.273z" font-family="icomoon" font-size="17.008" font-weight="400"/>
		<path d="M-77.576-40c-.399 0-.736.137-1.011.413a1.375 1.375 0 0 0-.413 1.01v15.153c0 .398.137.735.413 1.01a1.37 1.37 0 0 0 1.01.413h15.153a1.37 1.37 0 0 0 1.01-.413c.276-.275.414-.612.414-1.01v-15.154c0-.398-.138-.735-.413-1.01a1.375 1.375 0 0 0-1.011-.413zm0 .474h15.152c.258 0 .48.094.668.281.187.188.281.41.281.668v15.153c0 .257-.094.48-.281.668a.912.912 0 0 1-.668.28h-15.152a.913.913 0 0 1-.668-.28.913.913 0 0 1-.282-.668v-15.154c0-.258.094-.48.282-.668a.913.913 0 0 1 .668-.28z" font-family="icomoon" font-size="19.843" font-weight="400"/>
		<g paint-order="stroke markers fill" transform="translate(-88.832 -43.503) scale(.0186)">
			<circle cx="1019.344" cy="445.21" r="109.043"/>
			<path d="M1161.052 725.684c14.97 26.34 24.443 25.858 36.63 18.359 12.564-7.732 13.697-16.338.219-39.02l-130.735-219.837-27.71 26.555z"/>
		</g>
		<g paint-order="stroke markers fill" transform="translate(-88.832 -43.503) scale(.0186)">
			<circle cx="133.021" cy="-1537.865" r="109.043" transform="rotate(119.81)"/>
			<use xlink:href="#a"/>
		</g>
		<g paint-order="stroke markers fill" transform="matrix(-.00938 .01607 -.01607 -.00938 -48.666 -39.274)">
			<circle cx="133.021" cy="-1537.865" r="109.043" transform="rotate(119.81)"/>
			<use xlink:href="#a"/>
		</g>
		<circle cx="-70.483" cy="-35.825" r=".952" fill="red" paint-order="stroke markers fill"/>
		<circle cx="-75.348" cy="-27.688" r=".952" fill="red" paint-order="stroke markers fill"/>
		<circle cx="-65.753" cy="-27.688" r=".952" fill="red" paint-order="stroke markers fill"/>
	</g>
</svg>