<svg
	xmlns="http://www.w3.org/2000/svg" width="20" height="20">
	<defs>
		<clipPath id="a" clipPathUnits="userSpaceOnUse">
			<path fill="red" stroke-width=".265" d="M32.017 225.513v.183a.807.807 0 0 1 .079-.032c.08-.028.179-.047.261-.005.046.023.077.068.115.103.014.05.04.1.041.152.003.13-.063.23-.147.323a1.166 1.166 0 0 1-.163.14l-.01.008a1.287 1.287 0 0 1-.176.588v1.469h3.554v-2.929zm.201.404a.395.395 0 0 0-.116.03c.016.038.03.077.048.114l.002.012c.107-.118.011-.02.068-.114.003-.005.01-.007.015-.01.01-.002.023.002.03-.005.005-.005.003-.02-.004-.022a.117.117 0 0 0-.043-.005z"/>
		</clipPath>
	</defs>
	<path fill="#fff" d="M1.756-.001h16.471c.48 0 .894.173 1.24.518.343.344.516.758.516 1.24v16.48c0 .481-.173.895-.517 1.24a1.691 1.691 0 0 1-1.239.517H1.757a1.69 1.69 0 0 1-1.24-.517A1.69 1.692 0 0 1 0 18.237V1.756C0 1.275.172.862.517.517a1.69 1.69 0 0 1 1.24-.518" font-family="icomoon" font-size="19.843" font-weight="400"/>
	<path d="M2.707 1.153c-.427 0-.792.152-1.097.458a1.495 1.496 0 0 0-.458 1.096v14.58c0 .425.154.79.458 1.096.305.305.67.458 1.097.458h14.57c.425 0 .791-.153 1.096-.458.305-.306.457-.671.457-1.096V2.707c0-.425-.152-.79-.457-1.096a1.495 1.496 0 0 0-1.096-.458zm0 .518h14.57a1 1 0 0 1 .733.303 1 1 0 0 1 .303.733v14.58a1 1 0 0 1-.302.733 1 1 0 0 1-.734.302H2.707a1 1 0 0 1-.734-.302 1 1 0 0 1-.302-.733V2.707a1 1 0 0 1 .302-.733 1 1 0 0 1 .733-.303Z" font-family="icomoon" font-size="17.008" font-weight="400"/>
	<path d="M1.58 0C1.139 0 .765.152.46.46A1.527 1.527 0 0 0 0 1.58v16.832c0 .442.152.816.459 1.122.305.306.679.459 1.12.459h16.824c.441 0 .816-.153 1.12-.46a1.52 1.52 0 0 0 .46-1.121V1.58c0-.442-.153-.817-.458-1.122a1.527 1.527 0 0 0-1.122-.459Zm0 .527h16.823c.286 0 .532.104.741.312.208.209.312.455.312.742v16.832c0 .285-.104.533-.312.742a1.012 1.013 0 0 1-.741.311H1.58a1.014 1.014 0 0 1-.742-.311 1.014 1.014 0 0 1-.313-.742V1.58c0-.287.105-.533.313-.742A1.014 1.014 0 0 1 1.58.527Z" font-family="icomoon" font-size="19.843" font-weight="400"/>
	<path d="M6.579 14.3c.118-1.841.775-5.694 3.882-7.404.692-.38 1.791-.866 2.622-1.408 1.134-.738 3.02-2.264 3.204-2.493.232-.287.407 4.743-1.628 7.806-2.114 3.182-8.08 3.499-8.08 3.499z"/>
	<path fill="#fff" d="M7.354 13.582c.63-1.3 1.474-2.6 2.631-3.638 1.118-1.005 2.786-1.665 3.82-2.75.649-.678 1.165-1.572 1.555-2.437-.188.937-.542 1.844-1.183 2.668-.975 1.252-2.481 1.886-3.702 2.897-1.233 1.02-2.099 2.125-3.121 3.26z"/>
	<path fill="#020202" d="M32.59 228.18c-.198.002-.363 0-.57 0 .136-.11 0 .001.061-.051l3.102-2.561a.263.263 0 0 1 .322 0 .165.165 0 0 1 0 .265l-2.8 2.254a.895.895 0 0 1-.115.093z" clip-path="url(#a)" transform="matrix(1.1102 0 0 1.11081 -32.218 -236.687)"/>
</svg>