<svg xmlns="http://www.w3.org/2000/svg" width="20" height="20" version="1.2">
    <g font-weight="400" style="fill:none;fill-rule:evenodd;stroke:#000;stroke-width:1;stroke-linecap:square;stroke-linejoin:bevel">
        <g style="font-style:normal;font-weight:400;font-size:17.00779915px;font-family:icomoon;fill:#fff;fill-opacity:1;stroke:none">
            <path d="M2.021-18.688h18.957c.555 0 1.03.199 1.427.596.397.396.595.872.595 1.426V2.291c0 .554-.198 1.03-.595 1.426a1.946 1.946 0 0 1-1.427.595H2.021c-.554 0-1.029-.198-1.426-.595A1.946 1.946 0 0 1 0 2.291v-18.957c0-.554.198-1.03.595-1.426a1.946 1.946 0 0 1 1.426-.596" font-size="17.008" style="vector-effect:none;fill-rule:nonzero" transform="matrix(.65217 0 0 .65217 2.5 14.687)"/>
        </g>
        <g style="font-style:normal;font-weight:400;font-size:17.00779915px;font-family:icomoon;fill:#000;fill-opacity:1;stroke:none">
            <path d="M20.979-18.014a1.3 1.3 0 0 1 .954.393 1.3 1.3 0 0 1 .393.955V2.291a1.3 1.3 0 0 1-.393.955 1.3 1.3 0 0 1-.955.393H2.021a1.3 1.3 0 0 1-.954-.393 1.3 1.3 0 0 1-.393-.955v-18.957a1.3 1.3 0 0 1 .393-.955 1.3 1.3 0 0 1 .954-.393h18.957m0-.674H2.021c-.554 0-1.029.199-1.426.596A1.946 1.946 0 0 0 0-16.666V2.291c0 .554.198 1.03.595 1.426.397.397.872.595 1.426.595h18.957c.555 0 1.03-.198 1.427-.595.397-.397.595-.872.595-1.426v-18.957c0-.554-.198-1.03-.595-1.426a1.946 1.946 0 0 0-1.426-.596m-.674 10.153h-7.457v-7.457h-2.696v7.457H2.695v2.695h7.457v7.457h2.696V-5.84h7.457v-2.695M9.479-11.253c0 .57-.199 1.052-.596 1.449-.397.397-.88.595-1.448.595-.554 0-1.03-.198-1.427-.595a1.972 1.972 0 0 1-.595-1.449c0-.554.198-1.03.595-1.426a1.946 1.946 0 0 1 1.427-.595c.569 0 1.051.198 1.448.595.397.397.596.872.596 1.426m8.108 0c0 .57-.198 1.052-.595 1.449a1.946 1.946 0 0 1-1.427.595 1.972 1.972 0 0 1-1.448-.595 1.972 1.972 0 0 1-.595-1.449c0-.554.198-1.03.595-1.426.397-.397.88-.595 1.448-.595.555 0 1.03.198 1.427.595.397.397.595.872.595 1.426m-8.108 8.13c0 .555-.199 1.03-.596 1.427-.397.397-.88.595-1.448.595-.554 0-1.03-.198-1.427-.595a1.946 1.946 0 0 1-.595-1.426c0-.57.198-1.052.595-1.449a1.946 1.946 0 0 1 1.427-.595c.569 0 1.051.198 1.448.595.397.397.596.88.596 1.449m8.108 0c0 .554-.198 1.03-.595 1.426a1.946 1.946 0 0 1-1.427.595 1.972 1.972 0 0 1-1.448-.595 1.946 1.946 0 0 1-.595-1.426c0-.57.198-1.052.595-1.449.397-.397.88-.595 1.448-.595.555 0 1.03.198 1.427.595.397.397.595.88.595 1.449" font-size="17.008" style="vector-effect:none;fill-rule:nonzero" transform="matrix(.65217 0 0 .65217 2.5 14.687)"/>
        </g>
    </g>
</svg>
