<svg xmlns="http://www.w3.org/2000/svg" width="20" height="20" version="1.2">
    <g font-weight="400" style="fill:none;fill-rule:evenodd;stroke:#000;stroke-width:1;stroke-linecap:square;stroke-linejoin:bevel">
        <g style="font-style:normal;font-weight:400;font-size:22.67709923px;font-family:icomoon;fill:red;fill-opacity:1;stroke:none">
            <path d="M2.637-24.375h24.726c.723 0 1.343.259 1.86.776.518.518.777 1.138.777 1.86V2.989c0 .723-.259 1.343-.776 1.86a2.538 2.538 0 0 1-1.86.777H2.636a2.538 2.538 0 0 1-1.86-.776A2.538 2.538 0 0 1 0 2.989v-24.727c0-.723.259-1.343.776-1.86a2.538 2.538 0 0 1 1.86-.777" font-size="22.677" style="vector-effect:none;fill-rule:nonzero" transform="matrix(.66667 0 0 .66667 0 16.25)"/>
        </g>
        <g style="font-style:normal;font-weight:400;font-size:17.00779915px;font-family:icomoon;fill:#000;fill-opacity:1;stroke:none">
            <path d="M20.979-18.014a1.3 1.3 0 0 1 .954.393 1.3 1.3 0 0 1 .393.955V2.291a1.3 1.3 0 0 1-.393.955 1.3 1.3 0 0 1-.955.393H2.021a1.3 1.3 0 0 1-.954-.393 1.3 1.3 0 0 1-.393-.955v-18.957a1.3 1.3 0 0 1 .393-.955 1.3 1.3 0 0 1 .954-.393h18.957m0-.674H2.021c-.554 0-1.029.199-1.426.596A1.946 1.946 0 0 0 0-16.666V2.291c0 .554.198 1.03.595 1.426.397.397.872.595 1.426.595h18.957c.555 0 1.03-.198 1.427-.595.397-.397.595-.872.595-1.426v-18.957c0-.554-.198-1.03-.595-1.426a1.946 1.946 0 0 0-1.426-.596M6.424-2.448c0 .33-.112.602-.337.82a1.122 1.122 0 0 1-.809.325c-.314 0-.584-.108-.808-.325a1.092 1.092 0 0 1-.337-.82c0-.315.112-.58.337-.798.224-.217.494-.325.808-.325.315 0 .584.108.809.325.225.218.337.483.337.798m2.538 0c0 .33-.112.602-.337.82a1.122 1.122 0 0 1-.809.325c-.314 0-.584-.108-.808-.325a1.092 1.092 0 0 1-.337-.82c0-.315.112-.58.337-.798.224-.217.494-.325.808-.325.315 0 .584.108.809.325.225.218.337.483.337.798m7.502 0c0 .33-.112.602-.337.82a1.122 1.122 0 0 1-.809.325c-.314 0-.584-.108-.808-.325a1.092 1.092 0 0 1-.337-.82c0-.315.112-.58.337-.798.224-.217.494-.325.808-.325.315 0 .584.108.809.325.225.218.337.483.337.798m2.538 0c0 .33-.112.602-.337.82a1.122 1.122 0 0 1-.809.325c-.314 0-.584-.108-.808-.325a1.092 1.092 0 0 1-.337-.82c0-.315.112-.58.337-.798.225-.217.494-.325.808-.325.315 0 .584.108.809.325.225.218.337.483.337.798M20.978-7.3l-1.954-2.695a.367.367 0 0 0-.056-.045.138.138 0 0 0-.078-.022h-6.042v-.427c.03 0 .052-.008.067-.023l.045-.045 1.415-1.19a.427.427 0 0 0 .079-.112.347.347 0 0 0 .033-.158v-.022a.277.277 0 0 0-.045-.157.216.216 0 0 0-.112-.09l-2.493-1.572v-1.326a.323.323 0 0 0-.101-.235.323.323 0 0 0-.472 0 .323.323 0 0 0-.1.235v1.123a.201.201 0 0 0-.102.068.394.394 0 0 0-.056.112l-2.538 1.617a.29.29 0 0 0-.101.113.771.771 0 0 0-.056.157v.022a.3.3 0 0 0 .134.247l1.393 1.213h.067v.45H3.818a.138.138 0 0 0-.078.022.364.364 0 0 0-.056.045L1.729-7.277V-2.448c0 .045.015.086.045.123.03.038.068.056.113.056h1.707a.138.138 0 0 0 .112-.056.193.193 0 0 0 .045-.123v-1.056l.45-.427h4.671v.584c0 .045.019.083.056.113.038.03.079.045.124.045h.606v.74c0 .046.019.083.056.113.038.03.079.045.124.045h3.526a.152.152 0 0 0 .158-.157v-.741h.673c.06 0 .105-.02.135-.057a.194.194 0 0 0 .045-.123v-.562h4.178l.763.427v1.056c0 .045.02.082.057.112.037.03.078.045.123.045h1.348c.03 0 .06-.015.09-.045a.153.153 0 0 0 .045-.112V-7.3m-3.841-1.707v2.246h-2.246v-2.246h2.246m-12.399.292v1.954H3.1l1.64-1.954M5.975-6.76v-2.246H8.22v2.246H5.975m7.21-2.246v2.246H9.479v-2.246h3.706m6.738 2.246H18.26v-1.954l1.662 1.954M9.23-11.927l2.18-1.392 2.2 1.392-1.055.921c-.015 0-.03.008-.045.023l-.045.045h-2.111a.176.176 0 0 1-.034-.045c-.008-.015-.019-.023-.034-.023l-1.056-.92" font-size="17.008" style="vector-effect:none;fill-rule:nonzero" transform="matrix(.66667 0 0 .66667 2.333 14.792)"/>
        </g>
        <g style="font-style:normal;font-weight:400;font-size:22.67709923px;font-family:icomoon;fill:#000;fill-opacity:1;stroke:none">
            <path d="M26.426-22.236c.39 0 .727.141 1.01.425.284.283.425.62.425 1.01V2.051c0 .39-.141.727-.425 1.01a1.38 1.38 0 0 1-1.01.425H3.574a1.38 1.38 0 0 1-1.01-.424 1.38 1.38 0 0 1-.425-1.011v-22.852c0-.39.141-.727.424-1.01a1.38 1.38 0 0 1 1.011-.425h22.852m0-.703H3.574c-.586 0-1.089.21-1.509.63-.42.42-.63.922-.63 1.508V2.051c0 .586.21 1.089.63 1.509.42.42.923.63 1.51.63h22.85c.587 0 1.09-.21 1.51-.63.42-.42.63-.923.63-1.51V-20.8c0-.587-.21-1.09-.63-1.51-.42-.42-.923-.63-1.51-.63m1.436-.732c.391 0 .728.142 1.011.425.283.283.425.62.425 1.01V3.487c0 .39-.142.728-.425 1.011a1.38 1.38 0 0 1-1.01.425H2.138a1.38 1.38 0 0 1-1.011-.425 1.38 1.38 0 0 1-.425-1.01v-25.723c0-.391.142-.728.425-1.011a1.38 1.38 0 0 1 1.01-.425h25.723m0-.703H2.14c-.586 0-1.09.21-1.51.63-.419.42-.629.923-.629 1.509V3.486c0 .586.21 1.09.63 1.51.42.419.923.629 1.509.629H27.86c.586 0 1.09-.21 1.51-.63.419-.42.629-.923.629-1.509v-25.722c0-.586-.21-1.09-.63-1.51-.42-.419-.923-.629-1.509-.629" font-size="22.677" style="vector-effect:none;fill-rule:nonzero" transform="matrix(.66667 0 0 .66667 0 16.25)"/>
        </g>
    </g>
</svg>
