<svg xmlns="http://www.w3.org/2000/svg" width="20" height="20" version="1.2">
    <g font-weight="400" style="fill:none;fill-rule:evenodd;stroke:#000;stroke-width:1;stroke-linecap:square;stroke-linejoin:bevel">
        <g style="font-style:normal;font-weight:400;font-size:17.00779915px;font-family:icomoon;fill:red;fill-opacity:1;stroke:none">
            <path d="M2.021-18.688h18.957c.555 0 1.03.199 1.427.596.397.396.595.872.595 1.426V2.291c0 .554-.198 1.03-.595 1.426a1.946 1.946 0 0 1-1.427.595H2.021c-.554 0-1.029-.198-1.426-.595A1.946 1.946 0 0 1 0 2.291v-18.957c0-.554.198-1.03.595-1.426a1.946 1.946 0 0 1 1.426-.596" font-size="17.008" style="vector-effect:none;fill-rule:nonzero" transform="matrix(.65217 0 0 .65217 2.5 14.687)"/>
        </g>
        <g style="font-style:normal;font-weight:400;font-size:17.00779915px;font-family:icomoon;fill:#000;fill-opacity:1;stroke:none">
            <path d="M20.979-18.014a1.3 1.3 0 0 1 .954.393 1.3 1.3 0 0 1 .393.955V2.291a1.3 1.3 0 0 1-.393.955 1.3 1.3 0 0 1-.955.393H2.021a1.3 1.3 0 0 1-.954-.393 1.3 1.3 0 0 1-.393-.955v-18.957a1.3 1.3 0 0 1 .393-.955 1.3 1.3 0 0 1 .954-.393h18.957m0-.674H2.021c-.554 0-1.029.199-1.426.596A1.946 1.946 0 0 0 0-16.666V2.291c0 .554.198 1.03.595 1.426.397.397.872.595 1.426.595h18.957c.555 0 1.03-.198 1.427-.595.397-.397.595-.872.595-1.426v-18.957c0-.554-.198-1.03-.595-1.426a1.946 1.946 0 0 0-1.426-.596m-.63 11.5a8.624 8.624 0 0 0-.808-3.256 8.878 8.878 0 0 0-1.898-2.628 9.02 9.02 0 0 0-2.707-1.775 8.435 8.435 0 0 0-3.301-.651 8.435 8.435 0 0 0-3.302.651 8.943 8.943 0 0 0-2.729 1.775 8.877 8.877 0 0 0-1.898 2.628A8.16 8.16 0 0 0 2.92-7.21v.022h-.831V2.18h19.07v-9.367h-.81m-7.546 1.573h-2.718v-.966h2.718v.966M9.299-9.187v-1.392h1.348v1.37l-1.348.022m4.178 0h-1.348v-1.392h1.348v1.392m.628 3.572v-.966h.607v-3.437h-.045a3.238 3.238 0 0 0-1.1-1.796 3.008 3.008 0 0 0-2-.72c-.03 0-.06.005-.09.012a.368.368 0 0 1-.09.011.308.308 0 0 1-.067-.011.368.368 0 0 0-.09-.011 3.08 3.08 0 0 0-2.01.707 3.05 3.05 0 0 0-1.09 1.786l-.022.022v3.437h.652v.966H5.48v-1.572H4.268a7.1 7.1 0 0 1 .673-2.74 7.355 7.355 0 0 1 1.606-2.224 7.5 7.5 0 0 1 2.303-1.483 7.211 7.211 0 0 1 2.785-.539c.973 0 1.894.18 2.762.54.884.359 1.655.853 2.314 1.482a7.451 7.451 0 0 1 1.595 2.223c.404.839.629 1.745.673 2.718v.022h-1.212v1.573h-3.662" font-size="17.008" style="vector-effect:none;fill-rule:nonzero" transform="matrix(.65217 0 0 .65217 2.5 14.687)"/>
        </g>
    </g>
</svg>
