<svg xmlns="http://www.w3.org/2000/svg" xml:space="preserve" width="20" height="20"><path fill="#fff" d="M2.03.281h16.15c.47 0 .875.17 1.213.507.339.34.508.746.508 1.219v16.181c0 .474-.17.88-.506 1.219a1.66 1.66 0 0 1-1.216.507H2.031c-.473 0-.878-.168-1.216-.507a1.658 1.661 0 0 1-.506-1.219V2.007c0-.473.17-.878.506-1.217A1.655 1.655 0 0 1 2.031.283" font-family="icomoon" font-size="19.843" font-weight="400"/><path d="M1.783 0C1.303 0 .89.173.545.519a1.69 1.693 0 0 0-.517 1.24v16.497c0 .482.173.897.517 1.241.345.347.758.52 1.238.52h16.464c.48 0 .893-.174 1.238-.52a1.69 1.69 0 0 0 .517-1.24V1.76c0-.482-.173-.897-.517-1.241a1.69 1.693 0 0 0-1.238-.52Zm0 .587h16.464c.325 0 .6.113.828.342.228.228.342.505.342.83v16.497a1.13 1.132 0 0 1-.342.832 1.128 1.13 0 0 1-.828.341H1.783a1.128 1.13 0 0 1-.828-.341 1.13 1.132 0 0 1-.342-.832V1.76c0-.326.114-.603.342-.831a1.13 1.132 0 0 1 .828-.342Z" font-family="icomoon" font-size="17.008" font-weight="400"/><path d="M12.827 18.764c-.138-.045-.485-.226-.792-.414-1.058-.646-1.375-.685-2.09-.258-.442.263-.43.272-.43-.34 0-.617.008-.633.474-.817.7-.276 1.496-.155 2.172.331.964.694 1.42.705 2.423.06 1.164-.747 1.75-.754 2.816-.031.272.184.44.266.777.378.73.241.89.388.816.74-.14.673-.794.575-2.124-.318-.616-.414-1.075-.368-2.045.205-.937.553-1.395.659-1.997.464zM.5 16.317v-2.489l4.127-.02c2.27-.01 4.136-.01 4.15-.001.012.008.023 1.137.023 2.508v2.49H.5Zm12.637.449c-.27-.05-.429-.126-1.105-.518-1.01-.588-1.435-.632-2.105-.221l-.366.225-.016-.529c-.018-.622-.02-.613.104-.695.713-.473 1.652-.4 2.57.202.944.618 1.55.656 2.193.135 1.03-.835 1.97-.876 2.982-.13.368.27.576.366.952.439.481.093.598.185.638.508.046.362-.162.569-.564.56-.437-.008-.736-.143-1.416-.634-.73-.528-1.17-.507-2.125.101-.874.557-1.195.66-1.742.557zm-.095-1.977c-.17-.047-.462-.204-.702-.38-.865-.63-1.564-.752-2.385-.416-.485.198-.44.242-.44-.434v-.579h-.357c-.416 0-.363.083-.437-.678-.073-.757-.206-1.298-.412-1.685-.102-.19-.255-.566-.255-.625 0-.111 1.466-.482 2.455-.621l1.073-.16a40.4 40.4 0 0 1 2.968-.358c.436-.034.877-.07.98-.082.91-.103 2.585-.096 2.89.012.28.099.024 1.896-.466 3.279-.318.899-.61 1.612-.778 1.898l-.063.108-.46-.13c-.787-.224-1.298-.141-1.979.32-.548.371-.73.476-.898.516-.163.04-.61.049-.734.014zM.873 12.484v-.495l.101-.026c.056-.013.295-.097.532-.185.237-.088.437-.15.446-.14.018.023-.078 1.258-.102 1.308-.01.019-.233.034-.497.034h-.48Zm1.389.47c-.04-.05-.02-.831.026-1.084.445-2.422 2.643-3.772 4.351-2.672 1.15.741 1.934 2.391 1.737 3.657l-.02.125H5.32c-1.67 0-3.046-.011-3.058-.027zm1.504-.453c.628 0 1.055-.016 1.055-.037 0-.047-1.212-1.61-1.407-1.813-.18-.187-.193-.178-.418.286-.255.524-.494 1.668-.333 1.589.027-.014.524-.024 1.103-.024zm4.256-.153c0-.46-.36-1.54-.598-1.794-.078-.082-1.433 1.52-1.576 1.863-.035.084-.035.084 1.07.084h1.104ZM5.093 9.301c-.1-.086-.562.055-.94.287-.755.461-.741.52.466 1.967l.497.596.008-1.408c.006-1.1 0-1.416-.031-1.442Zm1.282 1.775.73-.936-.155-.181c-.27-.316-1.03-.684-1.422-.69-.013 0-.023.639-.023 1.418v1.418l.07-.046c.038-.026.398-.468.8-.983zm-5.502.056c0-.876.25-1.204 1.539-2.023.79-.502 1.524-.983 3.372-2.21.505-.335 1.078-.713 1.275-.84.196-.128.672-.443 1.057-.7a38.959 38.959 0 0 1 2.098-1.318c.467-.276.752-.464.821-.542.008-.009-.027-.069-.076-.135-.287-.385-.907-.192-2.018.628-.257.19-.629.456-.825.592a487.196 625.318 0 0 0-1.547 1.07 334.372 334.372 0 0 1-2.836 1.96c-.471.325-.686.47-1.508 1.016l-.666.446c-.198.136-.237.109-.175-.119.134-.487.563-1.006 1.508-1.822.614-.53.653-.634.717-1.875.07-1.34.257-1.754.897-1.982.638-.227.97-.043 1.24.688.183.493.108.527 1.39-.639 3.417-3.107 4.022-3.149 4.461-.31.03.186.046.228.088.212.712-.264 1.53-.204 1.907.141.412.376.89 2.523 1.035 4.653.026.37.003.367-.393-.075-.594-.66-1.905-.696-3.611-.095l-.614.216-.96.34c-2.052.728-1.797.671-2.093.466-1.648-1.149-3.757-.357-4.63 1.737l-.132.314-.295.127c-.277.118-.96.371-1.005.371-.01 0-.02-.131-.02-.292z"/><path d="M8.714 18.761h.048l-.04-.006.048.003.014.02.016.027v.762H.572v-1.371h8.152Z" paint-order="stroke markers fill"/></svg>