<svg xmlns="http://www.w3.org/2000/svg" width="26.667" height="26.667">
    <defs>
        <clipPath id="a" clipPathUnits="userSpaceOnUse">
            <path d="M0 20h20V0H0Z"/>
        </clipPath>
    </defs>
    <path d="M.43.405h19.139v19.139H.43Z" style="fill:#d40000;fill-opacity:1;fill-rule:nonzero;stroke:none" transform="matrix(1.33333 0 0 -1.33333 0 26.667)"/>
    <g clip-path="url(#a)" transform="matrix(1.33333 0 0 -1.33333 0 26.667)">
        <path d="M0 0c-.488 0-.861-.402-.861-.89 0-.459.344-.832.804-.889 0 .029 0 .057-.029.057 0 .058-.029.115-.029.173 0 .057-.028.114-.028.172v.172c0 .057.028.115.028.143.029.058.029.115.058.144a.567.567 0 0 0 .114.229c.058.086.115.144.173.201a.764.764 0 0 0 .229.201c.029.029.057.029.057.057A.656.656 0 0 1 0 0" style="fill:#000;fill-opacity:1;fill-rule:nonzero;stroke:none" transform="translate(6.313 14.437)"/>
        <path d="M0 0c.555 0 1.004-.437 1.004-.976 0-.538-.449-.975-1.004-.975-.555 0-1.004.437-1.004.975C-1.004-.437-.555 0 0 0" style="fill:#000;fill-opacity:1;fill-rule:nonzero;stroke:none" transform="translate(9.928 14.494)"/>
        <path d="M0 0c-.287 0-.861 0-1.148-.029-.287 0-.287-.028-.344-.516-.029-.488-.115-1.435-.144-1.894-.028-.459 0-.459.144-.459.143 0 .402.029.516 0 .115-.029.115-.086.173-.89.028-.803.114-2.381.172-3.156.057-.775.115-.775.315-.775h.718c.172 0 .201.029.229.861.029.832.115 2.41.172 3.214.058.803.087.803.201.803.115 0 .316 0 .402.058.086.057.057.143-.143.602C1.062-1.722.689-.89.488-.459.287-.029.287 0 .258.029.287 0 .287 0 0 0" style="fill:#000;fill-opacity:1;fill-rule:nonzero;stroke:none" transform="translate(6.341 12.055)"/>
        <path d="M0 0h-1.521c-.402.029-.459.086-.574.316-.114.229-.373.66-.516.86-.172.201-.287.201-.431.115-.143-.086-.373-.229-.43-.344-.057-.144 0-.258.287-.746s.803-1.349 1.062-1.837c.258-.487.258-.66.344-1.635.086-.976.258-2.812.373-3.702.115-.918.172-.918.373-.889.23 0 .603 0 .803.057.201.058.23.144.287.89.058.746.086 2.18.144 2.869.057.689.115.717.229.717.144 0 .345 0 .46.058.114.029.114.115 0 .66A43.624 43.624 0 0 1 .516-.574C.43-.057.402-.029.373 0H0" style="fill:#000;fill-opacity:1;fill-rule:nonzero;stroke:none" transform="translate(10.703 12.227)"/>
        <path d="M0 0a.947.947 0 1 0 0-1.894A.947.947 0 0 0 0 0" style="fill:#000;fill-opacity:1;fill-rule:nonzero;stroke:none" transform="translate(13.572 14.437)"/>
        <path d="M0 0c-.43.029-1.234 0-1.664-.029-.431-.028-.402-.114-.316-.66.086-.545.258-1.549.287-2.066.057-.516-.029-.545-.057-.602-.029-.058-.029-.115 0-.832.028-.746.114-2.152.172-2.841.057-.717.115-.717.287-.717.201 0 .516.028.717.057.172.057.23.143.258.889.058.746.115 2.153.173 2.841.057.689.114.718.258.718.143 0 .373.028.459.086.086.057.115.114.057.631C.574-2.009.488-1.062.43-.545.43-.086.402-.029 0 0" style="fill:#000;fill-opacity:1;fill-rule:nonzero;stroke:none" transform="translate(14.49 12.17)"/>
        <path d="M0 0c-.172.172-.258.115-.316.029-.057-.058-.143-.144 0-.345.115-.2.402-.574.603-.717.172-.143.258-.086.316-.029.057.058.143.115.028.316C.459-.545.172-.172 0 0" style="fill:#000;fill-opacity:1;fill-rule:nonzero;stroke:none" transform="translate(8.408 16.015)"/>
        <path d="M0 0c.172.172.258.115.316.029.057-.086.143-.144 0-.345-.115-.201-.402-.574-.603-.717-.201-.143-.258-.086-.316-.029-.057.058-.143.115-.028.316.172.229.459.603.631.746" style="fill:#000;fill-opacity:1;fill-rule:nonzero;stroke:none" transform="translate(11.679 15.929)"/>
        <path d="M0 0c-.029.23-.115.23-.201.23-.086 0-.172-.029-.229-.259-.058-.229-.058-.688-.029-.918.029-.229.115-.229.201-.229.086 0 .172 0 .229.229C.029-.717.057-.23 0 0" style="fill:#000;fill-opacity:1;fill-rule:nonzero;stroke:none" transform="translate(10.244 16.33)"/>
        <path d="M0 0a.844.844 0 0 0-.258-.631A.845.845 0 0 0-.89-.89h-12.625a.844.844 0 0 0-.631.259.84.84 0 0 0-.259.631v12.626a.84.84 0 0 0 .259.631.844.844 0 0 0 .631.258H-.89c.259 0 .46-.086.632-.258A.844.844 0 0 0 0 12.626Zm.057 13.601a1.3 1.3 0 0 1-.947.402h-12.625c-.373 0-.689-.144-.947-.402a1.302 1.302 0 0 1-.402-.947V.029c-.028-.373.115-.689.373-.976.259-.258.574-.402.947-.402H-.918c.373 0 .688.144.947.402C.287-.689.43-.373.43 0v12.626c0 .401-.114.717-.373.975" style="fill:#000;fill-opacity:1;fill-rule:nonzero;stroke:none" transform="translate(17.217 3.651)"/>
        <path d="M0 0h-17.131c-.401 0-.717-.143-1.004-.43-.287-.287-.43-.603-.43-1.005v-17.13c0-.402.143-.718.43-1.005.287-.287.603-.43 1.004-.43H0c.402 0 .717.143 1.004.43.287.287.431.603.431 1.005v17.13c0 .402-.144.718-.431 1.005C.717-.143.402 0 0 0m0-.488a.83.83 0 0 0 .66-.287c.201-.201.287-.401.287-.66v-17.13a.83.83 0 0 0-.287-.66c-.201-.172-.402-.287-.66-.287h-17.131a.832.832 0 0 0-.66.287c-.2.201-.286.401-.286.66v17.13c0 .259.086.488.286.66.201.201.402.287.66.287H0m-.947-.488h-15.237c-.401 0-.717-.143-1.004-.43-.287-.287-.43-.603-.43-1.004v-15.208c0-.402.143-.718.43-1.005.287-.287.603-.43 1.004-.43H-.947c.402 0 .717.143 1.004.43.287.287.431.603.431 1.005v15.236c0 .402-.144.718-.431 1.005a1.361 1.361 0 0 1-1.004.401m0-.459a.83.83 0 0 0 .66-.287c.201-.201.287-.401.287-.66v-15.236a.83.83 0 0 0-.287-.66c-.201-.201-.402-.287-.66-.287h-15.237a.832.832 0 0 0-.66.287c-.2.201-.287.401-.287.66v15.236c0 .259.087.488.287.66.201.201.402.287.66.287z" style="fill:#000;fill-opacity:1;fill-rule:nonzero;stroke:none" transform="translate(18.565 19.982)"/>
    </g>
</svg>
