<svg xmlns="http://www.w3.org/2000/svg" width="26.667" height="26.667">
    <defs>
        <clipPath id="a" clipPathUnits="userSpaceOnUse">
            <path d="M0 20h20V0H0Z"/>
        </clipPath>
    </defs>
    <g clip-path="url(#a)" transform="matrix(1.33333 0 0 -1.33333 0 26.667)">
        <path d="M0 0a.895.895 0 0 1-.89-.89.9.9 0 0 1 .804-.889c0 .029 0 .057-.029.057 0 .058-.028.115-.028.173 0 .057-.029.114-.029.172v.172c0 .057.029.115.029.143.028.058.028.115.057.144.029.086.057.172.115.229.057.086.114.144.172.201a.764.764 0 0 0 .229.201c.029.029.058.029.086.057A.62.62 0 0 1 0 0" style="fill:#000;fill-opacity:1;fill-rule:nonzero;stroke:none" transform="translate(6.456 14.627)"/>
        <path d="M0 0c.555 0 1.004-.437 1.004-.976 0-.538-.449-.975-1.004-.975-.555 0-1.004.437-1.004.975C-1.004-.437-.555 0 0 0" style="fill:#000;fill-opacity:1;fill-rule:nonzero;stroke:none" transform="translate(10.13 14.684)"/>
        <path d="M0 0c-.287 0-.89 0-1.176-.029-.287 0-.287-.028-.345-.516-.028-.488-.115-1.406-.143-1.894-.029-.459 0-.459.143-.459.144 0 .402.029.545 0 .144-.029.115-.086.173-.89.057-.803.114-2.381.172-3.156.057-.775.115-.775.315-.775H.43c.201 0 .201.029.23.832.029.804.115 2.411.172 3.185.058.804.086.804.201.804.115 0 .316 0 .402.057.086.058.057.144-.144.603C1.09-1.779.717-.947.517-.516c-.201.43-.23.459-.23.459C.287 0 .287 0 0 0" style="fill:#000;fill-opacity:1;fill-rule:nonzero;stroke:none" transform="translate(6.514 12.245)"/>
        <path d="M0 0h-1.549c-.402.029-.46.086-.574.316-.115.229-.373.66-.546.86-.172.201-.287.201-.459.115-.172-.086-.373-.229-.459-.344-.057-.144 0-.258.287-.717.287-.488.804-1.32 1.062-1.837.258-.488.258-.66.344-1.635.086-.976.258-2.784.373-3.702.115-.918.172-.918.373-.89.23 0 .603 0 .804.058.201.057.258.143.287.889.028.746.086 2.152.143 2.87.057.717.115.717.258.717.144 0 .373 0 .459.058.115.028.115.114 0 .659C.717-2.037.517-1.062.43-.545.316-.029.316 0 .287.029.373 0 .373 0 0 0" style="fill:#000;fill-opacity:1;fill-rule:nonzero;stroke:none" transform="translate(10.904 12.418)"/>
        <path d="M0 0a.947.947 0 1 0 0-1.894A.947.947 0 0 0 0 0" style="fill:#000;fill-opacity:1;fill-rule:nonzero;stroke:none" transform="translate(13.802 14.598)"/>
        <path d="M0 0c-.43.029-1.263 0-1.664-.029-.402-.057-.402-.114-.316-.66.086-.545.258-1.549.316-2.066.057-.516-.029-.545-.058-.602-.028-.058-.028-.115 0-.832a93.1 93.1 0 0 1 .173-2.841c.057-.717.114-.717.315-.717s.517.028.718.057c.2.029.229.143.286.889.058.746.115 2.124.173 2.841.057.718.114.689.258.718.143 0 .373.028.488.086.114.057.114.114.057.631-.057.516-.143 1.463-.201 1.98C.43-.086.43-.029 0 0" style="fill:#000;fill-opacity:1;fill-rule:nonzero;stroke:none" transform="translate(14.72 12.36)"/>
        <path d="M0 0c-.172.143-.258.115-.316.029-.057-.058-.143-.144 0-.345.115-.2.402-.574.603-.717.172-.143.258-.086.316-.029.057.058.143.115.028.316C.488-.516.201-.143 0 0" style="fill:#000;fill-opacity:1;fill-rule:nonzero;stroke:none" transform="translate(8.55 16.177)"/>
        <path d="M0 0c.172.143.258.115.316.029.057-.058.143-.144 0-.345-.115-.2-.402-.574-.603-.717-.201-.143-.258-.086-.316-.029-.057.058-.143.115-.028.316.143.201.43.574.631.746" style="fill:#000;fill-opacity:1;fill-rule:nonzero;stroke:none" transform="translate(11.908 16.12)"/>
        <path d="M0 0c-.029.23-.115.23-.201.23-.086 0-.201-.029-.229-.259-.058-.229-.058-.688-.029-.918.029-.229.115-.229.201-.229.086 0 .172 0 .229.229.058.23.058.689.029.947" style="fill:#000;fill-opacity:1;fill-rule:nonzero;stroke:none" transform="translate(10.445 16.52)"/>
        <path d="M0 0a.844.844 0 0 0-.258-.631A.845.845 0 0 0-.89-.89h-12.625a.844.844 0 0 0-.631.259.84.84 0 0 0-.259.631v12.626a.84.84 0 0 0 .259.631.844.844 0 0 0 .631.258H-.89c.259 0 .46-.086.632-.258A.844.844 0 0 0 0 12.626Zm.057 13.601a1.3 1.3 0 0 1-.947.402h-12.625c-.373 0-.689-.144-.947-.402a1.302 1.302 0 0 1-.402-.947V.029c-.028-.373.115-.689.373-.976.259-.258.574-.402.947-.402H-.918c.373 0 .688.144.947.402C.287-.689.43-.373.43 0v12.626c0 .401-.114.717-.373.975" style="fill:#000;fill-opacity:1;fill-rule:nonzero;stroke:none" transform="translate(17.217 3.67)"/>
        <path d="M0 0h-17.131c-.401 0-.717-.143-1.004-.43-.287-.287-.43-.603-.43-1.005v-17.13c0-.402.143-.718.43-1.005.287-.287.603-.43 1.004-.43H0c.402 0 .717.143 1.004.43.287.287.431.603.431 1.005v17.13c0 .402-.144.718-.431 1.005C.717-.143.402 0 0 0m0-.488a.83.83 0 0 0 .66-.287c.201-.201.287-.401.287-.66v-17.13a.83.83 0 0 0-.287-.66c-.201-.172-.402-.287-.66-.287h-17.131a.832.832 0 0 0-.66.287c-.2.201-.286.401-.286.66v17.13c0 .259.086.488.286.66.201.201.402.287.66.287H0m-.947-.488h-15.237c-.401 0-.717-.143-1.004-.43-.287-.287-.43-.603-.43-1.004v-15.208c0-.402.143-.718.43-1.005.287-.287.603-.43 1.004-.43H-.947c.402 0 .717.143 1.004.43.287.287.431.603.431 1.005v15.236c0 .402-.144.718-.431 1.005a1.361 1.361 0 0 1-1.004.401m0-.459a.83.83 0 0 0 .66-.287c.201-.201.287-.401.287-.66v-15.236a.83.83 0 0 0-.287-.66c-.201-.201-.402-.287-.66-.287h-15.237a.832.832 0 0 0-.66.287c-.2.201-.287.401-.287.66v15.236c0 .259.087.488.287.66.201.201.402.287.66.287z" style="fill:#000;fill-opacity:1;fill-rule:nonzero;stroke:none" transform="translate(18.565 20)"/>
        <path d="M0 0a.556.556 0 0 0-.23.057c-.057.029-.143.058-.2.115a.464.464 0 0 0-.115.201.537.537 0 0 0-.058.23c0 .086.029.172.058.229.029.058.057.144.115.201l17.761 17.762a.474.474 0 0 0 .201.115.556.556 0 0 0 .23.057c.172 0 .287-.057.43-.172a.583.583 0 0 0 .172-.431.532.532 0 0 0-.057-.229c-.029-.058-.057-.144-.115-.201L.43.172a.465.465 0 0 0-.2-.115A.556.556 0 0 0 0 0" style="fill:red;fill-opacity:1;fill-rule:nonzero;stroke:none" transform="translate(1.12 .52)"/>
    </g>
</svg>
