<svg xmlns="http://www.w3.org/2000/svg" width="26.667" height="26.667">
    <defs>
        <clipPath id="a" clipPathUnits="userSpaceOnUse">
            <path d="M0 20h20V0H0Z"/>
        </clipPath>
    </defs>
    <path d="M2.864 17.048h14.221V2.94H2.864Z" style="fill:#d40000;fill-opacity:1;fill-rule:nonzero;stroke:none" transform="matrix(1.33333 0 0 -1.33333 0 26.667)"/>
    <g clip-path="url(#a)" transform="matrix(1.33333 0 0 -1.33333 0 26.667)">
        <path d="M0 0a.824.824 0 0 1-.823-.816c0-.422.319-.764.743-.817 0 .027 0 .053-.026.053 0 .053-.027.105-.027.158 0 .053-.026.105-.026.158v.158c0 .053.026.105.026.132.027.052.027.105.053.131.027.079.053.158.107.211.053.079.106.132.159.184.053.079.133.132.212.185.027.026.053.026.08.052A.614.614 0 0 1 0 0" style="fill:#000;fill-opacity:1;fill-rule:nonzero;stroke:none" transform="translate(6.524 14.046)"/>
        <path d="M0 0c.513 0 .929-.401.929-.895 0-.495-.416-.896-.929-.896-.513 0-.929.401-.929.896C-.929-.401-.513 0 0 0" style="fill:#000;fill-opacity:1;fill-rule:nonzero;stroke:none" transform="translate(9.921 14.099)"/>
        <path d="M0 0c-.265 0-.823 0-1.088-.026-.266 0-.266-.027-.319-.474-.026-.448-.106-1.291-.133-1.738-.026-.422 0-.422.133-.422s.372.027.505 0c.106-.026.106-.079.159-.816.026-.738.106-2.186.159-2.897.053-.711.106-.711.292-.711h.69c.186 0 .186.026.213.764.026.737.106 2.212.159 2.923.053.737.079.737.186.737.106 0 .292 0 .371.053.08.053.053.132-.133.553-.185.421-.53 1.185-.716 1.58-.186.395-.213.421-.213.421C.265 0 .265 0 0 0" style="fill:#000;fill-opacity:1;fill-rule:nonzero;stroke:none" transform="translate(6.55 11.86)"/>
        <path d="M0 0h-1.433c-.372.026-.425.079-.531.29-.106.21-.345.605-.505.79-.159.184-.265.184-.424.105-.16-.079-.345-.211-.425-.316-.053-.132 0-.237.265-.658.266-.448.744-1.212.983-1.686.265-.447.265-.605.345-1.501.079-.895.239-2.554.345-3.397.106-.843.159-.816.371-.816.213 0 .558 0 .744.052.185.053.238.132.265.817.027.684.08 1.975.133 2.633.053.659.106.659.239.659.132 0 .345 0 .424.052.106.027.106.106 0 .606C.717-1.87.531-.974.451-.5.345-.026.345 0 .319.026.345 0 .345 0 0 0" style="fill:#000;fill-opacity:1;fill-rule:nonzero;stroke:none" transform="translate(10.638 12.019)"/>
        <path d="M0 0a.872.872 0 0 0 .876-.869A.872.872 0 0 0 0-1.738a.872.872 0 0 0-.876.869c0 .48.392.869.876.869" style="fill:#000;fill-opacity:1;fill-rule:nonzero;stroke:none" transform="translate(13.319 14.046)"/>
        <path d="M0 0c-.398.026-1.168 0-1.54-.026-.371-.053-.371-.106-.292-.606.08-.5.239-1.422.292-1.896.054-.474-.026-.5-.053-.553-.026-.053-.026-.105 0-.764.027-.658.107-1.949.16-2.607.053-.658.106-.658.292-.658.185 0 .477.026.663.052.186.027.213.132.266.817.053.684.106 1.948.159 2.607.053.658.106.632.239.658.133 0 .345.027.451.079.106.053.106.106.053.58S.557-.974.504-.5C.398-.053.372-.026 0 0" style="fill:#000;fill-opacity:1;fill-rule:nonzero;stroke:none" transform="translate(14.168 11.966)"/>
        <path d="M0 0c-.159.132-.239.105-.292.026-.053-.052-.133-.131 0-.316.106-.184.372-.526.557-.658.16-.132.239-.079.292-.026.054.052.133.105.027.289C.451-.474.186-.132 0 0" style="fill:#000;fill-opacity:1;fill-rule:nonzero;stroke:none" transform="translate(8.461 15.468)"/>
        <path d="M0 0c.159.132.239.105.292.026.053-.052.133-.131 0-.316C.186-.474-.08-.816-.265-.948c-.16-.132-.239-.079-.292-.026-.054.052-.133.105-.027.289.133.211.425.553.584.685" style="fill:#000;fill-opacity:1;fill-rule:nonzero;stroke:none" transform="translate(11.54 15.416)"/>
        <path d="M0 0c-.027.211-.106.211-.186.211-.079 0-.186-.027-.212-.237-.053-.211-.053-.632-.027-.843.027-.211.106-.211.186-.211s.159 0 .212.211C0-.658.027-.237 0 0" style="fill:#000;fill-opacity:1;fill-rule:nonzero;stroke:none" transform="translate(10.213 15.784)"/>
        <path d="M0 0a.775.775 0 0 0-.268-.616.87.87 0 0 0-.616-.268h-12.319a.778.778 0 0 0-.616.268.871.871 0 0 0-.268.616v12.319c0 .241.08.456.268.616a.871.871 0 0 0 .616.268H-.884c.241 0 .456-.08.616-.268A.87.87 0 0 0 0 12.319Zm.054 13.257c-.268.268-.563.375-.938.375h-12.319a1.39 1.39 0 0 1-.938-.375c-.267-.268-.374-.563-.374-.938V0c0-.348.133-.67.374-.937.268-.268.563-.375.938-.375H-.884c.348 0 .67.134.938.375.267.267.374.562.374.937v12.319c0 .349-.107.67-.374.938" style="fill:#000;fill-opacity:1;fill-rule:nonzero;stroke:none" transform="translate(17.031 3.85)"/>
    </g>
</svg>
