<svg xmlns="http://www.w3.org/2000/svg" width="26.667" height="26.667">
    <defs>
        <clipPath id="a" clipPathUnits="userSpaceOnUse">
            <path d="M0 20h20V0H0Z"/>
        </clipPath>
    </defs>
    <path d="M1.545 18.511h16.997V1.514H1.545Z" style="fill:#d40000;fill-opacity:1;fill-rule:nonzero;stroke:none" transform="matrix(1.33333 0 0 -1.33333 0 26.667)"/>
    <g clip-path="url(#a)" transform="matrix(1.33333 0 0 -1.33333 0 26.667)">
        <path d="M0 0c-.424 0-.764-.339-.764-.792 0-.396.312-.735.707-.792 0 .029 0 .029-.028.057 0 .056-.028.085-.028.141v.311c0 .057.028.085.028.142 0 .056.028.085.057.141a.445.445 0 0 0 .113.198c.056.057.085.142.141.198.057.057.113.113.198.17l.057.056C.311-.057.17 0 0 0" style="fill:#000;fill-opacity:1;fill-rule:nonzero;stroke:none" transform="translate(6.777 13.986)"/>
        <path d="M0 0a.877.877 0 1 0 0-1.755A.877.877 0 0 0 0 0" style="fill:#000;fill-opacity:1;fill-rule:nonzero;stroke:none" transform="translate(10.001 14.043)"/>
        <path d="M0 0c-.255 0-.764 0-1.018-.028-.255-.029-.255-.029-.283-.453-.028-.424-.113-1.272-.141-1.668-.029-.425 0-.425.141-.396.141 0 .368.028.481 0 .113-.029.113-.085.141-.792.029-.707.085-2.121.142-2.8.056-.707.113-.707.282-.707h.651c.17 0 .17.028.198.764.028.707.113 2.149.141 2.856.057.707.085.707.17.707.113 0 .283 0 .368.057.084.056.056.113-.113.537C.99-1.527.65-.764.481-.396.311 0 .283 0 .283.028.255 0 .255 0 0 0" style="fill:#000;fill-opacity:1;fill-rule:nonzero;stroke:none" transform="translate(6.805 11.865)"/>
        <path d="M0 0h-1.357c-.34 0-.396.057-.51.283-.113.198-.311.594-.48.763-.142.17-.255.17-.396.114-.142-.057-.34-.198-.396-.312-.057-.113 0-.226.254-.65.255-.424.707-1.188.934-1.64.226-.453.226-.566.311-1.443.085-.876.226-2.488.339-3.28.085-.792.141-.792.339-.792.198 0 .538 0 .707.056.198.057.227.142.255.792.028.679.085 1.923.141 2.546.057.622.085.622.227.622.113 0 .311 0 .424.028.085.028.085.113 0 .566l-.34 1.81c-.084.452-.113.48-.113.509C.311 0 .311 0 0 0" style="fill:#000;fill-opacity:1;fill-rule:nonzero;stroke:none" transform="translate(10.68 12.007)"/>
        <path d="M0 0a.848.848 0 1 0 0-1.696A.848.848 0 0 0 0 0" style="fill:#000;fill-opacity:1;fill-rule:nonzero;stroke:none" transform="translate(13.225 13.958)"/>
        <path d="M0 0c-.368.028-1.103 0-1.471-.028-.367-.029-.367-.113-.282-.594.084-.481.226-1.386.254-1.838.028-.453-.028-.51-.056-.538-.029-.028-.029-.085 0-.735.028-.651.113-1.895.141-2.517.057-.622.085-.622.254-.622.17 0 .453.028.623.056.169.057.198.142.226.792.056.651.113 1.895.141 2.517.057.622.113.622.227.651.113 0 .311.028.424.084.085.057.085.114.056.566A37.142 37.142 0 0 0 .368-.452C.396-.057.368-.028 0 0" style="fill:#000;fill-opacity:1;fill-rule:nonzero;stroke:none" transform="translate(14.017 11.95)"/>
        <path d="M0 0c-.17.141-.226.085-.283.028-.056-.056-.113-.113 0-.311s.368-.509.538-.622c.169-.141.226-.085.282-.028.057.056.113.085.029.283C.424-.481.17-.141 0 0" style="fill:#000;fill-opacity:1;fill-rule:nonzero;stroke:none" transform="translate(8.615 15.372)"/>
        <path d="M0 0c.17.141.226.085.283.028.056-.056.113-.113 0-.311s-.368-.509-.538-.622c-.169-.141-.226-.085-.282-.028-.057.056-.113.085-.029.283.142.169.425.509.566.65" style="fill:#000;fill-opacity:1;fill-rule:nonzero;stroke:none" transform="translate(11.528 15.316)"/>
        <path d="M0 0c-.028.226-.113.226-.198.198-.085 0-.17 0-.198-.226-.056-.198-.056-.622-.028-.82.028-.198.113-.198.169-.198.085 0 .142 0 .198.198C0-.65.028-.226 0 0" style="fill:#000;fill-opacity:1;fill-rule:nonzero;stroke:none" transform="translate(10.284 15.655)"/>
        <path d="M0 0a.83.83 0 0 0-.255-.622.829.829 0 0 0-.622-.255H-13.32a.832.832 0 0 0-.623.255.833.833 0 0 0-.254.622v12.444c0 .254.085.452.254.622.17.17.368.254.623.254H-.877a.828.828 0 0 0 .622-.254.832.832 0 0 0 .255-.622Zm.057 13.405a1.282 1.282 0 0 1-.934.396H-13.32c-.368 0-.679-.141-.934-.396a1.282 1.282 0 0 1-.396-.933V.028c-.028-.367.113-.678.368-.961.255-.255.566-.396.933-.396H-.905c.368 0 .679.141.933.396.255.254.396.565.396.933v12.444c0 .396-.113.707-.367.961" style="fill:#000;fill-opacity:1;fill-rule:nonzero;stroke:none" transform="translate(17.156 3.78)"/>
        <path d="M0 0a.817.817 0 0 0-.283-.65c-.198-.17-.396-.283-.65-.283h-15.018a.82.82 0 0 0-.65.283c-.17.198-.283.395-.283.65v15.017a.82.82 0 0 0 .283.651c.198.169.396.283.65.283H-.933a.818.818 0 0 0 .65-.283c.17-.198.283-.396.283-.651Zm-.933 16.403h-15.018c-.396 0-.707-.141-.989-.424-.283-.283-.425-.594-.425-.99V0c0-.396.142-.707.425-.99.282-.283.593-.424.989-.424H-.933c.396 0 .707.141.99.424.282.283.424.594.424.99v15.017c0 .396-.142.707-.424.99a1.344 1.344 0 0 1-.99.396" style="fill:#000;fill-opacity:1;fill-rule:nonzero;stroke:none" transform="translate(18.485 2.511)"/>
    </g>
</svg>
