<svg xmlns="http://www.w3.org/2000/svg" width="20" height="20" version="1.2">
    <g font-weight="400" style="fill:none;fill-rule:evenodd;stroke:#000;stroke-width:1;stroke-linecap:square;stroke-linejoin:bevel">
        <g style="font-style:normal;font-weight:400;font-size:17.00779915px;font-family:icomoon;fill:#fff;fill-opacity:1;stroke:none">
            <path d="M2.021-18.688h18.957c.555 0 1.03.199 1.427.596.397.396.595.872.595 1.426V2.291c0 .554-.198 1.03-.595 1.426a1.946 1.946 0 0 1-1.427.595H2.021c-.554 0-1.029-.198-1.426-.595A1.946 1.946 0 0 1 0 2.291v-18.957c0-.554.198-1.03.595-1.426a1.946 1.946 0 0 1 1.426-.596" font-size="17.008" style="vector-effect:none;fill-rule:nonzero" transform="matrix(.65217 0 0 .65217 2.5 14.687)"/>
        </g>
        <g style="font-style:normal;font-weight:400;font-size:17.00779915px;font-family:icomoon;fill:#000;fill-opacity:1;stroke:none">
            <path d="M20.979-18.014a1.3 1.3 0 0 1 .954.393 1.3 1.3 0 0 1 .393.955V2.291a1.3 1.3 0 0 1-.393.955 1.3 1.3 0 0 1-.955.393H2.021a1.3 1.3 0 0 1-.954-.393 1.3 1.3 0 0 1-.393-.955v-18.957a1.3 1.3 0 0 1 .393-.955 1.3 1.3 0 0 1 .954-.393h18.957m0-.674H2.021c-.554 0-1.029.199-1.426.596A1.946 1.946 0 0 0 0-16.666V2.291c0 .554.198 1.03.595 1.426.397.397.872.595 1.426.595h18.957c.555 0 1.03-.198 1.427-.595.397-.397.595-.872.595-1.426v-18.957c0-.554-.198-1.03-.595-1.426a1.946 1.946 0 0 0-1.426-.596M6.446-10.69a2.776 2.776 0 0 1-.977-.977 2.591 2.591 0 0 1-.37-1.36v-.112.023-.09c0-.51.123-.97.37-1.381.247-.412.573-.738.977-.977a.528.528 0 0 0 .214-.191.474.474 0 0 0 .078-.259.631.631 0 0 0-.01-.123.403.403 0 0 0-.035-.101.582.582 0 0 0-.19-.191.512.512 0 0 0-.382-.068 1.055 1.055 0 0 0-.124.034c-.569.315-1.03.76-1.381 1.337a3.574 3.574 0 0 0-.528 1.897v.225c0 .689.176 1.318.528 1.887.352.569.805 1.01 1.359 1.325l.022.022a.4.4 0 0 0 .101.034.63.63 0 0 0 .124.011.502.502 0 0 0 .438-.775.527.527 0 0 0-.214-.19m2.269.92a.4.4 0 0 0 .1.034.63.63 0 0 0 .124.011.502.502 0 0 0 .416-.775.581.581 0 0 0-.19-.19 2.87 2.87 0 0 1-.99-.978 2.534 2.534 0 0 1-.381-1.358c0-.015.004-.034.011-.057a.185.185 0 0 0 .011-.056v.023a.1.1 0 0 0-.01-.045.1.1 0 0 1-.012-.045c0-.51.123-.97.37-1.381.248-.412.573-.738.978-.977h.022a.582.582 0 0 0 .191-.191.474.474 0 0 0 .079-.259.631.631 0 0 0-.012-.123.402.402 0 0 0-.033-.101.582.582 0 0 0-.191-.191.474.474 0 0 0-.259-.079.638.638 0 0 0-.123.011.404.404 0 0 0-.101.034c-.57.33-1.03.779-1.381 1.348a3.517 3.517 0 0 0-.528 1.886v.225c0 .689.172 1.318.516 1.887.345.569.801 1.01 1.37 1.325l.023.022m8.288-6.693a.404.404 0 0 0-.101-.034.64.64 0 0 0-.124-.01.515.515 0 0 0-.27.067.476.476 0 0 0-.179.202c-.015.03-.03.063-.045.1a.458.458 0 0 0 .056.393.56.56 0 0 0 .214.18c.404.24.73.566.977.978.247.411.37.872.37 1.381v.18c0 .494-.123.947-.37 1.358a2.776 2.776 0 0 1-.977.978.512.512 0 0 0-.28.573c.006.037.018.078.033.123v-.023a.511.511 0 0 0 .472.292c.03 0 .067-.007.112-.022a.868.868 0 0 0 .112-.045 3.644 3.644 0 0 0 1.404-1.336c.352-.577.528-1.21.528-1.898v-.18c0-.704-.176-1.344-.528-1.92a3.692 3.692 0 0 0-1.382-1.337h-.022m-2.718 0a.406.406 0 0 0-.1-.034.638.638 0 0 0-.124-.01.533.533 0 0 0-.259.067.455.455 0 0 0-.236.426c0 .105.027.195.079.27a.624.624 0 0 0 .19.18c.405.24.735.565.99.977.254.411.381.872.381 1.381a.1.1 0 0 1-.011.045.1.1 0 0 0-.011.045.1.1 0 0 0 .01.045.1.1 0 0 1 .012.045c0 .494-.123.947-.37 1.358a2.775 2.775 0 0 1-.978.978h-.022a.582.582 0 0 0-.191.19.512.512 0 0 0-.067.382c.007.038.018.079.033.124v-.023c.045.09.109.161.191.214a.474.474 0 0 0 .259.078.33.33 0 0 0 .123-.022 2.25 2.25 0 0 1 .124-.045h-.023a3.728 3.728 0 0 0 1.415-1.336c.36-.577.54-1.21.54-1.898v-.18c0-.704-.177-1.344-.529-1.92a3.646 3.646 0 0 0-1.403-1.337h-.023m-.876 5.39c.03-.06.056-.123.079-.19a.669.669 0 0 0 .034-.214v-2.515c0-.21-.075-.39-.225-.54a.735.735 0 0 0-.54-.224h-2.515c-.21 0-.39.075-.539.225a.735.735 0 0 0-.224.539v2.515a.67.67 0 0 0 .033.214c.023.067.049.13.079.19L7.839 1.618v.225c0 .015.015.03.045.045 0 .015.007.03.022.045s.023.03.023.045H7.974c.015.03.033.048.056.056a.141.141 0 0 1 .056.033H8.266h-.023.09a.37.37 0 0 0 .09-.01.307.307 0 0 1 .067-.012.176.176 0 0 1 .045-.034A.1.1 0 0 1 8.58 2c.015 0 .026-.004.034-.011l.033-.034L11.5-.359l2.785 2.336c.045.06.097.104.157.134.06.03.128.045.202.045h.113a.66.66 0 0 0 .168-.067.359.359 0 0 0 .124-.112.27.27 0 0 0 .1-.135.508.508 0 0 0 .035-.18.368.368 0 0 0-.045-.18l-1.73-12.555m-.516 3.683-.674-.718.516-.54.158 1.258m-.045 1.393-1.348.809-1.348-.81L11.5-7.344l1.348 1.348m-.315-3.886L11.5-8.827 10.444-9.95l.113-.764h1.864l.112.831m-2.246 1.236.517.539-.697.74.18-1.28m-.494 3.594.741.45-.898.539.157-.989M11.5-4.02l1.617.989L11.5-1.685 9.883-3.032l1.617-.989m.988-.583.719-.45.135.966-.854-.516M9.007.404l.36-2.538 1.347 1.123L9.007.404m4.604-2.538.36 2.516-1.685-1.393 1.325-1.123" font-size="17.008" style="vector-effect:none;fill-rule:nonzero" transform="matrix(.65217 0 0 .65217 2.5 14.687)"/>
        </g>
        <g style="font-style:normal;font-weight:400;font-size:15.8739996px;font-family:icomoon;fill:red;fill-opacity:1;stroke:none">
            <path d="M.656 3.938A.613.613 0 0 1 .4 3.885a1.02 1.02 0 0 1-.215-.133 1.02 1.02 0 0 1-.134-.215A.613.613 0 0 1 0 3.28c0-.095.017-.18.051-.256a1.02 1.02 0 0 1 .134-.215l19.687-19.688c.068-.055.14-.1.215-.133a.613.613 0 0 1 .257-.051.63.63 0 0 1 .461.194.63.63 0 0 1 .195.462.613.613 0 0 1-.051.256 1.014 1.014 0 0 1-.134.215L1.128 3.753c-.068.055-.14.1-.215.133a.613.613 0 0 1-.257.051" font-size="15.874" style="vector-effect:none;fill-rule:nonzero" transform="matrix(.65217 0 0 .65217 3.152 14.28)"/>
        </g>
    </g>
</svg>
