<svg xmlns="http://www.w3.org/2000/svg" width="20" height="20" version="1.2">
    <g font-weight="400" style="fill:none;fill-rule:evenodd;stroke:#000;stroke-width:1;stroke-linecap:square;stroke-linejoin:bevel">
        <g style="font-style:normal;font-weight:400;font-size:19.84250069px;font-family:icomoon;fill:#fff;fill-opacity:1;stroke:none">
            <path d="M2.285-21.125h21.43a2.2 2.2 0 0 1 1.612.673A2.2 2.2 0 0 1 26-18.84V2.59a2.2 2.2 0 0 1-.673 1.612 2.2 2.2 0 0 1-1.612.673H2.285a2.2 2.2 0 0 1-1.612-.673A2.2 2.2 0 0 1 0 2.59v-21.43a2.2 2.2 0 0 1 .673-1.612 2.2 2.2 0 0 1 1.612-.673" font-size="19.843" style="vector-effect:none;fill-rule:nonzero" transform="matrix(.6923 0 0 .6923 1 15.625)"/>
        </g>
        <g style="font-style:normal;font-weight:400;font-size:17.00779915px;font-family:icomoon;fill:#000;fill-opacity:1;stroke:none">
            <path d="M20.979-18.014a1.3 1.3 0 0 1 .954.393 1.3 1.3 0 0 1 .393.955V2.291a1.3 1.3 0 0 1-.393.955 1.3 1.3 0 0 1-.955.393H2.021a1.3 1.3 0 0 1-.954-.393 1.3 1.3 0 0 1-.393-.955v-18.957a1.3 1.3 0 0 1 .393-.955 1.3 1.3 0 0 1 .954-.393h18.957m0-.674H2.021c-.554 0-1.029.199-1.426.596A1.946 1.946 0 0 0 0-16.666V2.291c0 .554.198 1.03.595 1.426.397.397.872.595 1.426.595h18.957c.555 0 1.03-.198 1.427-.595.397-.397.595-.872.595-1.426v-18.957c0-.554-.198-1.03-.595-1.426a1.946 1.946 0 0 0-1.426-.596M17.407-8.04V-8.176a16.645 16.645 0 0 0-.943-3.055c-.39-.928-.835-1.714-1.337-2.358-.501-.644-1.052-1.153-1.65-1.527a3.749 3.749 0 0 0-1.865-.562H11.5c-.644 0-1.273.18-1.887.54-.599.344-1.156.842-1.673 1.493-.517.651-.97 1.441-1.359 2.37-.404.913-.734 1.939-.988 3.077V-7.84l.045.045.067.067h.023l.067.045.045.023h.404-.022.067-.022l.09-.045v-.023l.033-.033c.008-.008.011-.019.011-.034h.023V-7.838a5.217 5.217 0 0 1 1.763-2.258 5.262 5.262 0 0 1 2.707-1.022h.022v5.346H8.872v7.457h5.39v-7.457h-2.178v-5.369a5.36 5.36 0 0 1 2.64 1.056 5.353 5.353 0 0 1 1.717 2.179v.045l.012.022c.007.015.018.023.033.023v.09c.015.014.03.026.045.033.015.008.03.019.045.034h.023a.184.184 0 0 0 .112.045h.337c.015 0 .022-.015.022-.045h.045v-.023l.045-.045c.015-.015.023-.03.023-.044l.045-.023v-.202l.18-.045m-3.213-5.009a4.24 4.24 0 0 0-.988-.55 5.178 5.178 0 0 0-1.123-.303h-.045v-.674c.45.135.857.333 1.224.595.367.262.678.565.932.91v.022m-3.144-1.572v.674a4.36 4.36 0 0 0-1.202.303 5.121 5.121 0 0 0-1.067.595h.023a3.954 3.954 0 0 1 2.223-1.572h.023m-2.696 3.257c.33-.405.727-.738 1.19-1a4.561 4.561 0 0 1 1.483-.528h.023v.72a6.876 6.876 0 0 0-2.718.83l.045-.022h-.023m3.729-1.505c.51.105.98.288 1.415.55.434.262.816.58 1.145.955a6.51 6.51 0 0 0-2.538-.786h-.022v-.72" font-size="17.008" style="vector-effect:none;fill-rule:nonzero" transform="matrix(.6923 0 0 .6923 2.038 14.976)"/>
        </g>
        <g style="font-style:normal;font-weight:400;font-size:19.84250069px;font-family:icomoon;fill:#000;fill-opacity:1;stroke:none">
            <path d="M23.943-20.44c.373 0 .694.136.965.407.271.27.406.592.406.965V2.818c0 .373-.135.694-.406.965-.27.271-.592.406-.965.406H2.057c-.373 0-.694-.135-.965-.406a1.318 1.318 0 0 1-.406-.965v-21.886c0-.373.135-.694.406-.965.27-.271.592-.407.965-.407h21.886m0-.685H2.057c-.576 0-1.063.199-1.46.597A1.986 1.986 0 0 0 0-19.068V2.818c0 .576.199 1.063.597 1.46.397.398.884.597 1.46.597h21.886c.576 0 1.063-.199 1.46-.597.398-.397.597-.884.597-1.46v-21.886c0-.576-.199-1.063-.597-1.46a1.986 1.986 0 0 0-1.46-.597" font-size="19.843" style="vector-effect:none;fill-rule:nonzero" transform="matrix(.6923 0 0 .6923 1 15.625)"/>
        </g>
        <g style="font-style:normal;font-weight:400;font-size:18.70859909px;font-family:icomoon;fill:red;fill-opacity:1;stroke:none">
            <path d="M.781 4.688a.73.73 0 0 1-.305-.062 1.214 1.214 0 0 1-.256-.158A1.214 1.214 0 0 1 .06 4.21.73.73 0 0 1 0 3.906a.73.73 0 0 1 .061-.305c.04-.09.094-.175.159-.256l23.437-23.438c.082-.065.167-.118.257-.159a.73.73 0 0 1 .305-.06c.211 0 .394.077.55.231a.751.751 0 0 1 .231.55.73.73 0 0 1-.061.305c-.04.09-.094.175-.159.256L1.343 4.468a1.214 1.214 0 0 1-.257.158.73.73 0 0 1-.305.061" font-size="18.709" style="vector-effect:none;fill-rule:nonzero" transform="matrix(.6923 0 0 .6923 1.346 15.409)"/>
        </g>
    </g>
</svg>
