<svg xmlns="http://www.w3.org/2000/svg" width="20" height="20" version="1.2">
    <g font-weight="400" style="fill:none;fill-rule:evenodd;stroke:#000;stroke-width:1;stroke-linecap:square;stroke-linejoin:bevel">
        <g style="font-style:normal;font-weight:400;font-size:17.00779915px;font-family:icomoon;fill:red;fill-opacity:1;stroke:none">
            <path d="M2.021-18.688h18.957c.555 0 1.03.199 1.427.596.397.396.595.872.595 1.426V2.291c0 .554-.198 1.03-.595 1.426a1.946 1.946 0 0 1-1.427.595H2.021c-.554 0-1.029-.198-1.426-.595A1.946 1.946 0 0 1 0 2.291v-18.957c0-.554.198-1.03.595-1.426a1.946 1.946 0 0 1 1.426-.596" font-size="17.008" style="vector-effect:none;fill-rule:nonzero" transform="matrix(.65217 0 0 .65217 2.5 14.687)"/>
        </g>
        <g style="font-style:normal;font-weight:400;font-size:17.00779915px;font-family:icomoon;fill:#000;fill-opacity:1;stroke:none">
            <path d="M20.979-18.014a1.3 1.3 0 0 1 .954.393 1.3 1.3 0 0 1 .393.955V2.291a1.3 1.3 0 0 1-.393.955 1.3 1.3 0 0 1-.955.393H2.021a1.3 1.3 0 0 1-.954-.393 1.3 1.3 0 0 1-.393-.955v-18.957a1.3 1.3 0 0 1 .393-.955 1.3 1.3 0 0 1 .954-.393h18.957m0-.674H2.021c-.554 0-1.029.199-1.426.596A1.946 1.946 0 0 0 0-16.666V2.291c0 .554.198 1.03.595 1.426.397.397.872.595 1.426.595h18.957c.555 0 1.03-.198 1.427-.595.397-.397.595-.872.595-1.426v-18.957c0-.554-.198-1.03-.595-1.426a1.946 1.946 0 0 0-1.426-.596m-5.1 18.261-1.616-4.627a5.492 5.492 0 0 0 2.044-1.886 4.995 4.995 0 0 0 .808-2.696 4.94 4.94 0 0 0-.382-1.82 5.425 5.425 0 0 0-.92-1.538 5.13 5.13 0 0 0-1.37-1.134 4.997 4.997 0 0 0-1.685-.651h-.023a.1.1 0 0 1-.045-.011l-.022-.012a.35.35 0 0 0-.258.101.35.35 0 0 0-.101.259c0 .075.026.146.078.213a.317.317 0 0 0 .191.123c1.078.21 1.98.73 2.707 1.562a4.579 4.579 0 0 1 1.156 2.908 4.398 4.398 0 0 1-.673 2.314 4.474 4.474 0 0 1-1.708 1.594l-.022.023c0-.06-.011-.12-.034-.18a.437.437 0 0 0-.1-.157h.022l-.27-.741a3.268 3.268 0 0 0 1.64-2.853 3.338 3.338 0 0 0-.663-1.965 3.448 3.448 0 0 0-1.65-1.224h-.023a.185.185 0 0 0-.112-.045.283.283 0 0 0-.191.067.5.5 0 0 0-.124.157.183.183 0 0 1-.011.057.249.249 0 0 0-.011.078c0 .06.018.12.056.18.037.06.086.097.146.112l.022.023c.54.18.985.501 1.337.965.352.465.535.996.55 1.595 0 .33-.056.637-.168.921-.113.285-.266.54-.46.764a.517.517 0 0 0-.18-.18.471.471 0 0 0-.248-.067h-1.392v-.517h.719c.09 0 .168-.034.235-.1a.323.323 0 0 0 0-.473.323.323 0 0 0-.235-.1h-.72v-.675h.72c.09 0 .168-.033.235-.1a.323.323 0 0 0 0-.472.323.323 0 0 0-.235-.101h-.72v-1.348a.636.636 0 0 0-.201-.483.665.665 0 0 0-.472-.19.665.665 0 0 0-.472.19.636.636 0 0 0-.202.483v1.348h-.651a.323.323 0 0 0-.236.1.323.323 0 0 0 0 .472.323.323 0 0 0 .236.101h.651v.674h-.651a.323.323 0 0 0-.236.101.323.323 0 0 0 0 .472.323.323 0 0 0 .236.101h.651v.517H9.523a.512.512 0 0 0-.28.078.505.505 0 0 0-.191.236 2.84 2.84 0 0 1-.494-.797c-.12-.292-.18-.61-.18-.955.015-.599.198-1.13.55-1.595.352-.464.79-.786 1.314-.965h.023a.445.445 0 0 0 .157-.135.299.299 0 0 0 .067-.18.249.249 0 0 0-.011-.078.183.183 0 0 1-.011-.056.391.391 0 0 0-.124-.147.32.32 0 0 0-.19-.056h-.068c-.015 0-.03.008-.045.023a3.351 3.351 0 0 0-1.662 1.213 3.349 3.349 0 0 0-.674 1.976c0 .63.157 1.198.472 1.707.314.51.726.906 1.235 1.19l.023.023-.382 1.056a4.578 4.578 0 0 1-1.786-1.617 4.347 4.347 0 0 1-.707-2.336v-.023a4.608 4.608 0 0 1 1.145-2.908 4.63 4.63 0 0 1 2.673-1.561h.045a.317.317 0 0 0 .19-.124.342.342 0 0 0 .08-.213.35.35 0 0 0-.102-.259.35.35 0 0 0-.258-.1l-.022.01a.1.1 0 0 1-.045.012 5.241 5.241 0 0 0-1.707.651c-.524.3-.981.678-1.37 1.134-.39.457-.697.97-.921 1.539a4.889 4.889 0 0 0-.382 1.797v.022a5.093 5.093 0 0 0 .82 2.74A5.34 5.34 0 0 0 8.76-5.009h.045L7.143-.269V.066c.015.015.026.03.033.045a.1.1 0 0 1 .011.045H7.2c.007 0 .018.008.033.023a.17.17 0 0 0 .057.067c.022.015.04.03.056.045l.067.045h.472l3.639-2.403L15.07.247a.35.35 0 0 0 .158.124c.06.022.127.04.202.056h.179c.06-.03.116-.06.169-.09a.359.359 0 0 0 .123-.112.515.515 0 0 0 .068-.146.61.61 0 0 0 .022-.169c0-.06-.011-.12-.034-.18a.775.775 0 0 0-.078-.157m-5.413-6.199.18-.539h.426c.06.045.128.082.202.112a.6.6 0 0 0 .225.045.66.66 0 0 0 .247-.045.88.88 0 0 0 .202-.112h.494l.09.292c0 .03-.003.056-.011.079a.185.185 0 0 0-.011.056c0 .03.004.056.011.078a.249.249 0 0 1 .011.079c.015.03.038.06.068.09.03.03.067.052.112.067l.067.225h-2.47l.157-.427m-.045 1.46-.18-.045h2.516l-.18.045a.365.365 0 0 0-.202.124.318.318 0 0 0-.09.213c0 .105.034.19.101.258a.323.323 0 0 0 .236.101h.011c.008 0 .019-.007.034-.022h.067c.12-.015.229-.038.326-.068.097-.03.198-.06.303-.09h-.045l.045.158-1.797 1.19-1.841-1.213v-.112c.074.03.153.056.235.079.083.022.169.04.259.056h.134c.09 0 .169-.034.236-.101a.323.323 0 0 0 .101-.236c0-.09-.03-.165-.09-.225a.402.402 0 0 0-.224-.112h.045M8.625-1.37l.764-2.156 1.257.83L8.625-1.37m5.099-2.156.74 2.133-1.976-1.302 1.236-.831" font-size="17.008" style="vector-effect:none;fill-rule:nonzero" transform="matrix(.65217 0 0 .65217 2.5 14.687)"/>
        </g>
    </g>
</svg>
