<svg xmlns="http://www.w3.org/2000/svg" width="20" height="20" version="1.2">
    <g font-weight="400" style="fill:none;fill-rule:evenodd;stroke:#000;stroke-width:1;stroke-linecap:square;stroke-linejoin:bevel">
        <g style="font-style:normal;font-weight:400;font-size:17.00779915px;font-family:icomoon;fill:red;fill-opacity:1;stroke:none">
            <path d="M2.021-18.688h18.957c.555 0 1.03.199 1.427.596.397.396.595.872.595 1.426V2.291c0 .554-.198 1.03-.595 1.426a1.946 1.946 0 0 1-1.427.595H2.021c-.554 0-1.029-.198-1.426-.595A1.946 1.946 0 0 1 0 2.291v-18.957c0-.554.198-1.03.595-1.426a1.946 1.946 0 0 1 1.426-.596" font-size="17.008" style="vector-effect:none;fill-rule:nonzero" transform="matrix(.65217 0 0 .65217 2.5 14.687)"/>
        </g>
        <g style="font-style:normal;font-weight:400;font-size:17.00779915px;font-family:icomoon;fill:#000;fill-opacity:1;stroke:none">
            <path d="M20.979-18.014a1.3 1.3 0 0 1 .954.393 1.3 1.3 0 0 1 .393.955V2.291a1.3 1.3 0 0 1-.393.955 1.3 1.3 0 0 1-.955.393H2.021a1.3 1.3 0 0 1-.954-.393 1.3 1.3 0 0 1-.393-.955v-18.957a1.3 1.3 0 0 1 .393-.955 1.3 1.3 0 0 1 .954-.393h18.957m0-.674H2.021c-.554 0-1.029.199-1.426.596A1.946 1.946 0 0 0 0-16.666V2.291c0 .554.198 1.03.595 1.426.397.397.872.595 1.426.595h18.957c.555 0 1.03-.198 1.427-.595.397-.397.595-.872.595-1.426v-18.957c0-.554-.198-1.03-.595-1.426a1.946 1.946 0 0 0-1.426-.596M4.806-4.582c.104.12.228.217.37.292a.974.974 0 0 0 .46.112h.08a.18.18 0 0 0 .078-.022 9.222 9.222 0 0 0 2.167-.472 8.97 8.97 0 0 0 1.92-.943l-.022.022c0 1.363.161 2.516.483 3.46.322.943.708 1.414 1.157 1.414.45 0 .835-.471 1.157-1.415.322-.943.483-2.096.483-3.459A9.185 9.185 0 0 0 17.16-4.2h.045a.18.18 0 0 0 .079.022h.078a.974.974 0 0 0 .46-.112c.143-.075.267-.172.371-.292.225-.39.008-.962-.651-1.718s-1.565-1.471-2.718-2.145c1.153-.674 2.063-1.39 2.73-2.145.666-.756.879-1.33.64-1.719a1.283 1.283 0 0 0-.371-.292.974.974 0 0 0-.46-.112.252.252 0 0 0-.08.011.249.249 0 0 1-.078.012 8.972 8.972 0 0 0-4.088 1.415l.023-.023c0-1.347-.161-2.497-.483-3.448-.322-.95-.708-1.426-1.157-1.426-.45 0-.835.476-1.157 1.426-.322.951-.483 2.1-.483 3.448a9.186 9.186 0 0 0-4.02-1.393h-.045a.248.248 0 0 1-.079-.01.251.251 0 0 0-.078-.012.973.973 0 0 0-.46.112 1.28 1.28 0 0 0-.371.292c-.225.39-.008.962.651 1.719.659.756 1.565 1.47 2.718 2.145-1.153.674-2.06 1.389-2.718 2.145-.659.756-.876 1.329-.651 1.718m6.087-3.863c.014-.06.033-.116.056-.169a3.25 3.25 0 0 1 .078-.168v.022a.595.595 0 0 1 .214-.056 2.612 2.612 0 0 1 .494 0 .836.836 0 0 1 .236.056h-.023c.03.045.053.094.068.146a.518.518 0 0 0 .067.146v.023c-.015.06-.034.12-.056.18a.764.764 0 0 1-.079.157v-.023a.794.794 0 0 1-.213.068 1.44 1.44 0 0 1-.494 0 1.219 1.219 0 0 1-.236-.068h.022a.52.52 0 0 1-.067-.146 3.385 3.385 0 0 0-.045-.146l-.022-.022m1.437 1.01c.015.09.026.188.034.292.007.105.018.203.033.292a1.665 1.665 0 0 0-.19-.123.753.753 0 0 1-.169-.124.98.98 0 0 0 .157-.146c.045-.052.09-.108.135-.168v-.023m.54-.853V-8.603l.403.158-.404.157m-.83-1.505.358-.247c0 .105-.007.206-.022.303l-.045.281a3.371 3.371 0 0 0-.292-.337m-1.348.337c0-.09-.01-.183-.033-.28a3.63 3.63 0 0 1-.056-.304l.381.247a.617.617 0 0 0-.18.157l-.134.18h.022m-.539.853v.315l-.404-.157.404-.158m.831 1.505-.359.27c0-.105.007-.21.022-.315.015-.104.03-.202.045-.292.045.075.086.139.124.191a.675.675 0 0 0 .146.146h.022m.517 5.705c-.15-.104-.348-.512-.595-1.224-.247-.711-.37-1.725-.37-3.043v-.337c.179-.12.347-.236.505-.348.157-.113.303-.221.438-.326.15.105.303.213.46.326.157.112.326.228.505.348v.337c.015 1.318-.1 2.332-.348 3.043-.247.712-.445 1.12-.595 1.224m6.087-3.526a.822.822 0 0 1-.157.034c-.06.007-.12.011-.18.011h-.067.022a9.269 9.269 0 0 1-2.033-.483 8.828 8.828 0 0 1-1.785-.887l.022.022-.292-.18a18.183 18.183 0 0 0-.135-1.302v.067c.21-.075.409-.15.596-.224a7.25 7.25 0 0 0 .55-.247l-.045.022.315.18c1.138.659 1.954 1.273 2.448 1.842.494.569.74.95.74 1.145m-.38-7.098h.044a1.445 1.445 0 0 1 .36.045c0 .195-.251.577-.753 1.146s-1.314 1.183-2.437 1.842l-.337.157c-.15-.075-.31-.15-.483-.225a5.255 5.255 0 0 0-.55-.202l-.045-.022c.03-.18.056-.371.078-.573.023-.202.034-.416.034-.64v-.023l.315-.18a8.637 8.637 0 0 1 1.752-.853 9.518 9.518 0 0 1 1.976-.472h.045M11.5-15.498c.15.105.348.513.595 1.224s.37 1.726.37 3.043v.359c-.179.106-.347.218-.505.338-.157.12-.31.232-.46.337h.022a8.76 8.76 0 0 0-.449-.337c-.15-.105-.307-.21-.471-.315l-.045-.022v-.36c-.015-1.317.1-2.332.348-3.043.247-.711.445-1.12.595-1.224m-6.087 3.526a.822.822 0 0 1 .157-.033c.06-.008.12-.012.18-.012h.067-.022c.719.09 1.396.251 2.033.483a8.825 8.825 0 0 1 1.785.887l-.022-.022.292.18a18.219 18.219 0 0 0 .135 1.302v-.067c-.21.075-.408.15-.596.225-.187.075-.37.157-.55.247l.045-.023-.314-.18c-1.138-.658-1.955-1.272-2.449-1.841-.494-.57-.74-.951-.74-1.146m3.189 4.066.314-.157a7.918 7.918 0 0 0 1.033.426h.068c-.03.18-.057.375-.079.584-.023.21-.041.42-.056.63v.022l-.292.18A8.442 8.442 0 0 1 5.84-4.874l-.045.021h-.023a.882.882 0 0 1-.19-.022 1.736 1.736 0 0 1-.169-.045c0-.195.247-.573.741-1.134.494-.562 1.31-1.164 2.449-1.808v-.045M2.695-.336h17.61V2.38H2.695V-.337" font-size="17.008" style="vector-effect:none;fill-rule:nonzero" transform="matrix(.65217 0 0 .65217 2.5 14.687)"/>
        </g>
    </g>
</svg>
