<svg xmlns="http://www.w3.org/2000/svg" width="20" height="20" version="1.2">
    <g font-weight="400" style="fill:none;fill-rule:evenodd;stroke:#000;stroke-width:1;stroke-linecap:square;stroke-linejoin:bevel">
        <g style="font-style:normal;font-weight:400;font-size:17.00779915px;font-family:icomoon;fill:#fff;fill-opacity:1;stroke:none">
            <path d="M2.021-18.688h18.957c.555 0 1.03.199 1.427.596.397.396.595.872.595 1.426V2.291c0 .554-.198 1.03-.595 1.426a1.946 1.946 0 0 1-1.427.595H2.021c-.554 0-1.029-.198-1.426-.595A1.946 1.946 0 0 1 0 2.291v-18.957c0-.554.198-1.03.595-1.426a1.946 1.946 0 0 1 1.426-.596" font-size="17.008" style="vector-effect:none;fill-rule:nonzero" transform="matrix(.65217 0 0 .65217 2.5 14.687)"/>
        </g>
        <g style="font-style:normal;font-weight:400;font-size:17.00779915px;font-family:icomoon;fill:#000;fill-opacity:1;stroke:none">
            <path d="M20.979-18.014a1.3 1.3 0 0 1 .954.393 1.3 1.3 0 0 1 .393.955V2.291a1.3 1.3 0 0 1-.393.955 1.3 1.3 0 0 1-.955.393H2.021a1.3 1.3 0 0 1-.954-.393 1.3 1.3 0 0 1-.393-.955v-18.957a1.3 1.3 0 0 1 .393-.955 1.3 1.3 0 0 1 .954-.393h18.957m0-.674H2.021c-.554 0-1.029.199-1.426.596A1.946 1.946 0 0 0 0-16.666V2.291c0 .554.198 1.03.595 1.426.397.397.872.595 1.426.595h18.957c.555 0 1.03-.198 1.427-.595.397-.397.595-.872.595-1.426v-18.957c0-.554-.198-1.03-.595-1.426a1.946 1.946 0 0 0-1.426-.596m-5.324 9.052-1.415-6.648h-1.73l-1.414 6.648h-.023l-1.415-2.223H7.66L6.244-9.636H4.852v4.156h12.443v-4.156h-1.64M20.485.09c-.21-.255-.502-.584-.877-.988a15.328 15.328 0 0 0-1.224-1.18c-.442-.381-.88-.715-1.314-1-.434-.284-.808-.426-1.123-.426-.33 0-.662.172-1 .517-.336.344-.677.718-1.021 1.123-.39.464-.786.89-1.19 1.28-.405.39-.854.584-1.348.584-.48 0-.925-.198-1.337-.595-.412-.397-.82-.828-1.224-1.292-.33-.419-.662-.8-1-1.145-.336-.345-.677-.517-1.021-.517-.3 0-.66.135-1.078.404-.405.27-.817.588-1.236.955-.42.367-.808.745-1.168 1.134-.36.39-.644.704-.853.944l-.517-.45c.09-.09.307-.329.651-.718.36-.405.775-.824 1.247-1.258.472-.434.977-.824 1.516-1.168.524-.344 1.003-.517 1.438-.517.479 0 .928.199 1.347.596.42.396.824.834 1.213 1.314.33.404.67.778 1.022 1.123.352.344.685.516 1 .516.33 0 .666-.172 1.01-.516.345-.345.69-.72 1.034-1.123.374-.45.767-.873 1.179-1.27.412-.396.857-.595 1.336-.595.45 0 .951.18 1.505.54.554.359 1.082.767 1.584 1.223.501.457.932.895 1.291 1.314.374.405.6.66.674.764l-.517.427m0 1.73a23.99 23.99 0 0 0-.876-.989 16.862 16.862 0 0 0-1.224-1.19 9.882 9.882 0 0 0-1.314-.989c-.434-.284-.808-.426-1.123-.426-.33 0-.662.172-1 .516-.336.345-.677.719-1.021 1.123-.39.464-.786.895-1.19 1.292-.405.397-.854.595-1.348.595-.48 0-.925-.202-1.337-.606C9.64.74 9.231.307 8.827-.157c-.33-.405-.662-.783-1-1.135-.336-.351-.677-.527-1.021-.527-.3 0-.66.134-1.078.404-.405.27-.817.588-1.236.955-.42.366-.808.745-1.168 1.134-.36.39-.644.704-.853.943l-.517-.449c.09-.09.307-.33.651-.719.36-.404.775-.823 1.247-1.258.472-.434.977-.823 1.516-1.168.524-.344 1.003-.516 1.438-.516.479 0 .928.198 1.347.595.42.397.824.827 1.213 1.292.33.419.67.8 1.022 1.145.352.344.685.517 1 .517.33 0 .666-.173 1.01-.517.345-.344.69-.711 1.034-1.1.389-.465.786-.895 1.19-1.292.404-.397.846-.595 1.325-.595.465 0 .966.18 1.505.539.554.36 1.082.767 1.584 1.224.501.457.94.895 1.314 1.314.359.404.576.659.651.764l-.517.426" font-size="17.008" style="vector-effect:none;fill-rule:nonzero" transform="matrix(.65217 0 0 .65217 2.5 14.687)"/>
        </g>
    </g>
</svg>
