<svg xmlns="http://www.w3.org/2000/svg" width="20" height="20" version="1.2">
    <g font-weight="400" style="fill:none;fill-rule:evenodd;stroke:#000;stroke-width:1;stroke-linecap:square;stroke-linejoin:bevel">
        <g style="font-style:normal;font-weight:400;font-size:17.00779915px;font-family:icomoon;fill:#ff0;fill-opacity:1;stroke:none">
            <path d="M2.021-18.688h18.957c.555 0 1.03.199 1.427.596.397.396.595.872.595 1.426V2.291c0 .554-.198 1.03-.595 1.426a1.946 1.946 0 0 1-1.427.595H2.021c-.554 0-1.029-.198-1.426-.595A1.946 1.946 0 0 1 0 2.291v-18.957c0-.554.198-1.03.595-1.426a1.946 1.946 0 0 1 1.426-.596" font-size="17.008" style="vector-effect:none;fill-rule:nonzero" transform="matrix(.65217 0 0 .65217 2.5 14.687)"/>
        </g>
        <g style="font-style:normal;font-weight:400;font-size:17.00779915px;font-family:icomoon;fill:#000;fill-opacity:1;stroke:none">
            <path d="M20.979-18.014a1.3 1.3 0 0 1 .954.393 1.3 1.3 0 0 1 .393.955V2.291a1.3 1.3 0 0 1-.393.955 1.3 1.3 0 0 1-.955.393H2.021a1.3 1.3 0 0 1-.954-.393 1.3 1.3 0 0 1-.393-.955v-18.957a1.3 1.3 0 0 1 .393-.955 1.3 1.3 0 0 1 .954-.393h18.957m0-.674H2.021c-.554 0-1.029.199-1.426.596A1.946 1.946 0 0 0 0-16.666V2.291c0 .554.198 1.03.595 1.426.397.397.872.595 1.426.595h18.957c.555 0 1.03-.198 1.427-.595.397-.397.595-.872.595-1.426v-18.957c0-.554-.198-1.03-.595-1.426a1.946 1.946 0 0 0-1.426-.596m-1.37 2.022H3.391c-.375 0-.697.135-.966.404-.27.27-.405.592-.405.966V.921c0 .374.135.696.405.966s.591.404.966.404h16.216c.375 0 .697-.135.966-.404.27-.27.404-.592.404-.966v-16.217c0-.374-.134-.696-.404-.966a1.318 1.318 0 0 0-.966-.404m-5.637 11.23c.18-.24.322-.509.427-.808.104-.3.157-.614.157-.943 0-.33-.053-.644-.157-.944a3.358 3.358 0 0 0-.427-.83v.022l5.637-5.638V.203l-5.637-5.639m-.719-4.222a2.331 2.331 0 0 0-.562-.337 2.48 2.48 0 0 0-.673-.18v-5.12h6.873l-5.638 5.637m-2.269-.517a2.721 2.721 0 0 0-1.258.517h.023L4.11-15.296h6.873v5.121M9.03-8.939c-.18.24-.318.509-.415.808-.098.3-.154.614-.169.943 0 .33.053.644.158.944.104.3.247.576.426.83v-.022L3.392.202v-14.78l5.637 5.639M4.11.92l5.638-5.638c.165.135.352.247.562.337.21.09.434.15.673.18V.92H4.11m7.907-5.12a2.721 2.721 0 0 0 1.258-.517h-.023L18.89.921h-6.873V-4.2" font-size="17.008" style="vector-effect:none;fill-rule:nonzero" transform="matrix(.65217 0 0 .65217 2.5 14.687)"/>
        </g>
    </g>
</svg>
