<svg xmlns="http://www.w3.org/2000/svg" width="20" height="20" version="1.2">
    <g font-weight="400" style="fill:none;fill-rule:evenodd;stroke:#000;stroke-width:1;stroke-linecap:square;stroke-linejoin:bevel">
        <g style="font-style:normal;font-weight:400;font-size:17.00779915px;font-family:icomoon;fill:red;fill-opacity:1;stroke:none">
            <path d="M2.021-18.688h18.957c.555 0 1.03.199 1.427.596.397.396.595.872.595 1.426V2.291c0 .554-.198 1.03-.595 1.426a1.946 1.946 0 0 1-1.427.595H2.021c-.554 0-1.029-.198-1.426-.595A1.946 1.946 0 0 1 0 2.291v-18.957c0-.554.198-1.03.595-1.426a1.946 1.946 0 0 1 1.426-.596" font-size="17.008" style="vector-effect:none;fill-rule:nonzero" transform="matrix(.65217 0 0 .65217 2.5 14.687)"/>
        </g>
        <g style="font-style:normal;font-weight:400;font-size:17.00779915px;font-family:icomoon;fill:#000;fill-opacity:1;stroke:none">
            <path d="M20.979-18.014a1.3 1.3 0 0 1 .954.393 1.3 1.3 0 0 1 .393.955V2.291a1.3 1.3 0 0 1-.393.955 1.3 1.3 0 0 1-.955.393H2.021a1.3 1.3 0 0 1-.954-.393 1.3 1.3 0 0 1-.393-.955v-18.957a1.3 1.3 0 0 1 .393-.955 1.3 1.3 0 0 1 .954-.393h18.957m0-.674H2.021c-.554 0-1.029.199-1.426.596A1.946 1.946 0 0 0 0-16.666V2.291c0 .554.198 1.03.595 1.426.397.397.872.595 1.426.595h18.957c.555 0 1.03-.198 1.427-.595.397-.397.595-.872.595-1.426v-18.957c0-.554-.198-1.03-.595-1.426a1.946 1.946 0 0 0-1.426-.596M2.83-5.682l3.818-.606-1.01 2.021c1.707 1.363 3.047 2.044 4.02 2.044h1.213c2.71 0 4.657-1.355 5.84-4.065a14.23 14.23 0 0 1 2.83 2.044l-.022-.023c-2.531 2.816-4.874 4.223-7.03 4.223H10.87c-2.38 0-4.387-1.07-6.02-3.212-.224.524-.422.921-.595 1.19-.172.27-.31.405-.415.405l-1.01-4.02m0-4.425c2.515-2.816 4.926-4.223 7.232-4.223h1.212c.644 0 1.266.075 1.865.225.599.15 1.16.366 1.684.65.524.285 1.011.622 1.46 1.012.464.389.869.823 1.213 1.302v.023c.06-.33.18-.633.36-.91s.396-.505.65-.685h.023l.989 4.02-3.819.607 1.01-2.021c-1.781-1.363-3.054-2.044-3.817-2.044h-1.82c-2.29 0-4.095 1.355-5.413 4.065-.524-.3-1.022-.618-1.494-.955A13.45 13.45 0 0 1 2.83-10.13l.023.023H2.83" font-size="17.008" style="vector-effect:none;fill-rule:nonzero" transform="matrix(.65217 0 0 .65217 2.5 14.687)"/>
        </g>
    </g>
</svg>
