<svg xmlns="http://www.w3.org/2000/svg" width="20" height="20" version="1.2">
    <g font-weight="400" style="fill:none;fill-rule:evenodd;stroke:#000;stroke-width:1;stroke-linecap:square;stroke-linejoin:bevel">
        <g style="font-style:normal;font-weight:400;font-size:17.00779915px;font-family:icomoon;fill:#fff;fill-opacity:1;stroke:none">
            <path d="M2.021-18.688h18.957c.555 0 1.03.199 1.427.596.397.396.595.872.595 1.426V2.291c0 .554-.198 1.03-.595 1.426a1.946 1.946 0 0 1-1.427.595H2.021c-.554 0-1.029-.198-1.426-.595A1.946 1.946 0 0 1 0 2.291v-18.957c0-.554.198-1.03.595-1.426a1.946 1.946 0 0 1 1.426-.596" font-size="17.008" style="vector-effect:none;fill-rule:nonzero" transform="matrix(.65217 0 0 .65217 2.5 14.687)"/>
        </g>
        <g style="font-style:normal;font-weight:400;font-size:17.00779915px;font-family:icomoon;fill:#000;fill-opacity:1;stroke:none">
            <path d="M20.979-18.014a1.3 1.3 0 0 1 .954.393 1.3 1.3 0 0 1 .393.955V2.291a1.3 1.3 0 0 1-.393.955 1.3 1.3 0 0 1-.955.393H2.021a1.3 1.3 0 0 1-.954-.393 1.3 1.3 0 0 1-.393-.955v-18.957a1.3 1.3 0 0 1 .393-.955 1.3 1.3 0 0 1 .954-.393h18.957m0-.674H2.021c-.554 0-1.029.199-1.426.596A1.946 1.946 0 0 0 0-16.666V2.291c0 .554.198 1.03.595 1.426.397.397.872.595 1.426.595h18.957c.555 0 1.03-.198 1.427-.595.397-.397.595-.872.595-1.426v-18.957c0-.554-.198-1.03-.595-1.426a1.946 1.946 0 0 0-1.426-.596m-6.29 2.583c-.703 0-1.34.188-1.909.562a3.576 3.576 0 0 0-1.28 1.437v.023a3.603 3.603 0 0 0-1.292-1.527 3.393 3.393 0 0 0-1.942-.584c-.974 0-1.805.344-2.494 1.033a3.397 3.397 0 0 0-1.033 2.493v8.333h.674v-8.22c0-.794.28-1.472.842-2.033.562-.562 1.232-.843 2.01-.843.794 0 1.472.281 2.033.843a2.77 2.77 0 0 1 .843 2.032v5.57H9.86v-5.682a1.4 1.4 0 0 0-.416-1.01 1.37 1.37 0 0 0-1.022-.428c-.39 0-.726.143-1.01.427a1.381 1.381 0 0 0-.428 1.011v8.333h.674v-8.311c0-.21.075-.389.225-.539.15-.15.33-.224.539-.224.21 0 .39.075.539.224.15.15.225.33.225.54V-6.987h-.315V-.83H6.716v2.56h9.838V-.83h-2.156v-6.154h-.337V-12.646c0-.21.074-.389.224-.539.15-.15.33-.224.54-.224.209 0 .389.075.538.224.15.15.225.33.225.54v8.31h.674v-8.333a1.4 1.4 0 0 0-.416-1.01 1.37 1.37 0 0 0-1.022-.428 1.37 1.37 0 0 0-1.022.427 1.4 1.4 0 0 0-.415 1.011v5.682h-1.55v-5.57c0-.793.28-1.47.842-2.032.562-.562 1.232-.843 2.01-.843.794 0 1.472.281 2.033.843a2.77 2.77 0 0 1 .842 2.032v8.221h.674v-8.22c0-.989-.344-1.828-1.033-2.516-.689-.69-1.527-1.034-2.515-1.034" font-size="17.008" style="vector-effect:none;fill-rule:nonzero" transform="matrix(.65217 0 0 .65217 2.5 14.687)"/>
        </g>
    </g>
</svg>
