<?xml version="1.0" encoding="UTF-8" standalone="no"?>
<svg
   xmlns:dc="http://purl.org/dc/elements/1.1/"
   xmlns:cc="http://creativecommons.org/ns#"
   xmlns:rdf="http://www.w3.org/1999/02/22-rdf-syntax-ns#"
   xmlns:svg="http://www.w3.org/2000/svg"
   xmlns="http://www.w3.org/2000/svg"
   xmlns:sodipodi="http://sodipodi.sourceforge.net/DTD/sodipodi-0.dtd"
   xmlns:inkscape="http://www.inkscape.org/namespaces/inkscape"
   width="20"
   height="20"
   viewBox="0 0 20 20"
   version="1.2"
   id="svg38"
   sodipodi:docname="70401040031.svg"
   inkscape:version="0.92.4 (5da689c313, 2019-01-14)">
  <metadata
     id="metadata42">
    <rdf:RDF>
      <cc:Work
         rdf:about="">
        <dc:format>image/svg+xml</dc:format>
        <dc:type
           rdf:resource="http://purl.org/dc/dcmitype/StillImage" />
      </cc:Work>
    </rdf:RDF>
  </metadata>
  <sodipodi:namedview
     pagecolor="#ffffff"
     bordercolor="#666666"
     borderopacity="1"
     objecttolerance="10"
     gridtolerance="10"
     guidetolerance="10"
     inkscape:pageopacity="0"
     inkscape:pageshadow="2"
     inkscape:window-width="751"
     inkscape:window-height="480"
     id="namedview40"
     showgrid="false"
     inkscape:zoom="11.8"
     inkscape:cx="10"
     inkscape:cy="10"
     inkscape:window-x="0"
     inkscape:window-y="0"
     inkscape:window-maximized="0"
     inkscape:current-layer="svg38" />
  <title
     id="title2">Qt SVG Document</title>
  <desc
     id="desc4">Generated with Qt</desc>
  <defs
     id="defs6" />
  <g
     id="g36"
     transform="matrix(0.65217391,0,0,0.65217391,-0.43478256,-0.43478256)"
     style="fill:none;fill-rule:evenodd;stroke:#000000;stroke-width:1;stroke-linecap:square;stroke-linejoin:bevel">
    <g
       transform="translate(16,16)"
       font-size="8.25"
       font-weight="400"
       font-style="normal"
       id="g8"
       style="font-style:normal;font-weight:400;font-size:8.25px;font-family:'MS Shell Dlg 2';fill:none;stroke:#000000;stroke-width:1;stroke-linecap:square;stroke-linejoin:bevel;stroke-opacity:1" />
    <g
       transform="matrix(1.33333,0,0,1.33333,16,16)"
       font-size="8.25"
       font-weight="400"
       font-style="normal"
       id="g10"
       style="font-style:normal;font-weight:400;font-size:8.25px;font-family:'MS Shell Dlg 2';fill:none;stroke:#000000;stroke-width:1;stroke-linecap:square;stroke-linejoin:bevel;stroke-opacity:1" />
    <g
       transform="translate(4.5,23.1875)"
       font-size="17.0078"
       font-weight="400"
       font-style="normal"
       id="g14"
       style="font-style:normal;font-weight:400;font-size:17.00779915px;font-family:icomoon;fill:#ffffff;fill-opacity:1;stroke:none">
      <path
         d="M 2.02148,-18.6875 H 20.9785 c 0.5541,0 1.0295,0.1984 1.4263,0.5952 C 22.8016,-17.6955 23,-17.2201 23,-16.666 V 2.29102 C 23,2.84505 22.8016,3.32048 22.4048,3.71729 22.008,4.1141 21.5326,4.3125 20.9785,4.3125 H 2.02148 C 1.46745,4.3125 0.992025,4.1141 0.595215,3.71729 0.198405,3.32048 0,2.84505 0,2.29102 V -16.666 c 0,-0.5541 0.198405,-1.0295 0.595215,-1.4263 0.39681,-0.3968 0.872235,-0.5952 1.426265,-0.5952"
         id="path12"
         inkscape:connector-curvature="0"
         style="vector-effect:none;fill-rule:nonzero" />
    </g>
    <g
       transform="matrix(1.33333,0,0,1.33333,16,16)"
       font-size="8.25"
       font-weight="400"
       font-style="normal"
       id="g16"
       style="font-style:normal;font-weight:400;font-size:8.25px;font-family:'MS Shell Dlg 2';fill:none;stroke:#000000;stroke-width:1;stroke-linecap:square;stroke-linejoin:bevel;stroke-opacity:1" />
    <g
       transform="translate(16,16)"
       font-size="8.25"
       font-weight="400"
       font-style="normal"
       id="g18"
       style="font-style:normal;font-weight:400;font-size:8.25px;font-family:'MS Shell Dlg 2';fill:none;stroke:#000000;stroke-width:1;stroke-linecap:square;stroke-linejoin:bevel;stroke-opacity:1" />
    <g
       font-size="8.25"
       font-weight="400"
       font-style="normal"
       id="g20"
       style="font-style:normal;font-weight:400;font-size:8.25px;font-family:'MS Shell Dlg 2';fill:none;stroke:#000000;stroke-width:1;stroke-linecap:square;stroke-linejoin:bevel;stroke-opacity:1" />
    <g
       transform="translate(16,16)"
       font-size="8.25"
       font-weight="400"
       font-style="normal"
       id="g22"
       style="font-style:normal;font-weight:400;font-size:8.25px;font-family:'MS Shell Dlg 2';fill:none;stroke:#000000;stroke-width:1;stroke-linecap:square;stroke-linejoin:bevel;stroke-opacity:1" />
    <g
       transform="matrix(1.33333,0,0,1.33333,16,16)"
       font-size="8.25"
       font-weight="400"
       font-style="normal"
       id="g24"
       style="font-style:normal;font-weight:400;font-size:8.25px;font-family:'MS Shell Dlg 2';fill:none;stroke:#000000;stroke-width:1;stroke-linecap:square;stroke-linejoin:bevel;stroke-opacity:1" />
    <g
       transform="translate(4.5,23.1875)"
       font-size="17.0078"
       font-weight="400"
       font-style="normal"
       id="g28"
       style="font-style:normal;font-weight:400;font-size:17.00779915px;font-family:icomoon;fill:#000000;fill-opacity:1;stroke:none">
      <path
         d="m 20.9785,-18.0137 c 0.3744,0 0.6926,0.1311 0.9546,0.3931 0.262,0.262 0.3931,0.5802 0.3931,0.9546 V 2.29102 c 0,0.37434 -0.1311,0.69254 -0.3931,0.95459 -0.262,0.26204 -0.5802,0.39306 -0.9546,0.39306 H 2.02148 C 1.64714,3.63867 1.32894,3.50765 1.06689,3.24561 0.80485,2.98356 0.673828,2.66536 0.673828,2.29102 V -16.666 c 0,-0.3744 0.131022,-0.6926 0.393062,-0.9546 0.26205,-0.262 0.58025,-0.3931 0.95459,-0.3931 H 20.9785 m 0,-0.6738 H 2.02148 c -0.55403,0 -1.029455,0.1984 -1.426265,0.5952 C 0.198405,-17.6955 0,-17.2201 0,-16.666 V 2.29102 C 0,2.84505 0.198405,3.32048 0.595215,3.71729 0.992025,4.1141 1.46745,4.3125 2.02148,4.3125 H 20.9785 c 0.5541,0 1.0295,-0.1984 1.4263,-0.59521 C 22.8016,3.32048 23,2.84505 23,2.29102 V -16.666 c 0,-0.5541 -0.1984,-1.0295 -0.5952,-1.4263 -0.3968,-0.3968 -0.8722,-0.5952 -1.4263,-0.5952 m -5.75,4.5596 c 0,-0.3295 -0.116,-0.6065 -0.3481,-0.8311 -0.2321,-0.2246 -0.5129,-0.3369 -0.8423,-0.3369 H 8.96191 c -0.32942,0 -0.61018,0.1123 -0.84228,0.3369 -0.2321,0.2246 -0.34815,0.5016 -0.34815,0.8311 v 2.2011 h 7.45702 v -2.2011 m -0.6738,1.5273 H 8.44531 v -1.5273 c 0,-0.1348 0.05241,-0.2508 0.15723,-0.3482 0.10482,-0.0973 0.22461,-0.146 0.35937,-0.146 h 5.07619 c 0.1348,0 0.2545,0.0487 0.3594,0.146 0.1048,0.0974 0.1572,0.2134 0.1572,0.3482 v 1.5273 m 2.9648,1.3477 H 5.48047 c -0.49414,0 -0.90967,0.1722 -1.24658,0.5166 -0.33692,0.3444 -0.50537,0.75616 -0.50537,1.23532 v 8.669925 c 0,0.494141 0.16845,0.9096683 0.50537,1.246582 0.33691,0.336914 0.75244,0.505371 1.24658,0.505371 H 17.5195 c 0.4942,0 0.9097,-0.168457 1.2466,-0.505371 0.3369,-0.3369137 0.5054,-0.752441 0.5054,-1.246582 V -9.50098 c 0,-0.47916 -0.1685,-0.89092 -0.5054,-1.23532 -0.3369,-0.3444 -0.7524,-0.5166 -1.2466,-0.5166 m -2.4931,4.94138 c -0.0749,0.16471 -0.1647,0.31071 -0.2696,0.43798 -0.1048,0.12728 -0.2171,0.24333 -0.3369,0.34815 -0.1347,0.10482 -0.277,0.20215 -0.4267,0.29199 -0.1498,0.08985 -0.307,0.15723 -0.4717,0.20215 l -0.0225,0.02246 c -0.1497,0.0599 -0.3144,0.10482 -0.4941,0.13477 -0.1797,0.02994 -0.3594,0.04492 -0.5391,0.04492 0,0 -0.0037,0 -0.0112,0 -0.0075,0 -0.0112,0 -0.0112,0 H 9.88281 v 0.89844 h 3.41409 v 1.12304 H 9.88281 v 1.79688 H 8.64746 V -2.80762 H 7.2998 V -3.93066 H 8.64746 V -4.8291 H 7.2998 v -1.12305 h 1.34766 v -3.81836 h 3.63864 c 1.0033,0 1.752,0.20589 2.2461,0.61768 0.4942,0.41178 0.7412,1.02197 0.7412,1.83056 0,0 0,0.00375 0,0.01123 0,0.00749 0,0.01124 0,0.01124 0,0.17968 -0.0224,0.35563 -0.0673,0.52783 -0.045,0.1722 -0.1049,0.33317 -0.1797,0.48291 V -6.31152 M 13.499,-8.40039 c -0.1797,-0.10482 -0.3781,-0.18718 -0.5952,-0.24707 -0.2171,-0.0599 -0.438,-0.08984 -0.6626,-0.08984 -0.0299,0 -0.0599,0 -0.0898,0 -0.03,0 -0.0599,0 -0.0899,0 H 9.88281 v 2.78515 h 2.47069 c 0.015,0 0.0375,0 0.0674,0 0.0299,0 0.0599,0 0.0898,0 0.1947,0 0.3856,-0.03369 0.5728,-0.10107 0.1872,-0.06739 0.3481,-0.16097 0.4829,-0.28076 0.1198,-0.1198 0.2171,-0.26205 0.292,-0.42676 0.0749,-0.16472 0.1123,-0.33692 0.1123,-0.5166 0,-0.01498 0,-0.02995 0,-0.04493 0,-0.01497 0,-0.02994 0,-0.04492 0,0 0,-0.00748 0,-0.02246 0,-0.01497 0,-0.02995 0,-0.04492 0,-0.20964 -0.0449,-0.39681 -0.1348,-0.56152 -0.0898,-0.16472 -0.2021,-0.29948 -0.3369,-0.4043"
         id="path26"
         inkscape:connector-curvature="0"
         style="vector-effect:none;fill-rule:nonzero" />
    </g>
    <g
       transform="matrix(1.33333,0,0,1.33333,16,16)"
       font-size="8.25"
       font-weight="400"
       font-style="normal"
       id="g30"
       style="font-style:normal;font-weight:400;font-size:8.25px;font-family:'MS Shell Dlg 2';fill:none;stroke:#000000;stroke-width:1;stroke-linecap:square;stroke-linejoin:bevel;stroke-opacity:1" />
    <g
       transform="translate(16,16)"
       font-size="8.25"
       font-weight="400"
       font-style="normal"
       id="g32"
       style="font-style:normal;font-weight:400;font-size:8.25px;font-family:'MS Shell Dlg 2';fill:none;stroke:#000000;stroke-width:1;stroke-linecap:square;stroke-linejoin:bevel;stroke-opacity:1" />
    <g
       font-size="8.25"
       font-weight="400"
       font-style="normal"
       id="g34"
       style="font-style:normal;font-weight:400;font-size:8.25px;font-family:'MS Shell Dlg 2';fill:none;stroke:#000000;stroke-width:1;stroke-linecap:square;stroke-linejoin:bevel;stroke-opacity:1" />
  </g>
</svg>
