<svg xmlns="http://www.w3.org/2000/svg" width="20" height="20" version="1.2">
    <g font-weight="400" style="fill:none;fill-rule:evenodd;stroke:#000;stroke-width:1;stroke-linecap:square;stroke-linejoin:bevel">
        <g style="font-style:normal;font-weight:400;font-size:17.00779915px;font-family:icomoon;fill:#fff;fill-opacity:1;stroke:none">
            <path d="M2.021-18.688h18.957c.555 0 1.03.199 1.427.596.397.396.595.872.595 1.426V2.291c0 .554-.198 1.03-.595 1.426a1.946 1.946 0 0 1-1.427.595H2.021c-.554 0-1.029-.198-1.426-.595A1.946 1.946 0 0 1 0 2.291v-18.957c0-.554.198-1.03.595-1.426a1.946 1.946 0 0 1 1.426-.596" font-size="17.008" style="vector-effect:none;fill-rule:nonzero" transform="matrix(.65217 0 0 .65217 2.5 14.687)"/>
        </g>
        <g style="font-style:normal;font-weight:400;font-size:17.00779915px;font-family:icomoon;fill:#000;fill-opacity:1;stroke:none">
            <path d="M20.979-18.014a1.3 1.3 0 0 1 .954.393 1.3 1.3 0 0 1 .393.955V2.291a1.3 1.3 0 0 1-.393.955 1.3 1.3 0 0 1-.955.393H2.021a1.3 1.3 0 0 1-.954-.393 1.3 1.3 0 0 1-.393-.955v-18.957a1.3 1.3 0 0 1 .393-.955 1.3 1.3 0 0 1 .954-.393h18.957m0-.674H2.021c-.554 0-1.029.199-1.426.596A1.946 1.946 0 0 0 0-16.666V2.291c0 .554.198 1.03.595 1.426.397.397.872.595 1.426.595h18.957c.555 0 1.03-.198 1.427-.595.397-.397.595-.872.595-1.426v-18.957c0-.554-.198-1.03-.595-1.426a1.946 1.946 0 0 0-1.426-.596M18.148-8.67h-5.526c0-.374-.135-.696-.404-.966a1.344 1.344 0 0 0-.988-.404c-.375 0-.697.135-.966.404-.27.27-.405.592-.405.966H9.3l-4.2 4.178-2.404.067v3.19h.697c0 .509.176.94.527 1.291a1.73 1.73 0 0 0 1.27.528A1.73 1.73 0 0 0 6.457.056c.351-.352.527-.782.527-1.291h8.828c.03.479.22.883.572 1.213.352.329.768.494 1.247.494.479 0 .89-.165 1.235-.494.345-.33.532-.727.562-1.19v-.023h.876v-5.279L18.148-8.67m-1.504 4.515h-2.022v2.021h-1.348v-2.021h-2.043v-1.37h2.043v-2.022h1.348v2.022h2.022v1.37m-5.1-7.547c-.733 0-1.388.206-1.964.618A3.332 3.332 0 0 0 8.355-9.48v.023l.63.225c.194-.525.52-.955.976-1.292a2.596 2.596 0 0 1 1.584-.505 2.6 2.6 0 0 1 1.494.449c.441.3.767.689.977 1.168v.022l.629-.27a3.507 3.507 0 0 0-1.236-1.47 3.21 3.21 0 0 0-1.864-.573m4.694 1.392a5.243 5.243 0 0 0-1.864-2.234 4.844 4.844 0 0 0-2.808-.865c-1.078 0-2.04.3-2.886.898a5.08 5.08 0 0 0-1.83 2.314l-.023.022.607.292a4.395 4.395 0 0 1 1.606-2.01 4.241 4.241 0 0 1 2.481-.775c.899 0 1.707.24 2.426.719.719.479 1.25 1.1 1.595 1.864l.022.045.674-.27M11.5-14.285h.022c1.213 0 2.31.337 3.291 1.01.98.674 1.696 1.535 2.145 2.584l.023.045.628-.27a7.321 7.321 0 0 0-1.01-1.64 6.879 6.879 0 0 0-1.415-1.269 6.563 6.563 0 0 0-1.73-.82 6.351 6.351 0 0 0-1.931-.292c-.69 0-1.34.098-1.955.292a6.403 6.403 0 0 0-3.122 2.089c-.419.48-.756 1.011-1.01 1.595v.045l.606.27a5.95 5.95 0 0 1 2.167-2.617 5.858 5.858 0 0 1 3.291-1.022" font-size="17.008" style="vector-effect:none;fill-rule:nonzero" transform="matrix(.65217 0 0 .65217 2.5 14.687)"/>
        </g>
    </g>
</svg>
