<svg xmlns="http://www.w3.org/2000/svg" width="20" height="20" version="1.2">
    <g font-weight="400" style="fill:none;fill-rule:evenodd;stroke:#000;stroke-width:1;stroke-linecap:square;stroke-linejoin:bevel">
        <g style="font-style:normal;font-weight:400;font-size:17.00779915px;font-family:icomoon;fill:#fff;fill-opacity:1;stroke:none">
            <path d="M2.021-18.688h18.957c.555 0 1.03.199 1.427.596.397.396.595.872.595 1.426V2.291c0 .554-.198 1.03-.595 1.426a1.946 1.946 0 0 1-1.427.595H2.021c-.554 0-1.029-.198-1.426-.595A1.946 1.946 0 0 1 0 2.291v-18.957c0-.554.198-1.03.595-1.426a1.946 1.946 0 0 1 1.426-.596" font-size="17.008" style="vector-effect:none;fill-rule:nonzero" transform="matrix(.65217 0 0 .65217 2.5 14.687)"/>
        </g>
        <g style="font-style:normal;font-weight:400;font-size:17.00779915px;font-family:icomoon;fill:#000;fill-opacity:1;stroke:none">
            <path d="M20.979-18.036c.359 0 .677.127.954.382.277.254.416.584.416.988V2.291c0 .36-.128.678-.382.955-.255.277-.584.415-.988.415H2.02a1.37 1.37 0 0 1-.954-.382C.79 3.025.65 2.695.65 2.291v-18.957c0-.36.128-.678.382-.955.255-.277.584-.415.988-.415h18.957m0-.651H2.021c-.539 0-1.01.202-1.415.606-.404.404-.606.876-.606 1.415V2.291c0 .54.202 1.01.606 1.415.405.404.876.607 1.415.607h18.957c.584 0 1.067-.203 1.45-.607.381-.404.572-.876.572-1.415v-18.957c0-.54-.202-1.01-.606-1.415-.405-.404-.876-.606-1.415-.606m-6.02 8.04-2.38-5.03h-2.157l-2.381 5.03L3.01-8.265v2.157L8.04-3.73l2.38 5.032h2.157L14.96-3.73l5.031-2.38v-2.157l-5.031-2.38m.202 4.829L13.59-5.1l-.719 1.573h-2.74L9.41-5.1 7.84-5.817v-2.74l1.572-.72.719-1.572h2.74l.719 1.573 1.572.718v2.74" font-size="17.008" style="vector-effect:none;fill-rule:nonzero" transform="matrix(.65217 0 0 .65217 2.5 14.687)"/>
        </g>
    </g>
</svg>
