<svg xmlns="http://www.w3.org/2000/svg" width="26.667" height="26.667">
    <defs>
        <clipPath id="a" clipPathUnits="userSpaceOnUse">
            <path d="M0 20h20V0H0Z"/>
        </clipPath>
    </defs>
    <g clip-path="url(#a)" transform="matrix(1.33333 0 0 -1.33333 0 26.667)">
        <path d="M0 0a.881.881 0 0 1-.877-.877c0-.452.34-.82.792-.876 0 .028 0 .056-.028.056 0 .057-.028.113-.028.17 0 .056-.029.113-.029.17v.169c0 .057.029.113.029.142.028.056.028.113.056.141.028.085.057.17.113.226a1.2 1.2 0 0 0 .17.198.755.755 0 0 0 .226.198c.028.028.057.028.085.057A.615.615 0 0 1 0 0" style="fill:#000;fill-opacity:1;fill-rule:nonzero;stroke:none" transform="translate(6.575 14.594)"/>
        <path d="M0 0c.547 0 .99-.43.99-.962 0-.531-.443-.961-.99-.961-.547 0-.99.43-.99.961C-.99-.43-.547 0 0 0" style="fill:#000;fill-opacity:1;fill-rule:nonzero;stroke:none" transform="translate(10.195 14.651)"/>
        <path d="M0 0c-.283 0-.877 0-1.16-.028-.282 0-.282-.029-.339-.509-.028-.481-.113-1.386-.141-1.867-.029-.452 0-.452.141-.452.142 0 .396.028.537 0 .142-.029.114-.085.17-.877.057-.792.113-2.347.17-3.111.056-.764.113-.764.311-.764h.735c.198 0 .198.029.226.821.029.791.114 2.375.17 3.139.057.792.085.792.198.792s.311 0 .396.056c.085.057.057.142-.141.594A96.967 96.967 0 0 1 .509-.509c-.198.424-.226.452-.226.452C.283 0 .283 0 0 0" style="fill:#000;fill-opacity:1;fill-rule:nonzero;stroke:none" transform="translate(6.632 12.247)"/>
        <path d="M0 0h-1.527c-.396.028-.453.085-.566.311-.113.226-.367.651-.537.849-.17.197-.283.197-.453.113-.169-.085-.367-.227-.452-.34-.057-.141 0-.254.283-.707.282-.481.792-1.301 1.046-1.81.255-.481.255-.65.339-1.612.085-.961.255-2.743.368-3.648.113-.905.17-.905.368-.877.226 0 .594 0 .792.057.198.056.254.141.282.877.029.735.085 2.121.142 2.828.056.707.113.707.254.707.142 0 .368 0 .453.056.113.029.113.113 0 .651C.707-2.008.509-1.046.424-.537.311-.028.311 0 .283.028.368 0 .368 0 0 0" style="fill:#000;fill-opacity:1;fill-rule:nonzero;stroke:none" transform="translate(10.959 12.417)"/>
        <path d="M0 0a.933.933 0 1 0 0-1.867A.933.933 0 0 0 0 0" style="fill:#000;fill-opacity:1;fill-rule:nonzero;stroke:none" transform="translate(13.815 14.566)"/>
        <path d="M0 0c-.424.028-1.244 0-1.64-.028-.396-.057-.396-.113-.311-.651.084-.537.254-1.527.311-2.036.056-.509-.029-.537-.057-.594-.028-.056-.028-.113 0-.82a90.62 90.62 0 0 1 .17-2.8c.056-.707.113-.707.311-.707s.509.028.707.057c.198.028.226.141.283.876.056.736.113 2.093.169 2.8.057.707.114.679.255.707.141 0 .368.029.481.085.113.057.113.113.056.622C.679-1.98.594-1.046.537-.537.424-.085.424-.028 0 0" style="fill:#000;fill-opacity:1;fill-rule:nonzero;stroke:none" transform="translate(14.72 12.36)"/>
        <path d="M0 0c-.17.141-.255.113-.311.028-.057-.056-.141-.141 0-.339.113-.198.396-.566.594-.707.169-.142.254-.085.311-.028.056.056.141.113.028.311C.481-.509.198-.141 0 0" style="fill:#000;fill-opacity:1;fill-rule:nonzero;stroke:none" transform="translate(8.64 16.122)"/>
        <path d="M0 0c.17.141.255.113.311.028.057-.056.141-.141 0-.339-.113-.198-.396-.566-.594-.707-.198-.142-.254-.085-.311-.028-.056.056-.141.113-.028.311.141.198.424.565.622.735" style="fill:#000;fill-opacity:1;fill-rule:nonzero;stroke:none" transform="translate(11.949 16.065)"/>
        <path d="M0 0c-.028.226-.113.226-.198.226S-.396.198-.424-.028c-.057-.227-.057-.679-.028-.905.028-.227.113-.227.197-.227.085 0 .17 0 .227.227C.028-.707.028-.255 0 0" style="fill:#000;fill-opacity:1;fill-rule:nonzero;stroke:none" transform="translate(10.506 16.461)"/>
        <path d="M0 0a.83.83 0 0 0-.255-.622.829.829 0 0 0-.622-.255H-13.32a.832.832 0 0 0-.623.255.833.833 0 0 0-.254.622v12.444c0 .254.085.452.254.622.17.17.368.254.623.254H-.877a.828.828 0 0 0 .622-.254.832.832 0 0 0 .255-.622Zm.057 13.405a1.282 1.282 0 0 1-.934.396H-13.32c-.368 0-.679-.141-.934-.396a1.282 1.282 0 0 1-.396-.933V.028c-.028-.367.113-.678.368-.961.255-.255.566-.396.933-.396H-.905c.368 0 .679.141.933.396.255.254.396.565.396.933v12.444c0 .396-.113.707-.367.961" style="fill:#000;fill-opacity:1;fill-rule:nonzero;stroke:none" transform="translate(17.18 3.795)"/>
        <path d="M0 0a.817.817 0 0 0-.283-.65c-.198-.17-.396-.283-.65-.283h-15.018a.82.82 0 0 0-.65.283c-.17.198-.283.395-.283.65v15.017a.82.82 0 0 0 .283.651c.198.169.396.283.65.283H-.933a.818.818 0 0 0 .65-.283c.17-.198.283-.396.283-.651Zm-.933 16.403h-15.018c-.396 0-.707-.141-.989-.424-.283-.283-.425-.594-.425-.99V0c0-.396.142-.707.425-.99.282-.283.593-.424.989-.424H-.933c.396 0 .707.141.99.424.282.283.424.594.424.99v15.017c0 .396-.142.707-.424.99a1.344 1.344 0 0 1-.99.396" style="fill:#000;fill-opacity:1;fill-rule:nonzero;stroke:none" transform="translate(18.51 2.525)"/>
        <path d="M0 0c-.085 0-.141 0-.198.028-.057.029-.113.057-.17.113-.056.057-.084.114-.113.17-.028.057-.028.141-.028.198 0 .085 0 .141.028.198.029.057.057.113.113.17l15.923 15.922c.056.057.113.085.169.113a.488.488 0 0 0 .198.028.497.497 0 0 0 .368-.169.5.5 0 0 0 .17-.368c0-.085 0-.141-.029-.198-.028-.056-.056-.113-.113-.17L.368.141C.311.085.255.057.198.028.141 0 .057 0 0 0" style="fill:red;fill-opacity:1;fill-rule:nonzero;stroke:none" transform="translate(2.107 1.54)"/>
    </g>
</svg>
