<svg xmlns="http://www.w3.org/2000/svg" width="20" height="20" version="1.2">
    <g font-weight="400" style="fill:none;fill-rule:evenodd;stroke:#000;stroke-width:1;stroke-linecap:square;stroke-linejoin:bevel">
        <g style="font-style:normal;font-weight:400;font-size:19.84250069px;font-family:icomoon;fill:#fff;fill-opacity:1;stroke:none">
            <path d="M2.285-21.125h21.43a2.2 2.2 0 0 1 1.612.673A2.2 2.2 0 0 1 26-18.84V2.59a2.2 2.2 0 0 1-.673 1.612 2.2 2.2 0 0 1-1.612.673H2.285a2.2 2.2 0 0 1-1.612-.673A2.2 2.2 0 0 1 0 2.59v-21.43a2.2 2.2 0 0 1 .673-1.612 2.2 2.2 0 0 1 1.612-.673" font-size="19.843" style="vector-effect:none;fill-rule:nonzero" transform="matrix(.6923 0 0 .6923 1 15.625)"/>
        </g>
        <g style="font-style:normal;font-weight:400;font-size:17.00779915px;font-family:icomoon;fill:#000;fill-opacity:1;stroke:none">
            <path d="M20.979-18.014a1.3 1.3 0 0 1 .954.393 1.3 1.3 0 0 1 .393.955V2.291a1.3 1.3 0 0 1-.393.955 1.3 1.3 0 0 1-.955.393H2.021a1.3 1.3 0 0 1-.954-.393 1.3 1.3 0 0 1-.393-.955v-18.957a1.3 1.3 0 0 1 .393-.955 1.3 1.3 0 0 1 .954-.393h18.957m0-.674H2.021c-.554 0-1.029.199-1.426.596A1.946 1.946 0 0 0 0-16.666V2.291c0 .554.198 1.03.595 1.426.397.397.872.595 1.426.595h18.957c.555 0 1.03-.198 1.427-.595.397-.397.595-.872.595-1.426v-18.957c0-.554-.198-1.03-.595-1.426a1.946 1.946 0 0 0-1.426-.596m-7.817 4.313c0 .45-.16.835-.483 1.157a1.604 1.604 0 0 1-1.179.483c-.45 0-.835-.161-1.157-.483a1.578 1.578 0 0 1-.483-1.157c0-.464.161-.857.483-1.18a1.578 1.578 0 0 1 1.157-.482c.464 0 .857.16 1.18.483.321.322.482.715.482 1.179m-2.605 7.749.337-.292a.71.71 0 0 0 .235-.28.815.815 0 0 0 .079-.349.807.807 0 0 0-.831-.83.848.848 0 0 0-.517.179l-1.01.808a.93.93 0 0 0-.225.281.775.775 0 0 0-.034.651.964.964 0 0 0 .146.259l1.19 1.347a.793.793 0 0 0 .629.292.865.865 0 0 0 .573-.258.78.78 0 0 0 .236-.573.917.917 0 0 0-.045-.292.563.563 0 0 0-.135-.224l-.628-.719m4.739-3.1-2.044-2.448a.354.354 0 0 0-.067-.09.354.354 0 0 0-.09-.067.445.445 0 0 0-.158-.135.398.398 0 0 0-.18-.045h-2.492a.379.379 0 0 0-.191.045.69.69 0 0 0-.146.112v.023a.354.354 0 0 0-.09.067l-.09.09-2.021 2.448a.666.666 0 0 0-.146.236.78.78 0 0 0-.057.281c0 .225.083.42.247.584.165.165.36.247.584.247a.793.793 0 0 0 .63-.292l.875-1.056v.517c0 .105.042.198.124.28a.387.387 0 0 0 .28.124h2.494a.387.387 0 0 0 .28-.123.387.387 0 0 0 .124-.281v-.517l.854 1.034a.8.8 0 0 0 .28.213.865.865 0 0 0 .888-.101.8.8 0 0 0 .213-.28.815.815 0 0 0 .022-.641 1.042 1.042 0 0 0-.123-.225M14.15-7.39l-1.01-.808a.848.848 0 0 0-.517-.18.807.807 0 0 0-.831.831c0 .12.026.236.079.348a.71.71 0 0 0 .235.281l.337.292-.629.719c-.06.075-.108.157-.146.247a.799.799 0 0 0 .19.876c.166.165.36.247.585.247a.793.793 0 0 0 .63-.292l1.19-1.348c.06-.075.108-.157.146-.247a.752.752 0 0 0 .056-.292.775.775 0 0 0-.09-.37.93.93 0 0 0-.225-.281v-.023M10.646-.629a.704.704 0 0 0 .169-.28c.037-.113.056-.229.056-.349 0-.12-.015-.228-.045-.325a.774.774 0 0 0-.135-.259l-3.93-5.593c-.09-.15-.21-.27-.36-.359a.943.943 0 0 0-.494-.135.995.995 0 0 0-.73.304.995.995 0 0 0-.303.73c0 .12.022.232.067.336.045.105.098.203.158.292L6.76-3.886h-.382L4.852-6.064a1.167 1.167 0 0 1-.191-.371 1.468 1.468 0 0 1-.057-.416c0-.224.053-.434.158-.628.105-.195.24-.352.404-.472a.906.906 0 0 1 .146-.079.905.905 0 0 0 .146-.078v-5.054a.825.825 0 0 0-.247-.607.798.798 0 0 0-.584-.247.824.824 0 0 0-.606.247.825.825 0 0 0-.248.607v7.816L7.21-.292v1.954h3.504V-.202l-.067.045V-.63m1.707 0a.704.704 0 0 1-.169-.28 1.092 1.092 0 0 1-.056-.349c0-.12.015-.228.045-.325a.774.774 0 0 1 .135-.259l3.93-5.593c.09-.15.21-.27.36-.359a.943.943 0 0 1 .494-.135c.284 0 .528.101.73.304a.995.995 0 0 1 .303.73c0 .12-.022.232-.067.336a1.81 1.81 0 0 1-.158.292L16.24-3.886h.405l1.527-2.178c.075-.12.135-.244.18-.371a1.24 1.24 0 0 0 .067-.416 1.382 1.382 0 0 0-.562-1.1.901.901 0 0 0-.146-.079.904.904 0 0 1-.145-.078v-5.054c0-.24.082-.442.247-.607a.798.798 0 0 1 .584-.247c.24 0 .441.083.606.247a.825.825 0 0 1 .247.607v7.816L15.813-.292v1.954h-3.527V-.202l.068.045V-.63" font-size="17.008" style="vector-effect:none;fill-rule:nonzero" transform="matrix(.6923 0 0 .6923 2.038 14.976)"/>
        </g>
        <g style="font-style:normal;font-weight:400;font-size:19.84250069px;font-family:icomoon;fill:#000;fill-opacity:1;stroke:none">
            <path d="M23.943-20.44c.373 0 .694.136.965.407.271.27.406.592.406.965V2.818c0 .373-.135.694-.406.965-.27.271-.592.406-.965.406H2.057c-.373 0-.694-.135-.965-.406a1.318 1.318 0 0 1-.406-.965v-21.886c0-.373.135-.694.406-.965.27-.271.592-.407.965-.407h21.886m0-.685H2.057c-.576 0-1.063.199-1.46.597A1.986 1.986 0 0 0 0-19.068V2.818c0 .576.199 1.063.597 1.46.397.398.884.597 1.46.597h21.886c.576 0 1.063-.199 1.46-.597.398-.397.597-.884.597-1.46v-21.886c0-.576-.199-1.063-.597-1.46a1.986 1.986 0 0 0-1.46-.597" font-size="19.843" style="vector-effect:none;fill-rule:nonzero" transform="matrix(.6923 0 0 .6923 1 15.625)"/>
        </g>
    </g>
</svg>
