<svg xmlns="http://www.w3.org/2000/svg" width="20" height="20" version="1.2">
    <g font-weight="400" style="fill:none;fill-rule:evenodd;stroke:#000;stroke-width:1;stroke-linecap:square;stroke-linejoin:bevel">
        <g style="font-style:normal;font-weight:400;font-size:19.84250069px;font-family:icomoon;fill:#ff0;fill-opacity:1;stroke:none">
            <path d="M2.285-21.125h21.43a2.2 2.2 0 0 1 1.612.673A2.2 2.2 0 0 1 26-18.84V2.59a2.2 2.2 0 0 1-.673 1.612 2.2 2.2 0 0 1-1.612.673H2.285a2.2 2.2 0 0 1-1.612-.673A2.2 2.2 0 0 1 0 2.59v-21.43a2.2 2.2 0 0 1 .673-1.612 2.2 2.2 0 0 1 1.612-.673" font-size="19.843" style="vector-effect:none;fill-rule:nonzero" transform="matrix(.6923 0 0 .6923 1 15.625)"/>
        </g>
        <g style="font-style:normal;font-weight:400;font-size:17.00779915px;font-family:icomoon;fill:#000;fill-opacity:1;stroke:none">
            <path d="M20.979-18.014a1.3 1.3 0 0 1 .954.393 1.3 1.3 0 0 1 .393.955V2.291a1.3 1.3 0 0 1-.393.955 1.3 1.3 0 0 1-.955.393H2.021a1.3 1.3 0 0 1-.954-.393 1.3 1.3 0 0 1-.393-.955v-18.957a1.3 1.3 0 0 1 .393-.955 1.3 1.3 0 0 1 .954-.393h18.957m0-.674H2.021c-.554 0-1.029.199-1.426.596A1.946 1.946 0 0 0 0-16.666V2.291c0 .554.198 1.03.595 1.426.397.397.872.595 1.426.595h18.957c.555 0 1.03-.198 1.427-.595.397-.397.595-.872.595-1.426v-18.957c0-.554-.198-1.03-.595-1.426a1.946 1.946 0 0 0-1.426-.596M19.181-.764h-1.595l-1.864-5.188a.261.261 0 0 0-.045-.068.264.264 0 0 1-.045-.067.176.176 0 0 1-.034-.045.176.176 0 0 0-.034-.045l-.044-.045c-.016-.015-.03-.022-.045-.022h-.023l-.034-.034c-.022-.022-.04-.034-.056-.034H8.58v-1.954h5.75c.18 0 .337-.063.472-.19a.636.636 0 0 0 .202-.483.647.647 0 0 0-.202-.472.647.647 0 0 0-.472-.202H8.58v-3.122a1.995 1.995 0 0 0 1.325-.64c.36-.382.54-.843.54-1.382 0-.569-.2-1.048-.596-1.437a1.964 1.964 0 0 0-1.426-.584c-.554 0-1.03.194-1.426.584-.397.389-.596.868-.596 1.437 0 .33.075.637.225.921.15.285.344.517.584.696v3.863c-.584.21-1.13.495-1.64.854-.494.375-.92.809-1.28 1.303a5.833 5.833 0 0 0-.831 1.64 5.994 5.994 0 0 0-.292 1.864c0 .838.157 1.617.472 2.336A6.162 6.162 0 0 0 4.919.64c.539.547 1.175.977 1.91 1.292a5.867 5.867 0 0 0 2.335.471c.809 0 1.572-.157 2.291-.471A5.974 5.974 0 0 0 13.342.696a6.22 6.22 0 0 0 1.303-1.842 6.19 6.19 0 0 0 .516-2.268v-.023l1.28 3.572a.1.1 0 0 0 .012.045c.007.015.018.022.033.022.015.03.03.056.045.079.015.022.03.048.045.078l.045.045c.03.015.056.03.079.045.022.015.04.03.056.045l.067.023c.045.015.086.026.124.033a.63.63 0 0 0 .123.012h2.09c.179 0 .336-.064.47-.191a.636.636 0 0 0 .203-.483.647.647 0 0 0-.202-.472.647.647 0 0 0-.472-.202l.023.022M9.164 1.056h-.022A4.252 4.252 0 0 1 7.345.674a4.593 4.593 0 0 1-1.483-.988 4.593 4.593 0 0 1-.988-1.483 4.351 4.351 0 0 1-.382-1.797c0-.943.251-1.79.753-2.538a4.738 4.738 0 0 1 1.942-1.684l.023-.023v2.111c0 .195.067.356.202.483.135.128.292.191.472.191h5.705c.075.225.13.457.168.697.038.24.056.486.056.74v.023c0 .63-.12 1.228-.359 1.797a4.91 4.91 0 0 1-1.01 1.483c-.42.419-.914.748-1.483.988a4.251 4.251 0 0 1-1.797.382" font-size="17.008" style="vector-effect:none;fill-rule:nonzero" transform="matrix(.6923 0 0 .6923 2.038 14.976)"/>
        </g>
        <g style="font-style:normal;font-weight:400;font-size:19.84250069px;font-family:icomoon;fill:#000;fill-opacity:1;stroke:none">
            <path d="M23.943-20.44c.373 0 .694.136.965.407.271.27.406.592.406.965V2.818c0 .373-.135.694-.406.965-.27.271-.592.406-.965.406H2.057c-.373 0-.694-.135-.965-.406a1.318 1.318 0 0 1-.406-.965v-21.886c0-.373.135-.694.406-.965.27-.271.592-.407.965-.407h21.886m0-.685H2.057c-.576 0-1.063.199-1.46.597A1.986 1.986 0 0 0 0-19.068V2.818c0 .576.199 1.063.597 1.46.397.398.884.597 1.46.597h21.886c.576 0 1.063-.199 1.46-.597.398-.397.597-.884.597-1.46v-21.886c0-.576-.199-1.063-.597-1.46a1.986 1.986 0 0 0-1.46-.597" font-size="19.843" style="vector-effect:none;fill-rule:nonzero" transform="matrix(.6923 0 0 .6923 1 15.625)"/>
        </g>
    </g>
</svg>
