<svg xmlns="http://www.w3.org/2000/svg" width="26.667" height="26.667">
    <defs>
        <clipPath id="a" clipPathUnits="userSpaceOnUse">
            <path d="M0 20h20V0H0Z"/>
        </clipPath>
    </defs>
    <g clip-path="url(#a)" transform="matrix(1.33333 0 0 -1.33333 0 26.667)">
        <path d="M0 0a.775.775 0 0 0-.268-.616.87.87 0 0 0-.616-.268h-12.319a.778.778 0 0 0-.616.268.871.871 0 0 0-.268.616v12.319c0 .241.08.456.268.616a.871.871 0 0 0 .616.268H-.884c.241 0 .456-.08.616-.268A.87.87 0 0 0 0 12.319Zm.054 13.257c-.268.268-.563.375-.938.375h-12.319a1.39 1.39 0 0 1-.938-.375c-.267-.268-.374-.563-.374-.938V0c0-.348.133-.67.374-.937.268-.268.563-.375.938-.375H-.884c.348 0 .67.134.938.375.267.267.374.562.374.937v12.319c0 .349-.107.67-.374.938" style="fill:#000;fill-opacity:1;fill-rule:nonzero;stroke:none" transform="translate(17.044 3.84)"/>
        <path d="M0 0a.843.843 0 0 1-.839-.839c0-.433.325-.785.758-.839 0 .027 0 .054-.027.054 0 .055-.027.109-.027.163 0 .054-.027.108-.027.162v.162c0 .055.027.109.027.136.027.054.027.108.054.135a.554.554 0 0 0 .108.217c.054.081.108.135.162.189a.744.744 0 0 0 .217.189c.027.027.054.027.081.055A.623.623 0 0 1 0 0" style="fill:#000;fill-opacity:1;fill-rule:nonzero;stroke:none" transform="translate(6.479 14.16)"/>
        <path d="M0 0a.934.934 0 0 0 .947-.92A.934.934 0 0 0 0-1.84a.934.934 0 0 0-.947.92c0 .508.424.92.947.92" style="fill:#000;fill-opacity:1;fill-rule:nonzero;stroke:none" transform="translate(9.942 14.215)"/>
        <path d="M0 0c-.271 0-.839 0-1.109-.027-.271 0-.271-.027-.325-.487-.027-.46-.108-1.326-.135-1.786-.028-.433 0-.433.135-.433s.379.027.514 0c.108-.027.108-.081.162-.839.027-.758.109-2.246.163-2.977.054-.73.108-.73.297-.73h.704c.189 0 .189.027.216.785.027.757.109 2.273.163 3.003.054.758.081.758.189.758s.298 0 .379.054c.081.054.054.135-.135.568A95.39 95.39 0 0 1 .487-.487c-.189.406-.216.433-.216.433C.271 0 .271 0 0 0" style="fill:#000;fill-opacity:1;fill-rule:nonzero;stroke:none" transform="translate(6.506 11.915)"/>
        <path d="M0 0h-1.461c-.379.027-.433.081-.541.298-.109.216-.352.622-.515.811-.162.19-.27.19-.433.109-.162-.081-.351-.217-.433-.325-.054-.135 0-.244.271-.677.271-.46.758-1.244 1.001-1.731.271-.46.271-.623.352-1.543.081-.92.244-2.625.352-3.491.108-.865.162-.838.379-.838.216 0 .568 0 .757.054.19.054.244.135.271.839.027.703.081 2.029.135 2.706.054.676.109.676.244.676s.352 0 .433.054c.108.027.108.108 0 .623C.731-1.921.541-1.001.46-.514.352-.027.352 0 .325.027.352 0 .352 0 0 0" style="fill:#000;fill-opacity:1;fill-rule:nonzero;stroke:none" transform="translate(10.673 12.077)"/>
        <path d="M0 0a.893.893 0 1 0 0-1.786A.893.893 0 0 0 0 0" style="fill:#000;fill-opacity:1;fill-rule:nonzero;stroke:none" transform="translate(13.406 14.16)"/>
        <path d="M0 0c-.406.027-1.191 0-1.569-.027-.379-.054-.379-.108-.298-.622.081-.515.243-1.462.298-1.949.054-.487-.028-.514-.055-.568-.027-.054-.027-.108 0-.785.027-.676.109-2.002.163-2.679.054-.676.108-.676.297-.676.19 0 .487.027.677.054.189.027.216.135.271.839.054.703.108 2.002.162 2.679.054.676.108.649.243.676.136 0 .352.027.46.081.109.055.109.109.055.596-.055.487-.136 1.38-.19 1.867C.406-.054.379-.027 0 0" style="fill:#000;fill-opacity:1;fill-rule:nonzero;stroke:none" transform="translate(14.272 12.023)"/>
        <path d="M0 0c-.162.135-.244.108-.298.027-.054-.054-.135-.135 0-.325.109-.189.379-.541.569-.676.162-.135.243-.081.297-.027.054.054.136.108.027.297C.46-.487.189-.135 0 0" style="fill:#000;fill-opacity:1;fill-rule:nonzero;stroke:none" transform="translate(8.454 15.622)"/>
        <path d="M0 0c.162.135.244.108.298.027.054-.054.135-.135 0-.325-.109-.189-.379-.541-.569-.676-.162-.135-.243-.081-.297-.027-.054.054-.136.108-.027.297.135.217.433.569.595.704" style="fill:#000;fill-opacity:1;fill-rule:nonzero;stroke:none" transform="translate(11.593 15.568)"/>
        <path d="M0 0c-.027.216-.108.216-.189.216-.082 0-.19-.027-.217-.243C-.46-.244-.46-.676-.433-.893c.027-.216.108-.216.189-.216.082 0 .163 0 .217.216C0-.676.027-.244 0 0" style="fill:#000;fill-opacity:1;fill-rule:nonzero;stroke:none" transform="translate(10.24 15.947)"/>
        <path d="M0 0a.78.78 0 0 0-.271-.622.876.876 0 0 0-.622-.271h-12.448a.782.782 0 0 0-.622.271.88.88 0 0 0-.271.622v12.448c0 .243.082.46.271.622a.882.882 0 0 0 .622.271H-.893c.244 0 .46-.082.622-.271A.878.878 0 0 0 0 12.448Zm.054 13.395c-.27.27-.568.379-.947.379h-12.448c-.351 0-.676-.136-.947-.379-.27-.271-.379-.569-.379-.947V0c0-.352.136-.676.379-.947.271-.271.569-.379.947-.379H-.893c.352 0 .677.135.947.379.271.271.379.568.379.947v12.448c0 .351-.108.676-.379.947" style="fill:#000;fill-opacity:1;fill-rule:nonzero;stroke:none" transform="translate(17.113 3.773)"/>
        <path d="M0 0v14.991c0 .244.081.487.271.677.189.189.406.27.676.27h14.991a.942.942 0 0 0 .677-.27.9.9 0 0 0 .271-.677V0a.943.943 0 0 0-.271-.677.898.898 0 0 0-.677-.27H.947a.94.94 0 0 0-.676.27A.984.984 0 0 0 0 0m15.938-1.407c.379 0 .704.135 1.002.406.27.27.406.595.406 1.001v14.991c0 .379-.136.704-.406 1.002a1.35 1.35 0 0 1-1.002.405H.947c-.379 0-.703-.135-1.001-.405a1.347 1.347 0 0 1-.406-1.002V0c0-.379.135-.704.406-1.001.27-.271.595-.406 1.001-.406z" style="fill:#000;fill-opacity:1;fill-rule:nonzero;stroke:none" transform="translate(1.58 2.504)"/>
    </g>
</svg>
