<svg xmlns="http://www.w3.org/2000/svg" width="20" height="20" version="1.2">
    <g font-weight="400" style="fill:none;fill-rule:evenodd;stroke:#000;stroke-width:1;stroke-linecap:square;stroke-linejoin:bevel">
        <g style="font-style:normal;font-weight:400;font-size:19.84250069px;font-family:icomoon;fill:#fff;fill-opacity:1;stroke:none">
            <path d="M2.285-21.125h21.43a2.2 2.2 0 0 1 1.612.673A2.2 2.2 0 0 1 26-18.84V2.59a2.2 2.2 0 0 1-.673 1.612 2.2 2.2 0 0 1-1.612.673H2.285a2.2 2.2 0 0 1-1.612-.673A2.2 2.2 0 0 1 0 2.59v-21.43a2.2 2.2 0 0 1 .673-1.612 2.2 2.2 0 0 1 1.612-.673" font-size="19.843" style="vector-effect:none;fill-rule:nonzero" transform="matrix(.6923 0 0 .6923 1 15.625)"/>
        </g>
        <g style="font-style:normal;font-weight:400;font-size:17.00779915px;font-family:icomoon;fill:#000;fill-opacity:1;stroke:none">
            <path d="M20.979-18.014a1.3 1.3 0 0 1 .954.393 1.3 1.3 0 0 1 .393.955V2.291a1.3 1.3 0 0 1-.393.955 1.3 1.3 0 0 1-.955.393H2.021a1.3 1.3 0 0 1-.954-.393 1.3 1.3 0 0 1-.393-.955v-18.957a1.3 1.3 0 0 1 .393-.955 1.3 1.3 0 0 1 .954-.393h18.957m0-.674H2.021c-.554 0-1.029.199-1.426.596A1.946 1.946 0 0 0 0-16.666V2.291c0 .554.198 1.03.595 1.426.397.397.872.595 1.426.595h18.957c.555 0 1.03-.198 1.427-.595.397-.397.595-.872.595-1.426v-18.957c0-.554-.198-1.03-.595-1.426a1.946 1.946 0 0 0-1.426-.596m-7.84 5.93v.224c.225-.074.465-.13.72-.168.254-.037.516-.056.786-.056.389 0 .763.041 1.123.124.359.082.703.198 1.033.348h-.045c.135-.225.24-.46.314-.708.075-.247.113-.505.113-.775a2.94 2.94 0 0 0-.888-2.1 2.86 2.86 0 0 0-2.1-.864c-.599 0-1.138.157-1.617.471-.479.315-.838.726-1.078 1.236v.022c.434.21.797.513 1.09.91.291.397.475.835.55 1.314v.022m3.212 1.033a4.62 4.62 0 0 0-.809-.247 4.702 4.702 0 0 0-1.696-.022 4.122 4.122 0 0 0-.752.202h.022c-.03.18-.078.352-.146.517a1.898 1.898 0 0 1-.258.449 2.254 2.254 0 0 1-1.348.764l-.067-.674a2.06 2.06 0 0 0 .494-.191 1.23 1.23 0 0 0 .382-.326c.105-.135.183-.292.236-.472.052-.18.078-.366.078-.561v-.202c0-.06-.007-.12-.022-.18-.09-.719-.416-1.235-.977-1.55-.562-.314-1.007-.524-1.337-.629H9.86c-.823 0-1.527.292-2.111.876-.584.584-.876 1.28-.876 2.09 0 .359.06.696.18 1.01a3 3 0 0 0 .471.831 3.005 3.005 0 0 0 1.774 1.1h.023l3.28 2.022c.224.15.471.266.74.348.27.083.555.124.854.124.824 0 1.528-.292 2.112-.876a2.878 2.878 0 0 0 .876-2.112c0-.419-.086-.816-.259-1.19a3.385 3.385 0 0 0-.685-.988l.113-.113M5.817 2.381l7.817-7.592-6.828-3.84L5.817 2.38M7.84-5.728h3.144c.105 0 .188.034.247.102.06.067.09.146.09.235 0 .09-.03.169-.09.236a.314.314 0 0 1-.247.101H7.84a.323.323 0 0 1-.236-.1.323.323 0 0 1-.101-.237c0-.09.034-.164.101-.224a.344.344 0 0 1 .236-.09v-.023m0 2.022h2.47c.105 0 .188.034.248.101s.09.146.09.236c0 .105-.03.19-.09.258a.313.313 0 0 1-.247.101H7.839a.462.462 0 0 1-.236-.112.314.314 0 0 1-.101-.247c0-.075.034-.142.101-.202a.344.344 0 0 1 .236-.09v-.045" font-size="17.008" style="vector-effect:none;fill-rule:nonzero" transform="matrix(.6923 0 0 .6923 2.038 14.976)"/>
        </g>
        <g style="font-style:normal;font-weight:400;font-size:19.84250069px;font-family:icomoon;fill:#000;fill-opacity:1;stroke:none">
            <path d="M23.943-20.44c.373 0 .694.136.965.407.271.27.406.592.406.965V2.818c0 .373-.135.694-.406.965-.27.271-.592.406-.965.406H2.057c-.373 0-.694-.135-.965-.406a1.318 1.318 0 0 1-.406-.965v-21.886c0-.373.135-.694.406-.965.27-.271.592-.407.965-.407h21.886m0-.685H2.057c-.576 0-1.063.199-1.46.597A1.986 1.986 0 0 0 0-19.068V2.818c0 .576.199 1.063.597 1.46.397.398.884.597 1.46.597h21.886c.576 0 1.063-.199 1.46-.597.398-.397.597-.884.597-1.46v-21.886c0-.576-.199-1.063-.597-1.46a1.986 1.986 0 0 0-1.46-.597" font-size="19.843" style="vector-effect:none;fill-rule:nonzero" transform="matrix(.6923 0 0 .6923 1 15.625)"/>
        </g>
    </g>
</svg>
