<svg xmlns="http://www.w3.org/2000/svg" width="86" height="41"><path fill="#111" stroke="#101111" stroke-linecap="round" stroke-linejoin="round" stroke-width=".05" d="M56 33h1.713a.287.287 0 0 0 .287-.287v-.42a.294.294 0 0 0-.294-.293h-.699A1.007 1.007 0 0 1 56 30.993v-.991A1.002 1.002 0 0 1 57.002 29H59v1h-1.744a.256.256 0 0 0-.256.256v.497a.247.247 0 0 0 .247.247H58a1 1 0 0 1 1 1v1.004a.996.996 0 0 1-.996.996H56Z"/><path fill="#101111" stroke="#101111" stroke-linecap="round" stroke-linejoin="round" stroke-width=".05" d="M59 23v5h1v-3l1 2h1l1-2v3h1v-5h-1l-1.5 3-1.5-3Z"/><path fill="#008ace" d="M19.371 2.14C10.367 2.2 2.588 8.46.59 17.257c-2 8.797 2.308 17.815 10.4 21.773l8.462-17.408V2.141Z"/><path fill="#2f3979" d="M41 19.48v-.06A19.392 19.43 0 0 0 21.618 0v19.48z"/><path fill="#325b96" d="M10.964 39.08a19.392 19.43 0 0 0 27.79-17.46H19.451Z"/><path fill="#fff" d="M10.505 17.439a2.716 2.721 0 0 1 1.997.75.15.15 0 0 1 0 .23l-.49.51a.13.13 0 0 1-.2 0 1.907 1.91 0 0 0-1.237-.47 1.868 1.871 0 0 0 0 3.742 1.937 1.94 0 0 0 1.228-.46.15.15 0 0 1 .2 0l.499.52a.15.15 0 0 1 0 .22 2.756 2.761 0 0 1-1.997.78 2.896 2.901 0 1 1 0-5.802zm17.194-8.154a.15.15 0 0 1 .15-.15h2.297a1.737 1.74 0 0 1 1.787 1.73 1.777 1.78 0 0 1-1.188 1.631l1.098 2.001a.15.15 0 0 1-.14.23h-.848a.14.14 0 0 1-.13-.07l-1.068-2.13h-.89v2.05a.16.16 0 0 1-.149.15h-.739a.15.15 0 0 1-.15-.15zm2.367 2.42a.819.82 0 0 0 .799-.82.799.8 0 0 0-.799-.78h-1.308v1.6zm-4.953 15.918a2.996 3.001 0 0 1 1.997.75.16.16 0 0 1 0 .231l-.499.52a.14.14 0 0 1-.21 0 1.837 1.84 0 1 0-1.208 3.252 2.526 2.531 0 0 0 .999-.2v-.69h-.64a.15.15 0 0 1-.15-.14v-.641a.15.15 0 0 1 .15-.15H27.1a.15.15 0 0 1 .14.15v2.061a.16.16 0 0 1-.06.13 4.064 4.072 0 0 1-1.997.52 2.896 2.901 0 0 1 0-5.793z"/><path fill="#111" stroke="#101111" stroke-linecap="round" stroke-linejoin="round" stroke-width=".05" d="M51.001 23.73C49.44 22.169 47 23.277 47 25.5s2.439 3.332 4.001 1.77l-.712-.713c-.907.907-2.19.305-2.19-1.057 0-1.362 1.283-1.964 2.19-1.057z" color="#000"/><path fill="#111" stroke="#101111" stroke-linecap="round" stroke-linejoin="round" stroke-width=".05" d="M52 23v5h1v-2h1l1 2h1l-1-2c1.49-.883 1.292-2.738-.5-3zm1 1h1.441c.734 0 .732 1.11 0 1.11H53Z"/><path fill="#111" stroke="#101111" stroke-linecap="round" stroke-linejoin="round" stroke-width=".05" d="M57 23v5h1v-5z" color="#000"/><path fill="#101111" stroke="#101111" stroke-linecap="round" stroke-linejoin="round" stroke-width=".05" d="M65 28v-5h3v1h-2v1h2v1h-2v1h2v1z"/><path fill="#111" stroke="#101111" stroke-linecap="round" stroke-linejoin="round" stroke-width=".05" d="M71.2 22.977 73.056 28h-.966l-.375-1h-1.43l-.375 1h-.966l1.856-5.023Zm.265 3.323L71 24.993l-.465 1.307ZM47 29v5h1v-2h1l1 2h1l-1-2c1.49-.883 1.292-2.738-.5-3zm1 1h1.441c.734 0 .732 1 0 1H48Z"/><path fill="#101111" stroke="#101111" stroke-linecap="round" stroke-linejoin="round" stroke-width=".05" d="M52 34v-5h3v1h-2v1h2v1h-2v1h2v1zm8 0v-5h3v1h-2v1h2v1h-2v1h2v1z"/><path fill="#111" stroke="#101111" stroke-linecap="round" stroke-linejoin="round" stroke-width=".05" d="M66.2 28.977 68.056 34h-.966l-.375-1h-1.43l-.375 1h-.966l1.856-5.023Zm.265 3.323L66 30.993l-.465 1.307ZM47 29v5h1v-2h1l1 2h1l-1-2c1.49-.883 1.292-2.738-.5-3zm1 1h1.441c.734 0 .732 1 0 1H48Zm21-1v5h1v-2h1l1 2h1l-1-2c1.49-.883 1.292-2.738-.5-3zm1 1h1.441c.734 0 .732 1.11 0 1.11H70Z"/><path fill="#111" stroke="#101111" stroke-linecap="round" stroke-linejoin="round" stroke-width=".05" d="M78.001 29.73C76.44 28.169 74 29.277 74 31.5s2.439 3.332 4.001 1.77l-.712-.713c-.907.907-2.189.305-2.189-1.057 0-1.362 1.282-1.964 2.189-1.057z" color="#000"/><path fill="#111" stroke="#101111" stroke-linecap="round" stroke-linejoin="round" stroke-width=".05" d="M52 35v5h1v-2h1l1 2h1l-1-2c1.49-.883 1.292-2.738-.5-3zm1 1h1.441c.734 0 .732 1 0 1H53Zm6.503-1A2.51 2.51 0 0 0 57 37.501a2.508 2.508 0 0 0 2.503 2.5 2.506 2.506 0 0 0 2.5-2.5 2.507 2.507 0 0 0-2.5-2.5zm0 .973c.85 0 1.529.678 1.529 1.528s-.68 1.529-1.53 1.529a1.522 1.522 0 0 1-1.529-1.529c0-.849.68-1.528 1.53-1.528z"/><path fill="#111" stroke="#101111" stroke-linecap="round" stroke-linejoin="round" stroke-width=".05" d="M59.503 35A2.51 2.51 0 0 0 57 37.501a2.508 2.508 0 0 0 2.503 2.5 2.506 2.506 0 0 0 2.5-2.5 2.507 2.507 0 0 0-2.5-2.5zm0 .973c.85 0 1.529.678 1.529 1.528s-.68 1.529-1.53 1.529a1.522 1.522 0 0 1-1.529-1.529c0-.849.68-1.528 1.53-1.528zM66 38c0 .69-.294 1-1 1s-1-.308-1-1v-3h-1v3c.005 1.53.497 2 2 2 1.503 0 2-.458 2-2v-3h-1zm2-3v5h1v-2h.5c1.986-.331 2.014-2.655 0-3zm1 1h.441c.735 0 .732 1 0 1h-.44zm-19.496-1A2.512 2.512 0 0 0 47 37.502a2.509 2.509 0 0 0 2.504 2.5A2.49 2.49 0 0 0 51 39.5V37h-2v1h1v.96c-.154.045-.318.07-.498.07a1.52 1.52 0 0 1-1.53-1.528c0-.849.682-1.53 1.532-1.53.35 0 .67.116.926.31L51 35.5a2.461 2.461 0 0 0-1.496-.498z"/><path fill="#101111" stroke="#101111" stroke-linecap="round" stroke-linejoin="round" stroke-width=".05" d="M82 32h-2v2h-1v-5h1v2h2v-2h1v5h-1zm-7-7.2 2 3.2h1v-5h-1v3.2L75 23h-1v5h1z"/></svg>