<svg xmlns="http://www.w3.org/2000/svg" width="20" height="20" version="1.2">
    <g font-weight="400" style="fill:none;fill-rule:evenodd;stroke:#000;stroke-width:1;stroke-linecap:square;stroke-linejoin:bevel">
        <g style="font-style:normal;font-weight:400;font-size:17.00779915px;font-family:icomoon;fill:#fff;fill-opacity:1;stroke:none">
            <path d="M2.021-18.688h18.957c.555 0 1.03.199 1.427.596.397.396.595.872.595 1.426V2.291c0 .554-.198 1.03-.595 1.426a1.946 1.946 0 0 1-1.427.595H2.021c-.554 0-1.029-.198-1.426-.595A1.946 1.946 0 0 1 0 2.291v-18.957c0-.554.198-1.03.595-1.426a1.946 1.946 0 0 1 1.426-.596" font-size="17.008" style="vector-effect:none;fill-rule:nonzero" transform="matrix(.65217 0 0 .65217 2.5 14.687)"/>
        </g>
        <g style="font-style:normal;font-weight:400;font-size:17.00779915px;font-family:icomoon;fill:#000;fill-opacity:1;stroke:none">
            <path d="M20.979-18.014a1.3 1.3 0 0 1 .954.393 1.3 1.3 0 0 1 .393.955V2.291a1.3 1.3 0 0 1-.393.955 1.3 1.3 0 0 1-.955.393H2.021a1.3 1.3 0 0 1-.954-.393 1.3 1.3 0 0 1-.393-.955v-18.957a1.3 1.3 0 0 1 .393-.955 1.3 1.3 0 0 1 .954-.393h18.957m0-.674H2.021c-.554 0-1.029.199-1.426.596A1.946 1.946 0 0 0 0-16.666V2.291c0 .554.198 1.03.595 1.426.397.397.872.595 1.426.595h18.957c.555 0 1.03-.198 1.427-.595.397-.397.595-.872.595-1.426v-18.957c0-.554-.198-1.03-.595-1.426a1.946 1.946 0 0 0-1.426-.596M11.5-16.328c-1.258 0-2.44.24-3.549.719a9.28 9.28 0 0 0-2.909 1.965 9.279 9.279 0 0 0-1.965 2.909 8.844 8.844 0 0 0-.719 3.549c0 1.257.24 2.44.72 3.548A9.28 9.28 0 0 0 5.041-.73a9.28 9.28 0 0 0 2.91 1.965 8.844 8.844 0 0 0 3.548.72c1.258 0 2.44-.24 3.549-.72A9.279 9.279 0 0 0 17.958-.73a9.28 9.28 0 0 0 1.965-2.909 8.846 8.846 0 0 0 .719-3.549c0-1.257-.24-2.44-.72-3.548a9.279 9.279 0 0 0-1.965-2.909 9.279 9.279 0 0 0-2.908-1.965 8.845 8.845 0 0 0-3.549-.72m0 16.24A6.905 6.905 0 0 1 8.737-.65 6.906 6.906 0 0 1 6.47-2.156a6.906 6.906 0 0 1-1.505-2.269 6.905 6.905 0 0 1-.562-2.763c0-.973.188-1.894.562-2.762a6.906 6.906 0 0 1 1.505-2.269 6.906 6.906 0 0 1 2.268-1.505 6.904 6.904 0 0 1 2.763-.561c.973 0 1.894.187 2.763.561.868.36 1.624.861 2.268 1.505a6.906 6.906 0 0 1 1.505 2.269c.374.868.562 1.79.562 2.762 0 .974-.187 1.895-.562 2.763a7.167 7.167 0 0 1-1.516 2.258 7.168 7.168 0 0 1-2.257 1.516A6.905 6.905 0 0 1 11.5-.09m1.685-10.377a.283.283 0 0 0-.113-.067.507.507 0 0 0-.337.011.436.436 0 0 0-.157.101l-2.65 2.359 1.505-4.74c0-.015.003-.033.01-.056a.185.185 0 0 0 .012-.056.46.46 0 0 0-.157-.348.514.514 0 0 0-.36-.146.512.512 0 0 0-.471.292l-2.09 6.491a.307.307 0 0 1-.01.067.471.471 0 0 0 .056.337.618.618 0 0 0 .157.18l.135.045a.509.509 0 0 0 .337-.011.77.77 0 0 0 .157-.079l2.785-2.448-1.213 4.447-.966-.247.742 2.785.651-.629 1.393-1.392-.854-.225 1.662-6.087a.18.18 0 0 0 .023-.078v-.079a.471.471 0 0 0-.068-.247.517.517 0 0 0-.18-.18" font-size="17.008" style="vector-effect:none;fill-rule:nonzero" transform="matrix(.65217 0 0 .65217 2.5 14.687)"/>
        </g>
        <g style="font-style:normal;font-weight:400;font-size:15.8739996px;font-family:icomoon;fill:red;fill-opacity:1;stroke:none">
            <path d="M.656 3.938A.613.613 0 0 1 .4 3.885a1.02 1.02 0 0 1-.215-.133 1.02 1.02 0 0 1-.134-.215A.613.613 0 0 1 0 3.28c0-.095.017-.18.051-.256a1.02 1.02 0 0 1 .134-.215l19.687-19.688c.068-.055.14-.1.215-.133a.613.613 0 0 1 .257-.051.63.63 0 0 1 .461.194.63.63 0 0 1 .195.462.613.613 0 0 1-.051.256 1.014 1.014 0 0 1-.134.215L1.128 3.753c-.068.055-.14.1-.215.133a.613.613 0 0 1-.257.051" font-size="15.874" style="vector-effect:none;fill-rule:nonzero" transform="matrix(.65217 0 0 .65217 3.152 14.28)"/>
        </g>
    </g>
</svg>
