<svg xmlns="http://www.w3.org/2000/svg" width="20" height="20" version="1.2">
    <g font-weight="400" style="fill:none;fill-rule:evenodd;stroke:#000;stroke-width:1;stroke-linecap:square;stroke-linejoin:bevel">
        <g style="font-style:normal;font-weight:400;font-size:17.00779915px;font-family:icomoon;fill:#fff;fill-opacity:1;stroke:none">
            <path d="M2.021-18.688h18.957c.555 0 1.03.199 1.427.596.397.396.595.872.595 1.426V2.291c0 .554-.198 1.03-.595 1.426a1.946 1.946 0 0 1-1.427.595H2.021c-.554 0-1.029-.198-1.426-.595A1.946 1.946 0 0 1 0 2.291v-18.957c0-.554.198-1.03.595-1.426a1.946 1.946 0 0 1 1.426-.596" font-size="17.008" style="vector-effect:none;fill-rule:nonzero" transform="matrix(.65217 0 0 .65217 2.5 14.687)"/>
        </g>
        <g style="font-style:normal;font-weight:400;font-size:17.00779915px;font-family:icomoon;fill:#000;fill-opacity:1;stroke:none">
            <path d="M20.979-18.014a1.3 1.3 0 0 1 .954.393 1.3 1.3 0 0 1 .393.955V2.291a1.3 1.3 0 0 1-.393.955 1.3 1.3 0 0 1-.955.393H2.021a1.3 1.3 0 0 1-.954-.393 1.3 1.3 0 0 1-.393-.955v-18.957a1.3 1.3 0 0 1 .393-.955 1.3 1.3 0 0 1 .954-.393h18.957m0-.674H2.021c-.554 0-1.029.199-1.426.596A1.946 1.946 0 0 0 0-16.666V2.291c0 .554.198 1.03.595 1.426.397.397.872.595 1.426.595h18.957c.555 0 1.03-.198 1.427-.595.397-.397.595-.872.595-1.426v-18.957c0-.554-.198-1.03-.595-1.426a1.946 1.946 0 0 0-1.426-.596M11.5-14.285c.973 0 1.894.187 2.763.561.868.36 1.624.861 2.268 1.505a6.906 6.906 0 0 1 1.505 2.269c.374.868.562 1.79.562 2.763 0 .973-.187 1.894-.562 2.762a6.906 6.906 0 0 1-1.505 2.269 6.906 6.906 0 0 1-2.268 1.505A6.905 6.905 0 0 1 11.5-.09 6.905 6.905 0 0 1 8.737-.65 6.906 6.906 0 0 1 6.47-2.156a6.906 6.906 0 0 1-1.505-2.269 6.905 6.905 0 0 1-.562-2.763c0-.973.188-1.894.562-2.762.374-.869.88-1.621 1.516-2.258a7.167 7.167 0 0 1 2.257-1.516 6.904 6.904 0 0 1 2.763-.561m0-2.044c-1.258 0-2.44.24-3.549.719a9.28 9.28 0 0 0-2.909 1.965 9.279 9.279 0 0 0-1.965 2.909 8.844 8.844 0 0 0-.719 3.549c0 1.257.24 2.44.72 3.548A9.28 9.28 0 0 0 5.041-.73a9.28 9.28 0 0 0 2.91 1.965 8.844 8.844 0 0 0 3.548.72c1.258 0 2.44-.24 3.549-.72A9.279 9.279 0 0 0 17.958-.73a9.28 9.28 0 0 0 1.965-2.909 8.846 8.846 0 0 0 .719-3.549c0-1.257-.24-2.44-.72-3.548a9.279 9.279 0 0 0-1.965-2.909 9.279 9.279 0 0 0-2.908-1.965 8.845 8.845 0 0 0-3.549-.72m-2.695 4.74h5.39v8.805h-5.39v-8.805" font-size="17.008" style="vector-effect:none;fill-rule:nonzero" transform="matrix(.65217 0 0 .65217 2.5 14.687)"/>
        </g>
    </g>
</svg>
