<svg xmlns="http://www.w3.org/2000/svg" width="20" height="20" version="1.2">
    <g font-weight="400" style="fill:none;fill-rule:evenodd;stroke:#000;stroke-width:1;stroke-linecap:square;stroke-linejoin:bevel">
        <g style="font-style:normal;font-weight:400;font-size:19.84250069px;font-family:icomoon;fill:#ff0;fill-opacity:1;stroke:none">
            <path d="M2.285-21.125h21.43a2.2 2.2 0 0 1 1.612.673A2.2 2.2 0 0 1 26-18.84V2.59a2.2 2.2 0 0 1-.673 1.612 2.2 2.2 0 0 1-1.612.673H2.285a2.2 2.2 0 0 1-1.612-.673A2.2 2.2 0 0 1 0 2.59v-21.43a2.2 2.2 0 0 1 .673-1.612 2.2 2.2 0 0 1 1.612-.673" font-size="19.843" style="vector-effect:none;fill-rule:nonzero" transform="matrix(.6923 0 0 .6923 1 15.625)"/>
        </g>
        <g style="font-style:normal;font-weight:400;font-size:17.00779915px;font-family:icomoon;fill:#000;fill-opacity:1;stroke:none">
            <path d="M20.979-18.014a1.3 1.3 0 0 1 .954.393 1.3 1.3 0 0 1 .393.955V2.291a1.3 1.3 0 0 1-.393.955 1.3 1.3 0 0 1-.955.393H2.021a1.3 1.3 0 0 1-.954-.393 1.3 1.3 0 0 1-.393-.955v-18.957a1.3 1.3 0 0 1 .393-.955 1.3 1.3 0 0 1 .954-.393h18.957m0-.674H2.021c-.554 0-1.029.199-1.426.596A1.946 1.946 0 0 0 0-16.666V2.291c0 .554.198 1.03.595 1.426.397.397.872.595 1.426.595h18.957c.555 0 1.03-.198 1.427-.595.397-.397.595-.872.595-1.426v-18.957c0-.554-.198-1.03-.595-1.426a1.946 1.946 0 0 0-1.426-.596M18.373-5.75h-.045c-.21 0-.412.041-.606.124-.195.082-.36.198-.495.348h-.022c-.135.15-.247.322-.337.516-.09.195-.135.405-.135.63v.067c0 .224.045.43.135.617.09.187.202.356.337.506a1.675 1.675 0 0 0 1.123.427H18.395c.225 0 .431-.042.618-.124.187-.083.348-.184.483-.303.15-.15.266-.319.348-.506.083-.187.124-.393.124-.617v-.09a1.612 1.612 0 0 0-.472-1.123 1.4 1.4 0 0 0-.483-.348 1.517 1.517 0 0 0-.618-.124h-.022m-12.713 0c-.45 0-.835.157-1.157.472a1.541 1.541 0 0 0-.482 1.145v.068c0 .224.04.43.123.617.082.187.198.356.348.506a1.675 1.675 0 0 0 1.123.427H5.683c.21 0 .408-.042.595-.124.187-.083.348-.184.483-.303.135-.15.243-.319.325-.506.083-.187.124-.385.124-.595V-4.155c0-.21-.041-.412-.124-.607a1.833 1.833 0 0 0-.325-.516 1.4 1.4 0 0 0-.483-.348 1.462 1.462 0 0 0-.595-.124H5.66m-1.596-5.683h-.067c-.314 0-.606.06-.876.18a2.37 2.37 0 0 0-1.213 1.224c-.12.277-.18.573-.18.887v4.852h1.797c0-.314.06-.61.18-.887s.285-.513.494-.708c.195-.21.423-.378.685-.505.262-.127.55-.191.865-.191h.067c.3 0 .58.064.843.19.262.128.49.29.685.484v.022c.194.195.352.427.471.697.12.269.18.554.18.853v.045h8.108v-.023a2.132 2.132 0 0 1 .674-1.572c.195-.21.427-.378.697-.505.27-.127.561-.191.876-.191h.044c.315 0 .607.064.876.19.27.128.502.29.697.484v.022c.21.195.374.43.494.708.12.277.18.565.18.864v.045l.673-.067v-3.796l-1.707-3.302H4.065m.315 2.696c0 .21-.041.363-.124.46-.082.097-.206.146-.37.146h-1.1a.783.783 0 0 1-.428-.1c-.104-.068-.157-.177-.157-.327v-.179l.27-1.303c.12-.24.288-.434.505-.584.217-.15.453-.24.708-.27h.022c.225 0 .393.057.505.169.113.112.169.28.169.505v1.483m4.02 0v.09a.565.565 0 0 1-.168.415.565.565 0 0 1-.416.169H5.413a.565.565 0 0 1-.415-.169.565.565 0 0 1-.169-.415V-10.152c0-.24.056-.412.169-.517.112-.105.28-.157.505-.157h2.246c.225 0 .393.056.505.168.113.113.169.281.169.506L8.4-8.737m4.02.045c0 .21-.052.374-.156.494-.105.12-.262.18-.472.18H9.523c-.224 0-.393-.057-.505-.169-.112-.112-.168-.28-.168-.505V-10.265c0-.164.06-.307.18-.426.12-.12.261-.18.426-.18h2.359c.21 0 .366.06.471.18.105.12.157.284.157.494l-.022 1.505m4.178 0c0 .21-.053.374-.158.494-.104.12-.27.18-.494.18H13.566a.583.583 0 0 1-.426-.18.583.583 0 0 1-.18-.427v-.09.023-1.505c0-.225.056-.393.168-.506.113-.112.281-.168.506-.168h2.336c.224 0 .389.06.494.18.105.12.157.284.157.494L16.6-8.692m3.706-.472c.03.075.06.157.09.247s.045.18.045.27v.18c0 .314-.173.47-.517.47h-2.067c-.224 0-.396-.055-.516-.168-.12-.112-.18-.28-.18-.505V-10.242c0-.165.06-.307.18-.427s.262-.18.427-.18h.089l1.258-.045c.09 0 .199.075.326.225.127.15.288.374.483.674.09.18.165.34.225.483.06.142.112.258.157.348" font-size="17.008" style="vector-effect:none;fill-rule:nonzero" transform="matrix(.6923 0 0 .6923 2.038 14.976)"/>
        </g>
        <g style="font-style:normal;font-weight:400;font-size:19.84250069px;font-family:icomoon;fill:#000;fill-opacity:1;stroke:none">
            <path d="M23.943-20.44c.373 0 .694.136.965.407.271.27.406.592.406.965V2.818c0 .373-.135.694-.406.965-.27.271-.592.406-.965.406H2.057c-.373 0-.694-.135-.965-.406a1.318 1.318 0 0 1-.406-.965v-21.886c0-.373.135-.694.406-.965.27-.271.592-.407.965-.407h21.886m0-.685H2.057c-.576 0-1.063.199-1.46.597A1.986 1.986 0 0 0 0-19.068V2.818c0 .576.199 1.063.597 1.46.397.398.884.597 1.46.597h21.886c.576 0 1.063-.199 1.46-.597.398-.397.597-.884.597-1.46v-21.886c0-.576-.199-1.063-.597-1.46a1.986 1.986 0 0 0-1.46-.597" font-size="19.843" style="vector-effect:none;fill-rule:nonzero" transform="matrix(.6923 0 0 .6923 1 15.625)"/>
        </g>
    </g>
</svg>
