<svg xmlns="http://www.w3.org/2000/svg" width="20" height="20" version="1.2">
    <g font-weight="400" style="fill:none;fill-rule:evenodd;stroke:#000;stroke-width:1;stroke-linecap:square;stroke-linejoin:bevel">
        <g style="font-style:normal;font-weight:400;font-size:19.84250069px;font-family:icomoon;fill:#fff;fill-opacity:1;stroke:none">
            <path d="M2.285-21.125h21.43a2.2 2.2 0 0 1 1.612.673A2.2 2.2 0 0 1 26-18.84V2.59a2.2 2.2 0 0 1-.673 1.612 2.2 2.2 0 0 1-1.612.673H2.285a2.2 2.2 0 0 1-1.612-.673A2.2 2.2 0 0 1 0 2.59v-21.43a2.2 2.2 0 0 1 .673-1.612 2.2 2.2 0 0 1 1.612-.673" font-size="19.843" style="vector-effect:none;fill-rule:nonzero" transform="matrix(.6923 0 0 .6923 1 15.625)"/>
        </g>
        <g style="font-style:normal;font-weight:400;font-size:17.00779915px;font-family:icomoon;fill:#000;fill-opacity:1;stroke:none">
            <path d="M20.979-18.014a1.3 1.3 0 0 1 .954.393 1.3 1.3 0 0 1 .393.955V2.291a1.3 1.3 0 0 1-.393.955 1.3 1.3 0 0 1-.955.393H2.021a1.3 1.3 0 0 1-.954-.393 1.3 1.3 0 0 1-.393-.955v-18.957a1.3 1.3 0 0 1 .393-.955 1.3 1.3 0 0 1 .954-.393h18.957m0-.674H2.021c-.554 0-1.029.199-1.426.596A1.946 1.946 0 0 0 0-16.666V2.291c0 .554.198 1.03.595 1.426.397.397.872.595 1.426.595h18.957c.555 0 1.03-.198 1.427-.595.397-.397.595-.872.595-1.426v-18.957c0-.554-.198-1.03-.595-1.426a1.946 1.946 0 0 0-1.426-.596M5.255-15.745h12.488c.988 0 1.79 3.04 2.403 9.119v6.244H18.71V1.37h-2.246V-.382H6.536V1.37H4.133V-.382h-1.28v-6.401c.658-5.945 1.46-8.932 2.403-8.962m1.931.314v1.595h8.49v-1.595h-8.49m-2.56 2.246-.809 5.593h7.053v-5.593H4.627m7.345 0v5.593h7.21l-.786-5.593h-6.424M4.29-2.134v.472h13.926v-.472H4.29m.382-2.65h-.023a.716.716 0 0 0-.303.067.89.89 0 0 0-.258.18 1.27 1.27 0 0 0-.18.28.768.768 0 0 0-.067.326c0 .12.022.229.067.326a.89.89 0 0 0 .18.258c.075.09.16.158.258.202a.793.793 0 0 0 .64 0 .55.55 0 0 0 .247-.202.89.89 0 0 0 .18-.258.846.846 0 0 0-.18-.932.638.638 0 0 0-.235-.18.768.768 0 0 0-.326-.067m1.864-.045a.768.768 0 0 0-.326.067.737.737 0 0 0-.258.202.89.89 0 0 0-.18.259.768.768 0 0 0-.067.325c0 .12.023.229.067.326a.89.89 0 0 0 .438.438.768.768 0 0 0 .326.067c.12 0 .228-.022.326-.067a.89.89 0 0 0 .258-.18.735.735 0 0 0 .169-.258.9.9 0 0 0 .056-.326.9.9 0 0 0-.056-.325.735.735 0 0 0-.169-.259.716.716 0 0 0-.562-.27h-.022m9.411.09h-.022a.792.792 0 0 0-.315.068.622.622 0 0 0-.247.18.888.888 0 0 0-.18.258.768.768 0 0 0-.067.326v.022c0 .12.023.229.068.326a.888.888 0 0 0 .438.438.768.768 0 0 0 .629 0 .849.849 0 0 0 .258-1.37.89.89 0 0 0-.259-.18.716.716 0 0 0-.303-.067m1.864-.045h-.022a.716.716 0 0 0-.303.067.89.89 0 0 0-.438.438.767.767 0 0 0-.067.326v.022c0 .12.022.229.067.326a.89.89 0 0 0 .438.438.716.716 0 0 0 .303.067h.022c.12 0 .229-.022.326-.067a.89.89 0 0 0 .258-.18c.06-.075.113-.16.158-.258a.767.767 0 0 0 .067-.326v-.022a.767.767 0 0 0-.067-.326 1.248 1.248 0 0 0-.158-.258.89.89 0 0 0-.258-.18.768.768 0 0 0-.326-.067" font-size="17.008" style="vector-effect:none;fill-rule:nonzero" transform="matrix(.6923 0 0 .6923 2.038 14.976)"/>
        </g>
        <g style="font-style:normal;font-weight:400;font-size:19.84250069px;font-family:icomoon;fill:#000;fill-opacity:1;stroke:none">
            <path d="M23.943-20.44c.373 0 .694.136.965.407.271.27.406.592.406.965V2.818c0 .373-.135.694-.406.965-.27.271-.592.406-.965.406H2.057c-.373 0-.694-.135-.965-.406a1.318 1.318 0 0 1-.406-.965v-21.886c0-.373.135-.694.406-.965.27-.271.592-.407.965-.407h21.886m0-.685H2.057c-.576 0-1.063.199-1.46.597A1.986 1.986 0 0 0 0-19.068V2.818c0 .576.199 1.063.597 1.46.397.398.884.597 1.46.597h21.886c.576 0 1.063-.199 1.46-.597.398-.397.597-.884.597-1.46v-21.886c0-.576-.199-1.063-.597-1.46a1.986 1.986 0 0 0-1.46-.597" font-size="19.843" style="vector-effect:none;fill-rule:nonzero" transform="matrix(.6923 0 0 .6923 1 15.625)"/>
        </g>
    </g>
</svg>
