<svg xmlns="http://www.w3.org/2000/svg" width="20" height="20" version="1.2">
    <g font-weight="400" style="fill:none;fill-rule:evenodd;stroke:#000;stroke-width:1;stroke-linecap:square;stroke-linejoin:bevel">
        <g style="font-style:normal;font-weight:400;font-size:22.67709923px;font-family:icomoon;fill:#fff;fill-opacity:1;stroke:none">
            <path d="M2.637-24.375h24.726c.723 0 1.343.259 1.86.776.518.518.777 1.138.777 1.86V2.989c0 .723-.259 1.343-.776 1.86a2.538 2.538 0 0 1-1.86.777H2.636a2.538 2.538 0 0 1-1.86-.776A2.538 2.538 0 0 1 0 2.989v-24.727c0-.723.259-1.343.776-1.86a2.538 2.538 0 0 1 1.86-.777" font-size="22.677" style="vector-effect:none;fill-rule:nonzero" transform="matrix(.66667 0 0 .66667 0 16.25)"/>
        </g>
        <g style="font-style:normal;font-weight:400;font-size:17.00779915px;font-family:icomoon;fill:#000;fill-opacity:1;stroke:none">
            <path d="M20.979-18.014a1.3 1.3 0 0 1 .954.393 1.3 1.3 0 0 1 .393.955V2.291a1.3 1.3 0 0 1-.393.955 1.3 1.3 0 0 1-.955.393H2.021a1.3 1.3 0 0 1-.954-.393 1.3 1.3 0 0 1-.393-.955v-18.957a1.3 1.3 0 0 1 .393-.955 1.3 1.3 0 0 1 .954-.393h18.957m0-.674H2.021c-.554 0-1.029.199-1.426.596A1.946 1.946 0 0 0 0-16.666V2.291c0 .554.198 1.03.595 1.426.397.397.872.595 1.426.595h18.957c.555 0 1.03-.198 1.427-.595.397-.397.595-.872.595-1.426v-18.957c0-.554-.198-1.03-.595-1.426a1.946 1.946 0 0 0-1.426-.596M5.255-15.745h12.488c.988 0 1.79 3.04 2.403 9.119v6.244H18.71V1.37h-2.246V-.382H6.536V1.37H4.133V-.382h-1.28v-6.401c.658-5.945 1.46-8.932 2.403-8.962m1.931.314v1.595h8.49v-1.595h-8.49m-2.56 2.246-.809 5.593h7.053v-5.593H4.627m7.345 0v5.593h7.21l-.786-5.593h-6.424M4.29-2.134v.472h13.926v-.472H4.29m.382-2.65h-.023a.716.716 0 0 0-.303.067.89.89 0 0 0-.258.18 1.27 1.27 0 0 0-.18.28.768.768 0 0 0-.067.326c0 .12.022.229.067.326a.89.89 0 0 0 .18.258c.075.09.16.158.258.202a.793.793 0 0 0 .64 0 .55.55 0 0 0 .247-.202.89.89 0 0 0 .18-.258.846.846 0 0 0-.18-.932.638.638 0 0 0-.235-.18.768.768 0 0 0-.326-.067m1.864-.045a.768.768 0 0 0-.326.067.737.737 0 0 0-.258.202.89.89 0 0 0-.18.259.768.768 0 0 0-.067.325c0 .12.023.229.067.326a.89.89 0 0 0 .438.438.768.768 0 0 0 .326.067c.12 0 .228-.022.326-.067a.89.89 0 0 0 .258-.18.735.735 0 0 0 .169-.258.9.9 0 0 0 .056-.326.9.9 0 0 0-.056-.325.735.735 0 0 0-.169-.259.716.716 0 0 0-.562-.27h-.022m9.411.09h-.022a.792.792 0 0 0-.315.068.622.622 0 0 0-.247.18.888.888 0 0 0-.18.258.768.768 0 0 0-.067.326v.022c0 .12.023.229.068.326a.888.888 0 0 0 .438.438.768.768 0 0 0 .629 0 .849.849 0 0 0 .258-1.37.89.89 0 0 0-.259-.18.716.716 0 0 0-.303-.067m1.864-.045h-.022a.716.716 0 0 0-.303.067.89.89 0 0 0-.438.438.767.767 0 0 0-.067.326v.022c0 .12.022.229.067.326a.89.89 0 0 0 .438.438.716.716 0 0 0 .303.067h.022c.12 0 .229-.022.326-.067a.89.89 0 0 0 .258-.18c.06-.075.113-.16.158-.258a.767.767 0 0 0 .067-.326v-.022a.767.767 0 0 0-.067-.326 1.248 1.248 0 0 0-.158-.258.89.89 0 0 0-.258-.18.768.768 0 0 0-.326-.067" font-size="17.008" style="vector-effect:none;fill-rule:nonzero" transform="matrix(.66667 0 0 .66667 2.333 14.792)"/>
        </g>
        <g style="font-style:normal;font-weight:400;font-size:22.67709923px;font-family:icomoon;fill:#000;fill-opacity:1;stroke:none">
            <path d="M26.426-22.236c.39 0 .727.141 1.01.425.284.283.425.62.425 1.01V2.051c0 .39-.141.727-.425 1.01a1.38 1.38 0 0 1-1.01.425H3.574a1.38 1.38 0 0 1-1.01-.424 1.38 1.38 0 0 1-.425-1.011v-22.852c0-.39.141-.727.424-1.01a1.38 1.38 0 0 1 1.011-.425h22.852m0-.703H3.574c-.586 0-1.089.21-1.509.63-.42.42-.63.922-.63 1.508V2.051c0 .586.21 1.089.63 1.509.42.42.923.63 1.51.63h22.85c.587 0 1.09-.21 1.51-.63.42-.42.63-.923.63-1.51V-20.8c0-.587-.21-1.09-.63-1.51-.42-.42-.923-.63-1.51-.63m1.436-.732c.391 0 .728.142 1.011.425.283.283.425.62.425 1.01V3.487c0 .39-.142.728-.425 1.011a1.38 1.38 0 0 1-1.01.425H2.138a1.38 1.38 0 0 1-1.011-.425 1.38 1.38 0 0 1-.425-1.01v-25.723c0-.391.142-.728.425-1.011a1.38 1.38 0 0 1 1.01-.425h25.723m0-.703H2.14c-.586 0-1.09.21-1.51.63-.419.42-.629.923-.629 1.509V3.486c0 .586.21 1.09.63 1.51.42.419.923.629 1.509.629H27.86c.586 0 1.09-.21 1.51-.63.419-.42.629-.923.629-1.509v-25.722c0-.586-.21-1.09-.63-1.51-.42-.419-.923-.629-1.509-.629" font-size="22.677" style="vector-effect:none;fill-rule:nonzero" transform="matrix(.66667 0 0 .66667 0 16.25)"/>
        </g>
    </g>
</svg>
