<?xml version="1.0" encoding="UTF-8" standalone="no"?>
<svg
   xmlns:dc="http://purl.org/dc/elements/1.1/"
   xmlns:cc="http://creativecommons.org/ns#"
   xmlns:rdf="http://www.w3.org/1999/02/22-rdf-syntax-ns#"
   xmlns:svg="http://www.w3.org/2000/svg"
   xmlns="http://www.w3.org/2000/svg"
   xmlns:sodipodi="http://sodipodi.sourceforge.net/DTD/sodipodi-0.dtd"
   xmlns:inkscape="http://www.inkscape.org/namespaces/inkscape"
   width="20"
   height="20"
   viewBox="0 0 20 20"
   version="1.2"
   id="svg52"
   sodipodi:docname="60201090413.svg"
   inkscape:version="0.92.4 (5da689c313, 2019-01-14)">
  <metadata
     id="metadata56">
    <rdf:RDF>
      <cc:Work
         rdf:about="">
        <dc:format>image/svg+xml</dc:format>
        <dc:type
           rdf:resource="http://purl.org/dc/dcmitype/StillImage" />
      </cc:Work>
    </rdf:RDF>
  </metadata>
  <sodipodi:namedview
     pagecolor="#ffffff"
     bordercolor="#666666"
     borderopacity="1"
     objecttolerance="10"
     gridtolerance="10"
     guidetolerance="10"
     inkscape:pageopacity="0"
     inkscape:pageshadow="2"
     inkscape:window-width="1920"
     inkscape:window-height="1017"
     id="namedview54"
     showgrid="false"
     inkscape:zoom="11.8"
     inkscape:cx="-5.2542373"
     inkscape:cy="10"
     inkscape:window-x="-8"
     inkscape:window-y="-8"
     inkscape:window-maximized="1"
     inkscape:current-layer="svg52" />
  <title
     id="title2">Qt SVG Document</title>
  <desc
     id="desc4">Generated with Qt</desc>
  <defs
     id="defs6" />
  <g
     id="g50"
     transform="matrix(0.66666667,0,0,0.66666667,-0.66666672,-0.66666672)"
     style="fill:none;fill-rule:evenodd;stroke:#000000;stroke-width:1;stroke-linecap:square;stroke-linejoin:bevel">
    <g
       transform="translate(16,16)"
       font-size="8.25"
       font-weight="400"
       font-style="normal"
       id="g8"
       style="font-style:normal;font-weight:400;font-size:8.25px;font-family:'MS Shell Dlg 2';fill:none;stroke:#000000;stroke-width:1;stroke-linecap:square;stroke-linejoin:bevel;stroke-opacity:1" />
    <g
       transform="matrix(1.33333,0,0,1.33333,16,16)"
       font-size="8.25"
       font-weight="400"
       font-style="normal"
       id="g10"
       style="font-style:normal;font-weight:400;font-size:8.25px;font-family:'MS Shell Dlg 2';fill:none;stroke:#000000;stroke-width:1;stroke-linecap:square;stroke-linejoin:bevel;stroke-opacity:1" />
    <g
       transform="translate(1,25.375)"
       font-size="22.6771"
       font-weight="400"
       font-style="normal"
       id="g14"
       style="font-style:normal;font-weight:400;font-size:22.67709923px;font-family:icomoon;fill:#ffff00;fill-opacity:1;stroke:none">
      <path
         d="M 2.63672,-24.375 H 27.3633 c 0.7226,0 1.3428,0.2588 1.8603,0.7764 0.5176,0.5175 0.7764,1.1377 0.7764,1.8603 V 2.98828 C 30,3.71094 29.7412,4.33105 29.2236,4.84863 28.7061,5.36621 28.0859,5.625 27.3633,5.625 H 2.63672 C 1.91406,5.625 1.29395,5.36621 0.776367,4.84863 0.258789,4.33105 0,3.71094 0,2.98828 V -21.7383 c 0,-0.7226 0.258789,-1.3428 0.776367,-1.8603 0.517583,-0.5176 1.137693,-0.7764 1.860353,-0.7764"
         id="path12"
         inkscape:connector-curvature="0"
         style="vector-effect:none;fill-rule:nonzero" />
    </g>
    <g
       transform="matrix(1.33333,0,0,1.33333,16,16)"
       font-size="8.25"
       font-weight="400"
       font-style="normal"
       id="g16"
       style="font-style:normal;font-weight:400;font-size:8.25px;font-family:'MS Shell Dlg 2';fill:none;stroke:#000000;stroke-width:1;stroke-linecap:square;stroke-linejoin:bevel;stroke-opacity:1" />
    <g
       transform="translate(16,16)"
       font-size="8.25"
       font-weight="400"
       font-style="normal"
       id="g18"
       style="font-style:normal;font-weight:400;font-size:8.25px;font-family:'MS Shell Dlg 2';fill:none;stroke:#000000;stroke-width:1;stroke-linecap:square;stroke-linejoin:bevel;stroke-opacity:1" />
    <g
       font-size="8.25"
       font-weight="400"
       font-style="normal"
       id="g20"
       style="font-style:normal;font-weight:400;font-size:8.25px;font-family:'MS Shell Dlg 2';fill:none;stroke:#000000;stroke-width:1;stroke-linecap:square;stroke-linejoin:bevel;stroke-opacity:1" />
    <g
       transform="translate(16,16)"
       font-size="8.25"
       font-weight="400"
       font-style="normal"
       id="g22"
       style="font-style:normal;font-weight:400;font-size:8.25px;font-family:'MS Shell Dlg 2';fill:none;stroke:#000000;stroke-width:1;stroke-linecap:square;stroke-linejoin:bevel;stroke-opacity:1" />
    <g
       transform="matrix(1.33333,0,0,1.33333,16,16)"
       font-size="8.25"
       font-weight="400"
       font-style="normal"
       id="g24"
       style="font-style:normal;font-weight:400;font-size:8.25px;font-family:'MS Shell Dlg 2';fill:none;stroke:#000000;stroke-width:1;stroke-linecap:square;stroke-linejoin:bevel;stroke-opacity:1" />
    <g
       transform="translate(4.5,23.1875)"
       font-size="17.0078"
       font-weight="400"
       font-style="normal"
       id="g28"
       style="font-style:normal;font-weight:400;font-size:17.00779915px;font-family:icomoon;fill:#000000;fill-opacity:1;stroke:none">
      <path
         d="m 20.9785,-18.0137 c 0.3744,0 0.6926,0.1311 0.9546,0.3931 0.262,0.262 0.3931,0.5802 0.3931,0.9546 V 2.29102 c 0,0.37434 -0.1311,0.69254 -0.3931,0.95459 -0.262,0.26204 -0.5802,0.39306 -0.9546,0.39306 H 2.02148 C 1.64714,3.63867 1.32894,3.50765 1.06689,3.24561 0.80485,2.98356 0.673828,2.66536 0.673828,2.29102 V -16.666 c 0,-0.3744 0.131022,-0.6926 0.393062,-0.9546 0.26205,-0.262 0.58025,-0.3931 0.95459,-0.3931 H 20.9785 m 0,-0.6738 H 2.02148 c -0.55403,0 -1.029455,0.1984 -1.426265,0.5952 C 0.198405,-17.6955 0,-17.2201 0,-16.666 V 2.29102 C 0,2.84505 0.198405,3.32048 0.595215,3.71729 0.992025,4.1141 1.46745,4.3125 2.02148,4.3125 H 20.9785 c 0.5541,0 1.0295,-0.1984 1.4263,-0.59521 C 22.8016,3.32048 23,2.84505 23,2.29102 V -16.666 c 0,-0.5541 -0.1984,-1.0295 -0.5952,-1.4263 -0.3968,-0.3968 -0.8722,-0.5952 -1.4263,-0.5952 m -4.2451,5.1211 0.9658,-1.3027 c 0.03,-0.045 0.0524,-0.0899 0.0674,-0.1348 0.015,-0.0449 0.0225,-0.0973 0.0225,-0.1572 0,-0.0749 -0.0188,-0.146 -0.0562,-0.2134 -0.0374,-0.0674 -0.0861,-0.131 -0.146,-0.1909 -0.0449,-0.03 -0.0898,-0.0524 -0.1348,-0.0674 -0.0449,-0.015 -0.0973,-0.0225 -0.1572,-0.0225 -0.0748,0 -0.146,0.015 -0.2134,0.0449 -0.0673,0.03 -0.1235,0.0749 -0.1684,0.1348 l -0.9658,1.3477 c -1.0033,-0.6739 -2.0515,-1.1605 -3.1446,-1.46 -1.0781,-0.2845 -2.1263,-0.3931 -3.1445,-0.3257 -1.01823,0.0674 -1.96159,0.3182 -2.83007,0.7525 -0.86849,0.4342 -1.58724,1.0407 -2.15625,1.8193 -0.0599,0.0749 -0.11605,0.1535 -0.16846,0.2358 -0.05241,0.0824 -0.10108,0.1685 -0.146,0.2583 l -0.02246,0.0225 c 0.22461,-0.2096 0.48291,-0.3781 0.7749,-0.5054 0.292,-0.1272 0.60271,-0.1909 0.93213,-0.1909 0.67383,0 1.24658,0.2359 1.71826,0.7075 0.47168,0.4717 0.70752,1.037 0.70752,1.6958 0,0.1049 -0.00748,0.2022 -0.02246,0.292 -0.01497,0.0899 -0.02995,0.1797 -0.04492,0.2696 v -0.0225 c 0.17969,-0.1048 0.37435,-0.1872 0.58399,-0.2471 0.20963,-0.0599 0.42675,-0.0898 0.65136,-0.0898 0.61396,0 1.14556,0.1984 1.59476,0.5952 0.4492,0.39681 0.7112,0.88721 0.7861,1.47119 L 5.50293,0.0898438 C 5.39811,0.224609 5.26709,0.333171 5.10986,0.415527 4.95264,0.497884 4.78418,0.539063 4.60449,0.539063 4.29004,0.539063 4.02051,0.430501 3.7959,0.213379 3.57129,-0.00374349 3.45898,-0.269531 3.45898,-0.583984 c 0,-0.134766 0.01872,-0.258301 0.05616,-0.370606 0.03743,-0.1123 0.09358,-0.21338 0.16845,-0.30322 0.02995,-0.04492 0.05241,-0.09359 0.06739,-0.146 0.01497,-0.05241 0.02246,-0.10107 0.02246,-0.14599 0,-0.08985 -0.01872,-0.17221 -0.05615,-0.24708 C 3.67985,-1.87174 3.63118,-1.93164 3.57129,-1.97656 3.52637,-2.00651 3.48145,-2.02897 3.43652,-2.04395 3.3916,-2.05892 3.34668,-2.06641 3.30176,-2.06641 c -0.08985,0 -0.16846,0.01872 -0.23584,0.05616 -0.06738,0.03743 -0.12354,0.0861 -0.16846,0.14599 -0.13476,0.17969 -0.23584,0.37435 -0.30322,0.58399 -0.06738,0.20963 -0.10108,0.434241 -0.10108,0.673825 0,0.359375 0.07862,0.6888018 0.23584,0.988281 0.15723,0.299479 0.36312,0.546549 0.61768,0.741214 H 3.36914 C 3.53385,1.25781 3.72477,1.36263 3.94189,1.4375 4.15902,1.51237 4.38737,1.5498 4.62695,1.5498 4.97135,1.5498 5.29704,1.47119 5.604,1.31396 5.91097,1.15674 6.16178,0.943359 6.35645,0.673828 L 12.8477,-8.24316 c 0.0599,-0.01498 0.1235,-0.02621 0.1909,-0.0337 0.0674,-0.00748 0.1385,-0.01123 0.2134,-0.01123 0.2695,0 0.524,0.04118 0.7636,0.12354 0.2396,0.08236 0.4567,0.1984 0.6514,0.34814 0.2995,0.22461 0.5391,0.50537 0.7187,0.84229 0.1797,0.33691 0.2696,0.70752 0.2696,1.11182 0,0.08984 -0.0038,0.18343 -0.0113,0.28076 -0.0074,0.09733 -0.0262,0.19091 -0.0561,0.28076 l 0.0225,-0.02246 c 0.1647,-0.10482 0.3518,-0.18718 0.5615,-0.24707 0.2096,-0.0599 0.4267,-0.08985 0.6513,-0.08985 0.6739,0 1.2466,0.23959 1.7183,0.71875 0.4717,0.47917 0.7075,1.04818 0.7075,1.70703 0,0.20964 -0.0224,0.4043 -0.0674,0.58399 -0.0449,0.17969 -0.1123,0.35937 -0.2021,0.53906 v -0.02246 c 0.1348,-0.14974 0.262,-0.30697 0.3818,-0.47168 0.569,-0.77864 0.9284,-1.65462 1.0782,-2.62793 0.1497,-0.95833 0.1048,-1.9279 -0.1348,-2.90869 -0.2396,-0.98079 -0.6589,-1.94291 -1.2578,-2.88621 -0.614,-0.9434 -1.3851,-1.7894 -2.3135,-2.5381"
         id="path26"
         inkscape:connector-curvature="0"
         style="vector-effect:none;fill-rule:nonzero" />
    </g>
    <g
       transform="matrix(1.33333,0,0,1.33333,16,16)"
       font-size="8.25"
       font-weight="400"
       font-style="normal"
       id="g30"
       style="font-style:normal;font-weight:400;font-size:8.25px;font-family:'MS Shell Dlg 2';fill:none;stroke:#000000;stroke-width:1;stroke-linecap:square;stroke-linejoin:bevel;stroke-opacity:1" />
    <g
       transform="translate(16,16)"
       font-size="8.25"
       font-weight="400"
       font-style="normal"
       id="g32"
       style="font-style:normal;font-weight:400;font-size:8.25px;font-family:'MS Shell Dlg 2';fill:none;stroke:#000000;stroke-width:1;stroke-linecap:square;stroke-linejoin:bevel;stroke-opacity:1" />
    <g
       font-size="8.25"
       font-weight="400"
       font-style="normal"
       id="g34"
       style="font-style:normal;font-weight:400;font-size:8.25px;font-family:'MS Shell Dlg 2';fill:none;stroke:#000000;stroke-width:1;stroke-linecap:square;stroke-linejoin:bevel;stroke-opacity:1" />
    <g
       transform="translate(16,16)"
       font-size="8.25"
       font-weight="400"
       font-style="normal"
       id="g36"
       style="font-style:normal;font-weight:400;font-size:8.25px;font-family:'MS Shell Dlg 2';fill:none;stroke:#000000;stroke-width:1;stroke-linecap:square;stroke-linejoin:bevel;stroke-opacity:1" />
    <g
       transform="matrix(1.33333,0,0,1.33333,16,16)"
       font-size="8.25"
       font-weight="400"
       font-style="normal"
       id="g38"
       style="font-style:normal;font-weight:400;font-size:8.25px;font-family:'MS Shell Dlg 2';fill:none;stroke:#000000;stroke-width:1;stroke-linecap:square;stroke-linejoin:bevel;stroke-opacity:1" />
    <g
       transform="translate(1,25.375)"
       font-size="22.6771"
       font-weight="400"
       font-style="normal"
       id="g42"
       style="font-style:normal;font-weight:400;font-size:22.67709923px;font-family:icomoon;fill:#000000;fill-opacity:1;stroke:none">
      <path
         d="m 26.4258,-22.2363 c 0.3906,0 0.7275,0.1416 1.0107,0.4248 0.2832,0.2832 0.4248,0.6201 0.4248,1.0107 V 2.05078 c 0,0.39063 -0.1416,0.72754 -0.4248,1.01074 -0.2832,0.28321 -0.6201,0.42481 -1.0107,0.42481 H 3.57422 C 3.18359,3.48633 2.84668,3.34473 2.56348,3.06152 2.28027,2.77832 2.13867,2.44141 2.13867,2.05078 V -20.8008 c 0,-0.3906 0.1416,-0.7275 0.42481,-1.0107 0.2832,-0.2832 0.62011,-0.4248 1.01074,-0.4248 H 26.4258 m 0,-0.7032 H 3.57422 c -0.58594,0 -1.08887,0.21 -1.50879,0.6299 -0.41992,0.42 -0.62988,0.9229 -0.62988,1.5088 V 2.05078 c 0,0.58594 0.20996,1.08887 0.62988,1.50879 0.41992,0.41992 0.92285,0.62988 1.50879,0.62988 H 26.4258 c 0.5859,0 1.0888,-0.20996 1.5088,-0.62988 0.4199,-0.41992 0.6299,-0.92285 0.6299,-1.50879 V -20.8008 c 0,-0.5859 -0.21,-1.0888 -0.6299,-1.5088 -0.42,-0.4199 -0.9229,-0.6299 -1.5088,-0.6299 m 1.4355,-0.7324 c 0.3907,0 0.7276,0.1416 1.0108,0.4248 0.2832,0.2832 0.4248,0.6201 0.4248,1.0108 V 3.48633 c 0,0.39062 -0.1416,0.72754 -0.4248,1.01074 -0.2832,0.2832 -0.6201,0.42481 -1.0108,0.42481 H 2.13867 C 1.74805,4.92188 1.41113,4.78027 1.12793,4.49707 0.844727,4.21387 0.703125,3.87695 0.703125,3.48633 V -22.2363 c 0,-0.3907 0.141602,-0.7276 0.424805,-1.0108 0.2832,-0.2832 0.62012,-0.4248 1.01074,-0.4248 H 27.8613 m 0,-0.7031 H 2.13867 c -0.58594,0 -1.08887,0.21 -1.508787,0.6299 C 0.209961,-23.3252 0,-22.8223 0,-22.2363 V 3.48633 C 0,4.07227 0.209961,4.5752 0.629883,4.99512 1.0498,5.41504 1.55273,5.625 2.13867,5.625 H 27.8613 c 0.586,0 1.0889,-0.20996 1.5088,-0.62988 C 29.79,4.5752 30,4.07227 30,3.48633 V -22.2363 c 0,-0.586 -0.21,-1.0889 -0.6299,-1.5088 -0.4199,-0.4199 -0.9228,-0.6299 -1.5088,-0.6299"
         id="path40"
         inkscape:connector-curvature="0"
         style="vector-effect:none;fill-rule:nonzero" />
    </g>
    <g
       transform="matrix(1.33333,0,0,1.33333,16,16)"
       font-size="8.25"
       font-weight="400"
       font-style="normal"
       id="g44"
       style="font-style:normal;font-weight:400;font-size:8.25px;font-family:'MS Shell Dlg 2';fill:none;stroke:#000000;stroke-width:1;stroke-linecap:square;stroke-linejoin:bevel;stroke-opacity:1" />
    <g
       transform="translate(16,16)"
       font-size="8.25"
       font-weight="400"
       font-style="normal"
       id="g46"
       style="font-style:normal;font-weight:400;font-size:8.25px;font-family:'MS Shell Dlg 2';fill:none;stroke:#000000;stroke-width:1;stroke-linecap:square;stroke-linejoin:bevel;stroke-opacity:1" />
    <g
       font-size="8.25"
       font-weight="400"
       font-style="normal"
       id="g48"
       style="font-style:normal;font-weight:400;font-size:8.25px;font-family:'MS Shell Dlg 2';fill:none;stroke:#000000;stroke-width:1;stroke-linecap:square;stroke-linejoin:bevel;stroke-opacity:1" />
  </g>
</svg>
