<?xml version="1.0" encoding="UTF-8" standalone="no"?>
<svg
   xmlns:dc="http://purl.org/dc/elements/1.1/"
   xmlns:cc="http://creativecommons.org/ns#"
   xmlns:rdf="http://www.w3.org/1999/02/22-rdf-syntax-ns#"
   xmlns:svg="http://www.w3.org/2000/svg"
   xmlns="http://www.w3.org/2000/svg"
   xmlns:sodipodi="http://sodipodi.sourceforge.net/DTD/sodipodi-0.dtd"
   xmlns:inkscape="http://www.inkscape.org/namespaces/inkscape"
   width="20"
   height="20"
   viewBox="0 0 20 20"
   version="1.2"
   id="svg52"
   sodipodi:docname="60201090134.svg"
   inkscape:version="0.92.4 (5da689c313, 2019-01-14)">
  <metadata
     id="metadata56">
    <rdf:RDF>
      <cc:Work
         rdf:about="">
        <dc:format>image/svg+xml</dc:format>
        <dc:type
           rdf:resource="http://purl.org/dc/dcmitype/StillImage" />
      </cc:Work>
    </rdf:RDF>
  </metadata>
  <sodipodi:namedview
     pagecolor="#ffffff"
     bordercolor="#666666"
     borderopacity="1"
     objecttolerance="10"
     gridtolerance="10"
     guidetolerance="10"
     inkscape:pageopacity="0"
     inkscape:pageshadow="2"
     inkscape:window-width="1920"
     inkscape:window-height="1017"
     id="namedview54"
     showgrid="false"
     inkscape:zoom="11.8"
     inkscape:cx="-5.2542373"
     inkscape:cy="10"
     inkscape:window-x="-8"
     inkscape:window-y="-8"
     inkscape:window-maximized="1"
     inkscape:current-layer="svg52" />
  <title
     id="title2">Qt SVG Document</title>
  <desc
     id="desc4">Generated with Qt</desc>
  <defs
     id="defs6" />
  <g
     id="g50"
     transform="matrix(0.65217391,0,0,0.65217391,-0.43478256,-0.43478256)"
     style="fill:none;fill-rule:evenodd;stroke:#000000;stroke-width:1;stroke-linecap:square;stroke-linejoin:bevel">
    <g
       transform="translate(16,16)"
       font-size="8.25"
       font-weight="400"
       font-style="normal"
       id="g8"
       style="font-style:normal;font-weight:400;font-size:8.25px;font-family:'MS Shell Dlg 2';fill:none;stroke:#000000;stroke-width:1;stroke-linecap:square;stroke-linejoin:bevel;stroke-opacity:1" />
    <g
       transform="matrix(1.33333,0,0,1.33333,16,16)"
       font-size="8.25"
       font-weight="400"
       font-style="normal"
       id="g10"
       style="font-style:normal;font-weight:400;font-size:8.25px;font-family:'MS Shell Dlg 2';fill:none;stroke:#000000;stroke-width:1;stroke-linecap:square;stroke-linejoin:bevel;stroke-opacity:1" />
    <g
       transform="translate(4.5,23.1875)"
       font-size="17.0078"
       font-weight="400"
       font-style="normal"
       id="g14"
       style="font-style:normal;font-weight:400;font-size:17.00779915px;font-family:icomoon;fill:#ffffff;fill-opacity:1;stroke:none">
      <path
         d="M 2.02148,-18.6875 H 20.9785 c 0.5541,0 1.0295,0.1984 1.4263,0.5952 C 22.8016,-17.6955 23,-17.2201 23,-16.666 V 2.29102 C 23,2.84505 22.8016,3.32048 22.4048,3.71729 22.008,4.1141 21.5326,4.3125 20.9785,4.3125 H 2.02148 C 1.46745,4.3125 0.992025,4.1141 0.595215,3.71729 0.198405,3.32048 0,2.84505 0,2.29102 V -16.666 c 0,-0.5541 0.198405,-1.0295 0.595215,-1.4263 0.39681,-0.3968 0.872235,-0.5952 1.426265,-0.5952"
         id="path12"
         inkscape:connector-curvature="0"
         style="vector-effect:none;fill-rule:nonzero" />
    </g>
    <g
       transform="matrix(1.33333,0,0,1.33333,16,16)"
       font-size="8.25"
       font-weight="400"
       font-style="normal"
       id="g16"
       style="font-style:normal;font-weight:400;font-size:8.25px;font-family:'MS Shell Dlg 2';fill:none;stroke:#000000;stroke-width:1;stroke-linecap:square;stroke-linejoin:bevel;stroke-opacity:1" />
    <g
       transform="translate(16,16)"
       font-size="8.25"
       font-weight="400"
       font-style="normal"
       id="g18"
       style="font-style:normal;font-weight:400;font-size:8.25px;font-family:'MS Shell Dlg 2';fill:none;stroke:#000000;stroke-width:1;stroke-linecap:square;stroke-linejoin:bevel;stroke-opacity:1" />
    <g
       font-size="8.25"
       font-weight="400"
       font-style="normal"
       id="g20"
       style="font-style:normal;font-weight:400;font-size:8.25px;font-family:'MS Shell Dlg 2';fill:none;stroke:#000000;stroke-width:1;stroke-linecap:square;stroke-linejoin:bevel;stroke-opacity:1" />
    <g
       transform="translate(16,16)"
       font-size="8.25"
       font-weight="400"
       font-style="normal"
       id="g22"
       style="font-style:normal;font-weight:400;font-size:8.25px;font-family:'MS Shell Dlg 2';fill:none;stroke:#000000;stroke-width:1;stroke-linecap:square;stroke-linejoin:bevel;stroke-opacity:1" />
    <g
       transform="matrix(1.33333,0,0,1.33333,16,16)"
       font-size="8.25"
       font-weight="400"
       font-style="normal"
       id="g24"
       style="font-style:normal;font-weight:400;font-size:8.25px;font-family:'MS Shell Dlg 2';fill:none;stroke:#000000;stroke-width:1;stroke-linecap:square;stroke-linejoin:bevel;stroke-opacity:1" />
    <g
       transform="translate(4.5,23.1875)"
       font-size="17.0078"
       font-weight="400"
       font-style="normal"
       id="g28"
       style="font-style:normal;font-weight:400;font-size:17.00779915px;font-family:icomoon;fill:#000000;fill-opacity:1;stroke:none">
      <path
         d="m 20.9785,-18.0137 c 0.3744,0 0.6926,0.1311 0.9546,0.3931 0.262,0.262 0.3931,0.5802 0.3931,0.9546 V 2.29102 c 0,0.37434 -0.1311,0.69254 -0.3931,0.95459 -0.262,0.26204 -0.5802,0.39306 -0.9546,0.39306 H 2.02148 C 1.64714,3.63867 1.32894,3.50765 1.06689,3.24561 0.80485,2.98356 0.673828,2.66536 0.673828,2.29102 V -16.666 c 0,-0.3744 0.131022,-0.6926 0.393062,-0.9546 0.26205,-0.262 0.58025,-0.3931 0.95459,-0.3931 H 20.9785 m 0,-0.6738 H 2.02148 c -0.55403,0 -1.029455,0.1984 -1.426265,0.5952 C 0.198405,-17.6955 0,-17.2201 0,-16.666 V 2.29102 C 0,2.84505 0.198405,3.32048 0.595215,3.71729 0.992025,4.1141 1.46745,4.3125 2.02148,4.3125 H 20.9785 c 0.5541,0 1.0295,-0.1984 1.4263,-0.59521 C 22.8016,3.32048 23,2.84505 23,2.29102 V -16.666 c 0,-0.5541 -0.1984,-1.0295 -0.5952,-1.4263 -0.3968,-0.3968 -0.8722,-0.5952 -1.4263,-0.5952 m -7.8389,5.9297 c 0,0.0449 0,0.0861 0,0.1235 0,0.0375 0,0.0711 0,0.1011 0.2247,-0.0749 0.4642,-0.131 0.7188,-0.1685 0.2546,-0.0374 0.5166,-0.0561 0.7861,-0.0561 0.3894,0 0.7637,0.0412 1.1231,0.1235 0.3594,0.0824 0.7038,0.1984 1.0332,0.3482 h -0.0449 c 0.1347,-0.2246 0.2395,-0.4605 0.3144,-0.7076 0.0749,-0.247 0.1123,-0.5053 0.1123,-0.7749 -0.015,-0.8235 -0.3107,-1.5236 -0.8872,-2.1001 -0.5765,-0.5764 -1.2765,-0.8647 -2.1001,-0.8647 -0.5989,0 -1.138,0.1572 -1.6172,0.4717 -0.4791,0.3144 -0.8385,0.7262 -1.0781,1.2353 v 0.0225 c 0.4342,0.2096 0.7974,0.5129 1.0894,0.9097 0.2919,0.3968 0.4754,0.8348 0.5502,1.3139 v 0.0225 m 3.212,1.0332 c -0.2546,-0.1048 -0.5241,-0.1872 -0.8086,-0.2471 -0.2845,-0.0599 -0.584,-0.0898 -0.8985,-0.0898 -0.2695,0 -0.5353,0.0224 -0.7973,0.0674 -0.2621,0.0449 -0.5129,0.1123 -0.7525,0.2021 h 0.0225 c -0.03,0.1797 -0.0786,0.3519 -0.146,0.5166 -0.0674,0.1647 -0.1535,0.3145 -0.2583,0.4492 -0.1647,0.1947 -0.3631,0.3594 -0.5952,0.4942 -0.2321,0.1347 -0.4829,0.2246 -0.7525,0.2695 l -0.0673,-0.6738 c 0.1796,-0.045 0.3444,-0.1086 0.4941,-0.1909 0.1497,-0.0824 0.277,-0.191 0.3818,-0.3257 0.1048,-0.1348 0.1835,-0.292 0.2359,-0.4717 0.0524,-0.1797 0.0786,-0.3669 0.0786,-0.5615 0,-0.0749 0,-0.1423 0,-0.2022 0,-0.0599 -0.0075,-0.1198 -0.0225,-0.1797 -0.0898,-0.7187 -0.4155,-1.2353 -0.977,-1.5498 -0.5616,-0.3144 -1.007,-0.5241 -1.3365,-0.6289 H 9.88281 c -0.01497,0 -0.02246,0 -0.02246,0 -0.82357,0 -1.52734,0.292 -2.11133,0.876 -0.58398,0.584 -0.87597,1.2803 -0.87597,2.0889 0,0.3593 0.05989,0.6963 0.17968,1.0107 0.1198,0.3145 0.27702,0.5915 0.47168,0.8311 0.22461,0.28447 0.48666,0.52031 0.78614,0.70748 0.29948,0.18717 0.6289,0.3182 0.98828,0.39307 h 0.02246 l 3.27931,2.02148 c 0.2246,0.14974 0.4717,0.26579 0.7412,0.34815 0.2695,0.08235 0.554,0.12353 0.8535,0.12353 0.8236,0 1.5274,-0.29199 2.1113,-0.87598 0.584,-0.58398 0.876,-1.28776 0.876,-2.11132 0,-0.41927 -0.0861,-0.81611 -0.2583,-1.19041 -0.1722,-0.3744 -0.4005,-0.7038 -0.685,-0.9883 l 0.1123,-0.1123 M 5.81738,2.38086 13.6338,-5.21094 6.80566,-9.05176 5.81738,2.38086 m 2.02149,-8.1084 h 3.14453 c 0.1048,0 0.1872,0.03369 0.2471,0.10108 0.0599,0.06738 0.0898,0.14599 0.0898,0.23583 0,0.08985 -0.0299,0.16846 -0.0898,0.23584 -0.0599,0.06739 -0.1423,0.10108 -0.2471,0.10108 H 7.83887 c -0.08985,0 -0.16846,-0.03369 -0.23584,-0.10108 -0.06739,-0.06738 -0.10108,-0.14599 -0.10108,-0.23584 0,-0.08984 0.03369,-0.16471 0.10108,-0.2246 0.06738,-0.0599 0.14599,-0.08985 0.23584,-0.08985 v -0.02246 m 0,2.02149 h 2.47073 c 0.1048,0 0.1871,0.03369 0.247,0.10107 0.0599,0.06738 0.0899,0.146 0.0899,0.23584 0,0.10482 -0.03,0.19092 -0.0899,0.2583 -0.0599,0.06738 -0.1422,0.10107 -0.247,0.10107 H 7.83887 C 7.74902,-3.02474 7.67041,-3.06217 7.60303,-3.12207 7.53564,-3.18197 7.50195,-3.26432 7.50195,-3.36914 c 0,-0.07487 0.03369,-0.14225 0.10108,-0.20215 0.06738,-0.05989 0.14599,-0.08984 0.23584,-0.08984 v -0.04492"
         id="path26"
         inkscape:connector-curvature="0"
         style="vector-effect:none;fill-rule:nonzero" />
    </g>
    <g
       transform="matrix(1.33333,0,0,1.33333,16,16)"
       font-size="8.25"
       font-weight="400"
       font-style="normal"
       id="g30"
       style="font-style:normal;font-weight:400;font-size:8.25px;font-family:'MS Shell Dlg 2';fill:none;stroke:#000000;stroke-width:1;stroke-linecap:square;stroke-linejoin:bevel;stroke-opacity:1" />
    <g
       transform="translate(16,16)"
       font-size="8.25"
       font-weight="400"
       font-style="normal"
       id="g32"
       style="font-style:normal;font-weight:400;font-size:8.25px;font-family:'MS Shell Dlg 2';fill:none;stroke:#000000;stroke-width:1;stroke-linecap:square;stroke-linejoin:bevel;stroke-opacity:1" />
    <g
       font-size="8.25"
       font-weight="400"
       font-style="normal"
       id="g34"
       style="font-style:normal;font-weight:400;font-size:8.25px;font-family:'MS Shell Dlg 2';fill:none;stroke:#000000;stroke-width:1;stroke-linecap:square;stroke-linejoin:bevel;stroke-opacity:1" />
    <g
       transform="translate(16,16)"
       font-size="8.25"
       font-weight="400"
       font-style="normal"
       id="g36"
       style="font-style:normal;font-weight:400;font-size:8.25px;font-family:'MS Shell Dlg 2';fill:none;stroke:#000000;stroke-width:1;stroke-linecap:square;stroke-linejoin:bevel;stroke-opacity:1" />
    <g
       transform="matrix(1.33333,0,0,1.33333,16,16)"
       font-size="8.25"
       font-weight="400"
       font-style="normal"
       id="g38"
       style="font-style:normal;font-weight:400;font-size:8.25px;font-family:'MS Shell Dlg 2';fill:none;stroke:#000000;stroke-width:1;stroke-linecap:square;stroke-linejoin:bevel;stroke-opacity:1" />
    <g
       transform="translate(5.5,22.5625)"
       font-size="15.874"
       font-weight="400"
       font-style="normal"
       id="g42"
       style="font-style:normal;font-weight:400;font-size:15.8739996px;font-family:icomoon;fill:#ff0000;fill-opacity:1;stroke:none">
      <path
         d="M 0.65625,3.9375 C 0.560547,3.9375 0.475098,3.92041 0.399902,3.88623 0.324707,3.85205 0.25293,3.80762 0.18457,3.75293 0.129883,3.68457 0.0854492,3.61279 0.0512695,3.5376 0.0170898,3.4624 0,3.37695 0,3.28125 0,3.18555 0.0170898,3.1001 0.0512695,3.0249 0.0854492,2.94971 0.129883,2.87793 0.18457,2.80957 L 19.8721,-16.8779 c 0.0683,-0.0547 0.1401,-0.0992 0.2153,-0.1333 0.0752,-0.0342 0.1606,-0.0513 0.2564,-0.0513 0.1777,0 0.3315,0.0649 0.4614,0.1948 0.1299,0.1299 0.1948,0.2837 0.1948,0.4614 0,0.0958 -0.0171,0.1812 -0.0513,0.2564 -0.0341,0.0752 -0.0786,0.147 -0.1333,0.2153 L 1.12793,3.75293 C 1.05957,3.80762 0.987793,3.85205 0.912598,3.88623 0.837402,3.92041 0.751953,3.9375 0.65625,3.9375"
         id="path40"
         inkscape:connector-curvature="0"
         style="vector-effect:none;fill-rule:nonzero" />
    </g>
    <g
       transform="matrix(1.33333,0,0,1.33333,16,16)"
       font-size="8.25"
       font-weight="400"
       font-style="normal"
       id="g44"
       style="font-style:normal;font-weight:400;font-size:8.25px;font-family:'MS Shell Dlg 2';fill:none;stroke:#000000;stroke-width:1;stroke-linecap:square;stroke-linejoin:bevel;stroke-opacity:1" />
    <g
       transform="translate(16,16)"
       font-size="8.25"
       font-weight="400"
       font-style="normal"
       id="g46"
       style="font-style:normal;font-weight:400;font-size:8.25px;font-family:'MS Shell Dlg 2';fill:none;stroke:#000000;stroke-width:1;stroke-linecap:square;stroke-linejoin:bevel;stroke-opacity:1" />
    <g
       font-size="8.25"
       font-weight="400"
       font-style="normal"
       id="g48"
       style="font-style:normal;font-weight:400;font-size:8.25px;font-family:'MS Shell Dlg 2';fill:none;stroke:#000000;stroke-width:1;stroke-linecap:square;stroke-linejoin:bevel;stroke-opacity:1" />
  </g>
</svg>
