<?xml version="1.0" encoding="UTF-8" standalone="no"?>
<svg
   xmlns:dc="http://purl.org/dc/elements/1.1/"
   xmlns:cc="http://creativecommons.org/ns#"
   xmlns:rdf="http://www.w3.org/1999/02/22-rdf-syntax-ns#"
   xmlns:svg="http://www.w3.org/2000/svg"
   xmlns="http://www.w3.org/2000/svg"
   xmlns:sodipodi="http://sodipodi.sourceforge.net/DTD/sodipodi-0.dtd"
   xmlns:inkscape="http://www.inkscape.org/namespaces/inkscape"
   width="20"
   height="20"
   viewBox="0 0 20 20"
   version="1.2"
   id="svg38"
   sodipodi:docname="60201090232.svg"
   inkscape:version="0.92.4 (5da689c313, 2019-01-14)">
  <metadata
     id="metadata42">
    <rdf:RDF>
      <cc:Work
         rdf:about="">
        <dc:format>image/svg+xml</dc:format>
        <dc:type
           rdf:resource="http://purl.org/dc/dcmitype/StillImage" />
      </cc:Work>
    </rdf:RDF>
  </metadata>
  <sodipodi:namedview
     pagecolor="#ffffff"
     bordercolor="#666666"
     borderopacity="1"
     objecttolerance="10"
     gridtolerance="10"
     guidetolerance="10"
     inkscape:pageopacity="0"
     inkscape:pageshadow="2"
     inkscape:window-width="1920"
     inkscape:window-height="1017"
     id="namedview40"
     showgrid="false"
     inkscape:zoom="11.8"
     inkscape:cx="-5.2542373"
     inkscape:cy="10"
     inkscape:window-x="-8"
     inkscape:window-y="-8"
     inkscape:window-maximized="1"
     inkscape:current-layer="svg38" />
  <title
     id="title2">Qt SVG Document</title>
  <desc
     id="desc4">Generated with Qt</desc>
  <defs
     id="defs6" />
  <g
     id="g36"
     transform="matrix(0.65217391,0,0,0.65217391,-0.43478256,-0.43478256)"
     style="fill:none;fill-rule:evenodd;stroke:#000000;stroke-width:1;stroke-linecap:square;stroke-linejoin:bevel">
    <g
       transform="translate(16,16)"
       font-size="8.25"
       font-weight="400"
       font-style="normal"
       id="g8"
       style="font-style:normal;font-weight:400;font-size:8.25px;font-family:'MS Shell Dlg 2';fill:none;stroke:#000000;stroke-width:1;stroke-linecap:square;stroke-linejoin:bevel;stroke-opacity:1" />
    <g
       transform="matrix(1.33333,0,0,1.33333,16,16)"
       font-size="8.25"
       font-weight="400"
       font-style="normal"
       id="g10"
       style="font-style:normal;font-weight:400;font-size:8.25px;font-family:'MS Shell Dlg 2';fill:none;stroke:#000000;stroke-width:1;stroke-linecap:square;stroke-linejoin:bevel;stroke-opacity:1" />
    <g
       transform="translate(4.5,23.1875)"
       font-size="17.0078"
       font-weight="400"
       font-style="normal"
       id="g14"
       style="font-style:normal;font-weight:400;font-size:17.00779915px;font-family:icomoon;fill:#ff0000;fill-opacity:1;stroke:none">
      <path
         d="M 2.02148,-18.6875 H 20.9785 c 0.5541,0 1.0295,0.1984 1.4263,0.5952 C 22.8016,-17.6955 23,-17.2201 23,-16.666 V 2.29102 C 23,2.84505 22.8016,3.32048 22.4048,3.71729 22.008,4.1141 21.5326,4.3125 20.9785,4.3125 H 2.02148 C 1.46745,4.3125 0.992025,4.1141 0.595215,3.71729 0.198405,3.32048 0,2.84505 0,2.29102 V -16.666 c 0,-0.5541 0.198405,-1.0295 0.595215,-1.4263 0.39681,-0.3968 0.872235,-0.5952 1.426265,-0.5952"
         id="path12"
         inkscape:connector-curvature="0"
         style="vector-effect:none;fill-rule:nonzero" />
    </g>
    <g
       transform="matrix(1.33333,0,0,1.33333,16,16)"
       font-size="8.25"
       font-weight="400"
       font-style="normal"
       id="g16"
       style="font-style:normal;font-weight:400;font-size:8.25px;font-family:'MS Shell Dlg 2';fill:none;stroke:#000000;stroke-width:1;stroke-linecap:square;stroke-linejoin:bevel;stroke-opacity:1" />
    <g
       transform="translate(16,16)"
       font-size="8.25"
       font-weight="400"
       font-style="normal"
       id="g18"
       style="font-style:normal;font-weight:400;font-size:8.25px;font-family:'MS Shell Dlg 2';fill:none;stroke:#000000;stroke-width:1;stroke-linecap:square;stroke-linejoin:bevel;stroke-opacity:1" />
    <g
       font-size="8.25"
       font-weight="400"
       font-style="normal"
       id="g20"
       style="font-style:normal;font-weight:400;font-size:8.25px;font-family:'MS Shell Dlg 2';fill:none;stroke:#000000;stroke-width:1;stroke-linecap:square;stroke-linejoin:bevel;stroke-opacity:1" />
    <g
       transform="translate(16,16)"
       font-size="8.25"
       font-weight="400"
       font-style="normal"
       id="g22"
       style="font-style:normal;font-weight:400;font-size:8.25px;font-family:'MS Shell Dlg 2';fill:none;stroke:#000000;stroke-width:1;stroke-linecap:square;stroke-linejoin:bevel;stroke-opacity:1" />
    <g
       transform="matrix(1.33333,0,0,1.33333,16,16)"
       font-size="8.25"
       font-weight="400"
       font-style="normal"
       id="g24"
       style="font-style:normal;font-weight:400;font-size:8.25px;font-family:'MS Shell Dlg 2';fill:none;stroke:#000000;stroke-width:1;stroke-linecap:square;stroke-linejoin:bevel;stroke-opacity:1" />
    <g
       transform="translate(4.5,23.1875)"
       font-size="17.0078"
       font-weight="400"
       font-style="normal"
       id="g28"
       style="font-style:normal;font-weight:400;font-size:17.00779915px;font-family:icomoon;fill:#000000;fill-opacity:1;stroke:none">
      <path
         d="m 20.9785,-18.0137 c 0.3744,0 0.6926,0.1311 0.9546,0.3931 0.262,0.262 0.3931,0.5802 0.3931,0.9546 V 2.29102 c 0,0.37434 -0.1311,0.69254 -0.3931,0.95459 -0.262,0.26204 -0.5802,0.39306 -0.9546,0.39306 H 2.02148 C 1.64714,3.63867 1.32894,3.50765 1.06689,3.24561 0.80485,2.98356 0.673828,2.66536 0.673828,2.29102 V -16.666 c 0,-0.3744 0.131022,-0.6926 0.393062,-0.9546 0.26205,-0.262 0.58025,-0.3931 0.95459,-0.3931 H 20.9785 m 0,-0.6738 H 2.02148 c -0.55403,0 -1.029455,0.1984 -1.426265,0.5952 C 0.198405,-17.6955 0,-17.2201 0,-16.666 V 2.29102 C 0,2.84505 0.198405,3.32048 0.595215,3.71729 0.992025,4.1141 1.46745,4.3125 2.02148,4.3125 H 20.9785 c 0.5541,0 1.0295,-0.1984 1.4263,-0.59521 C 22.8016,3.32048 23,2.84505 23,2.29102 V -16.666 c 0,-0.5541 -0.1984,-1.0295 -0.5952,-1.4263 -0.3968,-0.3968 -0.8722,-0.5952 -1.4263,-0.5952 M 3.05469,-0.24707 H 19.9453 V 1.10059 H 3.05469 V -0.24707 M 5.48047,-8.26563 3.2793,-6.22168 c 0.23958,0.61393 0.55403,1.24658 0.94336,1.89795 0.38932,0.65137 0.861,1.14176 1.41504,1.47119 l 2.31347,-5.45801 -2.4707,0.04492 m 14.84663,0.78614 c 0.0749,-0.22461 0.1311,-0.41179 0.1685,-0.56153 0.0374,-0.14974 0.0562,-0.22461 0.0562,-0.22461 h -1.0557 l 0.831,0.78614 M 3.50391,-8.26563 H 2.62793 c 0,0 0.01497,0.06364 0.04492,0.19092 0.02995,0.12728 0.07487,0.29574 0.13477,0.50537 l 0.69629,-0.69629 m 14.01559,0 h -2.4707 l 2.336,5.54786 c 0.569,-0.3444 1.0556,-0.8348 1.4599,-1.47119 0.4043,-0.6364 0.7338,-1.27653 0.9883,-1.92042 L 17.5195,-8.26563 M 14.0156,-7.1875 H 8.98438 l -2.04395,4.8291 c 0.01497,0 0.02995,0 0.04492,0 0.01498,0 0.02995,0 0.04492,0 0,0 0.00749,0 0.02246,0 0.01498,0 0.02995,0 0.04493,0 H 16.082 l -2.0664,-4.8291 m 6.5811,0.42676 -7.2774,-6.85056 c 0.0899,-0.1348 0.161,-0.292 0.2134,-0.4717 0.0524,-0.1797 0.0786,-0.3594 0.0786,-0.5391 0,-0.569 -0.1984,-1.0519 -0.5952,-1.4487 -0.3968,-0.3968 -0.8722,-0.5952 -1.4263,-0.5952 -0.569,0 -1.0481,0.1984 -1.4375,0.5952 -0.38928,0.3968 -0.58394,0.8797 -0.58394,1.4487 0,0.1647 0.01872,0.3295 0.05615,0.4942 0.03744,0.1647 0.10108,0.3144 0.19092,0.4492 H 9.79297 l -7.38965,6.91796 c -0.02995,0.02995 -0.05615,0.06738 -0.07861,0.1123 -0.02246,0.04492 -0.03369,0.08985 -0.03369,0.13477 0,0.04492 0.01123,0.0861 0.03369,0.12353 0.02246,0.03744 0.04866,0.07113 0.07861,0.10108 0.02995,0.04492 0.06364,0.07487 0.10107,0.08984 0.03744,0.01498 0.07862,0.02246 0.12354,0.02246 0.01497,0 0.02246,0 0.02246,0 0.04492,0 0.0861,-0.00748 0.12354,-0.02246 C 2.81136,-6.21419 2.84505,-6.23665 2.875,-6.2666 l 7.3447,-6.8955 0.1348,0.1123 -5.05372,11.94921 c 0,0.01498 -0.00374,0.0337 -0.01123,0.05616 -0.00749,0.02246 -0.01123,0.048662 -0.01123,0.07861 0,0.074869 0.01872,0.138509 0.05615,0.190918 0.03744,0.052409 0.0861,0.093587 0.146,0.123535 0.01497,0 0.0262,0 0.03369,0 0.00749,0 0.01872,0 0.03369,0 0.01498,0 0.02995,0 0.04492,0 0.01498,0 0.02246,0 0.02246,0 0.07487,0 0.13851,-0.018718 0.19092,-0.056153 0.05241,-0.037434 0.09359,-0.0861 0.12354,-0.145996 L 10.9609,-12.7354 c 0.0899,0.03 0.1872,0.0562 0.292,0.0787 0.1048,0.0224 0.2172,0.0337 0.3369,0.0337 0.0899,0 0.1722,-0.0038 0.2471,-0.0113 0.0749,-0.0075 0.1572,-0.0262 0.2471,-0.0561 h -0.0225 l 5.0088,11.836884 c 0.03,0.059896 0.0711,0.108562 0.1235,0.145996 0.0525,0.037435 0.1161,0.056153 0.191,0.056153 0,0 0.0075,0 0.0224,0 0.015,0 0.03,0 0.0449,0 0.015,0 0.0263,0 0.0337,0 0.0075,0 0.0188,0 0.0337,0 0.0599,-0.029948 0.1086,-0.071126 0.146,-0.123535 0.0375,-0.052409 0.0562,-0.116049 0.0562,-0.190918 0,-0.014974 -0.0038,-0.033692 -0.0113,-0.05615 -0.0074,-0.02246 -0.0112,-0.04867 -0.0112,-0.07862 L 12.6904,-12.96 c 0.03,-0.0149 0.0599,-0.0337 0.0899,-0.0561 0.0299,-0.0225 0.0599,-0.0487 0.0898,-0.0786 l 7.2774,6.8281 c 0.0299,0.02995 0.0636,0.05241 0.101,0.06738 0.0375,0.01498 0.0786,0.02246 0.1236,0.02246 0.0449,0 0.0898,-0.00748 0.1347,-0.02246 0.045,-0.01497 0.0824,-0.04492 0.1123,-0.08984 0.03,-0.02995 0.0524,-0.06364 0.0674,-0.10108 0.015,-0.03743 0.0225,-0.07861 0.0225,-0.12353 0,-0.04492 -0.0112,-0.08985 -0.0337,-0.13477 -0.0225,-0.04492 -0.0487,-0.08235 -0.0786,-0.1123 M 10.2422,-14.6221 c 0,0 0,-0.0037 0,-0.0112 0,-0.0075 0,-0.0112 0,-0.0112 0,-0.3744 0.131,-0.6926 0.3931,-0.9546 0.262,-0.2621 0.5802,-0.3931 0.9545,-0.3931 0.3744,0 0.6926,0.131 0.9546,0.3931 0.2621,0.262 0.3931,0.5802 0.3931,0.9546 0,0.1647 -0.0299,0.3219 -0.0898,0.4716 -0.0599,0.1498 -0.1348,0.2846 -0.2247,0.4043 -0.1347,0.1498 -0.2882,0.2658 -0.4604,0.3482 -0.1722,0.0823 -0.3631,0.1235 -0.5728,0.1235 -0.3743,0 -0.6925,-0.131 -0.9545,-0.393 -0.2621,-0.2621 -0.3931,-0.5728 -0.3931,-0.9322"
         id="path26"
         inkscape:connector-curvature="0"
         style="vector-effect:none;fill-rule:nonzero" />
    </g>
    <g
       transform="matrix(1.33333,0,0,1.33333,16,16)"
       font-size="8.25"
       font-weight="400"
       font-style="normal"
       id="g30"
       style="font-style:normal;font-weight:400;font-size:8.25px;font-family:'MS Shell Dlg 2';fill:none;stroke:#000000;stroke-width:1;stroke-linecap:square;stroke-linejoin:bevel;stroke-opacity:1" />
    <g
       transform="translate(16,16)"
       font-size="8.25"
       font-weight="400"
       font-style="normal"
       id="g32"
       style="font-style:normal;font-weight:400;font-size:8.25px;font-family:'MS Shell Dlg 2';fill:none;stroke:#000000;stroke-width:1;stroke-linecap:square;stroke-linejoin:bevel;stroke-opacity:1" />
    <g
       font-size="8.25"
       font-weight="400"
       font-style="normal"
       id="g34"
       style="font-style:normal;font-weight:400;font-size:8.25px;font-family:'MS Shell Dlg 2';fill:none;stroke:#000000;stroke-width:1;stroke-linecap:square;stroke-linejoin:bevel;stroke-opacity:1" />
  </g>
</svg>
