<svg xmlns="http://www.w3.org/2000/svg" width="20" height="20" version="1.2">
    <g font-weight="400" style="fill:none;fill-rule:evenodd;stroke:#000;stroke-width:1;stroke-linecap:square;stroke-linejoin:bevel">
        <g style="font-style:normal;font-weight:400;font-size:22.67709923px;font-family:icomoon;fill:#ff0;fill-opacity:1;stroke:none">
            <path d="M2.637-24.375h24.726c.723 0 1.343.259 1.86.776.518.518.777 1.138.777 1.86V2.989c0 .723-.259 1.343-.776 1.86a2.538 2.538 0 0 1-1.86.777H2.636a2.538 2.538 0 0 1-1.86-.776A2.538 2.538 0 0 1 0 2.989v-24.727c0-.723.259-1.343.776-1.86a2.538 2.538 0 0 1 1.86-.777" font-size="22.677" style="vector-effect:none;fill-rule:nonzero" transform="matrix(.66667 0 0 .66667 0 16.25)"/>
        </g>
        <g style="font-style:normal;font-weight:400;font-size:17.00779915px;font-family:icomoon;fill:#000;fill-opacity:1;stroke:none">
            <path d="M20.979-18.014a1.3 1.3 0 0 1 .954.393 1.3 1.3 0 0 1 .393.955V2.291a1.3 1.3 0 0 1-.393.955 1.3 1.3 0 0 1-.955.393H2.021a1.3 1.3 0 0 1-.954-.393 1.3 1.3 0 0 1-.393-.955v-18.957a1.3 1.3 0 0 1 .393-.955 1.3 1.3 0 0 1 .954-.393h18.957m0-.674H2.021c-.554 0-1.029.199-1.426.596A1.946 1.946 0 0 0 0-16.666V2.291c0 .554.198 1.03.595 1.426.397.397.872.595 1.426.595h18.957c.555 0 1.03-.198 1.427-.595.397-.397.595-.872.595-1.426v-18.957c0-.554-.198-1.03-.595-1.426a1.946 1.946 0 0 0-1.426-.596m-5.234 3.751c.554.135.951.554 1.19 1.258.24.704.255 1.49.046 2.359-.21.868-.584 1.557-1.124 2.066-.539.51-1.085.696-1.64.562-.553-.135-.95-.554-1.19-1.258s-.254-1.49-.045-2.359c.21-.868.588-1.557 1.135-2.066.546-.51 1.09-.696 1.628-.562m-4.088 2.09c.27 1.003.303 1.908.101 2.717-.202.809-.572 1.288-1.111 1.438-.555.134-1.12-.098-1.696-.697-.577-.599-1-1.4-1.27-2.403-.254-.988-.284-1.887-.09-2.695.195-.809.57-1.288 1.124-1.438.554-.15 1.12.079 1.696.685.576.607.992 1.404 1.246 2.392M8.063-8.423c.315.824.401 1.602.259 2.336-.142.734-.476 1.205-1 1.415-.524.21-1.09.094-1.696-.348-.606-.442-1.074-1.074-1.403-1.898-.315-.824-.4-1.602-.259-2.336.143-.734.476-1.205 1-1.415.524-.195 1.09-.075 1.696.36.606.434 1.074 1.063 1.403 1.886m11.882-.696c.405.404.547.954.427 1.65-.12.697-.472 1.33-1.056 1.899-.584.584-1.22.94-1.909 1.067-.689.127-1.235-.012-1.64-.416-.404-.404-.542-.95-.415-1.64.127-.688.475-1.325 1.044-1.909.584-.584 1.225-.936 1.92-1.055.697-.12 1.24.015 1.63.404m-2.314 8.018-4.403-5.323c-.18-.21-.4-.382-.662-.516a1.815 1.815 0 0 0-.842-.203c-.3 0-.58.064-.843.191a1.901 1.901 0 0 0-.662.528L5.84-1.1c-.12.135-.21.289-.27.46-.06.173-.09.356-.09.551 0 .135.02.27.057.404.037.135.086.255.146.36.12.224.288.404.505.539.217.135.46.202.73.202h.112c.255-.03.543-.079.865-.146l1.022-.213c.404-.12.839-.217 1.303-.292a21.47 21.47 0 0 1 1.415-.18h.067a17.577 17.577 0 0 1 2.897.494l-.112-.022 1.022.213c.322.067.61.116.865.146h.157c.27 0 .513-.067.73-.202.217-.135.378-.315.483-.54.075-.119.127-.246.157-.381s.045-.27.045-.404a1.566 1.566 0 0 0-.337-.989h.023" font-size="17.008" style="vector-effect:none;fill-rule:nonzero" transform="matrix(.66667 0 0 .66667 2.333 14.792)"/>
        </g>
        <g style="font-style:normal;font-weight:400;font-size:22.67709923px;font-family:icomoon;fill:#000;fill-opacity:1;stroke:none">
            <path d="M26.426-22.236c.39 0 .727.141 1.01.425.284.283.425.62.425 1.01V2.051c0 .39-.141.727-.425 1.01a1.38 1.38 0 0 1-1.01.425H3.574a1.38 1.38 0 0 1-1.01-.424 1.38 1.38 0 0 1-.425-1.011v-22.852c0-.39.141-.727.424-1.01a1.38 1.38 0 0 1 1.011-.425h22.852m0-.703H3.574c-.586 0-1.089.21-1.509.63-.42.42-.63.922-.63 1.508V2.051c0 .586.21 1.089.63 1.509.42.42.923.63 1.51.63h22.85c.587 0 1.09-.21 1.51-.63.42-.42.63-.923.63-1.51V-20.8c0-.587-.21-1.09-.63-1.51-.42-.42-.923-.63-1.51-.63m1.436-.732c.391 0 .728.142 1.011.425.283.283.425.62.425 1.01V3.487c0 .39-.142.728-.425 1.011a1.38 1.38 0 0 1-1.01.425H2.138a1.38 1.38 0 0 1-1.011-.425 1.38 1.38 0 0 1-.425-1.01v-25.723c0-.391.142-.728.425-1.011a1.38 1.38 0 0 1 1.01-.425h25.723m0-.703H2.14c-.586 0-1.09.21-1.51.63-.419.42-.629.923-.629 1.509V3.486c0 .586.21 1.09.63 1.51.42.419.923.629 1.509.629H27.86c.586 0 1.09-.21 1.51-.63.419-.42.629-.923.629-1.509v-25.722c0-.586-.21-1.09-.63-1.51-.42-.419-.923-.629-1.509-.629" font-size="22.677" style="vector-effect:none;fill-rule:nonzero" transform="matrix(.66667 0 0 .66667 0 16.25)"/>
        </g>
    </g>
</svg>
