<?xml version="1.0" encoding="UTF-8" standalone="no"?>
<svg
   xmlns:dc="http://purl.org/dc/elements/1.1/"
   xmlns:cc="http://creativecommons.org/ns#"
   xmlns:rdf="http://www.w3.org/1999/02/22-rdf-syntax-ns#"
   xmlns:svg="http://www.w3.org/2000/svg"
   xmlns="http://www.w3.org/2000/svg"
   xmlns:sodipodi="http://sodipodi.sourceforge.net/DTD/sodipodi-0.dtd"
   xmlns:inkscape="http://www.inkscape.org/namespaces/inkscape"
   width="20"
   height="20"
   viewBox="0 0 20 20"
   version="1.2"
   id="svg66"
   sodipodi:docname="60201050324.svg"
   inkscape:version="0.92.4 (5da689c313, 2019-01-14)">
  <metadata
     id="metadata70">
    <rdf:RDF>
      <cc:Work
         rdf:about="">
        <dc:format>image/svg+xml</dc:format>
        <dc:type
           rdf:resource="http://purl.org/dc/dcmitype/StillImage" />
      </cc:Work>
    </rdf:RDF>
  </metadata>
  <sodipodi:namedview
     pagecolor="#ffffff"
     bordercolor="#666666"
     borderopacity="1"
     objecttolerance="10"
     gridtolerance="10"
     guidetolerance="10"
     inkscape:pageopacity="0"
     inkscape:pageshadow="2"
     inkscape:window-width="1920"
     inkscape:window-height="1017"
     id="namedview68"
     showgrid="false"
     inkscape:zoom="11.8"
     inkscape:cx="-5.2542373"
     inkscape:cy="10"
     inkscape:window-x="-8"
     inkscape:window-y="-8"
     inkscape:window-maximized="1"
     inkscape:current-layer="g64" />
  <title
     id="title2">Qt SVG Document</title>
  <desc
     id="desc4">Generated with Qt</desc>
  <defs
     id="defs6" />
  <g
     id="g64"
     transform="matrix(0.69230769,0,0,0.69230769,0.92307692,6.6349413)"
     style="fill:none;fill-rule:evenodd;stroke:#000000;stroke-width:1;stroke-linecap:square;stroke-linejoin:bevel">
    <g
       transform="translate(16,16)"
       font-size="8.25"
       font-weight="400"
       font-style="normal"
       id="g8"
       style="font-style:normal;font-weight:400;font-size:8.25px;font-family:'MS Shell Dlg 2';fill:none;stroke:#000000;stroke-width:1;stroke-linecap:square;stroke-linejoin:bevel;stroke-opacity:1" />
    <g
       transform="matrix(1.33333,0,0,1.33333,16,16)"
       font-size="8.25"
       font-weight="400"
       font-style="normal"
       id="g10"
       style="font-style:normal;font-weight:400;font-size:8.25px;font-family:'MS Shell Dlg 2';fill:none;stroke:#000000;stroke-width:1;stroke-linecap:square;stroke-linejoin:bevel;stroke-opacity:1" />
    <g
       transform="translate(0.67419967,15.189031)"
       font-size="19.8425"
       font-weight="400"
       font-style="normal"
       id="g14"
       style="font-style:normal;font-weight:400;font-size:19.84250069px;font-family:icomoon;fill:#ffffff;fill-opacity:1;stroke:none" />
    <g
       transform="matrix(1.33333,0,0,1.33333,16,16)"
       font-size="8.25"
       font-weight="400"
       font-style="normal"
       id="g16"
       style="font-style:normal;font-weight:400;font-size:8.25px;font-family:'MS Shell Dlg 2';fill:none;stroke:#000000;stroke-width:1;stroke-linecap:square;stroke-linejoin:bevel;stroke-opacity:1" />
    <g
       transform="translate(16,16)"
       font-size="8.25"
       font-weight="400"
       font-style="normal"
       id="g18"
       style="font-style:normal;font-weight:400;font-size:8.25px;font-family:'MS Shell Dlg 2';fill:none;stroke:#000000;stroke-width:1;stroke-linecap:square;stroke-linejoin:bevel;stroke-opacity:1" />
    <g
       font-size="8.25"
       font-weight="400"
       font-style="normal"
       id="g20"
       style="font-style:normal;font-weight:400;font-size:8.25px;font-family:'MS Shell Dlg 2';fill:none;stroke:#000000;stroke-width:1;stroke-linecap:square;stroke-linejoin:bevel;stroke-opacity:1" />
    <g
       transform="translate(16,16)"
       font-size="8.25"
       font-weight="400"
       font-style="normal"
       id="g22"
       style="font-style:normal;font-weight:400;font-size:8.25px;font-family:'MS Shell Dlg 2';fill:none;stroke:#000000;stroke-width:1;stroke-linecap:square;stroke-linejoin:bevel;stroke-opacity:1" />
    <g
       transform="matrix(1.33333,0,0,1.33333,16,16)"
       font-size="8.25"
       font-weight="400"
       font-style="normal"
       id="g24"
       style="font-style:normal;font-weight:400;font-size:8.25px;font-family:'MS Shell Dlg 2';fill:none;stroke:#000000;stroke-width:1;stroke-linecap:square;stroke-linejoin:bevel;stroke-opacity:1" />
    <g
       transform="matrix(1.33333,0,0,1.33333,16,16)"
       font-size="8.25"
       font-weight="400"
       font-style="normal"
       id="g30"
       style="font-style:normal;font-weight:400;font-size:8.25px;font-family:'MS Shell Dlg 2';fill:none;stroke:#000000;stroke-width:1;stroke-linecap:square;stroke-linejoin:bevel;stroke-opacity:1" />
    <g
       transform="translate(16,16)"
       font-size="8.25"
       font-weight="400"
       font-style="normal"
       id="g32"
       style="font-style:normal;font-weight:400;font-size:8.25px;font-family:'MS Shell Dlg 2';fill:none;stroke:#000000;stroke-width:1;stroke-linecap:square;stroke-linejoin:bevel;stroke-opacity:1" />
    <g
       font-size="8.25"
       font-weight="400"
       font-style="normal"
       id="g34"
       style="font-style:normal;font-weight:400;font-size:8.25px;font-family:'MS Shell Dlg 2';fill:none;stroke:#000000;stroke-width:1;stroke-linecap:square;stroke-linejoin:bevel;stroke-opacity:1" />
    <g
       transform="translate(16,16)"
       font-size="8.25"
       font-weight="400"
       font-style="normal"
       id="g36"
       style="font-style:normal;font-weight:400;font-size:8.25px;font-family:'MS Shell Dlg 2';fill:none;stroke:#000000;stroke-width:1;stroke-linecap:square;stroke-linejoin:bevel;stroke-opacity:1" />
    <g
       transform="matrix(1.33333,0,0,1.33333,16,16)"
       font-size="8.25"
       font-weight="400"
       font-style="normal"
       id="g38"
       style="font-style:normal;font-weight:400;font-size:8.25px;font-family:'MS Shell Dlg 2';fill:none;stroke:#000000;stroke-width:1;stroke-linecap:square;stroke-linejoin:bevel;stroke-opacity:1" />
    <g
       transform="matrix(1.33333,0,0,1.33333,16,16)"
       font-size="8.25"
       font-weight="400"
       font-style="normal"
       id="g44"
       style="font-style:normal;font-weight:400;font-size:8.25px;font-family:'MS Shell Dlg 2';fill:none;stroke:#000000;stroke-width:1;stroke-linecap:square;stroke-linejoin:bevel;stroke-opacity:1" />
    <g
       transform="translate(16,16)"
       font-size="8.25"
       font-weight="400"
       font-style="normal"
       id="g46"
       style="font-style:normal;font-weight:400;font-size:8.25px;font-family:'MS Shell Dlg 2';fill:none;stroke:#000000;stroke-width:1;stroke-linecap:square;stroke-linejoin:bevel;stroke-opacity:1" />
    <g
       font-size="8.25"
       font-weight="400"
       font-style="normal"
       id="g48"
       style="font-style:normal;font-weight:400;font-size:8.25px;font-family:'MS Shell Dlg 2';fill:none;stroke:#000000;stroke-width:1;stroke-linecap:square;stroke-linejoin:bevel;stroke-opacity:1" />
    <g
       transform="translate(16,16)"
       font-size="8.25"
       font-weight="400"
       font-style="normal"
       id="g50"
       style="font-style:normal;font-weight:400;font-size:8.25px;font-family:'MS Shell Dlg 2';fill:none;stroke:#000000;stroke-width:1;stroke-linecap:square;stroke-linejoin:bevel;stroke-opacity:1" />
    <g
       transform="matrix(1.33333,0,0,1.33333,16,16)"
       font-size="8.25"
       font-weight="400"
       font-style="normal"
       id="g52"
       style="font-style:normal;font-weight:400;font-size:8.25px;font-family:'MS Shell Dlg 2';fill:none;stroke:#000000;stroke-width:1;stroke-linecap:square;stroke-linejoin:bevel;stroke-opacity:1" />
    <g
       id="g45"
       transform="translate(-0.19585685)">
      <path
         style="font-style:normal;font-weight:400;font-size:19.84250069px;font-family:icomoon;vector-effect:none;fill:#ffffff;fill-opacity:1;fill-rule:nonzero;stroke:none;stroke-width:1;stroke-linecap:square;stroke-linejoin:bevel"
         inkscape:connector-curvature="0"
         id="path12"
         d="M 1.9179284,-23.32839 H 23.347568 c 0.6263,0 1.1638,0.2243 1.6123,0.6729 0.4486,0.4485 0.6729,0.986 0.6729,1.6123 V 0.38645016 c 0,0.62631004 -0.2243,1.16374004 -0.6729,1.61231004 -0.4485,0.44857 -0.986,0.67285 -1.6123,0.67285 H 1.9179284 c -0.62631,0 -1.16374004,-0.22428 -1.61230804,-0.67285 -0.448568,-0.44857 -0.672852,-0.986 -0.672852,-1.61231004 V -21.04319 c 0,-0.6263 0.224284,-1.1638 0.672852,-1.6123 0.448568,-0.4486 0.98599804,-0.6729 1.61230804,-0.6729"
         transform="translate(0.67419962,15.189031)" />
      <g
         style="font-style:normal;font-weight:400;font-size:17.00779915px;font-family:icomoon;fill:#000000;fill-opacity:1;stroke:none"
         id="g28"
         font-style="normal"
         font-weight="400"
         font-size="17.0078"
         transform="translate(1.8069681,12.048141)">
        <path
           style="vector-effect:none;fill-rule:nonzero"
           inkscape:connector-curvature="0"
           id="path26"
           d="m 20.9785,-18.0137 c 0.3744,0 0.6926,0.1311 0.9546,0.3931 0.262,0.262 0.3931,0.5802 0.3931,0.9546 V 2.29102 c 0,0.37434 -0.1311,0.69254 -0.3931,0.95459 -0.262,0.26204 -0.5802,0.39306 -0.9546,0.39306 H 2.02148 C 1.64714,3.63867 1.32894,3.50765 1.06689,3.24561 0.80485,2.98356 0.673828,2.66536 0.673828,2.29102 V -16.666 c 0,-0.3744 0.131022,-0.6926 0.393062,-0.9546 0.26205,-0.262 0.58025,-0.3931 0.95459,-0.3931 H 20.9785 m 0,-0.6738 H 2.02148 c -0.55403,0 -1.029455,0.1984 -1.426265,0.5952 C 0.198405,-17.6955 0,-17.2201 0,-16.666 V 2.29102 C 0,2.84505 0.198405,3.32048 0.595215,3.71729 0.992025,4.1141 1.46745,4.3125 2.02148,4.3125 H 20.9785 c 0.5541,0 1.0295,-0.1984 1.4263,-0.59521 C 22.8016,3.32048 23,2.84505 23,2.29102 V -16.666 c 0,-0.5541 -0.1984,-1.0295 -0.5952,-1.4263 -0.3968,-0.3968 -0.8722,-0.5952 -1.4263,-0.5952 M 19.1816,-0.763672 H 17.5869 L 15.7227,-5.95215 c -0.015,-0.02995 -0.03,-0.05241 -0.045,-0.06738 -0.0149,-0.01498 -0.0299,-0.03744 -0.0449,-0.06738 -0.015,-0.01498 -0.0262,-0.02995 -0.0337,-0.04493 -0.0075,-0.01497 -0.0187,-0.02994 -0.0337,-0.04492 -0.0149,-0.01497 -0.0299,-0.02995 -0.0449,-0.04492 -0.015,-0.01497 -0.0299,-0.02246 -0.0449,-0.02246 h -0.0225 c 0,0 -0.0112,-0.01123 -0.0337,-0.03369 -0.0224,-0.02246 -0.0411,-0.03369 -0.0561,-0.03369 H 8.58008 v -1.95411 h 5.75002 c 0.1797,0 0.3369,-0.06363 0.4717,-0.19091 0.1347,-0.12728 0.2021,-0.28825 0.2021,-0.48291 0,-0.17969 -0.0674,-0.33692 -0.2021,-0.47168 -0.1348,-0.13477 -0.292,-0.20215 -0.4717,-0.20215 H 8.58008 v -3.12212 c 0.52409,-0.0449 0.96582,-0.2583 1.32519,-0.6401 0.35933,-0.3818 0.53903,-0.8423 0.53903,-1.3813 0,-0.569 -0.1984,-1.0482 -0.59518,-1.4375 -0.39681,-0.3894 -0.87223,-0.584 -1.42627,-0.584 -0.55403,0 -1.02946,0.1946 -1.42627,0.584 -0.39681,0.3893 -0.59521,0.8685 -0.59521,1.4375 0,0.3294 0.07487,0.6364 0.22461,0.9209 0.14974,0.2845 0.3444,0.5166 0.58398,0.6963 v 0.0224 3.84083 c -0.58398,0.20964 -1.13053,0.49414 -1.63965,0.85352 -0.49414,0.37435 -0.9209,0.80859 -1.28027,1.30273 -0.35938,0.49414 -0.63639,1.04069 -0.83106,1.63965 -0.19466,0.59896 -0.29199,1.22038 -0.29199,1.86426 0,0.83854 0.15723,1.61719 0.47168,2.33594 0.31446,0.733721 0.74121,1.3738572 1.28028,1.920407 0.53906,0.546553 1.17545,0.977053 1.90918,1.291503 0.73372,0.31445 1.51236,0.47168 2.33593,0.47168 0.8086,0 1.57224,-0.15723 2.29104,-0.47168 0.7187,-0.29948 1.3476,-0.71126 1.8867,-1.235351 0.5391,-0.524088 0.9733,-1.138021 1.3027,-1.841799 0.3145,-0.71875 0.4867,-1.47493 0.5166,-2.26855 v -0.02246 l 1.2803,3.571286 c 0,0.014974 0.0037,0.029948 0.0112,0.044922 0.0075,0.014973 0.0188,0.02246 0.0337,0.02246 0.015,0.029948 0.03,0.056153 0.045,0.078614 0.0149,0.022461 0.0299,0.048665 0.0449,0.078613 l 0.0449,0.044922 c 0.0299,0.014974 0.0561,0.029948 0.0786,0.044922 0.0225,0.014974 0.0412,0.029948 0.0562,0.044922 l 0.0673,0.022461 c 0.045,0.014974 0.0861,0.026204 0.1236,0.033691 0.0374,0.007487 0.0786,0.01123 0.1235,0.01123 h 2.0889 c 0.1797,0 0.3369,-0.063639 0.4717,-0.190918 0.1347,-0.127278 0.2021,-0.2882482 0.2021,-0.48291 0,-0.179687 -0.0674,-0.336914 -0.2021,-0.471679 -0.1348,-0.134766 -0.292,-0.202149 -0.4717,-0.202149 l 0.0224,0.022461 M 9.16406,1.05566 c 0,0 -0.00374,0 -0.01123,0 -0.00748,0 -0.01123,0 -0.01123,0 -0.64388,0 -1.24284,-0.127275 -1.79687,-0.381832 C 6.77572,0.434245 6.28158,0.104818 5.8623,-0.314453 5.44303,-0.733724 5.11361,-1.22786 4.87402,-1.79688 4.61947,-2.36589 4.49219,-2.96484 4.49219,-3.59375 c 0,-0.94336 0.25081,-1.78939 0.75244,-2.53809 0.50163,-0.74869 1.14925,-1.31022 1.94287,-1.68457 l 0.02246,-0.02246 v 2.11133 c 0,0.19466 0.06738,0.35563 0.20215,0.48291 0.13477,0.12728 0.29199,0.19092 0.47168,0.19092 h 5.70511 c 0.0748,0.22461 0.131,0.4567 0.1684,0.69629 0.0375,0.23958 0.0562,0.48665 0.0562,0.74121 0,0 0,0.00749 0,0.02246 0,0.62891 -0.1198,1.22786 -0.3594,1.79687 -0.2546,0.56902 -0.5915,1.063156 -1.0107,1.482427 C 12.0241,0.104818 11.5299,0.434245 10.9609,0.673828 10.4069,0.928385 9.80794,1.05566 9.16406,1.05566" />
      </g>
      <g
         style="font-style:normal;font-weight:400;font-size:19.84250069px;font-family:icomoon;fill:#000000;fill-opacity:1;stroke:none"
         id="g42"
         font-style="normal"
         font-weight="400"
         font-size="19.8425"
         transform="translate(0.30696803,12.985641)">
        <path
           style="vector-effect:none;fill-rule:nonzero"
           inkscape:connector-curvature="0"
           id="path40"
           d="m 23.9434,-20.4395 c 0.3724,0 0.694,0.1355 0.9648,0.4063 0.2708,0.2708 0.4063,0.5924 0.4063,0.9648 V 2.81836 c 0,0.3724 -0.1355,0.69401 -0.4063,0.96484 -0.2708,0.27084 -0.5924,0.40625 -0.9648,0.40625 H 2.05664 C 1.68424,4.18945 1.36263,4.05404 1.0918,3.7832 0.820964,3.51237 0.685547,3.19076 0.685547,2.81836 V -19.0684 c 0,-0.3724 0.135417,-0.694 0.406253,-0.9648 0.27083,-0.2708 0.59244,-0.4063 0.96484,-0.4063 H 23.9434 m 0,-0.6855 H 2.05664 c -0.57552,0 -1.062174,0.1989 -1.45996,0.5967 C 0.198893,-20.1305 0,-19.6439 0,-19.0684 V 2.81836 C 0,3.39388 0.198893,3.88053 0.59668,4.27832 0.994466,4.67611 1.48112,4.875 2.05664,4.875 H 23.9434 c 0.5755,0 1.0621,-0.19889 1.4599,-0.59668 C 25.8011,3.88053 26,3.39388 26,2.81836 V -19.0684 c 0,-0.5755 -0.1989,-1.0621 -0.5967,-1.4599 -0.3978,-0.3978 -0.8844,-0.5967 -1.4599,-0.5967" />
      </g>
      <g
         style="font-style:normal;font-weight:400;font-size:18.70859909px;font-family:icomoon;fill:#ff0000;fill-opacity:1;stroke:none"
         id="g56"
         font-style="normal"
         font-weight="400"
         font-size="18.7086"
         transform="translate(0.80696806,12.673141)">
        <path
           style="vector-effect:none;fill-rule:nonzero"
           inkscape:connector-curvature="0"
           id="path54"
           d="M 0.78125,4.6875 C 0.667318,4.6875 0.565592,4.66715 0.476074,4.62646 0.386556,4.58577 0.301107,4.53288 0.219727,4.46777 0.154622,4.38639 0.101725,4.30094 0.0610352,4.21143 0.0203451,4.12191 0,4.02018 0,3.90625 0,3.79232 0.0203451,3.69059 0.0610352,3.60107 0.101725,3.51156 0.154622,3.42611 0.219727,3.34473 L 23.6572,-20.0928 c 0.0814,-0.0651 0.1669,-0.118 0.2564,-0.1587 0.0895,-0.0407 0.1912,-0.061 0.3052,-0.061 0.2115,0 0.3946,0.0773 0.5493,0.2319 0.1546,0.1547 0.2319,0.3378 0.2319,0.5493 0,0.114 -0.0203,0.2157 -0.061,0.3052 -0.0407,0.0895 -0.0936,0.175 -0.1587,0.2564 L 1.34277,4.46777 C 1.26139,4.53288 1.17594,4.58577 1.08643,4.62646 0.996908,4.66715 0.895182,4.6875 0.78125,4.6875" />
      </g>
    </g>
    <g
       transform="matrix(1.33333,0,0,1.33333,16,16)"
       font-size="8.25"
       font-weight="400"
       font-style="normal"
       id="g58"
       style="font-style:normal;font-weight:400;font-size:8.25px;font-family:'MS Shell Dlg 2';fill:none;stroke:#000000;stroke-width:1;stroke-linecap:square;stroke-linejoin:bevel;stroke-opacity:1" />
    <g
       transform="translate(16,16)"
       font-size="8.25"
       font-weight="400"
       font-style="normal"
       id="g60"
       style="font-style:normal;font-weight:400;font-size:8.25px;font-family:'MS Shell Dlg 2';fill:none;stroke:#000000;stroke-width:1;stroke-linecap:square;stroke-linejoin:bevel;stroke-opacity:1" />
    <g
       font-size="8.25"
       font-weight="400"
       font-style="normal"
       id="g62"
       style="font-style:normal;font-weight:400;font-size:8.25px;font-family:'MS Shell Dlg 2';fill:none;stroke:#000000;stroke-width:1;stroke-linecap:square;stroke-linejoin:bevel;stroke-opacity:1" />
  </g>
</svg>
