<?xml version="1.0" encoding="UTF-8" standalone="no"?>
<svg
   xmlns:dc="http://purl.org/dc/elements/1.1/"
   xmlns:cc="http://creativecommons.org/ns#"
   xmlns:rdf="http://www.w3.org/1999/02/22-rdf-syntax-ns#"
   xmlns:svg="http://www.w3.org/2000/svg"
   xmlns="http://www.w3.org/2000/svg"
   xmlns:sodipodi="http://sodipodi.sourceforge.net/DTD/sodipodi-0.dtd"
   xmlns:inkscape="http://www.inkscape.org/namespaces/inkscape"
   width="20"
   height="20"
   viewBox="0 0 20 20"
   version="1.2"
   id="svg52"
   sodipodi:docname="60201050121.svg"
   inkscape:version="0.92.4 (5da689c313, 2019-01-14)">
  <metadata
     id="metadata56">
    <rdf:RDF>
      <cc:Work
         rdf:about="">
        <dc:format>image/svg+xml</dc:format>
        <dc:type
           rdf:resource="http://purl.org/dc/dcmitype/StillImage" />
      </cc:Work>
    </rdf:RDF>
  </metadata>
  <sodipodi:namedview
     pagecolor="#ffffff"
     bordercolor="#666666"
     borderopacity="1"
     objecttolerance="10"
     gridtolerance="10"
     guidetolerance="10"
     inkscape:pageopacity="0"
     inkscape:pageshadow="2"
     inkscape:window-width="1920"
     inkscape:window-height="1017"
     id="namedview54"
     showgrid="false"
     inkscape:zoom="11.8"
     inkscape:cx="-5.2542373"
     inkscape:cy="10"
     inkscape:window-x="-8"
     inkscape:window-y="-8"
     inkscape:window-maximized="1"
     inkscape:current-layer="svg52" />
  <title
     id="title2">Qt SVG Document</title>
  <desc
     id="desc4">Generated with Qt</desc>
  <defs
     id="defs6" />
  <g
     id="g50"
     transform="matrix(0.69230769,0,0,0.69230769,-1.076923,-1.076923)"
     style="fill:none;fill-rule:evenodd;stroke:#000000;stroke-width:1;stroke-linecap:square;stroke-linejoin:bevel">
    <g
       transform="translate(16,16)"
       font-size="8.25"
       font-weight="400"
       font-style="normal"
       id="g8"
       style="font-style:normal;font-weight:400;font-size:8.25px;font-family:'MS Shell Dlg 2';fill:none;stroke:#000000;stroke-width:1;stroke-linecap:square;stroke-linejoin:bevel;stroke-opacity:1" />
    <g
       transform="matrix(1.33333,0,0,1.33333,16,16)"
       font-size="8.25"
       font-weight="400"
       font-style="normal"
       id="g10"
       style="font-style:normal;font-weight:400;font-size:8.25px;font-family:'MS Shell Dlg 2';fill:none;stroke:#000000;stroke-width:1;stroke-linecap:square;stroke-linejoin:bevel;stroke-opacity:1" />
    <g
       transform="translate(3,24.125)"
       font-size="19.8425"
       font-weight="400"
       font-style="normal"
       id="g14"
       style="font-style:normal;font-weight:400;font-size:19.84250069px;font-family:icomoon;fill:#ffffff;fill-opacity:1;stroke:none">
      <path
         d="M 2.28516,-21.125 H 23.7148 c 0.6263,0 1.1638,0.2243 1.6123,0.6729 0.4486,0.4485 0.6729,0.986 0.6729,1.6123 V 2.58984 C 26,3.21615 25.7757,3.75358 25.3271,4.20215 24.8786,4.65072 24.3411,4.875 23.7148,4.875 H 2.28516 C 1.65885,4.875 1.12142,4.65072 0.672852,4.20215 0.224284,3.75358 0,3.21615 0,2.58984 V -18.8398 c 0,-0.6263 0.224284,-1.1638 0.672852,-1.6123 0.448568,-0.4486 0.985998,-0.6729 1.612308,-0.6729"
         id="path12"
         inkscape:connector-curvature="0"
         style="vector-effect:none;fill-rule:nonzero" />
    </g>
    <g
       transform="matrix(1.33333,0,0,1.33333,16,16)"
       font-size="8.25"
       font-weight="400"
       font-style="normal"
       id="g16"
       style="font-style:normal;font-weight:400;font-size:8.25px;font-family:'MS Shell Dlg 2';fill:none;stroke:#000000;stroke-width:1;stroke-linecap:square;stroke-linejoin:bevel;stroke-opacity:1" />
    <g
       transform="translate(16,16)"
       font-size="8.25"
       font-weight="400"
       font-style="normal"
       id="g18"
       style="font-style:normal;font-weight:400;font-size:8.25px;font-family:'MS Shell Dlg 2';fill:none;stroke:#000000;stroke-width:1;stroke-linecap:square;stroke-linejoin:bevel;stroke-opacity:1" />
    <g
       font-size="8.25"
       font-weight="400"
       font-style="normal"
       id="g20"
       style="font-style:normal;font-weight:400;font-size:8.25px;font-family:'MS Shell Dlg 2';fill:none;stroke:#000000;stroke-width:1;stroke-linecap:square;stroke-linejoin:bevel;stroke-opacity:1" />
    <g
       transform="translate(16,16)"
       font-size="8.25"
       font-weight="400"
       font-style="normal"
       id="g22"
       style="font-style:normal;font-weight:400;font-size:8.25px;font-family:'MS Shell Dlg 2';fill:none;stroke:#000000;stroke-width:1;stroke-linecap:square;stroke-linejoin:bevel;stroke-opacity:1" />
    <g
       transform="matrix(1.33333,0,0,1.33333,16,16)"
       font-size="8.25"
       font-weight="400"
       font-style="normal"
       id="g24"
       style="font-style:normal;font-weight:400;font-size:8.25px;font-family:'MS Shell Dlg 2';fill:none;stroke:#000000;stroke-width:1;stroke-linecap:square;stroke-linejoin:bevel;stroke-opacity:1" />
    <g
       transform="translate(4.5,23.1875)"
       font-size="17.0078"
       font-weight="400"
       font-style="normal"
       id="g28"
       style="font-style:normal;font-weight:400;font-size:17.00779915px;font-family:icomoon;fill:#000000;fill-opacity:1;stroke:none">
      <path
         d="m 20.9785,-18.0137 c 0.3744,0 0.6926,0.1311 0.9546,0.3931 0.262,0.262 0.3931,0.5802 0.3931,0.9546 V 2.29102 c 0,0.37434 -0.1311,0.69254 -0.3931,0.95459 -0.262,0.26204 -0.5802,0.39306 -0.9546,0.39306 H 2.02148 C 1.64714,3.63867 1.32894,3.50765 1.06689,3.24561 0.80485,2.98356 0.673828,2.66536 0.673828,2.29102 V -16.666 c 0,-0.3744 0.131022,-0.6926 0.393062,-0.9546 0.26205,-0.262 0.58025,-0.3931 0.95459,-0.3931 H 20.9785 m 0,-0.6738 H 2.02148 c -0.55403,0 -1.029455,0.1984 -1.426265,0.5952 C 0.198405,-17.6955 0,-17.2201 0,-16.666 V 2.29102 C 0,2.84505 0.198405,3.32048 0.595215,3.71729 0.992025,4.1141 1.46745,4.3125 2.02148,4.3125 H 20.9785 c 0.5541,0 1.0295,-0.1984 1.4263,-0.59521 C 22.8016,3.32048 23,2.84505 23,2.29102 V -16.666 c 0,-0.5541 -0.1984,-1.0295 -0.5952,-1.4263 -0.3968,-0.3968 -0.8722,-0.5952 -1.4263,-0.5952 m -7.8164,4.3125 c 0,0.4492 -0.161,0.8348 -0.4829,1.1567 -0.3219,0.322 -0.715,0.4829 -1.1792,0.4829 -0.4492,0 -0.8348,-0.1609 -1.1567,-0.4829 -0.322,-0.3219 -0.48295,-0.7075 -0.48295,-1.1567 0,-0.4642 0.16095,-0.8573 0.48295,-1.1792 0.3219,-0.3219 0.7075,-0.4829 1.1567,-0.4829 0.4642,0 0.8573,0.161 1.1792,0.4829 0.3219,0.3219 0.4829,0.715 0.4829,1.1792 m -2.6055,7.74902 0.337,-0.29199 c 0.1048,-0.07487 0.1834,-0.16846 0.2358,-0.28076 0.0524,-0.11231 0.0786,-0.22835 0.0786,-0.34815 0,-0.23958 -0.0786,-0.43798 -0.2358,-0.59521 -0.1573,-0.15723 -0.3557,-0.23584 -0.5952,-0.23584 -0.0899,0 -0.1797,0.01497 -0.2696,0.04492 -0.0898,0.02995 -0.17218,0.07487 -0.24705,0.13477 L 8.84961,-7.38965 C 8.75977,-7.31478 8.6849,-7.22119 8.625,-7.10889 c -0.0599,0.11231 -0.08984,0.23584 -0.08984,0.37061 0,0.08984 0.01871,0.18343 0.05615,0.28076 0.03743,0.09733 0.0861,0.18343 0.14599,0.2583 l 1.19043,1.34766 c 0.07487,0.08984 0.16467,0.16097 0.26957,0.21338 0.1048,0.05241 0.2246,0.07861 0.3593,0.07861 0.2247,-0.01497 0.4156,-0.10107 0.5728,-0.2583 0.1572,-0.15723 0.2358,-0.34815 0.2358,-0.57276 0,-0.10481 -0.0149,-0.20214 -0.0449,-0.29199 -0.0299,-0.08984 -0.0749,-0.16471 -0.1348,-0.22461 l -0.6289,-0.71875 m 4.7393,-3.09961 -2.0439,-2.44821 c -0.015,-0.03 -0.0375,-0.0599 -0.0674,-0.0899 -0.03,-0.0299 -0.0599,-0.0524 -0.0899,-0.0674 -0.0449,-0.0599 -0.0973,-0.1048 -0.1572,-0.1347 -0.0599,-0.03 -0.1198,-0.0449 -0.1797,-0.0449 h -2.4932 c -0.0748,0 -0.1385,0.0149 -0.1909,0.0449 -0.0524,0.0299 -0.10104,0.0674 -0.14597,0.1123 v 0.0224 c -0.02994,0.015 -0.05989,0.0375 -0.08984,0.0674 -0.02995,0.03 -0.0599,0.0599 -0.08984,0.0899 l -2.02149,2.44821 c -0.05989,0.0599 -0.10856,0.13851 -0.14599,0.23584 -0.03744,0.09733 -0.05616,0.19092 -0.05616,0.28077 0,0.2246 0.08236,0.41927 0.24707,0.58398 0.16472,0.16471 0.35938,0.24707 0.58399,0.24707 0.13476,0 0.25456,-0.0262 0.35937,-0.07861 0.10482,-0.05241 0.19467,-0.12354 0.26954,-0.21338 l 0.87597,-1.05567 v 0.51661 c 0,0.10481 0.04118,0.1984 0.12354,0.28076 0.08231,0.08235 0.17591,0.12353 0.28071,0.12353 h 2.4932 c 0.1048,0 0.1984,-0.04118 0.2808,-0.12353 0.0823,-0.08236 0.1235,-0.17595 0.1235,-0.28076 v -0.51661 l 0.8535,1.03321 c 0.0749,0.08984 0.1685,0.16097 0.2808,0.21338 0.1123,0.0524 0.2358,0.07861 0.3706,0.07861 0.0898,0 0.1797,-0.01497 0.2695,-0.04492 0.0899,-0.02995 0.1722,-0.07487 0.2471,-0.13477 0.0898,-0.07487 0.161,-0.16846 0.2134,-0.28076 0.0524,-0.1123 0.0786,-0.22835 0.0786,-0.34814 0,-0.10482 -0.0187,-0.20215 -0.0562,-0.292 -0.0374,-0.08984 -0.0786,-0.16471 -0.1235,-0.22461 m -1.1455,2.33594 -1.0108,-0.80859 c -0.0748,-0.0599 -0.1572,-0.10482 -0.247,-0.13477 -0.0899,-0.02995 -0.1797,-0.04492 -0.2696,-0.04492 -0.2395,0 -0.4379,0.07861 -0.5952,0.23584 -0.1572,0.15723 -0.2358,0.35563 -0.2358,0.59521 0,0.1198 0.0262,0.23584 0.0786,0.34815 0.0524,0.1123 0.131,0.20589 0.2358,0.28076 l 0.337,0.29199 -0.6289,0.71875 c -0.0599,0.07487 -0.1086,0.15723 -0.146,0.24707 -0.0375,0.08985 -0.0562,0.18718 -0.0562,0.292 0,0.22461 0.0824,0.41927 0.2471,0.58398 0.1647,0.16471 0.3594,0.24707 0.584,0.24707 0.1347,0 0.2545,-0.0262 0.3593,-0.07861 0.1049,-0.05241 0.1947,-0.12354 0.2696,-0.21338 l 1.1904,-1.34766 c 0.0599,-0.07487 0.1086,-0.15722 0.146,-0.24707 0.0374,-0.08984 0.0561,-0.18717 0.0561,-0.29199 0,-0.13477 -0.0299,-0.2583 -0.0898,-0.37061 -0.0599,-0.1123 -0.1348,-0.20589 -0.2246,-0.28076 v -0.02246 m -3.5039,6.760744 c 0.0749,-0.07487 0.131,-0.168457 0.1684,-0.280762 0.0375,-0.112302 0.0562,-0.228352 0.0562,-0.348142 0,-0.11979 -0.015,-0.22836 -0.0449,-0.32569 -0.03,-0.09733 -0.0749,-0.18343 -0.1348,-0.2583 L 6.76074,-7.43457 C 6.6709,-7.58431 6.55111,-7.7041 6.40137,-7.79395 6.25163,-7.88379 6.08691,-7.92871 5.90723,-7.92871 c -0.28451,0 -0.52784,0.10107 -0.72998,0.30322 -0.20215,0.20215 -0.30323,0.44548 -0.30323,0.72998 0,0.11979 0.02246,0.2321 0.06739,0.33692 0.04492,0.10481 0.09733,0.20214 0.15722,0.29199 l 1.66211,2.38086 H 6.37891 L 4.85156,-6.06445 C 4.76172,-6.18424 4.69808,-6.30778 4.66064,-6.43506 4.62321,-6.56234 4.60449,-6.70085 4.60449,-6.85059 c 0,-0.22461 0.05241,-0.43424 0.15723,-0.6289 0.10482,-0.19466 0.23958,-0.35189 0.4043,-0.47168 0.04492,-0.02995 0.09358,-0.05615 0.14599,-0.07862 0.05241,-0.02246 0.10108,-0.04866 0.146,-0.07861 v -5.0537 c 0,-0.2396 -0.08236,-0.4417 -0.24707,-0.6065 -0.16472,-0.1647 -0.35938,-0.247 -0.58399,-0.247 -0.23958,0 -0.44173,0.0823 -0.60644,0.247 -0.16472,0.1648 -0.24707,0.3669 -0.24707,0.6065 v 7.8164 l 3.43652,5.053708 V 1.66211 h 3.50394 v -1.864258 l -0.0674,0.044921 v -0.471679 m 1.707,0 c -0.0749,-0.07487 -0.131,-0.168457 -0.1684,-0.280762 -0.0375,-0.112302 -0.0562,-0.228352 -0.0562,-0.348142 0,-0.11979 0.015,-0.22836 0.0449,-0.32569 0.03,-0.09733 0.0749,-0.18343 0.1348,-0.2583 l 3.9307,-5.59277 c 0.0898,-0.14974 0.2096,-0.26953 0.3593,-0.35938 0.1498,-0.08984 0.3145,-0.13476 0.4942,-0.13476 0.2845,0 0.5278,0.10107 0.73,0.30322 0.2021,0.20215 0.3032,0.44548 0.3032,0.72998 0,0.11979 -0.0225,0.2321 -0.0674,0.33692 -0.0449,0.10481 -0.0973,0.20214 -0.1572,0.29199 l -1.6621,2.38086 h 0.4043 l 1.5273,-2.17871 c 0.0749,-0.11979 0.1348,-0.24333 0.1797,-0.37061 0.0449,-0.12728 0.0674,-0.26579 0.0674,-0.41553 0,-0.22461 -0.0524,-0.43424 -0.1573,-0.6289 -0.1048,-0.19466 -0.2395,-0.35189 -0.4043,-0.47168 -0.0449,-0.02995 -0.0935,-0.05615 -0.146,-0.07862 -0.0524,-0.02246 -0.101,-0.04866 -0.1459,-0.07861 v -5.0537 c 0,-0.2396 0.0823,-0.4417 0.247,-0.6065 0.1647,-0.1647 0.3594,-0.247 0.584,-0.247 0.2396,0 0.4417,0.0823 0.6065,0.247 0.1647,0.1648 0.247,0.3669 0.247,0.6065 v 7.8164 l -3.4365,5.053708 V 1.66211 h -3.5264 v -1.864258 l 0.0674,0.044921 v -0.471679"
         id="path26"
         inkscape:connector-curvature="0"
         style="vector-effect:none;fill-rule:nonzero" />
    </g>
    <g
       transform="matrix(1.33333,0,0,1.33333,16,16)"
       font-size="8.25"
       font-weight="400"
       font-style="normal"
       id="g30"
       style="font-style:normal;font-weight:400;font-size:8.25px;font-family:'MS Shell Dlg 2';fill:none;stroke:#000000;stroke-width:1;stroke-linecap:square;stroke-linejoin:bevel;stroke-opacity:1" />
    <g
       transform="translate(16,16)"
       font-size="8.25"
       font-weight="400"
       font-style="normal"
       id="g32"
       style="font-style:normal;font-weight:400;font-size:8.25px;font-family:'MS Shell Dlg 2';fill:none;stroke:#000000;stroke-width:1;stroke-linecap:square;stroke-linejoin:bevel;stroke-opacity:1" />
    <g
       font-size="8.25"
       font-weight="400"
       font-style="normal"
       id="g34"
       style="font-style:normal;font-weight:400;font-size:8.25px;font-family:'MS Shell Dlg 2';fill:none;stroke:#000000;stroke-width:1;stroke-linecap:square;stroke-linejoin:bevel;stroke-opacity:1" />
    <g
       transform="translate(16,16)"
       font-size="8.25"
       font-weight="400"
       font-style="normal"
       id="g36"
       style="font-style:normal;font-weight:400;font-size:8.25px;font-family:'MS Shell Dlg 2';fill:none;stroke:#000000;stroke-width:1;stroke-linecap:square;stroke-linejoin:bevel;stroke-opacity:1" />
    <g
       transform="matrix(1.33333,0,0,1.33333,16,16)"
       font-size="8.25"
       font-weight="400"
       font-style="normal"
       id="g38"
       style="font-style:normal;font-weight:400;font-size:8.25px;font-family:'MS Shell Dlg 2';fill:none;stroke:#000000;stroke-width:1;stroke-linecap:square;stroke-linejoin:bevel;stroke-opacity:1" />
    <g
       transform="translate(3,24.125)"
       font-size="19.8425"
       font-weight="400"
       font-style="normal"
       id="g42"
       style="font-style:normal;font-weight:400;font-size:19.84250069px;font-family:icomoon;fill:#000000;fill-opacity:1;stroke:none">
      <path
         d="m 23.9434,-20.4395 c 0.3724,0 0.694,0.1355 0.9648,0.4063 0.2708,0.2708 0.4063,0.5924 0.4063,0.9648 V 2.81836 c 0,0.3724 -0.1355,0.69401 -0.4063,0.96484 -0.2708,0.27084 -0.5924,0.40625 -0.9648,0.40625 H 2.05664 C 1.68424,4.18945 1.36263,4.05404 1.0918,3.7832 0.820964,3.51237 0.685547,3.19076 0.685547,2.81836 V -19.0684 c 0,-0.3724 0.135417,-0.694 0.406253,-0.9648 0.27083,-0.2708 0.59244,-0.4063 0.96484,-0.4063 H 23.9434 m 0,-0.6855 H 2.05664 c -0.57552,0 -1.062174,0.1989 -1.45996,0.5967 C 0.198893,-20.1305 0,-19.6439 0,-19.0684 V 2.81836 C 0,3.39388 0.198893,3.88053 0.59668,4.27832 0.994466,4.67611 1.48112,4.875 2.05664,4.875 H 23.9434 c 0.5755,0 1.0621,-0.19889 1.4599,-0.59668 C 25.8011,3.88053 26,3.39388 26,2.81836 V -19.0684 c 0,-0.5755 -0.1989,-1.0621 -0.5967,-1.4599 -0.3978,-0.3978 -0.8844,-0.5967 -1.4599,-0.5967"
         id="path40"
         inkscape:connector-curvature="0"
         style="vector-effect:none;fill-rule:nonzero" />
    </g>
    <g
       transform="matrix(1.33333,0,0,1.33333,16,16)"
       font-size="8.25"
       font-weight="400"
       font-style="normal"
       id="g44"
       style="font-style:normal;font-weight:400;font-size:8.25px;font-family:'MS Shell Dlg 2';fill:none;stroke:#000000;stroke-width:1;stroke-linecap:square;stroke-linejoin:bevel;stroke-opacity:1" />
    <g
       transform="translate(16,16)"
       font-size="8.25"
       font-weight="400"
       font-style="normal"
       id="g46"
       style="font-style:normal;font-weight:400;font-size:8.25px;font-family:'MS Shell Dlg 2';fill:none;stroke:#000000;stroke-width:1;stroke-linecap:square;stroke-linejoin:bevel;stroke-opacity:1" />
    <g
       font-size="8.25"
       font-weight="400"
       font-style="normal"
       id="g48"
       style="font-style:normal;font-weight:400;font-size:8.25px;font-family:'MS Shell Dlg 2';fill:none;stroke:#000000;stroke-width:1;stroke-linecap:square;stroke-linejoin:bevel;stroke-opacity:1" />
  </g>
</svg>
