<svg xmlns="http://www.w3.org/2000/svg" width="20" height="20" version="1.2">
    <g font-weight="400" style="fill:none;fill-rule:evenodd;stroke:#000;stroke-width:1;stroke-linecap:square;stroke-linejoin:bevel">
        <g style="font-style:normal;font-weight:400;font-size:19.84250069px;font-family:icomoon;fill:#fff;fill-opacity:1;stroke:none">
            <path d="M2.285-21.125h21.43a2.2 2.2 0 0 1 1.612.673A2.2 2.2 0 0 1 26-18.84V2.59a2.2 2.2 0 0 1-.673 1.612 2.2 2.2 0 0 1-1.612.673H2.285a2.2 2.2 0 0 1-1.612-.673A2.2 2.2 0 0 1 0 2.59v-21.43a2.2 2.2 0 0 1 .673-1.612 2.2 2.2 0 0 1 1.612-.673" font-size="19.843" style="vector-effect:none;fill-rule:nonzero" transform="matrix(.6923 0 0 .6923 1 15.625)"/>
        </g>
        <g style="font-style:normal;font-weight:400;font-size:17.00779915px;font-family:icomoon;fill:#000;fill-opacity:1;stroke:none">
            <path d="M20.979-18.014a1.3 1.3 0 0 1 .954.393 1.3 1.3 0 0 1 .393.955V2.291a1.3 1.3 0 0 1-.393.955 1.3 1.3 0 0 1-.955.393H2.021a1.3 1.3 0 0 1-.954-.393 1.3 1.3 0 0 1-.393-.955v-18.957a1.3 1.3 0 0 1 .393-.955 1.3 1.3 0 0 1 .954-.393h18.957m0-.674H2.021c-.554 0-1.029.199-1.426.596A1.946 1.946 0 0 0 0-16.666V2.291c0 .554.198 1.03.595 1.426.397.397.872.595 1.426.595h18.957c.555 0 1.03-.198 1.427-.595.397-.397.595-.872.595-1.426v-18.957c0-.554-.198-1.03-.595-1.426a1.946 1.946 0 0 0-1.426-.596M8.805-4.694h-.023c-.958 0-1.778.34-2.46 1.022-.68.68-1.021 1.508-1.021 2.482 0 .958.34 1.778 1.022 2.459a3.353 3.353 0 0 0 2.46 1.022c.973 0 1.8-.34 2.481-1.022a3.353 3.353 0 0 0 1.022-2.46v-.022c0-.958-.34-1.778-1.022-2.46a3.353 3.353 0 0 0-2.46-1.021m0-.854h.023c.719 0 1.33-.254 1.83-.764a2.53 2.53 0 0 0 .753-1.841c0-.72-.25-1.33-.752-1.83a2.492 2.492 0 0 0-1.83-.753c-.72 0-1.334.25-1.843.752a2.473 2.473 0 0 0-.763 1.83c0 .72.25 1.33.752 1.831.502.502 1.104.76 1.808.775h.023m.92-6.042c.525 0 .97-.183 1.337-.55a1.82 1.82 0 0 0 .55-1.337c0-.524-.183-.97-.55-1.336a1.82 1.82 0 0 0-1.336-.55c-.525 0-.97.183-1.337.55a1.82 1.82 0 0 0-.55 1.336c0 .524.183.97.55 1.337.367.367.812.55 1.337.55m4.963-3.773c0 .36-.127.666-.381.92a1.255 1.255 0 0 1-.921.382c-.36 0-.667-.127-.921-.381a1.255 1.255 0 0 1-.382-.921c0-.36.127-.667.382-.921.254-.255.561-.382.92-.382.36 0 .667.127.922.382.254.254.381.561.381.92m2.449 3.527c0-.314-.113-.584-.337-.809a1.13 1.13 0 0 0-.831-.336c-.315 0-.584.112-.809.336a1.103 1.103 0 0 0-.337.81c0 .313.112.583.337.808.225.224.494.337.809.337.33 0 .602-.113.82-.337a1.21 1.21 0 0 0 .348-.809m-.315 2.022a.843.843 0 0 0-.617.258.843.843 0 0 0 0 1.213.843.843 0 0 0 .617.258c.24 0 .442-.086.607-.258a.862.862 0 0 0 .247-.618.825.825 0 0 0-.247-.606.825.825 0 0 0-.607-.247" font-size="17.008" style="vector-effect:none;fill-rule:nonzero" transform="matrix(.6923 0 0 .6923 2.038 14.976)"/>
        </g>
        <g style="font-style:normal;font-weight:400;font-size:19.84250069px;font-family:icomoon;fill:#000;fill-opacity:1;stroke:none">
            <path d="M23.943-20.44c.373 0 .694.136.965.407.271.27.406.592.406.965V2.818c0 .373-.135.694-.406.965-.27.271-.592.406-.965.406H2.057c-.373 0-.694-.135-.965-.406a1.318 1.318 0 0 1-.406-.965v-21.886c0-.373.135-.694.406-.965.27-.271.592-.407.965-.407h21.886m0-.685H2.057c-.576 0-1.063.199-1.46.597A1.986 1.986 0 0 0 0-19.068V2.818c0 .576.199 1.063.597 1.46.397.398.884.597 1.46.597h21.886c.576 0 1.063-.199 1.46-.597.398-.397.597-.884.597-1.46v-21.886c0-.576-.199-1.063-.597-1.46a1.986 1.986 0 0 0-1.46-.597" font-size="19.843" style="vector-effect:none;fill-rule:nonzero" transform="matrix(.6923 0 0 .6923 1 15.625)"/>
        </g>
    </g>
</svg>
