<?xml version="1.0" encoding="UTF-8" standalone="no"?>
<svg
   xmlns:dc="http://purl.org/dc/elements/1.1/"
   xmlns:cc="http://creativecommons.org/ns#"
   xmlns:rdf="http://www.w3.org/1999/02/22-rdf-syntax-ns#"
   xmlns:svg="http://www.w3.org/2000/svg"
   xmlns="http://www.w3.org/2000/svg"
   xmlns:sodipodi="http://sodipodi.sourceforge.net/DTD/sodipodi-0.dtd"
   xmlns:inkscape="http://www.inkscape.org/namespaces/inkscape"
   width="20"
   height="20"
   viewBox="0 0 20 20"
   version="1.2"
   id="svg38"
   sodipodi:docname="60201080331.svg"
   inkscape:version="0.92.4 (5da689c313, 2019-01-14)">
  <metadata
     id="metadata42">
    <rdf:RDF>
      <cc:Work
         rdf:about="">
        <dc:format>image/svg+xml</dc:format>
        <dc:type
           rdf:resource="http://purl.org/dc/dcmitype/StillImage" />
      </cc:Work>
    </rdf:RDF>
  </metadata>
  <sodipodi:namedview
     pagecolor="#ffffff"
     bordercolor="#666666"
     borderopacity="1"
     objecttolerance="10"
     gridtolerance="10"
     guidetolerance="10"
     inkscape:pageopacity="0"
     inkscape:pageshadow="2"
     inkscape:window-width="1920"
     inkscape:window-height="1017"
     id="namedview40"
     showgrid="false"
     inkscape:zoom="11.8"
     inkscape:cx="-5.2542373"
     inkscape:cy="10"
     inkscape:window-x="-8"
     inkscape:window-y="-8"
     inkscape:window-maximized="1"
     inkscape:current-layer="svg38" />
  <title
     id="title2">Qt SVG Document</title>
  <desc
     id="desc4">Generated with Qt</desc>
  <defs
     id="defs6" />
  <g
     id="g36"
     transform="matrix(0.65217391,0,0,0.65217391,-0.43478256,-0.43478256)"
     style="fill:none;fill-rule:evenodd;stroke:#000000;stroke-width:1;stroke-linecap:square;stroke-linejoin:bevel">
    <g
       transform="translate(16,16)"
       font-size="8.25"
       font-weight="400"
       font-style="normal"
       id="g8"
       style="font-style:normal;font-weight:400;font-size:8.25px;font-family:'MS Shell Dlg 2';fill:none;stroke:#000000;stroke-width:1;stroke-linecap:square;stroke-linejoin:bevel;stroke-opacity:1" />
    <g
       transform="matrix(1.33333,0,0,1.33333,16,16)"
       font-size="8.25"
       font-weight="400"
       font-style="normal"
       id="g10"
       style="font-style:normal;font-weight:400;font-size:8.25px;font-family:'MS Shell Dlg 2';fill:none;stroke:#000000;stroke-width:1;stroke-linecap:square;stroke-linejoin:bevel;stroke-opacity:1" />
    <g
       transform="translate(4.5,23.1875)"
       font-size="17.0078"
       font-weight="400"
       font-style="normal"
       id="g14"
       style="font-style:normal;font-weight:400;font-size:17.00779915px;font-family:icomoon;fill:#ffffff;fill-opacity:1;stroke:none">
      <path
         d="M 2.02148,-18.6875 H 20.9785 c 0.5541,0 1.0295,0.1984 1.4263,0.5952 C 22.8016,-17.6955 23,-17.2201 23,-16.666 V 2.29102 C 23,2.84505 22.8016,3.32048 22.4048,3.71729 22.008,4.1141 21.5326,4.3125 20.9785,4.3125 H 2.02148 C 1.46745,4.3125 0.992025,4.1141 0.595215,3.71729 0.198405,3.32048 0,2.84505 0,2.29102 V -16.666 c 0,-0.5541 0.198405,-1.0295 0.595215,-1.4263 0.39681,-0.3968 0.872235,-0.5952 1.426265,-0.5952"
         id="path12"
         inkscape:connector-curvature="0"
         style="vector-effect:none;fill-rule:nonzero" />
    </g>
    <g
       transform="matrix(1.33333,0,0,1.33333,16,16)"
       font-size="8.25"
       font-weight="400"
       font-style="normal"
       id="g16"
       style="font-style:normal;font-weight:400;font-size:8.25px;font-family:'MS Shell Dlg 2';fill:none;stroke:#000000;stroke-width:1;stroke-linecap:square;stroke-linejoin:bevel;stroke-opacity:1" />
    <g
       transform="translate(16,16)"
       font-size="8.25"
       font-weight="400"
       font-style="normal"
       id="g18"
       style="font-style:normal;font-weight:400;font-size:8.25px;font-family:'MS Shell Dlg 2';fill:none;stroke:#000000;stroke-width:1;stroke-linecap:square;stroke-linejoin:bevel;stroke-opacity:1" />
    <g
       font-size="8.25"
       font-weight="400"
       font-style="normal"
       id="g20"
       style="font-style:normal;font-weight:400;font-size:8.25px;font-family:'MS Shell Dlg 2';fill:none;stroke:#000000;stroke-width:1;stroke-linecap:square;stroke-linejoin:bevel;stroke-opacity:1" />
    <g
       transform="translate(16,16)"
       font-size="8.25"
       font-weight="400"
       font-style="normal"
       id="g22"
       style="font-style:normal;font-weight:400;font-size:8.25px;font-family:'MS Shell Dlg 2';fill:none;stroke:#000000;stroke-width:1;stroke-linecap:square;stroke-linejoin:bevel;stroke-opacity:1" />
    <g
       transform="matrix(1.33333,0,0,1.33333,16,16)"
       font-size="8.25"
       font-weight="400"
       font-style="normal"
       id="g24"
       style="font-style:normal;font-weight:400;font-size:8.25px;font-family:'MS Shell Dlg 2';fill:none;stroke:#000000;stroke-width:1;stroke-linecap:square;stroke-linejoin:bevel;stroke-opacity:1" />
    <g
       transform="translate(4.5,23.1875)"
       font-size="17.0078"
       font-weight="400"
       font-style="normal"
       id="g28"
       style="font-style:normal;font-weight:400;font-size:17.00779915px;font-family:icomoon;fill:#000000;fill-opacity:1;stroke:none">
      <path
         d="m 20.9785,-18.0137 c 0.3744,0 0.6926,0.1311 0.9546,0.3931 0.262,0.262 0.3931,0.5802 0.3931,0.9546 V 2.29102 c 0,0.37434 -0.1311,0.69254 -0.3931,0.95459 -0.262,0.26204 -0.5802,0.39306 -0.9546,0.39306 H 2.02148 C 1.64714,3.63867 1.32894,3.50765 1.06689,3.24561 0.80485,2.98356 0.673828,2.66536 0.673828,2.29102 V -16.666 c 0,-0.3744 0.131022,-0.6926 0.393062,-0.9546 0.26205,-0.262 0.58025,-0.3931 0.95459,-0.3931 H 20.9785 m 0,-0.6738 H 2.02148 c -0.55403,0 -1.029455,0.1984 -1.426265,0.5952 C 0.198405,-17.6955 0,-17.2201 0,-16.666 V 2.29102 C 0,2.84505 0.198405,3.32048 0.595215,3.71729 0.992025,4.1141 1.46745,4.3125 2.02148,4.3125 H 20.9785 c 0.5541,0 1.0295,-0.1984 1.4263,-0.59521 C 22.8016,3.32048 23,2.84505 23,2.29102 V -16.666 c 0,-0.5541 -0.1984,-1.0295 -0.5952,-1.4263 -0.3968,-0.3968 -0.8722,-0.5952 -1.4263,-0.5952 M 13.207,-6.94043 c 0,-0.04492 0,-0.0861 0,-0.12353 0,-0.03744 0,-0.07862 0,-0.12354 0,-0.04492 0,-0.0861 0,-0.12354 0,-0.03743 0,-0.07861 0,-0.12353 0.8685,-0.16471 1.6734,-0.43799 2.4146,-0.81982 0.7412,-0.38184 1.4113,-0.84978 2.0102,-1.40381 0.584,-0.599 1.0407,-1.2503 1.3702,-1.9541 0.3444,-0.7038 0.5952,-1.3626 0.7524,-1.9766 0.1572,-0.6139 0.2508,-1.1305 0.2808,-1.5498 0.0449,-0.4043 0.0673,-0.6064 0.0673,-0.6064 0,0 -0.2096,0.015 -0.6289,0.0449 -0.4192,0.03 -0.9358,0.1273 -1.5498,0.292 -0.6139,0.1647 -1.2728,0.4118 -1.9765,0.7412 -0.7038,0.3294 -1.3477,0.7936 -1.9317,1.3926 -0.554,0.5989 -1.0219,1.2653 -1.4038,1.999 -0.3818,0.7337 -0.6626,1.51987 -0.8423,2.35841 v 0.04492 c -0.0299,0 -0.0674,0 -0.1123,0 -0.0449,0 -0.0823,0 -0.1123,0 -0.0449,0 -0.0898,0 -0.1347,0 -0.045,0 -0.0824,0 -0.1123,0 -0.1797,-0.85352 -0.4642,-1.65083 -0.8536,-2.39213 -0.3893,-0.7412 -0.86097,-1.4113 -1.415,-2.0102 -0.59896,-0.599 -1.25033,-1.0632 -1.9541,-1.3926 -0.70378,-0.3294 -1.36263,-0.5765 -1.97657,-0.7412 -0.61393,-0.1647 -1.13053,-0.262 -1.5498,-0.292 -0.4043,-0.0299 -0.60645,-0.0449 -0.60645,-0.0449 0,0 0.01498,0.2021 0.04492,0.6064 0.02995,0.4193 0.12354,0.9359 0.28077,1.5498 0.15722,0.614 0.40055,1.2728 0.72998,1.9766 0.3444,0.7038 0.81608,1.3551 1.41504,1.9541 0.59895,0.55403 1.2653,1.02197 1.99902,1.40381 0.73372,0.38183 1.51986,0.65511 2.3584,0.81982 h 0.04492 c 0,0.04492 0,0.0861 0,0.12353 0,0.03744 0,0.07862 0,0.12354 0,0.04492 0,0.0861 0,0.12354 0,0.03743 0,0.07861 0,0.12353 C 8.96191,-6.77572 8.16455,-6.50244 7.42334,-6.12061 6.68213,-5.73877 6.01204,-5.27083 5.41309,-4.7168 4.81413,-4.11784 4.34993,-3.46647 4.02051,-2.7627 3.69108,-2.04395 3.44401,-1.3776 3.2793,-0.763672 3.11458,-0.14974 3.01725,0.366862 2.9873,0.786133 2.95736,1.2054 2.94238,1.41504 2.94238,1.41504 c 0,0 0.20215,-0.02246 0.60645,-0.06738 C 3.9681,1.31771 4.48844,1.22412 5.10986,1.06689 5.73128,0.909668 6.39388,0.658854 7.09766,0.314453 7.81641,-0.014974 8.46777,-0.47168 9.05176,-1.05566 c 0.55403,-0.59896 1.02194,-1.26905 1.40384,-2.01026 0.3818,-0.74121 0.6626,-1.5236 0.8423,-2.34717 v -0.06738 c 0.0449,0 0.0861,0 0.1235,0 0.0374,0 0.0786,0 0.1235,0 0.03,0 0.0637,0 0.1011,0 0.0374,0 0.0786,0 0.1235,0 0.1647,0.86849 0.4418,1.67334 0.8311,2.41455 0.3893,0.74121 0.861,1.4113 1.415,2.01026 0.584,0.58398 1.2354,1.040686 1.9541,1.370113 0.7038,0.344401 1.3664,0.595215 1.9878,0.752437 0.6214,0.15723 1.1418,0.25082 1.5611,0.28077 0.4043,0.04492 0.6064,0.06738 0.6064,0.06738 0,0 -0.015,-0.20964 -0.0449,-0.628907 -0.03,-0.419271 -0.1273,-0.935873 -0.292,-1.549805 C 19.6234,-1.3776 19.3763,-2.03646 19.0469,-2.74023 18.7174,-3.44401 18.2533,-4.08789 17.6543,-4.67188 17.0553,-5.24089 16.3853,-5.72005 15.644,-6.10938 14.9028,-6.4987 14.113,-6.77572 13.2744,-6.94043 H 13.207"
         id="path26"
         inkscape:connector-curvature="0"
         style="vector-effect:none;fill-rule:nonzero" />
    </g>
    <g
       transform="matrix(1.33333,0,0,1.33333,16,16)"
       font-size="8.25"
       font-weight="400"
       font-style="normal"
       id="g30"
       style="font-style:normal;font-weight:400;font-size:8.25px;font-family:'MS Shell Dlg 2';fill:none;stroke:#000000;stroke-width:1;stroke-linecap:square;stroke-linejoin:bevel;stroke-opacity:1" />
    <g
       transform="translate(16,16)"
       font-size="8.25"
       font-weight="400"
       font-style="normal"
       id="g32"
       style="font-style:normal;font-weight:400;font-size:8.25px;font-family:'MS Shell Dlg 2';fill:none;stroke:#000000;stroke-width:1;stroke-linecap:square;stroke-linejoin:bevel;stroke-opacity:1" />
    <g
       font-size="8.25"
       font-weight="400"
       font-style="normal"
       id="g34"
       style="font-style:normal;font-weight:400;font-size:8.25px;font-family:'MS Shell Dlg 2';fill:none;stroke:#000000;stroke-width:1;stroke-linecap:square;stroke-linejoin:bevel;stroke-opacity:1" />
  </g>
</svg>
