<svg xmlns="http://www.w3.org/2000/svg" width="20" height="20" version="1.2"><g fill="none" fill-rule="evenodd" stroke="#000" stroke-linecap="square" stroke-linejoin="bevel" font-weight="400"><path fill="#fff" fill-rule="nonzero" stroke="none" d="M1.758 0h16.484c.482 0 .895.173 1.24.518.345.345.518.758.518 1.24v16.484c0 .482-.173.895-.518 1.24a1.692 1.692 0 0 1-1.24.518H1.758c-.482 0-.895-.173-1.24-.518A1.692 1.692 0 0 1 0 18.242V1.758C0 1.276.173.863.518.518A1.692 1.692 0 0 1 1.758 0" font-family="icomoon" font-size="17.008"/><path fill="#000" fill-rule="nonzero" stroke="none" d="M18.242.586c.326 0 .602.114.83.342.228.228.342.504.342.83v16.484c0 .326-.114.602-.342.83a1.13 1.13 0 0 1-.83.342H1.758a1.13 1.13 0 0 1-.83-.342 1.13 1.13 0 0 1-.342-.83V1.758c0-.326.114-.602.342-.83a1.13 1.13 0 0 1 .83-.342h16.484m0-.586H1.758C1.276 0 .863.173.518.518A1.692 1.692 0 0 0 0 1.758v16.484c0 .482.173.895.518 1.24.345.345.758.518 1.24.518h16.484c.482 0 .895-.173 1.24-.518.345-.345.518-.758.518-1.24V1.758c0-.482-.173-.895-.518-1.24A1.692 1.692 0 0 0 18.242 0M7.344 10.488a2.485 2.485 0 0 1 .039-.43v.02H2.305V10.742a7.07 7.07 0 0 0 .595 2.89 7.727 7.727 0 0 0 1.612 2.364c.234.234.485.453.752.654.267.202.55.388.85.557l.038.02 2.676-4.356a2.694 2.694 0 0 1-1.074-.967 2.554 2.554 0 0 1-.41-1.416M10 7.812c.273 0 .537.04.791.118.254.078.485.188.693.332l2.383-4.453a7.5 7.5 0 0 0-3.828-1.035H9.922h.02a.216.216 0 0 1-.069-.01.216.216 0 0 0-.068-.01c-.69 0-1.351.091-1.983.273a7.517 7.517 0 0 0-1.767.762l.039-.02 2.422 4.493c.208-.144.439-.254.693-.332.254-.078.518-.118.791-.118m7.695 2.383h-5.058c0 .04.003.085.01.137.006.052.01.098.01.137v.02c0 .507-.128.966-.382 1.376-.254.41-.589.733-1.005.967l2.656 4.336a8.01 8.01 0 0 0 .81-.547c.254-.195.492-.404.713-.625a7.28 7.28 0 0 0 1.66-2.353 7.086 7.086 0 0 0 .606-2.92v-.176c0-.065-.003-.124-.01-.176a1.443 1.443 0 0 1-.01-.176m-5.78.254v-.02c0-.52-.186-.97-.558-1.347A1.83 1.83 0 0 0 10 8.516c-.534 0-.986.188-1.357.566a1.857 1.857 0 0 0-.557 1.348c0 .534.185.986.557 1.357.37.371.823.557 1.357.557.52 0 .97-.183 1.348-.547.377-.365.566-.807.566-1.328v-.02" font-family="icomoon" font-size="17.008"/></g></svg>