<svg xmlns="http://www.w3.org/2000/svg" width="20" height="20" version="1.2"><g fill="none" fill-rule="evenodd" stroke="#000" stroke-linecap="square" stroke-linejoin="bevel" font-weight="400"><path fill="#fff" fill-rule="nonzero" stroke="none" d="M1.758 0h16.484c.482 0 .895.173 1.24.518.345.345.518.758.518 1.24v16.484c0 .482-.173.895-.518 1.24a1.692 1.692 0 0 1-1.24.518H1.758c-.482 0-.895-.173-1.24-.518A1.692 1.692 0 0 1 0 18.242V1.758C0 1.276.173.863.518.518A1.692 1.692 0 0 1 1.758 0" font-family="icomoon" font-size="17.008"/><path fill="#000" fill-rule="nonzero" stroke="none" d="M18.242.586c.326 0 .602.114.83.342.228.228.342.504.342.83v16.484c0 .326-.114.602-.342.83a1.13 1.13 0 0 1-.83.342H1.758a1.13 1.13 0 0 1-.83-.342 1.13 1.13 0 0 1-.342-.83V1.758c0-.326.114-.602.342-.83a1.13 1.13 0 0 1 .83-.342h16.484m0-.586H1.758C1.276 0 .863.173.518.518A1.692 1.692 0 0 0 0 1.758v16.484c0 .482.173.895.518 1.24.345.345.758.518 1.24.518h16.484c.482 0 .895-.173 1.24-.518.345-.345.518-.758.518-1.24V1.758c0-.482-.173-.895-.518-1.24A1.692 1.692 0 0 0 18.242 0m-1.074 11.21a.45.45 0 0 0-.156-.155.41.41 0 0 0-.215-.059.087.087 0 0 0-.04.01.087.087 0 0 1-.038.01h.02l-1.68.234 2.148-4.98a.451.451 0 0 0 .039-.176.474.474 0 0 0-.049-.215.376.376 0 0 0-.146-.156.642.642 0 0 0-.235-.059.451.451 0 0 0-.185.04.553.553 0 0 0-.166.116l-3.32 3.848-.372-1.23a.468.468 0 0 0-.136-.225.433.433 0 0 0-.235-.108h-.039a.399.399 0 0 0-.234.069.542.542 0 0 0-.156.166l-1.036 1.875-.156-3.613a.454.454 0 0 0-.84-.196v.02l-1.093 2.07L5.84 2.852a.505.505 0 0 0-.166-.166.412.412 0 0 0-.225-.069.446.446 0 0 0-.312.127.42.42 0 0 0-.137.322v.04c0 .013.007.025.02.039l1.035 6.27L4.94 8.77a.308.308 0 0 0-.107-.05.67.67 0 0 0-.234 0 .308.308 0 0 0-.108.05.449.449 0 0 0-.156.156.41.41 0 0 0-.059.215v1.953l-2.09-1.29a.347.347 0 0 0-.097-.029.711.711 0 0 0-.117-.01.413.413 0 0 0-.303.128.413.413 0 0 0-.107.42l.039.117 2.773 4.082a.59.59 0 0 0 .146.136.33.33 0 0 0 .186.059h10.195c.078 0 .15-.016.215-.049a.376.376 0 0 0 .156-.146l1.895-2.832a.175.175 0 0 0 .049-.098.84.84 0 0 0 0-.254.301.301 0 0 0-.049-.117m-2.461 2.617H4.961l-1.484-2.187 1.015.625.117.039a.369.369 0 0 0 .235 0 .758.758 0 0 0 .097-.04.505.505 0 0 0 .166-.165.412.412 0 0 0 .069-.225V9.902l1.25.723a.243.243 0 0 0 .107.059c.046.013.088.02.127.02.04 0 .078-.007.117-.02a.493.493 0 0 0 .118-.059.537.537 0 0 0 .136-.156.41.41 0 0 0 .059-.215v-.059l-.781-4.57 2.168 4.023c.039.079.09.137.156.176a.447.447 0 0 0 .459-.01c.071-.045.12-.1.146-.166l.723-1.367.176 3.555c0 .104.032.192.097.264.065.071.144.12.235.146.026 0 .045.003.058.01.013.006.026.01.04.01.09 0 .169-.023.234-.069a.541.541 0 0 0 .156-.166l1.27-2.363.293.996a.443.443 0 0 0 .127.195.402.402 0 0 0 .205.098c.013.013.026.02.039.02h.039a.452.452 0 0 0 .185-.04.366.366 0 0 0 .147-.117l2.031-2.285-1.348 3.106a.381.381 0 0 0-.039.156.4.4 0 0 0 .137.303.446.446 0 0 0 .312.127h.06l1.464-.196-1.172 1.797" font-family="icomoon" font-size="17.008"/></g></svg>