<svg xmlns="http://www.w3.org/2000/svg" width="20" height="20" version="1.2"><g fill="none" fill-rule="evenodd" stroke="#000" stroke-linecap="square" stroke-linejoin="bevel" font-weight="400"><path fill="#fff" fill-rule="nonzero" stroke="none" d="M1.758 0h16.484c.482 0 .895.173 1.24.518.345.345.518.758.518 1.24v16.484c0 .482-.173.895-.518 1.24a1.692 1.692 0 0 1-1.24.518H1.758c-.482 0-.895-.173-1.24-.518A1.692 1.692 0 0 1 0 18.242V1.758C0 1.276.173.863.518.518A1.692 1.692 0 0 1 1.758 0" font-family="icomoon" font-size="17.008"/><path fill="#000" fill-rule="nonzero" stroke="none" d="M18.242.586c.326 0 .602.114.83.342.228.228.342.504.342.83v16.484c0 .326-.114.602-.342.83a1.13 1.13 0 0 1-.83.342H1.758a1.13 1.13 0 0 1-.83-.342 1.13 1.13 0 0 1-.342-.83V1.758c0-.326.114-.602.342-.83a1.13 1.13 0 0 1 .83-.342h16.484m0-.586H1.758C1.276 0 .863.173.518.518A1.692 1.692 0 0 0 0 1.758v16.484c0 .482.173.895.518 1.24.345.345.758.518 1.24.518h16.484c.482 0 .895-.173 1.24-.518.345-.345.518-.758.518-1.24V1.758c0-.482-.173-.895-.518-1.24A1.692 1.692 0 0 0 18.242 0m-4.277 6.074v-.117h-.098L10 2.09 6.172 5.937h-.117v.098L2.09 10 10 17.91 17.91 10l-3.945-3.926m2.812 3.633h-1.035V8.672l1.035 1.035m-1.875-1.875h-.058v1.875h-.88V6.895l.938.937m-1.816-1.816v3.691h-.879v-4.57l.879.879m-1.758-1.758v5.449h-.879V3.379l.899.898-.02-.02M9.551 3.34v6.367h-.88v-5.43l.88-.937M7.793 9.687h-.879V6.016l.879-.88v4.551m-1.758 0h-.879V7.832h-.058l.937-.937v2.792m-2.812 0 1.035-1.054v1.074l-1.035-.02m0 .586h13.535L10 17.051l-6.777-6.778" font-family="icomoon" font-size="17.008"/></g></svg>