<svg xmlns="http://www.w3.org/2000/svg" width="20" height="20" version="1.2"><g fill="none" fill-rule="evenodd" stroke="#000" stroke-linecap="square" stroke-linejoin="bevel" font-weight="400"><path fill="#fff" fill-rule="nonzero" stroke="none" d="M1.758 0h16.484c.482 0 .895.173 1.24.518.345.345.518.758.518 1.24v16.484c0 .482-.173.895-.518 1.24a1.692 1.692 0 0 1-1.24.518H1.758c-.482 0-.895-.173-1.24-.518A1.692 1.692 0 0 1 0 18.242V1.758C0 1.276.173.863.518.518A1.692 1.692 0 0 1 1.758 0" font-family="icomoon" font-size="17.008"/><path fill="#000" fill-rule="nonzero" stroke="none" d="M18.242.586c.326 0 .602.114.83.342.228.228.342.504.342.83v16.484c0 .326-.114.602-.342.83a1.13 1.13 0 0 1-.83.342H1.758a1.13 1.13 0 0 1-.83-.342 1.13 1.13 0 0 1-.342-.83V1.758c0-.326.114-.602.342-.83a1.13 1.13 0 0 1 .83-.342h16.484m0-.586H1.758C1.276 0 .863.173.518.518A1.692 1.692 0 0 0 0 1.758v16.484c0 .482.173.895.518 1.24.345.345.758.518 1.24.518h16.484c.482 0 .895-.173 1.24-.518.345-.345.518-.758.518-1.24V1.758c0-.482-.173-.895-.518-1.24A1.692 1.692 0 0 0 18.242 0M5.176 5.156c.573 0 1.168.293 1.787.88.618.585 1.247.878 1.885.878.325 0 .644-.143.957-.43.3-.3.57-.621.81-.966.241-.345.44-.668.596-.967l.215-.43-.781.586c-.521.39-1.081.586-1.68.586-.6 0-1.208-.319-1.826-.957-.619-.638-1.234-.957-1.846-.957-.612 0-1.123.469-1.533 1.406l-.615 1.406c.247-.273.543-.504.888-.693.345-.189.72-.303 1.123-.342h.02m-.254 7.93c-.625 0-1.14.465-1.543 1.396l-.606 1.397c.26-.287.567-.52.918-.703.352-.183.73-.293 1.133-.332h.02c.56 0 1.152.293 1.777.879.625.586 1.257.879 1.895.879.325 0 .644-.15.957-.45.3-.286.57-.605.81-.957.241-.351.44-.677.596-.976l.215-.43-.781.586c-.521.39-1.081.586-1.68.586-.586 0-1.192-.313-1.817-.938s-1.256-.937-1.894-.937m9.844-2.676c-.586 0-1.192-.316-1.817-.947-.625-.632-1.256-.947-1.894-.947-.625 0-1.14.468-1.543 1.406l-.606 1.406c.26-.286.567-.52.918-.703.352-.182.73-.293 1.133-.332h.02c.56 0 1.152.293 1.777.879.625.586 1.256.879 1.894.879.326 0 .638-.143.938-.43.312-.3.59-.625.83-.976.24-.352.433-.671.576-.958l.235-.449-.782.586c-.52.39-1.08.586-1.68.586" font-family="icomoon" font-size="17.008"/></g></svg>