<svg xmlns="http://www.w3.org/2000/svg" width="20" height="20" version="1.2">
    <g font-weight="400" style="fill:none;fill-rule:evenodd;stroke:#000;stroke-width:1;stroke-linecap:square;stroke-linejoin:bevel">
        <g style="font-style:normal;font-weight:400;font-size:17.00779915px;font-family:icomoon;fill:red;fill-opacity:1;stroke:none">
            <path d="M2.021-18.688h18.957c.555 0 1.03.199 1.427.596.397.396.595.872.595 1.426V2.291c0 .554-.198 1.03-.595 1.426a1.946 1.946 0 0 1-1.427.595H2.021c-.554 0-1.029-.198-1.426-.595A1.946 1.946 0 0 1 0 2.291v-18.957c0-.554.198-1.03.595-1.426a1.946 1.946 0 0 1 1.426-.596" font-size="17.008" style="vector-effect:none;fill-rule:nonzero" transform="matrix(.65217 0 0 .65217 2.5 14.687)"/>
        </g>
        <g style="font-style:normal;font-weight:400;font-size:17.00779915px;font-family:icomoon;fill:#000;fill-opacity:1;stroke:none">
            <path d="M20.979-18.014a1.3 1.3 0 0 1 .954.393 1.3 1.3 0 0 1 .393.955V2.291a1.3 1.3 0 0 1-.393.955 1.3 1.3 0 0 1-.955.393H2.021a1.3 1.3 0 0 1-.954-.393 1.3 1.3 0 0 1-.393-.955v-18.957a1.3 1.3 0 0 1 .393-.955 1.3 1.3 0 0 1 .954-.393h18.957m0-.674H2.021c-.554 0-1.029.199-1.426.596A1.946 1.946 0 0 0 0-16.666V2.291c0 .554.198 1.03.595 1.426.397.397.872.595 1.426.595h18.957c.555 0 1.03-.198 1.427-.595.397-.397.595-.872.595-1.426v-18.957c0-.554-.198-1.03-.595-1.426a1.946 1.946 0 0 0-1.426-.596M20.91-5.075 8.715-15.992l-1.28 1.37 3.212 2.965-1.955 2.493 2.336 2.336-1.954 3.257a2.356 2.356 0 0 0-.651-.09 1.192 1.192 0 0 0-.337.045l.022-.023v-3.549H2.65V-1.1h3.078V-.898v-.023.224c0 .75.265 1.39.797 1.921a2.618 2.618 0 0 0 1.92.797c.704 0 1.314-.24 1.83-.718.517-.48.806-1.07.866-1.775h3.57c.12.63.431 1.153.933 1.573.502.419 1.082.628 1.74.628.75 0 1.386-.262 1.91-.786a2.6 2.6 0 0 0 .786-1.909 2.71 2.71 0 0 0-1.056-2.156h1.887v-1.954m-15.206 1.1H3.863V-5.84h1.842v1.864m2.74 4.47h-.022c-.39 0-.719-.135-.988-.404a1.318 1.318 0 0 1-.405-.966c0-.39.135-.719.405-.988.27-.27.599-.405.988-.405.39 0 .719.135.988.405.27.27.404.599.404.988 0 .374-.13.696-.393.966-.262.27-.58.404-.954.404h-.023m1.28-3.796 2.112-3.032 2.358 2.358 2.067.607a2.558 2.558 0 0 0-.607.393c-.18.157-.337.326-.471.505v.023H10.69c-.12-.18-.258-.34-.415-.483a2.083 2.083 0 0 0-.528-.348l-.022-.023M17.43.494h-.045c-.39 0-.719-.135-.988-.404a1.318 1.318 0 0 1-.405-.966c0-.39.135-.719.405-.988.269-.27.598-.405.988-.405s.719.135.988.405c.27.27.404.599.404.988 0 .374-.13.696-.393.966-.262.27-.58.404-.954.404" font-size="17.008" style="vector-effect:none;fill-rule:nonzero" transform="matrix(.65217 0 0 .65217 2.5 14.687)"/>
        </g>
    </g>
</svg>
