<svg xmlns="http://www.w3.org/2000/svg" width="20" height="20" version="1.2">
    <g font-weight="400" style="fill:none;fill-rule:evenodd;stroke:#000;stroke-width:1;stroke-linecap:square;stroke-linejoin:bevel">
        <g style="font-style:normal;font-weight:400;font-size:19.84250069px;font-family:icomoon;fill:red;fill-opacity:1;stroke:none">
            <path d="M2.285-21.125h21.43a2.2 2.2 0 0 1 1.612.673A2.2 2.2 0 0 1 26-18.84V2.59a2.2 2.2 0 0 1-.673 1.612 2.2 2.2 0 0 1-1.612.673H2.285a2.2 2.2 0 0 1-1.612-.673A2.2 2.2 0 0 1 0 2.59v-21.43a2.2 2.2 0 0 1 .673-1.612 2.2 2.2 0 0 1 1.612-.673" font-size="19.843" style="vector-effect:none;fill-rule:nonzero" transform="matrix(.6923 0 0 .6923 1 15.625)"/>
        </g>
        <g style="font-style:normal;font-weight:400;font-size:17.00779915px;font-family:icomoon;fill:#000;fill-opacity:1;stroke:none">
            <path d="M20.979-18.014a1.3 1.3 0 0 1 .954.393 1.3 1.3 0 0 1 .393.955V2.291a1.3 1.3 0 0 1-.393.955 1.3 1.3 0 0 1-.955.393H2.021a1.3 1.3 0 0 1-.954-.393 1.3 1.3 0 0 1-.393-.955v-18.957a1.3 1.3 0 0 1 .393-.955 1.3 1.3 0 0 1 .954-.393h18.957m0-.674H2.021c-.554 0-1.029.199-1.426.596A1.946 1.946 0 0 0 0-16.666V2.291c0 .554.198 1.03.595 1.426.397.397.872.595 1.426.595h18.957c.555 0 1.03-.198 1.427-.595.397-.397.595-.872.595-1.426v-18.957c0-.554-.198-1.03-.595-1.426a1.946 1.946 0 0 0-1.426-.596m-.742 8.805a3.078 3.078 0 0 0-.83-1.898 2.994 2.994 0 0 0-1.798-.954h-.022a2.74 2.74 0 0 0-.932-.989 2.384 2.384 0 0 0-1.314-.381h-.079a.18.18 0 0 0-.078.022l.022-.022c-.988 0-1.733.322-2.235.965-.501.644-.76.981-.775 1.011l-.022.135v1.482a4.948 4.948 0 0 0-.921-.325 4.242 4.242 0 0 0-1.033-.124c-1.183 0-2.194.352-3.032 1.056A9.976 9.976 0 0 0 5.12-7.558c-.539.86-.936 1.666-1.19 2.414-.255.734-.39 1.131-.405 1.19v5.167H7.93v-3.796H12.6v3.796h7.704V-9.883h-.068m-.988 0h-3.504c.105-.838.356-1.359.753-1.56.396-.203.647-.304.752-.304.51.03.95.22 1.325.573.375.352.592.775.652 1.269l.022.022m-4.02-3.167c.015-.015.03-.022.044-.022h.068a1.596 1.596 0 0 1 1.145.471c-.3.12-.565.289-.797.506-.232.217-.416.46-.55.73l-.023.022h-1.931v-.404c.21-.374.49-.678.842-.91a2.404 2.404 0 0 1 1.18-.393h.022m-2.044 2.696h1.617c0 .06-.008.127-.023.202a1.14 1.14 0 0 0-.022.224v1.595a7.072 7.072 0 0 0-.73-.831 10.635 10.635 0 0 0-.82-.719h-.022v-.472M15.678.158h-2.09v-3.75H6.874V.201H4.515v-3.93c.045-.18.194-.6.449-1.258.24-.674.591-1.378 1.056-2.112a8.64 8.64 0 0 1 1.729-1.976 3.72 3.72 0 0 1 2.448-.876c.824 0 1.565.254 2.224.763a9.015 9.015 0 0 1 1.662 1.764c.464.651.831 1.276 1.1 1.875.27.6.435.98.495 1.146v4.56m3.616 0h-2.605V-4.65a15.926 15.926 0 0 0-.966-2.134l.022.067v-2.179h3.527l.022 9.052" font-size="17.008" style="vector-effect:none;fill-rule:nonzero" transform="matrix(.6923 0 0 .6923 2.038 14.976)"/>
        </g>
        <g style="font-style:normal;font-weight:400;font-size:19.84250069px;font-family:icomoon;fill:#000;fill-opacity:1;stroke:none">
            <path d="M23.943-20.44c.373 0 .694.136.965.407.271.27.406.592.406.965V2.818c0 .373-.135.694-.406.965-.27.271-.592.406-.965.406H2.057c-.373 0-.694-.135-.965-.406a1.318 1.318 0 0 1-.406-.965v-21.886c0-.373.135-.694.406-.965.27-.271.592-.407.965-.407h21.886m0-.685H2.057c-.576 0-1.063.199-1.46.597A1.986 1.986 0 0 0 0-19.068V2.818c0 .576.199 1.063.597 1.46.397.398.884.597 1.46.597h21.886c.576 0 1.063-.199 1.46-.597.398-.397.597-.884.597-1.46v-21.886c0-.576-.199-1.063-.597-1.46a1.986 1.986 0 0 0-1.46-.597" font-size="19.843" style="vector-effect:none;fill-rule:nonzero" transform="matrix(.6923 0 0 .6923 1 15.625)"/>
        </g>
    </g>
</svg>
