<svg xmlns="http://www.w3.org/2000/svg" width="20" height="20" version="1.2">
    <g font-weight="400" style="fill:none;fill-rule:evenodd;stroke:#000;stroke-width:1;stroke-linecap:square;stroke-linejoin:bevel">
        <g style="font-style:normal;font-weight:400;font-size:17.00779915px;font-family:icomoon;fill:#fff;fill-opacity:1;stroke:none">
            <path d="M2.021-18.688h18.957c.555 0 1.03.199 1.427.596.397.396.595.872.595 1.426V2.291c0 .554-.198 1.03-.595 1.426a1.946 1.946 0 0 1-1.427.595H2.021c-.554 0-1.029-.198-1.426-.595A1.946 1.946 0 0 1 0 2.291v-18.957c0-.554.198-1.03.595-1.426a1.946 1.946 0 0 1 1.426-.596" font-size="17.008" style="vector-effect:none;fill-rule:nonzero" transform="matrix(.65217 0 0 .65217 2.5 14.687)"/>
        </g>
        <g style="font-style:normal;font-weight:400;font-size:17.00779915px;font-family:icomoon;fill:#000;fill-opacity:1;stroke:none">
            <path d="M20.979-18.014a1.3 1.3 0 0 1 .954.393 1.3 1.3 0 0 1 .393.955V2.291a1.3 1.3 0 0 1-.393.955 1.3 1.3 0 0 1-.955.393H2.021a1.3 1.3 0 0 1-.954-.393 1.3 1.3 0 0 1-.393-.955v-18.957a1.3 1.3 0 0 1 .393-.955 1.3 1.3 0 0 1 .954-.393h18.957m0-.674H2.021c-.554 0-1.029.199-1.426.596A1.946 1.946 0 0 0 0-16.666V2.291c0 .554.198 1.03.595 1.426.397.397.872.595 1.426.595h18.957c.555 0 1.03-.198 1.427-.595.397-.397.595-.872.595-1.426v-18.957c0-.554-.198-1.03-.595-1.426a1.946 1.946 0 0 0-1.426-.596m-.854 8.962h-2.246a2.19 2.19 0 0 0 .034-.247c.007-.09.01-.18.01-.27 0-.703-.246-1.302-.74-1.796a2.447 2.447 0 0 0-1.797-.741 2.26 2.26 0 0 0-.719.112c-.225.075-.434.18-.629.314v-.022a2.442 2.442 0 0 0-.775-1.696 2.414 2.414 0 0 0-1.74-.707c-.66 0-1.228.22-1.708.662-.479.442-.748.985-.808 1.629a2.994 2.994 0 0 0-.562-.214 2.412 2.412 0 0 0-.629-.078c-.688 0-1.28.247-1.774.74a2.421 2.421 0 0 0-.741 1.775v.045c0 .09.004.176.011.259.007.082.019.16.034.235H3.1L6.424-2.74h10.152l3.549-6.986M9.411-12.219h4.403c-.3.24-.536.528-.708.865a2.407 2.407 0 0 0-.258 1.112c0 .09.007.18.022.27.015.09.03.172.045.246H10.31c.015-.074.026-.157.033-.247.008-.09.012-.18.012-.27 0-.388-.087-.755-.259-1.1a2.722 2.722 0 0 0-.685-.876M10.826-1.01c0 .464-.168.865-.505 1.202a1.667 1.667 0 0 1-1.224.505c-.465 0-.865-.168-1.202-.505a1.641 1.641 0 0 1-.505-1.202c0-.479.168-.887.505-1.224a1.641 1.641 0 0 1 1.202-.505c.479 0 .887.168 1.224.505.337.337.505.745.505 1.224m5.458 0c0 .464-.168.865-.505 1.202a1.641 1.641 0 0 1-1.202.505c-.479 0-.887-.168-1.224-.505a1.641 1.641 0 0 1-.505-1.202c0-.479.168-.887.505-1.224a1.667 1.667 0 0 1 1.224-.505c.464 0 .865.168 1.202.505.337.337.505.745.505 1.224" font-size="17.008" style="vector-effect:none;fill-rule:nonzero" transform="matrix(.65217 0 0 .65217 2.5 14.687)"/>
        </g>
        <g style="font-style:normal;font-weight:400;font-size:15.8739996px;font-family:icomoon;fill:red;fill-opacity:1;stroke:none">
            <path d="M.656 3.938A.613.613 0 0 1 .4 3.885a1.02 1.02 0 0 1-.215-.133 1.02 1.02 0 0 1-.134-.215A.613.613 0 0 1 0 3.28c0-.095.017-.18.051-.256a1.02 1.02 0 0 1 .134-.215l19.687-19.688c.068-.055.14-.1.215-.133a.613.613 0 0 1 .257-.051.63.63 0 0 1 .461.194.63.63 0 0 1 .195.462.613.613 0 0 1-.051.256 1.014 1.014 0 0 1-.134.215L1.128 3.753c-.068.055-.14.1-.215.133a.613.613 0 0 1-.257.051" font-size="15.874" style="vector-effect:none;fill-rule:nonzero" transform="matrix(.65217 0 0 .65217 3.152 14.28)"/>
        </g>
    </g>
</svg>
