<?xml version="1.0" encoding="UTF-8" standalone="no"?>
<svg
   xmlns:dc="http://purl.org/dc/elements/1.1/"
   xmlns:cc="http://creativecommons.org/ns#"
   xmlns:rdf="http://www.w3.org/1999/02/22-rdf-syntax-ns#"
   xmlns:svg="http://www.w3.org/2000/svg"
   xmlns="http://www.w3.org/2000/svg"
   xmlns:sodipodi="http://sodipodi.sourceforge.net/DTD/sodipodi-0.dtd"
   xmlns:inkscape="http://www.inkscape.org/namespaces/inkscape"
   width="20"
   height="20"
   viewBox="0 0 20 20"
   version="1.2"
   id="svg38"
   sodipodi:docname="60201040332.svg"
   inkscape:version="0.92.4 (5da689c313, 2019-01-14)">
  <metadata
     id="metadata42">
    <rdf:RDF>
      <cc:Work
         rdf:about="">
        <dc:format>image/svg+xml</dc:format>
        <dc:type
           rdf:resource="http://purl.org/dc/dcmitype/StillImage" />
      </cc:Work>
    </rdf:RDF>
  </metadata>
  <sodipodi:namedview
     pagecolor="#ffffff"
     bordercolor="#666666"
     borderopacity="1"
     objecttolerance="10"
     gridtolerance="10"
     guidetolerance="10"
     inkscape:pageopacity="0"
     inkscape:pageshadow="2"
     inkscape:window-width="1920"
     inkscape:window-height="1017"
     id="namedview40"
     showgrid="false"
     inkscape:zoom="11.8"
     inkscape:cx="-5.2542373"
     inkscape:cy="10"
     inkscape:window-x="-8"
     inkscape:window-y="-8"
     inkscape:window-maximized="1"
     inkscape:current-layer="svg38" />
  <title
     id="title2">Qt SVG Document</title>
  <desc
     id="desc4">Generated with Qt</desc>
  <defs
     id="defs6" />
  <g
     id="g36"
     transform="matrix(0.65217391,0,0,0.65217391,-0.43478256,-0.43478256)"
     style="fill:none;fill-rule:evenodd;stroke:#000000;stroke-width:1;stroke-linecap:square;stroke-linejoin:bevel">
    <g
       transform="translate(16,16)"
       font-size="8.25"
       font-weight="400"
       font-style="normal"
       id="g8"
       style="font-style:normal;font-weight:400;font-size:8.25px;font-family:'MS Shell Dlg 2';fill:none;stroke:#000000;stroke-width:1;stroke-linecap:square;stroke-linejoin:bevel;stroke-opacity:1" />
    <g
       transform="matrix(1.33333,0,0,1.33333,16,16)"
       font-size="8.25"
       font-weight="400"
       font-style="normal"
       id="g10"
       style="font-style:normal;font-weight:400;font-size:8.25px;font-family:'MS Shell Dlg 2';fill:none;stroke:#000000;stroke-width:1;stroke-linecap:square;stroke-linejoin:bevel;stroke-opacity:1" />
    <g
       transform="translate(4.5,23.1875)"
       font-size="17.0078"
       font-weight="400"
       font-style="normal"
       id="g14"
       style="font-style:normal;font-weight:400;font-size:17.00779915px;font-family:icomoon;fill:#ff0000;fill-opacity:1;stroke:none">
      <path
         d="M 2.02148,-18.6875 H 20.9785 c 0.5541,0 1.0295,0.1984 1.4263,0.5952 C 22.8016,-17.6955 23,-17.2201 23,-16.666 V 2.29102 C 23,2.84505 22.8016,3.32048 22.4048,3.71729 22.008,4.1141 21.5326,4.3125 20.9785,4.3125 H 2.02148 C 1.46745,4.3125 0.992025,4.1141 0.595215,3.71729 0.198405,3.32048 0,2.84505 0,2.29102 V -16.666 c 0,-0.5541 0.198405,-1.0295 0.595215,-1.4263 0.39681,-0.3968 0.872235,-0.5952 1.426265,-0.5952"
         id="path12"
         inkscape:connector-curvature="0"
         style="vector-effect:none;fill-rule:nonzero" />
    </g>
    <g
       transform="matrix(1.33333,0,0,1.33333,16,16)"
       font-size="8.25"
       font-weight="400"
       font-style="normal"
       id="g16"
       style="font-style:normal;font-weight:400;font-size:8.25px;font-family:'MS Shell Dlg 2';fill:none;stroke:#000000;stroke-width:1;stroke-linecap:square;stroke-linejoin:bevel;stroke-opacity:1" />
    <g
       transform="translate(16,16)"
       font-size="8.25"
       font-weight="400"
       font-style="normal"
       id="g18"
       style="font-style:normal;font-weight:400;font-size:8.25px;font-family:'MS Shell Dlg 2';fill:none;stroke:#000000;stroke-width:1;stroke-linecap:square;stroke-linejoin:bevel;stroke-opacity:1" />
    <g
       font-size="8.25"
       font-weight="400"
       font-style="normal"
       id="g20"
       style="font-style:normal;font-weight:400;font-size:8.25px;font-family:'MS Shell Dlg 2';fill:none;stroke:#000000;stroke-width:1;stroke-linecap:square;stroke-linejoin:bevel;stroke-opacity:1" />
    <g
       transform="translate(16,16)"
       font-size="8.25"
       font-weight="400"
       font-style="normal"
       id="g22"
       style="font-style:normal;font-weight:400;font-size:8.25px;font-family:'MS Shell Dlg 2';fill:none;stroke:#000000;stroke-width:1;stroke-linecap:square;stroke-linejoin:bevel;stroke-opacity:1" />
    <g
       transform="matrix(1.33333,0,0,1.33333,16,16)"
       font-size="8.25"
       font-weight="400"
       font-style="normal"
       id="g24"
       style="font-style:normal;font-weight:400;font-size:8.25px;font-family:'MS Shell Dlg 2';fill:none;stroke:#000000;stroke-width:1;stroke-linecap:square;stroke-linejoin:bevel;stroke-opacity:1" />
    <g
       transform="translate(4.5,23.1875)"
       font-size="17.0078"
       font-weight="400"
       font-style="normal"
       id="g28"
       style="font-style:normal;font-weight:400;font-size:17.00779915px;font-family:icomoon;fill:#000000;fill-opacity:1;stroke:none">
      <path
         d="m 20.9785,-18.0137 c 0.3744,0 0.6926,0.1311 0.9546,0.3931 0.262,0.262 0.3931,0.5802 0.3931,0.9546 V 2.29102 c 0,0.37434 -0.1311,0.69254 -0.3931,0.95459 -0.262,0.26204 -0.5802,0.39306 -0.9546,0.39306 H 2.02148 C 1.64714,3.63867 1.32894,3.50765 1.06689,3.24561 0.80485,2.98356 0.673828,2.66536 0.673828,2.29102 V -16.666 c 0,-0.3744 0.131022,-0.6926 0.393062,-0.9546 0.26205,-0.262 0.58025,-0.3931 0.95459,-0.3931 H 20.9785 m 0,-0.6738 H 2.02148 c -0.55403,0 -1.029455,0.1984 -1.426265,0.5952 C 0.198405,-17.6955 0,-17.2201 0,-16.666 V 2.29102 C 0,2.84505 0.198405,3.32048 0.595215,3.71729 0.992025,4.1141 1.46745,4.3125 2.02148,4.3125 H 20.9785 c 0.5541,0 1.0295,-0.1984 1.4263,-0.59521 C 22.8016,3.32048 23,2.84505 23,2.29102 V -16.666 c 0,-0.5541 -0.1984,-1.0295 -0.5952,-1.4263 -0.3968,-0.3968 -0.8722,-0.5952 -1.4263,-0.5952 m -10.8262,2.6953 h 2.6954 V 1.61719 H 10.1523 V -15.9922 M 2.69531,-8.53516 H 20.3047 v 2.69532 H 2.69531 V -8.53516 M 11.5,2.29102 C 10.1973,2.29102 8.9694,2.04395 7.81641,1.5498 6.66341,1.04069 5.66016,0.359375 4.80664,-0.494141 3.95313,-1.34766 3.27181,-2.35091 2.7627,-3.50391 2.26855,-4.6569 2.02148,-5.88477 2.02148,-7.1875 c 0,-1.30273 0.24707,-2.5306 0.74122,-3.6836 0.50911,-1.153 1.19043,-2.1562 2.04394,-3.0098 0.85352,-0.8535 1.85677,-1.5348 3.00977,-2.0439 1.15299,-0.4941 2.38089,-0.7412 3.68359,-0.7412 1.3027,0 2.5306,0.2471 3.6836,0.7412 1.153,0.5091 2.1562,1.1904 3.0098,2.0439 0.8535,0.8536 1.5348,1.8568 2.0439,3.0098 0.4941,1.153 0.7412,2.38087 0.7412,3.6836 0,1.30273 -0.2471,2.5306 -0.7412,3.68359 -0.5091,1.153 -1.1904,2.15625 -2.0439,3.009769 C 17.3398,0.359375 16.3366,1.04069 15.1836,1.5498 14.0306,2.04395 12.8027,2.29102 11.5,2.29102 m 0,-17.58692 c -1.123,0 -2.17871,0.2096 -3.16699,0.6289 -0.98828,0.4193 -1.84929,0.9958 -2.58301,1.7295 -0.73372,0.7337 -1.31022,1.5947 -1.72949,2.583 -0.41927,0.98829 -0.62891,2.04395 -0.62891,3.167 0,1.12305 0.20964,2.17871 0.62891,3.16699 0.41927,0.98828 0.99577,1.84929 1.72949,2.58301 0.73372,0.733724 1.59473,1.310221 2.58301,1.729492 0.98828,0.419271 2.04399,0.628906 3.16699,0.628906 1.123,0 2.1787,-0.209635 3.167,-0.628906 0.9883,-0.419271 1.8493,-0.995768 2.583,-1.729492 0.7337,-0.73372 1.3102,-1.59473 1.7295,-2.58301 0.4193,-0.98828 0.6289,-2.04394 0.6289,-3.16699 0,-1.12305 -0.2096,-2.17871 -0.6289,-3.167 -0.4193,-0.9883 -0.9958,-1.8493 -1.7295,-2.583 -0.7337,-0.7337 -1.5947,-1.3102 -2.583,-1.7295 -0.9883,-0.4193 -2.044,-0.6289 -3.167,-0.6289"
         id="path26"
         inkscape:connector-curvature="0"
         style="vector-effect:none;fill-rule:nonzero" />
    </g>
    <g
       transform="matrix(1.33333,0,0,1.33333,16,16)"
       font-size="8.25"
       font-weight="400"
       font-style="normal"
       id="g30"
       style="font-style:normal;font-weight:400;font-size:8.25px;font-family:'MS Shell Dlg 2';fill:none;stroke:#000000;stroke-width:1;stroke-linecap:square;stroke-linejoin:bevel;stroke-opacity:1" />
    <g
       transform="translate(16,16)"
       font-size="8.25"
       font-weight="400"
       font-style="normal"
       id="g32"
       style="font-style:normal;font-weight:400;font-size:8.25px;font-family:'MS Shell Dlg 2';fill:none;stroke:#000000;stroke-width:1;stroke-linecap:square;stroke-linejoin:bevel;stroke-opacity:1" />
    <g
       font-size="8.25"
       font-weight="400"
       font-style="normal"
       id="g34"
       style="font-style:normal;font-weight:400;font-size:8.25px;font-family:'MS Shell Dlg 2';fill:none;stroke:#000000;stroke-width:1;stroke-linecap:square;stroke-linejoin:bevel;stroke-opacity:1" />
  </g>
</svg>
