<svg xmlns="http://www.w3.org/2000/svg" width="20" height="20" version="1.2">
    <g font-weight="400" style="fill:none;fill-rule:evenodd;stroke:#000;stroke-width:1;stroke-linecap:square;stroke-linejoin:bevel">
        <g style="font-style:normal;font-weight:400;font-size:22.67709923px;font-family:icomoon;fill:#fff;fill-opacity:1;stroke:none">
            <path d="M2.637-24.375h24.726c.723 0 1.343.259 1.86.776.518.518.777 1.138.777 1.86V2.989c0 .723-.259 1.343-.776 1.86a2.538 2.538 0 0 1-1.86.777H2.636a2.538 2.538 0 0 1-1.86-.776A2.538 2.538 0 0 1 0 2.989v-24.727c0-.723.259-1.343.776-1.86a2.538 2.538 0 0 1 1.86-.777" font-size="22.677" style="vector-effect:none;fill-rule:nonzero" transform="matrix(.66667 0 0 .66667 0 16.25)"/>
        </g>
        <g style="font-style:normal;font-weight:400;font-size:17.00779915px;font-family:icomoon;fill:#000;fill-opacity:1;stroke:none">
            <path d="M20.979-18.014a1.3 1.3 0 0 1 .954.393 1.3 1.3 0 0 1 .393.955V2.291a1.3 1.3 0 0 1-.393.955 1.3 1.3 0 0 1-.955.393H2.021a1.3 1.3 0 0 1-.954-.393 1.3 1.3 0 0 1-.393-.955v-18.957a1.3 1.3 0 0 1 .393-.955 1.3 1.3 0 0 1 .954-.393h18.957m0-.674H2.021c-.554 0-1.029.199-1.426.596A1.946 1.946 0 0 0 0-16.666V2.291c0 .554.198 1.03.595 1.426.397.397.872.595 1.426.595h18.957c.555 0 1.03-.198 1.427-.595.397-.397.595-.872.595-1.426v-18.957c0-.554-.198-1.03-.595-1.426a1.946 1.946 0 0 0-1.426-.596m-8.423 5.077c.15 0 .292-.019.426-.056.135-.038.263-.087.382-.147.36-.18.622-.426.786-.74.165-.315.18-.6.045-.854a1.097 1.097 0 0 0-.37-.37.944.944 0 0 0-.506-.147h-.089c-.15 0-.293.019-.427.056a2.127 2.127 0 0 0-.382.146c-.255.09-.468.247-.64.472-.172.225-.259.48-.259.764 0 .075.008.142.023.202l.045.18v-.023c.09.165.213.292.37.382.158.09.326.135.506.135h.09m.673.045a.97.97 0 0 0-.707.303.97.97 0 0 0-.303.707v3.706l-2.92 1.483a.72.72 0 0 0-.292.27.708.708 0 0 0-.112.381v.023l.157 3.391c.015.195.093.36.236.494a.71.71 0 0 0 .505.203.76.76 0 0 0 .517-.236.71.71 0 0 0 .202-.506v-.045l-.158-2.852 2.583-1.325a.884.884 0 0 0 .27.045.977.977 0 0 0 .719-.292.977.977 0 0 0 .292-.72v-3.031l1.347.718.674 2.471c.03.135.101.243.214.326a.613.613 0 0 0 .37.123h.157a.675.675 0 0 0 .326-.224.566.566 0 0 0 .124-.36v-.09c0-.03-.008-.052-.023-.067l-.719-2.718a1.165 1.165 0 0 0-.112-.213.382.382 0 0 0-.18-.146l-2.246-1.258a.932.932 0 0 0-.359-.404.985.985 0 0 0-.539-.157h-.023M9.074-8.603a.63.63 0 0 0 .124-.01.401.401 0 0 0 .1-.034l2.427-.966a.557.557 0 0 0 .28-.225.612.612 0 0 0 .056-.561.578.578 0 0 0-.213-.281.596.596 0 0 0-.348-.101.63.63 0 0 0-.124.011.399.399 0 0 0-.1.034l-2.426.943a.618.618 0 0 0-.405.584c0 .165.06.307.18.427s.262.18.427.18h.022m4.358 1.527a.717.717 0 0 0-.472.236.71.71 0 0 0-.202.505v.067l.516 4.74a.733.733 0 0 0 .741.674h.09a.717.717 0 0 0 .472-.236.71.71 0 0 0 .202-.506v-.067l-.516-4.74a.733.733 0 0 0-.741-.674h-.09m1.684 8.805V-.09h-3.75v-1.797H7.613v-1.797H3.1v.899h3.75v1.797h3.752V.809h3.773v1.819h4.515v-.899h-3.774" font-size="17.008" style="vector-effect:none;fill-rule:nonzero" transform="matrix(.66667 0 0 .66667 2.333 14.792)"/>
        </g>
        <g style="font-style:normal;font-weight:400;font-size:22.67709923px;font-family:icomoon;fill:#000;fill-opacity:1;stroke:none">
            <path d="M26.426-22.236c.39 0 .727.141 1.01.425.284.283.425.62.425 1.01V2.051c0 .39-.141.727-.425 1.01a1.38 1.38 0 0 1-1.01.425H3.574a1.38 1.38 0 0 1-1.01-.424 1.38 1.38 0 0 1-.425-1.011v-22.852c0-.39.141-.727.424-1.01a1.38 1.38 0 0 1 1.011-.425h22.852m0-.703H3.574c-.586 0-1.089.21-1.509.63-.42.42-.63.922-.63 1.508V2.051c0 .586.21 1.089.63 1.509.42.42.923.63 1.51.63h22.85c.587 0 1.09-.21 1.51-.63.42-.42.63-.923.63-1.51V-20.8c0-.587-.21-1.09-.63-1.51-.42-.42-.923-.63-1.51-.63m1.436-.732c.391 0 .728.142 1.011.425.283.283.425.62.425 1.01V3.487c0 .39-.142.728-.425 1.011a1.38 1.38 0 0 1-1.01.425H2.138a1.38 1.38 0 0 1-1.011-.425 1.38 1.38 0 0 1-.425-1.01v-25.723c0-.391.142-.728.425-1.011a1.38 1.38 0 0 1 1.01-.425h25.723m0-.703H2.14c-.586 0-1.09.21-1.51.63-.419.42-.629.923-.629 1.509V3.486c0 .586.21 1.09.63 1.51.42.419.923.629 1.509.629H27.86c.586 0 1.09-.21 1.51-.63.419-.42.629-.923.629-1.509v-25.722c0-.586-.21-1.09-.63-1.51-.42-.419-.923-.629-1.509-.629" font-size="22.677" style="vector-effect:none;fill-rule:nonzero" transform="matrix(.66667 0 0 .66667 0 16.25)"/>
        </g>
    </g>
</svg>
