<svg xmlns="http://www.w3.org/2000/svg" width="20" height="20" version="1.2">
    <g font-weight="400" style="fill:none;fill-rule:evenodd;stroke:#000;stroke-width:1;stroke-linecap:square;stroke-linejoin:bevel">
        <g style="font-style:normal;font-weight:400;font-size:19.84250069px;font-family:icomoon;fill:#fff;fill-opacity:1;stroke:none">
            <path d="M2.285-21.125h21.43a2.2 2.2 0 0 1 1.612.673A2.2 2.2 0 0 1 26-18.84V2.59a2.2 2.2 0 0 1-.673 1.612 2.2 2.2 0 0 1-1.612.673H2.285a2.2 2.2 0 0 1-1.612-.673A2.2 2.2 0 0 1 0 2.59v-21.43a2.2 2.2 0 0 1 .673-1.612 2.2 2.2 0 0 1 1.612-.673" font-size="19.843" style="vector-effect:none;fill-rule:nonzero" transform="matrix(.6923 0 0 .6923 1 15.625)"/>
        </g>
        <g style="font-style:normal;font-weight:400;font-size:17.00779915px;font-family:icomoon;fill:#000;fill-opacity:1;stroke:none">
            <path d="M20.979-18.014a1.3 1.3 0 0 1 .954.393 1.3 1.3 0 0 1 .393.955V2.291a1.3 1.3 0 0 1-.393.955 1.3 1.3 0 0 1-.955.393H2.021a1.3 1.3 0 0 1-.954-.393 1.3 1.3 0 0 1-.393-.955v-18.957a1.3 1.3 0 0 1 .393-.955 1.3 1.3 0 0 1 .954-.393h18.957m0-.674H2.021c-.554 0-1.029.199-1.426.596A1.946 1.946 0 0 0 0-16.666V2.291c0 .554.198 1.03.595 1.426.397.397.872.595 1.426.595h18.957c.555 0 1.03-.198 1.427-.595.397-.397.595-.872.595-1.426v-18.957c0-.554-.198-1.03-.595-1.426a1.946 1.946 0 0 0-1.426-.596m-8.423 5.077c.15 0 .292-.019.426-.056.135-.038.263-.087.382-.147.36-.18.622-.426.786-.74.165-.315.18-.6.045-.854a1.097 1.097 0 0 0-.37-.37.944.944 0 0 0-.506-.147h-.089c-.15 0-.293.019-.427.056a2.127 2.127 0 0 0-.382.146c-.255.09-.468.247-.64.472-.172.225-.259.48-.259.764 0 .075.008.142.023.202l.045.18v-.023c.09.165.213.292.37.382.158.09.326.135.506.135h.09m.673.045a.97.97 0 0 0-.707.303.97.97 0 0 0-.303.707v3.706l-2.92 1.483a.72.72 0 0 0-.292.27.708.708 0 0 0-.112.381v.023l.157 3.391c.015.195.093.36.236.494a.71.71 0 0 0 .505.203.76.76 0 0 0 .517-.236.71.71 0 0 0 .202-.506v-.045l-.158-2.852 2.583-1.325a.884.884 0 0 0 .27.045.977.977 0 0 0 .719-.292.977.977 0 0 0 .292-.72v-3.031l1.347.718.674 2.471c.03.135.101.243.214.326a.613.613 0 0 0 .37.123h.157a.675.675 0 0 0 .326-.224.566.566 0 0 0 .124-.36v-.09c0-.03-.008-.052-.023-.067l-.719-2.718a1.165 1.165 0 0 0-.112-.213.382.382 0 0 0-.18-.146l-2.246-1.258a.932.932 0 0 0-.359-.404.985.985 0 0 0-.539-.157h-.023M9.074-8.603a.63.63 0 0 0 .124-.01.401.401 0 0 0 .1-.034l2.427-.966a.557.557 0 0 0 .28-.225.612.612 0 0 0 .056-.561.578.578 0 0 0-.213-.281.596.596 0 0 0-.348-.101.63.63 0 0 0-.124.011.399.399 0 0 0-.1.034l-2.426.943a.618.618 0 0 0-.405.584c0 .165.06.307.18.427s.262.18.427.18h.022m4.358 1.527a.717.717 0 0 0-.472.236.71.71 0 0 0-.202.505v.067l.516 4.74a.733.733 0 0 0 .741.674h.09a.717.717 0 0 0 .472-.236.71.71 0 0 0 .202-.506v-.067l-.516-4.74a.733.733 0 0 0-.741-.674h-.09m1.684 8.805V-.09h-3.75v-1.797H7.613v-1.797H3.1v.899h3.75v1.797h3.752V.809h3.773v1.819h4.515v-.899h-3.774" font-size="17.008" style="vector-effect:none;fill-rule:nonzero" transform="matrix(.6923 0 0 .6923 2.038 14.976)"/>
        </g>
        <g style="font-style:normal;font-weight:400;font-size:19.84250069px;font-family:icomoon;fill:#000;fill-opacity:1;stroke:none">
            <path d="M23.943-20.44c.373 0 .694.136.965.407.271.27.406.592.406.965V2.818c0 .373-.135.694-.406.965-.27.271-.592.406-.965.406H2.057c-.373 0-.694-.135-.965-.406a1.318 1.318 0 0 1-.406-.965v-21.886c0-.373.135-.694.406-.965.27-.271.592-.407.965-.407h21.886m0-.685H2.057c-.576 0-1.063.199-1.46.597A1.986 1.986 0 0 0 0-19.068V2.818c0 .576.199 1.063.597 1.46.397.398.884.597 1.46.597h21.886c.576 0 1.063-.199 1.46-.597.398-.397.597-.884.597-1.46v-21.886c0-.576-.199-1.063-.597-1.46a1.986 1.986 0 0 0-1.46-.597" font-size="19.843" style="vector-effect:none;fill-rule:nonzero" transform="matrix(.6923 0 0 .6923 1 15.625)"/>
        </g>
    </g>
</svg>
