<?xml version="1.0" encoding="UTF-8" standalone="no"?>
<svg
   xmlns:dc="http://purl.org/dc/elements/1.1/"
   xmlns:cc="http://creativecommons.org/ns#"
   xmlns:rdf="http://www.w3.org/1999/02/22-rdf-syntax-ns#"
   xmlns:svg="http://www.w3.org/2000/svg"
   xmlns="http://www.w3.org/2000/svg"
   xmlns:sodipodi="http://sodipodi.sourceforge.net/DTD/sodipodi-0.dtd"
   xmlns:inkscape="http://www.inkscape.org/namespaces/inkscape"
   width="20"
   height="20"
   viewBox="0 0 20 20"
   version="1.2"
   id="svg38"
   sodipodi:docname="60203070132.svg"
   inkscape:version="0.92.4 (5da689c313, 2019-01-14)">
  <metadata
     id="metadata42">
    <rdf:RDF>
      <cc:Work
         rdf:about="">
        <dc:format>image/svg+xml</dc:format>
        <dc:type
           rdf:resource="http://purl.org/dc/dcmitype/StillImage" />
      </cc:Work>
    </rdf:RDF>
  </metadata>
  <sodipodi:namedview
     pagecolor="#ffffff"
     bordercolor="#666666"
     borderopacity="1"
     objecttolerance="10"
     gridtolerance="10"
     guidetolerance="10"
     inkscape:pageopacity="0"
     inkscape:pageshadow="2"
     inkscape:window-width="1920"
     inkscape:window-height="1017"
     id="namedview40"
     showgrid="false"
     inkscape:zoom="11.8"
     inkscape:cx="-5.2542373"
     inkscape:cy="10"
     inkscape:window-x="-8"
     inkscape:window-y="-8"
     inkscape:window-maximized="1"
     inkscape:current-layer="svg38" />
  <title
     id="title2">Qt SVG Document</title>
  <desc
     id="desc4">Generated with Qt</desc>
  <defs
     id="defs6" />
  <g
     id="g36"
     transform="matrix(0.65217391,0,0,0.65217391,-0.43478256,-0.43478256)"
     style="fill:none;fill-rule:evenodd;stroke:#000000;stroke-width:1;stroke-linecap:square;stroke-linejoin:bevel">
    <g
       transform="translate(16,16)"
       font-size="8.25"
       font-weight="400"
       font-style="normal"
       id="g8"
       style="font-style:normal;font-weight:400;font-size:8.25px;font-family:'MS Shell Dlg 2';fill:none;stroke:#000000;stroke-width:1;stroke-linecap:square;stroke-linejoin:bevel;stroke-opacity:1" />
    <g
       transform="matrix(1.33333,0,0,1.33333,16,16)"
       font-size="8.25"
       font-weight="400"
       font-style="normal"
       id="g10"
       style="font-style:normal;font-weight:400;font-size:8.25px;font-family:'MS Shell Dlg 2';fill:none;stroke:#000000;stroke-width:1;stroke-linecap:square;stroke-linejoin:bevel;stroke-opacity:1" />
    <g
       transform="translate(4.5,23.1875)"
       font-size="17.0078"
       font-weight="400"
       font-style="normal"
       id="g14"
       style="font-style:normal;font-weight:400;font-size:17.00779915px;font-family:icomoon;fill:#ff0000;fill-opacity:1;stroke:none">
      <path
         d="M 2.02148,-18.6875 H 20.9785 c 0.5541,0 1.0295,0.1984 1.4263,0.5952 C 22.8016,-17.6955 23,-17.2201 23,-16.666 V 2.29102 C 23,2.84505 22.8016,3.32048 22.4048,3.71729 22.008,4.1141 21.5326,4.3125 20.9785,4.3125 H 2.02148 C 1.46745,4.3125 0.992025,4.1141 0.595215,3.71729 0.198405,3.32048 0,2.84505 0,2.29102 V -16.666 c 0,-0.5541 0.198405,-1.0295 0.595215,-1.4263 0.39681,-0.3968 0.872235,-0.5952 1.426265,-0.5952"
         id="path12"
         inkscape:connector-curvature="0"
         style="vector-effect:none;fill-rule:nonzero" />
    </g>
    <g
       transform="matrix(1.33333,0,0,1.33333,16,16)"
       font-size="8.25"
       font-weight="400"
       font-style="normal"
       id="g16"
       style="font-style:normal;font-weight:400;font-size:8.25px;font-family:'MS Shell Dlg 2';fill:none;stroke:#000000;stroke-width:1;stroke-linecap:square;stroke-linejoin:bevel;stroke-opacity:1" />
    <g
       transform="translate(16,16)"
       font-size="8.25"
       font-weight="400"
       font-style="normal"
       id="g18"
       style="font-style:normal;font-weight:400;font-size:8.25px;font-family:'MS Shell Dlg 2';fill:none;stroke:#000000;stroke-width:1;stroke-linecap:square;stroke-linejoin:bevel;stroke-opacity:1" />
    <g
       font-size="8.25"
       font-weight="400"
       font-style="normal"
       id="g20"
       style="font-style:normal;font-weight:400;font-size:8.25px;font-family:'MS Shell Dlg 2';fill:none;stroke:#000000;stroke-width:1;stroke-linecap:square;stroke-linejoin:bevel;stroke-opacity:1" />
    <g
       transform="translate(16,16)"
       font-size="8.25"
       font-weight="400"
       font-style="normal"
       id="g22"
       style="font-style:normal;font-weight:400;font-size:8.25px;font-family:'MS Shell Dlg 2';fill:none;stroke:#000000;stroke-width:1;stroke-linecap:square;stroke-linejoin:bevel;stroke-opacity:1" />
    <g
       transform="matrix(1.33333,0,0,1.33333,16,16)"
       font-size="8.25"
       font-weight="400"
       font-style="normal"
       id="g24"
       style="font-style:normal;font-weight:400;font-size:8.25px;font-family:'MS Shell Dlg 2';fill:none;stroke:#000000;stroke-width:1;stroke-linecap:square;stroke-linejoin:bevel;stroke-opacity:1" />
    <g
       transform="translate(4.5,23.1875)"
       font-size="17.0078"
       font-weight="400"
       font-style="normal"
       id="g28"
       style="font-style:normal;font-weight:400;font-size:17.00779915px;font-family:icomoon;fill:#000000;fill-opacity:1;stroke:none">
      <path
         d="m 20.9785,-18.0137 c 0.3744,0 0.6926,0.1311 0.9546,0.3931 0.262,0.262 0.3931,0.5802 0.3931,0.9546 V 2.29102 c 0,0.37434 -0.1311,0.69254 -0.3931,0.95459 -0.262,0.26204 -0.5802,0.39306 -0.9546,0.39306 H 2.02148 C 1.64714,3.63867 1.32894,3.50765 1.06689,3.24561 0.80485,2.98356 0.673828,2.66536 0.673828,2.29102 V -16.666 c 0,-0.3744 0.131022,-0.6926 0.393062,-0.9546 0.26205,-0.262 0.58025,-0.3931 0.95459,-0.3931 H 20.9785 m 0,-0.6738 H 2.02148 c -0.55403,0 -1.029455,0.1984 -1.426265,0.5952 C 0.198405,-17.6955 0,-17.2201 0,-16.666 V 2.29102 C 0,2.84505 0.198405,3.32048 0.595215,3.71729 0.992025,4.1141 1.46745,4.3125 2.02148,4.3125 H 20.9785 c 0.5541,0 1.0295,-0.1984 1.4263,-0.59521 C 22.8016,3.32048 23,2.84505 23,2.29102 V -16.666 c 0,-0.5541 -0.1984,-1.0295 -0.5952,-1.4263 -0.3968,-0.3968 -0.8722,-0.5952 -1.4263,-0.5952 M 5.25586,-15.7451 H 17.7441 c 0.9883,0 1.7894,3.0397 2.4034,9.11912 v 6.244144 H 18.71 V 1.37012 H 16.4639 V -0.381836 H 6.53613 V 1.37012 H 4.13281 V -0.381836 H 2.85254 V -6.7832 c 0.65885,-5.9447 1.45996,-8.932 2.40332,-8.9619 m 1.93164,0.3144 v 1.5948 h 8.4902 v -1.5948 H 7.1875 m -2.56055,2.2461 -0.80859,5.5928 h 7.05274 v -5.5928 H 4.62695 m 7.34475,0 v 5.5928 h 7.2099 l -0.7861,-5.5928 H 11.9717 M 4.29004,-2.13379 v 0.47168 H 18.2158 V -2.13379 H 4.29004 m 0.38184,-2.65039 c 0,0 -0.00375,0 -0.01124,0 -0.00748,0 -0.01123,0 -0.01123,0 -0.10481,0 -0.20589,0.02246 -0.30322,0.06738 -0.09733,0.04492 -0.18343,0.10482 -0.2583,0.17969 -0.07487,0.08984 -0.13476,0.18343 -0.17969,0.28076 -0.04492,0.09733 -0.06738,0.20589 -0.06738,0.32569 0,0.11979 0.02246,0.22835 0.06738,0.32568 0.04493,0.09733 0.10482,0.18343 0.17969,0.2583 0.07487,0.08984 0.16097,0.15723 0.2583,0.20215 0.09733,0.04492 0.20589,0.06738 0.32569,0.06738 0.10481,0 0.20963,-0.02246 0.31445,-0.06738 0.10482,-0.04492 0.18717,-0.11231 0.24707,-0.20215 0.07487,-0.07487 0.13476,-0.16097 0.17969,-0.2583 0.04492,-0.09733 0.06738,-0.20589 0.06738,-0.32568 0,-0.1198 -0.02246,-0.2321 -0.06738,-0.33692 C 5.36816,-4.3724 5.30827,-4.46224 5.2334,-4.53711 5.1735,-4.61198 5.09489,-4.67188 4.99756,-4.7168 4.90023,-4.76172 4.79167,-4.78418 4.67188,-4.78418 M 6.53613,-4.8291 c -0.11979,0 -0.22835,0.02246 -0.32568,0.06738 -0.09733,0.04492 -0.18343,0.11231 -0.2583,0.20215 -0.07487,0.07487 -0.13477,0.16097 -0.17969,0.2583 -0.04492,0.09733 -0.06738,0.20589 -0.06738,0.32568 0,0.1198 0.02246,0.22836 0.06738,0.32569 0.04492,0.09733 0.10482,0.18343 0.17969,0.2583 0.07487,0.07487 0.16097,0.13476 0.2583,0.17969 0.09733,0.04492 0.20589,0.06738 0.32568,0.06738 0.11979,0 0.22836,-0.02246 0.32569,-0.06738 0.09733,-0.04493 0.18343,-0.10482 0.2583,-0.17969 0.07487,-0.07487 0.13102,-0.16097 0.16845,-0.2583 0.03744,-0.09733 0.05616,-0.20589 0.05616,-0.32569 0,-0.11979 -0.01872,-0.22835 -0.05616,-0.32568 C 7.25114,-4.3986 7.19499,-4.4847 7.12012,-4.55957 7.04525,-4.64941 6.95915,-4.7168 6.86182,-4.76172 6.76449,-4.80664 6.66341,-4.8291 6.55859,-4.8291 c 0,0 -0.00374,0 -0.01123,0 -0.00748,0 -0.01123,0 -0.01123,0 m 9.41117,0.08984 c 0,0 -0.0038,0 -0.0113,0 -0.0075,0 -0.0112,0 -0.0112,0 -0.1048,0 -0.2096,0.02246 -0.3144,0.06738 -0.1049,0.04493 -0.1872,0.10482 -0.2471,0.17969 -0.0749,0.07487 -0.1348,0.16097 -0.1797,0.2583 -0.0449,0.09733 -0.0674,0.2059 -0.0674,0.32569 0,0 0,0.00374 0,0.01123 0,0.00748 0,0.01123 0,0.01123 0,0.11979 0.0225,0.22835 0.0674,0.32568 0.0449,0.09733 0.1048,0.18343 0.1797,0.2583 0.0749,0.07487 0.161,0.13477 0.2583,0.17969 0.0973,0.04492 0.1984,0.06738 0.3032,0.06738 0.1198,0 0.2284,-0.02246 0.3257,-0.06738 0.0973,-0.04492 0.1834,-0.10482 0.2583,-0.17969 0.0749,-0.07487 0.1348,-0.16471 0.1797,-0.26953 0.0449,-0.10482 0.0674,-0.20963 0.0674,-0.31445 0,-0.11979 -0.0225,-0.2321 -0.0674,-0.33692 -0.0449,-0.10481 -0.1048,-0.19466 -0.1797,-0.26953 -0.0749,-0.07487 -0.161,-0.13476 -0.2583,-0.17969 -0.0973,-0.04492 -0.1984,-0.06738 -0.3032,-0.06738 m 1.8642,-0.04492 c 0,0 -0.0037,0 -0.0112,0 -0.0075,0 -0.0112,0 -0.0112,0 -0.1049,0 -0.2059,0.02246 -0.3033,0.06738 -0.0973,0.04492 -0.1834,0.10482 -0.2583,0.17969 -0.0748,0.07487 -0.1347,0.16097 -0.1796,0.2583 -0.045,0.09733 -0.0674,0.20589 -0.0674,0.32568 0,0 0,0.00375 0,0.01124 0,0.00748 0,0.01123 0,0.01123 0,0.11979 0.0224,0.22835 0.0674,0.32568 0.0449,0.09733 0.1048,0.18343 0.1796,0.2583 0.0749,0.07487 0.161,0.13477 0.2583,0.17969 0.0974,0.04492 0.1984,0.06738 0.3033,0.06738 0,0 0.0037,0 0.0112,0 0.0075,0 0.0112,0 0.0112,0 0.1198,0 0.2284,-0.02246 0.3257,-0.06738 0.0973,-0.04492 0.1834,-0.10482 0.2583,-0.17969 0.0599,-0.07487 0.1123,-0.16097 0.1572,-0.2583 0.045,-0.09733 0.0674,-0.20589 0.0674,-0.32568 0,0 0,-0.00375 0,-0.01123 0,-0.00749 0,-0.01124 0,-0.01124 0,-0.11979 -0.0224,-0.22835 -0.0674,-0.32568 -0.0449,-0.09733 -0.0973,-0.18343 -0.1572,-0.2583 -0.0749,-0.07487 -0.161,-0.13477 -0.2583,-0.17969 -0.0973,-0.04492 -0.2059,-0.06738 -0.3257,-0.06738"
         id="path26"
         inkscape:connector-curvature="0"
         style="vector-effect:none;fill-rule:nonzero" />
    </g>
    <g
       transform="matrix(1.33333,0,0,1.33333,16,16)"
       font-size="8.25"
       font-weight="400"
       font-style="normal"
       id="g30"
       style="font-style:normal;font-weight:400;font-size:8.25px;font-family:'MS Shell Dlg 2';fill:none;stroke:#000000;stroke-width:1;stroke-linecap:square;stroke-linejoin:bevel;stroke-opacity:1" />
    <g
       transform="translate(16,16)"
       font-size="8.25"
       font-weight="400"
       font-style="normal"
       id="g32"
       style="font-style:normal;font-weight:400;font-size:8.25px;font-family:'MS Shell Dlg 2';fill:none;stroke:#000000;stroke-width:1;stroke-linecap:square;stroke-linejoin:bevel;stroke-opacity:1" />
    <g
       font-size="8.25"
       font-weight="400"
       font-style="normal"
       id="g34"
       style="font-style:normal;font-weight:400;font-size:8.25px;font-family:'MS Shell Dlg 2';fill:none;stroke:#000000;stroke-width:1;stroke-linecap:square;stroke-linejoin:bevel;stroke-opacity:1" />
  </g>
</svg>
