<?xml version="1.0" encoding="UTF-8" standalone="no"?>
<svg
   xmlns:dc="http://purl.org/dc/elements/1.1/"
   xmlns:cc="http://creativecommons.org/ns#"
   xmlns:rdf="http://www.w3.org/1999/02/22-rdf-syntax-ns#"
   xmlns:svg="http://www.w3.org/2000/svg"
   xmlns="http://www.w3.org/2000/svg"
   xmlns:sodipodi="http://sodipodi.sourceforge.net/DTD/sodipodi-0.dtd"
   xmlns:inkscape="http://www.inkscape.org/namespaces/inkscape"
   width="20"
   height="20"
   viewBox="0 0 20 20"
   version="1.2"
   id="svg52"
   sodipodi:docname="60203070223.svg"
   inkscape:version="0.92.4 (5da689c313, 2019-01-14)">
  <metadata
     id="metadata56">
    <rdf:RDF>
      <cc:Work
         rdf:about="">
        <dc:format>image/svg+xml</dc:format>
        <dc:type
           rdf:resource="http://purl.org/dc/dcmitype/StillImage" />
      </cc:Work>
    </rdf:RDF>
  </metadata>
  <sodipodi:namedview
     pagecolor="#ffffff"
     bordercolor="#666666"
     borderopacity="1"
     objecttolerance="10"
     gridtolerance="10"
     guidetolerance="10"
     inkscape:pageopacity="0"
     inkscape:pageshadow="2"
     inkscape:window-width="1920"
     inkscape:window-height="1017"
     id="namedview54"
     showgrid="false"
     inkscape:zoom="11.8"
     inkscape:cx="-5.2542373"
     inkscape:cy="10"
     inkscape:window-x="-8"
     inkscape:window-y="-8"
     inkscape:window-maximized="1"
     inkscape:current-layer="svg52" />
  <title
     id="title2">Qt SVG Document</title>
  <desc
     id="desc4">Generated with Qt</desc>
  <defs
     id="defs6" />
  <g
     id="g50"
     transform="matrix(0.69230769,0,0,0.69230769,-1.076923,-1.076923)"
     style="fill:none;fill-rule:evenodd;stroke:#000000;stroke-width:1;stroke-linecap:square;stroke-linejoin:bevel">
    <g
       transform="translate(16,16)"
       font-size="8.25"
       font-weight="400"
       font-style="normal"
       id="g8"
       style="font-style:normal;font-weight:400;font-size:8.25px;font-family:'MS Shell Dlg 2';fill:none;stroke:#000000;stroke-width:1;stroke-linecap:square;stroke-linejoin:bevel;stroke-opacity:1" />
    <g
       transform="matrix(1.33333,0,0,1.33333,16,16)"
       font-size="8.25"
       font-weight="400"
       font-style="normal"
       id="g10"
       style="font-style:normal;font-weight:400;font-size:8.25px;font-family:'MS Shell Dlg 2';fill:none;stroke:#000000;stroke-width:1;stroke-linecap:square;stroke-linejoin:bevel;stroke-opacity:1" />
    <g
       transform="translate(3,24.125)"
       font-size="19.8425"
       font-weight="400"
       font-style="normal"
       id="g14"
       style="font-style:normal;font-weight:400;font-size:19.84250069px;font-family:icomoon;fill:#ffff00;fill-opacity:1;stroke:none">
      <path
         d="M 2.28516,-21.125 H 23.7148 c 0.6263,0 1.1638,0.2243 1.6123,0.6729 0.4486,0.4485 0.6729,0.986 0.6729,1.6123 V 2.58984 C 26,3.21615 25.7757,3.75358 25.3271,4.20215 24.8786,4.65072 24.3411,4.875 23.7148,4.875 H 2.28516 C 1.65885,4.875 1.12142,4.65072 0.672852,4.20215 0.224284,3.75358 0,3.21615 0,2.58984 V -18.8398 c 0,-0.6263 0.224284,-1.1638 0.672852,-1.6123 0.448568,-0.4486 0.985998,-0.6729 1.612308,-0.6729"
         id="path12"
         inkscape:connector-curvature="0"
         style="vector-effect:none;fill-rule:nonzero" />
    </g>
    <g
       transform="matrix(1.33333,0,0,1.33333,16,16)"
       font-size="8.25"
       font-weight="400"
       font-style="normal"
       id="g16"
       style="font-style:normal;font-weight:400;font-size:8.25px;font-family:'MS Shell Dlg 2';fill:none;stroke:#000000;stroke-width:1;stroke-linecap:square;stroke-linejoin:bevel;stroke-opacity:1" />
    <g
       transform="translate(16,16)"
       font-size="8.25"
       font-weight="400"
       font-style="normal"
       id="g18"
       style="font-style:normal;font-weight:400;font-size:8.25px;font-family:'MS Shell Dlg 2';fill:none;stroke:#000000;stroke-width:1;stroke-linecap:square;stroke-linejoin:bevel;stroke-opacity:1" />
    <g
       font-size="8.25"
       font-weight="400"
       font-style="normal"
       id="g20"
       style="font-style:normal;font-weight:400;font-size:8.25px;font-family:'MS Shell Dlg 2';fill:none;stroke:#000000;stroke-width:1;stroke-linecap:square;stroke-linejoin:bevel;stroke-opacity:1" />
    <g
       transform="translate(16,16)"
       font-size="8.25"
       font-weight="400"
       font-style="normal"
       id="g22"
       style="font-style:normal;font-weight:400;font-size:8.25px;font-family:'MS Shell Dlg 2';fill:none;stroke:#000000;stroke-width:1;stroke-linecap:square;stroke-linejoin:bevel;stroke-opacity:1" />
    <g
       transform="matrix(1.33333,0,0,1.33333,16,16)"
       font-size="8.25"
       font-weight="400"
       font-style="normal"
       id="g24"
       style="font-style:normal;font-weight:400;font-size:8.25px;font-family:'MS Shell Dlg 2';fill:none;stroke:#000000;stroke-width:1;stroke-linecap:square;stroke-linejoin:bevel;stroke-opacity:1" />
    <g
       transform="translate(4.5,23.1875)"
       font-size="17.0078"
       font-weight="400"
       font-style="normal"
       id="g28"
       style="font-style:normal;font-weight:400;font-size:17.00779915px;font-family:icomoon;fill:#000000;fill-opacity:1;stroke:none">
      <path
         d="m 20.9785,-18.0137 c 0.3744,0 0.6926,0.1311 0.9546,0.3931 0.262,0.262 0.3931,0.5802 0.3931,0.9546 V 2.29102 c 0,0.37434 -0.1311,0.69254 -0.3931,0.95459 -0.262,0.26204 -0.5802,0.39306 -0.9546,0.39306 H 2.02148 C 1.64714,3.63867 1.32894,3.50765 1.06689,3.24561 0.80485,2.98356 0.673828,2.66536 0.673828,2.29102 V -16.666 c 0,-0.3744 0.131022,-0.6926 0.393062,-0.9546 0.26205,-0.262 0.58025,-0.3931 0.95459,-0.3931 H 20.9785 m 0,-0.6738 H 2.02148 c -0.55403,0 -1.029455,0.1984 -1.426265,0.5952 C 0.198405,-17.6955 0,-17.2201 0,-16.666 V 2.29102 C 0,2.84505 0.198405,3.32048 0.595215,3.71729 0.992025,4.1141 1.46745,4.3125 2.02148,4.3125 H 20.9785 c 0.5541,0 1.0295,-0.1984 1.4263,-0.59521 C 22.8016,3.32048 23,2.84505 23,2.29102 V -16.666 c 0,-0.5541 -0.1984,-1.0295 -0.5952,-1.4263 -0.3968,-0.3968 -0.8722,-0.5952 -1.4263,-0.5952 M 18.373,-5.75 c -0.0149,0 -0.0224,0 -0.0224,0 0,0 -0.0075,0 -0.0225,0 -0.2096,0 -0.4118,0.04118 -0.6064,0.12354 -0.1947,0.08235 -0.3594,0.1984 -0.4942,0.34814 h -0.0224 c -0.1348,0.14974 -0.2471,0.32194 -0.3369,0.5166 -0.0899,0.19466 -0.1348,0.4043 -0.1348,0.62891 0,0.01497 0,0.0262 0,0.03369 0,0.00749 0,0.01872 0,0.03369 0,0.22461 0.0449,0.4305 0.1348,0.61768 0.0898,0.18717 0.2021,0.35563 0.3369,0.50537 0.1497,0.13476 0.3219,0.23958 0.5166,0.31445 0.1946,0.07487 0.3968,0.1123 0.6064,0.1123 0,0 0.0038,0 0.0113,0 0.0074,0 0.0187,0 0.0336,0 0,0 0.0038,0 0.0113,0 0.0075,0 0.0112,0 0.0112,0 0.2246,0 0.4305,-0.04117 0.6177,-0.12353 0.1872,-0.08236 0.3481,-0.18343 0.4829,-0.30322 0.1497,-0.14974 0.2658,-0.3182 0.3481,-0.50537 0.0824,-0.18718 0.1236,-0.39307 0.1236,-0.61768 0,0 0,-0.00749 0,-0.02246 0,-0.01497 0,-0.02995 0,-0.04492 0,0 0,-0.00749 0,-0.02246 0,-0.20964 -0.0412,-0.41179 -0.1236,-0.60645 -0.0823,-0.19466 -0.1984,-0.36686 -0.3481,-0.5166 C 19.3613,-5.42806 19.2004,-5.54411 19.0132,-5.62646 18.826,-5.70882 18.6201,-5.75 18.3955,-5.75 c 0,0 -0.0037,0 -0.0112,0 -0.0075,0 -0.0113,0 -0.0113,0 m -12.71284,0 c -0.44922,0 -0.8348,0.15723 -1.15674,0.47168 -0.32194,0.31445 -0.48291,0.69629 -0.48291,1.14551 0,0.01497 0,0.0262 0,0.03369 0,0.00749 0,0.01872 0,0.03369 0,0.22461 0.04118,0.4305 0.12353,0.61768 0.08236,0.18717 0.19841,0.35563 0.34815,0.50537 0.14974,0.13476 0.32194,0.23958 0.5166,0.31445 0.19466,0.07487 0.39681,0.1123 0.60644,0.1123 0.01498,0 0.02247,0 0.02247,0 0,0 0.00748,0 0.02246,0 0,0 0.00374,0 0.01123,0 0.00748,0 0.01123,0 0.01123,0 0.20963,0 0.40804,-0.04117 0.59521,-0.12353 0.18718,-0.08236 0.34815,-0.18343 0.48291,-0.30322 0.13477,-0.14974 0.24333,-0.3182 0.32569,-0.50537 0.08235,-0.18718 0.12353,-0.38558 0.12353,-0.59522 0,-0.01497 0,-0.02995 0,-0.04492 0,-0.01497 0,-0.02995 0,-0.04492 0,0 0,-0.00375 0,-0.01123 0,-0.00749 0,-0.01123 0,-0.01123 0,-0.20964 -0.04118,-0.41179 -0.12353,-0.60645 C 7.00407,-4.95638 6.89551,-5.12858 6.76074,-5.27832 6.62598,-5.42806 6.46501,-5.54411 6.27783,-5.62646 6.09066,-5.70882 5.89225,-5.75 5.68262,-5.75 c 0,0 -0.00375,0 -0.01123,0 -0.00749,0 -0.01123,0 -0.01123,0 m -1.59473,-5.6826 c -0.01497,0 -0.0262,0 -0.03369,0 -0.00749,0 -0.01872,0 -0.03369,0 -0.31446,0 -0.60645,0.0599 -0.87598,0.1797 -0.26953,0.1198 -0.50911,0.2845 -0.71875,0.4941 -0.20964,0.2096 -0.37435,0.453 -0.49414,0.73 -0.11979,0.27701 -0.17969,0.57275 -0.17969,0.8872 0,0.01497 0,0.02246 0,0.02246 0,0 0,0.00749 0,0.02246 v 4.80664 h 1.79688 c 0,-0.31445 0.05989,-0.61019 0.17968,-0.88721 C 3.82585,-5.45426 3.99056,-5.6901 4.2002,-5.88477 4.39486,-6.0944 4.62321,-6.26286 4.88525,-6.39014 5.1473,-6.51742 5.43555,-6.58105 5.75,-6.58105 c 0,0 0.00374,0 0.01123,0 0.00749,0 0.01123,0 0.01123,0 0.01497,0 0.02246,0 0.02246,0 0,0 0.00749,0 0.02246,0 0.29948,0 0.58024,0.06363 0.84229,0.19091 0.26204,0.12728 0.4904,0.28825 0.68506,0.48291 v 0.02246 c 0.19466,0.19467 0.35188,0.42676 0.47168,0.69629 0.11979,0.26953 0.17968,0.55404 0.17968,0.85352 0,0.01497 0,0.0262 0,0.03369 0,0.00749 0,0.01123 0,0.01123 h 8.10841 c 0,0 0,-0.00374 0,-0.01123 0,-0.00749 0,-0.01123 0,-0.01123 0,-0.31445 0.0599,-0.60645 0.1797,-0.87598 0.1198,-0.26953 0.2845,-0.50162 0.4941,-0.69629 0.1947,-0.20963 0.4268,-0.37809 0.6963,-0.50537 0.2695,-0.12728 0.5615,-0.19091 0.876,-0.19091 0,0 0.0037,0 0.0112,0 0.0075,0 0.0112,0 0.0112,0 0,0 0.0038,0 0.0113,0 0.0075,0 0.0112,0 0.0112,0 0.3145,0 0.6065,0.06363 0.876,0.19091 0.2695,0.12728 0.5016,0.28825 0.6963,0.48291 v 0.02246 c 0.2096,0.19467 0.3743,0.43051 0.4941,0.70752 0.1198,0.27702 0.1797,0.56527 0.1797,0.86475 0,0.01497 0,0.02246 0,0.02246 0,0 0,0.00749 0,0.02246 l 0.6738,-0.06738 v -3.7959 l -1.707,-3.30174 H 4.06543 m 0.31445,2.6953 c 0,0.20963 -0.04118,0.36311 -0.12353,0.46044 -0.08236,0.09734 -0.20589,0.146 -0.37061,0.146 H 2.78516 c -0.17969,0 -0.32194,-0.03369 -0.42676,-0.10107 -0.10482,-0.06739 -0.15723,-0.17595 -0.15723,-0.32569 0,-0.04492 0,-0.08235 0,-0.1123 0,-0.02995 0,-0.05241 0,-0.06738 L 2.4707,-10.04 c 0.11979,-0.2396 0.28825,-0.4343 0.50537,-0.584 0.21713,-0.1498 0.45297,-0.2396 0.70752,-0.2696 h 0.02246 c 0.22461,0 0.39307,0.0562 0.50538,0.1685 0.1123,0.1123 0.16845,0.2808 0.16845,0.5054 v 1.4824 m 4.02051,0 c 0,0.01497 0,0.02994 0,0.04492 0,0.01497 0,0.02995 0,0.04492 0,0.16471 -0.05615,0.30322 -0.16846,0.41553 -0.1123,0.1123 -0.25081,0.16845 -0.41552,0.16845 -0.01498,0 -0.02995,0 -0.04493,0 -0.01497,0 -0.02994,0 -0.04492,0 H 5.50293 c -0.01497,0 -0.02995,0 -0.04492,0 -0.01498,0 -0.02995,0 -0.04492,0 -0.16472,0 -0.30323,-0.05615 -0.41553,-0.16845 C 4.88525,-8.34424 4.8291,-8.48275 4.8291,-8.64746 c 0,-0.01497 0,-0.02995 0,-0.04492 0,-0.01498 0,-0.02995 0,-0.04492 v -1.415 c 0,-0.2396 0.05615,-0.4118 0.16846,-0.5166 0.1123,-0.1049 0.28076,-0.1573 0.50537,-0.1573 h 2.24609 c 0.22461,0 0.39307,0.0562 0.50537,0.1685 0.11231,0.1123 0.16846,0.2807 0.16846,0.5054 l -0.02246,1.415 m 4.02051,0.04492 c 0,0.20963 -0.0524,0.37435 -0.1572,0.49414 -0.1048,0.11979 -0.2621,0.17969 -0.4717,0.17969 H 9.52344 c -0.22461,0 -0.39307,-0.05616 -0.50537,-0.16846 C 8.90576,-8.29932 8.84961,-8.46777 8.84961,-8.69238 v -1.50492 c 0,0 0,-0.0075 0,-0.0224 0,-0.015 0,-0.03 0,-0.0449 0,-0.1648 0.0599,-0.307 0.17969,-0.4268 0.11979,-0.1198 0.26204,-0.1797 0.42675,-0.1797 0.01498,0 0.02995,0 0.04493,0 0.01497,0 0.02246,0 0.02246,0 h 2.29106 c 0.2096,0 0.3668,0.0599 0.4716,0.1797 0.1049,0.1198 0.1573,0.2845 0.1573,0.4941 l -0.0225,1.50492 m 4.1777,0 c 0,0.20963 -0.0524,0.37435 -0.1572,0.49414 -0.1048,0.11979 -0.2695,0.17969 -0.4941,0.17969 h -2.3135 c 0,0 -0.0075,0 -0.0225,0 -0.0149,0 -0.0299,0 -0.0449,0 -0.1647,0 -0.307,-0.0599 -0.4268,-0.17969 C 13.0199,-8.31803 12.96,-8.46029 12.96,-8.625 c 0,-0.01497 0,-0.02995 0,-0.04492 0,-0.01498 0,-0.02995 0,-0.04492 v 0.02246 -1.50492 c 0,-0.2246 0.0561,-0.393 0.1684,-0.5053 0.1123,-0.1123 0.2808,-0.1685 0.5054,-0.1685 h 2.3359 c 0.2246,0 0.3893,0.0599 0.4942,0.1797 0.1048,0.1198 0.1572,0.2845 0.1572,0.4941 l -0.0225,1.50492 m 3.7061,-0.47168 c 0.0299,0.07487 0.0599,0.15722 0.0898,0.24707 0.03,0.08984 0.045,0.17969 0.045,0.26953 v 0.17969 c 0,0.31445 -0.1722,0.47168 -0.5166,0.47168 h -2.0665 c -0.2246,0 -0.3968,-0.05616 -0.5166,-0.16846 -0.1197,-0.11231 -0.1796,-0.28076 -0.1796,-0.50537 v -1.50488 c 0,0 0,-0.0075 0,-0.0225 0,-0.0149 0,-0.0299 0,-0.0449 0,-0.1647 0.0599,-0.307 0.1796,-0.4267 0.1198,-0.1198 0.2621,-0.1797 0.4268,-0.1797 0.015,0 0.0299,0 0.0449,0 0.015,0 0.03,0 0.0449,0 l 1.2579,-0.045 c 0.0898,0 0.1984,0.0749 0.3256,0.2247 0.1273,0.1497 0.2883,0.3743 0.483,0.67378 0.0898,0.17969 0.1647,0.34066 0.2246,0.48291 0.0599,0.14226 0.1123,0.2583 0.1572,0.34815"
         id="path26"
         inkscape:connector-curvature="0"
         style="vector-effect:none;fill-rule:nonzero" />
    </g>
    <g
       transform="matrix(1.33333,0,0,1.33333,16,16)"
       font-size="8.25"
       font-weight="400"
       font-style="normal"
       id="g30"
       style="font-style:normal;font-weight:400;font-size:8.25px;font-family:'MS Shell Dlg 2';fill:none;stroke:#000000;stroke-width:1;stroke-linecap:square;stroke-linejoin:bevel;stroke-opacity:1" />
    <g
       transform="translate(16,16)"
       font-size="8.25"
       font-weight="400"
       font-style="normal"
       id="g32"
       style="font-style:normal;font-weight:400;font-size:8.25px;font-family:'MS Shell Dlg 2';fill:none;stroke:#000000;stroke-width:1;stroke-linecap:square;stroke-linejoin:bevel;stroke-opacity:1" />
    <g
       font-size="8.25"
       font-weight="400"
       font-style="normal"
       id="g34"
       style="font-style:normal;font-weight:400;font-size:8.25px;font-family:'MS Shell Dlg 2';fill:none;stroke:#000000;stroke-width:1;stroke-linecap:square;stroke-linejoin:bevel;stroke-opacity:1" />
    <g
       transform="translate(16,16)"
       font-size="8.25"
       font-weight="400"
       font-style="normal"
       id="g36"
       style="font-style:normal;font-weight:400;font-size:8.25px;font-family:'MS Shell Dlg 2';fill:none;stroke:#000000;stroke-width:1;stroke-linecap:square;stroke-linejoin:bevel;stroke-opacity:1" />
    <g
       transform="matrix(1.33333,0,0,1.33333,16,16)"
       font-size="8.25"
       font-weight="400"
       font-style="normal"
       id="g38"
       style="font-style:normal;font-weight:400;font-size:8.25px;font-family:'MS Shell Dlg 2';fill:none;stroke:#000000;stroke-width:1;stroke-linecap:square;stroke-linejoin:bevel;stroke-opacity:1" />
    <g
       transform="translate(3,24.125)"
       font-size="19.8425"
       font-weight="400"
       font-style="normal"
       id="g42"
       style="font-style:normal;font-weight:400;font-size:19.84250069px;font-family:icomoon;fill:#000000;fill-opacity:1;stroke:none">
      <path
         d="m 23.9434,-20.4395 c 0.3724,0 0.694,0.1355 0.9648,0.4063 0.2708,0.2708 0.4063,0.5924 0.4063,0.9648 V 2.81836 c 0,0.3724 -0.1355,0.69401 -0.4063,0.96484 -0.2708,0.27084 -0.5924,0.40625 -0.9648,0.40625 H 2.05664 C 1.68424,4.18945 1.36263,4.05404 1.0918,3.7832 0.820964,3.51237 0.685547,3.19076 0.685547,2.81836 V -19.0684 c 0,-0.3724 0.135417,-0.694 0.406253,-0.9648 0.27083,-0.2708 0.59244,-0.4063 0.96484,-0.4063 H 23.9434 m 0,-0.6855 H 2.05664 c -0.57552,0 -1.062174,0.1989 -1.45996,0.5967 C 0.198893,-20.1305 0,-19.6439 0,-19.0684 V 2.81836 C 0,3.39388 0.198893,3.88053 0.59668,4.27832 0.994466,4.67611 1.48112,4.875 2.05664,4.875 H 23.9434 c 0.5755,0 1.0621,-0.19889 1.4599,-0.59668 C 25.8011,3.88053 26,3.39388 26,2.81836 V -19.0684 c 0,-0.5755 -0.1989,-1.0621 -0.5967,-1.4599 -0.3978,-0.3978 -0.8844,-0.5967 -1.4599,-0.5967"
         id="path40"
         inkscape:connector-curvature="0"
         style="vector-effect:none;fill-rule:nonzero" />
    </g>
    <g
       transform="matrix(1.33333,0,0,1.33333,16,16)"
       font-size="8.25"
       font-weight="400"
       font-style="normal"
       id="g44"
       style="font-style:normal;font-weight:400;font-size:8.25px;font-family:'MS Shell Dlg 2';fill:none;stroke:#000000;stroke-width:1;stroke-linecap:square;stroke-linejoin:bevel;stroke-opacity:1" />
    <g
       transform="translate(16,16)"
       font-size="8.25"
       font-weight="400"
       font-style="normal"
       id="g46"
       style="font-style:normal;font-weight:400;font-size:8.25px;font-family:'MS Shell Dlg 2';fill:none;stroke:#000000;stroke-width:1;stroke-linecap:square;stroke-linejoin:bevel;stroke-opacity:1" />
    <g
       font-size="8.25"
       font-weight="400"
       font-style="normal"
       id="g48"
       style="font-style:normal;font-weight:400;font-size:8.25px;font-family:'MS Shell Dlg 2';fill:none;stroke:#000000;stroke-width:1;stroke-linecap:square;stroke-linejoin:bevel;stroke-opacity:1" />
  </g>
</svg>
