<svg xmlns="http://www.w3.org/2000/svg" width="20" height="20" version="1.2">
    <g font-weight="400" style="fill:none;fill-rule:evenodd;stroke:#000;stroke-width:1;stroke-linecap:square;stroke-linejoin:bevel">
        <g style="font-style:normal;font-weight:400;font-size:19.84250069px;font-family:icomoon;fill:red;fill-opacity:1;stroke:none">
            <path d="M2.285-21.125h21.43a2.2 2.2 0 0 1 1.612.673A2.2 2.2 0 0 1 26-18.84V2.59a2.2 2.2 0 0 1-.673 1.612 2.2 2.2 0 0 1-1.612.673H2.285a2.2 2.2 0 0 1-1.612-.673A2.2 2.2 0 0 1 0 2.59v-21.43a2.2 2.2 0 0 1 .673-1.612 2.2 2.2 0 0 1 1.612-.673" font-size="19.843" style="vector-effect:none;fill-rule:nonzero" transform="matrix(.6923 0 0 .6923 1 15.625)"/>
        </g>
        <g style="font-style:normal;font-weight:400;font-size:17.00779915px;font-family:icomoon;fill:#000;fill-opacity:1;stroke:none">
            <path d="M20.979-18.014a1.3 1.3 0 0 1 .954.393 1.3 1.3 0 0 1 .393.955V2.291a1.3 1.3 0 0 1-.393.955 1.3 1.3 0 0 1-.955.393H2.021a1.3 1.3 0 0 1-.954-.393 1.3 1.3 0 0 1-.393-.955v-18.957a1.3 1.3 0 0 1 .393-.955 1.3 1.3 0 0 1 .954-.393h18.957m0-.674H2.021c-.554 0-1.029.199-1.426.596A1.946 1.946 0 0 0 0-16.666V2.291c0 .554.198 1.03.595 1.426.397.397.872.595 1.426.595h18.957c.555 0 1.03-.198 1.427-.595.397-.397.595-.872.595-1.426v-18.957c0-.554-.198-1.03-.595-1.426a1.946 1.946 0 0 0-1.426-.596m-8.244 11.41 2.157 1.865c.06.06.134.105.224.135.09.03.18.045.27.045.21 0 .39-.075.539-.225.15-.15.224-.33.224-.54a.767.767 0 0 0-.067-.325.888.888 0 0 0-.18-.258L13.77-8.445a1.25 1.25 0 0 0-.259-.158.716.716 0 0 0-.303-.067c-.21 0-.39.079-.539.236a.773.773 0 0 0-.225.55c0 .12.027.236.079.348a.612.612 0 0 0 .213.259m3.684 8.692-1.46-4.694-2.673-3.347v-4.559c0-.375-.13-.697-.393-.966a1.282 1.282 0 0 0-.955-.405 1.775 1.775 0 0 0-.539.124 1.143 1.143 0 0 0-.426.303 62.02 62.02 0 0 0-1.966 1.37c-.876.63-1.478 1.176-1.808 1.64-.18.344-.318.715-.415 1.112a7.347 7.347 0 0 0-.191 1.246v.09a.71.71 0 0 0 .202.505.825.825 0 0 0 .472.259h.09a.775.775 0 0 0 .516-.191.68.68 0 0 0 .247-.483c.03-.3.071-.588.124-.865.052-.277.123-.55.213-.82l-.022.068a9.998 9.998 0 0 1 1-.955c.351-.292.714-.558 1.088-.797l.045-.045v3.347c0 .329.105.617.315.864.21.247.472.4.786.46h.022l2.426 3.033 1.348 4.335c.06.21.18.382.36.517.179.134.381.202.606.202.06 0 .116-.004.168-.012a.833.833 0 0 0 .146-.033c.21-.06.386-.18.528-.36a.983.983 0 0 0 .213-.629.663.663 0 0 0-.022-.157 2.154 2.154 0 0 0-.045-.157m-5.233-5.66a1.025 1.025 0 0 0-.584-.18.965.965 0 0 0-.472.124c-.15.082-.27.19-.36.325L6.605.696a1.168 1.168 0 0 0-.113.259 1.09 1.09 0 0 0 .067.797c.075.15.18.27.315.36.09.044.18.085.27.123.09.037.187.056.292.056.18 0 .344-.041.494-.124.15-.082.27-.19.36-.325l3.144-4.695a.774.774 0 0 0 .134-.258c.03-.097.045-.198.045-.303 0-.18-.037-.34-.112-.483a.937.937 0 0 0-.314-.348m1.19-8.445a1.584 1.584 0 0 0 .719-1.348 1.772 1.772 0 0 0-.292-.943v.022a1.624 1.624 0 0 0-.607-.685 1.634 1.634 0 0 0-.898-.258c-.12 0-.24.01-.36.033s-.232.064-.336.124l.022-.023c-.225.165-.4.363-.528.596-.127.232-.19.49-.19.774 0 .18.025.349.078.506.052.157.123.303.213.438.135.27.337.49.607.662.27.173.569.259.898.259.12 0 .24-.011.36-.034.12-.022.232-.064.336-.123h-.022" font-size="17.008" style="vector-effect:none;fill-rule:nonzero" transform="matrix(.6923 0 0 .6923 2.038 14.976)"/>
        </g>
        <g style="font-style:normal;font-weight:400;font-size:19.84250069px;font-family:icomoon;fill:#000;fill-opacity:1;stroke:none">
            <path d="M23.943-20.44c.373 0 .694.136.965.407.271.27.406.592.406.965V2.818c0 .373-.135.694-.406.965-.27.271-.592.406-.965.406H2.057c-.373 0-.694-.135-.965-.406a1.318 1.318 0 0 1-.406-.965v-21.886c0-.373.135-.694.406-.965.27-.271.592-.407.965-.407h21.886m0-.685H2.057c-.576 0-1.063.199-1.46.597A1.986 1.986 0 0 0 0-19.068V2.818c0 .576.199 1.063.597 1.46.397.398.884.597 1.46.597h21.886c.576 0 1.063-.199 1.46-.597.398-.397.597-.884.597-1.46v-21.886c0-.576-.199-1.063-.597-1.46a1.986 1.986 0 0 0-1.46-.597" font-size="19.843" style="vector-effect:none;fill-rule:nonzero" transform="matrix(.6923 0 0 .6923 1 15.625)"/>
        </g>
    </g>
</svg>
