<svg xmlns="http://www.w3.org/2000/svg" width="20" height="20" version="1.2">
    <g font-weight="400" style="fill:none;fill-rule:evenodd;stroke:#000;stroke-width:1;stroke-linecap:square;stroke-linejoin:bevel">
        <g style="font-style:normal;font-weight:400;font-size:17.00779915px;font-family:icomoon;fill:red;fill-opacity:1;stroke:none">
            <path d="M2.021-18.688h18.957c.555 0 1.03.199 1.427.596.397.396.595.872.595 1.426V2.291c0 .554-.198 1.03-.595 1.426a1.946 1.946 0 0 1-1.427.595H2.021c-.554 0-1.029-.198-1.426-.595A1.946 1.946 0 0 1 0 2.291v-18.957c0-.554.198-1.03.595-1.426a1.946 1.946 0 0 1 1.426-.596" font-size="17.008" style="vector-effect:none;fill-rule:nonzero" transform="matrix(.65217 0 0 .65217 2.5 14.687)"/>
        </g>
        <g style="font-style:normal;font-weight:400;font-size:17.00779915px;font-family:icomoon;fill:#000;fill-opacity:1;stroke:none">
            <path d="M20.979-18.014a1.3 1.3 0 0 1 .954.393 1.3 1.3 0 0 1 .393.955V2.291a1.3 1.3 0 0 1-.393.955 1.3 1.3 0 0 1-.955.393H2.021a1.3 1.3 0 0 1-.954-.393 1.3 1.3 0 0 1-.393-.955v-18.957a1.3 1.3 0 0 1 .393-.955 1.3 1.3 0 0 1 .954-.393h18.957m0-.674H2.021c-.554 0-1.029.199-1.426.596A1.946 1.946 0 0 0 0-16.666V2.291c0 .554.198 1.03.595 1.426.397.397.872.595 1.426.595h18.957c.555 0 1.03-.198 1.427-.595.397-.397.595-.872.595-1.426v-18.957c0-.554-.198-1.03-.595-1.426a1.946 1.946 0 0 0-1.426-.596m-4.246 5.122.966-1.303a.497.497 0 0 0 .09-.292.433.433 0 0 0-.056-.213.862.862 0 0 0-.146-.191.497.497 0 0 0-.292-.09.52.52 0 0 0-.213.045.422.422 0 0 0-.169.134l-.966 1.348a10.685 10.685 0 0 0-3.144-1.46 9.748 9.748 0 0 0-3.145-.326 7.345 7.345 0 0 0-2.83.753 5.9 5.9 0 0 0-2.156 1.82 2.695 2.695 0 0 0-.315.493l-.022.023c.225-.21.483-.378.775-.506.292-.127.603-.19.932-.19a2.34 2.34 0 0 1 1.718.707 2.313 2.313 0 0 1 .685 1.988l-.045.27v-.023c.18-.105.375-.187.584-.247.21-.06.427-.09.652-.09a2.33 2.33 0 0 1 1.595.595c.449.397.71.887.786 1.471L5.503.09a1.19 1.19 0 0 1-.393.326 1.073 1.073 0 0 1-.506.123c-.314 0-.583-.108-.808-.326a1.066 1.066 0 0 1-.337-.797c0-.135.019-.258.056-.37a.927.927 0 0 1 .169-.304.534.534 0 0 0-.112-.719.567.567 0 0 0-.135-.067.478.478 0 0 0-.37.034.529.529 0 0 0-.17.146c-.134.18-.235.374-.303.584a2.19 2.19 0 0 0-.1.674c0 .359.078.688.235.988.157.3.363.546.618.741h.022c.165.135.356.24.573.315.217.074.445.112.685.112.344 0 .67-.079.977-.236.307-.157.558-.37.752-.64l6.492-8.917c.06-.015.123-.026.19-.034a2.333 2.333 0 0 1 .977.112c.24.083.457.199.652.349.3.224.54.505.719.842.18.337.27.707.27 1.112 0 .09-.005.183-.012.28-.007.098-.026.191-.056.281l.022-.022c.165-.105.352-.187.562-.247.21-.06.427-.09.651-.09.674 0 1.247.24 1.718.719a2.35 2.35 0 0 1 .708 1.707 2.4 2.4 0 0 1-.27 1.123v-.023a5.911 5.911 0 0 0 1.46-3.1 7.359 7.359 0 0 0-.134-2.908c-.24-.98-.66-1.943-1.258-2.886a10.88 10.88 0 0 0-2.314-2.538" font-size="17.008" style="vector-effect:none;fill-rule:nonzero" transform="matrix(.65217 0 0 .65217 2.5 14.687)"/>
        </g>
    </g>
</svg>
