<svg xmlns="http://www.w3.org/2000/svg" width="20" height="20" version="1.2">
    <g font-weight="400" style="fill:none;fill-rule:evenodd;stroke:#000;stroke-width:1;stroke-linecap:square;stroke-linejoin:bevel">
        <g style="font-style:normal;font-weight:400;font-size:17.00779915px;font-family:icomoon;fill:#fff;fill-opacity:1;stroke:none">
            <path d="M2.021-18.688h18.957c.555 0 1.03.199 1.427.596.397.396.595.872.595 1.426V2.291c0 .554-.198 1.03-.595 1.426a1.946 1.946 0 0 1-1.427.595H2.021c-.554 0-1.029-.198-1.426-.595A1.946 1.946 0 0 1 0 2.291v-18.957c0-.554.198-1.03.595-1.426a1.946 1.946 0 0 1 1.426-.596" font-size="17.008" style="vector-effect:none;fill-rule:nonzero" transform="matrix(.65217 0 0 .65217 2.5 14.687)"/>
        </g>
        <g style="font-style:normal;font-weight:400;font-size:17.00779915px;font-family:icomoon;fill:#000;fill-opacity:1;stroke:none">
            <path d="M20.979-18.014a1.3 1.3 0 0 1 .954.393 1.3 1.3 0 0 1 .393.955V2.291a1.3 1.3 0 0 1-.393.955 1.3 1.3 0 0 1-.955.393H2.021a1.3 1.3 0 0 1-.954-.393 1.3 1.3 0 0 1-.393-.955v-18.957a1.3 1.3 0 0 1 .393-.955 1.3 1.3 0 0 1 .954-.393h18.957m0-.674H2.021c-.554 0-1.029.199-1.426.596A1.946 1.946 0 0 0 0-16.666V2.291c0 .554.198 1.03.595 1.426.397.397.872.595 1.426.595h18.957c.555 0 1.03-.198 1.427-.595.397-.397.595-.872.595-1.426v-18.957c0-.554-.198-1.03-.595-1.426a1.946 1.946 0 0 0-1.426-.596M18.26-3.121v-4.74h-2.696v-1.347h2.022v-3.392h-2.022c0-1.123-.396-2.081-1.19-2.875-.794-.793-1.752-1.19-2.875-1.19s-2.081.397-2.875 1.19c-.794.794-1.19 1.752-1.19 2.875H5.413v3.392h2.022v1.348H4.739v4.739h2.696v2.695h-2.09v2.718H17.52V-.427h-1.955v-2.695h2.696m-.674-4.066v3.392h-2.022v-3.392h2.022M11.5-15.992c.928 0 1.726.333 2.392 1 .666.666 1 1.463 1 2.391H8.108c0-.928.334-1.725 1-2.392.666-.666 1.464-1 2.392-1m-5.413 6.11v-2.044h10.826v2.044H6.087m-.674 6.087v-3.391h2.022v3.391H5.413m9.479 3.37H8.108V-9.21h6.784v8.782M11.5-7.86c-.659 0-1.217.232-1.673.696a2.287 2.287 0 0 0-.685 1.662c0 .659.228 1.22.685 1.685a2.258 2.258 0 0 0 1.673.696c.659 0 1.217-.232 1.673-.696a2.314 2.314 0 0 0 .685-1.685c0-.644-.228-1.198-.685-1.662a2.258 2.258 0 0 0-1.673-.696m0 4.065c-.464 0-.861-.168-1.19-.505a1.66 1.66 0 0 1-.495-1.202c0-.464.165-.86.495-1.19.329-.33.726-.494 1.19-.494.464 0 .861.164 1.19.494.33.33.495.726.495 1.19 0 .464-.165.865-.495 1.202-.329.337-.726.505-1.19.505" font-size="17.008" style="vector-effect:none;fill-rule:nonzero" transform="matrix(.65217 0 0 .65217 2.5 14.687)"/>
        </g>
    </g>
</svg>
