<svg xmlns="http://www.w3.org/2000/svg" width="20" height="20" version="1.2">
    <g font-weight="400" style="fill:none;fill-rule:evenodd;stroke:#000;stroke-width:1;stroke-linecap:square;stroke-linejoin:bevel">
        <g style="font-style:normal;font-weight:400;font-size:19.84250069px;font-family:icomoon;fill:#fff;fill-opacity:1;stroke:none">
            <path d="M2.285-21.125h21.43a2.2 2.2 0 0 1 1.612.673A2.2 2.2 0 0 1 26-18.84V2.59a2.2 2.2 0 0 1-.673 1.612 2.2 2.2 0 0 1-1.612.673H2.285a2.2 2.2 0 0 1-1.612-.673A2.2 2.2 0 0 1 0 2.59v-21.43a2.2 2.2 0 0 1 .673-1.612 2.2 2.2 0 0 1 1.612-.673" font-size="19.843" style="vector-effect:none;fill-rule:nonzero" transform="matrix(.6923 0 0 .6923 1 15.625)"/>
        </g>
        <g style="font-style:normal;font-weight:400;font-size:17.00779915px;font-family:icomoon;fill:#000;fill-opacity:1;stroke:none">
            <path d="M20.979-18.014a1.3 1.3 0 0 1 .954.393 1.3 1.3 0 0 1 .393.955V2.291a1.3 1.3 0 0 1-.393.955 1.3 1.3 0 0 1-.955.393H2.021a1.3 1.3 0 0 1-.954-.393 1.3 1.3 0 0 1-.393-.955v-18.957a1.3 1.3 0 0 1 .393-.955 1.3 1.3 0 0 1 .954-.393h18.957m0-.674H2.021c-.554 0-1.029.199-1.426.596A1.946 1.946 0 0 0 0-16.666V2.291c0 .554.198 1.03.595 1.426.397.397.872.595 1.426.595h18.957c.555 0 1.03-.198 1.427-.595.397-.397.595-.872.595-1.426v-18.957c0-.554-.198-1.03-.595-1.426a1.946 1.946 0 0 0-1.426-.596m-3.19 2.808-.09-.112H5.301l-.09.135a13.333 13.333 0 0 0-.921 1.527c-.27.539-.498 1.1-.685 1.685a13.105 13.105 0 0 0-.438 1.796 11.592 11.592 0 0 0-.157 1.91v.089c0 1.438.224 2.793.674 4.066.449 1.273 1.055 2.38 1.819 3.324A8.788 8.788 0 0 0 8.198.786a6.884 6.884 0 0 0 3.302.831 6.884 6.884 0 0 0 3.302-.83 8.722 8.722 0 0 0 2.695-2.258c.764-.951 1.37-2.063 1.82-3.336.449-1.272.673-2.628.673-4.065v-.09c0-.659-.052-1.295-.157-1.91a12.897 12.897 0 0 0-1.123-3.504 13.037 13.037 0 0 0-.943-1.526l.022.022m-2.74 4.447c.689 0 1.28.206 1.774.618.494.412.741.82.741 1.224h-5.03c0-.404.246-.812.74-1.224.495-.412 1.086-.618 1.775-.618M3.684-8.85v-.089c0-1.183.176-2.318.527-3.403a11.517 11.517 0 0 1 1.472-2.999l-.023.045h5.84v6.087l1.64 3.684H11.5v2.156a5.838 5.838 0 0 1-1.91-.45 6.005 6.005 0 0 1-1.616-1.01c-.075.719.067 1.28.426 1.684.36.39.768.682 1.225.876.456.195.887.315 1.291.36l.584.067v-1.482l.584.067c.404.045.835.165 1.292.36.456.194.864.494 1.224.898.359.39.501.943.426 1.662a6.062 6.062 0 0 0-3.503-1.482H11.5V.92A6.288 6.288 0 0 1 8.468.157a8.128 8.128 0 0 1-2.482-2.089c-.711-.883-1.27-1.916-1.673-3.1a11.475 11.475 0 0 1-.63-3.818m6.941-1.123c0 .405-.243.749-.73 1.034-.487.284-1.082.426-1.786.426-.688 0-1.276-.142-1.763-.426-.486-.285-.73-.63-.73-1.034s.244-.748.73-1.033c.487-.284 1.075-.427 1.763-.427.704 0 1.3.143 1.786.427.487.285.73.629.73 1.033" font-size="17.008" style="vector-effect:none;fill-rule:nonzero" transform="matrix(.6923 0 0 .6923 2.038 14.976)"/>
        </g>
        <g style="font-style:normal;font-weight:400;font-size:19.84250069px;font-family:icomoon;fill:#000;fill-opacity:1;stroke:none">
            <path d="M23.943-20.44c.373 0 .694.136.965.407.271.27.406.592.406.965V2.818c0 .373-.135.694-.406.965-.27.271-.592.406-.965.406H2.057c-.373 0-.694-.135-.965-.406a1.318 1.318 0 0 1-.406-.965v-21.886c0-.373.135-.694.406-.965.27-.271.592-.407.965-.407h21.886m0-.685H2.057c-.576 0-1.063.199-1.46.597A1.986 1.986 0 0 0 0-19.068V2.818c0 .576.199 1.063.597 1.46.397.398.884.597 1.46.597h21.886c.576 0 1.063-.199 1.46-.597.398-.397.597-.884.597-1.46v-21.886c0-.576-.199-1.063-.597-1.46a1.986 1.986 0 0 0-1.46-.597" font-size="19.843" style="vector-effect:none;fill-rule:nonzero" transform="matrix(.6923 0 0 .6923 1 15.625)"/>
        </g>
    </g>
</svg>
