<svg xmlns="http://www.w3.org/2000/svg" width="20" height="20" version="1.2">
    <g font-weight="400" style="fill:none;fill-rule:evenodd;stroke:#000;stroke-width:1;stroke-linecap:square;stroke-linejoin:bevel">
        <g style="font-style:normal;font-weight:400;font-size:19.84250069px;font-family:icomoon;fill:#ff0;fill-opacity:1;stroke:none">
            <path d="M2.285-21.125h21.43a2.2 2.2 0 0 1 1.612.673A2.2 2.2 0 0 1 26-18.84V2.59a2.2 2.2 0 0 1-.673 1.612 2.2 2.2 0 0 1-1.612.673H2.285a2.2 2.2 0 0 1-1.612-.673A2.2 2.2 0 0 1 0 2.59v-21.43a2.2 2.2 0 0 1 .673-1.612 2.2 2.2 0 0 1 1.612-.673" font-size="19.843" style="vector-effect:none;fill-rule:nonzero" transform="matrix(.6923 0 0 .6923 1 15.625)"/>
        </g>
        <g style="font-style:normal;font-weight:400;font-size:17.00779915px;font-family:icomoon;fill:#000;fill-opacity:1;stroke:none">
            <path d="M20.979-18.014a1.3 1.3 0 0 1 .954.393 1.3 1.3 0 0 1 .393.955V2.291a1.3 1.3 0 0 1-.393.955 1.3 1.3 0 0 1-.955.393H2.021a1.3 1.3 0 0 1-.954-.393 1.3 1.3 0 0 1-.393-.955v-18.957a1.3 1.3 0 0 1 .393-.955 1.3 1.3 0 0 1 .954-.393h18.957m0-.674H2.021c-.554 0-1.029.199-1.426.596A1.946 1.946 0 0 0 0-16.666V2.291c0 .554.198 1.03.595 1.426.397.397.872.595 1.426.595h18.957c.555 0 1.03-.198 1.427-.595.397-.397.595-.872.595-1.426v-18.957c0-.554-.198-1.03-.595-1.426a1.946 1.946 0 0 0-1.426-.596m-3.729 2.92c-.659.45-1.25.966-1.774 1.55-.54.584-1 1.22-1.382 1.91a10.56 10.56 0 0 0-.91 2.2 10.01 10.01 0 0 0-.381 2.426v.023l.696-.427c.464-.27.973-.722 1.527-1.359.554-.636 1.064-1.471 1.528-2.504.464-1.033.696-2.306.696-3.819m-5.48 9.03c-.165-1.019-.101-2.104.19-3.257l.438-1.73-.561.45c-.374.3-.76.763-1.157 1.392-.397.63-.715 1.438-.954 2.426-.24.988-.225 2.179.045 3.571.733.27 1.482.352 2.246.247a5.464 5.464 0 0 0 2.122-.752 5.749 5.749 0 0 0 1.696-1.606 5.86 5.86 0 0 0 .988-2.291c-.823.734-1.602 1.187-2.336 1.359-.733.172-1.64.236-2.717.19M8.917-2.83a8.06 8.06 0 0 1-.326-3.268l.169-1.718-.494.471c-.315.33-.648.79-1 1.382-.352.591-.648 1.306-.887 2.145-.225.838-.247 1.782-.067 2.83L3.392 1.55a.422.422 0 0 0-.135.168.52.52 0 0 0-.045.214.502.502 0 0 0 .517.516c.06 0 .12-.011.18-.033a.436.436 0 0 0 .156-.102l2.988-2.56c.704.165 1.422.21 2.156.135a7.124 7.124 0 0 0 2.078-.528 6.112 6.112 0 0 0 1.74-1.112 4.503 4.503 0 0 0 1.146-1.617c-.958.284-1.82.509-2.583.674-.764.164-1.655.12-2.673-.135" font-size="17.008" style="vector-effect:none;fill-rule:nonzero" transform="matrix(.6923 0 0 .6923 2.038 14.976)"/>
        </g>
        <g style="font-style:normal;font-weight:400;font-size:19.84250069px;font-family:icomoon;fill:#000;fill-opacity:1;stroke:none">
            <path d="M23.943-20.44c.373 0 .694.136.965.407.271.27.406.592.406.965V2.818c0 .373-.135.694-.406.965-.27.271-.592.406-.965.406H2.057c-.373 0-.694-.135-.965-.406a1.318 1.318 0 0 1-.406-.965v-21.886c0-.373.135-.694.406-.965.27-.271.592-.407.965-.407h21.886m0-.685H2.057c-.576 0-1.063.199-1.46.597A1.986 1.986 0 0 0 0-19.068V2.818c0 .576.199 1.063.597 1.46.397.398.884.597 1.46.597h21.886c.576 0 1.063-.199 1.46-.597.398-.397.597-.884.597-1.46v-21.886c0-.576-.199-1.063-.597-1.46a1.986 1.986 0 0 0-1.46-.597" font-size="19.843" style="vector-effect:none;fill-rule:nonzero" transform="matrix(.6923 0 0 .6923 1 15.625)"/>
        </g>
    </g>
</svg>
