<svg xmlns="http://www.w3.org/2000/svg" xml:space="preserve" width="20" height="20"><defs><clipPath id="a" clipPathUnits="userSpaceOnUse"><path fill="red" d="M86.717 282.24c-.917.024-1.834.046-2.75.074l.092.004h2.925z"/></clipPath></defs><path fill="#11ff19" fill-opacity=".81" d="M137.958 197.253a50.361 55.068 0 0 0-50.362 55.068 50.361 55.068 0 0 0 2.49 16.93h5.928l-.121-.089c-.031-.024-.13-.069-.093-.071.081-.005.157.042.235.063.122.033.245.068.367.097h9.331c1.826 0 3.652 0 5.478-.002 2.503-.002 5.004-.003 7.507-.008 4.034-.009 8.07-.022 12.104-.051 5.389-.042 10.778-.097 16.166-.236 1.018-.107 2.036-.223 3.055-.316 2.848-.287 5.703-.458 8.561-.567 1.577-.07 3.156-.06 4.733-.107 1.524-.045 3.05-.14 4.572-.213 2.983-.164 5.96-.407 8.942-.59 2.265-.123 4.528-.255 6.795-.338.942-.016 1.885.01 2.827.03a50.361 55.068 0 0 0 1.846-14.532 50.361 55.068 0 0 0-50.362-55.068z" clip-path="url(#a)" paint-order="stroke markers fill" transform="translate(1.734 .53) scale(.04425)"/><path fill="#fff" d="M1.758 0h16.484c.482 0 .895.173 1.24.517.345.346.518.759.518 1.24v16.486c0 .482-.173.895-.517 1.24a1.692 1.692 0 0 1-1.24.518H1.757a1.692 1.692 0 0 1-1.24-.518A1.692 1.692 0 0 1 0 18.243V1.758C0 1.276.173.863.517.518A1.692 1.692 0 0 1 1.757 0" font-family="icomoon" font-size="22.677" font-weight="400"/><path d="M3.754 2.333c-.369 0-.686.132-.95.397a1.297 1.297 0 0 0-.397.95v12.639c0 .369.132.686.396.95.265.265.582.397.951.397h12.638c.37 0 .687-.132.951-.397.265-.264.397-.581.397-.95V3.681c0-.37-.132-.687-.397-.951a1.297 1.297 0 0 0-.95-.397zm0 .449h12.638c.25 0 .462.087.637.262a.867.867 0 0 1 .262.637v12.638c0 .25-.088.461-.262.636a.866.866 0 0 1-.637.262H3.754a.867.867 0 0 1-.636-.262.866.866 0 0 1-.262-.636V3.681c0-.25.087-.462.262-.637a.867.867 0 0 1 .636-.262Zm2.264 3.061c-.004.02-.01.035-.016.052l.029.002z" font-family="icomoon" font-size="17.008" font-weight="400"/><path d="M17.617 1.426a.92.92 0 0 1 .674.283c.19.189.283.414.283.674v15.234a.92.92 0 0 1-.283.674.92.92 0 0 1-.674.283H2.383a.92.92 0 0 1-.674-.283.92.92 0 0 1-.283-.674V2.383a.92.92 0 0 1 .283-.674.92.92 0 0 1 .674-.283h15.234m0-.469H2.383c-.391 0-.726.14-1.006.42-.28.28-.42.615-.42 1.006v15.234c0 .391.14.726.42 1.006.28.28.615.42 1.006.42h15.234c.391 0 .726-.14 1.006-.42.28-.28.42-.615.42-1.006V2.383c0-.391-.14-.726-.42-1.006-.28-.28-.615-.42-1.006-.42m.957-.488a.92.92 0 0 1 .674.283.92.92 0 0 1 .283.673v17.15a.92.92 0 0 1-.283.674.92.92 0 0 1-.673.283H1.425a.92.92 0 0 1-.674-.283.92.92 0 0 1-.283-.674V1.427A.92.92 0 0 1 .751.753a.92.92 0 0 1 .674-.284h17.148m0-.468H1.427A1.37 1.37 0 0 0 .42.42C.14.7 0 1.036 0 1.427v17.147c0 .39.14.727.42 1.007.28.279.616.419 1.007.419h17.146c.391 0 .727-.14 1.007-.42.28-.28.42-.615.42-1.006V1.426c0-.39-.14-.727-.42-1.007A1.38 1.38 0 0 0 18.572 0" font-family="icomoon" font-size="22.677" font-weight="400"/><path d="M12.066 16.838a4.026 4.026 0 0 1-.597-.31c-.798-.487-1.037-.516-1.577-.195-.333.198-.324.205-.324-.256 0-.464.007-.476.358-.615.527-.208 1.128-.116 1.638.25.727.522 1.07.53 1.827.045.878-.563 1.32-.568 2.124-.024.205.139.332.2.586.285.55.181.671.291.615.557-.106.506-.598.432-1.601-.24-.465-.311-.811-.277-1.543.155-.706.415-1.052.495-1.506.348zM2.77 14.997v-1.873l3.112-.015c1.711-.007 3.12-.008 3.13 0 .01.005.017.855.017 1.886v1.875h-6.26Zm9.53.338c-.203-.038-.324-.095-.833-.39-.763-.442-1.082-.476-1.588-.166l-.276.17-.012-.399c-.014-.468-.014-.461.078-.523.538-.356 1.246-.3 1.938.152.712.465 1.17.494 1.654.102.777-.629 1.486-.66 2.25-.099.277.204.434.276.717.331.363.07.45.14.482.383.034.272-.123.428-.426.421-.33-.006-.555-.107-1.068-.477-.55-.397-.883-.381-1.603.076-.659.419-.9.496-1.313.419zm-.071-1.488a1.994 1.994 0 0 1-.53-.286c-.653-.474-1.18-.566-1.799-.313-.366.15-.332.182-.332-.327v-.435h-.27c-.313 0-.272.063-.328-.51-.056-.57-.156-.977-.311-1.268-.077-.143-.193-.426-.193-.47 0-.084 1.106-.364 1.852-.469a64.7 64.7 0 0 0 .809-.12 30.528 30.528 0 0 1 2.238-.27c.33-.024.662-.052.739-.06.687-.078 1.95-.073 2.18.008.21.075.018 1.427-.351 2.468-.24.676-.461 1.213-.587 1.428l-.048.081-.346-.098c-.594-.168-.98-.105-1.493.241-.413.28-.55.359-.677.39-.123.029-.46.035-.553.01zM3.05 12.113v-.373l.076-.02c.042-.01.223-.073.401-.14.179-.065.33-.112.337-.104.013.018-.06.946-.077.984-.007.014-.176.026-.375.026H3.05Zm1.047.353c-.03-.038-.015-.625.02-.815C4.454 9.827 6.111 8.81 7.4 9.64c.867.557 1.458 1.8 1.31 2.752l-.015.094h-2.29c-1.26 0-2.298-.009-2.307-.02zm1.135-.34c.474 0 .795-.013.795-.028 0-.036-.914-1.212-1.06-1.365-.136-.14-.146-.134-.316.215-.192.395-.373 1.256-.251 1.196.02-.01.395-.018.832-.018zm3.21-.116c0-.346-.272-1.159-.452-1.35-.058-.062-1.08 1.144-1.188 1.402-.026.064-.026.064.807.064h.833Zm-2.21-2.293c-.074-.064-.423.042-.709.216-.569.347-.558.392.352 1.48l.375.449.006-1.06c.005-.827 0-1.065-.024-1.085Zm.967 1.336.551-.704-.117-.137c-.204-.237-.777-.514-1.072-.518-.01 0-.018.48-.018 1.066v1.067l.053-.035c.029-.019.3-.352.603-.739zm-4.149.042c0-.66.188-.906 1.16-1.522.597-.378 1.15-.74 2.544-1.664.38-.252.813-.536.961-.632.148-.096.507-.333.797-.526a29.39 29.39 0 0 1 1.582-.992c.353-.208.568-.35.62-.409.006-.006-.02-.051-.057-.1-.217-.29-.685-.145-1.522.472-.194.143-.475.343-.623.445a367.415 470.596 0 0 0-1.166.805 252.177 252.177 0 0 1-2.14 1.476 63.76 63.76 0 0 1-1.136.764l-.502.336c-.15.102-.18.082-.132-.09.1-.366.424-.757 1.137-1.37.462-.4.492-.478.54-1.412.053-1.008.194-1.32.677-1.491.48-.171.731-.033.936.517.137.37.08.397 1.048-.48 2.576-2.339 3.033-2.37 3.364-.234.021.14.035.171.066.16.537-.2 1.153-.154 1.438.106.31.283.67 1.898.78 3.501.02.28.003.276-.296-.056-.448-.497-1.437-.524-2.723-.072l-.463.163-.725.256c-1.547.548-1.354.505-1.577.35-1.244-.864-2.834-.268-3.493 1.308l-.098.236-.223.095c-.21.09-.724.28-.758.28a.839.839 0 0 1-.016-.22z"/><path d="M8.964 16.837H9l-.03-.005.036.002.011.016.012.02v.573H2.824v-1.032h6.148z" paint-order="stroke markers fill"/></svg>