<svg xmlns="http://www.w3.org/2000/svg" width="20" height="20" version="1.2">
    <g font-weight="400" style="fill:none;fill-rule:evenodd;stroke:#000;stroke-width:1;stroke-linecap:square;stroke-linejoin:bevel">
        <g style="font-style:normal;font-weight:400;font-size:22.67709923px;font-family:icomoon;fill:#fff;fill-opacity:1;stroke:none">
            <path d="M2.637-24.375h24.726c.723 0 1.343.259 1.86.776.518.518.777 1.138.777 1.86V2.989c0 .723-.259 1.343-.776 1.86a2.538 2.538 0 0 1-1.86.777H2.636a2.538 2.538 0 0 1-1.86-.776A2.538 2.538 0 0 1 0 2.989v-24.727c0-.723.259-1.343.776-1.86a2.538 2.538 0 0 1 1.86-.777" font-size="22.677" style="vector-effect:none;fill-rule:nonzero" transform="matrix(.66667 0 0 .66667 0 16.25)"/>
        </g>
        <g style="font-style:normal;font-weight:400;font-size:17.00779915px;font-family:icomoon;fill:#000;fill-opacity:1;stroke:none">
            <path d="M20.979-18.014a1.3 1.3 0 0 1 .954.393 1.3 1.3 0 0 1 .393.955V2.291a1.3 1.3 0 0 1-.393.955 1.3 1.3 0 0 1-.955.393H2.021a1.3 1.3 0 0 1-.954-.393 1.3 1.3 0 0 1-.393-.955v-18.957a1.3 1.3 0 0 1 .393-.955 1.3 1.3 0 0 1 .954-.393h18.957m0-.674H2.021c-.554 0-1.029.199-1.426.596A1.946 1.946 0 0 0 0-16.666V2.291c0 .554.198 1.03.595 1.426.397.397.872.595 1.426.595h18.957c.555 0 1.03-.198 1.427-.595.397-.397.595-.872.595-1.426v-18.957c0-.554-.198-1.03-.595-1.426a1.946 1.946 0 0 0-1.426-.596m-13.5 10.76c-.074.104-.13.22-.168.347a1.437 1.437 0 0 0 .045.92c.067.174.168.32.303.44.12.12.262.216.427.291a1.287 1.287 0 0 0 1.056 0c.164-.075.307-.172.426-.292.135-.12.236-.265.304-.438a1.437 1.437 0 0 0 .044-.92 1.492 1.492 0 0 0-.168-.371v.022c.075.105.131.217.168.337.038.12.057.255.057.405h4.986a1.387 1.387 0 0 1 .225-.764v.022c-.075.105-.131.221-.169.348a1.387 1.387 0 0 0-.056.394c0 .374.131.692.393.954a1.3 1.3 0 0 0 .955.393c.194 0 .374-.034.539-.1.164-.068.307-.17.427-.304.12-.12.217-.262.292-.427.074-.165.112-.337.112-.516a1.387 1.387 0 0 1 0-.022v.022h1.145V-8.49l-.786-1.146h-2.134l-1.64-2.448h-4.85l-1.416 2.56h-1.73l-.808 1.101v1.235h1.797a1.353 1.353 0 0 1 .224-.763v.022m9.322 1.236a.719.719 0 0 1-.214.146.618.618 0 0 1-.258.056.636.636 0 0 1-.483-.202.693.693 0 0 1-.19-.495c0-.18.063-.336.19-.471a.636.636 0 0 1 .483-.202c.18 0 .337.067.472.202a.647.647 0 0 1 .202.471.672.672 0 0 1-.202.495m-4.627-4.605H13.7l.786 1.775h-2.313v-1.775M9.097-6.693a.72.72 0 0 1-.214.146.671.671 0 0 1-.752-.146.686.686 0 0 1-.146-.225.696.696 0 0 1-.056-.27c0-.09.018-.18.056-.269a.686.686 0 0 1 .36-.37.671.671 0 0 1 .752.145c.06.06.108.135.146.225.037.09.056.18.056.27 0 .09-.019.18-.056.269a.686.686 0 0 1-.146.225m.876-4.605H11.5v1.775H9.187l.786-1.775m10.444 1.775v3.795H3.998v-3.324H2.763v3.324l.966 2.718h15.093l2.044-2.718v-3.795h-.449m-3.549 7.95-1.797-.785-1.752.74-1.797-.763-1.751.741-1.797-.786-1.752.741-1.797-.786-1.887.786.247.63 1.64-.674 1.774.786 1.775-.742L9.77-.92l1.752-.741 1.774.786 1.774-.741 1.797.786 1.752-.741 1.64.74.292-.628-1.932-.853-1.752.74" font-size="17.008" style="vector-effect:none;fill-rule:nonzero" transform="matrix(.66667 0 0 .66667 2.333 14.792)"/>
        </g>
        <g style="font-style:normal;font-weight:400;font-size:22.67709923px;font-family:icomoon;fill:#000;fill-opacity:1;stroke:none">
            <path d="M26.426-22.236c.39 0 .727.141 1.01.425.284.283.425.62.425 1.01V2.051c0 .39-.141.727-.425 1.01a1.38 1.38 0 0 1-1.01.425H3.574a1.38 1.38 0 0 1-1.01-.424 1.38 1.38 0 0 1-.425-1.011v-22.852c0-.39.141-.727.424-1.01a1.38 1.38 0 0 1 1.011-.425h22.852m0-.703H3.574c-.586 0-1.089.21-1.509.63-.42.42-.63.922-.63 1.508V2.051c0 .586.21 1.089.63 1.509.42.42.923.63 1.51.63h22.85c.587 0 1.09-.21 1.51-.63.42-.42.63-.923.63-1.51V-20.8c0-.587-.21-1.09-.63-1.51-.42-.42-.923-.63-1.51-.63m1.436-.732c.391 0 .728.142 1.011.425.283.283.425.62.425 1.01V3.487c0 .39-.142.728-.425 1.011a1.38 1.38 0 0 1-1.01.425H2.138a1.38 1.38 0 0 1-1.011-.425 1.38 1.38 0 0 1-.425-1.01v-25.723c0-.391.142-.728.425-1.011a1.38 1.38 0 0 1 1.01-.425h25.723m0-.703H2.14c-.586 0-1.09.21-1.51.63-.419.42-.629.923-.629 1.509V3.486c0 .586.21 1.09.63 1.51.42.419.923.629 1.509.629H27.86c.586 0 1.09-.21 1.51-.63.419-.42.629-.923.629-1.509v-25.722c0-.586-.21-1.09-.63-1.51-.42-.419-.923-.629-1.509-.629" font-size="22.677" style="vector-effect:none;fill-rule:nonzero" transform="matrix(.66667 0 0 .66667 0 16.25)"/>
        </g>
        <g style="font-style:normal;font-weight:400;font-size:21.54330063px;font-family:icomoon;fill:red;fill-opacity:1;stroke:none">
            <path d="M.906 5.438a.847.847 0 0 1-.354-.071 1.409 1.409 0 0 1-.297-.184 1.408 1.408 0 0 1-.184-.298A.847.847 0 0 1 0 4.531c0-.132.024-.25.07-.354.048-.104.11-.203.185-.297l27.187-27.188a1.41 1.41 0 0 1 .298-.184.847.847 0 0 1 .354-.07c.245 0 .458.09.637.269.18.179.269.391.269.637 0 .132-.024.25-.07.354a1.41 1.41 0 0 1-.185.297L1.558 5.183a1.408 1.408 0 0 1-.298.184.847.847 0 0 1-.354.07" font-size="21.543" style="vector-effect:none;fill-rule:nonzero" transform="matrix(.66667 0 0 .66667 .333 16.042)"/>
        </g>
    </g>
</svg>
