<svg xmlns="http://www.w3.org/2000/svg" xml:space="preserve" width="400" height="400">
    <defs>
        <clipPath id="a" clipPathUnits="userSpaceOnUse">
            <path d="M86.717 282.24c-.917.024-1.834.046-2.75.074l.092.004h2.925l-.267-.078z" style="fill:red;fill-opacity:1;fill-rule:nonzero;stroke:none"/>
        </clipPath>
    </defs>
    <path d="M137.958 197.253a50.361 55.068 0 0 0-50.362 55.068 50.361 55.068 0 0 0 2.49 16.93h5.928l-.121-.089c-.031-.024-.13-.069-.093-.071.081-.005.157.042.235.063.122.033.245.068.367.097h9.331c1.826 0 3.652 0 5.478-.002 2.503-.002 5.004-.003 7.507-.008 4.034-.009 8.07-.022 12.104-.051 5.389-.042 10.778-.097 16.166-.236 1.018-.107 2.036-.223 3.055-.316 2.848-.287 5.703-.458 8.561-.567 1.577-.07 3.156-.06 4.733-.107 1.524-.045 3.05-.14 4.572-.213 2.983-.164 5.96-.407 8.942-.59 2.265-.123 4.528-.255 6.795-.338.942-.016 1.885.01 2.827.03a50.361 55.068 0 0 0 1.846-14.532 50.361 55.068 0 0 0-50.362-55.068z" clip-path="url(#a)" style="fill:#11ff19;fill-opacity:.809689;stroke:#000;stroke-width:26.1345;stroke-linecap:round;stroke-linejoin:bevel;stroke-opacity:0;paint-order:stroke markers fill" transform="matrix(.04425 0 0 .04425 1.734 .53)"/>
    <g style="font-style:normal;font-weight:400;font-size:22.6771px;font-family:icomoon;display:inline;fill:#ff0;fill-opacity:1;fill-rule:evenodd;stroke:none;stroke-width:1;stroke-linecap:square;stroke-linejoin:bevel">
        <path d="M2.637-24.375h24.726c.723 0 1.343.259 1.86.776.518.518.777 1.138.777 1.86V2.989c0 .723-.259 1.343-.776 1.86a2.538 2.538 0 0 1-1.86.777H2.636a2.538 2.538 0 0 1-1.86-.776A2.538 2.538 0 0 1 0 2.989v-24.727c0-.723.259-1.343.776-1.86a2.538 2.538 0 0 1 1.86-.777" font-size="22.677" font-weight="400" style="vector-effect:none;fill:#ff0;fill-opacity:1;fill-rule:nonzero" transform="matrix(.66667 0 0 .66667 0 16.25)"/>
    </g>
    <path d="M88.572 60.356c-.369 0-.686.132-.95.397a1.297 1.297 0 0 0-.397.95v12.639c0 .369.132.686.396.95.265.265.582.397.951.397h12.638c.37 0 .687-.132.951-.397.265-.264.397-.581.397-.95V61.704c0-.37-.132-.687-.397-.951a1.297 1.297 0 0 0-.95-.397zm0 .449h12.638c.25 0 .462.087.637.262a.867.867 0 0 1 .262.637v12.638c0 .25-.088.461-.262.636a.866.866 0 0 1-.637.262H88.572a.867.867 0 0 1-.636-.262.866.866 0 0 1-.262-.636V61.704c0-.25.087-.462.262-.637a.867.867 0 0 1 .636-.262zm2.264 3.061c-.004.02-.01.035-.016.052l.029.002-.013-.054z" style="font-style:normal;font-weight:400;font-size:17.0078px;font-family:icomoon;display:inline;vector-effect:none;fill:#000;fill-opacity:1;fill-rule:nonzero;stroke:none;stroke-width:.666668;stroke-linecap:square;stroke-linejoin:bevel" transform="translate(-84.818 -58.023)"/>
    <g style="font-style:normal;font-weight:400;font-size:22.6771px;font-family:icomoon;display:inline;fill:#000;fill-opacity:1;fill-rule:evenodd;stroke:none;stroke-width:1;stroke-linecap:square;stroke-linejoin:bevel">
        <path d="M26.426-22.236c.39 0 .727.141 1.01.425.284.283.425.62.425 1.01V2.051c0 .39-.141.727-.425 1.01a1.38 1.38 0 0 1-1.01.425H3.574a1.38 1.38 0 0 1-1.01-.424 1.38 1.38 0 0 1-.425-1.011v-22.852c0-.39.141-.727.424-1.01a1.38 1.38 0 0 1 1.011-.425h22.852m0-.703H3.574c-.586 0-1.089.21-1.509.63-.42.42-.63.922-.63 1.508V2.051c0 .586.21 1.089.63 1.509.42.42.923.63 1.51.63h22.85c.587 0 1.09-.21 1.51-.63.42-.42.63-.923.63-1.51V-20.8c0-.587-.21-1.09-.63-1.51-.42-.42-.923-.63-1.51-.63m1.436-.732c.391 0 .728.142 1.011.425.283.283.425.62.425 1.01V3.487c0 .39-.142.728-.425 1.011a1.38 1.38 0 0 1-1.01.425H2.138a1.38 1.38 0 0 1-1.011-.425 1.38 1.38 0 0 1-.425-1.01v-25.723c0-.391.142-.728.425-1.011a1.38 1.38 0 0 1 1.01-.425h25.723m0-.703H2.14c-.586 0-1.09.21-1.51.63-.419.42-.629.923-.629 1.509V3.486c0 .586.21 1.09.63 1.51.42.419.923.629 1.509.629H27.86c.586 0 1.09-.21 1.51-.63.419-.42.629-.923.629-1.509v-25.722c0-.586-.21-1.09-.63-1.51-.42-.419-.923-.629-1.509-.629" font-size="22.677" font-weight="400" style="vector-effect:none;fill-rule:nonzero" transform="matrix(.66667 0 0 .66667 0 16.25)"/>
    </g>
    <path d="M241.284 366.766c-2.43-.615-8.51-3.087-13.908-5.655-18.564-8.833-24.12-9.367-36.682-3.53-7.746 3.6-7.539 3.727-7.539-4.65 0-8.434.158-8.645 8.33-11.162 12.27-3.778 26.244-2.12 38.1 4.524 16.93 9.485 24.908 9.64 42.529.82 20.418-10.217 30.705-10.306 49.404-.427 4.777 2.524 7.734 3.645 13.635 5.169 12.794 3.3 15.622 5.3 14.323 10.125-2.476 9.19-13.936 7.852-37.272-4.355-10.814-5.657-18.867-5.028-35.895 2.803-16.426 7.553-24.462 9.007-35.025 6.336zM24.986 333.312v-34.018l72.403-.266c39.822-.136 72.588-.158 72.813-.023.228.113.409 15.548.409 34.28v34.055H24.986Zm221.729 6.14c-4.724-.687-7.526-1.716-19.382-7.083-17.737-8.034-25.178-8.64-36.932-3.015l-6.428 3.077-.274-7.23c-.325-8.504-.343-8.388 1.808-9.501 12.513-6.47 28.991-5.463 45.099 2.757 16.563 8.453 27.207 8.964 38.478 1.849 18.082-11.415 34.576-11.979 52.333-1.788 6.454 3.704 10.1 5.015 16.696 6.006 8.443 1.27 10.488 2.537 11.204 6.951.805 4.95-2.846 7.772-9.902 7.657-7.675-.113-12.907-1.953-24.84-8.673-12.802-7.21-20.55-6.923-37.295 1.385-15.337 7.609-20.96 9.008-30.565 7.61zm-1.657-27.023c-2.995-.64-8.115-2.795-12.333-5.192-15.174-8.62-27.439-10.289-41.844-5.693-8.506 2.714-7.727 3.312-7.727-5.936v-7.909h-6.262c-7.297 0-6.357 1.139-7.657-9.272-1.292-10.352-3.614-17.737-7.24-23.026-1.783-2.602-4.475-7.742-4.475-8.547 0-1.521 25.723-6.593 43.087-8.499 4.35-.479 12.817-1.464 18.817-2.192 18.416-2.235 37.52-4.028 52.086-4.889 7.65-.452 15.38-.951 17.181-1.111 15.993-1.415 45.368-1.318 50.723.158 4.898 1.353.416 25.925-8.177 44.827-5.587 12.289-10.718 22.042-13.651 25.95l-1.103 1.468-8.072-1.78c-13.809-3.05-22.784-1.92-34.72 4.382-9.616 5.078-12.805 6.507-15.754 7.062-2.868.538-10.703.658-12.879.181zM31.53 280.925v-6.774l1.772-.355c.974-.18 5.172-1.331 9.327-2.535 4.156-1.197 7.677-2.056 7.825-1.907.321.32-1.37 17.191-1.787 17.874-.159.264-4.08.47-8.713.47h-8.422zm24.362 6.41c-.685-.684-.346-11.357.465-14.807 7.809-33.12 46.366-51.568 76.348-36.527 20.183 10.125 33.936 32.686 30.474 49.994l-.343 1.706h-53.291c-29.31 0-53.455-.158-53.655-.366zm26.406-6.18c11.017 0 18.5-.229 18.5-.505 0-.65-21.264-22.004-24.691-24.795-3.138-2.554-3.38-2.425-7.332 3.914-4.466 7.167-8.671 22.805-5.84 21.719.478-.181 9.188-.33 19.363-.33zm74.676-2.096c0-6.291-6.324-21.053-10.508-24.525-1.358-1.127-25.127 20.777-27.64 25.471-.616 1.15-.616 1.15 18.767 1.15h19.381zm-51.398-41.653c-1.747-1.173-9.866.755-16.505 3.92-13.238 6.306-12.992 7.114 8.181 26.887l8.726 8.149.136-19.248c.113-15.025-.008-19.348-.547-19.708zm22.492 24.267 12.817-12.796-2.727-2.481c-4.744-4.316-18.075-9.347-24.953-9.416-.228-.004-.409 8.717-.409 19.377v19.38l1.225-.634c.676-.35 6.995-6.393 14.044-13.43zm-96.538.761c0-11.972 4.374-16.452 26.998-27.653 13.876-6.87 26.74-13.438 59.177-30.215 8.85-4.577 18.912-9.748 22.362-11.491 3.45-1.743 11.794-6.043 18.544-9.555 13.753-7.157 22.434-11.407 36.815-18.023 8.204-3.775 13.196-6.343 14.413-7.414.136-.113-.474-.938-1.33-1.84-5.04-5.26-15.922-2.624-35.415 8.583-4.515 2.596-11.032 6.236-14.482 8.088a8548.512 8548.512 0 0 0-27.134 14.624c-22.003 11.925-32.142 17.396-38.042 20.528-2.1 1.114-7.377 3.94-11.727 6.279-8.27 4.447-12.043 6.428-26.452 13.89-4.8 2.487-10.059 5.23-11.688 6.095-3.483 1.854-4.17 1.488-3.07-1.624 2.35-6.666 9.88-13.754 26.458-24.91 10.765-7.243 11.463-8.666 12.584-25.634 1.206-18.308 4.5-23.977 15.725-27.09 11.196-3.105 17.028-.59 21.781 9.405 3.202 6.728 1.883 7.2 24.385-8.74 59.942-42.47 70.567-43.044 78.271-4.231.504 2.54.807 3.107 1.54 2.895 12.493-3.62 26.83-2.798 33.456 1.923 7.226 5.146 15.607 34.49 18.169 63.61.443 5.066.045 5.01-6.897-1.024-10.428-9.036-33.437-9.511-63.367-1.306-3.712 1.019-8.563 2.344-10.78 2.952-2.215.608-9.799 2.7-16.848 4.65-36.001 9.962-31.516 9.184-36.705 6.369-28.93-15.695-65.935-4.88-81.263 23.75l-2.294 4.288-5.182 1.738c-4.864 1.624-16.853 5.082-17.64 5.082-.181 0-.355-1.796-.355-3.991z" style="opacity:1;fill:#000;fill-opacity:1;stroke-width:.545413" transform="matrix(.04347 0 0 .05568 1.723 -3.724)"/>
    <path d="m169.113 366.734.832-.008-.71-.078.855.04.245.281.278.367v10.414H26.25V359h143.035z" style="opacity:1;fill:#000;fill-opacity:1;stroke:#000;stroke-width:27;stroke-linecap:round;stroke-linejoin:bevel;stroke-opacity:0;paint-order:stroke markers fill" transform="matrix(.04347 0 0 .05568 1.723 -3.724)"/>
</svg>
