<svg xmlns="http://www.w3.org/2000/svg" width="20" height="20" version="1.2">
    <g font-weight="400" style="fill:none;fill-rule:evenodd;stroke:#000;stroke-width:1;stroke-linecap:square;stroke-linejoin:bevel">
        <g style="font-style:normal;font-weight:400;font-size:17.00779915px;font-family:icomoon;fill:#fff;fill-opacity:1;stroke:none">
            <path d="M2.021-18.688h18.957c.555 0 1.03.199 1.427.596.397.396.595.872.595 1.426V2.291c0 .554-.198 1.03-.595 1.426a1.946 1.946 0 0 1-1.427.595H2.021c-.554 0-1.029-.198-1.426-.595A1.946 1.946 0 0 1 0 2.291v-18.957c0-.554.198-1.03.595-1.426a1.946 1.946 0 0 1 1.426-.596" font-size="17.008" style="vector-effect:none;fill-rule:nonzero" transform="matrix(.65217 0 0 .65217 2.5 14.687)"/>
        </g>
        <g style="font-style:normal;font-weight:400;font-size:17.00779915px;font-family:icomoon;fill:#000;fill-opacity:1;stroke:none">
            <path d="M20.979-18.014a1.3 1.3 0 0 1 .954.393 1.3 1.3 0 0 1 .393.955V2.291a1.3 1.3 0 0 1-.393.955 1.3 1.3 0 0 1-.955.393H2.021a1.3 1.3 0 0 1-.954-.393 1.3 1.3 0 0 1-.393-.955v-18.957a1.3 1.3 0 0 1 .393-.955 1.3 1.3 0 0 1 .954-.393h18.957m0-.674H2.021c-.554 0-1.029.199-1.426.596A1.946 1.946 0 0 0 0-16.666V2.291c0 .554.198 1.03.595 1.426.397.397.872.595 1.426.595h18.957c.555 0 1.03-.198 1.427-.595.397-.397.595-.872.595-1.426v-18.957c0-.554-.198-1.03-.595-1.426a1.946 1.946 0 0 0-1.426-.596m-4.56 6.29-1.595-1.213-1.572 1.168-1.572-1.19-1.573 1.145-1.594-1.19-1.573 1.167-1.796-1.347.426-.54 1.37 1.034 1.573-1.146 1.594 1.19 1.573-1.167 1.572 1.19 1.572-1.145 1.595 1.19 1.37-1.01.404.538-1.774 1.326m0 12.578-1.595-1.19L13.252.134l-1.572-1.19L10.107.111l-1.594-1.19L6.94.067 5.144-1.28l.426-.54L6.94-.763l1.573-1.168 1.594 1.19 1.573-1.145 1.572 1.19 1.572-1.167 1.595 1.19 1.37-1.01.404.56L16.42.18m1.572-8.378H4.964l-2.898-2.179.831-1.078 2.516 1.91h12.129l2.516-1.91.808 1.078-2.875 2.179M2.897-2.92l-.83-1.078 2.897-2.179H17.99l2.875 2.179-.808 1.078-2.516-1.91H5.413L2.897-2.92" font-size="17.008" style="vector-effect:none;fill-rule:nonzero" transform="matrix(.65217 0 0 .65217 2.5 14.687)"/>
        </g>
    </g>
</svg>
