<svg xmlns="http://www.w3.org/2000/svg" xml:space="preserve" width="20" height="20"><defs><clipPath id="a" clipPathUnits="userSpaceOnUse"><path fill="red" d="M86.717 282.24c-.917.024-1.834.046-2.75.074l.092.004h2.925z"/></clipPath></defs><path fill="#11ff19" fill-opacity=".81" d="M137.958 197.253a50.361 55.068 0 0 0-50.362 55.068 50.361 55.068 0 0 0 2.49 16.93h5.928l-.121-.089c-.031-.024-.13-.069-.093-.071.081-.005.157.042.235.063.122.033.245.068.367.097h9.331c1.826 0 3.652 0 5.478-.002 2.503-.002 5.004-.003 7.507-.008 4.034-.009 8.07-.022 12.104-.051 5.389-.042 10.778-.097 16.166-.236 1.018-.107 2.036-.223 3.055-.316 2.848-.287 5.703-.458 8.561-.567 1.577-.07 3.156-.06 4.733-.107 1.524-.045 3.05-.14 4.572-.213 2.983-.164 5.96-.407 8.942-.59 2.265-.123 4.528-.255 6.795-.338.942-.016 1.885.01 2.827.03a50.361 55.068 0 0 0 1.846-14.532 50.361 55.068 0 0 0-50.362-55.068z" clip-path="url(#a)" paint-order="stroke markers fill" transform="translate(1.734 .53) scale(.04425)"/><path fill="#ff0" d="M1.758 0h16.484c.482 0 .895.173 1.24.517.345.346.518.759.518 1.24v16.486c0 .482-.173.895-.517 1.24a1.692 1.692 0 0 1-1.24.518H1.757a1.692 1.692 0 0 1-1.24-.518A1.692 1.692 0 0 1 0 18.243V1.758C0 1.276.173.863.517.518A1.692 1.692 0 0 1 1.757 0" font-family="icomoon" font-size="22.677" font-weight="400"/><path d="M3.754 2.333c-.369 0-.686.132-.95.397a1.297 1.297 0 0 0-.397.95v12.639c0 .369.132.686.396.95.265.265.582.397.951.397h12.638c.37 0 .687-.132.951-.397.265-.264.397-.581.397-.95V3.681c0-.37-.132-.687-.397-.951a1.297 1.297 0 0 0-.95-.397zm0 .449h12.638c.25 0 .462.087.637.262a.867.867 0 0 1 .262.637v12.638c0 .25-.088.461-.262.636a.866.866 0 0 1-.637.262H3.754a.867.867 0 0 1-.636-.262.866.866 0 0 1-.262-.636V3.681c0-.25.087-.462.262-.637a.867.867 0 0 1 .636-.262Zm2.264 3.061c-.004.02-.01.035-.016.052l.029.002z" font-family="icomoon" font-size="17.008" font-weight="400"/><path d="M17.617 1.426a.92.92 0 0 1 .674.283c.19.189.283.414.283.674v15.234a.92.92 0 0 1-.283.674.92.92 0 0 1-.674.283H2.383a.92.92 0 0 1-.674-.283.92.92 0 0 1-.283-.674V2.383a.92.92 0 0 1 .283-.674.92.92 0 0 1 .674-.283h15.234m0-.469H2.383c-.391 0-.726.14-1.006.42-.28.28-.42.615-.42 1.006v15.234c0 .391.14.726.42 1.006.28.28.615.42 1.006.42h15.234c.391 0 .726-.14 1.006-.42.28-.28.42-.615.42-1.006V2.383c0-.391-.14-.726-.42-1.006-.28-.28-.615-.42-1.006-.42m.957-.488a.92.92 0 0 1 .674.283.92.92 0 0 1 .283.673v17.15a.92.92 0 0 1-.283.674.92.92 0 0 1-.673.283H1.425a.92.92 0 0 1-.674-.283.92.92 0 0 1-.283-.674V1.427A.92.92 0 0 1 .751.753a.92.92 0 0 1 .674-.284h17.148m0-.468H1.427A1.37 1.37 0 0 0 .42.42C.14.7 0 1.036 0 1.427v17.147c0 .39.14.727.42 1.007.28.279.616.419 1.007.419h17.146c.391 0 .727-.14 1.007-.42.28-.28.42-.615.42-1.006V1.426c0-.39-.14-.727-.42-1.007A1.38 1.38 0 0 0 18.572 0" font-family="icomoon" font-size="22.677" font-weight="400"/><path d="M12.212 16.698a4.072 4.072 0 0 1-.605-.315c-.807-.492-1.048-.522-1.595-.197-.336.2-.327.208-.327-.259 0-.47.007-.481.362-.621.533-.21 1.14-.118 1.656.252.736.528 1.083.536 1.849.045.887-.569 1.335-.574 2.147-.024.208.141.337.203.593.288.556.184.68.295.623.564-.108.512-.606.437-1.62-.242-.47-.315-.82-.28-1.56.156-.715.42-1.064.501-1.523.352zm-9.403-1.863V12.94l3.147-.015c1.732-.008 3.156-.009 3.166-.001.01.006.017.865.017 1.908v1.896H2.81Zm9.639.342c-.206-.039-.327-.096-.843-.395-.77-.447-1.094-.48-1.605-.168l-.28.172-.012-.403c-.014-.473-.015-.467.079-.529.544-.36 1.26-.304 1.96.154.72.47 1.183.499 1.673.103.786-.636 1.503-.667 2.275-.1.28.206.439.28.726.334.367.071.456.142.487.388.035.275-.124.432-.43.426-.334-.006-.562-.109-1.08-.483-.557-.402-.894-.386-1.622.077-.666.424-.91.502-1.328.424zm-.072-1.505a2.037 2.037 0 0 1-.536-.289c-.66-.48-1.193-.573-1.82-.317-.37.151-.335.184-.335-.33v-.44h-.273c-.317 0-.276.063-.332-.517-.057-.577-.157-.988-.315-1.282-.078-.145-.195-.431-.195-.476 0-.085 1.119-.367 1.873-.473.19-.027.558-.082.818-.122.8-.125 1.631-.225 2.265-.273.332-.025.668-.053.746-.062.696-.078 1.973-.073 2.205.01.213.075.018 1.443-.355 2.495-.243.684-.466 1.228-.594 1.445l-.047.082-.351-.1c-.6-.17-.99-.106-1.51.245-.418.283-.556.362-.684.393-.125.03-.466.037-.56.01zm-9.282-1.754v-.377l.077-.02a6.83 6.83 0 0 0 .405-.141c.18-.067.334-.115.34-.106.014.017-.06.957-.077.995-.007.015-.178.026-.38.026h-.365Zm1.059.357c-.03-.038-.015-.633.02-.825.34-1.844 2.015-2.87 3.319-2.033.877.563 1.475 1.82 1.324 2.783l-.015.095H6.485c-1.274 0-2.324-.009-2.332-.02zM5.3 11.93c.48 0 .805-.013.805-.028 0-.037-.925-1.226-1.074-1.381-.136-.142-.147-.135-.318.218-.194.399-.377 1.27-.254 1.21.02-.01.4-.02.841-.02zm3.247-.117c0-.35-.275-1.172-.457-1.366-.06-.062-1.092 1.157-1.202 1.419-.026.064-.026.064.816.064h.843Zm-2.235-2.32c-.076-.065-.428.043-.717.219-.576.351-.565.396.356 1.497l.379.454.006-1.072c.005-.836 0-1.077-.024-1.097Zm.978 1.352.557-.713-.118-.138c-.206-.24-.786-.52-1.085-.524-.01 0-.018.485-.018 1.079v1.079l.053-.035c.03-.02.305-.356.611-.748zm-4.196.042c0-.666.19-.916 1.173-1.54a148.22 148.22 0 0 0 2.573-1.68c.384-.255.822-.543.972-.64.15-.097.512-.336.806-.532.598-.398.975-.635 1.6-1.003.357-.21.574-.353.627-.413.006-.006-.02-.052-.058-.102-.22-.293-.692-.146-1.54.478-.196.144-.48.347-.63.45a371.604 475.981 0 0 0-1.179.814 255.06 255.06 0 0 1-2.163 1.493c-.36.247-.524.358-1.15.773-.209.139-.437.291-.508.34-.151.103-.181.082-.134-.09.103-.372.43-.767 1.15-1.388.469-.403.499-.482.548-1.427.052-1.02.195-1.335.683-1.509.487-.172.74-.032.947.524.14.375.082.401 1.06-.487 2.606-2.364 3.068-2.396 3.402-.235.022.141.036.173.067.161.544-.202 1.167-.156 1.455.107.314.287.678 1.92.79 3.542.019.282.002.279-.3-.057-.454-.503-1.454-.53-2.755-.073-.161.057-.372.13-.468.165-.097.033-.426.15-.733.258-1.565.555-1.37.512-1.595.355-1.258-.874-2.867-.272-3.533 1.322l-.1.24-.225.096a9.18 9.18 0 0 1-.767.283.849.849 0 0 1-.015-.222z"/><path d="M9.074 16.696h.037l-.031-.005.037.002.01.016.013.02v.58H2.864v-1.044h6.218Z" paint-order="stroke markers fill"/></svg>