<svg xmlns="http://www.w3.org/2000/svg" xml:space="preserve" width="20" height="20"><path fill="#ff0" d="M2.09.303h16.093c.47 0 .873.17 1.21.507.337.34.505.744.505 1.216v16.152c0 .472-.168.877-.504 1.216a1.652 1.652 0 0 1-1.211.506H2.09c-.471 0-.874-.168-1.211-.506a1.652 1.658 0 0 1-.505-1.216V2.026c0-.472.169-.877.505-1.215.337-.338.74-.506 1.211-.506" font-family="icomoon" font-size="19.843" font-weight="400"/><path d="M1.843.022C1.364.022.953.196.61.541a1.684 1.69 0 0 0-.515 1.238v16.467c0 .48.173.895.515 1.238.344.347.755.518 1.234.518H18.25c.48 0 .89-.173 1.234-.518A1.69 1.69 0 0 0 20 18.246V1.779c0-.48-.172-.895-.515-1.238A1.684 1.69 0 0 0 18.25.022Zm0 .586H18.25c.324 0 .599.114.826.341.227.228.34.505.34.83v16.467a1.125 1.13 0 0 1-.34.83 1.124 1.128 0 0 1-.826.34H1.843a1.124 1.128 0 0 1-.825-.34 1.125 1.13 0 0 1-.341-.83V1.779c0-.325.114-.602.34-.83a1.125 1.13 0 0 1 .826-.34Z" font-family="icomoon" font-size="17.008" font-weight="400"/><path d="M12.85 18.752c-.139-.045-.484-.226-.79-.413-1.055-.645-1.37-.684-2.084-.258-.44.263-.428.272-.428-.34 0-.615.009-.63.473-.814.697-.276 1.49-.155 2.164.33.961.693 1.415.704 2.415.06 1.16-.746 1.744-.753 2.806-.031.272.184.44.266.775.377.726.241.887.387.813.74-.14.67-.791.573-2.117-.319-.614-.413-1.071-.367-2.038.205-.933.552-1.39.658-1.99.463zM.564 16.309v-2.484l4.112-.02c2.261-.01 4.122-.01 4.135 0 .013.007.023 1.134.023 2.502v2.487H.565Zm12.593.448c-.269-.05-.428-.125-1.101-.517-1.007-.586-1.43-.63-2.098-.22l-.365.225-.015-.528c-.019-.621-.02-.613.102-.694.711-.472 1.647-.399 2.562.202.94.617 1.545.654 2.185.135 1.027-.834 1.964-.875 2.973-.131.366.27.573.366.948.439.48.092.595.185.636.507.046.361-.162.568-.562.56-.436-.01-.733-.143-1.411-.634-.727-.527-1.167-.506-2.118.101-.871.556-1.19.658-1.736.556zm-.094-1.973c-.17-.046-.461-.204-.7-.379-.863-.63-1.56-.75-2.377-.415-.483.198-.44.241-.44-.434v-.577h-.355c-.414 0-.36.083-.435-.677-.073-.756-.205-1.295-.41-1.682-.102-.19-.255-.565-.255-.624 0-.11 1.46-.481 2.447-.62.247-.035.728-.107 1.069-.16a40.198 40.198 0 0 1 2.958-.357c.435-.033.874-.07.976-.081.908-.104 2.577-.097 2.88.011.279.1.024 1.893-.464 3.273-.317.898-.608 1.61-.775 1.895l-.063.107-.458-.13c-.784-.222-1.294-.14-1.972.32-.546.371-.727.475-.895.516-.163.04-.608.048-.731.013zm-12.128-2.3v-.494l.1-.026a8.93 8.93 0 0 0 .53-.185c.237-.088.437-.15.445-.14.018.024-.078 1.255-.101 1.305-.01.02-.232.035-.495.035H.936Zm1.384.468c-.039-.05-.02-.83.026-1.081.444-2.418 2.634-3.765 4.337-2.667 1.146.74 1.927 2.387 1.73 3.65l-.02.125H5.368c-1.665 0-3.036-.012-3.047-.027zm1.5-.451c.625 0 1.05-.017 1.05-.037 0-.047-1.207-1.607-1.402-1.81-.178-.187-.192-.177-.416.285-.254.524-.493 1.666-.332 1.586.027-.013.522-.024 1.1-.024zm4.24-.153c0-.46-.358-1.537-.596-1.79-.077-.083-1.427 1.516-1.57 1.859-.035.084-.035.084 1.066.084h1.1ZM5.143 9.307c-.1-.086-.56.055-.938.286-.752.46-.738.52.465 1.963l.496.595.007-1.405c.007-1.097 0-1.413-.03-1.44Zm1.277 1.771.728-.934-.155-.181c-.27-.315-1.026-.682-1.417-.688-.013 0-.023.637-.023 1.415v1.415l.07-.046c.038-.026.397-.467.797-.98zm-5.483.056c0-.874.249-1.201 1.534-2.02.788-.5 1.518-.98 3.36-2.205.503-.334 1.075-.712 1.27-.84.197-.127.67-.44 1.054-.697a38.816 38.816 0 0 1 2.09-1.316c.467-.275.75-.463.82-.541.007-.008-.028-.069-.076-.135-.286-.384-.904-.191-2.012.627-.256.19-.626.455-.822.59a485.517 624.171 0 0 0-1.541 1.068 333.206 333.206 0 0 1-2.827 1.958c-.47.324-.684.47-1.502 1.014l-.664.445c-.198.135-.237.109-.174-.119.133-.486.56-1.004 1.502-1.818.612-.53.651-.633.715-1.872.069-1.337.256-1.75.893-1.978.636-.227.967-.043 1.237.687.182.49.107.525 1.385-.638C10.583.243 11.186.2 11.624 3.034c.028.186.045.227.087.212.71-.264 1.524-.204 1.9.14.41.376.887 2.519 1.032 4.645.025.37.003.366-.392-.075-.592-.66-1.899-.694-3.599-.095l-.612.215-.957.34c-2.044.727-1.79.67-2.084.465-1.643-1.146-3.745-.356-4.616 1.734l-.13.313-.294.127c-.277.119-.958.371-1.002.371-.01 0-.02-.131-.02-.291z"/><path d="m8.75 18.75.048-.001-.04-.006.048.003.014.02.016.028v.76h-8.2v-1.37H8.76Z" paint-order="stroke markers fill"/></svg>