<svg xmlns="http://www.w3.org/2000/svg" width="20" height="20" version="1.2">
    <g font-weight="400" style="fill:none;fill-rule:evenodd;stroke:#000;stroke-width:1;stroke-linecap:square;stroke-linejoin:bevel">
        <g style="font-style:normal;font-weight:400;font-size:17.00779915px;font-family:icomoon;fill:#fff;fill-opacity:1;stroke:none">
            <path d="M2.021-18.688h18.957c.555 0 1.03.199 1.427.596.397.396.595.872.595 1.426V2.291c0 .554-.198 1.03-.595 1.426a1.946 1.946 0 0 1-1.427.595H2.021c-.554 0-1.029-.198-1.426-.595A1.946 1.946 0 0 1 0 2.291v-18.957c0-.554.198-1.03.595-1.426a1.946 1.946 0 0 1 1.426-.596" font-size="17.008" style="vector-effect:none;fill-rule:nonzero" transform="matrix(.65217 0 0 .65217 2.5 14.687)"/>
        </g>
        <g style="font-style:normal;font-weight:400;font-size:17.00779915px;font-family:icomoon;fill:#000;fill-opacity:1;stroke:none">
            <path d="M20.979-18.014a1.3 1.3 0 0 1 .954.393 1.3 1.3 0 0 1 .393.955V2.291a1.3 1.3 0 0 1-.393.955 1.3 1.3 0 0 1-.955.393H2.021a1.3 1.3 0 0 1-.954-.393 1.3 1.3 0 0 1-.393-.955v-18.957a1.3 1.3 0 0 1 .393-.955 1.3 1.3 0 0 1 .954-.393h18.957m0-.674H2.021c-.554 0-1.029.199-1.426.596A1.946 1.946 0 0 0 0-16.666V2.291c0 .554.198 1.03.595 1.426.397.397.872.595 1.426.595h18.957c.555 0 1.03-.198 1.427-.595.397-.397.595-.872.595-1.426v-18.957c0-.554-.198-1.03-.595-1.426a1.946 1.946 0 0 0-1.426-.596m-9.367 4.403a1.3 1.3 0 0 1 .955.393 1.3 1.3 0 0 1 .393.955c0 .269-.071.512-.213.73a1.485 1.485 0 0 1-.55.505l-.607.292-.607-.292a1.453 1.453 0 0 1-.629-.494 1.259 1.259 0 0 1-.247-.764c0-.374.131-.696.394-.966.262-.27.58-.404.954-.404h.079c.022 0 .04.007.056.022l.022.023m-.022-1.73c-.854 0-1.58.3-2.179.899a2.967 2.967 0 0 0-.898 2.179c0 .599.157 1.141.471 1.628.315.487.727.857 1.236 1.112h.022v9.276a7.175 7.175 0 0 1-1.999-1.01 6.918 6.918 0 0 1-1.55-1.55v-.023l1.213-.92L3.481-6.56l.45 5.144 1.168-.854A8.96 8.96 0 0 0 7.333-.124a8.868 8.868 0 0 0 2.864 1.27l.068.022v.494h2.695v-.494a8.803 8.803 0 0 0 2.931-1.27 8.96 8.96 0 0 0 2.235-2.144v-.023l1.168.854.45-5.144-4.47 2.134 1.235.921a7.244 7.244 0 0 1-1.539 1.561A6.992 6.992 0 0 1 13.027-.92h-.067v-9.254a3.064 3.064 0 0 0 1.258-1.112c.314-.486.472-1.03.472-1.628 0-.854-.3-1.58-.899-2.179a2.967 2.967 0 0 0-2.179-.898l-.022-.023" font-size="17.008" style="vector-effect:none;fill-rule:nonzero" transform="matrix(.65217 0 0 .65217 2.5 14.687)"/>
        </g>
    </g>
</svg>
