<?xml version="1.0" encoding="UTF-8" standalone="no"?>
<svg
   xmlns:dc="http://purl.org/dc/elements/1.1/"
   xmlns:cc="http://creativecommons.org/ns#"
   xmlns:rdf="http://www.w3.org/1999/02/22-rdf-syntax-ns#"
   xmlns:svg="http://www.w3.org/2000/svg"
   xmlns="http://www.w3.org/2000/svg"
   xmlns:sodipodi="http://sodipodi.sourceforge.net/DTD/sodipodi-0.dtd"
   xmlns:inkscape="http://www.inkscape.org/namespaces/inkscape"
   width="20"
   height="20"
   viewBox="0 0 20 20"
   version="1.2"
   id="svg38"
   sodipodi:docname="60901020731.svg"
   inkscape:version="0.92.4 (5da689c313, 2019-01-14)">
  <metadata
     id="metadata42">
    <rdf:RDF>
      <cc:Work
         rdf:about="">
        <dc:format>image/svg+xml</dc:format>
        <dc:type
           rdf:resource="http://purl.org/dc/dcmitype/StillImage" />
      </cc:Work>
    </rdf:RDF>
  </metadata>
  <sodipodi:namedview
     pagecolor="#ffffff"
     bordercolor="#666666"
     borderopacity="1"
     objecttolerance="10"
     gridtolerance="10"
     guidetolerance="10"
     inkscape:pageopacity="0"
     inkscape:pageshadow="2"
     inkscape:window-width="751"
     inkscape:window-height="480"
     id="namedview40"
     showgrid="false"
     inkscape:zoom="11.8"
     inkscape:cx="10"
     inkscape:cy="10"
     inkscape:window-x="0"
     inkscape:window-y="0"
     inkscape:window-maximized="0"
     inkscape:current-layer="svg38" />
  <title
     id="title2">Qt SVG Document</title>
  <desc
     id="desc4">Generated with Qt</desc>
  <defs
     id="defs6" />
  <g
     id="g36"
     transform="matrix(0.65217391,0,0,0.65217391,-0.43478256,-0.43478256)"
     style="fill:none;fill-rule:evenodd;stroke:#000000;stroke-width:1;stroke-linecap:square;stroke-linejoin:bevel">
    <g
       transform="translate(16,16)"
       font-size="8.25"
       font-weight="400"
       font-style="normal"
       id="g8"
       style="font-style:normal;font-weight:400;font-size:8.25px;font-family:'MS Shell Dlg 2';fill:none;stroke:#000000;stroke-width:1;stroke-linecap:square;stroke-linejoin:bevel;stroke-opacity:1" />
    <g
       transform="matrix(1.33333,0,0,1.33333,16,16)"
       font-size="8.25"
       font-weight="400"
       font-style="normal"
       id="g10"
       style="font-style:normal;font-weight:400;font-size:8.25px;font-family:'MS Shell Dlg 2';fill:none;stroke:#000000;stroke-width:1;stroke-linecap:square;stroke-linejoin:bevel;stroke-opacity:1" />
    <g
       transform="translate(4.5,23.1875)"
       font-size="17.0078"
       font-weight="400"
       font-style="normal"
       id="g14"
       style="font-style:normal;font-weight:400;font-size:17.00779915px;font-family:icomoon;fill:#ffffff;fill-opacity:1;stroke:none">
      <path
         d="M 2.02148,-18.6875 H 20.9785 c 0.5541,0 1.0295,0.1984 1.4263,0.5952 C 22.8016,-17.6955 23,-17.2201 23,-16.666 V 2.29102 C 23,2.84505 22.8016,3.32048 22.4048,3.71729 22.008,4.1141 21.5326,4.3125 20.9785,4.3125 H 2.02148 C 1.46745,4.3125 0.992025,4.1141 0.595215,3.71729 0.198405,3.32048 0,2.84505 0,2.29102 V -16.666 c 0,-0.5541 0.198405,-1.0295 0.595215,-1.4263 0.39681,-0.3968 0.872235,-0.5952 1.426265,-0.5952"
         id="path12"
         inkscape:connector-curvature="0"
         style="vector-effect:none;fill-rule:nonzero" />
    </g>
    <g
       transform="matrix(1.33333,0,0,1.33333,16,16)"
       font-size="8.25"
       font-weight="400"
       font-style="normal"
       id="g16"
       style="font-style:normal;font-weight:400;font-size:8.25px;font-family:'MS Shell Dlg 2';fill:none;stroke:#000000;stroke-width:1;stroke-linecap:square;stroke-linejoin:bevel;stroke-opacity:1" />
    <g
       transform="translate(16,16)"
       font-size="8.25"
       font-weight="400"
       font-style="normal"
       id="g18"
       style="font-style:normal;font-weight:400;font-size:8.25px;font-family:'MS Shell Dlg 2';fill:none;stroke:#000000;stroke-width:1;stroke-linecap:square;stroke-linejoin:bevel;stroke-opacity:1" />
    <g
       font-size="8.25"
       font-weight="400"
       font-style="normal"
       id="g20"
       style="font-style:normal;font-weight:400;font-size:8.25px;font-family:'MS Shell Dlg 2';fill:none;stroke:#000000;stroke-width:1;stroke-linecap:square;stroke-linejoin:bevel;stroke-opacity:1" />
    <g
       transform="translate(16,16)"
       font-size="8.25"
       font-weight="400"
       font-style="normal"
       id="g22"
       style="font-style:normal;font-weight:400;font-size:8.25px;font-family:'MS Shell Dlg 2';fill:none;stroke:#000000;stroke-width:1;stroke-linecap:square;stroke-linejoin:bevel;stroke-opacity:1" />
    <g
       transform="matrix(1.33333,0,0,1.33333,16,16)"
       font-size="8.25"
       font-weight="400"
       font-style="normal"
       id="g24"
       style="font-style:normal;font-weight:400;font-size:8.25px;font-family:'MS Shell Dlg 2';fill:none;stroke:#000000;stroke-width:1;stroke-linecap:square;stroke-linejoin:bevel;stroke-opacity:1" />
    <g
       transform="translate(4.5,23.1875)"
       font-size="17.0078"
       font-weight="400"
       font-style="normal"
       id="g28"
       style="font-style:normal;font-weight:400;font-size:17.00779915px;font-family:icomoon;fill:#000000;fill-opacity:1;stroke:none">
      <path
         d="m 20.9785,-18.0137 c 0.3744,0 0.6926,0.1311 0.9546,0.3931 0.262,0.262 0.3931,0.5802 0.3931,0.9546 V 2.29102 c 0,0.37434 -0.1311,0.69254 -0.3931,0.95459 -0.262,0.26204 -0.5802,0.39306 -0.9546,0.39306 H 2.02148 C 1.64714,3.63867 1.32894,3.50765 1.06689,3.24561 0.80485,2.98356 0.673828,2.66536 0.673828,2.29102 V -16.666 c 0,-0.3744 0.131022,-0.6926 0.393062,-0.9546 0.26205,-0.262 0.58025,-0.3931 0.95459,-0.3931 H 20.9785 m 0,-0.6738 H 2.02148 c -0.55403,0 -1.029455,0.1984 -1.426265,0.5952 C 0.198405,-17.6955 0,-17.2201 0,-16.666 V 2.29102 C 0,2.84505 0.198405,3.32048 0.595215,3.71729 0.992025,4.1141 1.46745,4.3125 2.02148,4.3125 H 20.9785 c 0.5541,0 1.0295,-0.1984 1.4263,-0.59521 C 22.8016,3.32048 23,2.84505 23,2.29102 V -16.666 c 0,-0.5541 -0.1984,-1.0295 -0.5952,-1.4263 -0.3968,-0.3968 -0.8722,-0.5952 -1.4263,-0.5952 M 8.80469,-4.69434 c -0.01498,0 -0.02246,0 -0.02246,0 -0.95834,0 -1.77816,0.34066 -2.45948,1.02198 -0.68131,0.68131 -1.02197,1.50862 -1.02197,2.48193 0,0.958334 0.34066,1.778158 1.02197,2.45947 0.68132,0.68132 1.50114,1.02198 2.45948,1.02198 0.9733,0 1.80057,-0.34066 2.48197,-1.02198 0.6813,-0.681312 1.0219,-1.501136 1.0219,-2.45947 0,-0.01497 0,-0.02246 0,-0.02246 0,-0.95833 -0.3406,-1.77816 -1.0219,-2.45947 -0.6814,-0.68132 -1.50118,-1.02198 -2.45951,-1.02198 m 0,-0.85351 c 0,0 0.00748,0 0.02246,0 0.71875,0 1.32895,-0.25456 1.83055,-0.76367 0.5016,-0.50912 0.7525,-1.12305 0.7525,-1.8418 0,-0.71875 -0.2509,-1.32894 -0.7525,-1.83057 -0.5016,-0.50161 -1.1118,-0.75241 -1.83055,-0.75241 -0.71875,0 -1.33268,0.2508 -1.8418,0.75241 -0.50911,0.50163 -0.76367,1.11182 -0.76367,1.83057 0,0.71875 0.25081,1.32894 0.75244,1.83057 0.50163,0.50162 1.10433,0.75992 1.80811,0.7749 h 0.02246 m 0.9209,-6.04195 c 0.52411,0 0.96951,-0.1835 1.33641,-0.5503 0.3669,-0.3669 0.5503,-0.8124 0.5503,-1.3365 0,-0.5241 -0.1834,-0.9695 -0.5503,-1.3364 -0.3669,-0.3669 -0.8123,-0.5503 -1.33641,-0.5503 -0.52409,0 -0.96957,0.1834 -1.33643,0.5503 -0.36686,0.3669 -0.55029,0.8123 -0.55029,1.3364 0,0.5241 0.18343,0.9696 0.55029,1.3365 0.36686,0.3668 0.81234,0.5503 1.33643,0.5503 m 4.96391,-3.7735 c 0,0.3594 -0.1273,0.6664 -0.3819,0.9209 -0.2545,0.2546 -0.5615,0.3819 -0.9209,0.3819 -0.3594,0 -0.6663,-0.1273 -0.9209,-0.3819 -0.2545,-0.2545 -0.3818,-0.5615 -0.3818,-0.9209 0,-0.3594 0.1273,-0.6663 0.3818,-0.9209 0.2546,-0.2545 0.5615,-0.3818 0.9209,-0.3818 0.3594,0 0.6664,0.1273 0.9209,0.3818 0.2546,0.2546 0.3819,0.5615 0.3819,0.9209 m 2.4482,3.5264 c 0,-0.3145 -0.1123,-0.584 -0.3369,-0.8086 -0.2246,-0.2246 -0.5016,-0.3369 -0.8311,-0.3369 -0.3144,0 -0.584,0.1123 -0.8086,0.3369 -0.2246,0.2246 -0.3369,0.4941 -0.3369,0.8086 0,0.3144 0.1123,0.584 0.3369,0.8086 0.2246,0.2246 0.4942,0.3369 0.8086,0.3369 0.3295,0 0.6027,-0.1123 0.8199,-0.3369 0.2171,-0.2246 0.3331,-0.4942 0.3481,-0.8086 m -0.3145,2.02147 c -0.2395,0 -0.4454,0.0861 -0.6176,0.2583 -0.1722,0.1722 -0.2583,0.37061 -0.2583,0.59522 0,0.23958 0.0861,0.44547 0.2583,0.61767 0.1722,0.1722 0.3781,0.2583 0.6176,0.2583 0.2396,0 0.4418,-0.0861 0.6065,-0.2583 0.1647,-0.1722 0.2471,-0.37809 0.2471,-0.61767 0,-0.23959 -0.0824,-0.44174 -0.2471,-0.60645 -0.1647,-0.16471 -0.3669,-0.24707 -0.6065,-0.24707"
         id="path26"
         inkscape:connector-curvature="0"
         style="vector-effect:none;fill-rule:nonzero" />
    </g>
    <g
       transform="matrix(1.33333,0,0,1.33333,16,16)"
       font-size="8.25"
       font-weight="400"
       font-style="normal"
       id="g30"
       style="font-style:normal;font-weight:400;font-size:8.25px;font-family:'MS Shell Dlg 2';fill:none;stroke:#000000;stroke-width:1;stroke-linecap:square;stroke-linejoin:bevel;stroke-opacity:1" />
    <g
       transform="translate(16,16)"
       font-size="8.25"
       font-weight="400"
       font-style="normal"
       id="g32"
       style="font-style:normal;font-weight:400;font-size:8.25px;font-family:'MS Shell Dlg 2';fill:none;stroke:#000000;stroke-width:1;stroke-linecap:square;stroke-linejoin:bevel;stroke-opacity:1" />
    <g
       font-size="8.25"
       font-weight="400"
       font-style="normal"
       id="g34"
       style="font-style:normal;font-weight:400;font-size:8.25px;font-family:'MS Shell Dlg 2';fill:none;stroke:#000000;stroke-width:1;stroke-linecap:square;stroke-linejoin:bevel;stroke-opacity:1" />
  </g>
</svg>
