<?xml version="1.0" encoding="UTF-8" standalone="no"?>
<svg
   xmlns:dc="http://purl.org/dc/elements/1.1/"
   xmlns:cc="http://creativecommons.org/ns#"
   xmlns:rdf="http://www.w3.org/1999/02/22-rdf-syntax-ns#"
   xmlns:svg="http://www.w3.org/2000/svg"
   xmlns="http://www.w3.org/2000/svg"
   xmlns:sodipodi="http://sodipodi.sourceforge.net/DTD/sodipodi-0.dtd"
   xmlns:inkscape="http://www.inkscape.org/namespaces/inkscape"
   width="20"
   height="20"
   viewBox="0 0 20 20"
   version="1.2"
   id="svg38"
   sodipodi:docname="60205030132.svg"
   inkscape:version="0.92.4 (5da689c313, 2019-01-14)">
  <metadata
     id="metadata42">
    <rdf:RDF>
      <cc:Work
         rdf:about="">
        <dc:format>image/svg+xml</dc:format>
        <dc:type
           rdf:resource="http://purl.org/dc/dcmitype/StillImage" />
      </cc:Work>
    </rdf:RDF>
  </metadata>
  <sodipodi:namedview
     pagecolor="#ffffff"
     bordercolor="#666666"
     borderopacity="1"
     objecttolerance="10"
     gridtolerance="10"
     guidetolerance="10"
     inkscape:pageopacity="0"
     inkscape:pageshadow="2"
     inkscape:window-width="1920"
     inkscape:window-height="1017"
     id="namedview40"
     showgrid="false"
     inkscape:zoom="11.8"
     inkscape:cx="10"
     inkscape:cy="10"
     inkscape:window-x="-8"
     inkscape:window-y="-8"
     inkscape:window-maximized="1"
     inkscape:current-layer="g36" />
  <title
     id="title2">Qt SVG Document</title>
  <desc
     id="desc4">Generated with Qt</desc>
  <defs
     id="defs6" />
  <g
     fill="none"
     stroke="black"
     stroke-width="1"
     fill-rule="evenodd"
     stroke-linecap="square"
     stroke-linejoin="bevel"
     id="g36">
    <g
       fill="none"
       stroke="#000000"
       stroke-opacity="1"
       stroke-width="1"
       stroke-linecap="square"
       stroke-linejoin="bevel"
       transform="matrix(1,0,0,1,16,16)"
       font-family="MS Shell Dlg 2"
       font-size="8.25"
       font-weight="400"
       font-style="normal"
       id="g8" />
    <g
       fill="none"
       stroke="#000000"
       stroke-opacity="1"
       stroke-width="1"
       stroke-linecap="square"
       stroke-linejoin="bevel"
       transform="matrix(1.33333,0,0,1.33333,16,16)"
       font-family="MS Shell Dlg 2"
       font-size="8.25"
       font-weight="400"
       font-style="normal"
       id="g10" />
    <g
       transform="matrix(0.65217391,0,0,0.65217391,2.5,14.6875)"
       font-size="17.0078"
       font-weight="400"
       font-style="normal"
       id="g14"
       style="font-style:normal;font-weight:400;font-size:17.00779915px;font-family:icomoon;fill:#ff0000;fill-opacity:1;stroke:none">
      <path
         d="M 2.02148,-18.6875 H 20.9785 c 0.5541,0 1.0295,0.1984 1.4263,0.5952 C 22.8016,-17.6955 23,-17.2201 23,-16.666 V 2.29102 C 23,2.84505 22.8016,3.32048 22.4048,3.71729 22.008,4.1141 21.5326,4.3125 20.9785,4.3125 H 2.02148 C 1.46745,4.3125 0.992025,4.1141 0.595215,3.71729 0.198405,3.32048 0,2.84505 0,2.29102 V -16.666 c 0,-0.5541 0.198405,-1.0295 0.595215,-1.4263 0.39681,-0.3968 0.872235,-0.5952 1.426265,-0.5952"
         id="path12"
         inkscape:connector-curvature="0"
         style="vector-effect:none;fill-rule:nonzero" />
    </g>
    <g
       fill="none"
       stroke="#000000"
       stroke-opacity="1"
       stroke-width="1"
       stroke-linecap="square"
       stroke-linejoin="bevel"
       transform="matrix(1.33333,0,0,1.33333,16,16)"
       font-family="MS Shell Dlg 2"
       font-size="8.25"
       font-weight="400"
       font-style="normal"
       id="g16" />
    <g
       fill="none"
       stroke="#000000"
       stroke-opacity="1"
       stroke-width="1"
       stroke-linecap="square"
       stroke-linejoin="bevel"
       transform="matrix(1,0,0,1,16,16)"
       font-family="MS Shell Dlg 2"
       font-size="8.25"
       font-weight="400"
       font-style="normal"
       id="g18" />
    <g
       fill="none"
       stroke="#000000"
       stroke-opacity="1"
       stroke-width="1"
       stroke-linecap="square"
       stroke-linejoin="bevel"
       transform="matrix(1,0,0,1,0,0)"
       font-family="MS Shell Dlg 2"
       font-size="8.25"
       font-weight="400"
       font-style="normal"
       id="g20" />
    <g
       fill="none"
       stroke="#000000"
       stroke-opacity="1"
       stroke-width="1"
       stroke-linecap="square"
       stroke-linejoin="bevel"
       transform="matrix(1,0,0,1,16,16)"
       font-family="MS Shell Dlg 2"
       font-size="8.25"
       font-weight="400"
       font-style="normal"
       id="g22" />
    <g
       fill="none"
       stroke="#000000"
       stroke-opacity="1"
       stroke-width="1"
       stroke-linecap="square"
       stroke-linejoin="bevel"
       transform="matrix(1.33333,0,0,1.33333,16,16)"
       font-family="MS Shell Dlg 2"
       font-size="8.25"
       font-weight="400"
       font-style="normal"
       id="g24" />
    <g
       transform="matrix(0.65217391,0,0,0.65217391,2.5,14.6875)"
       font-size="17.0078"
       font-weight="400"
       font-style="normal"
       id="g28"
       style="font-style:normal;font-weight:400;font-size:17.00779915px;font-family:icomoon;fill:#000000;fill-opacity:1;stroke:none">
      <path
         d="m 20.9785,-18.0137 c 0.3744,0 0.6926,0.1311 0.9546,0.3931 0.262,0.262 0.3931,0.5802 0.3931,0.9546 V 2.29102 c 0,0.37434 -0.1311,0.69254 -0.3931,0.95459 -0.262,0.26204 -0.5802,0.39306 -0.9546,0.39306 H 2.02148 C 1.64714,3.63867 1.32894,3.50765 1.06689,3.24561 0.80485,2.98356 0.673828,2.66536 0.673828,2.29102 V -16.666 c 0,-0.3744 0.131022,-0.6926 0.393062,-0.9546 0.26205,-0.262 0.58025,-0.3931 0.95459,-0.3931 H 20.9785 m 0,-0.6738 H 2.02148 c -0.55403,0 -1.029455,0.1984 -1.426265,0.5952 C 0.198405,-17.6955 0,-17.2201 0,-16.666 V 2.29102 C 0,2.84505 0.198405,3.32048 0.595215,3.71729 0.992025,4.1141 1.46745,4.3125 2.02148,4.3125 H 20.9785 c 0.5541,0 1.0295,-0.1984 1.4263,-0.59521 C 22.8016,3.32048 23,2.84505 23,2.29102 V -16.666 c 0,-0.5541 -0.1984,-1.0295 -0.5952,-1.4263 -0.3968,-0.3968 -0.8722,-0.5952 -1.4263,-0.5952 m -1.5498,16.05957 h -2.3808 v -6.87305 c 0,-0.76362 -0.1423,-1.48992 -0.4268,-2.17872 -0.2995,-0.6738 -0.7,-1.2615 -1.2017,-1.7632 -0.5016,-0.5016 -1.0893,-0.9022 -1.7631,-1.2016 -0.6889,-0.2845 -1.4151,-0.4268 -2.1788,-0.4268 -0.7786,0 -1.50484,0.1423 -2.17867,0.4268 -0.67383,0.2994 -1.2653,0.7 -1.77442,1.2016 -0.50911,0.5017 -0.90592,1.0894 -1.19043,1.7632 -0.29947,0.6888 -0.44921,1.4151 -0.44921,2.17872 v 6.87305 h -2.3584 c -0.28451,0 -0.52409,0.10107 -0.71875,0.30322 -0.19466,0.20215 -0.29199,0.43799 -0.29199,0.70752 0,0.28451 0.09733,0.52783 0.29199,0.729983 0.19466,0.202148 0.43424,0.303223 0.71875,0.303223 H 19.4287 c 0.2695,0 0.5054,-0.101075 0.7075,-0.303223 0.2022,-0.202153 0.3033,-0.445473 0.3033,-0.729983 0,-0.26953 -0.1011,-0.50537 -0.3033,-0.70752 -0.2021,-0.20215 -0.438,-0.30322 -0.7075,-0.30322 M 6.91797,-9.50098 c 0,-1.15302 0.38183,-2.15622 1.14551,-3.00972 0.76367,-0.8536 1.69954,-1.3552 2.80762,-1.5049 h 0.0225 c 1.108,0.0599 1.9353,0.4567 2.4819,1.1904 0.5465,0.7337 0.8198,1.8418 0.8198,3.32422 v 6.87305 H 6.91797 v -6.87305"
         id="path26"
         inkscape:connector-curvature="0"
         style="vector-effect:none;fill-rule:nonzero" />
    </g>
    <g
       fill="none"
       stroke="#000000"
       stroke-opacity="1"
       stroke-width="1"
       stroke-linecap="square"
       stroke-linejoin="bevel"
       transform="matrix(1.33333,0,0,1.33333,16,16)"
       font-family="MS Shell Dlg 2"
       font-size="8.25"
       font-weight="400"
       font-style="normal"
       id="g30" />
    <g
       fill="none"
       stroke="#000000"
       stroke-opacity="1"
       stroke-width="1"
       stroke-linecap="square"
       stroke-linejoin="bevel"
       transform="matrix(1,0,0,1,16,16)"
       font-family="MS Shell Dlg 2"
       font-size="8.25"
       font-weight="400"
       font-style="normal"
       id="g32" />
    <g
       fill="none"
       stroke="#000000"
       stroke-opacity="1"
       stroke-width="1"
       stroke-linecap="square"
       stroke-linejoin="bevel"
       transform="matrix(1,0,0,1,0,0)"
       font-family="MS Shell Dlg 2"
       font-size="8.25"
       font-weight="400"
       font-style="normal"
       id="g34" />
  </g>
</svg>
