<?xml version="1.0" encoding="UTF-8" standalone="no"?>
<svg
   xmlns:dc="http://purl.org/dc/elements/1.1/"
   xmlns:cc="http://creativecommons.org/ns#"
   xmlns:rdf="http://www.w3.org/1999/02/22-rdf-syntax-ns#"
   xmlns:svg="http://www.w3.org/2000/svg"
   xmlns="http://www.w3.org/2000/svg"
   xmlns:sodipodi="http://sodipodi.sourceforge.net/DTD/sodipodi-0.dtd"
   xmlns:inkscape="http://www.inkscape.org/namespaces/inkscape"
   width="20"
   height="20"
   viewBox="0 0 20 20"
   version="1.2"
   id="svg38"
   sodipodi:docname="60204070231.svg"
   inkscape:version="0.92.4 (5da689c313, 2019-01-14)">
  <metadata
     id="metadata42">
    <rdf:RDF>
      <cc:Work
         rdf:about="">
        <dc:format>image/svg+xml</dc:format>
        <dc:type
           rdf:resource="http://purl.org/dc/dcmitype/StillImage" />
      </cc:Work>
    </rdf:RDF>
  </metadata>
  <sodipodi:namedview
     pagecolor="#ffffff"
     bordercolor="#666666"
     borderopacity="1"
     objecttolerance="10"
     gridtolerance="10"
     guidetolerance="10"
     inkscape:pageopacity="0"
     inkscape:pageshadow="2"
     inkscape:window-width="1920"
     inkscape:window-height="1017"
     id="namedview40"
     showgrid="false"
     inkscape:zoom="11.8"
     inkscape:cx="10"
     inkscape:cy="10"
     inkscape:window-x="-8"
     inkscape:window-y="-8"
     inkscape:window-maximized="1"
     inkscape:current-layer="svg38" />
  <title
     id="title2">Qt SVG Document</title>
  <desc
     id="desc4">Generated with Qt</desc>
  <defs
     id="defs6" />
  <g
     id="g36"
     transform="matrix(0.65217391,0,0,0.65217391,-0.43478256,-0.43478256)"
     style="fill:none;fill-rule:evenodd;stroke:#000000;stroke-width:1;stroke-linecap:square;stroke-linejoin:bevel">
    <g
       transform="translate(16,16)"
       font-size="8.25"
       font-weight="400"
       font-style="normal"
       id="g8"
       style="font-style:normal;font-weight:400;font-size:8.25px;font-family:'MS Shell Dlg 2';fill:none;stroke:#000000;stroke-width:1;stroke-linecap:square;stroke-linejoin:bevel;stroke-opacity:1" />
    <g
       transform="matrix(1.33333,0,0,1.33333,16,16)"
       font-size="8.25"
       font-weight="400"
       font-style="normal"
       id="g10"
       style="font-style:normal;font-weight:400;font-size:8.25px;font-family:'MS Shell Dlg 2';fill:none;stroke:#000000;stroke-width:1;stroke-linecap:square;stroke-linejoin:bevel;stroke-opacity:1" />
    <g
       transform="translate(4.5,23.1875)"
       font-size="17.0078"
       font-weight="400"
       font-style="normal"
       id="g14"
       style="font-style:normal;font-weight:400;font-size:17.00779915px;font-family:icomoon;fill:#ffffff;fill-opacity:1;stroke:none">
      <path
         d="M 2.02148,-18.6875 H 20.9785 c 0.5541,0 1.0295,0.1984 1.4263,0.5952 C 22.8016,-17.6955 23,-17.2201 23,-16.666 V 2.29102 C 23,2.84505 22.8016,3.32048 22.4048,3.71729 22.008,4.1141 21.5326,4.3125 20.9785,4.3125 H 2.02148 C 1.46745,4.3125 0.992025,4.1141 0.595215,3.71729 0.198405,3.32048 0,2.84505 0,2.29102 V -16.666 c 0,-0.5541 0.198405,-1.0295 0.595215,-1.4263 0.39681,-0.3968 0.872235,-0.5952 1.426265,-0.5952"
         id="path12"
         inkscape:connector-curvature="0"
         style="vector-effect:none;fill-rule:nonzero" />
    </g>
    <g
       transform="matrix(1.33333,0,0,1.33333,16,16)"
       font-size="8.25"
       font-weight="400"
       font-style="normal"
       id="g16"
       style="font-style:normal;font-weight:400;font-size:8.25px;font-family:'MS Shell Dlg 2';fill:none;stroke:#000000;stroke-width:1;stroke-linecap:square;stroke-linejoin:bevel;stroke-opacity:1" />
    <g
       transform="translate(16,16)"
       font-size="8.25"
       font-weight="400"
       font-style="normal"
       id="g18"
       style="font-style:normal;font-weight:400;font-size:8.25px;font-family:'MS Shell Dlg 2';fill:none;stroke:#000000;stroke-width:1;stroke-linecap:square;stroke-linejoin:bevel;stroke-opacity:1" />
    <g
       font-size="8.25"
       font-weight="400"
       font-style="normal"
       id="g20"
       style="font-style:normal;font-weight:400;font-size:8.25px;font-family:'MS Shell Dlg 2';fill:none;stroke:#000000;stroke-width:1;stroke-linecap:square;stroke-linejoin:bevel;stroke-opacity:1" />
    <g
       transform="translate(16,16)"
       font-size="8.25"
       font-weight="400"
       font-style="normal"
       id="g22"
       style="font-style:normal;font-weight:400;font-size:8.25px;font-family:'MS Shell Dlg 2';fill:none;stroke:#000000;stroke-width:1;stroke-linecap:square;stroke-linejoin:bevel;stroke-opacity:1" />
    <g
       transform="matrix(1.33333,0,0,1.33333,16,16)"
       font-size="8.25"
       font-weight="400"
       font-style="normal"
       id="g24"
       style="font-style:normal;font-weight:400;font-size:8.25px;font-family:'MS Shell Dlg 2';fill:none;stroke:#000000;stroke-width:1;stroke-linecap:square;stroke-linejoin:bevel;stroke-opacity:1" />
    <g
       transform="translate(4.5,23.1875)"
       font-size="17.0078"
       font-weight="400"
       font-style="normal"
       id="g28"
       style="font-style:normal;font-weight:400;font-size:17.00779915px;font-family:icomoon;fill:#000000;fill-opacity:1;stroke:none">
      <path
         d="m 20.9785,-18.0137 c 0.3744,0 0.6926,0.1311 0.9546,0.3931 0.262,0.262 0.3931,0.5802 0.3931,0.9546 V 2.29102 c 0,0.37434 -0.1311,0.69254 -0.3931,0.95459 -0.262,0.26204 -0.5802,0.39306 -0.9546,0.39306 H 2.02148 C 1.64714,3.63867 1.32894,3.50765 1.06689,3.24561 0.80485,2.98356 0.673828,2.66536 0.673828,2.29102 V -16.666 c 0,-0.3744 0.131022,-0.6926 0.393062,-0.9546 0.26205,-0.262 0.58025,-0.3931 0.95459,-0.3931 H 20.9785 m 0,-0.6738 H 2.02148 c -0.55403,0 -1.029455,0.1984 -1.426265,0.5952 C 0.198405,-17.6955 0,-17.2201 0,-16.666 V 2.29102 C 0,2.84505 0.198405,3.32048 0.595215,3.71729 0.992025,4.1141 1.46745,4.3125 2.02148,4.3125 H 20.9785 c 0.5541,0 1.0295,-0.1984 1.4263,-0.59521 C 22.8016,3.32048 23,2.84505 23,2.29102 V -16.666 c 0,-0.5541 -0.1984,-1.0295 -0.5952,-1.4263 -0.3968,-0.3968 -0.8722,-0.5952 -1.4263,-0.5952 M 11.5,-15.3857 c 1.138,0 2.2012,0.2171 3.1895,0.6513 1.0032,0.4193 1.8754,0.9995 2.6167,1.7407 0.7412,0.7413 1.3214,1.6135 1.7407,2.6167 0.4342,0.98833 0.6513,2.05148 0.6513,3.1895 0,1.13802 -0.2171,2.20117 -0.6513,3.18945 -0.4193,1.00326 -0.9995,1.87549 -1.7407,2.6167 -0.7413,0.741213 -1.6135,1.3214542 -2.6167,1.740725 C 13.7012,0.79362 12.638,1.01074 11.5,1.01074 10.362,1.01074 9.29883,0.79362 8.31055,0.359375 7.30729,-0.0598958 6.43506,-0.640137 5.69385,-1.38135 4.95264,-2.12256 4.3724,-2.99479 3.95313,-3.99805 3.51888,-4.98633 3.30176,-6.04948 3.30176,-7.1875 c 0,-1.13802 0.21712,-2.20117 0.65137,-3.1895 0.41927,-1.0032 0.99951,-1.8754 1.74072,-2.6167 0.74121,-0.7412 1.61344,-1.3214 2.6167,-1.7407 0.98828,-0.4342 2.05145,-0.6513 3.18945,-0.6513 m 0,-1.3477 c -1.3177,0 -2.56055,0.2471 -3.72852,0.7412 -1.15299,0.5091 -2.15999,1.1942 -3.02099,2.0552 -0.861,0.861 -1.54606,1.868 -2.05518,3.021 -0.49414,1.16795 -0.74121,2.41079 -0.74121,3.7285 0,1.31771 0.24707,2.56055 0.74121,3.72852 0.50912,1.15299 1.19418,2.15999 2.05518,3.020992 0.861,0.861002 1.868,1.546058 3.02099,2.055178 C 8.93945,2.11133 10.1823,2.3584 11.5,2.3584 c 1.3177,0 2.5605,-0.24707 3.7285,-0.74121 1.153,-0.50912 2.16,-1.194176 3.021,-2.055178 0.861,-0.861002 1.5461,-1.868002 2.0552,-3.020992 0.4941,-1.16797 0.7412,-2.41081 0.7412,-3.72852 0,-1.31771 -0.2471,-2.56055 -0.7412,-3.7285 -0.5091,-1.153 -1.1942,-2.16 -2.0552,-3.021 -0.861,-0.861 -1.868,-1.5461 -3.021,-2.0552 -1.168,-0.4941 -2.4108,-0.7412 -3.7285,-0.7412 m 0,4.8066 c 0.6589,0 1.2728,0.1273 1.8418,0.3819 0.569,0.2396 1.0706,0.5765 1.5049,1.0107 0.4342,0.4343 0.7711,0.93589 1.0107,1.5049 0.2546,0.56901 0.3819,1.18295 0.3819,1.8418 0,0.65885 -0.1273,1.27279 -0.3819,1.8418 -0.2396,0.56901 -0.5765,1.07063 -1.0107,1.50488 -0.4343,0.43424 -0.9359,0.77116 -1.5049,1.01074 -0.569,0.25456 -1.1829,0.38184 -1.8418,0.38184 -0.6589,0 -1.2728,-0.12728 -1.8418,-0.38184 C 9.08919,-3.06966 8.58757,-3.40658 8.15332,-3.84082 7.71908,-4.27507 7.38216,-4.77669 7.14258,-5.3457 6.88802,-5.91471 6.76074,-6.52865 6.76074,-7.1875 c 0,-0.65885 0.12728,-1.27279 0.38184,-1.8418 0.23958,-0.56901 0.5765,-1.0706 1.01074,-1.5049 0.43425,-0.4342 0.93587,-0.7711 1.50488,-1.0107 0.569,-0.2546 1.1829,-0.3819 1.8418,-0.3819 m 0,-1.3476 c -0.8385,0 -1.63216,0.1572 -2.38086,0.4717 -0.73372,0.3294 -1.37386,0.7674 -1.92041,1.3139 -0.54655,0.5466 -0.98454,1.1867 -1.31396,1.92044 -0.31446,0.7487 -0.47168,1.54232 -0.47168,2.38086 0,0.83854 0.15722,1.63216 0.47168,2.38086 0.32942,0.73372 0.76741,1.37386 1.31396,1.92041 0.54655,0.54655 1.18669,0.98454 1.92041,1.31396 0.7487,0.31446 1.54236,0.47168 2.38086,0.47168 0.8385,0 1.6322,-0.15722 2.3809,-0.47168 0.7337,-0.32942 1.3738,-0.76741 1.9204,-1.31396 0.5465,-0.54655 0.9845,-1.18669 1.3139,-1.92041 0.3145,-0.7487 0.4717,-1.54232 0.4717,-2.38086 0,-0.83854 -0.1572,-1.63216 -0.4717,-2.38086 -0.3294,-0.73374 -0.7674,-1.37384 -1.3139,-1.92044 -0.5466,-0.5465 -1.1867,-0.9845 -1.9204,-1.3139 -0.7487,-0.3145 -1.5424,-0.4717 -2.3809,-0.4717"
         id="path26"
         inkscape:connector-curvature="0"
         style="vector-effect:none;fill-rule:nonzero" />
    </g>
    <g
       transform="matrix(1.33333,0,0,1.33333,16,16)"
       font-size="8.25"
       font-weight="400"
       font-style="normal"
       id="g30"
       style="font-style:normal;font-weight:400;font-size:8.25px;font-family:'MS Shell Dlg 2';fill:none;stroke:#000000;stroke-width:1;stroke-linecap:square;stroke-linejoin:bevel;stroke-opacity:1" />
    <g
       transform="translate(16,16)"
       font-size="8.25"
       font-weight="400"
       font-style="normal"
       id="g32"
       style="font-style:normal;font-weight:400;font-size:8.25px;font-family:'MS Shell Dlg 2';fill:none;stroke:#000000;stroke-width:1;stroke-linecap:square;stroke-linejoin:bevel;stroke-opacity:1" />
    <g
       font-size="8.25"
       font-weight="400"
       font-style="normal"
       id="g34"
       style="font-style:normal;font-weight:400;font-size:8.25px;font-family:'MS Shell Dlg 2';fill:none;stroke:#000000;stroke-width:1;stroke-linecap:square;stroke-linejoin:bevel;stroke-opacity:1" />
  </g>
</svg>
