<svg xmlns="http://www.w3.org/2000/svg" width="20" height="20" version="1.2">
    <g font-weight="400" style="fill:none;fill-rule:evenodd;stroke:#000;stroke-width:1;stroke-linecap:square;stroke-linejoin:bevel">
        <g style="font-style:normal;font-weight:400;font-size:19.84250069px;font-family:icomoon;fill:#fff;fill-opacity:1;stroke:none">
            <path d="M2.285-21.125h21.43a2.2 2.2 0 0 1 1.612.673A2.2 2.2 0 0 1 26-18.84V2.59a2.2 2.2 0 0 1-.673 1.612 2.2 2.2 0 0 1-1.612.673H2.285a2.2 2.2 0 0 1-1.612-.673A2.2 2.2 0 0 1 0 2.59v-21.43a2.2 2.2 0 0 1 .673-1.612 2.2 2.2 0 0 1 1.612-.673" font-size="19.843" style="vector-effect:none;fill-rule:nonzero" transform="matrix(.6923 0 0 .6923 1 15.625)"/>
        </g>
        <g style="font-style:normal;font-weight:400;font-size:17.00779915px;font-family:icomoon;fill:#000;fill-opacity:1;stroke:none">
            <path d="M20.979-18.014a1.3 1.3 0 0 1 .954.393 1.3 1.3 0 0 1 .393.955V2.291a1.3 1.3 0 0 1-.393.955 1.3 1.3 0 0 1-.955.393H2.021a1.3 1.3 0 0 1-.954-.393 1.3 1.3 0 0 1-.393-.955v-18.957a1.3 1.3 0 0 1 .393-.955 1.3 1.3 0 0 1 .954-.393h18.957m0-.674H2.021c-.554 0-1.029.199-1.426.596A1.946 1.946 0 0 0 0-16.666V2.291c0 .554.198 1.03.595 1.426.397.397.872.595 1.426.595h18.957c.555 0 1.03-.198 1.427-.595.397-.397.595-.872.595-1.426v-18.957c0-.554-.198-1.03-.595-1.426a1.946 1.946 0 0 0-1.426-.596m-3.931 2.471a.283.283 0 0 0-.112-.067.423.423 0 0 0-.135-.023.3.3 0 0 0-.225.09l-3.84 3.616a1.5 1.5 0 0 1-.057.102.235.235 0 0 0-.034.123 9.922 9.922 0 0 0-.707-.067 12.5 12.5 0 0 0-.752-.023h-.135a10.383 10.383 0 0 0-.944.045h.045l3.482-3.324a.528.528 0 0 0 .078-.101.235.235 0 0 0 .034-.124.299.299 0 0 0-.034-.134.43.43 0 0 0-.078-.113.301.301 0 0 0-.101-.067.398.398 0 0 0-.146-.023.3.3 0 0 0-.225.09L9.366-12.6a.429.429 0 0 0-.078.113.3.3 0 0 0-.034.134c0 .015.004.027.011.034.008.008.011.019.011.034-.718.12-1.396.31-2.032.573a9.944 9.944 0 0 0-1.786.954l.045-.022V-.427h1.325v2.044h1.28V-.427h6.222v2.044h1.28V-.427h1.303V-10.78a10.176 10.176 0 0 0-1.64-.899 8.538 8.538 0 0 0-1.819-.561l-.067-.023 3.683-3.481a1.5 1.5 0 0 1 .057-.101.236.236 0 0 0 .033-.124.3.3 0 0 0-.033-.135.43.43 0 0 0-.08-.112M6.762-3.57h1.258v1.617H6.76v-1.617m7.524 1.617v-1.617h1.28v1.617h-1.28m1.28-3.212H6.761v-4.717h8.804v4.717m-1.796-5.997v.786h-4.83v-.808l4.83.022" font-size="17.008" style="vector-effect:none;fill-rule:nonzero" transform="matrix(.6923 0 0 .6923 2.038 14.976)"/>
        </g>
        <g style="font-style:normal;font-weight:400;font-size:19.84250069px;font-family:icomoon;fill:#000;fill-opacity:1;stroke:none">
            <path d="M23.943-20.44c.373 0 .694.136.965.407.271.27.406.592.406.965V2.818c0 .373-.135.694-.406.965-.27.271-.592.406-.965.406H2.057c-.373 0-.694-.135-.965-.406a1.318 1.318 0 0 1-.406-.965v-21.886c0-.373.135-.694.406-.965.27-.271.592-.407.965-.407h21.886m0-.685H2.057c-.576 0-1.063.199-1.46.597A1.986 1.986 0 0 0 0-19.068V2.818c0 .576.199 1.063.597 1.46.397.398.884.597 1.46.597h21.886c.576 0 1.063-.199 1.46-.597.398-.397.597-.884.597-1.46v-21.886c0-.576-.199-1.063-.597-1.46a1.986 1.986 0 0 0-1.46-.597" font-size="19.843" style="vector-effect:none;fill-rule:nonzero" transform="matrix(.6923 0 0 .6923 1 15.625)"/>
        </g>
    </g>
</svg>
