<svg xmlns="http://www.w3.org/2000/svg" width="20" height="20" version="1.2">
    <g font-weight="400" style="fill:none;fill-rule:evenodd;stroke:#000;stroke-width:1;stroke-linecap:square;stroke-linejoin:bevel">
        <g style="font-style:normal;font-weight:400;font-size:19.84250069px;font-family:icomoon;fill:red;fill-opacity:1;stroke:none">
            <path d="M2.285-21.125h21.43a2.2 2.2 0 0 1 1.612.673A2.2 2.2 0 0 1 26-18.84V2.59a2.2 2.2 0 0 1-.673 1.612 2.2 2.2 0 0 1-1.612.673H2.285a2.2 2.2 0 0 1-1.612-.673A2.2 2.2 0 0 1 0 2.59v-21.43a2.2 2.2 0 0 1 .673-1.612 2.2 2.2 0 0 1 1.612-.673" font-size="19.843" style="vector-effect:none;fill-rule:nonzero" transform="matrix(.6923 0 0 .6923 1 15.625)"/>
        </g>
        <g style="font-style:normal;font-weight:400;font-size:17.00779915px;font-family:icomoon;fill:#000;fill-opacity:1;stroke:none">
            <path d="M20.979-18.014a1.3 1.3 0 0 1 .954.393 1.3 1.3 0 0 1 .393.955V2.291a1.3 1.3 0 0 1-.393.955 1.3 1.3 0 0 1-.955.393H2.021a1.3 1.3 0 0 1-.954-.393 1.3 1.3 0 0 1-.393-.955v-18.957a1.3 1.3 0 0 1 .393-.955 1.3 1.3 0 0 1 .954-.393h18.957m0-.674H2.021c-.554 0-1.029.199-1.426.596A1.946 1.946 0 0 0 0-16.666V2.291c0 .554.198 1.03.595 1.426.397.397.872.595 1.426.595h18.957c.555 0 1.03-.198 1.427-.595.397-.397.595-.872.595-1.426v-18.957c0-.554-.198-1.03-.595-1.426a1.946 1.946 0 0 0-1.426-.596M16.756-2.672c.18-.195.322-.42.427-.674.104-.254.157-.524.157-.808v-8.76c0-.315-.064-.607-.191-.876a2.816 2.816 0 0 0-.483-.719h-.022a2.054 2.054 0 0 0-.72-.494 2.292 2.292 0 0 0-.898-.18H8.333c-.314 0-.61.06-.887.18a2.37 2.37 0 0 0-1.224 1.213c-.12.27-.18.561-.18.876V-4.2c0 .584.187 1.093.562 1.527.374.434.838.704 1.392.809h.023L5.03 2.56h1.685L8.737-.45H14.6l2.021 3.01h1.685l-2.988-4.425c.3-.045.57-.139.809-.281.24-.142.45-.318.629-.528M10.04-14.51c0-.09.019-.157.056-.202.038-.045.101-.067.191-.067h2.74c.105 0 .184.022.236.067.053.045.079.112.079.202V-13.544a.26.26 0 0 1-.079.191.26.26 0 0 1-.19.079h-2.786c-.165 0-.247-.105-.247-.315v-.92m-2.605 2.83v-.046c0-.3.104-.55.314-.752.21-.202.457-.303.741-.303H14.802c.15 0 .292.026.426.078.135.053.255.124.36.214.09.104.165.22.225.348.06.127.09.266.09.415V-9.838c0 .15-.03.288-.09.416-.06.127-.135.235-.225.325a1.033 1.033 0 0 1-.36.236 1.167 1.167 0 0 1-.426.079H8.49c-.284 0-.531-.105-.741-.315a1.014 1.014 0 0 1-.314-.74v-.068.022-1.797M9.23-3.302a.984.984 0 0 1-.325.214 1.023 1.023 0 0 1-.393.078h-.068a1.08 1.08 0 0 1-.415-.078 1.281 1.281 0 0 1-.348-.214 1.235 1.235 0 0 1-.214-.36 1.167 1.167 0 0 1-.078-.426c0-.15.026-.292.078-.427.053-.134.124-.254.214-.359a.984.984 0 0 1 .325-.213 1.08 1.08 0 0 1 .416-.079h.09a.965.965 0 0 1 .719.337c.104.105.183.225.235.36.053.134.079.276.079.426 0 .15-.026.292-.079.427a1.034 1.034 0 0 1-.236.36v-.046m4.852 0a1.46 1.46 0 0 1-.225-.36 1.04 1.04 0 0 1-.09-.426c0-.15.03-.292.09-.427a1.46 1.46 0 0 1 .225-.359c.09-.09.195-.161.315-.213a.942.942 0 0 1 .381-.079h.068-.023.068c.15 0 .292.03.426.09a.94.94 0 0 1 .337.247c.09.09.161.198.214.326.052.127.078.265.078.415v.135a.97.97 0 0 1-.28.696.914.914 0 0 1-.686.292h-.157a1.447 1.447 0 0 1-.393-.1.848.848 0 0 1-.326-.237h-.022m-1.46-12.219c.09 0 .176-.018.258-.056a.718.718 0 0 0 .36-.359.67.67 0 0 0 .056-.28v-.046a.616.616 0 0 0-.056-.258.718.718 0 0 0-.36-.36.617.617 0 0 0-.258-.056h-.045a.618.618 0 0 0-.258.057.72.72 0 0 0-.36.359.617.617 0 0 0-.056.258v.068c0 .09.019.176.056.258a.72.72 0 0 0 .36.36.617.617 0 0 0 .258.055h.045m-1.976 0a.75.75 0 0 0 .516-.202.556.556 0 0 0 .169-.224.75.75 0 0 0 .056-.292c0-.09-.019-.18-.056-.27a.557.557 0 0 0-.169-.224.752.752 0 0 0-.517-.202.617.617 0 0 0-.258.056.718.718 0 0 0-.36.359.671.671 0 0 0-.055.28v.023c0 .09.018.18.056.27a.685.685 0 0 0 .36.37.616.616 0 0 0 .258.056" font-size="17.008" style="vector-effect:none;fill-rule:nonzero" transform="matrix(.6923 0 0 .6923 2.038 14.976)"/>
        </g>
        <g style="font-style:normal;font-weight:400;font-size:19.84250069px;font-family:icomoon;fill:#000;fill-opacity:1;stroke:none">
            <path d="M23.943-20.44c.373 0 .694.136.965.407.271.27.406.592.406.965V2.818c0 .373-.135.694-.406.965-.27.271-.592.406-.965.406H2.057c-.373 0-.694-.135-.965-.406a1.318 1.318 0 0 1-.406-.965v-21.886c0-.373.135-.694.406-.965.27-.271.592-.407.965-.407h21.886m0-.685H2.057c-.576 0-1.063.199-1.46.597A1.986 1.986 0 0 0 0-19.068V2.818c0 .576.199 1.063.597 1.46.397.398.884.597 1.46.597h21.886c.576 0 1.063-.199 1.46-.597.398-.397.597-.884.597-1.46v-21.886c0-.576-.199-1.063-.597-1.46a1.986 1.986 0 0 0-1.46-.597" font-size="19.843" style="vector-effect:none;fill-rule:nonzero" transform="matrix(.6923 0 0 .6923 1 15.625)"/>
        </g>
    </g>
</svg>
