<svg xmlns="http://www.w3.org/2000/svg" width="20" height="20" version="1.2">
    <g font-weight="400" style="fill:none;fill-rule:evenodd;stroke:#000;stroke-width:1;stroke-linecap:square;stroke-linejoin:bevel">
        <g style="font-style:normal;font-weight:400;font-size:17.00779915px;font-family:icomoon;fill:#fff;fill-opacity:1;stroke:none">
            <path d="M2.021-18.688h18.957c.555 0 1.03.199 1.427.596.397.396.595.872.595 1.426V2.291c0 .554-.198 1.03-.595 1.426a1.946 1.946 0 0 1-1.427.595H2.021c-.554 0-1.029-.198-1.426-.595A1.946 1.946 0 0 1 0 2.291v-18.957c0-.554.198-1.03.595-1.426a1.946 1.946 0 0 1 1.426-.596" font-size="17.008" style="vector-effect:none;fill-rule:nonzero" transform="matrix(.65217 0 0 .65217 2.5 14.687)"/>
        </g>
        <g style="font-style:normal;font-weight:400;font-size:17.00779915px;font-family:icomoon;fill:#000;fill-opacity:1;stroke:none">
            <path d="M20.979-18.014a1.3 1.3 0 0 1 .954.393 1.3 1.3 0 0 1 .393.955V2.291a1.3 1.3 0 0 1-.393.955 1.3 1.3 0 0 1-.955.393H2.021a1.3 1.3 0 0 1-.954-.393 1.3 1.3 0 0 1-.393-.955v-18.957a1.3 1.3 0 0 1 .393-.955 1.3 1.3 0 0 1 .954-.393h18.957m0-.674H2.021c-.554 0-1.029.199-1.426.596A1.946 1.946 0 0 0 0-16.666V2.291c0 .554.198 1.03.595 1.426.397.397.872.595 1.426.595h18.957c.555 0 1.03-.198 1.427-.595.397-.397.595-.872.595-1.426v-18.957c0-.554-.198-1.03-.595-1.426a1.946 1.946 0 0 0-1.426-.596m-6.29 7.188H8.312c-.405 0-.75.142-1.034.427a1.407 1.407 0 0 0-.426 1.033v5.638c0 .359.12.673.359.943.24.27.539.434.898.494v1.707h.382V.314h.607v-1.572h4.806V.314h.607v-1.572h.382v-1.707c.359-.045.658-.206.898-.483s.36-.602.36-.977v-5.615c0-.404-.143-.749-.427-1.033a1.407 1.407 0 0 0-1.034-.427m4.448-2.875c-.15-.075-.54-.262-1.168-.561-.614-.3-1.322-.615-2.123-.944a30.191 30.191 0 0 0-2.414-.876c-.824-.27-1.49-.404-2-.404-.508 0-1.16.135-1.953.404a26.65 26.65 0 0 0-2.381.876c-.779.33-1.475.644-2.09.943-.613.3-.987.487-1.122.562l-.382.18v16.53h15.992v-16.53l-.36-.18M18.149-.359H4.852v-12.174h13.296V-.36" font-size="17.008" style="vector-effect:none;fill-rule:nonzero" transform="matrix(.65217 0 0 .65217 2.5 14.687)"/>
        </g>
    </g>
</svg>
