<svg xmlns="http://www.w3.org/2000/svg" width="20" height="20" version="1.2">
    <g font-weight="400" style="fill:none;fill-rule:evenodd;stroke:#000;stroke-width:1;stroke-linecap:square;stroke-linejoin:bevel">
        <g style="font-style:normal;font-weight:400;font-size:17.00779915px;font-family:icomoon;fill:#fff;fill-opacity:1;stroke:none">
            <path d="M2.021-18.688h18.957c.555 0 1.03.199 1.427.596.397.396.595.872.595 1.426V2.291c0 .554-.198 1.03-.595 1.426a1.946 1.946 0 0 1-1.427.595H2.021c-.554 0-1.029-.198-1.426-.595A1.946 1.946 0 0 1 0 2.291v-18.957c0-.554.198-1.03.595-1.426a1.946 1.946 0 0 1 1.426-.596" font-size="17.008" style="vector-effect:none;fill-rule:nonzero" transform="matrix(.65217 0 0 .65217 2.5 14.687)"/>
        </g>
        <g style="font-style:normal;font-weight:400;font-size:17.00779915px;font-family:icomoon;fill:#000;fill-opacity:1;stroke:none">
            <path d="M20.979-18.014a1.3 1.3 0 0 1 .954.393 1.3 1.3 0 0 1 .393.955V2.291a1.3 1.3 0 0 1-.393.955 1.3 1.3 0 0 1-.955.393H2.021a1.3 1.3 0 0 1-.954-.393 1.3 1.3 0 0 1-.393-.955v-18.957a1.3 1.3 0 0 1 .393-.955 1.3 1.3 0 0 1 .954-.393h18.957m0-.674H2.021c-.554 0-1.029.199-1.426.596A1.946 1.946 0 0 0 0-16.666V2.291c0 .554.198 1.03.595 1.426.397.397.872.595 1.426.595h18.957c.555 0 1.03-.198 1.427-.595.397-.397.595-.872.595-1.426v-18.957c0-.554-.198-1.03-.595-1.426a1.946 1.946 0 0 0-1.426-.596M5.548-1.212H4.223v1.91h1.864c0 .374.13.696.393.965.262.27.58.404.955.404.374 0 .696-.134.965-.404.27-.27.405-.591.405-.966 0-.134-.023-.262-.068-.382a3.742 3.742 0 0 0-.157-.359v.023h1.685c-.06.104-.113.217-.158.336-.044.12-.067.255-.067.405 0 .374.135.692.404.954.27.262.592.393.966.393a1.3 1.3 0 0 0 .955-.393 1.3 1.3 0 0 0 .393-.954 1.354 1.354 0 0 0-.225-.764v.023h1.348c-.06.104-.109.217-.146.336-.038.12-.056.248-.056.382 0 .375.13.697.393.966.262.27.58.404.954.404.375 0 .693-.134.955-.404s.393-.591.393-.966c0-.134-.019-.262-.056-.382a1.556 1.556 0 0 0-.169-.359l.023.023h1.954v-1.64H5.548v.45m6.334 2.402a.576.576 0 0 1-.213.135.818.818 0 0 1-.54 0 .576.576 0 0 1-.213-.135.892.892 0 0 1-.135-.224.724.724 0 0 1-.045-.27c0-.09.015-.176.045-.258a.575.575 0 0 1 .135-.213.671.671 0 0 1 .966 0c.06.06.108.13.146.213a.616.616 0 0 1 .056.258.596.596 0 0 1-.056.27 1.27 1.27 0 0 1-.146.224m3.639 0c-.06.03-.124.057-.191.079a.672.672 0 0 1-.685-.168.647.647 0 0 1-.169-.674.725.725 0 0 1 .101-.18h-.022a.894.894 0 0 1 .224-.135.725.725 0 0 1 .27-.045.75.75 0 0 1 .258.045.576.576 0 0 1 .348.348.751.751 0 0 1 0 .517.577.577 0 0 1-.134.213m-8.086.203a.646.646 0 0 1-.472-.203.672.672 0 0 1-.202-.494c0-.18.067-.337.202-.471a.646.646 0 0 1 .472-.203c.194 0 .355.068.482.203.128.134.191.292.191.471 0 .195-.063.36-.19.494a.636.636 0 0 1-.483.203M6.132.359v-.381h.18a.552.552 0 0 0-.113.168c-.03.067-.052.139-.067.213m7.906-8.288v1.932H7.884V-7.93h-.45c.045-.24.14-.483.281-.73.143-.247.386-.378.73-.393.614-.03 1.37-.15 2.269-.36.898-.209 1.497-.598 1.797-1.167.284-.554.565-.996.842-1.325.277-.33.333-.749.168-1.258-.164-.51-.404-.786-.718-.831-.315-.045-.412-.217-.292-.517.105-.314.202-.659.292-1.033.09-.374-.24-.689-.989-.943l-.584.314c-.389.21-.501.502-.336.876.18.36.378.55.595.573.217.022.213.183-.012.483-.224.314-.43.411-.617.292-.187-.12-.43.142-.73.786a9.473 9.473 0 0 1-1.168 1.875c-.48.607-.899.94-1.258 1-.3.045-.528.352-.685.92-.157.57-.25 1.049-.28 1.438h-.607v1.932h-.719v1.056h-.809v1.864h.81v.629h8.624v-3.324h.854v3.324h3.256v-3.324h.72V-7.93h-4.83m2.47 3.706h-.943v-1.55h.944v1.55" font-size="17.008" style="vector-effect:none;fill-rule:nonzero" transform="matrix(.65217 0 0 .65217 2.5 14.687)"/>
        </g>
    </g>
</svg>
