<svg xmlns="http://www.w3.org/2000/svg" width="20" height="20" version="1.2">
    <g font-weight="400" style="fill:none;fill-rule:evenodd;stroke:#000;stroke-width:1;stroke-linecap:square;stroke-linejoin:bevel">
        <g style="font-style:normal;font-weight:400;font-size:17.00779915px;font-family:icomoon;fill:#fff;fill-opacity:1;stroke:none">
            <path d="M2.021-18.688h18.957c.555 0 1.03.199 1.427.596.397.396.595.872.595 1.426V2.291c0 .554-.198 1.03-.595 1.426a1.946 1.946 0 0 1-1.427.595H2.021c-.554 0-1.029-.198-1.426-.595A1.946 1.946 0 0 1 0 2.291v-18.957c0-.554.198-1.03.595-1.426a1.946 1.946 0 0 1 1.426-.596" font-size="17.008" style="vector-effect:none;fill-rule:nonzero" transform="matrix(.65217 0 0 .65217 2.5 14.687)"/>
        </g>
        <g style="font-style:normal;font-weight:400;font-size:17.00779915px;font-family:icomoon;fill:#000;fill-opacity:1;stroke:none">
            <path d="M20.979-18.014a1.3 1.3 0 0 1 .954.393 1.3 1.3 0 0 1 .393.955V2.291a1.3 1.3 0 0 1-.393.955 1.3 1.3 0 0 1-.955.393H2.021a1.3 1.3 0 0 1-.954-.393 1.3 1.3 0 0 1-.393-.955v-18.957a1.3 1.3 0 0 1 .393-.955 1.3 1.3 0 0 1 .954-.393h18.957m0-.674H2.021c-.554 0-1.029.199-1.426.596A1.946 1.946 0 0 0 0-16.666V2.291c0 .554.198 1.03.595 1.426.397.397.872.595 1.426.595h18.957c.555 0 1.03-.198 1.427-.595.397-.397.595-.872.595-1.426v-18.957c0-.554-.198-1.03-.595-1.426a1.946 1.946 0 0 0-1.426-.596m-6.222 8.176c.794 0 1.475-.284 2.044-.853.569-.57.853-1.25.853-2.044 0-.809-.284-1.494-.853-2.055a2.807 2.807 0 0 0-2.044-.843c-.809 0-1.498.281-2.067.843a2.778 2.778 0 0 0-.853 2.055c0 .793.284 1.475.853 2.044a2.815 2.815 0 0 0 2.067.853m0-5.12c.614 0 1.138.216 1.572.65.434.435.651.959.651 1.573s-.217 1.138-.65 1.572a2.143 2.143 0 0 1-1.573.652 2.18 2.18 0 0 1-1.584-.652 2.125 2.125 0 0 1-.662-1.572c0-.614.22-1.138.662-1.572a2.18 2.18 0 0 1 1.584-.652m-2.92 2.224v-.337h-.786l-.09-.427a.335.335 0 0 0-.112-.19.299.299 0 0 0-.203-.08h-.022a.329.329 0 0 0-.202.068.287.287 0 0 0-.112.18v.022L6.963 1.033v.113-.023H5.75v.696h9.456v-.696h-.898v-.09l-3.1-14.105h.629v-.337" font-size="17.008" style="vector-effect:none;fill-rule:nonzero" transform="matrix(.65217 0 0 .65217 2.5 14.687)"/>
        </g>
    </g>
</svg>
