<svg xmlns="http://www.w3.org/2000/svg" width="20" height="20" version="1.2">
    <g font-weight="400" style="fill:none;fill-rule:evenodd;stroke:#000;stroke-width:1;stroke-linecap:square;stroke-linejoin:bevel">
        <g style="font-style:normal;font-weight:400;font-size:17.00779915px;font-family:icomoon;fill:red;fill-opacity:1;stroke:none">
            <path d="M2.021-18.688h18.957c.555 0 1.03.199 1.427.596.397.396.595.872.595 1.426V2.291c0 .554-.198 1.03-.595 1.426a1.946 1.946 0 0 1-1.427.595H2.021c-.554 0-1.029-.198-1.426-.595A1.946 1.946 0 0 1 0 2.291v-18.957c0-.554.198-1.03.595-1.426a1.946 1.946 0 0 1 1.426-.596" font-size="17.008" style="vector-effect:none;fill-rule:nonzero" transform="matrix(.65217 0 0 .65217 2.5 14.687)"/>
        </g>
        <g style="font-style:normal;font-weight:400;font-size:17.00779915px;font-family:icomoon;fill:#000;fill-opacity:1;stroke:none">
            <path d="M20.979-18.014a1.3 1.3 0 0 1 .954.393 1.3 1.3 0 0 1 .393.955V2.291a1.3 1.3 0 0 1-.393.955 1.3 1.3 0 0 1-.955.393H2.021a1.3 1.3 0 0 1-.954-.393 1.3 1.3 0 0 1-.393-.955v-18.957a1.3 1.3 0 0 1 .393-.955 1.3 1.3 0 0 1 .954-.393h18.957m0-.674H2.021c-.554 0-1.029.199-1.426.596A1.946 1.946 0 0 0 0-16.666V2.291c0 .554.198 1.03.595 1.426.397.397.872.595 1.426.595h18.957c.555 0 1.03-.198 1.427-.595.397-.397.595-.872.595-1.426v-18.957c0-.554-.198-1.03-.595-1.426a1.946 1.946 0 0 0-1.426-.596M7.614-6.334l.831.494c.075 0 .131-.015.169-.045.037-.03.056-.075.056-.135a.423.423 0 0 0-.034-.168 1.892 1.892 0 0 1-.056-.146L6.693-9.838l-4.177.09h-.023a.236.236 0 0 0-.168.079.26.26 0 0 0-.079.19v.023c0 .03.015.06.045.09s.075.067.135.112l.853.517-.92 1.415c-.09.135-.17.288-.236.46a1.868 1.868 0 0 0-.124.528v.022c0 .15.022.292.067.427.045.135.105.262.18.382v-.022l2.83 4.963A5.815 5.815 0 0 1 4.998-1a3.255 3.255 0 0 1-.034-.46c.015-.284.064-.55.146-.797a2.57 2.57 0 0 1 .348-.685h-.022l2.178-3.392m1.078-2.875 2.336-3.616c-.868-2.007-1.797-3.01-2.785-3.01h-.135c-.21 0-.408.049-.595.146-.187.097-.34.22-.46.37v.023l-2.201 3.504 3.84 2.583M6.761.606h4.514v-4.694H6.963a9.34 9.34 0 0 0-.494.696c-.165.255-.322.51-.472.764l-.045.09c-.105.195-.187.4-.247.618-.06.217-.09.453-.09.707 0 .6.098 1.052.292 1.359.195.307.48.46.854.46m9.321-10.691 2.022-3.37c.03-.059.056-.119.078-.179a.572.572 0 0 0 .034-.202.334.334 0 0 0-.034-.168c-.022-.038-.063-.057-.123-.057l-.203.09-.943.405-.831-1.663a1.908 1.908 0 0 0-.842-.842c-.367-.187-.828-.28-1.382-.28H8.625c.24.06.468.138.685.235.217.098.423.214.618.348.344.33.651.69.92 1.079.27.389.502.808.697 1.257v.045l1.056 2.179-.786.382a.224.224 0 0 0-.08.067.182.182 0 0 0-.033.113v.022c0 .06.023.109.068.146a.399.399 0 0 0 .18.079l4.132.314m2 9.995L21-5.413c-.18.225-.386.42-.618.584-.232.165-.483.3-.752.404h-.023a3.595 3.595 0 0 1-.73.157c-.262.03-.527.045-.797.045h-.225.023-3.28v-.673a.697.697 0 0 0-.044-.292c-.03-.06-.075-.09-.135-.09h-.023a.182.182 0 0 0-.112.033.844.844 0 0 0-.09.079l-2.021 3.571 2.134 3.28c.074.134.15.224.224.27.075.044.142.052.202.022a.284.284 0 0 0 .135-.068.152.152 0 0 0 .045-.112V.65H16.823a1.414 1.414 0 0 0 1.258-.74m-1.258-4.807h1.932a2.283 2.283 0 0 0 1.46-.606c.225-.15.408-.342.55-.574.142-.232.221-.49.236-.775v-.022c0-.12-.019-.236-.056-.348a1.263 1.263 0 0 0-.146-.303l-2.314-3.55L14.51-8.76l2.313 3.864" font-size="17.008" style="vector-effect:none;fill-rule:nonzero" transform="matrix(.65217 0 0 .65217 2.5 14.687)"/>
        </g>
    </g>
</svg>
