<?xml version="1.0" encoding="UTF-8" standalone="no"?>
<svg
   xmlns:dc="http://purl.org/dc/elements/1.1/"
   xmlns:cc="http://creativecommons.org/ns#"
   xmlns:rdf="http://www.w3.org/1999/02/22-rdf-syntax-ns#"
   xmlns:svg="http://www.w3.org/2000/svg"
   xmlns="http://www.w3.org/2000/svg"
   xmlns:sodipodi="http://sodipodi.sourceforge.net/DTD/sodipodi-0.dtd"
   xmlns:inkscape="http://www.inkscape.org/namespaces/inkscape"
   width="20"
   height="20"
   viewBox="0 0 20 20"
   version="1.2"
   id="svg52"
   sodipodi:docname="60203160411.svg"
   inkscape:version="0.92.4 (5da689c313, 2019-01-14)">
  <metadata
     id="metadata56">
    <rdf:RDF>
      <cc:Work
         rdf:about="">
        <dc:format>image/svg+xml</dc:format>
        <dc:type
           rdf:resource="http://purl.org/dc/dcmitype/StillImage" />
      </cc:Work>
    </rdf:RDF>
  </metadata>
  <sodipodi:namedview
     pagecolor="#ffffff"
     bordercolor="#666666"
     borderopacity="1"
     objecttolerance="10"
     gridtolerance="10"
     guidetolerance="10"
     inkscape:pageopacity="0"
     inkscape:pageshadow="2"
     inkscape:window-width="1920"
     inkscape:window-height="1017"
     id="namedview54"
     showgrid="false"
     inkscape:zoom="11.8"
     inkscape:cx="-5.2542373"
     inkscape:cy="10"
     inkscape:window-x="-8"
     inkscape:window-y="-8"
     inkscape:window-maximized="1"
     inkscape:current-layer="svg52" />
  <title
     id="title2">Qt SVG Document</title>
  <desc
     id="desc4">Generated with Qt</desc>
  <defs
     id="defs6" />
  <g
     id="g50"
     transform="matrix(0.66666667,0,0,0.66666667,-0.66666672,-0.66666672)"
     style="fill:none;fill-rule:evenodd;stroke:#000000;stroke-width:1;stroke-linecap:square;stroke-linejoin:bevel">
    <g
       transform="translate(16,16)"
       font-size="8.25"
       font-weight="400"
       font-style="normal"
       id="g8"
       style="font-style:normal;font-weight:400;font-size:8.25px;font-family:'MS Shell Dlg 2';fill:none;stroke:#000000;stroke-width:1;stroke-linecap:square;stroke-linejoin:bevel;stroke-opacity:1" />
    <g
       transform="matrix(1.33333,0,0,1.33333,16,16)"
       font-size="8.25"
       font-weight="400"
       font-style="normal"
       id="g10"
       style="font-style:normal;font-weight:400;font-size:8.25px;font-family:'MS Shell Dlg 2';fill:none;stroke:#000000;stroke-width:1;stroke-linecap:square;stroke-linejoin:bevel;stroke-opacity:1" />
    <g
       transform="translate(1,25.375)"
       font-size="22.6771"
       font-weight="400"
       font-style="normal"
       id="g14"
       style="font-style:normal;font-weight:400;font-size:22.67709923px;font-family:icomoon;fill:#ffffff;fill-opacity:1;stroke:none">
      <path
         d="M 2.63672,-24.375 H 27.3633 c 0.7226,0 1.3428,0.2588 1.8603,0.7764 0.5176,0.5175 0.7764,1.1377 0.7764,1.8603 V 2.98828 C 30,3.71094 29.7412,4.33105 29.2236,4.84863 28.7061,5.36621 28.0859,5.625 27.3633,5.625 H 2.63672 C 1.91406,5.625 1.29395,5.36621 0.776367,4.84863 0.258789,4.33105 0,3.71094 0,2.98828 V -21.7383 c 0,-0.7226 0.258789,-1.3428 0.776367,-1.8603 0.517583,-0.5176 1.137693,-0.7764 1.860353,-0.7764"
         id="path12"
         inkscape:connector-curvature="0"
         style="vector-effect:none;fill-rule:nonzero" />
    </g>
    <g
       transform="matrix(1.33333,0,0,1.33333,16,16)"
       font-size="8.25"
       font-weight="400"
       font-style="normal"
       id="g16"
       style="font-style:normal;font-weight:400;font-size:8.25px;font-family:'MS Shell Dlg 2';fill:none;stroke:#000000;stroke-width:1;stroke-linecap:square;stroke-linejoin:bevel;stroke-opacity:1" />
    <g
       transform="translate(16,16)"
       font-size="8.25"
       font-weight="400"
       font-style="normal"
       id="g18"
       style="font-style:normal;font-weight:400;font-size:8.25px;font-family:'MS Shell Dlg 2';fill:none;stroke:#000000;stroke-width:1;stroke-linecap:square;stroke-linejoin:bevel;stroke-opacity:1" />
    <g
       font-size="8.25"
       font-weight="400"
       font-style="normal"
       id="g20"
       style="font-style:normal;font-weight:400;font-size:8.25px;font-family:'MS Shell Dlg 2';fill:none;stroke:#000000;stroke-width:1;stroke-linecap:square;stroke-linejoin:bevel;stroke-opacity:1" />
    <g
       transform="translate(16,16)"
       font-size="8.25"
       font-weight="400"
       font-style="normal"
       id="g22"
       style="font-style:normal;font-weight:400;font-size:8.25px;font-family:'MS Shell Dlg 2';fill:none;stroke:#000000;stroke-width:1;stroke-linecap:square;stroke-linejoin:bevel;stroke-opacity:1" />
    <g
       transform="matrix(1.33333,0,0,1.33333,16,16)"
       font-size="8.25"
       font-weight="400"
       font-style="normal"
       id="g24"
       style="font-style:normal;font-weight:400;font-size:8.25px;font-family:'MS Shell Dlg 2';fill:none;stroke:#000000;stroke-width:1;stroke-linecap:square;stroke-linejoin:bevel;stroke-opacity:1" />
    <g
       transform="translate(4.5,23.1875)"
       font-size="17.0078"
       font-weight="400"
       font-style="normal"
       id="g28"
       style="font-style:normal;font-weight:400;font-size:17.00779915px;font-family:icomoon;fill:#000000;fill-opacity:1;stroke:none">
      <path
         d="m 20.9785,-18.0137 c 0.3744,0 0.6926,0.1311 0.9546,0.3931 0.262,0.262 0.3931,0.5802 0.3931,0.9546 V 2.29102 c 0,0.37434 -0.1311,0.69254 -0.3931,0.95459 -0.262,0.26204 -0.5802,0.39306 -0.9546,0.39306 H 2.02148 C 1.64714,3.63867 1.32894,3.50765 1.06689,3.24561 0.80485,2.98356 0.673828,2.66536 0.673828,2.29102 V -16.666 c 0,-0.3744 0.131022,-0.6926 0.393062,-0.9546 0.26205,-0.262 0.58025,-0.3931 0.95459,-0.3931 H 20.9785 m 0,-0.6738 H 2.02148 c -0.55403,0 -1.029455,0.1984 -1.426265,0.5952 C 0.198405,-17.6955 0,-17.2201 0,-16.666 V 2.29102 C 0,2.84505 0.198405,3.32048 0.595215,3.71729 0.992025,4.1141 1.46745,4.3125 2.02148,4.3125 H 20.9785 c 0.5541,0 1.0295,-0.1984 1.4263,-0.59521 C 22.8016,3.32048 23,2.84505 23,2.29102 V -16.666 c 0,-0.5541 -0.1984,-1.0295 -0.5952,-1.4263 -0.3968,-0.3968 -0.8722,-0.5952 -1.4263,-0.5952 m -8.4228,5.0762 c 0.1497,0 0.292,-0.0187 0.4267,-0.0562 0.1348,-0.0374 0.2621,-0.0861 0.3819,-0.146 0.3593,-0.1797 0.6214,-0.4267 0.7861,-0.7412 0.1647,-0.3144 0.1797,-0.5989 0.0449,-0.8535 -0.0898,-0.1497 -0.2134,-0.2733 -0.3706,-0.3706 -0.1572,-0.0973 -0.3257,-0.146 -0.5054,-0.146 -0.0149,0 -0.0299,0 -0.0449,0 -0.015,0 -0.0299,0 -0.0449,0 -0.1497,0 -0.292,0.0187 -0.4268,0.0561 -0.1347,0.0375 -0.262,0.0861 -0.3818,0.146 -0.2546,0.0899 -0.4679,0.2471 -0.6401,0.4717 -0.1722,0.2246 -0.2583,0.4792 -0.2583,0.7637 0,0.0749 0.0074,0.1422 0.0224,0.2021 0.015,0.0599 0.03,0.1198 0.0449,0.1797 v -0.0224 c 0.0899,0.1647 0.2134,0.292 0.3706,0.3818 0.1573,0.0898 0.3257,0.1348 0.5054,0.1348 0.015,0 0.03,0 0.0449,0 0.015,0 0.03,0 0.045,0 m 0.6738,0.0449 c -0.2695,0 -0.5054,0.1011 -0.7075,0.3032 -0.2022,0.2022 -0.3032,0.438 -0.3032,0.7075 v 3.70609 l -2.91997,1.48242 c -0.11979,0.0599 -0.21712,0.14974 -0.29199,0.26953 -0.07487,0.1198 -0.11231,0.24707 -0.11231,0.38184 0,0 0,0.00374 0,0.01123 0,0.00749 0,0.01123 0,0.01123 l 0.15723,3.3916 c 0.01497,0.19466 0.09359,0.35938 0.23584,0.49414 0.14225,0.13477 0.31071,0.20215 0.50537,0.20215 0.20963,-0.01497 0.38183,-0.09359 0.51663,-0.23584 0.1347,-0.14225 0.2021,-0.31071 0.2021,-0.50537 0,-0.01497 0,-0.02246 0,-0.02246 0,0 0,-0.00749 0,-0.02246 l -0.1572,-2.85254 2.583,-1.3252 c 0.0449,0.01498 0.0898,0.02621 0.1348,0.0337 0.0449,0.00748 0.0898,0.01123 0.1347,0.01123 0.2845,0 0.5241,-0.09733 0.7188,-0.292 0.1946,-0.19466 0.292,-0.43424 0.292,-0.71875 v -3.03224 l 1.3476,0.7188 0.6739,2.47067 c 0.0299,0.13477 0.101,0.24333 0.2133,0.32568 0.1123,0.08236 0.2359,0.12354 0.3706,0.12354 0.015,0 0.03,0 0.045,0 0.0149,0 0.0299,0 0.0449,0 0.015,0 0.0262,0 0.0337,0 0.0075,0 0.0187,0 0.0337,0 0.1347,-0.04492 0.2433,-0.11979 0.3257,-0.22461 0.0823,-0.10482 0.1235,-0.22461 0.1235,-0.35938 0,-0.02994 0,-0.05989 0,-0.08984 0,-0.02995 -0.0075,-0.05241 -0.0225,-0.06738 l -0.7187,-2.71778 c -0.03,-0.0749 -0.0674,-0.146 -0.1123,-0.2134 -0.0449,-0.0674 -0.1048,-0.116 -0.1797,-0.146 l -2.2461,-1.2578 c -0.0749,-0.1647 -0.1947,-0.2995 -0.3594,-0.4043 -0.1647,-0.1048 -0.3444,-0.1572 -0.539,-0.1572 0,0 -0.0075,0 -0.0225,0 m -4.15528,4.96386 c 0.04492,0 0.0861,-0.00374 0.12353,-0.01123 0.03744,-0.00749 0.07113,-0.01872 0.10108,-0.03369 l 2.42577,-0.96582 c 0.1198,-0.04492 0.2134,-0.11979 0.2808,-0.22461 0.0674,-0.10482 0.101,-0.21711 0.101,-0.33691 0,-0.0449 -0.0037,-0.0861 -0.0112,-0.1235 -0.0075,-0.0375 -0.0187,-0.0712 -0.0337,-0.1011 -0.0449,-0.1198 -0.116,-0.2134 -0.2134,-0.2808 -0.0973,-0.0674 -0.2133,-0.1011 -0.3481,-0.1011 -0.0449,0 -0.0861,0.0038 -0.1235,0.0113 -0.0375,0.0075 -0.0712,0.0187 -0.1011,0.0337 l -2.42579,0.94333 c -0.11979,0.04492 -0.21712,0.11979 -0.29199,0.22461 -0.07487,0.10482 -0.11231,0.22461 -0.11231,0.35938 0,0.16471 0.0599,0.30696 0.17969,0.42675 0.11979,0.1198 0.26204,0.17969 0.42676,0.17969 0,0 0.00374,0 0.01123,0 0.00749,0 0.01123,0 0.01123,0 m 4.35738,1.52734 c -0.1796,0.01498 -0.3369,0.09359 -0.4716,0.23584 -0.1348,0.14226 -0.2022,0.31071 -0.2022,0.50538 0,0.01497 0,0.02994 0,0.04492 0,0.01497 0,0.02246 0,0.02246 l 0.5166,4.73926 c 0.015,0.19466 0.0936,0.35563 0.2359,0.48291 0.1422,0.127275 0.3107,0.190914 0.5053,0.190914 h 0.0899 c 0.1797,-0.014974 0.3369,-0.093587 0.4716,-0.235844 0.1348,-0.14225 0.2022,-0.31071 0.2022,-0.50537 0,-0.01497 0,-0.0262 0,-0.03369 0,-0.00748 0,-0.01872 0,-0.03369 L 14.2627,-6.40137 C 14.2477,-6.59603 14.1691,-6.757 14.0269,-6.88428 13.8846,-7.01156 13.7161,-7.0752 13.5215,-7.0752 c -0.015,0 -0.03,0 -0.0449,0 -0.015,0 -0.03,0 -0.045,0 m 1.6846,8.80469 v -1.8193338 h -3.751 V -1.88672 H 7.61426 V -3.68359 H 3.09961 v 0.89843 h 3.75098 v 1.796879 H 10.6016 V 0.808594 H 14.375 V 2.62793 h 4.5146 V 1.72949 h -3.7734"
         id="path26"
         inkscape:connector-curvature="0"
         style="vector-effect:none;fill-rule:nonzero" />
    </g>
    <g
       transform="matrix(1.33333,0,0,1.33333,16,16)"
       font-size="8.25"
       font-weight="400"
       font-style="normal"
       id="g30"
       style="font-style:normal;font-weight:400;font-size:8.25px;font-family:'MS Shell Dlg 2';fill:none;stroke:#000000;stroke-width:1;stroke-linecap:square;stroke-linejoin:bevel;stroke-opacity:1" />
    <g
       transform="translate(16,16)"
       font-size="8.25"
       font-weight="400"
       font-style="normal"
       id="g32"
       style="font-style:normal;font-weight:400;font-size:8.25px;font-family:'MS Shell Dlg 2';fill:none;stroke:#000000;stroke-width:1;stroke-linecap:square;stroke-linejoin:bevel;stroke-opacity:1" />
    <g
       font-size="8.25"
       font-weight="400"
       font-style="normal"
       id="g34"
       style="font-style:normal;font-weight:400;font-size:8.25px;font-family:'MS Shell Dlg 2';fill:none;stroke:#000000;stroke-width:1;stroke-linecap:square;stroke-linejoin:bevel;stroke-opacity:1" />
    <g
       transform="translate(16,16)"
       font-size="8.25"
       font-weight="400"
       font-style="normal"
       id="g36"
       style="font-style:normal;font-weight:400;font-size:8.25px;font-family:'MS Shell Dlg 2';fill:none;stroke:#000000;stroke-width:1;stroke-linecap:square;stroke-linejoin:bevel;stroke-opacity:1" />
    <g
       transform="matrix(1.33333,0,0,1.33333,16,16)"
       font-size="8.25"
       font-weight="400"
       font-style="normal"
       id="g38"
       style="font-style:normal;font-weight:400;font-size:8.25px;font-family:'MS Shell Dlg 2';fill:none;stroke:#000000;stroke-width:1;stroke-linecap:square;stroke-linejoin:bevel;stroke-opacity:1" />
    <g
       transform="translate(1,25.375)"
       font-size="22.6771"
       font-weight="400"
       font-style="normal"
       id="g42"
       style="font-style:normal;font-weight:400;font-size:22.67709923px;font-family:icomoon;fill:#000000;fill-opacity:1;stroke:none">
      <path
         d="m 26.4258,-22.2363 c 0.3906,0 0.7275,0.1416 1.0107,0.4248 0.2832,0.2832 0.4248,0.6201 0.4248,1.0107 V 2.05078 c 0,0.39063 -0.1416,0.72754 -0.4248,1.01074 -0.2832,0.28321 -0.6201,0.42481 -1.0107,0.42481 H 3.57422 C 3.18359,3.48633 2.84668,3.34473 2.56348,3.06152 2.28027,2.77832 2.13867,2.44141 2.13867,2.05078 V -20.8008 c 0,-0.3906 0.1416,-0.7275 0.42481,-1.0107 0.2832,-0.2832 0.62011,-0.4248 1.01074,-0.4248 H 26.4258 m 0,-0.7032 H 3.57422 c -0.58594,0 -1.08887,0.21 -1.50879,0.6299 -0.41992,0.42 -0.62988,0.9229 -0.62988,1.5088 V 2.05078 c 0,0.58594 0.20996,1.08887 0.62988,1.50879 0.41992,0.41992 0.92285,0.62988 1.50879,0.62988 H 26.4258 c 0.5859,0 1.0888,-0.20996 1.5088,-0.62988 0.4199,-0.41992 0.6299,-0.92285 0.6299,-1.50879 V -20.8008 c 0,-0.5859 -0.21,-1.0888 -0.6299,-1.5088 -0.42,-0.4199 -0.9229,-0.6299 -1.5088,-0.6299 m 1.4355,-0.7324 c 0.3907,0 0.7276,0.1416 1.0108,0.4248 0.2832,0.2832 0.4248,0.6201 0.4248,1.0108 V 3.48633 c 0,0.39062 -0.1416,0.72754 -0.4248,1.01074 -0.2832,0.2832 -0.6201,0.42481 -1.0108,0.42481 H 2.13867 C 1.74805,4.92188 1.41113,4.78027 1.12793,4.49707 0.844727,4.21387 0.703125,3.87695 0.703125,3.48633 V -22.2363 c 0,-0.3907 0.141602,-0.7276 0.424805,-1.0108 0.2832,-0.2832 0.62012,-0.4248 1.01074,-0.4248 H 27.8613 m 0,-0.7031 H 2.13867 c -0.58594,0 -1.08887,0.21 -1.508787,0.6299 C 0.209961,-23.3252 0,-22.8223 0,-22.2363 V 3.48633 C 0,4.07227 0.209961,4.5752 0.629883,4.99512 1.0498,5.41504 1.55273,5.625 2.13867,5.625 H 27.8613 c 0.586,0 1.0889,-0.20996 1.5088,-0.62988 C 29.79,4.5752 30,4.07227 30,3.48633 V -22.2363 c 0,-0.586 -0.21,-1.0889 -0.6299,-1.5088 -0.4199,-0.4199 -0.9228,-0.6299 -1.5088,-0.6299"
         id="path40"
         inkscape:connector-curvature="0"
         style="vector-effect:none;fill-rule:nonzero" />
    </g>
    <g
       transform="matrix(1.33333,0,0,1.33333,16,16)"
       font-size="8.25"
       font-weight="400"
       font-style="normal"
       id="g44"
       style="font-style:normal;font-weight:400;font-size:8.25px;font-family:'MS Shell Dlg 2';fill:none;stroke:#000000;stroke-width:1;stroke-linecap:square;stroke-linejoin:bevel;stroke-opacity:1" />
    <g
       transform="translate(16,16)"
       font-size="8.25"
       font-weight="400"
       font-style="normal"
       id="g46"
       style="font-style:normal;font-weight:400;font-size:8.25px;font-family:'MS Shell Dlg 2';fill:none;stroke:#000000;stroke-width:1;stroke-linecap:square;stroke-linejoin:bevel;stroke-opacity:1" />
    <g
       font-size="8.25"
       font-weight="400"
       font-style="normal"
       id="g48"
       style="font-style:normal;font-weight:400;font-size:8.25px;font-family:'MS Shell Dlg 2';fill:none;stroke:#000000;stroke-width:1;stroke-linecap:square;stroke-linejoin:bevel;stroke-opacity:1" />
  </g>
</svg>
