<svg xmlns="http://www.w3.org/2000/svg" width="20" height="20" version="1.2">
    <g font-weight="400" style="fill:none;fill-rule:evenodd;stroke:#000;stroke-width:1;stroke-linecap:square;stroke-linejoin:bevel">
        <g style="font-style:normal;font-weight:400;font-size:19.84250069px;font-family:icomoon;fill:#fff;fill-opacity:1;stroke:none">
            <path d="M2.285-21.125h21.43a2.2 2.2 0 0 1 1.612.673A2.2 2.2 0 0 1 26-18.84V2.59a2.2 2.2 0 0 1-.673 1.612 2.2 2.2 0 0 1-1.612.673H2.285a2.2 2.2 0 0 1-1.612-.673A2.2 2.2 0 0 1 0 2.59v-21.43a2.2 2.2 0 0 1 .673-1.612 2.2 2.2 0 0 1 1.612-.673" font-size="19.843" style="vector-effect:none;fill-rule:nonzero" transform="matrix(.6923 0 0 .6923 1 15.625)"/>
        </g>
        <g style="font-style:normal;font-weight:400;font-size:17.00779915px;font-family:icomoon;fill:#000;fill-opacity:1;stroke:none">
            <path d="M20.979-18.014a1.3 1.3 0 0 1 .954.393 1.3 1.3 0 0 1 .393.955V2.291a1.3 1.3 0 0 1-.393.955 1.3 1.3 0 0 1-.955.393H2.021a1.3 1.3 0 0 1-.954-.393 1.3 1.3 0 0 1-.393-.955v-18.957a1.3 1.3 0 0 1 .393-.955 1.3 1.3 0 0 1 .954-.393h18.957m0-.674H2.021c-.554 0-1.029.199-1.426.596A1.946 1.946 0 0 0 0-16.666V2.291c0 .554.198 1.03.595 1.426.397.397.872.595 1.426.595h18.957c.555 0 1.03-.198 1.427-.595.397-.397.595-.872.595-1.426v-18.957c0-.554-.198-1.03-.595-1.426a1.946 1.946 0 0 0-1.426-.596m-2.381 11.5v-.022c0-.853-.146-1.67-.438-2.448a7.213 7.213 0 0 0-1.202-2.09v.023l.966-.965-.966-.966-.966.966a7.215 7.215 0 0 0-2.055-1.18 6.887 6.887 0 0 0-2.46-.438c-.853 0-1.67.146-2.448.438a7.21 7.21 0 0 0-2.089 1.202l.023-.022-.988-.966-.966.966.988 1.01A7.016 7.016 0 0 0 4.83-9.625a6.984 6.984 0 0 0-.427 2.438A7.05 7.05 0 0 0 6.02-2.672l-.022-.023-.988 1.01.966.966.988-1.01A7.25 7.25 0 0 0 9.04-.528 6.887 6.887 0 0 0 11.5-.09a7.05 7.05 0 0 0 4.515-1.617l-.023.022.966.966.966-.966-.966-.965a7.25 7.25 0 0 0 1.202-2.078 6.824 6.824 0 0 0 .438-2.437v-.022m-12.848 0c0-.794.15-1.543.45-2.247a5.843 5.843 0 0 1 3.054-3.054c.704-.3 1.452-.45 2.246-.45s1.542.15 2.246.45a5.844 5.844 0 0 1 3.055 3.054c.3.704.449 1.453.449 2.247 0 .793-.15 1.542-.45 2.246a5.844 5.844 0 0 1-3.054 3.054c-.704.3-1.452.45-2.246.45s-1.542-.15-2.246-.45A5.843 5.843 0 0 1 6.199-4.94a5.676 5.676 0 0 1-.449-2.247" font-size="17.008" style="vector-effect:none;fill-rule:nonzero" transform="matrix(.6923 0 0 .6923 2.038 14.976)"/>
        </g>
        <g style="font-style:normal;font-weight:400;font-size:19.84250069px;font-family:icomoon;fill:#000;fill-opacity:1;stroke:none">
            <path d="M23.943-20.44c.373 0 .694.136.965.407.271.27.406.592.406.965V2.818c0 .373-.135.694-.406.965-.27.271-.592.406-.965.406H2.057c-.373 0-.694-.135-.965-.406a1.318 1.318 0 0 1-.406-.965v-21.886c0-.373.135-.694.406-.965.27-.271.592-.407.965-.407h21.886m0-.685H2.057c-.576 0-1.063.199-1.46.597A1.986 1.986 0 0 0 0-19.068V2.818c0 .576.199 1.063.597 1.46.397.398.884.597 1.46.597h21.886c.576 0 1.063-.199 1.46-.597.398-.397.597-.884.597-1.46v-21.886c0-.576-.199-1.063-.597-1.46a1.986 1.986 0 0 0-1.46-.597" font-size="19.843" style="vector-effect:none;fill-rule:nonzero" transform="matrix(.6923 0 0 .6923 1 15.625)"/>
        </g>
    </g>
</svg>
