<svg xmlns="http://www.w3.org/2000/svg" width="20" height="20" version="1.2">
    <g font-weight="400" style="fill:none;fill-rule:evenodd;stroke:#000;stroke-width:1;stroke-linecap:square;stroke-linejoin:bevel">
        <g style="font-style:normal;font-weight:400;font-size:22.67709923px;font-family:icomoon;fill:#fff;fill-opacity:1;stroke:none">
            <path d="M2.637-24.375h24.726c.723 0 1.343.259 1.86.776.518.518.777 1.138.777 1.86V2.989c0 .723-.259 1.343-.776 1.86a2.538 2.538 0 0 1-1.86.777H2.636a2.538 2.538 0 0 1-1.86-.776A2.538 2.538 0 0 1 0 2.989v-24.727c0-.723.259-1.343.776-1.86a2.538 2.538 0 0 1 1.86-.777" font-size="22.677" style="vector-effect:none;fill-rule:nonzero" transform="matrix(.66667 0 0 .66667 0 16.25)"/>
        </g>
        <g style="font-style:normal;font-weight:400;font-size:17.00779915px;font-family:icomoon;fill:#000;fill-opacity:1;stroke:none">
            <path d="M20.979-18.014a1.3 1.3 0 0 1 .954.393 1.3 1.3 0 0 1 .393.955V2.291a1.3 1.3 0 0 1-.393.955 1.3 1.3 0 0 1-.955.393H2.021a1.3 1.3 0 0 1-.954-.393 1.3 1.3 0 0 1-.393-.955v-18.957a1.3 1.3 0 0 1 .393-.955 1.3 1.3 0 0 1 .954-.393h18.957m0-.674H2.021c-.554 0-1.029.199-1.426.596A1.946 1.946 0 0 0 0-16.666V2.291c0 .554.198 1.03.595 1.426.397.397.872.595 1.426.595h18.957c.555 0 1.03-.198 1.427-.595.397-.397.595-.872.595-1.426v-18.957c0-.554-.198-1.03-.595-1.426a1.946 1.946 0 0 0-1.426-.596M11.5-16.666c-1.303 0-2.53.247-3.684.741a9.82 9.82 0 0 0-3.01 2.044 9.821 9.821 0 0 0-2.043 3.01 9.252 9.252 0 0 0-.742 3.684c0 1.302.248 2.53.742 3.683a9.82 9.82 0 0 0 2.044 3.01 9.82 9.82 0 0 0 3.01 2.044 9.252 9.252 0 0 0 3.683.741c1.303 0 2.53-.247 3.684-.741a9.821 9.821 0 0 0 3.01-2.044 9.82 9.82 0 0 0 2.043-3.01 9.253 9.253 0 0 0 .742-3.683c0-1.303-.248-2.531-.742-3.684a9.821 9.821 0 0 0-2.044-3.01 9.821 9.821 0 0 0-3.01-2.044 9.253 9.253 0 0 0-3.683-.741m0 1.37a7.89 7.89 0 0 1 2.156.292 8.144 8.144 0 0 1 3.571 2.089c.495.48.921 1.026 1.28 1.64l.023.022H4.47a9.108 9.108 0 0 1 1.28-1.662 8.008 8.008 0 0 1 1.65-1.27 8.414 8.414 0 0 1 1.944-.819 7.89 7.89 0 0 1 2.156-.292m8.108 8.108c0 .48-.04.951-.123 1.416a8.89 8.89 0 0 1-.348 1.347v-.067H3.863a6.939 6.939 0 0 1-.348-1.28 8.084 8.084 0 0 1 0-2.83c.082-.465.199-.914.348-1.348v.067h15.274c.15.39.266.816.348 1.28.082.465.123.936.123 1.416M11.5.92A7.891 7.891 0 0 1 9.344.629 8.145 8.145 0 0 1 5.773-1.46a7.66 7.66 0 0 1-1.28-1.64l-.023-.022h14.06a9.113 9.113 0 0 1-1.28 1.662A8.007 8.007 0 0 1 15.6-.19a8.412 8.412 0 0 1-1.944.819A7.892 7.892 0 0 1 11.5.92" font-size="17.008" style="vector-effect:none;fill-rule:nonzero" transform="matrix(.66667 0 0 .66667 2.333 14.792)"/>
        </g>
        <g style="font-style:normal;font-weight:400;font-size:22.67709923px;font-family:icomoon;fill:#000;fill-opacity:1;stroke:none">
            <path d="M26.426-22.236c.39 0 .727.141 1.01.425.284.283.425.62.425 1.01V2.051c0 .39-.141.727-.425 1.01a1.38 1.38 0 0 1-1.01.425H3.574a1.38 1.38 0 0 1-1.01-.424 1.38 1.38 0 0 1-.425-1.011v-22.852c0-.39.141-.727.424-1.01a1.38 1.38 0 0 1 1.011-.425h22.852m0-.703H3.574c-.586 0-1.089.21-1.509.63-.42.42-.63.922-.63 1.508V2.051c0 .586.21 1.089.63 1.509.42.42.923.63 1.51.63h22.85c.587 0 1.09-.21 1.51-.63.42-.42.63-.923.63-1.51V-20.8c0-.587-.21-1.09-.63-1.51-.42-.42-.923-.63-1.51-.63m1.436-.732c.391 0 .728.142 1.011.425.283.283.425.62.425 1.01V3.487c0 .39-.142.728-.425 1.011a1.38 1.38 0 0 1-1.01.425H2.138a1.38 1.38 0 0 1-1.011-.425 1.38 1.38 0 0 1-.425-1.01v-25.723c0-.391.142-.728.425-1.011a1.38 1.38 0 0 1 1.01-.425h25.723m0-.703H2.14c-.586 0-1.09.21-1.51.63-.419.42-.629.923-.629 1.509V3.486c0 .586.21 1.09.63 1.51.42.419.923.629 1.509.629H27.86c.586 0 1.09-.21 1.51-.63.419-.42.629-.923.629-1.509v-25.722c0-.586-.21-1.09-.63-1.51-.42-.419-.923-.629-1.509-.629" font-size="22.677" style="vector-effect:none;fill-rule:nonzero" transform="matrix(.66667 0 0 .66667 0 16.25)"/>
        </g>
    </g>
</svg>
