<svg xmlns="http://www.w3.org/2000/svg" width="20" height="20" version="1.2">
    <g font-weight="400" style="fill:none;fill-rule:evenodd;stroke:#000;stroke-width:1;stroke-linecap:square;stroke-linejoin:bevel">
        <g style="font-style:normal;font-weight:400;font-size:22.67709923px;font-family:icomoon;fill:#ff0;fill-opacity:1;stroke:none">
            <path d="M2.637-24.375h24.726c.723 0 1.343.259 1.86.776.518.518.777 1.138.777 1.86V2.989c0 .723-.259 1.343-.776 1.86a2.538 2.538 0 0 1-1.86.777H2.636a2.538 2.538 0 0 1-1.86-.776A2.538 2.538 0 0 1 0 2.989v-24.727c0-.723.259-1.343.776-1.86a2.538 2.538 0 0 1 1.86-.777" font-size="22.677" style="vector-effect:none;fill-rule:nonzero" transform="matrix(.66667 0 0 .66667 0 16.25)"/>
        </g>
        <g style="font-style:normal;font-weight:400;font-size:17.00779915px;font-family:icomoon;fill:#000;fill-opacity:1;stroke:none">
            <path d="M20.979-18.014a1.3 1.3 0 0 1 .954.393 1.3 1.3 0 0 1 .393.955V2.291a1.3 1.3 0 0 1-.393.955 1.3 1.3 0 0 1-.955.393H2.021a1.3 1.3 0 0 1-.954-.393 1.3 1.3 0 0 1-.393-.955v-18.957a1.3 1.3 0 0 1 .393-.955 1.3 1.3 0 0 1 .954-.393h18.957m0-.674H2.021c-.554 0-1.029.199-1.426.596A1.946 1.946 0 0 0 0-16.666V2.291c0 .554.198 1.03.595 1.426.397.397.872.595 1.426.595h18.957c.555 0 1.03-.198 1.427-.595.397-.397.595-.872.595-1.426v-18.957c0-.554-.198-1.03-.595-1.426a1.946 1.946 0 0 0-1.426-.596M11.5-16.666c-1.303 0-2.53.247-3.684.741a9.82 9.82 0 0 0-3.01 2.044 9.821 9.821 0 0 0-2.043 3.01 9.252 9.252 0 0 0-.742 3.684c0 1.302.248 2.53.742 3.683a9.82 9.82 0 0 0 2.044 3.01 9.82 9.82 0 0 0 3.01 2.044 9.252 9.252 0 0 0 3.683.741c1.303 0 2.53-.247 3.684-.741a9.821 9.821 0 0 0 3.01-2.044 9.82 9.82 0 0 0 2.043-3.01 9.253 9.253 0 0 0 .742-3.683c0-1.303-.248-2.531-.742-3.684a9.821 9.821 0 0 0-2.044-3.01 9.821 9.821 0 0 0-3.01-2.044 9.253 9.253 0 0 0-3.683-.741m8.086 8.737h-3.077a4.656 4.656 0 0 0-.36-1.302 4.848 4.848 0 0 0-.696-1.123h.023l2.156-2.134a7.95 7.95 0 0 1 1.314 2.077c.337.772.55 1.591.64 2.46v.022m-5.099-3.369a4.677 4.677 0 0 0-2.358-.943h-.023v-3.055c.869.06 1.689.25 2.46.573a8.553 8.553 0 0 1 2.1 1.246l-2.179 2.18m-3.75-.9c-.435.06-.85.177-1.247.349-.397.172-.76.385-1.09.64h.023l-2.156-2.156a7.788 7.788 0 0 1 4.447-1.887l.022-.022v3.077m-3.301 1.954c-.24.314-.446.666-.618 1.055-.172.39-.288.802-.348 1.236v.022H3.414c.09-.868.296-1.68.618-2.437A7.927 7.927 0 0 1 5.3-12.42l2.134 2.179m-.966 3.661c.06.464.176.895.348 1.291.172.397.385.768.64 1.112L7.435-4.2 5.233-2.021a8.357 8.357 0 0 1-1.235-2.09 8.218 8.218 0 0 1-.584-2.425v-.045H6.47M8.333-3.19c.344.27.715.494 1.112.673.397.18.82.3 1.269.36h.022V.92a8.346 8.346 0 0 1-2.47-.64 7.596 7.596 0 0 1-2.09-1.337l.023.023L8.333-3.19m3.773 1.055c.465-.06.906-.176 1.326-.348.419-.172.8-.393 1.145-.663l-.022.023 2.178 2.156A7.972 7.972 0 0 1 14.611.337a7.758 7.758 0 0 1-2.482.584h-.023v-3.055M11.5-3.459c-1.033 0-1.913-.363-2.64-1.09-.725-.726-1.089-1.605-1.089-2.638 0-1.034.364-1.913 1.09-2.64.726-.726 1.606-1.089 2.639-1.089 1.033 0 1.913.363 2.64 1.09.725.726 1.089 1.605 1.089 2.639 0 1.033-.364 1.912-1.09 2.639-.726.726-1.606 1.089-2.639 1.089m6.177 1.505L15.565-4.11c.255-.345.472-.723.652-1.135.18-.411.292-.842.337-1.291l.022-.045h3.032a7.488 7.488 0 0 1-.606 2.527 8.45 8.45 0 0 1-1.325 2.122v-.022" font-size="17.008" style="vector-effect:none;fill-rule:nonzero" transform="matrix(.66667 0 0 .66667 2.333 14.792)"/>
        </g>
        <g style="font-style:normal;font-weight:400;font-size:22.67709923px;font-family:icomoon;fill:#000;fill-opacity:1;stroke:none">
            <path d="M26.426-22.236c.39 0 .727.141 1.01.425.284.283.425.62.425 1.01V2.051c0 .39-.141.727-.425 1.01a1.38 1.38 0 0 1-1.01.425H3.574a1.38 1.38 0 0 1-1.01-.424 1.38 1.38 0 0 1-.425-1.011v-22.852c0-.39.141-.727.424-1.01a1.38 1.38 0 0 1 1.011-.425h22.852m0-.703H3.574c-.586 0-1.089.21-1.509.63-.42.42-.63.922-.63 1.508V2.051c0 .586.21 1.089.63 1.509.42.42.923.63 1.51.63h22.85c.587 0 1.09-.21 1.51-.63.42-.42.63-.923.63-1.51V-20.8c0-.587-.21-1.09-.63-1.51-.42-.42-.923-.63-1.51-.63m1.436-.732c.391 0 .728.142 1.011.425.283.283.425.62.425 1.01V3.487c0 .39-.142.728-.425 1.011a1.38 1.38 0 0 1-1.01.425H2.138a1.38 1.38 0 0 1-1.011-.425 1.38 1.38 0 0 1-.425-1.01v-25.723c0-.391.142-.728.425-1.011a1.38 1.38 0 0 1 1.01-.425h25.723m0-.703H2.14c-.586 0-1.09.21-1.51.63-.419.42-.629.923-.629 1.509V3.486c0 .586.21 1.09.63 1.51.42.419.923.629 1.509.629H27.86c.586 0 1.09-.21 1.51-.63.419-.42.629-.923.629-1.509v-25.722c0-.586-.21-1.09-.63-1.51-.42-.419-.923-.629-1.509-.629" font-size="22.677" style="vector-effect:none;fill-rule:nonzero" transform="matrix(.66667 0 0 .66667 0 16.25)"/>
        </g>
    </g>
</svg>
