<svg xmlns="http://www.w3.org/2000/svg" width="20" height="20" version="1.2">
    <g font-weight="400" style="fill:none;fill-rule:evenodd;stroke:#000;stroke-width:1;stroke-linecap:square;stroke-linejoin:bevel">
        <g style="font-style:normal;font-weight:400;font-size:19.84250069px;font-family:icomoon;fill:#ff0;fill-opacity:1;stroke:none">
            <path d="M2.285-21.125h21.43a2.2 2.2 0 0 1 1.612.673A2.2 2.2 0 0 1 26-18.84V2.59a2.2 2.2 0 0 1-.673 1.612 2.2 2.2 0 0 1-1.612.673H2.285a2.2 2.2 0 0 1-1.612-.673A2.2 2.2 0 0 1 0 2.59v-21.43a2.2 2.2 0 0 1 .673-1.612 2.2 2.2 0 0 1 1.612-.673" font-size="19.843" style="vector-effect:none;fill-rule:nonzero" transform="matrix(.6923 0 0 .6923 1 15.625)"/>
        </g>
        <g style="font-style:normal;font-weight:400;font-size:17.00779915px;font-family:icomoon;fill:#000;fill-opacity:1;stroke:none">
            <path d="M20.979-18.014a1.3 1.3 0 0 1 .954.393 1.3 1.3 0 0 1 .393.955V2.291a1.3 1.3 0 0 1-.393.955 1.3 1.3 0 0 1-.955.393H2.021a1.3 1.3 0 0 1-.954-.393 1.3 1.3 0 0 1-.393-.955v-18.957a1.3 1.3 0 0 1 .393-.955 1.3 1.3 0 0 1 .954-.393h18.957m0-.674H2.021c-.554 0-1.029.199-1.426.596A1.946 1.946 0 0 0 0-16.666V2.291c0 .554.198 1.03.595 1.426.397.397.872.595 1.426.595h18.957c.555 0 1.03-.198 1.427-.595.397-.397.595-.872.595-1.426v-18.957c0-.554-.198-1.03-.595-1.426a1.946 1.946 0 0 0-1.426-.596M11.5-16.666c-1.303 0-2.53.247-3.684.741a9.82 9.82 0 0 0-3.01 2.044 9.821 9.821 0 0 0-2.043 3.01 9.252 9.252 0 0 0-.742 3.684c0 1.302.248 2.53.742 3.683a9.82 9.82 0 0 0 2.044 3.01 9.82 9.82 0 0 0 3.01 2.044 9.252 9.252 0 0 0 3.683.741c1.303 0 2.53-.247 3.684-.741a9.821 9.821 0 0 0 3.01-2.044 9.82 9.82 0 0 0 2.043-3.01 9.253 9.253 0 0 0 .742-3.683c0-1.303-.248-2.531-.742-3.684a9.821 9.821 0 0 0-2.044-3.01 9.821 9.821 0 0 0-3.01-2.044 9.253 9.253 0 0 0-3.683-.741m8.086 8.737h-3.077a4.656 4.656 0 0 0-.36-1.302 4.848 4.848 0 0 0-.696-1.123h.023l2.156-2.134a7.95 7.95 0 0 1 1.314 2.077c.337.772.55 1.591.64 2.46v.022m-5.099-3.369a4.677 4.677 0 0 0-2.358-.943h-.023v-3.055c.869.06 1.689.25 2.46.573a8.553 8.553 0 0 1 2.1 1.246l-2.179 2.18m-3.75-.9c-.435.06-.85.177-1.247.349-.397.172-.76.385-1.09.64h.023l-2.156-2.156a7.788 7.788 0 0 1 4.447-1.887l.022-.022v3.077m-3.301 1.954c-.24.314-.446.666-.618 1.055-.172.39-.288.802-.348 1.236v.022H3.414c.09-.868.296-1.68.618-2.437A7.927 7.927 0 0 1 5.3-12.42l2.134 2.179m-.966 3.661c.06.464.176.895.348 1.291.172.397.385.768.64 1.112L7.435-4.2 5.233-2.021a8.357 8.357 0 0 1-1.235-2.09 8.218 8.218 0 0 1-.584-2.425v-.045H6.47M8.333-3.19c.344.27.715.494 1.112.673.397.18.82.3 1.269.36h.022V.92a8.346 8.346 0 0 1-2.47-.64 7.596 7.596 0 0 1-2.09-1.337l.023.023L8.333-3.19m3.773 1.055c.465-.06.906-.176 1.326-.348.419-.172.8-.393 1.145-.663l-.022.023 2.178 2.156A7.972 7.972 0 0 1 14.611.337a7.758 7.758 0 0 1-2.482.584h-.023v-3.055M11.5-3.459c-1.033 0-1.913-.363-2.64-1.09-.725-.726-1.089-1.605-1.089-2.638 0-1.034.364-1.913 1.09-2.64.726-.726 1.606-1.089 2.639-1.089 1.033 0 1.913.363 2.64 1.09.725.726 1.089 1.605 1.089 2.639 0 1.033-.364 1.912-1.09 2.639-.726.726-1.606 1.089-2.639 1.089m6.177 1.505L15.565-4.11c.255-.345.472-.723.652-1.135.18-.411.292-.842.337-1.291l.022-.045h3.032a7.488 7.488 0 0 1-.606 2.527 8.45 8.45 0 0 1-1.325 2.122v-.022" font-size="17.008" style="vector-effect:none;fill-rule:nonzero" transform="matrix(.6923 0 0 .6923 2.038 14.976)"/>
        </g>
        <g style="font-style:normal;font-weight:400;font-size:19.84250069px;font-family:icomoon;fill:#000;fill-opacity:1;stroke:none">
            <path d="M23.943-20.44c.373 0 .694.136.965.407.271.27.406.592.406.965V2.818c0 .373-.135.694-.406.965-.27.271-.592.406-.965.406H2.057c-.373 0-.694-.135-.965-.406a1.318 1.318 0 0 1-.406-.965v-21.886c0-.373.135-.694.406-.965.27-.271.592-.407.965-.407h21.886m0-.685H2.057c-.576 0-1.063.199-1.46.597A1.986 1.986 0 0 0 0-19.068V2.818c0 .576.199 1.063.597 1.46.397.398.884.597 1.46.597h21.886c.576 0 1.063-.199 1.46-.597.398-.397.597-.884.597-1.46v-21.886c0-.576-.199-1.063-.597-1.46a1.986 1.986 0 0 0-1.46-.597" font-size="19.843" style="vector-effect:none;fill-rule:nonzero" transform="matrix(.6923 0 0 .6923 1 15.625)"/>
        </g>
    </g>
</svg>
