<?xml version="1.0" encoding="UTF-8" standalone="no"?>
<svg
   xmlns:dc="http://purl.org/dc/elements/1.1/"
   xmlns:cc="http://creativecommons.org/ns#"
   xmlns:rdf="http://www.w3.org/1999/02/22-rdf-syntax-ns#"
   xmlns:svg="http://www.w3.org/2000/svg"
   xmlns="http://www.w3.org/2000/svg"
   xmlns:sodipodi="http://sodipodi.sourceforge.net/DTD/sodipodi-0.dtd"
   xmlns:inkscape="http://www.inkscape.org/namespaces/inkscape"
   width="20"
   height="20"
   viewBox="0 0 20 20"
   version="1.2"
   id="svg38"
   sodipodi:docname="60204180531.svg"
   inkscape:version="0.92.4 (5da689c313, 2019-01-14)">
  <metadata
     id="metadata42">
    <rdf:RDF>
      <cc:Work
         rdf:about="">
        <dc:format>image/svg+xml</dc:format>
        <dc:type
           rdf:resource="http://purl.org/dc/dcmitype/StillImage" />
      </cc:Work>
    </rdf:RDF>
  </metadata>
  <sodipodi:namedview
     pagecolor="#ffffff"
     bordercolor="#666666"
     borderopacity="1"
     objecttolerance="10"
     gridtolerance="10"
     guidetolerance="10"
     inkscape:pageopacity="0"
     inkscape:pageshadow="2"
     inkscape:window-width="751"
     inkscape:window-height="480"
     id="namedview40"
     showgrid="false"
     inkscape:zoom="11.8"
     inkscape:cx="10"
     inkscape:cy="10"
     inkscape:window-x="0"
     inkscape:window-y="0"
     inkscape:window-maximized="0"
     inkscape:current-layer="svg38" />
  <title
     id="title2">Qt SVG Document</title>
  <desc
     id="desc4">Generated with Qt</desc>
  <defs
     id="defs6" />
  <g
     id="g36"
     transform="matrix(0.65217391,0,0,0.65217391,-0.43478256,-0.43478256)"
     style="fill:none;fill-rule:evenodd;stroke:#000000;stroke-width:1;stroke-linecap:square;stroke-linejoin:bevel">
    <g
       transform="translate(16,16)"
       font-size="8.25"
       font-weight="400"
       font-style="normal"
       id="g8"
       style="font-style:normal;font-weight:400;font-size:8.25px;font-family:'MS Shell Dlg 2';fill:none;stroke:#000000;stroke-width:1;stroke-linecap:square;stroke-linejoin:bevel;stroke-opacity:1" />
    <g
       transform="matrix(1.33333,0,0,1.33333,16,16)"
       font-size="8.25"
       font-weight="400"
       font-style="normal"
       id="g10"
       style="font-style:normal;font-weight:400;font-size:8.25px;font-family:'MS Shell Dlg 2';fill:none;stroke:#000000;stroke-width:1;stroke-linecap:square;stroke-linejoin:bevel;stroke-opacity:1" />
    <g
       transform="translate(4.5,23.1875)"
       font-size="17.0078"
       font-weight="400"
       font-style="normal"
       id="g14"
       style="font-style:normal;font-weight:400;font-size:17.00779915px;font-family:icomoon;fill:#ffffff;fill-opacity:1;stroke:none">
      <path
         d="M 2.02148,-18.6875 H 20.9785 c 0.5541,0 1.0295,0.1984 1.4263,0.5952 C 22.8016,-17.6955 23,-17.2201 23,-16.666 V 2.29102 C 23,2.84505 22.8016,3.32048 22.4048,3.71729 22.008,4.1141 21.5326,4.3125 20.9785,4.3125 H 2.02148 C 1.46745,4.3125 0.992025,4.1141 0.595215,3.71729 0.198405,3.32048 0,2.84505 0,2.29102 V -16.666 c 0,-0.5541 0.198405,-1.0295 0.595215,-1.4263 0.39681,-0.3968 0.872235,-0.5952 1.426265,-0.5952"
         id="path12"
         inkscape:connector-curvature="0"
         style="vector-effect:none;fill-rule:nonzero" />
    </g>
    <g
       transform="matrix(1.33333,0,0,1.33333,16,16)"
       font-size="8.25"
       font-weight="400"
       font-style="normal"
       id="g16"
       style="font-style:normal;font-weight:400;font-size:8.25px;font-family:'MS Shell Dlg 2';fill:none;stroke:#000000;stroke-width:1;stroke-linecap:square;stroke-linejoin:bevel;stroke-opacity:1" />
    <g
       transform="translate(16,16)"
       font-size="8.25"
       font-weight="400"
       font-style="normal"
       id="g18"
       style="font-style:normal;font-weight:400;font-size:8.25px;font-family:'MS Shell Dlg 2';fill:none;stroke:#000000;stroke-width:1;stroke-linecap:square;stroke-linejoin:bevel;stroke-opacity:1" />
    <g
       font-size="8.25"
       font-weight="400"
       font-style="normal"
       id="g20"
       style="font-style:normal;font-weight:400;font-size:8.25px;font-family:'MS Shell Dlg 2';fill:none;stroke:#000000;stroke-width:1;stroke-linecap:square;stroke-linejoin:bevel;stroke-opacity:1" />
    <g
       transform="translate(16,16)"
       font-size="8.25"
       font-weight="400"
       font-style="normal"
       id="g22"
       style="font-style:normal;font-weight:400;font-size:8.25px;font-family:'MS Shell Dlg 2';fill:none;stroke:#000000;stroke-width:1;stroke-linecap:square;stroke-linejoin:bevel;stroke-opacity:1" />
    <g
       transform="matrix(1.33333,0,0,1.33333,16,16)"
       font-size="8.25"
       font-weight="400"
       font-style="normal"
       id="g24"
       style="font-style:normal;font-weight:400;font-size:8.25px;font-family:'MS Shell Dlg 2';fill:none;stroke:#000000;stroke-width:1;stroke-linecap:square;stroke-linejoin:bevel;stroke-opacity:1" />
    <g
       transform="translate(4.5,23.1875)"
       font-size="17.0078"
       font-weight="400"
       font-style="normal"
       id="g28"
       style="font-style:normal;font-weight:400;font-size:17.00779915px;font-family:icomoon;fill:#000000;fill-opacity:1;stroke:none">
      <path
         d="m 20.9785,-18.0137 c 0.3744,0 0.6926,0.1311 0.9546,0.3931 0.262,0.262 0.3931,0.5802 0.3931,0.9546 V 2.29102 c 0,0.37434 -0.1311,0.69254 -0.3931,0.95459 -0.262,0.26204 -0.5802,0.39306 -0.9546,0.39306 H 2.02148 C 1.64714,3.63867 1.32894,3.50765 1.06689,3.24561 0.80485,2.98356 0.673828,2.66536 0.673828,2.29102 V -16.666 c 0,-0.3744 0.131022,-0.6926 0.393062,-0.9546 0.26205,-0.262 0.58025,-0.3931 0.95459,-0.3931 H 20.9785 m 0,-0.6738 H 2.02148 c -0.55403,0 -1.029455,0.1984 -1.426265,0.5952 C 0.198405,-17.6955 0,-17.2201 0,-16.666 V 2.29102 C 0,2.84505 0.198405,3.32048 0.595215,3.71729 0.992025,4.1141 1.46745,4.3125 2.02148,4.3125 H 20.9785 c 0.5541,0 1.0295,-0.1984 1.4263,-0.59521 C 22.8016,3.32048 23,2.84505 23,2.29102 V -16.666 c 0,-0.5541 -0.1984,-1.0295 -0.5952,-1.4263 -0.3968,-0.3968 -0.8722,-0.5952 -1.4263,-0.5952 m -0.292,11.6123 c -0.1797,0 -0.3369,-0.06738 -0.4717,-0.20214 -0.1347,-0.13477 -0.2021,-0.29948 -0.2021,-0.49414 0,-0.16472 -0.146,-0.33692 -0.438,-0.51661 -0.292,-0.17968 -0.6851,-0.26953 -1.1792,-0.26953 -0.4941,0 -0.8872,0.08985 -1.1792,0.26953 -0.292,0.17969 -0.438,0.35189 -0.438,0.51661 0,0.19466 -0.0674,0.35937 -0.2021,0.49414 -0.1348,0.13476 -0.2995,0.20214 -0.4942,0.20214 -0.1797,0 -0.3369,-0.06738 -0.4716,-0.20214 -0.1348,-0.13477 -0.2022,-0.29948 -0.2022,-0.49414 0,-0.16472 -0.146,-0.33692 -0.438,-0.51661 -0.292,-0.17968 -0.685,-0.26953 -1.1792,-0.26953 -0.4941,0 -0.8872,0.08985 -1.1792,0.26953 -0.292,0.17969 -0.438,0.35189 -0.438,0.51661 0,0.19466 -0.0674,0.35937 -0.2021,0.49414 -0.1348,0.13476 -0.292,0.20214 -0.4717,0.20214 -0.1797,0 -0.3369,-0.06738 -0.4717,-0.20214 -0.1347,-0.13477 -0.2021,-0.29948 -0.2021,-0.49414 0,-0.16472 -0.146,-0.33692 -0.438,-0.51661 -0.292,-0.17968 -0.68507,-0.26953 -1.17922,-0.26953 -0.50911,0 -0.90592,0.08985 -1.19043,0.26953 -0.2845,0.17969 -0.42675,0.35189 -0.42675,0.51661 0,0.19466 -0.06739,0.35937 -0.20215,0.49414 -0.13477,0.13476 -0.29199,0.20214 -0.47168,0.20214 -0.19466,0 -0.35938,-0.06738 -0.49414,-0.20214 -0.13477,-0.13477 -0.20215,-0.29948 -0.20215,-0.49414 0,-0.16472 -0.146,-0.33692 -0.43799,-0.51661 -0.29199,-0.17968 -0.68506,-0.26953 -1.1792,-0.26953 -0.49414,0 -0.8872,0.08985 -1.1792,0.26953 C 3.1333,-8.1084 2.9873,-7.9362 2.9873,-7.77148 c 0,0.19466 -0.06738,0.35937 -0.20214,0.49414 -0.13477,0.13476 -0.292,0.20214 -0.47168,0.20214 -0.19466,0 -0.35563,-0.06738 -0.48291,-0.20214 -0.12728,-0.13477 -0.19092,-0.29948 -0.19092,-0.49414 0,-0.59896 0.28825,-1.10808 0.86474,-1.52735 0.5765,-0.41927 1.27653,-0.6289 2.1001,-0.6289 0.01498,0 0.02995,0 0.04492,0 0.01498,0 0.03744,0 0.06739,0 0.41927,0 0.81608,0.07112 1.19043,0.21337 0.37435,0.14226 0.71126,0.33318 1.01074,0.57276 0.2845,-0.23958 0.61019,-0.42676 0.97705,-0.56153 0.36686,-0.13476 0.75993,-0.20214 1.1792,-0.20214 0.01497,0 0.03369,0 0.05615,0 0.02246,0 0.04867,0.00748 0.07861,0.02246 0.01498,-0.01498 0.0337,-0.02246 0.05616,-0.02246 0.02246,0 0.04866,0 0.07861,0 0.4043,0 0.78985,0.06738 1.15675,0.20214 0.3669,0.13477 0.7,0.32195 0.9995,0.56153 0.2995,-0.23958 0.6326,-0.42676 0.9995,-0.56153 0.3669,-0.13476 0.7525,-0.20214 1.1568,-0.20214 0.0299,0 0.0561,0 0.0786,0 0.0224,0 0.0486,0.00748 0.0786,0.02246 H 13.791 c 0.015,-0.01498 0.0337,-0.02246 0.0562,-0.02246 0.0224,0 0.0411,0 0.0561,0 0.4193,0 0.8161,0.07112 1.1905,0.21338 0.3743,0.14225 0.7112,0.33317 1.0107,0.57275 H 16.082 c 0.2995,-0.23958 0.6364,-0.4305 1.0108,-0.57275 0.3743,-0.14226 0.7711,-0.21338 1.1904,-0.21338 0.03,0 0.0524,0 0.0674,0 0.015,0 0.0299,0.00748 0.0449,0.02246 0.8236,0 1.5236,0.20589 2.1001,0.61767 0.5765,0.41179 0.8648,0.92465 0.8648,1.53858 0,0.17968 -0.0674,0.33317 -0.2022,0.46045 -0.1348,0.12728 -0.292,0.19091 -0.4717,0.19091 m 0,3.167 c -0.1797,0 -0.3369,-0.06364 -0.4717,-0.19092 -0.1347,-0.12728 -0.2021,-0.28825 -0.2021,-0.48291 0,-0.16471 -0.146,-0.34066 -0.438,-0.52783 -0.292,-0.18718 -0.6851,-0.28077 -1.1792,-0.28077 -0.4941,0 -0.8872,0.09359 -1.1792,0.28077 -0.292,0.18717 -0.438,0.36312 -0.438,0.52783 0,0.19466 -0.0674,0.35563 -0.2021,0.48291 -0.1348,0.12728 -0.2995,0.19092 -0.4942,0.19092 -0.1797,0 -0.3369,-0.06364 -0.4716,-0.19092 -0.1348,-0.12728 -0.2022,-0.28825 -0.2022,-0.48291 0,-0.16471 -0.146,-0.34066 -0.438,-0.52783 -0.292,-0.18718 -0.685,-0.28077 -1.1792,-0.28077 -0.4941,0 -0.8872,0.09359 -1.1792,0.28077 -0.292,0.18717 -0.438,0.36312 -0.438,0.52783 0,0.19466 -0.0674,0.35563 -0.2021,0.48291 -0.1348,0.12728 -0.292,0.19092 -0.4717,0.19092 -0.1797,0 -0.3369,-0.06364 -0.4717,-0.19092 -0.1347,-0.12728 -0.2021,-0.28825 -0.2021,-0.48291 0,-0.16471 -0.146,-0.34066 -0.438,-0.52783 -0.292,-0.18718 -0.68507,-0.28077 -1.17922,-0.28077 -0.50911,0 -0.90592,0.09359 -1.19043,0.28077 -0.2845,0.18717 -0.42675,0.36312 -0.42675,0.52783 0,0.19466 -0.06739,0.35563 -0.20215,0.48291 -0.13477,0.12728 -0.29199,0.19092 -0.47168,0.19092 -0.19466,0 -0.35938,-0.06364 -0.49414,-0.19092 -0.13477,-0.12728 -0.20215,-0.28825 -0.20215,-0.48291 0,-0.16471 -0.146,-0.34066 -0.43799,-0.52783 -0.29199,-0.18718 -0.68506,-0.28077 -1.1792,-0.28077 -0.49414,0 -0.8872,0.09359 -1.1792,0.28077 -0.29199,0.18717 -0.43799,0.36312 -0.43799,0.52783 0,0.19466 -0.06738,0.35563 -0.20214,0.48291 -0.13477,0.12728 -0.292,0.19092 -0.47168,0.19092 -0.19466,0 -0.35563,-0.06364 -0.48291,-0.19092 -0.12728,-0.12728 -0.19092,-0.28825 -0.19092,-0.48291 0,-0.59896 0.28825,-1.10807 0.86474,-1.52735 0.5765,-0.41927 1.27653,-0.6289 2.1001,-0.6289 0.01498,0 0.02995,0 0.04492,0 0.01498,0 0.03744,0 0.06739,0 0.41927,0 0.81608,0.06738 1.19043,0.20215 0.37435,0.13476 0.71126,0.32942 1.01074,0.58398 0.2845,-0.25456 0.61393,-0.44922 0.98828,-0.58398 0.37435,-0.13477 0.77116,-0.20215 1.19043,-0.20215 0.01497,0 0.03369,0 0.05615,0 0.02246,0 0.04118,0 0.05615,0 0.01498,0 0.02995,0 0.04493,0 0.01497,0 0.02994,0 0.04492,0 0.41927,0 0.81607,0.06738 1.19047,0.20215 0.3743,0.13476 0.7112,0.32942 1.0107,0.58398 0.2995,-0.25456 0.6364,-0.44922 1.0107,-0.58398 0.3744,-0.13477 0.7712,-0.20215 1.1905,-0.20215 0.0149,0 0.0299,0 0.0449,0 0.015,0 0.0374,0 0.0674,0 H 13.791 c 0.015,0 0.0337,0 0.0562,0 0.0224,0 0.0411,0 0.0561,0 0.4193,0 0.8161,0.06738 1.1905,0.20215 0.3743,0.13476 0.7112,0.32942 1.0107,0.58398 H 16.082 c 0.2995,-0.25456 0.6364,-0.44922 1.0108,-0.58398 0.3743,-0.13477 0.7711,-0.20215 1.1904,-0.20215 0.03,0 0.0524,0 0.0674,0 0.015,0 0.0299,0 0.0449,0 0.8236,0 1.5236,0.20963 2.1001,0.6289 0.5765,0.41928 0.8648,0.92839 0.8648,1.52735 0,0.19466 -0.0637,0.35563 -0.191,0.48291 -0.1272,0.12728 -0.2882,0.19092 -0.4829,0.19092"
         id="path26"
         inkscape:connector-curvature="0"
         style="vector-effect:none;fill-rule:nonzero" />
    </g>
    <g
       transform="matrix(1.33333,0,0,1.33333,16,16)"
       font-size="8.25"
       font-weight="400"
       font-style="normal"
       id="g30"
       style="font-style:normal;font-weight:400;font-size:8.25px;font-family:'MS Shell Dlg 2';fill:none;stroke:#000000;stroke-width:1;stroke-linecap:square;stroke-linejoin:bevel;stroke-opacity:1" />
    <g
       transform="translate(16,16)"
       font-size="8.25"
       font-weight="400"
       font-style="normal"
       id="g32"
       style="font-style:normal;font-weight:400;font-size:8.25px;font-family:'MS Shell Dlg 2';fill:none;stroke:#000000;stroke-width:1;stroke-linecap:square;stroke-linejoin:bevel;stroke-opacity:1" />
    <g
       font-size="8.25"
       font-weight="400"
       font-style="normal"
       id="g34"
       style="font-style:normal;font-weight:400;font-size:8.25px;font-family:'MS Shell Dlg 2';fill:none;stroke:#000000;stroke-width:1;stroke-linecap:square;stroke-linejoin:bevel;stroke-opacity:1" />
  </g>
</svg>
