<?xml version="1.0" encoding="UTF-8" standalone="no"?>
<svg
   xmlns:dc="http://purl.org/dc/elements/1.1/"
   xmlns:cc="http://creativecommons.org/ns#"
   xmlns:rdf="http://www.w3.org/1999/02/22-rdf-syntax-ns#"
   xmlns:svg="http://www.w3.org/2000/svg"
   xmlns="http://www.w3.org/2000/svg"
   xmlns:sodipodi="http://sodipodi.sourceforge.net/DTD/sodipodi-0.dtd"
   xmlns:inkscape="http://www.inkscape.org/namespaces/inkscape"
   width="20"
   height="20"
   viewBox="0 0 20 20"
   version="1.2"
   id="svg52"
   sodipodi:docname="60204180411.svg"
   inkscape:version="0.92.4 (5da689c313, 2019-01-14)">
  <metadata
     id="metadata56">
    <rdf:RDF>
      <cc:Work
         rdf:about="">
        <dc:format>image/svg+xml</dc:format>
        <dc:type
           rdf:resource="http://purl.org/dc/dcmitype/StillImage" />
      </cc:Work>
    </rdf:RDF>
  </metadata>
  <sodipodi:namedview
     pagecolor="#ffffff"
     bordercolor="#666666"
     borderopacity="1"
     objecttolerance="10"
     gridtolerance="10"
     guidetolerance="10"
     inkscape:pageopacity="0"
     inkscape:pageshadow="2"
     inkscape:window-width="751"
     inkscape:window-height="480"
     id="namedview54"
     showgrid="false"
     inkscape:zoom="11.8"
     inkscape:cx="10"
     inkscape:cy="10"
     inkscape:window-x="0"
     inkscape:window-y="0"
     inkscape:window-maximized="0"
     inkscape:current-layer="svg52" />
  <title
     id="title2">Qt SVG Document</title>
  <desc
     id="desc4">Generated with Qt</desc>
  <defs
     id="defs6" />
  <g
     id="g50"
     transform="matrix(0.66666667,0,0,0.66666667,-0.66666672,-0.66666672)"
     style="fill:none;fill-rule:evenodd;stroke:#000000;stroke-width:1;stroke-linecap:square;stroke-linejoin:bevel">
    <g
       transform="translate(16,16)"
       font-size="8.25"
       font-weight="400"
       font-style="normal"
       id="g8"
       style="font-style:normal;font-weight:400;font-size:8.25px;font-family:'MS Shell Dlg 2';fill:none;stroke:#000000;stroke-width:1;stroke-linecap:square;stroke-linejoin:bevel;stroke-opacity:1" />
    <g
       transform="matrix(1.33333,0,0,1.33333,16,16)"
       font-size="8.25"
       font-weight="400"
       font-style="normal"
       id="g10"
       style="font-style:normal;font-weight:400;font-size:8.25px;font-family:'MS Shell Dlg 2';fill:none;stroke:#000000;stroke-width:1;stroke-linecap:square;stroke-linejoin:bevel;stroke-opacity:1" />
    <g
       transform="translate(1,25.375)"
       font-size="22.6771"
       font-weight="400"
       font-style="normal"
       id="g14"
       style="font-style:normal;font-weight:400;font-size:22.67709923px;font-family:icomoon;fill:#ffffff;fill-opacity:1;stroke:none">
      <path
         d="M 2.63672,-24.375 H 27.3633 c 0.7226,0 1.3428,0.2588 1.8603,0.7764 0.5176,0.5175 0.7764,1.1377 0.7764,1.8603 V 2.98828 C 30,3.71094 29.7412,4.33105 29.2236,4.84863 28.7061,5.36621 28.0859,5.625 27.3633,5.625 H 2.63672 C 1.91406,5.625 1.29395,5.36621 0.776367,4.84863 0.258789,4.33105 0,3.71094 0,2.98828 V -21.7383 c 0,-0.7226 0.258789,-1.3428 0.776367,-1.8603 0.517583,-0.5176 1.137693,-0.7764 1.860353,-0.7764"
         id="path12"
         inkscape:connector-curvature="0"
         style="vector-effect:none;fill-rule:nonzero" />
    </g>
    <g
       transform="matrix(1.33333,0,0,1.33333,16,16)"
       font-size="8.25"
       font-weight="400"
       font-style="normal"
       id="g16"
       style="font-style:normal;font-weight:400;font-size:8.25px;font-family:'MS Shell Dlg 2';fill:none;stroke:#000000;stroke-width:1;stroke-linecap:square;stroke-linejoin:bevel;stroke-opacity:1" />
    <g
       transform="translate(16,16)"
       font-size="8.25"
       font-weight="400"
       font-style="normal"
       id="g18"
       style="font-style:normal;font-weight:400;font-size:8.25px;font-family:'MS Shell Dlg 2';fill:none;stroke:#000000;stroke-width:1;stroke-linecap:square;stroke-linejoin:bevel;stroke-opacity:1" />
    <g
       font-size="8.25"
       font-weight="400"
       font-style="normal"
       id="g20"
       style="font-style:normal;font-weight:400;font-size:8.25px;font-family:'MS Shell Dlg 2';fill:none;stroke:#000000;stroke-width:1;stroke-linecap:square;stroke-linejoin:bevel;stroke-opacity:1" />
    <g
       transform="translate(16,16)"
       font-size="8.25"
       font-weight="400"
       font-style="normal"
       id="g22"
       style="font-style:normal;font-weight:400;font-size:8.25px;font-family:'MS Shell Dlg 2';fill:none;stroke:#000000;stroke-width:1;stroke-linecap:square;stroke-linejoin:bevel;stroke-opacity:1" />
    <g
       transform="matrix(1.33333,0,0,1.33333,16,16)"
       font-size="8.25"
       font-weight="400"
       font-style="normal"
       id="g24"
       style="font-style:normal;font-weight:400;font-size:8.25px;font-family:'MS Shell Dlg 2';fill:none;stroke:#000000;stroke-width:1;stroke-linecap:square;stroke-linejoin:bevel;stroke-opacity:1" />
    <g
       transform="translate(4.5,23.1875)"
       font-size="17.0078"
       font-weight="400"
       font-style="normal"
       id="g28"
       style="font-style:normal;font-weight:400;font-size:17.00779915px;font-family:icomoon;fill:#000000;fill-opacity:1;stroke:none">
      <path
         d="m 20.9785,-18.0137 c 0.3744,0 0.6926,0.1311 0.9546,0.3931 0.262,0.262 0.3931,0.5802 0.3931,0.9546 V 2.29102 c 0,0.37434 -0.1311,0.69254 -0.3931,0.95459 -0.262,0.26204 -0.5802,0.39306 -0.9546,0.39306 H 2.02148 C 1.64714,3.63867 1.32894,3.50765 1.06689,3.24561 0.80485,2.98356 0.673828,2.66536 0.673828,2.29102 V -16.666 c 0,-0.3744 0.131022,-0.6926 0.393062,-0.9546 0.26205,-0.262 0.58025,-0.3931 0.95459,-0.3931 H 20.9785 m 0,-0.6738 H 2.02148 c -0.55403,0 -1.029455,0.1984 -1.426265,0.5952 C 0.198405,-17.6955 0,-17.2201 0,-16.666 V 2.29102 C 0,2.84505 0.198405,3.32048 0.595215,3.71729 0.992025,4.1141 1.46745,4.3125 2.02148,4.3125 H 20.9785 c 0.5541,0 1.0295,-0.1984 1.4263,-0.59521 C 22.8016,3.32048 23,2.84505 23,2.29102 V -16.666 c 0,-0.5541 -0.1984,-1.0295 -0.5952,-1.4263 -0.3968,-0.3968 -0.8722,-0.5952 -1.4263,-0.5952 m -2.4258,8.6699 c -0.0149,0 -0.0374,0 -0.0673,0 -0.03,0 -0.0525,0 -0.0674,0 -0.4193,0 -0.8161,-0.0748 -1.1905,-0.2246 -0.3743,-0.1497 -0.7037,-0.3519 -0.9882,-0.6064 -0.2845,0.2545 -0.614,0.4567 -0.9883,0.6064 -0.3744,0.1498 -0.7712,0.2246 -1.1905,0.2246 -0.0149,0 -0.0336,0 -0.0561,0 -0.0225,0 -0.0487,0 -0.0786,0 -0.015,0 -0.0337,0 -0.0562,0 -0.0224,0 -0.0411,0 -0.0561,0 -0.4193,0 -0.8161,-0.0748 -1.1905,-0.2246 -0.3743,-0.1497 -0.7037,-0.3519 -0.9882,-0.6064 -0.2845,0.2545 -0.614,0.4567 -0.9883,0.6064 -0.3744,0.1498 -0.77117,0.2246 -1.19045,0.2246 -0.01497,0 -0.03369,0 -0.05615,0 -0.02246,0 -0.04118,0 -0.05615,0 -0.01497,0 -0.03369,0 -0.05615,0 -0.02246,0 -0.04118,0 -0.05615,0 -0.43425,0 -0.8348,-0.0748 -1.20166,-0.2246 -0.36687,-0.1497 -0.70004,-0.3519 -0.99952,-0.6064 h 0.02246 c -0.29947,0.2545 -0.63265,0.4567 -0.99951,0.6064 -0.36686,0.1498 -0.75993,0.2246 -1.1792,0.2246 -0.01497,0 -0.03369,0 -0.05615,0 -0.02246,0 -0.04866,0 -0.07861,0 -0.77865,0 -1.44125,-0.1909 -1.9878,-0.5727 -0.54654,-0.3819 -0.81982,-0.8573 -0.81982,-1.4263 0,-0.1348 0.05241,-0.2508 0.15723,-0.3481 0.10481,-0.0974 0.22461,-0.146 0.35937,-0.146 0.13477,0 0.25456,0.0486 0.35938,0.146 0.10481,0.0973 0.15722,0.2133 0.15722,0.3481 0,0.2396 0.16472,0.4642 0.49414,0.6738 0.32943,0.2097 0.75619,0.3145 1.28028,0.3145 0.53906,0 0.97705,-0.1048 1.31396,-0.3145 0.33692,-0.2096 0.50537,-0.4342 0.50537,-0.6738 0,-0.1348 0.04867,-0.2508 0.146,-0.3481 0.09733,-0.0974 0.22087,-0.146 0.37061,-0.146 0.13476,0 0.25081,0.0486 0.34814,0.146 0.09733,0.0973 0.146,0.2133 0.146,0.3481 0,0.2396 0.16845,0.4642 0.50537,0.6738 0.33691,0.2097 0.76741,0.3145 1.2915,0.3145 0.52409,0 0.95459,-0.1048 1.29149,-0.3145 0.3369,-0.2096 0.5054,-0.4342 0.5054,-0.6738 0,-0.1348 0.0487,-0.2508 0.146,-0.3481 0.0973,-0.0974 0.2208,-0.146 0.3706,-0.146 0.1348,0 0.2508,0.0486 0.3481,0.146 0.0974,0.0973 0.146,0.2133 0.146,0.3481 0,0.2396 0.1647,0.4642 0.4942,0.6738 0.3294,0.2097 0.7636,0.3145 1.3027,0.3145 0.5241,0 0.9508,-0.1048 1.2803,-0.3145 0.3294,-0.2096 0.4941,-0.4342 0.4941,-0.6738 0,-0.1348 0.0524,-0.2508 0.1572,-0.3481 0.1049,-0.0974 0.2247,-0.146 0.3594,-0.146 0.1348,0 0.2546,0.0486 0.3594,0.146 0.1048,0.0973 0.1572,0.2133 0.1572,0.3481 0,0.2396 0.1647,0.4642 0.4942,0.6738 0.3294,0.2097 0.7561,0.3145 1.2802,0.3145 0.5391,0 0.9733,-0.1048 1.3028,-0.3145 0.3294,-0.2096 0.4941,-0.4342 0.4941,-0.6738 0,-0.1348 0.0487,-0.2508 0.146,-0.3481 0.0973,-0.0974 0.2209,-0.146 0.3706,-0.146 0.1348,0 0.2508,0.0486 0.3482,0.146 0.0973,0.0973 0.146,0.2133 0.146,0.3481 0,0.569 -0.2696,1.0444 -0.8086,1.4263 -0.5391,0.3818 -1.2054,0.5727 -1.9991,0.5727 m 0,4.06545 c -0.0149,0 -0.0374,0.00375 -0.0673,0.01123 -0.03,0.00749 -0.0525,0.01123 -0.0674,0.01123 -0.4193,0 -0.8161,-0.07487 -1.1905,-0.22461 -0.3743,-0.14974 -0.7037,-0.35937 -0.9882,-0.6289 -0.2845,0.26953 -0.614,0.47916 -0.9883,0.6289 -0.3744,0.14974 -0.7712,0.22461 -1.1905,0.22461 -0.0149,0 -0.0336,-0.00374 -0.0561,-0.01123 -0.0225,-0.00748 -0.0487,-0.01123 -0.0786,-0.01123 -0.015,0 -0.0337,0.00375 -0.0562,0.01123 -0.0224,0.00749 -0.0411,0.01123 -0.0561,0.01123 -0.4193,0 -0.8161,-0.07487 -1.1905,-0.22461 -0.3743,-0.14974 -0.7037,-0.35937 -0.9882,-0.6289 -0.2845,0.26953 -0.614,0.47916 -0.9883,0.6289 -0.3744,0.14974 -0.77117,0.22461 -1.19045,0.22461 -0.01497,0 -0.03369,-0.00374 -0.05615,-0.01123 -0.02246,-0.00748 -0.04118,-0.01123 -0.05615,-0.01123 -0.01497,0 -0.03369,0.00375 -0.05615,0.01123 -0.02246,0.00749 -0.04118,0.01123 -0.05615,0.01123 -0.43425,0 -0.8348,-0.07487 -1.20166,-0.22461 C 7.66292,-6.30404 7.32975,-6.51367 7.03027,-6.7832 h 0.02246 c -0.29947,0.26953 -0.63265,0.47916 -0.99951,0.6289 -0.36686,0.14974 -0.75993,0.22461 -1.1792,0.22461 -0.01497,0 -0.03369,-0.00374 -0.05615,-0.01123 -0.02246,-0.00748 -0.04866,-0.01123 -0.07861,-0.01123 -0.77865,0 -1.44125,-0.19092 -1.9878,-0.57275 -0.54654,-0.38184 -0.81982,-0.84977 -0.81982,-1.40381 0,-0.13477 0.05241,-0.25081 0.15723,-0.34815 0.10481,-0.09733 0.22461,-0.14599 0.35937,-0.14599 0.13477,0 0.25456,0.04866 0.35938,0.14599 0.10481,0.09734 0.15722,0.21338 0.15722,0.34815 0,0.23958 0.16472,0.46045 0.49414,0.6626 0.32943,0.20215 0.75619,0.30322 1.28028,0.30322 0.53906,0 0.97331,-0.10107 1.30273,-0.30322 0.32943,-0.20215 0.49414,-0.42302 0.49414,-0.6626 0,-0.13477 0.04867,-0.25081 0.146,-0.34815 0.09733,-0.09733 0.22086,-0.14599 0.3706,-0.14599 0.13477,0 0.25082,0.04866 0.34815,0.14599 0.09733,0.09734 0.146,0.21338 0.146,0.34815 0,0.23958 0.16845,0.46045 0.50537,0.6626 0.33691,0.20215 0.76741,0.30322 1.2915,0.30322 0.52409,0 0.95455,-0.10107 1.29155,-0.30322 0.3369,-0.20215 0.5053,-0.42302 0.5053,-0.6626 0,-0.13477 0.0487,-0.25081 0.146,-0.34815 0.0974,-0.09733 0.2134,-0.14599 0.3482,-0.14599 0.1497,0 0.2732,0.04866 0.3706,0.14599 0.0973,0.09734 0.146,0.21338 0.146,0.34815 0,0.23958 0.1647,0.46045 0.4941,0.6626 0.3294,0.20215 0.7562,0.30322 1.2803,0.30322 0.539,0 0.9733,-0.10107 1.3027,-0.30322 0.3294,-0.20215 0.4942,-0.42302 0.4942,-0.6626 0,-0.13477 0.0486,-0.25081 0.146,-0.34815 0.0973,-0.09733 0.2208,-0.14599 0.3706,-0.14599 0.1347,0 0.2508,0.04866 0.3481,0.14599 0.0973,0.09734 0.146,0.21338 0.146,0.34815 0,0.23958 0.1685,0.46045 0.5054,0.6626 0.3369,0.20215 0.7674,0.30322 1.2915,0.30322 0.5241,0 0.9546,-0.10107 1.2915,-0.30322 0.3369,-0.20215 0.5053,-0.42302 0.5053,-0.6626 0,-0.13477 0.0487,-0.25081 0.146,-0.34815 0.0974,-0.09733 0.2134,-0.14599 0.3482,-0.14599 0.1497,0 0.2733,0.04866 0.3706,0.14599 0.0973,0.09734 0.146,0.21338 0.146,0.34815 0.015,0.55404 -0.2471,1.02197 -0.7861,1.40381 -0.5391,0.38183 -1.2054,0.57275 -1.9991,0.57275 m 0,3.72852 c -0.0149,0 -0.0374,0 -0.0673,0 -0.03,0 -0.0525,0 -0.0674,0 -0.4193,0 -0.8161,-0.07487 -1.1905,-0.22461 -0.3743,-0.14974 -0.7037,-0.35189 -0.9882,-0.60645 -0.2845,0.25456 -0.614,0.45671 -0.9883,0.60645 -0.3744,0.14974 -0.7712,0.22461 -1.1905,0.22461 -0.0149,0 -0.0336,0 -0.0561,0 -0.0225,0 -0.0487,0 -0.0786,0 -0.015,0 -0.0337,0 -0.0562,0 -0.0224,0 -0.0411,0 -0.0561,0 -0.4193,0 -0.8161,-0.07487 -1.1905,-0.22461 -0.3743,-0.14974 -0.7037,-0.35189 -0.9882,-0.60645 -0.2845,0.25456 -0.614,0.45671 -0.9883,0.60645 -0.3744,0.14974 -0.77117,0.22461 -1.19045,0.22461 -0.01497,0 -0.03369,0 -0.05615,0 -0.02246,0 -0.04118,0 -0.05615,0 -0.01497,0 -0.03369,0 -0.05615,0 -0.02246,0 -0.04118,0 -0.05615,0 -0.43425,0 -0.8348,-0.07487 -1.20166,-0.22461 C 7.66292,-2.59798 7.32975,-2.80013 7.03027,-3.05469 h 0.02246 c -0.29947,0.25456 -0.63265,0.45671 -0.99951,0.60645 -0.36686,0.14974 -0.75993,0.22461 -1.1792,0.22461 -0.01497,0 -0.03369,0 -0.05615,0 -0.02246,0 -0.04866,0 -0.07861,0 -0.77865,0 -1.44125,-0.19466 -1.9878,-0.58399 -0.54654,-0.38932 -0.81982,-0.861 -0.81982,-1.41504 0,-0.13476 0.05241,-0.25081 0.15723,-0.34814 0.10481,-0.09733 0.22461,-0.146 0.35937,-0.146 0.13477,0 0.25456,0.04867 0.35938,0.146 0.10481,0.09733 0.15722,0.21338 0.15722,0.34814 0,0.23959 0.16472,0.4642 0.49414,0.67383 0.32943,0.20964 0.75619,0.31445 1.28028,0.31445 0.53906,0 0.97331,-0.10481 1.30273,-0.31445 0.32943,-0.20963 0.49414,-0.43424 0.49414,-0.67383 0,-0.13476 0.04867,-0.25081 0.146,-0.34814 0.09733,-0.09733 0.22086,-0.146 0.3706,-0.146 0.13477,0 0.25082,0.04867 0.34815,0.146 0.09733,0.09733 0.146,0.21338 0.146,0.34814 0,0.23959 0.16845,0.4642 0.50537,0.67383 0.33691,0.20964 0.76741,0.31445 1.2915,0.31445 0.52409,0 0.95455,-0.10481 1.29155,-0.31445 0.3369,-0.20963 0.5053,-0.43424 0.5053,-0.67383 0,-0.13476 0.0487,-0.25081 0.146,-0.34814 0.0974,-0.09733 0.2134,-0.146 0.3482,-0.146 0.1497,0 0.2732,0.04867 0.3706,0.146 0.0973,0.09733 0.146,0.21338 0.146,0.34814 0,0.23959 0.1647,0.4642 0.4941,0.67383 0.3294,0.20964 0.7562,0.31445 1.2803,0.31445 0.539,0 0.9733,-0.10481 1.3027,-0.31445 0.3294,-0.20963 0.4942,-0.43424 0.4942,-0.67383 0,-0.13476 0.0486,-0.25081 0.146,-0.34814 0.0973,-0.09733 0.2208,-0.146 0.3706,-0.146 0.1347,0 0.2508,0.04867 0.3481,0.146 0.0973,0.09733 0.146,0.21338 0.146,0.34814 0,0.23959 0.1685,0.4642 0.5054,0.67383 0.3369,0.20964 0.7674,0.31445 1.2915,0.31445 0.5241,0 0.9546,-0.10481 1.2915,-0.31445 0.3369,-0.20963 0.5053,-0.43424 0.5053,-0.67383 0,-0.13476 0.0487,-0.25081 0.146,-0.34814 0.0974,-0.09733 0.2134,-0.146 0.3482,-0.146 0.1497,0 0.2733,0.04867 0.3706,0.146 0.0973,0.09733 0.146,0.21338 0.146,0.34814 0.015,0.55404 -0.2471,1.02572 -0.7861,1.41504 -0.5391,0.38933 -1.2054,0.58399 -1.9991,0.58399"
         id="path26"
         inkscape:connector-curvature="0"
         style="vector-effect:none;fill-rule:nonzero" />
    </g>
    <g
       transform="matrix(1.33333,0,0,1.33333,16,16)"
       font-size="8.25"
       font-weight="400"
       font-style="normal"
       id="g30"
       style="font-style:normal;font-weight:400;font-size:8.25px;font-family:'MS Shell Dlg 2';fill:none;stroke:#000000;stroke-width:1;stroke-linecap:square;stroke-linejoin:bevel;stroke-opacity:1" />
    <g
       transform="translate(16,16)"
       font-size="8.25"
       font-weight="400"
       font-style="normal"
       id="g32"
       style="font-style:normal;font-weight:400;font-size:8.25px;font-family:'MS Shell Dlg 2';fill:none;stroke:#000000;stroke-width:1;stroke-linecap:square;stroke-linejoin:bevel;stroke-opacity:1" />
    <g
       font-size="8.25"
       font-weight="400"
       font-style="normal"
       id="g34"
       style="font-style:normal;font-weight:400;font-size:8.25px;font-family:'MS Shell Dlg 2';fill:none;stroke:#000000;stroke-width:1;stroke-linecap:square;stroke-linejoin:bevel;stroke-opacity:1" />
    <g
       transform="translate(16,16)"
       font-size="8.25"
       font-weight="400"
       font-style="normal"
       id="g36"
       style="font-style:normal;font-weight:400;font-size:8.25px;font-family:'MS Shell Dlg 2';fill:none;stroke:#000000;stroke-width:1;stroke-linecap:square;stroke-linejoin:bevel;stroke-opacity:1" />
    <g
       transform="matrix(1.33333,0,0,1.33333,16,16)"
       font-size="8.25"
       font-weight="400"
       font-style="normal"
       id="g38"
       style="font-style:normal;font-weight:400;font-size:8.25px;font-family:'MS Shell Dlg 2';fill:none;stroke:#000000;stroke-width:1;stroke-linecap:square;stroke-linejoin:bevel;stroke-opacity:1" />
    <g
       transform="translate(1,25.375)"
       font-size="22.6771"
       font-weight="400"
       font-style="normal"
       id="g42"
       style="font-style:normal;font-weight:400;font-size:22.67709923px;font-family:icomoon;fill:#000000;fill-opacity:1;stroke:none">
      <path
         d="m 26.4258,-22.2363 c 0.3906,0 0.7275,0.1416 1.0107,0.4248 0.2832,0.2832 0.4248,0.6201 0.4248,1.0107 V 2.05078 c 0,0.39063 -0.1416,0.72754 -0.4248,1.01074 -0.2832,0.28321 -0.6201,0.42481 -1.0107,0.42481 H 3.57422 C 3.18359,3.48633 2.84668,3.34473 2.56348,3.06152 2.28027,2.77832 2.13867,2.44141 2.13867,2.05078 V -20.8008 c 0,-0.3906 0.1416,-0.7275 0.42481,-1.0107 0.2832,-0.2832 0.62011,-0.4248 1.01074,-0.4248 H 26.4258 m 0,-0.7032 H 3.57422 c -0.58594,0 -1.08887,0.21 -1.50879,0.6299 -0.41992,0.42 -0.62988,0.9229 -0.62988,1.5088 V 2.05078 c 0,0.58594 0.20996,1.08887 0.62988,1.50879 0.41992,0.41992 0.92285,0.62988 1.50879,0.62988 H 26.4258 c 0.5859,0 1.0888,-0.20996 1.5088,-0.62988 0.4199,-0.41992 0.6299,-0.92285 0.6299,-1.50879 V -20.8008 c 0,-0.5859 -0.21,-1.0888 -0.6299,-1.5088 -0.42,-0.4199 -0.9229,-0.6299 -1.5088,-0.6299 m 1.4355,-0.7324 c 0.3907,0 0.7276,0.1416 1.0108,0.4248 0.2832,0.2832 0.4248,0.6201 0.4248,1.0108 V 3.48633 c 0,0.39062 -0.1416,0.72754 -0.4248,1.01074 -0.2832,0.2832 -0.6201,0.42481 -1.0108,0.42481 H 2.13867 C 1.74805,4.92188 1.41113,4.78027 1.12793,4.49707 0.844727,4.21387 0.703125,3.87695 0.703125,3.48633 V -22.2363 c 0,-0.3907 0.141602,-0.7276 0.424805,-1.0108 0.2832,-0.2832 0.62012,-0.4248 1.01074,-0.4248 H 27.8613 m 0,-0.7031 H 2.13867 c -0.58594,0 -1.08887,0.21 -1.508787,0.6299 C 0.209961,-23.3252 0,-22.8223 0,-22.2363 V 3.48633 C 0,4.07227 0.209961,4.5752 0.629883,4.99512 1.0498,5.41504 1.55273,5.625 2.13867,5.625 H 27.8613 c 0.586,0 1.0889,-0.20996 1.5088,-0.62988 C 29.79,4.5752 30,4.07227 30,3.48633 V -22.2363 c 0,-0.586 -0.21,-1.0889 -0.6299,-1.5088 -0.4199,-0.4199 -0.9228,-0.6299 -1.5088,-0.6299"
         id="path40"
         inkscape:connector-curvature="0"
         style="vector-effect:none;fill-rule:nonzero" />
    </g>
    <g
       transform="matrix(1.33333,0,0,1.33333,16,16)"
       font-size="8.25"
       font-weight="400"
       font-style="normal"
       id="g44"
       style="font-style:normal;font-weight:400;font-size:8.25px;font-family:'MS Shell Dlg 2';fill:none;stroke:#000000;stroke-width:1;stroke-linecap:square;stroke-linejoin:bevel;stroke-opacity:1" />
    <g
       transform="translate(16,16)"
       font-size="8.25"
       font-weight="400"
       font-style="normal"
       id="g46"
       style="font-style:normal;font-weight:400;font-size:8.25px;font-family:'MS Shell Dlg 2';fill:none;stroke:#000000;stroke-width:1;stroke-linecap:square;stroke-linejoin:bevel;stroke-opacity:1" />
    <g
       font-size="8.25"
       font-weight="400"
       font-style="normal"
       id="g48"
       style="font-style:normal;font-weight:400;font-size:8.25px;font-family:'MS Shell Dlg 2';fill:none;stroke:#000000;stroke-width:1;stroke-linecap:square;stroke-linejoin:bevel;stroke-opacity:1" />
  </g>
</svg>
