<?xml version="1.0" encoding="UTF-8" standalone="no"?>
<svg
   xmlns:dc="http://purl.org/dc/elements/1.1/"
   xmlns:cc="http://creativecommons.org/ns#"
   xmlns:rdf="http://www.w3.org/1999/02/22-rdf-syntax-ns#"
   xmlns:svg="http://www.w3.org/2000/svg"
   xmlns="http://www.w3.org/2000/svg"
   xmlns:sodipodi="http://sodipodi.sourceforge.net/DTD/sodipodi-0.dtd"
   xmlns:inkscape="http://www.inkscape.org/namespaces/inkscape"
   width="20"
   height="20"
   viewBox="0 0 20 20"
   version="1.2"
   id="svg38"
   sodipodi:docname="60203080232.svg"
   inkscape:version="0.92.4 (5da689c313, 2019-01-14)">
  <metadata
     id="metadata42">
    <rdf:RDF>
      <cc:Work
         rdf:about="">
        <dc:format>image/svg+xml</dc:format>
        <dc:type
           rdf:resource="http://purl.org/dc/dcmitype/StillImage" />
      </cc:Work>
    </rdf:RDF>
  </metadata>
  <sodipodi:namedview
     pagecolor="#ffffff"
     bordercolor="#666666"
     borderopacity="1"
     objecttolerance="10"
     gridtolerance="10"
     guidetolerance="10"
     inkscape:pageopacity="0"
     inkscape:pageshadow="2"
     inkscape:window-width="1920"
     inkscape:window-height="1017"
     id="namedview40"
     showgrid="false"
     inkscape:zoom="11.8"
     inkscape:cx="-5.2542373"
     inkscape:cy="10"
     inkscape:window-x="-8"
     inkscape:window-y="-8"
     inkscape:window-maximized="1"
     inkscape:current-layer="svg38" />
  <title
     id="title2">Qt SVG Document</title>
  <desc
     id="desc4">Generated with Qt</desc>
  <defs
     id="defs6" />
  <g
     id="g36"
     transform="matrix(0.65217391,0,0,0.65217391,-0.43478256,-0.43478256)"
     style="fill:none;fill-rule:evenodd;stroke:#000000;stroke-width:1;stroke-linecap:square;stroke-linejoin:bevel">
    <g
       transform="translate(16,16)"
       font-size="8.25"
       font-weight="400"
       font-style="normal"
       id="g8"
       style="font-style:normal;font-weight:400;font-size:8.25px;font-family:'MS Shell Dlg 2';fill:none;stroke:#000000;stroke-width:1;stroke-linecap:square;stroke-linejoin:bevel;stroke-opacity:1" />
    <g
       transform="matrix(1.33333,0,0,1.33333,16,16)"
       font-size="8.25"
       font-weight="400"
       font-style="normal"
       id="g10"
       style="font-style:normal;font-weight:400;font-size:8.25px;font-family:'MS Shell Dlg 2';fill:none;stroke:#000000;stroke-width:1;stroke-linecap:square;stroke-linejoin:bevel;stroke-opacity:1" />
    <g
       transform="translate(4.5,23.1875)"
       font-size="17.0078"
       font-weight="400"
       font-style="normal"
       id="g14"
       style="font-style:normal;font-weight:400;font-size:17.00779915px;font-family:icomoon;fill:#ff0000;fill-opacity:1;stroke:none">
      <path
         d="M 2.02148,-18.6875 H 20.9785 c 0.5541,0 1.0295,0.1984 1.4263,0.5952 C 22.8016,-17.6955 23,-17.2201 23,-16.666 V 2.29102 C 23,2.84505 22.8016,3.32048 22.4048,3.71729 22.008,4.1141 21.5326,4.3125 20.9785,4.3125 H 2.02148 C 1.46745,4.3125 0.992025,4.1141 0.595215,3.71729 0.198405,3.32048 0,2.84505 0,2.29102 V -16.666 c 0,-0.5541 0.198405,-1.0295 0.595215,-1.4263 0.39681,-0.3968 0.872235,-0.5952 1.426265,-0.5952"
         id="path12"
         inkscape:connector-curvature="0"
         style="vector-effect:none;fill-rule:nonzero" />
    </g>
    <g
       transform="matrix(1.33333,0,0,1.33333,16,16)"
       font-size="8.25"
       font-weight="400"
       font-style="normal"
       id="g16"
       style="font-style:normal;font-weight:400;font-size:8.25px;font-family:'MS Shell Dlg 2';fill:none;stroke:#000000;stroke-width:1;stroke-linecap:square;stroke-linejoin:bevel;stroke-opacity:1" />
    <g
       transform="translate(16,16)"
       font-size="8.25"
       font-weight="400"
       font-style="normal"
       id="g18"
       style="font-style:normal;font-weight:400;font-size:8.25px;font-family:'MS Shell Dlg 2';fill:none;stroke:#000000;stroke-width:1;stroke-linecap:square;stroke-linejoin:bevel;stroke-opacity:1" />
    <g
       font-size="8.25"
       font-weight="400"
       font-style="normal"
       id="g20"
       style="font-style:normal;font-weight:400;font-size:8.25px;font-family:'MS Shell Dlg 2';fill:none;stroke:#000000;stroke-width:1;stroke-linecap:square;stroke-linejoin:bevel;stroke-opacity:1" />
    <g
       transform="translate(16,16)"
       font-size="8.25"
       font-weight="400"
       font-style="normal"
       id="g22"
       style="font-style:normal;font-weight:400;font-size:8.25px;font-family:'MS Shell Dlg 2';fill:none;stroke:#000000;stroke-width:1;stroke-linecap:square;stroke-linejoin:bevel;stroke-opacity:1" />
    <g
       transform="matrix(1.33333,0,0,1.33333,16,16)"
       font-size="8.25"
       font-weight="400"
       font-style="normal"
       id="g24"
       style="font-style:normal;font-weight:400;font-size:8.25px;font-family:'MS Shell Dlg 2';fill:none;stroke:#000000;stroke-width:1;stroke-linecap:square;stroke-linejoin:bevel;stroke-opacity:1" />
    <g
       transform="translate(4.5,23.1875)"
       font-size="17.0078"
       font-weight="400"
       font-style="normal"
       id="g28"
       style="font-style:normal;font-weight:400;font-size:17.00779915px;font-family:icomoon;fill:#000000;fill-opacity:1;stroke:none">
      <path
         d="m 20.9785,-18.0137 c 0.3744,0 0.6926,0.1311 0.9546,0.3931 0.262,0.262 0.3931,0.5802 0.3931,0.9546 V 2.29102 c 0,0.37434 -0.1311,0.69254 -0.3931,0.95459 -0.262,0.26204 -0.5802,0.39306 -0.9546,0.39306 H 2.02148 C 1.64714,3.63867 1.32894,3.50765 1.06689,3.24561 0.80485,2.98356 0.673828,2.66536 0.673828,2.29102 V -16.666 c 0,-0.3744 0.131022,-0.6926 0.393062,-0.9546 0.26205,-0.262 0.58025,-0.3931 0.95459,-0.3931 H 20.9785 m 0,-0.6738 H 2.02148 c -0.55403,0 -1.029455,0.1984 -1.426265,0.5952 C 0.198405,-17.6955 0,-17.2201 0,-16.666 V 2.29102 C 0,2.84505 0.198405,3.32048 0.595215,3.71729 0.992025,4.1141 1.46745,4.3125 2.02148,4.3125 H 20.9785 c 0.5541,0 1.0295,-0.1984 1.4263,-0.59521 C 22.8016,3.32048 23,2.84505 23,2.29102 V -16.666 c 0,-0.5541 -0.1984,-1.0295 -0.5952,-1.4263 -0.3968,-0.3968 -0.8722,-0.5952 -1.4263,-0.5952 M 6.42383,-2.44824 c 0,0.32942 -0.11231,0.6027 -0.33692,0.81982 -0.22461,0.21712 -0.49414,0.32569 -0.80859,0.32569 -0.31445,0 -0.58398,-0.10857 -0.80859,-0.32569 -0.22461,-0.21712 -0.33692,-0.4904 -0.33692,-0.81982 0,-0.31446 0.11231,-0.58024 0.33692,-0.79737 0.22461,-0.21712 0.49414,-0.32568 0.80859,-0.32568 0.31445,0 0.58398,0.10856 0.80859,0.32568 0.22461,0.21713 0.33692,0.48291 0.33692,0.79737 m 2.53808,0 c 0,0.32942 -0.1123,0.6027 -0.33691,0.81982 -0.22461,0.21712 -0.49414,0.32569 -0.80859,0.32569 -0.31446,0 -0.58399,-0.10857 -0.8086,-0.32569 C 6.7832,-1.84554 6.6709,-2.11882 6.6709,-2.44824 c 0,-0.31446 0.1123,-0.58024 0.33691,-0.79737 0.22461,-0.21712 0.49414,-0.32568 0.8086,-0.32568 0.31445,0 0.58398,0.10856 0.80859,0.32568 0.22461,0.21713 0.33691,0.48291 0.33691,0.79737 m 7.50199,0 c 0,0.32942 -0.1123,0.6027 -0.3369,0.81982 -0.2247,0.21712 -0.4942,0.32569 -0.8086,0.32569 -0.3145,0 -0.584,-0.10857 -0.8086,-0.32569 -0.2246,-0.21712 -0.3369,-0.4904 -0.3369,-0.81982 0,-0.31446 0.1123,-0.58024 0.3369,-0.79737 0.2246,-0.21712 0.4941,-0.32568 0.8086,-0.32568 0.3144,0 0.5839,0.10856 0.8086,0.32568 0.2246,0.21713 0.3369,0.48291 0.3369,0.79737 m 2.5381,0 c 0,0.32942 -0.1124,0.6027 -0.337,0.81982 -0.2246,0.21712 -0.4941,0.32569 -0.8086,0.32569 -0.3144,0 -0.5839,-0.10857 -0.8085,-0.32569 -0.2247,-0.21712 -0.337,-0.4904 -0.337,-0.81982 0,-0.31446 0.1123,-0.58024 0.337,-0.79737 0.2246,-0.21712 0.4941,-0.32568 0.8085,-0.32568 0.3145,0 0.584,0.10856 0.8086,0.32568 0.2246,0.21713 0.337,0.48291 0.337,0.79737 m 1.9765,-4.85156 -1.9541,-2.69532 c -0.015,-0.01498 -0.0337,-0.02998 -0.0561,-0.04488 -0.0225,-0.015 -0.0487,-0.0225 -0.0787,-0.0225 h -6.0419 v -0.4268 c 0.0299,0 0.0524,-0.0074 0.0673,-0.0224 0.015,-0.015 0.03,-0.03 0.045,-0.0449 l 1.415,-1.1905 c 0.0299,-0.0299 0.0562,-0.0674 0.0786,-0.1123 0.0225,-0.0449 0.0337,-0.0973 0.0337,-0.1572 0,0 0,-0.0037 0,-0.0112 0,-0.0075 0,-0.0113 0,-0.0113 0,-0.0599 -0.015,-0.1123 -0.0449,-0.1572 -0.03,-0.0449 -0.0674,-0.0749 -0.1123,-0.0898 l -2.4932,-1.5723 v -1.3252 c 0,-0.0898 -0.0337,-0.1685 -0.1011,-0.2358 -0.0673,-0.0674 -0.146,-0.1011 -0.2358,-0.1011 -0.0898,0 -0.1685,0.0337 -0.2358,0.1011 -0.0674,0.0673 -0.1011,0.146 -0.1011,0.2358 v 1.1231 c -0.0449,0.0149 -0.0786,0.0374 -0.1011,0.0673 -0.0224,0.03 -0.0412,0.0674 -0.0561,0.1123 l -2.53813,1.6172 c -0.04492,0.03 -0.07861,0.0674 -0.10107,0.1123 -0.02246,0.045 -0.04118,0.0974 -0.05615,0.1573 0,0 0,0.0037 0,0.0112 0,0.0075 0,0.0112 0,0.0112 0,0.0449 0.01123,0.0899 0.03369,0.1348 0.02246,0.0449 0.05615,0.0823 0.10107,0.1123 l 1.39258,1.2129 h 0.06738 v 0.4492 H 3.81836 c -0.02995,0 -0.05615,0.0075 -0.07861,0.0225 -0.02246,0.0149 -0.04118,0.0299 -0.05616,0.04488 l -1.9541,2.71778 c 0,0 0,0.00374 0,0.01123 0,0.00748 0,0.01871 0,0.03369 0,0.01497 0,0.0262 0,0.03369 0,0.00749 0,0.01123 0,0.01123 v 4.73926 c 0,0.04492 0.01498,0.0861 0.04492,0.12353 0.02995,0.03744 0.06739,0.05616 0.11231,0.05616 h 1.70703 c 0.04492,0 0.08236,-0.01872 0.1123,-0.05616 C 3.736,-2.36214 3.75098,-2.40332 3.75098,-2.44824 V -3.50391 L 4.2002,-3.93066 h 4.67187 v 0.58398 c 0,0.04492 0.01872,0.08236 0.05615,0.1123 0.03744,0.02995 0.07862,0.04493 0.12354,0.04493 H 9.6582 v 0.74121 c 0,0.04492 0.01872,0.08235 0.05616,0.1123 0.03743,0.02995 0.07861,0.04492 0.12353,0.04492 h 3.52641 c 0.0449,0 0.0823,-0.01497 0.1123,-0.04492 0.0299,-0.02995 0.0449,-0.06738 0.0449,-0.1123 v -0.74121 h 0.6738 c 0.0599,0 0.1048,-0.01872 0.1348,-0.05616 0.0299,-0.03743 0.0449,-0.07861 0.0449,-0.12353 v -0.56152 h 4.1777 l 0.7637,0.42675 v 1.05567 c 0,0.04492 0.0187,0.08235 0.0562,0.1123 0.0374,0.02995 0.0786,0.04492 0.1235,0.04492 h 1.3477 c 0.0299,0 0.0598,-0.01497 0.0898,-0.04492 0.0299,-0.02995 0.0449,-0.06738 0.0449,-0.1123 V -7.1875 c 0,-0.01497 0,-0.0262 0,-0.03369 0,-0.00749 0,-0.01123 0,-0.01123 0,-0.01498 0,-0.02621 0,-0.03369 0,-0.00749 0,-0.01872 0,-0.03369 m -3.8408,-1.70704 v 2.2461 h -2.2461 v -2.2461 h 2.2461 m -12.39844,0.292 v 1.9541 H 3.09961 l 1.63965,-1.9541 m 1.23535,1.9541 v -2.2461 H 8.2207 v 2.2461 H 5.97461 m 7.20999,-2.2461 v 2.2461 H 9.47852 v -2.2461 h 3.70608 m 6.7383,2.2461 h -1.6622 v -1.9541 l 1.6622,1.9541 m -10.69145,-5.16606 2.17875,-1.3925 2.2011,1.3925 -1.0556,0.9209 c -0.015,0 -0.03,0.0075 -0.045,0.0225 -0.0149,0.015 -0.0299,0.0299 -0.0449,0.0449 h -2.1113 c -0.015,-0.015 -0.0262,-0.0299 -0.0337,-0.0449 -0.0075,-0.015 -0.0187,-0.0225 -0.0337,-0.0225 l -1.05565,-0.9209"
         id="path26"
         inkscape:connector-curvature="0"
         style="vector-effect:none;fill-rule:nonzero" />
    </g>
    <g
       transform="matrix(1.33333,0,0,1.33333,16,16)"
       font-size="8.25"
       font-weight="400"
       font-style="normal"
       id="g30"
       style="font-style:normal;font-weight:400;font-size:8.25px;font-family:'MS Shell Dlg 2';fill:none;stroke:#000000;stroke-width:1;stroke-linecap:square;stroke-linejoin:bevel;stroke-opacity:1" />
    <g
       transform="translate(16,16)"
       font-size="8.25"
       font-weight="400"
       font-style="normal"
       id="g32"
       style="font-style:normal;font-weight:400;font-size:8.25px;font-family:'MS Shell Dlg 2';fill:none;stroke:#000000;stroke-width:1;stroke-linecap:square;stroke-linejoin:bevel;stroke-opacity:1" />
    <g
       font-size="8.25"
       font-weight="400"
       font-style="normal"
       id="g34"
       style="font-style:normal;font-weight:400;font-size:8.25px;font-family:'MS Shell Dlg 2';fill:none;stroke:#000000;stroke-width:1;stroke-linecap:square;stroke-linejoin:bevel;stroke-opacity:1" />
  </g>
</svg>
