<?xml version="1.0" encoding="UTF-8" standalone="no"?>
<svg
   xmlns:dc="http://purl.org/dc/elements/1.1/"
   xmlns:cc="http://creativecommons.org/ns#"
   xmlns:rdf="http://www.w3.org/1999/02/22-rdf-syntax-ns#"
   xmlns:svg="http://www.w3.org/2000/svg"
   xmlns="http://www.w3.org/2000/svg"
   xmlns:sodipodi="http://sodipodi.sourceforge.net/DTD/sodipodi-0.dtd"
   xmlns:inkscape="http://www.inkscape.org/namespaces/inkscape"
   width="20"
   height="20"
   viewBox="0 0 20 20"
   version="1.2"
   id="svg52"
   sodipodi:docname="60203080412.svg"
   inkscape:version="0.92.4 (5da689c313, 2019-01-14)">
  <metadata
     id="metadata56">
    <rdf:RDF>
      <cc:Work
         rdf:about="">
        <dc:format>image/svg+xml</dc:format>
        <dc:type
           rdf:resource="http://purl.org/dc/dcmitype/StillImage" />
      </cc:Work>
    </rdf:RDF>
  </metadata>
  <sodipodi:namedview
     pagecolor="#ffffff"
     bordercolor="#666666"
     borderopacity="1"
     objecttolerance="10"
     gridtolerance="10"
     guidetolerance="10"
     inkscape:pageopacity="0"
     inkscape:pageshadow="2"
     inkscape:window-width="1920"
     inkscape:window-height="1017"
     id="namedview54"
     showgrid="false"
     inkscape:zoom="11.8"
     inkscape:cx="-5.2542373"
     inkscape:cy="10"
     inkscape:window-x="-8"
     inkscape:window-y="-8"
     inkscape:window-maximized="1"
     inkscape:current-layer="svg52" />
  <title
     id="title2">Qt SVG Document</title>
  <desc
     id="desc4">Generated with Qt</desc>
  <defs
     id="defs6" />
  <g
     id="g50"
     transform="matrix(0.66666667,0,0,0.66666667,-0.66666672,-0.66666672)"
     style="fill:none;fill-rule:evenodd;stroke:#000000;stroke-width:1;stroke-linecap:square;stroke-linejoin:bevel">
    <g
       transform="translate(16,16)"
       font-size="8.25"
       font-weight="400"
       font-style="normal"
       id="g8"
       style="font-style:normal;font-weight:400;font-size:8.25px;font-family:'MS Shell Dlg 2';fill:none;stroke:#000000;stroke-width:1;stroke-linecap:square;stroke-linejoin:bevel;stroke-opacity:1" />
    <g
       transform="matrix(1.33333,0,0,1.33333,16,16)"
       font-size="8.25"
       font-weight="400"
       font-style="normal"
       id="g10"
       style="font-style:normal;font-weight:400;font-size:8.25px;font-family:'MS Shell Dlg 2';fill:none;stroke:#000000;stroke-width:1;stroke-linecap:square;stroke-linejoin:bevel;stroke-opacity:1" />
    <g
       transform="translate(1,25.375)"
       font-size="22.6771"
       font-weight="400"
       font-style="normal"
       id="g14"
       style="font-style:normal;font-weight:400;font-size:22.67709923px;font-family:icomoon;fill:#ff0000;fill-opacity:1;stroke:none">
      <path
         d="M 2.63672,-24.375 H 27.3633 c 0.7226,0 1.3428,0.2588 1.8603,0.7764 0.5176,0.5175 0.7764,1.1377 0.7764,1.8603 V 2.98828 C 30,3.71094 29.7412,4.33105 29.2236,4.84863 28.7061,5.36621 28.0859,5.625 27.3633,5.625 H 2.63672 C 1.91406,5.625 1.29395,5.36621 0.776367,4.84863 0.258789,4.33105 0,3.71094 0,2.98828 V -21.7383 c 0,-0.7226 0.258789,-1.3428 0.776367,-1.8603 0.517583,-0.5176 1.137693,-0.7764 1.860353,-0.7764"
         id="path12"
         inkscape:connector-curvature="0"
         style="vector-effect:none;fill-rule:nonzero" />
    </g>
    <g
       transform="matrix(1.33333,0,0,1.33333,16,16)"
       font-size="8.25"
       font-weight="400"
       font-style="normal"
       id="g16"
       style="font-style:normal;font-weight:400;font-size:8.25px;font-family:'MS Shell Dlg 2';fill:none;stroke:#000000;stroke-width:1;stroke-linecap:square;stroke-linejoin:bevel;stroke-opacity:1" />
    <g
       transform="translate(16,16)"
       font-size="8.25"
       font-weight="400"
       font-style="normal"
       id="g18"
       style="font-style:normal;font-weight:400;font-size:8.25px;font-family:'MS Shell Dlg 2';fill:none;stroke:#000000;stroke-width:1;stroke-linecap:square;stroke-linejoin:bevel;stroke-opacity:1" />
    <g
       font-size="8.25"
       font-weight="400"
       font-style="normal"
       id="g20"
       style="font-style:normal;font-weight:400;font-size:8.25px;font-family:'MS Shell Dlg 2';fill:none;stroke:#000000;stroke-width:1;stroke-linecap:square;stroke-linejoin:bevel;stroke-opacity:1" />
    <g
       transform="translate(16,16)"
       font-size="8.25"
       font-weight="400"
       font-style="normal"
       id="g22"
       style="font-style:normal;font-weight:400;font-size:8.25px;font-family:'MS Shell Dlg 2';fill:none;stroke:#000000;stroke-width:1;stroke-linecap:square;stroke-linejoin:bevel;stroke-opacity:1" />
    <g
       transform="matrix(1.33333,0,0,1.33333,16,16)"
       font-size="8.25"
       font-weight="400"
       font-style="normal"
       id="g24"
       style="font-style:normal;font-weight:400;font-size:8.25px;font-family:'MS Shell Dlg 2';fill:none;stroke:#000000;stroke-width:1;stroke-linecap:square;stroke-linejoin:bevel;stroke-opacity:1" />
    <g
       transform="translate(4.5,23.1875)"
       font-size="17.0078"
       font-weight="400"
       font-style="normal"
       id="g28"
       style="font-style:normal;font-weight:400;font-size:17.00779915px;font-family:icomoon;fill:#000000;fill-opacity:1;stroke:none">
      <path
         d="m 20.9785,-18.0137 c 0.3744,0 0.6926,0.1311 0.9546,0.3931 0.262,0.262 0.3931,0.5802 0.3931,0.9546 V 2.29102 c 0,0.37434 -0.1311,0.69254 -0.3931,0.95459 -0.262,0.26204 -0.5802,0.39306 -0.9546,0.39306 H 2.02148 C 1.64714,3.63867 1.32894,3.50765 1.06689,3.24561 0.80485,2.98356 0.673828,2.66536 0.673828,2.29102 V -16.666 c 0,-0.3744 0.131022,-0.6926 0.393062,-0.9546 0.26205,-0.262 0.58025,-0.3931 0.95459,-0.3931 H 20.9785 m 0,-0.6738 H 2.02148 c -0.55403,0 -1.029455,0.1984 -1.426265,0.5952 C 0.198405,-17.6955 0,-17.2201 0,-16.666 V 2.29102 C 0,2.84505 0.198405,3.32048 0.595215,3.71729 0.992025,4.1141 1.46745,4.3125 2.02148,4.3125 H 20.9785 c 0.5541,0 1.0295,-0.1984 1.4263,-0.59521 C 22.8016,3.32048 23,2.84505 23,2.29102 V -16.666 c 0,-0.5541 -0.1984,-1.0295 -0.5952,-1.4263 -0.3968,-0.3968 -0.8722,-0.5952 -1.4263,-0.5952 m -4.2226,16.01465 c 0.1796,-0.19466 0.3219,-0.41927 0.4267,-0.67383 0.1048,-0.25456 0.1572,-0.52409 0.1572,-0.80859 0,-0.01498 0,-0.02621 0,-0.03369 0,-0.00749 0,-0.01124 0,-0.01124 v -8.6475 c 0,-0.0149 0,-0.0262 0,-0.0336 0,-0.0075 0,-0.0188 0,-0.0337 0,-0.3145 -0.0636,-0.6065 -0.1909,-0.876 -0.1273,-0.2695 -0.2882,-0.5091 -0.4829,-0.7188 h -0.0224 c -0.1947,-0.2096 -0.4343,-0.3743 -0.7188,-0.4941 -0.2845,-0.1198 -0.584,-0.1797 -0.8984,-0.1797 0,0 -0.0038,0 -0.0113,0 -0.0075,0 -0.0187,0 -0.0337,0 H 8.40039 c 0,0 -0.00749,0 -0.02246,0 -0.01497,0 -0.02995,0 -0.04492,0 -0.31446,0 -0.61019,0.0599 -0.88721,0.1797 -0.27702,0.1198 -0.52034,0.2845 -0.72998,0.4941 -0.20964,0.2097 -0.37435,0.4493 -0.49414,0.7188 -0.11979,0.2695 -0.17969,0.5615 -0.17969,0.876 0,0.0149 0,0.0262 0,0.0337 0,0.0074 0,0.0187 0,0.0336 v 8.6475 c 0,0.58399 0.18718,1.0931 0.56153,1.52735 0.37434,0.43424 0.83854,0.70377 1.39257,0.80859 H 8.01855 L 5.03125,2.56055 H 6.71582 L 8.7373,-0.449219 h 5.8623 l 2.0215,3.009769 h 1.6846 l -2.9873,-4.42481 c 0.2994,-0.04492 0.569,-0.13851 0.8086,-0.28076 0.2395,-0.14225 0.4492,-0.3182 0.6289,-0.52783 M 10.04,-14.5098 c 0,-0.0898 0.0188,-0.1572 0.0562,-0.2021 0.0374,-0.0449 0.1011,-0.0674 0.1909,-0.0674 h 2.7402 c 0.1049,0 0.1835,0.0225 0.2359,0.0674 0.0524,0.0449 0.0786,0.1123 0.0786,0.2021 v 0.9209 c 0,0 0,0.0038 0,0.0113 0,0.0075 0,0.0187 0,0.0337 0,0.0748 -0.0262,0.1385 -0.0786,0.1909 -0.0524,0.0524 -0.1161,0.0786 -0.1909,0.0786 -0.015,0 -0.0262,0 -0.0337,0 -0.0075,0 -0.0113,0 -0.0113,0 h -2.7402 c -0.1647,0 -0.2471,-0.1048 -0.2471,-0.3145 v -0.9209 m -2.60543,2.8301 c 0,-0.015 0,-0.0262 0,-0.0337 0,-0.0075 0,-0.0112 0,-0.0112 0,-0.2995 0.10482,-0.5503 0.31445,-0.7525 0.20964,-0.2021 0.45671,-0.3032 0.74121,-0.3032 0.01498,0 0.02621,0 0.0337,0 0.00748,0 0.01871,0 0.03369,0 h 6.19918 c 0.015,0 0.0262,0 0.0337,0 0.0075,0 0.0113,0 0.0113,0 0.1497,0 0.292,0.0262 0.4267,0.0786 0.1348,0.0524 0.2546,0.1236 0.3594,0.2134 0.0898,0.1048 0.1647,0.2209 0.2246,0.3482 0.0599,0.1272 0.0898,0.2658 0.0898,0.4155 0,0 0,0.0075 0,0.0225 0,0.0149 0,0.0224 0,0.0224 v 1.79689 c 0,0 0,0.00374 0,0.01123 0,0.00748 0,0.01872 0,0.03369 0,0.14974 -0.0299,0.28825 -0.0898,0.41553 -0.0599,0.12728 -0.1348,0.23584 -0.2246,0.32568 -0.1048,0.10482 -0.2246,0.18343 -0.3594,0.23584 -0.1347,0.05241 -0.277,0.07861 -0.4267,0.07861 0,0 -0.0038,0 -0.0113,0 -0.0075,0 -0.0187,0 -0.0337,0 H 8.55762 c 0,0 -0.00749,0 -0.02246,0 -0.01498,0 -0.02995,0 -0.04493,0 -0.2845,0 -0.53157,-0.10481 -0.74121,-0.31445 -0.20963,-0.20964 -0.31445,-0.45671 -0.31445,-0.74121 0,-0.01497 0,-0.02621 0,-0.03369 0,-0.00749 0,-0.01872 0,-0.03369 v 0.02246 -1.79689 m 1.79688,8.37794 c -0.08985,0.08985 -0.19841,0.16097 -0.32569,0.21338 -0.12728,0.05241 -0.2583,0.07861 -0.39306,0.07861 0,0 -0.00375,0 -0.01124,0 -0.00748,0 -0.01123,0 -0.01123,0 -0.01497,0 -0.0262,0 -0.03369,0 -0.00748,0 -0.01123,0 -0.01123,0 -0.14974,0 -0.28825,-0.0262 -0.41552,-0.07861 C 7.90251,-3.14079 7.78646,-3.21191 7.68164,-3.30176 7.5918,-3.40658 7.52067,-3.52637 7.46826,-3.66113 7.41585,-3.7959 7.38965,-3.93815 7.38965,-4.08789 c 0,-0.14974 0.0262,-0.29199 0.07861,-0.42676 0.05241,-0.13476 0.12354,-0.25456 0.21338,-0.35937 0.08984,-0.08985 0.19841,-0.16097 0.32568,-0.21338 0.12728,-0.05241 0.26579,-0.07862 0.41553,-0.07862 0.01498,0 0.02995,0 0.04492,0 0.01498,0 0.02995,0 0.04493,0 0.13476,0 0.26578,0.02995 0.39306,0.08985 0.12728,0.05989 0.23584,0.14225 0.32569,0.24707 0.10481,0.10482 0.18343,0.22461 0.23584,0.35937 0.0524,0.13477 0.07861,0.27702 0.07861,0.42676 0,0.14974 -0.02621,0.29199 -0.07861,0.42676 -0.05241,0.13476 -0.13103,0.25456 -0.23584,0.35937 v -0.04492 m 4.85155,0 c -0.0898,-0.10482 -0.1647,-0.22461 -0.2246,-0.35937 -0.0599,-0.13477 -0.0898,-0.27702 -0.0898,-0.42676 0,-0.14974 0.0299,-0.29199 0.0898,-0.42676 0.0599,-0.13476 0.1348,-0.25456 0.2246,-0.35937 0.0899,-0.08985 0.1947,-0.16097 0.3145,-0.21338 0.1198,-0.05241 0.247,-0.07862 0.3818,-0.07862 0.015,0 0.0262,0 0.0337,0 0.0075,0 0.0187,0 0.0337,0 h -0.0225 c 0.015,0 0.0262,0 0.0337,0 0.0075,0 0.0187,0 0.0337,0 0.1497,0 0.292,0.02995 0.4268,0.08985 0.1347,0.05989 0.247,0.14225 0.3369,0.24707 0.0898,0.08984 0.1609,0.1984 0.2134,0.32568 0.0524,0.12728 0.0786,0.26579 0.0786,0.41553 0,0 0,0.00749 0,0.02246 0,0.01497 0,0.03369 0,0.05615 0,0.02246 0,0.04118 0,0.05615 0,0.26954 -0.0936,0.50163 -0.2808,0.69629 -0.1872,0.19467 -0.4155,0.292 -0.6851,0.292 -0.0299,0 -0.0561,0 -0.0786,0 -0.0224,0 -0.0486,0 -0.0786,0 -0.1347,-0.01498 -0.2658,-0.04867 -0.393,-0.10108 -0.1273,-0.05241 -0.2359,-0.13102 -0.3257,-0.23584 H 14.083 m -1.46,-12.21874 c 0.0899,0 0.176,-0.0187 0.2583,-0.0562 0.0824,-0.0374 0.1535,-0.0861 0.2134,-0.146 0.0599,-0.0599 0.1086,-0.131 0.146,-0.2133 0.0375,-0.0824 0.0562,-0.176 0.0562,-0.2808 0,0 0,-0.0075 0,-0.0225 0,0 0,-0.0074 0,-0.0224 0,-0.0899 -0.0187,-0.176 -0.0562,-0.2583 -0.0374,-0.0824 -0.0861,-0.1535 -0.146,-0.2134 -0.0599,-0.0599 -0.131,-0.1086 -0.2134,-0.146 -0.0823,-0.0374 -0.1684,-0.0561 -0.2583,-0.0561 0,0 -0.0037,0 -0.0112,0 -0.0075,0 -0.0187,0 -0.0337,0 -0.0898,0 -0.1759,0.0187 -0.2583,0.0561 -0.0823,0.0374 -0.1535,0.0861 -0.2134,0.146 -0.0599,0.0599 -0.1085,0.131 -0.146,0.2134 -0.0374,0.0823 -0.0561,0.1684 -0.0561,0.2583 0,0 0,0.0037 0,0.0112 0,0.0075 0,0.0112 0,0.0112 0,0.015 0,0.0262 0,0.0337 0,0.0075 0,0.0113 0,0.0113 0,0.0898 0.0187,0.1759 0.0561,0.2583 0.0375,0.0823 0.0861,0.1534 0.146,0.2133 0.0599,0.0599 0.1311,0.1086 0.2134,0.146 0.0824,0.0375 0.1685,0.0562 0.2583,0.0562 0.015,0 0.0262,0 0.0337,0 0.0075,0 0.0112,0 0.0112,0 m -1.9765,0 c 0.1048,0 0.2021,-0.0187 0.292,-0.0562 0.0898,-0.0374 0.1647,-0.0861 0.2246,-0.146 0.0749,-0.0599 0.131,-0.1347 0.1684,-0.2246 0.0375,-0.0898 0.0562,-0.1871 0.0562,-0.292 0,-0.0898 -0.0187,-0.1796 -0.0562,-0.2695 -0.0374,-0.0898 -0.0935,-0.1647 -0.1684,-0.2246 -0.0599,-0.0599 -0.1348,-0.1086 -0.2246,-0.146 -0.0899,-0.0374 -0.1872,-0.0561 -0.292,-0.0561 -0.0899,0 -0.176,0.0187 -0.2583,0.0561 -0.0824,0.0374 -0.1535,0.0861 -0.2134,0.146 -0.0599,0.0599 -0.1086,0.131 -0.146,0.2134 -0.03743,0.0823 -0.05614,0.1759 -0.05614,0.2807 0,0 0,0.0038 0,0.0113 0,0.0075 0,0.0112 0,0.0112 0,0.0898 0.01871,0.1797 0.05614,0.2695 0.0374,0.0899 0.0861,0.1647 0.146,0.2246 0.0599,0.0599 0.131,0.1086 0.2134,0.146 0.0823,0.0375 0.1684,0.0562 0.2583,0.0562"
         id="path26"
         inkscape:connector-curvature="0"
         style="vector-effect:none;fill-rule:nonzero" />
    </g>
    <g
       transform="matrix(1.33333,0,0,1.33333,16,16)"
       font-size="8.25"
       font-weight="400"
       font-style="normal"
       id="g30"
       style="font-style:normal;font-weight:400;font-size:8.25px;font-family:'MS Shell Dlg 2';fill:none;stroke:#000000;stroke-width:1;stroke-linecap:square;stroke-linejoin:bevel;stroke-opacity:1" />
    <g
       transform="translate(16,16)"
       font-size="8.25"
       font-weight="400"
       font-style="normal"
       id="g32"
       style="font-style:normal;font-weight:400;font-size:8.25px;font-family:'MS Shell Dlg 2';fill:none;stroke:#000000;stroke-width:1;stroke-linecap:square;stroke-linejoin:bevel;stroke-opacity:1" />
    <g
       font-size="8.25"
       font-weight="400"
       font-style="normal"
       id="g34"
       style="font-style:normal;font-weight:400;font-size:8.25px;font-family:'MS Shell Dlg 2';fill:none;stroke:#000000;stroke-width:1;stroke-linecap:square;stroke-linejoin:bevel;stroke-opacity:1" />
    <g
       transform="translate(16,16)"
       font-size="8.25"
       font-weight="400"
       font-style="normal"
       id="g36"
       style="font-style:normal;font-weight:400;font-size:8.25px;font-family:'MS Shell Dlg 2';fill:none;stroke:#000000;stroke-width:1;stroke-linecap:square;stroke-linejoin:bevel;stroke-opacity:1" />
    <g
       transform="matrix(1.33333,0,0,1.33333,16,16)"
       font-size="8.25"
       font-weight="400"
       font-style="normal"
       id="g38"
       style="font-style:normal;font-weight:400;font-size:8.25px;font-family:'MS Shell Dlg 2';fill:none;stroke:#000000;stroke-width:1;stroke-linecap:square;stroke-linejoin:bevel;stroke-opacity:1" />
    <g
       transform="translate(1,25.375)"
       font-size="22.6771"
       font-weight="400"
       font-style="normal"
       id="g42"
       style="font-style:normal;font-weight:400;font-size:22.67709923px;font-family:icomoon;fill:#000000;fill-opacity:1;stroke:none">
      <path
         d="m 26.4258,-22.2363 c 0.3906,0 0.7275,0.1416 1.0107,0.4248 0.2832,0.2832 0.4248,0.6201 0.4248,1.0107 V 2.05078 c 0,0.39063 -0.1416,0.72754 -0.4248,1.01074 -0.2832,0.28321 -0.6201,0.42481 -1.0107,0.42481 H 3.57422 C 3.18359,3.48633 2.84668,3.34473 2.56348,3.06152 2.28027,2.77832 2.13867,2.44141 2.13867,2.05078 V -20.8008 c 0,-0.3906 0.1416,-0.7275 0.42481,-1.0107 0.2832,-0.2832 0.62011,-0.4248 1.01074,-0.4248 H 26.4258 m 0,-0.7032 H 3.57422 c -0.58594,0 -1.08887,0.21 -1.50879,0.6299 -0.41992,0.42 -0.62988,0.9229 -0.62988,1.5088 V 2.05078 c 0,0.58594 0.20996,1.08887 0.62988,1.50879 0.41992,0.41992 0.92285,0.62988 1.50879,0.62988 H 26.4258 c 0.5859,0 1.0888,-0.20996 1.5088,-0.62988 0.4199,-0.41992 0.6299,-0.92285 0.6299,-1.50879 V -20.8008 c 0,-0.5859 -0.21,-1.0888 -0.6299,-1.5088 -0.42,-0.4199 -0.9229,-0.6299 -1.5088,-0.6299 m 1.4355,-0.7324 c 0.3907,0 0.7276,0.1416 1.0108,0.4248 0.2832,0.2832 0.4248,0.6201 0.4248,1.0108 V 3.48633 c 0,0.39062 -0.1416,0.72754 -0.4248,1.01074 -0.2832,0.2832 -0.6201,0.42481 -1.0108,0.42481 H 2.13867 C 1.74805,4.92188 1.41113,4.78027 1.12793,4.49707 0.844727,4.21387 0.703125,3.87695 0.703125,3.48633 V -22.2363 c 0,-0.3907 0.141602,-0.7276 0.424805,-1.0108 0.2832,-0.2832 0.62012,-0.4248 1.01074,-0.4248 H 27.8613 m 0,-0.7031 H 2.13867 c -0.58594,0 -1.08887,0.21 -1.508787,0.6299 C 0.209961,-23.3252 0,-22.8223 0,-22.2363 V 3.48633 C 0,4.07227 0.209961,4.5752 0.629883,4.99512 1.0498,5.41504 1.55273,5.625 2.13867,5.625 H 27.8613 c 0.586,0 1.0889,-0.20996 1.5088,-0.62988 C 29.79,4.5752 30,4.07227 30,3.48633 V -22.2363 c 0,-0.586 -0.21,-1.0889 -0.6299,-1.5088 -0.4199,-0.4199 -0.9228,-0.6299 -1.5088,-0.6299"
         id="path40"
         inkscape:connector-curvature="0"
         style="vector-effect:none;fill-rule:nonzero" />
    </g>
    <g
       transform="matrix(1.33333,0,0,1.33333,16,16)"
       font-size="8.25"
       font-weight="400"
       font-style="normal"
       id="g44"
       style="font-style:normal;font-weight:400;font-size:8.25px;font-family:'MS Shell Dlg 2';fill:none;stroke:#000000;stroke-width:1;stroke-linecap:square;stroke-linejoin:bevel;stroke-opacity:1" />
    <g
       transform="translate(16,16)"
       font-size="8.25"
       font-weight="400"
       font-style="normal"
       id="g46"
       style="font-style:normal;font-weight:400;font-size:8.25px;font-family:'MS Shell Dlg 2';fill:none;stroke:#000000;stroke-width:1;stroke-linecap:square;stroke-linejoin:bevel;stroke-opacity:1" />
    <g
       font-size="8.25"
       font-weight="400"
       font-style="normal"
       id="g48"
       style="font-style:normal;font-weight:400;font-size:8.25px;font-family:'MS Shell Dlg 2';fill:none;stroke:#000000;stroke-width:1;stroke-linecap:square;stroke-linejoin:bevel;stroke-opacity:1" />
  </g>
</svg>
