<svg xmlns="http://www.w3.org/2000/svg" width="20" height="20" version="1.2">
    <g font-weight="400" style="fill:none;fill-rule:evenodd;stroke:#000;stroke-width:1;stroke-linecap:square;stroke-linejoin:bevel">
        <g style="font-style:normal;font-weight:400;font-size:22.67709923px;font-family:icomoon;fill:#fff;fill-opacity:1;stroke:none">
            <path d="M2.637-24.375h24.726c.723 0 1.343.259 1.86.776.518.518.777 1.138.777 1.86V2.989c0 .723-.259 1.343-.776 1.86a2.538 2.538 0 0 1-1.86.777H2.636a2.538 2.538 0 0 1-1.86-.776A2.538 2.538 0 0 1 0 2.989v-24.727c0-.723.259-1.343.776-1.86a2.538 2.538 0 0 1 1.86-.777" font-size="22.677" style="vector-effect:none;fill-rule:nonzero" transform="matrix(.66667 0 0 .66667 0 16.25)"/>
        </g>
        <g style="font-style:normal;font-weight:400;font-size:17.00779915px;font-family:icomoon;fill:#000;fill-opacity:1;stroke:none">
            <path d="M20.979-18.014a1.3 1.3 0 0 1 .954.393 1.3 1.3 0 0 1 .393.955V2.291a1.3 1.3 0 0 1-.393.955 1.3 1.3 0 0 1-.955.393H2.021a1.3 1.3 0 0 1-.954-.393 1.3 1.3 0 0 1-.393-.955v-18.957a1.3 1.3 0 0 1 .393-.955 1.3 1.3 0 0 1 .954-.393h18.957m0-.674H2.021c-.554 0-1.029.199-1.426.596A1.946 1.946 0 0 0 0-16.666V2.291c0 .554.198 1.03.595 1.426.397.397.872.595 1.426.595h18.957c.555 0 1.03-.198 1.427-.595.397-.397.595-.872.595-1.426v-18.957c0-.554-.198-1.03-.595-1.426a1.946 1.946 0 0 0-1.426-.596M17.767-4.335h-2.202v-1.258l2.83-2.83c.42-.36.753-.797 1-1.314.247-.516.37-1.074.37-1.673 0-1.093-.389-2.03-1.167-2.808-.779-.778-1.715-1.168-2.808-1.168-1.093 0-2.025.39-2.796 1.168-.772.779-1.157 1.715-1.157 2.808 0 1.093.385 2.025 1.157 2.796.77.771 1.703 1.157 2.796 1.157h.022c.12 0 .244-.008.371-.022l.37-.045h-.022l-1.168 1.19a1.388 1.388 0 0 0-.483-.472 1.276 1.276 0 0 0-.662-.18H8.917c-.255 0-.487.068-.696.203-.21.135-.375.307-.494.516l-1.28-1.257.359.045c.12.014.247.022.382.022h.022c1.108 0 2.051-.39 2.83-1.168.779-.779 1.168-1.722 1.168-2.83 0-1.093-.39-2.029-1.168-2.808-.779-.778-1.722-1.168-2.83-1.168s-2.051.39-2.83 1.168c-.779.779-1.168 1.715-1.168 2.808 0 .614.127 1.18.382 1.696a4.35 4.35 0 0 0 1.01 1.336L7.57-5.48v5.143c0 .374.131.693.393.955a1.3 1.3 0 0 0 .955.393h5.278c.375 0 .697-.131.966-.393.27-.262.404-.58.404-.955v-2.066h2.202v.718h1.504V-5.12h-1.504v.786m-1.955-3.796a3.182 3.182 0 0 1-2.335-.966 3.182 3.182 0 0 1-.966-2.336c0-.913.322-1.692.966-2.336a3.182 3.182 0 0 1 2.335-.965c.914 0 1.693.322 2.336.965.644.644.966 1.423.966 2.336a3.282 3.282 0 0 1-.977 2.336c-.636.644-1.411.966-2.325.966M3.886-11.433c0-.913.322-1.692.966-2.336a3.182 3.182 0 0 1 2.335-.965c.914 0 1.693.322 2.336.965.644.644.966 1.423.966 2.336 0 .914-.322 1.692-.966 2.336a3.182 3.182 0 0 1-2.335.966c-.914 0-1.689-.322-2.325-.966a3.282 3.282 0 0 1-.977-2.336" font-size="17.008" style="vector-effect:none;fill-rule:nonzero" transform="matrix(.66667 0 0 .66667 2.333 14.792)"/>
        </g>
        <g style="font-style:normal;font-weight:400;font-size:22.67709923px;font-family:icomoon;fill:#000;fill-opacity:1;stroke:none">
            <path d="M26.426-22.236c.39 0 .727.141 1.01.425.284.283.425.62.425 1.01V2.051c0 .39-.141.727-.425 1.01a1.38 1.38 0 0 1-1.01.425H3.574a1.38 1.38 0 0 1-1.01-.424 1.38 1.38 0 0 1-.425-1.011v-22.852c0-.39.141-.727.424-1.01a1.38 1.38 0 0 1 1.011-.425h22.852m0-.703H3.574c-.586 0-1.089.21-1.509.63-.42.42-.63.922-.63 1.508V2.051c0 .586.21 1.089.63 1.509.42.42.923.63 1.51.63h22.85c.587 0 1.09-.21 1.51-.63.42-.42.63-.923.63-1.51V-20.8c0-.587-.21-1.09-.63-1.51-.42-.42-.923-.63-1.51-.63m1.436-.732c.391 0 .728.142 1.011.425.283.283.425.62.425 1.01V3.487c0 .39-.142.728-.425 1.011a1.38 1.38 0 0 1-1.01.425H2.138a1.38 1.38 0 0 1-1.011-.425 1.38 1.38 0 0 1-.425-1.01v-25.723c0-.391.142-.728.425-1.011a1.38 1.38 0 0 1 1.01-.425h25.723m0-.703H2.14c-.586 0-1.09.21-1.51.63-.419.42-.629.923-.629 1.509V3.486c0 .586.21 1.09.63 1.51.42.419.923.629 1.509.629H27.86c.586 0 1.09-.21 1.51-.63.419-.42.629-.923.629-1.509v-25.722c0-.586-.21-1.09-.63-1.51-.42-.419-.923-.629-1.509-.629" font-size="22.677" style="vector-effect:none;fill-rule:nonzero" transform="matrix(.66667 0 0 .66667 0 16.25)"/>
        </g>
        <g style="font-style:normal;font-weight:400;font-size:21.54330063px;font-family:icomoon;fill:red;fill-opacity:1;stroke:none">
            <path d="M.906 5.438a.847.847 0 0 1-.354-.071 1.409 1.409 0 0 1-.297-.184 1.408 1.408 0 0 1-.184-.298A.847.847 0 0 1 0 4.531c0-.132.024-.25.07-.354.048-.104.11-.203.185-.297l27.187-27.188a1.41 1.41 0 0 1 .298-.184.847.847 0 0 1 .354-.07c.245 0 .458.09.637.269.18.179.269.391.269.637 0 .132-.024.25-.07.354a1.41 1.41 0 0 1-.185.297L1.558 5.183a1.408 1.408 0 0 1-.298.184.847.847 0 0 1-.354.07" font-size="21.543" style="vector-effect:none;fill-rule:nonzero" transform="matrix(.66667 0 0 .66667 .333 16.042)"/>
        </g>
    </g>
</svg>
