<svg xmlns="http://www.w3.org/2000/svg" width="20" height="20" version="1.2">
    <g font-weight="400" style="fill:none;fill-rule:evenodd;stroke:#000;stroke-width:1;stroke-linecap:square;stroke-linejoin:bevel">
        <g style="font-style:normal;font-weight:400;font-size:17.00779915px;font-family:icomoon;fill:#fff;fill-opacity:1;stroke:none">
            <path d="M2.021-18.688h18.957c.555 0 1.03.199 1.427.596.397.396.595.872.595 1.426V2.291c0 .554-.198 1.03-.595 1.426a1.946 1.946 0 0 1-1.427.595H2.021c-.554 0-1.029-.198-1.426-.595A1.946 1.946 0 0 1 0 2.291v-18.957c0-.554.198-1.03.595-1.426a1.946 1.946 0 0 1 1.426-.596" font-size="17.008" style="vector-effect:none;fill-rule:nonzero" transform="matrix(.65217 0 0 .65217 2.5 14.687)"/>
        </g>
        <g style="font-style:normal;font-weight:400;font-size:17.00779915px;font-family:icomoon;fill:#000;fill-opacity:1;stroke:none">
            <path d="M20.979-18.014a1.3 1.3 0 0 1 .954.393 1.3 1.3 0 0 1 .393.955V2.291a1.3 1.3 0 0 1-.393.955 1.3 1.3 0 0 1-.955.393H2.021a1.3 1.3 0 0 1-.954-.393 1.3 1.3 0 0 1-.393-.955v-18.957a1.3 1.3 0 0 1 .393-.955 1.3 1.3 0 0 1 .954-.393h18.957m0-.674H2.021c-.554 0-1.029.199-1.426.596A1.946 1.946 0 0 0 0-16.666V2.291c0 .554.198 1.03.595 1.426.397.397.872.595 1.426.595h18.957c.555 0 1.03-.198 1.427-.595.397-.397.595-.872.595-1.426v-18.957c0-.554-.198-1.03-.595-1.426a1.946 1.946 0 0 0-1.426-.596M17.767-4.335h-2.202v-1.258l2.83-2.83c.42-.36.753-.797 1-1.314.247-.516.37-1.074.37-1.673 0-1.093-.389-2.03-1.167-2.808-.779-.778-1.715-1.168-2.808-1.168-1.093 0-2.025.39-2.796 1.168-.772.779-1.157 1.715-1.157 2.808 0 1.093.385 2.025 1.157 2.796.77.771 1.703 1.157 2.796 1.157h.022c.12 0 .244-.008.371-.022l.37-.045h-.022l-1.168 1.19a1.388 1.388 0 0 0-.483-.472 1.276 1.276 0 0 0-.662-.18H8.917c-.255 0-.487.068-.696.203-.21.135-.375.307-.494.516l-1.28-1.257.359.045c.12.014.247.022.382.022h.022c1.108 0 2.051-.39 2.83-1.168.779-.779 1.168-1.722 1.168-2.83 0-1.093-.39-2.029-1.168-2.808-.779-.778-1.722-1.168-2.83-1.168s-2.051.39-2.83 1.168c-.779.779-1.168 1.715-1.168 2.808 0 .614.127 1.18.382 1.696a4.35 4.35 0 0 0 1.01 1.336L7.57-5.48v5.143c0 .374.131.693.393.955a1.3 1.3 0 0 0 .955.393h5.278c.375 0 .697-.131.966-.393.27-.262.404-.58.404-.955v-2.066h2.202v.718h1.504V-5.12h-1.504v.786m-1.955-3.796a3.182 3.182 0 0 1-2.335-.966 3.182 3.182 0 0 1-.966-2.336c0-.913.322-1.692.966-2.336a3.182 3.182 0 0 1 2.335-.965c.914 0 1.693.322 2.336.965.644.644.966 1.423.966 2.336a3.282 3.282 0 0 1-.977 2.336c-.636.644-1.411.966-2.325.966M3.886-11.433c0-.913.322-1.692.966-2.336a3.182 3.182 0 0 1 2.335-.965c.914 0 1.693.322 2.336.965.644.644.966 1.423.966 2.336 0 .914-.322 1.692-.966 2.336a3.182 3.182 0 0 1-2.335.966c-.914 0-1.689-.322-2.325-.966a3.282 3.282 0 0 1-.977-2.336" font-size="17.008" style="vector-effect:none;fill-rule:nonzero" transform="matrix(.65217 0 0 .65217 2.5 14.687)"/>
        </g>
        <g style="font-style:normal;font-weight:400;font-size:15.8739996px;font-family:icomoon;fill:red;fill-opacity:1;stroke:none">
            <path d="M.656 3.938A.613.613 0 0 1 .4 3.885a1.02 1.02 0 0 1-.215-.133 1.02 1.02 0 0 1-.134-.215A.613.613 0 0 1 0 3.28c0-.095.017-.18.051-.256a1.02 1.02 0 0 1 .134-.215l19.687-19.688c.068-.055.14-.1.215-.133a.613.613 0 0 1 .257-.051.63.63 0 0 1 .461.194.63.63 0 0 1 .195.462.613.613 0 0 1-.051.256 1.014 1.014 0 0 1-.134.215L1.128 3.753c-.068.055-.14.1-.215.133a.613.613 0 0 1-.257.051" font-size="15.874" style="vector-effect:none;fill-rule:nonzero" transform="matrix(.65217 0 0 .65217 3.152 14.28)"/>
        </g>
    </g>
</svg>
