<?xml version="1.0" encoding="UTF-8" standalone="no"?>
<svg
   xmlns:dc="http://purl.org/dc/elements/1.1/"
   xmlns:cc="http://creativecommons.org/ns#"
   xmlns:rdf="http://www.w3.org/1999/02/22-rdf-syntax-ns#"
   xmlns:svg="http://www.w3.org/2000/svg"
   xmlns="http://www.w3.org/2000/svg"
   xmlns:sodipodi="http://sodipodi.sourceforge.net/DTD/sodipodi-0.dtd"
   xmlns:inkscape="http://www.inkscape.org/namespaces/inkscape"
   width="20"
   height="20"
   viewBox="0 0 20 20"
   version="1.2"
   id="svg52"
   sodipodi:docname="60203130821.svg"
   inkscape:version="0.92.4 (5da689c313, 2019-01-14)">
  <metadata
     id="metadata56">
    <rdf:RDF>
      <cc:Work
         rdf:about="">
        <dc:format>image/svg+xml</dc:format>
        <dc:type
           rdf:resource="http://purl.org/dc/dcmitype/StillImage" />
      </cc:Work>
    </rdf:RDF>
  </metadata>
  <sodipodi:namedview
     pagecolor="#ffffff"
     bordercolor="#666666"
     borderopacity="1"
     objecttolerance="10"
     gridtolerance="10"
     guidetolerance="10"
     inkscape:pageopacity="0"
     inkscape:pageshadow="2"
     inkscape:window-width="1920"
     inkscape:window-height="1017"
     id="namedview54"
     showgrid="false"
     inkscape:zoom="11.8"
     inkscape:cx="-5.2542373"
     inkscape:cy="10"
     inkscape:window-x="-8"
     inkscape:window-y="-8"
     inkscape:window-maximized="1"
     inkscape:current-layer="svg52" />
  <title
     id="title2">Qt SVG Document</title>
  <desc
     id="desc4">Generated with Qt</desc>
  <defs
     id="defs6" />
  <g
     id="g50"
     transform="matrix(0.69230769,0,0,0.69230769,-1.076923,-1.076923)"
     style="fill:none;fill-rule:evenodd;stroke:#000000;stroke-width:1;stroke-linecap:square;stroke-linejoin:bevel">
    <g
       transform="translate(16,16)"
       font-size="8.25"
       font-weight="400"
       font-style="normal"
       id="g8"
       style="font-style:normal;font-weight:400;font-size:8.25px;font-family:'MS Shell Dlg 2';fill:none;stroke:#000000;stroke-width:1;stroke-linecap:square;stroke-linejoin:bevel;stroke-opacity:1" />
    <g
       transform="matrix(1.33333,0,0,1.33333,16,16)"
       font-size="8.25"
       font-weight="400"
       font-style="normal"
       id="g10"
       style="font-style:normal;font-weight:400;font-size:8.25px;font-family:'MS Shell Dlg 2';fill:none;stroke:#000000;stroke-width:1;stroke-linecap:square;stroke-linejoin:bevel;stroke-opacity:1" />
    <g
       transform="translate(3,24.125)"
       font-size="19.8425"
       font-weight="400"
       font-style="normal"
       id="g14"
       style="font-style:normal;font-weight:400;font-size:19.84250069px;font-family:icomoon;fill:#ffffff;fill-opacity:1;stroke:none">
      <path
         d="M 2.28516,-21.125 H 23.7148 c 0.6263,0 1.1638,0.2243 1.6123,0.6729 0.4486,0.4485 0.6729,0.986 0.6729,1.6123 V 2.58984 C 26,3.21615 25.7757,3.75358 25.3271,4.20215 24.8786,4.65072 24.3411,4.875 23.7148,4.875 H 2.28516 C 1.65885,4.875 1.12142,4.65072 0.672852,4.20215 0.224284,3.75358 0,3.21615 0,2.58984 V -18.8398 c 0,-0.6263 0.224284,-1.1638 0.672852,-1.6123 0.448568,-0.4486 0.985998,-0.6729 1.612308,-0.6729"
         id="path12"
         inkscape:connector-curvature="0"
         style="vector-effect:none;fill-rule:nonzero" />
    </g>
    <g
       transform="matrix(1.33333,0,0,1.33333,16,16)"
       font-size="8.25"
       font-weight="400"
       font-style="normal"
       id="g16"
       style="font-style:normal;font-weight:400;font-size:8.25px;font-family:'MS Shell Dlg 2';fill:none;stroke:#000000;stroke-width:1;stroke-linecap:square;stroke-linejoin:bevel;stroke-opacity:1" />
    <g
       transform="translate(16,16)"
       font-size="8.25"
       font-weight="400"
       font-style="normal"
       id="g18"
       style="font-style:normal;font-weight:400;font-size:8.25px;font-family:'MS Shell Dlg 2';fill:none;stroke:#000000;stroke-width:1;stroke-linecap:square;stroke-linejoin:bevel;stroke-opacity:1" />
    <g
       font-size="8.25"
       font-weight="400"
       font-style="normal"
       id="g20"
       style="font-style:normal;font-weight:400;font-size:8.25px;font-family:'MS Shell Dlg 2';fill:none;stroke:#000000;stroke-width:1;stroke-linecap:square;stroke-linejoin:bevel;stroke-opacity:1" />
    <g
       transform="translate(16,16)"
       font-size="8.25"
       font-weight="400"
       font-style="normal"
       id="g22"
       style="font-style:normal;font-weight:400;font-size:8.25px;font-family:'MS Shell Dlg 2';fill:none;stroke:#000000;stroke-width:1;stroke-linecap:square;stroke-linejoin:bevel;stroke-opacity:1" />
    <g
       transform="matrix(1.33333,0,0,1.33333,16,16)"
       font-size="8.25"
       font-weight="400"
       font-style="normal"
       id="g24"
       style="font-style:normal;font-weight:400;font-size:8.25px;font-family:'MS Shell Dlg 2';fill:none;stroke:#000000;stroke-width:1;stroke-linecap:square;stroke-linejoin:bevel;stroke-opacity:1" />
    <g
       transform="translate(4.5,23.1875)"
       font-size="17.0078"
       font-weight="400"
       font-style="normal"
       id="g28"
       style="font-style:normal;font-weight:400;font-size:17.00779915px;font-family:icomoon;fill:#000000;fill-opacity:1;stroke:none">
      <path
         d="m 20.9785,-18.0137 c 0.3744,0 0.6926,0.1311 0.9546,0.3931 0.262,0.262 0.3931,0.5802 0.3931,0.9546 V 2.29102 c 0,0.37434 -0.1311,0.69254 -0.3931,0.95459 -0.262,0.26204 -0.5802,0.39306 -0.9546,0.39306 H 2.02148 C 1.64714,3.63867 1.32894,3.50765 1.06689,3.24561 0.80485,2.98356 0.673828,2.66536 0.673828,2.29102 V -16.666 c 0,-0.3744 0.131022,-0.6926 0.393062,-0.9546 0.26205,-0.262 0.58025,-0.3931 0.95459,-0.3931 H 20.9785 m 0,-0.6738 H 2.02148 c -0.55403,0 -1.029455,0.1984 -1.426265,0.5952 C 0.198405,-17.6955 0,-17.2201 0,-16.666 V 2.29102 C 0,2.84505 0.198405,3.32048 0.595215,3.71729 0.992025,4.1141 1.46745,4.3125 2.02148,4.3125 H 20.9785 c 0.5541,0 1.0295,-0.1984 1.4263,-0.59521 C 22.8016,3.32048 23,2.84505 23,2.29102 V -16.666 c 0,-0.5541 -0.1984,-1.0295 -0.5952,-1.4263 -0.3968,-0.3968 -0.8722,-0.5952 -1.4263,-0.5952 M 16.3516,-1.77441 H 11.5 V -13.2295 h 1.0107 l 3.8409,11.45509 m -7.18754,-8.73729 -0.89843,-0.3819 -0.87598,0.3594 -0.89844,-0.4043 -0.87598,0.3594 -0.89843,-0.4043 -0.87598,0.3594 -0.89844,-0.4043 -0.74121,0.3144 -0.24707,-0.6289 1.01074,-0.4267 0.89844,0.4043 0.87598,-0.3594 0.89844,0.4043 0.87597,-0.3594 0.89844,0.4043 0.87598,-0.3594 0.89843,0.4043 0.87598,-0.3593 1.0332,0.4492 -0.292,0.6289 -0.7637,-0.3594 -0.87594,0.3594 m 0,2.04393 L 8.26563,-8.87207 7.38965,-8.5127 6.49121,-8.91699 5.61523,-8.55762 4.7168,-8.96191 3.84082,-8.60254 2.94238,-8.98438 l -0.74121,0.292 -0.24707,-0.62891 1.01074,-0.4043 0.89844,0.4043 0.87598,-0.35937 0.89844,0.38183 0.87597,-0.35937 0.89844,0.40429 0.87598,-0.35937 0.89843,0.4043 0.87598,-0.35938 1.0332,0.44922 -0.292,0.62891 -0.7637,-0.33692 -0.87594,0.35938 m 0,2.02148 L 8.26563,-6.85059 7.38965,-6.49121 6.49121,-6.87305 5.61523,-6.51367 4.7168,-6.91797 3.84082,-6.55859 2.94238,-6.96289 2.20117,-6.6709 1.9541,-7.2998 l 1.01074,-0.4043 0.89844,0.4043 0.87598,-0.35938 0.89844,0.4043 0.87597,-0.35938 0.89844,0.38184 0.87598,-0.33692 0.89843,0.38184 0.87598,-0.35938 1.0332,0.47168 -0.292,0.60645 -0.7637,-0.33691 -0.87594,0.35937 m 0,2.02149 L 8.26563,-4.80664 7.38965,-4.44727 6.49121,-4.85156 5.61523,-4.49219 4.7168,-4.89648 3.84082,-4.53711 2.94238,-4.94141 2.20117,-4.62695 1.9541,-5.25586 l 1.01074,-0.42676 0.89844,0.4043 0.87598,-0.35938 0.89844,0.4043 0.87597,-0.35937 0.89844,0.40429 0.87598,-0.35937 0.89843,0.4043 0.87598,-0.35938 1.0332,0.44922 -0.292,0.62891 L 10.04,-4.76172 9.16406,-4.4248 m 0,2.04394 L 8.26563,-2.78516 7.38965,-2.42578 6.49121,-2.83008 5.61523,-2.4707 4.7168,-2.875 3.84082,-2.51563 2.94238,-2.89746 2.20117,-2.60547 1.9541,-3.23438 l 1.01074,-0.40429 0.89844,0.40429 0.87598,-0.35937 0.89844,0.38184 0.87597,-0.35938 0.89844,0.4043 0.87598,-0.35938 0.89843,0.4043 0.87598,-0.35938 1.0332,0.47168 -0.292,0.60645 -0.7637,-0.33691 -0.87594,0.35937 m 9.56834,0.56152 -0.8984,-0.40429 -0.7412,0.29199 -0.2696,-0.62891 1.0332,-0.40429 0.876,0.40429 0.876,-0.35937 1.0332,0.44922 -0.2695,0.6289 -0.7637,-0.33691 -0.876,0.35937"
         id="path26"
         inkscape:connector-curvature="0"
         style="vector-effect:none;fill-rule:nonzero" />
    </g>
    <g
       transform="matrix(1.33333,0,0,1.33333,16,16)"
       font-size="8.25"
       font-weight="400"
       font-style="normal"
       id="g30"
       style="font-style:normal;font-weight:400;font-size:8.25px;font-family:'MS Shell Dlg 2';fill:none;stroke:#000000;stroke-width:1;stroke-linecap:square;stroke-linejoin:bevel;stroke-opacity:1" />
    <g
       transform="translate(16,16)"
       font-size="8.25"
       font-weight="400"
       font-style="normal"
       id="g32"
       style="font-style:normal;font-weight:400;font-size:8.25px;font-family:'MS Shell Dlg 2';fill:none;stroke:#000000;stroke-width:1;stroke-linecap:square;stroke-linejoin:bevel;stroke-opacity:1" />
    <g
       font-size="8.25"
       font-weight="400"
       font-style="normal"
       id="g34"
       style="font-style:normal;font-weight:400;font-size:8.25px;font-family:'MS Shell Dlg 2';fill:none;stroke:#000000;stroke-width:1;stroke-linecap:square;stroke-linejoin:bevel;stroke-opacity:1" />
    <g
       transform="translate(16,16)"
       font-size="8.25"
       font-weight="400"
       font-style="normal"
       id="g36"
       style="font-style:normal;font-weight:400;font-size:8.25px;font-family:'MS Shell Dlg 2';fill:none;stroke:#000000;stroke-width:1;stroke-linecap:square;stroke-linejoin:bevel;stroke-opacity:1" />
    <g
       transform="matrix(1.33333,0,0,1.33333,16,16)"
       font-size="8.25"
       font-weight="400"
       font-style="normal"
       id="g38"
       style="font-style:normal;font-weight:400;font-size:8.25px;font-family:'MS Shell Dlg 2';fill:none;stroke:#000000;stroke-width:1;stroke-linecap:square;stroke-linejoin:bevel;stroke-opacity:1" />
    <g
       transform="translate(3,24.125)"
       font-size="19.8425"
       font-weight="400"
       font-style="normal"
       id="g42"
       style="font-style:normal;font-weight:400;font-size:19.84250069px;font-family:icomoon;fill:#000000;fill-opacity:1;stroke:none">
      <path
         d="m 23.9434,-20.4395 c 0.3724,0 0.694,0.1355 0.9648,0.4063 0.2708,0.2708 0.4063,0.5924 0.4063,0.9648 V 2.81836 c 0,0.3724 -0.1355,0.69401 -0.4063,0.96484 -0.2708,0.27084 -0.5924,0.40625 -0.9648,0.40625 H 2.05664 C 1.68424,4.18945 1.36263,4.05404 1.0918,3.7832 0.820964,3.51237 0.685547,3.19076 0.685547,2.81836 V -19.0684 c 0,-0.3724 0.135417,-0.694 0.406253,-0.9648 0.27083,-0.2708 0.59244,-0.4063 0.96484,-0.4063 H 23.9434 m 0,-0.6855 H 2.05664 c -0.57552,0 -1.062174,0.1989 -1.45996,0.5967 C 0.198893,-20.1305 0,-19.6439 0,-19.0684 V 2.81836 C 0,3.39388 0.198893,3.88053 0.59668,4.27832 0.994466,4.67611 1.48112,4.875 2.05664,4.875 H 23.9434 c 0.5755,0 1.0621,-0.19889 1.4599,-0.59668 C 25.8011,3.88053 26,3.39388 26,2.81836 V -19.0684 c 0,-0.5755 -0.1989,-1.0621 -0.5967,-1.4599 -0.3978,-0.3978 -0.8844,-0.5967 -1.4599,-0.5967"
         id="path40"
         inkscape:connector-curvature="0"
         style="vector-effect:none;fill-rule:nonzero" />
    </g>
    <g
       transform="matrix(1.33333,0,0,1.33333,16,16)"
       font-size="8.25"
       font-weight="400"
       font-style="normal"
       id="g44"
       style="font-style:normal;font-weight:400;font-size:8.25px;font-family:'MS Shell Dlg 2';fill:none;stroke:#000000;stroke-width:1;stroke-linecap:square;stroke-linejoin:bevel;stroke-opacity:1" />
    <g
       transform="translate(16,16)"
       font-size="8.25"
       font-weight="400"
       font-style="normal"
       id="g46"
       style="font-style:normal;font-weight:400;font-size:8.25px;font-family:'MS Shell Dlg 2';fill:none;stroke:#000000;stroke-width:1;stroke-linecap:square;stroke-linejoin:bevel;stroke-opacity:1" />
    <g
       font-size="8.25"
       font-weight="400"
       font-style="normal"
       id="g48"
       style="font-style:normal;font-weight:400;font-size:8.25px;font-family:'MS Shell Dlg 2';fill:none;stroke:#000000;stroke-width:1;stroke-linecap:square;stroke-linejoin:bevel;stroke-opacity:1" />
  </g>
</svg>
