<?xml version="1.0" encoding="UTF-8" standalone="no"?>
<svg
   xmlns:dc="http://purl.org/dc/elements/1.1/"
   xmlns:cc="http://creativecommons.org/ns#"
   xmlns:rdf="http://www.w3.org/1999/02/22-rdf-syntax-ns#"
   xmlns:svg="http://www.w3.org/2000/svg"
   xmlns="http://www.w3.org/2000/svg"
   xmlns:sodipodi="http://sodipodi.sourceforge.net/DTD/sodipodi-0.dtd"
   xmlns:inkscape="http://www.inkscape.org/namespaces/inkscape"
   width="20"
   height="20"
   viewBox="0 0 20 20"
   version="1.2"
   id="svg52"
   sodipodi:docname="60203130622.svg"
   inkscape:version="0.92.4 (5da689c313, 2019-01-14)">
  <metadata
     id="metadata56">
    <rdf:RDF>
      <cc:Work
         rdf:about="">
        <dc:format>image/svg+xml</dc:format>
        <dc:type
           rdf:resource="http://purl.org/dc/dcmitype/StillImage" />
      </cc:Work>
    </rdf:RDF>
  </metadata>
  <sodipodi:namedview
     pagecolor="#ffffff"
     bordercolor="#666666"
     borderopacity="1"
     objecttolerance="10"
     gridtolerance="10"
     guidetolerance="10"
     inkscape:pageopacity="0"
     inkscape:pageshadow="2"
     inkscape:window-width="1920"
     inkscape:window-height="1017"
     id="namedview54"
     showgrid="false"
     inkscape:zoom="11.8"
     inkscape:cx="-5.2542373"
     inkscape:cy="10"
     inkscape:window-x="-8"
     inkscape:window-y="-8"
     inkscape:window-maximized="1"
     inkscape:current-layer="svg52" />
  <title
     id="title2">Qt SVG Document</title>
  <desc
     id="desc4">Generated with Qt</desc>
  <defs
     id="defs6" />
  <g
     id="g50"
     transform="matrix(0.69230769,0,0,0.69230769,-1.076923,-1.076923)"
     style="fill:none;fill-rule:evenodd;stroke:#000000;stroke-width:1;stroke-linecap:square;stroke-linejoin:bevel">
    <g
       transform="translate(16,16)"
       font-size="8.25"
       font-weight="400"
       font-style="normal"
       id="g8"
       style="font-style:normal;font-weight:400;font-size:8.25px;font-family:'MS Shell Dlg 2';fill:none;stroke:#000000;stroke-width:1;stroke-linecap:square;stroke-linejoin:bevel;stroke-opacity:1" />
    <g
       transform="matrix(1.33333,0,0,1.33333,16,16)"
       font-size="8.25"
       font-weight="400"
       font-style="normal"
       id="g10"
       style="font-style:normal;font-weight:400;font-size:8.25px;font-family:'MS Shell Dlg 2';fill:none;stroke:#000000;stroke-width:1;stroke-linecap:square;stroke-linejoin:bevel;stroke-opacity:1" />
    <g
       transform="translate(3,24.125)"
       font-size="19.8425"
       font-weight="400"
       font-style="normal"
       id="g14"
       style="font-style:normal;font-weight:400;font-size:19.84250069px;font-family:icomoon;fill:#ff0000;fill-opacity:1;stroke:none">
      <path
         d="M 2.28516,-21.125 H 23.7148 c 0.6263,0 1.1638,0.2243 1.6123,0.6729 0.4486,0.4485 0.6729,0.986 0.6729,1.6123 V 2.58984 C 26,3.21615 25.7757,3.75358 25.3271,4.20215 24.8786,4.65072 24.3411,4.875 23.7148,4.875 H 2.28516 C 1.65885,4.875 1.12142,4.65072 0.672852,4.20215 0.224284,3.75358 0,3.21615 0,2.58984 V -18.8398 c 0,-0.6263 0.224284,-1.1638 0.672852,-1.6123 0.448568,-0.4486 0.985998,-0.6729 1.612308,-0.6729"
         id="path12"
         inkscape:connector-curvature="0"
         style="vector-effect:none;fill-rule:nonzero" />
    </g>
    <g
       transform="matrix(1.33333,0,0,1.33333,16,16)"
       font-size="8.25"
       font-weight="400"
       font-style="normal"
       id="g16"
       style="font-style:normal;font-weight:400;font-size:8.25px;font-family:'MS Shell Dlg 2';fill:none;stroke:#000000;stroke-width:1;stroke-linecap:square;stroke-linejoin:bevel;stroke-opacity:1" />
    <g
       transform="translate(16,16)"
       font-size="8.25"
       font-weight="400"
       font-style="normal"
       id="g18"
       style="font-style:normal;font-weight:400;font-size:8.25px;font-family:'MS Shell Dlg 2';fill:none;stroke:#000000;stroke-width:1;stroke-linecap:square;stroke-linejoin:bevel;stroke-opacity:1" />
    <g
       font-size="8.25"
       font-weight="400"
       font-style="normal"
       id="g20"
       style="font-style:normal;font-weight:400;font-size:8.25px;font-family:'MS Shell Dlg 2';fill:none;stroke:#000000;stroke-width:1;stroke-linecap:square;stroke-linejoin:bevel;stroke-opacity:1" />
    <g
       transform="translate(16,16)"
       font-size="8.25"
       font-weight="400"
       font-style="normal"
       id="g22"
       style="font-style:normal;font-weight:400;font-size:8.25px;font-family:'MS Shell Dlg 2';fill:none;stroke:#000000;stroke-width:1;stroke-linecap:square;stroke-linejoin:bevel;stroke-opacity:1" />
    <g
       transform="matrix(1.33333,0,0,1.33333,16,16)"
       font-size="8.25"
       font-weight="400"
       font-style="normal"
       id="g24"
       style="font-style:normal;font-weight:400;font-size:8.25px;font-family:'MS Shell Dlg 2';fill:none;stroke:#000000;stroke-width:1;stroke-linecap:square;stroke-linejoin:bevel;stroke-opacity:1" />
    <g
       transform="translate(4.5,23.1875)"
       font-size="17.0078"
       font-weight="400"
       font-style="normal"
       id="g28"
       style="font-style:normal;font-weight:400;font-size:17.00779915px;font-family:icomoon;fill:#000000;fill-opacity:1;stroke:none">
      <path
         d="m 20.9785,-18.0137 c 0.3744,0 0.6926,0.1311 0.9546,0.3931 0.262,0.262 0.3931,0.5802 0.3931,0.9546 V 2.29102 c 0,0.37434 -0.1311,0.69254 -0.3931,0.95459 -0.262,0.26204 -0.5802,0.39306 -0.9546,0.39306 H 2.02148 C 1.64714,3.63867 1.32894,3.50765 1.06689,3.24561 0.80485,2.98356 0.673828,2.66536 0.673828,2.29102 V -16.666 c 0,-0.3744 0.131022,-0.6926 0.393062,-0.9546 0.26205,-0.262 0.58025,-0.3931 0.95459,-0.3931 H 20.9785 m 0,-0.6738 H 2.02148 c -0.55403,0 -1.029455,0.1984 -1.426265,0.5952 C 0.198405,-17.6955 0,-17.2201 0,-16.666 V 2.29102 C 0,2.84505 0.198405,3.32048 0.595215,3.71729 0.992025,4.1141 1.46745,4.3125 2.02148,4.3125 H 20.9785 c 0.5541,0 1.0295,-0.1984 1.4263,-0.59521 C 22.8016,3.32048 23,2.84505 23,2.29102 V -16.666 c 0,-0.5541 -0.1984,-1.0295 -0.5952,-1.4263 -0.3968,-0.3968 -0.8722,-0.5952 -1.4263,-0.5952 M 7.47949,-7.92871 c -0.07487,0.10482 -0.13102,0.22086 -0.16845,0.34814 -0.03744,0.12728 -0.05616,0.2583 -0.05616,0.39307 0,0.17969 0.03369,0.35563 0.10108,0.52783 0.06738,0.1722 0.16845,0.3182 0.30322,0.43799 0.11979,0.11979 0.26204,0.21712 0.42676,0.29199 0.16471,0.07487 0.3444,0.11231 0.53906,0.11231 0.17969,0 0.35189,-0.03744 0.5166,-0.11231 0.16472,-0.07487 0.30697,-0.1722 0.42676,-0.29199 0.13477,-0.11979 0.23584,-0.26579 0.30322,-0.43799 0.06738,-0.1722 0.10108,-0.34814 0.10108,-0.52783 0,-0.13477 -0.01872,-0.26579 -0.05616,-0.39307 -0.03743,-0.12728 -0.09358,-0.25081 -0.16845,-0.3706 v 0.02246 c 0.07487,0.10482 0.13102,0.21712 0.16845,0.33691 0.03744,0.11979 0.05616,0.25456 0.05616,0.4043 H 14.959 c 0,-0.13477 0.0187,-0.26579 0.0561,-0.39307 0.0375,-0.12728 0.0936,-0.25081 0.1685,-0.3706 v 0.02246 c -0.0749,0.10482 -0.131,0.22086 -0.1685,0.34814 -0.0374,0.12728 -0.0561,0.2583 -0.0561,0.39307 0,0.37435 0.131,0.69255 0.3931,0.95459 0.262,0.26204 0.5802,0.39307 0.9545,0.39307 0.1947,0 0.3744,-0.0337 0.5391,-0.10108 0.1647,-0.06738 0.307,-0.16846 0.4268,-0.30322 0.1198,-0.11979 0.2171,-0.26204 0.292,-0.42676 0.0748,-0.16471 0.1123,-0.33691 0.1123,-0.5166 0,-0.14974 -0.0188,-0.28825 -0.0562,-0.41553 -0.0374,-0.12728 -0.0936,-0.24332 -0.1685,-0.34814 0.0749,0.10482 0.1311,0.22086 0.1685,0.34814 0.0374,0.12728 0.0562,0.2583 0.0562,0.39307 0,0.01497 0,0.02246 0,0.02246 h 1.1455 V -8.49023 L 18.0361,-9.63574 H 15.9023 L 14.2627,-12.084 H 9.41113 L 7.99609,-9.52344 H 6.2666 l -0.80859,1.10059 v 1.23535 h 1.79687 c 0,-0.14974 0.01872,-0.28451 0.05616,-0.4043 0.03743,-0.11979 0.09358,-0.23958 0.16845,-0.35937 v 0.02246 m 9.32131,1.23535 c -0.0599,0.0599 -0.131,0.10856 -0.2134,0.146 -0.0824,0.03743 -0.1685,0.05615 -0.2583,0.05615 -0.1947,0 -0.3556,-0.06738 -0.4829,-0.20215 -0.1273,-0.13477 -0.1909,-0.29948 -0.1909,-0.49414 0,-0.17969 0.0636,-0.33691 0.1909,-0.47168 0.1273,-0.13477 0.2882,-0.20215 0.4829,-0.20215 0.1797,0 0.3369,0.06738 0.4717,0.20215 0.1347,0.13477 0.2021,0.29199 0.2021,0.47168 0,0.10482 -0.0187,0.1984 -0.0561,0.28076 -0.0375,0.08236 -0.0861,0.15348 -0.146,0.21338 m -4.627,-4.60454 h 1.5274 l 0.7861,1.77446 h -2.3135 v -1.77446 m -3.07712,4.60454 c -0.0599,0.0599 -0.13102,0.10856 -0.21338,0.146 -0.08236,0.03743 -0.16846,0.05615 -0.2583,0.05615 -0.10482,0 -0.1984,-0.01872 -0.28076,-0.05615 C 8.26188,-6.5848 8.19076,-6.63346 8.13086,-6.69336 8.07096,-6.75326 8.0223,-6.82813 7.98486,-6.91797 7.94743,-7.00781 7.92871,-7.09766 7.92871,-7.1875 c 0,-0.08984 0.01872,-0.17969 0.05615,-0.26953 0.03744,-0.08985 0.0861,-0.16471 0.146,-0.22461 0.0599,-0.0599 0.13102,-0.10856 0.21338,-0.146 0.08236,-0.03743 0.17594,-0.05615 0.28076,-0.05615 0.08984,0 0.17594,0.01872 0.2583,0.05615 0.08236,0.03744 0.15348,0.0861 0.21338,0.146 0.0599,0.0599 0.10856,0.13476 0.146,0.22461 0.03743,0.08984 0.05615,0.17969 0.05615,0.26953 0,0.08984 -0.01872,0.17969 -0.05615,0.26953 -0.03744,0.08984 -0.0861,0.16471 -0.146,0.22461 M 9.97266,-11.2979 H 11.5 v 1.77446 H 9.18652 L 9.97266,-11.2979 M 20.417,-9.52344 v 3.7959 H 3.99805 V -9.05176 H 2.7627 v 3.32422 l 0.96582,2.71777 H 18.8223 l 2.0439,-2.71777 v -3.7959 H 20.417 m -3.5488,7.95117 -1.7969,-0.78613 -1.752,0.74121 -1.7968,-0.76367 -1.75199,0.74121 -1.79688,-0.78613 -1.75195,0.74121 -1.79688,-0.78613 -1.88671,0.78613 0.24707,0.62891 1.63964,-0.67383 1.77442,0.786131 1.77441,-0.741211 1.79688,0.763672 1.75199,-0.741212 1.7744,0.786133 1.7744,-0.741213 1.7969,0.786135 1.7519,-0.741215 1.6397,0.741215 0.292,-0.628905 -1.9317,-0.85352 -1.7519,0.74121"
         id="path26"
         inkscape:connector-curvature="0"
         style="vector-effect:none;fill-rule:nonzero" />
    </g>
    <g
       transform="matrix(1.33333,0,0,1.33333,16,16)"
       font-size="8.25"
       font-weight="400"
       font-style="normal"
       id="g30"
       style="font-style:normal;font-weight:400;font-size:8.25px;font-family:'MS Shell Dlg 2';fill:none;stroke:#000000;stroke-width:1;stroke-linecap:square;stroke-linejoin:bevel;stroke-opacity:1" />
    <g
       transform="translate(16,16)"
       font-size="8.25"
       font-weight="400"
       font-style="normal"
       id="g32"
       style="font-style:normal;font-weight:400;font-size:8.25px;font-family:'MS Shell Dlg 2';fill:none;stroke:#000000;stroke-width:1;stroke-linecap:square;stroke-linejoin:bevel;stroke-opacity:1" />
    <g
       font-size="8.25"
       font-weight="400"
       font-style="normal"
       id="g34"
       style="font-style:normal;font-weight:400;font-size:8.25px;font-family:'MS Shell Dlg 2';fill:none;stroke:#000000;stroke-width:1;stroke-linecap:square;stroke-linejoin:bevel;stroke-opacity:1" />
    <g
       transform="translate(16,16)"
       font-size="8.25"
       font-weight="400"
       font-style="normal"
       id="g36"
       style="font-style:normal;font-weight:400;font-size:8.25px;font-family:'MS Shell Dlg 2';fill:none;stroke:#000000;stroke-width:1;stroke-linecap:square;stroke-linejoin:bevel;stroke-opacity:1" />
    <g
       transform="matrix(1.33333,0,0,1.33333,16,16)"
       font-size="8.25"
       font-weight="400"
       font-style="normal"
       id="g38"
       style="font-style:normal;font-weight:400;font-size:8.25px;font-family:'MS Shell Dlg 2';fill:none;stroke:#000000;stroke-width:1;stroke-linecap:square;stroke-linejoin:bevel;stroke-opacity:1" />
    <g
       transform="translate(3,24.125)"
       font-size="19.8425"
       font-weight="400"
       font-style="normal"
       id="g42"
       style="font-style:normal;font-weight:400;font-size:19.84250069px;font-family:icomoon;fill:#000000;fill-opacity:1;stroke:none">
      <path
         d="m 23.9434,-20.4395 c 0.3724,0 0.694,0.1355 0.9648,0.4063 0.2708,0.2708 0.4063,0.5924 0.4063,0.9648 V 2.81836 c 0,0.3724 -0.1355,0.69401 -0.4063,0.96484 -0.2708,0.27084 -0.5924,0.40625 -0.9648,0.40625 H 2.05664 C 1.68424,4.18945 1.36263,4.05404 1.0918,3.7832 0.820964,3.51237 0.685547,3.19076 0.685547,2.81836 V -19.0684 c 0,-0.3724 0.135417,-0.694 0.406253,-0.9648 0.27083,-0.2708 0.59244,-0.4063 0.96484,-0.4063 H 23.9434 m 0,-0.6855 H 2.05664 c -0.57552,0 -1.062174,0.1989 -1.45996,0.5967 C 0.198893,-20.1305 0,-19.6439 0,-19.0684 V 2.81836 C 0,3.39388 0.198893,3.88053 0.59668,4.27832 0.994466,4.67611 1.48112,4.875 2.05664,4.875 H 23.9434 c 0.5755,0 1.0621,-0.19889 1.4599,-0.59668 C 25.8011,3.88053 26,3.39388 26,2.81836 V -19.0684 c 0,-0.5755 -0.1989,-1.0621 -0.5967,-1.4599 -0.3978,-0.3978 -0.8844,-0.5967 -1.4599,-0.5967"
         id="path40"
         inkscape:connector-curvature="0"
         style="vector-effect:none;fill-rule:nonzero" />
    </g>
    <g
       transform="matrix(1.33333,0,0,1.33333,16,16)"
       font-size="8.25"
       font-weight="400"
       font-style="normal"
       id="g44"
       style="font-style:normal;font-weight:400;font-size:8.25px;font-family:'MS Shell Dlg 2';fill:none;stroke:#000000;stroke-width:1;stroke-linecap:square;stroke-linejoin:bevel;stroke-opacity:1" />
    <g
       transform="translate(16,16)"
       font-size="8.25"
       font-weight="400"
       font-style="normal"
       id="g46"
       style="font-style:normal;font-weight:400;font-size:8.25px;font-family:'MS Shell Dlg 2';fill:none;stroke:#000000;stroke-width:1;stroke-linecap:square;stroke-linejoin:bevel;stroke-opacity:1" />
    <g
       font-size="8.25"
       font-weight="400"
       font-style="normal"
       id="g48"
       style="font-style:normal;font-weight:400;font-size:8.25px;font-family:'MS Shell Dlg 2';fill:none;stroke:#000000;stroke-width:1;stroke-linecap:square;stroke-linejoin:bevel;stroke-opacity:1" />
  </g>
</svg>
