<svg xmlns="http://www.w3.org/2000/svg" width="20" height="20" version="1.2">
    <g font-weight="400" style="fill:none;fill-rule:evenodd;stroke:#000;stroke-width:1;stroke-linecap:square;stroke-linejoin:bevel">
        <g style="font-style:normal;font-weight:400;font-size:19.84250069px;font-family:icomoon;fill:#ff0;fill-opacity:1;stroke:none">
            <path d="M2.285-21.125h21.43a2.2 2.2 0 0 1 1.612.673A2.2 2.2 0 0 1 26-18.84V2.59a2.2 2.2 0 0 1-.673 1.612 2.2 2.2 0 0 1-1.612.673H2.285a2.2 2.2 0 0 1-1.612-.673A2.2 2.2 0 0 1 0 2.59v-21.43a2.2 2.2 0 0 1 .673-1.612 2.2 2.2 0 0 1 1.612-.673" font-size="19.843" style="vector-effect:none;fill-rule:nonzero" transform="matrix(.6923 0 0 .6923 1 15.625)"/>
        </g>
        <g style="font-style:normal;font-weight:400;font-size:17.00779915px;font-family:icomoon;fill:#000;fill-opacity:1;stroke:none">
            <path d="M20.979-18.014a1.3 1.3 0 0 1 .954.393 1.3 1.3 0 0 1 .393.955V2.291a1.3 1.3 0 0 1-.393.955 1.3 1.3 0 0 1-.955.393H2.021a1.3 1.3 0 0 1-.954-.393 1.3 1.3 0 0 1-.393-.955v-18.957a1.3 1.3 0 0 1 .393-.955 1.3 1.3 0 0 1 .954-.393h18.957m0-.674H2.021c-.554 0-1.029.199-1.426.596A1.946 1.946 0 0 0 0-16.666V2.291c0 .554.198 1.03.595 1.426.397.397.872.595 1.426.595h18.957c.555 0 1.03-.198 1.427-.595.397-.397.595-.872.595-1.426v-18.957c0-.554-.198-1.03-.595-1.426a1.946 1.946 0 0 0-1.426-.596m-8.715 2.022H11.05c-.869 0-1.685.165-2.448.494a6.203 6.203 0 0 0-2.022 1.359 6.495 6.495 0 0 0-1.348 2.01 6.114 6.114 0 0 0-.494 2.448v6.806c0 .48.169.887.506 1.224.337.337.745.506 1.224.506h1.213v.988H6.67v.674H7.3L6.626 1.01h-.674v.674H6.2l-.382.673h2.157l.359-.673h6.716l.36.673h2.178l-.382-.673h.27V1.01H16.8l-.696-1.168h.696v-.674h-.988v-.988h1.01c.48 0 .891-.169 1.236-.506a1.65 1.65 0 0 0 .516-1.224v-6.805c0-.869-.165-1.685-.494-2.449a6.268 6.268 0 0 0-1.359-1.999 6.833 6.833 0 0 0-2.01-1.37 6.115 6.115 0 0 0-2.448-.494m1.415 1.999a2.6 2.6 0 0 1 1.909.786 2.6 2.6 0 0 1 .786 1.91v2.717h-2.695v-5.413m1.347 8.355v1.37h-.674v-1.37h.674m-4.043-8.355h1.348v5.413h-1.348v-5.413m-4.065 2.695a2.6 2.6 0 0 1 .786-1.909 2.6 2.6 0 0 1 1.91-.786v5.413H6.917v-2.718m2.021 5.66v1.37h-.673v-1.37h.673m-1.347 0v1.37h-.674v-1.37h.674m7.142 7.323H8.737l.607-1.168h4.784l.606 1.168M13.77-.831H9.703v-.988h4.066v.988m2.627-2.763H6.918v-.674h9.479v.674m0-1.347h-.674v-1.37h.673v1.37" font-size="17.008" style="vector-effect:none;fill-rule:nonzero" transform="matrix(.6923 0 0 .6923 2.038 14.976)"/>
        </g>
        <g style="font-style:normal;font-weight:400;font-size:19.84250069px;font-family:icomoon;fill:#000;fill-opacity:1;stroke:none">
            <path d="M23.943-20.44c.373 0 .694.136.965.407.271.27.406.592.406.965V2.818c0 .373-.135.694-.406.965-.27.271-.592.406-.965.406H2.057c-.373 0-.694-.135-.965-.406a1.318 1.318 0 0 1-.406-.965v-21.886c0-.373.135-.694.406-.965.27-.271.592-.407.965-.407h21.886m0-.685H2.057c-.576 0-1.063.199-1.46.597A1.986 1.986 0 0 0 0-19.068V2.818c0 .576.199 1.063.597 1.46.397.398.884.597 1.46.597h21.886c.576 0 1.063-.199 1.46-.597.398-.397.597-.884.597-1.46v-21.886c0-.576-.199-1.063-.597-1.46a1.986 1.986 0 0 0-1.46-.597" font-size="19.843" style="vector-effect:none;fill-rule:nonzero" transform="matrix(.6923 0 0 .6923 1 15.625)"/>
        </g>
    </g>
</svg>
