<svg xmlns="http://www.w3.org/2000/svg" width="20" height="20" version="1.2">
    <g font-weight="400" style="fill:none;fill-rule:evenodd;stroke:#000;stroke-width:1;stroke-linecap:square;stroke-linejoin:bevel">
        <g style="font-style:normal;font-weight:400;font-size:17.00779915px;font-family:icomoon;fill:red;fill-opacity:1;stroke:none">
            <path d="M2.021-18.688h18.957c.555 0 1.03.199 1.427.596.397.396.595.872.595 1.426V2.291c0 .554-.198 1.03-.595 1.426a1.946 1.946 0 0 1-1.427.595H2.021c-.554 0-1.029-.198-1.426-.595A1.946 1.946 0 0 1 0 2.291v-18.957c0-.554.198-1.03.595-1.426a1.946 1.946 0 0 1 1.426-.596" font-size="17.008" style="vector-effect:none;fill-rule:nonzero" transform="matrix(.65217 0 0 .65217 2.5 14.687)"/>
        </g>
        <g style="font-style:normal;font-weight:400;font-size:17.00779915px;font-family:icomoon;fill:#000;fill-opacity:1;stroke:none">
            <path d="M20.979-18.014a1.3 1.3 0 0 1 .954.393 1.3 1.3 0 0 1 .393.955V2.291a1.3 1.3 0 0 1-.393.955 1.3 1.3 0 0 1-.955.393H2.021a1.3 1.3 0 0 1-.954-.393 1.3 1.3 0 0 1-.393-.955v-18.957a1.3 1.3 0 0 1 .393-.955 1.3 1.3 0 0 1 .954-.393h18.957m0-.674H2.021c-.554 0-1.029.199-1.426.596A1.946 1.946 0 0 0 0-16.666V2.291c0 .554.198 1.03.595 1.426.397.397.872.595 1.426.595h18.957c.555 0 1.03-.198 1.427-.595.397-.397.595-.872.595-1.426v-18.957c0-.554-.198-1.03-.595-1.426a1.946 1.946 0 0 0-1.426-.596M9.5-16.666h4.74v2.246H9.5v-2.246m8.086 11.545v-5.93c0-.644-.12-1.25-.36-1.82a4.906 4.906 0 0 0-1.01-1.482 4.909 4.909 0 0 0-1.483-1.01 4.64 4.64 0 0 0-1.819-.36h-2.156c-.644 0-1.25.12-1.82.36a4.909 4.909 0 0 0-1.482 1.01c-.42.42-.756.914-1.01 1.483a4.64 4.64 0 0 0-.36 1.82v5.929h1.392v1.954h-.314v.674h1.19L7.682-.382H6.087v2.695h11.5V-.382H16.06l-.674-2.111h1.235v-.674h-.45v-1.954h1.416m-9.479-6.85h7.457v1.347H8.108v-1.348m7.457 4.403v1.37h-1.37v-1.37h1.37m-3.167 4.402h-1.1v-1.954h1.1v1.954m-4.29-4.402h1.37v1.37h-1.37v-1.37m1.37 2.448h.674v1.954H9.48v-1.954m5.233 4.74H9.007l.696-2.112h4.335l.674 2.111m-.472-2.785h-.719v-1.954h.674l.045 1.954" font-size="17.008" style="vector-effect:none;fill-rule:nonzero" transform="matrix(.65217 0 0 .65217 2.5 14.687)"/>
        </g>
    </g>
</svg>
