<svg xmlns="http://www.w3.org/2000/svg" width="20" height="20" version="1.2">
    <g font-weight="400" style="fill:none;fill-rule:evenodd;stroke:#000;stroke-width:1;stroke-linecap:square;stroke-linejoin:bevel">
        <g style="font-style:normal;font-weight:400;font-size:17.00779915px;font-family:icomoon;fill:#fff;fill-opacity:1;stroke:none">
            <path d="M2.021-18.688h18.957c.555 0 1.03.199 1.427.596.397.396.595.872.595 1.426V2.291c0 .554-.198 1.03-.595 1.426a1.946 1.946 0 0 1-1.427.595H2.021c-.554 0-1.029-.198-1.426-.595A1.946 1.946 0 0 1 0 2.291v-18.957c0-.554.198-1.03.595-1.426a1.946 1.946 0 0 1 1.426-.596" font-size="17.008" style="vector-effect:none;fill-rule:nonzero" transform="matrix(.65217 0 0 .65217 2.5 14.687)"/>
        </g>
        <g style="font-style:normal;font-weight:400;font-size:17.00779915px;font-family:icomoon;fill:#000;fill-opacity:1;stroke:none">
            <path d="M20.979-18.014a1.3 1.3 0 0 1 .954.393 1.3 1.3 0 0 1 .393.955V2.291a1.3 1.3 0 0 1-.393.955 1.3 1.3 0 0 1-.955.393H2.021a1.3 1.3 0 0 1-.954-.393 1.3 1.3 0 0 1-.393-.955v-18.957a1.3 1.3 0 0 1 .393-.955 1.3 1.3 0 0 1 .954-.393h18.957m0-.674H2.021c-.554 0-1.029.199-1.426.596A1.946 1.946 0 0 0 0-16.666V2.291c0 .554.198 1.03.595 1.426.397.397.872.595 1.426.595h18.957c.555 0 1.03-.198 1.427-.595.397-.397.595-.872.595-1.426v-18.957c0-.554-.198-1.03-.595-1.426a1.946 1.946 0 0 0-1.426-.596M7.546-11.364c.539 0 1.093.172 1.662.516.554.345 1.123.727 1.707 1.146.584.42 1.175.801 1.774 1.145.6.345 1.198.517 1.797.517.614 0 1.206-.27 1.775-.809a11.402 11.402 0 0 0 1.56-1.83c.458-.666.82-1.277 1.09-1.83l.427-.81-.404.338c-.27.224-.626.475-1.067.752a10.02 10.02 0 0 1-1.471.752 4.45 4.45 0 0 1-1.685.337c-.57 0-1.138-.18-1.707-.539a27.564 27.564 0 0 1-1.752-1.224A27.557 27.557 0 0 0 9.5-14.128c-.599-.374-1.19-.562-1.774-.562-.6 0-1.146.278-1.64.832a9.706 9.706 0 0 0-1.28 1.819c-.36.659-.637 1.265-.831 1.82l-.315.83 1.146-.988c.763-.659 1.677-.988 2.74-.988m.18 5.031c-.6 0-1.146.27-1.64.809a9.548 9.548 0 0 0-1.28 1.83c-.36.667-.637 1.277-.831 1.83l-.315.81 1.146-.978c.763-.651 1.677-.977 2.74-.977.539 0 1.093.172 1.662.517a35.4 35.4 0 0 1 1.707 1.134c.584.412 1.176.797 1.774 1.157.6.344 1.198.516 1.797.516.614 0 1.206-.277 1.775-.83a11.656 11.656 0 0 0 1.56-1.82c.458-.659.82-1.265 1.09-1.82l.427-.83-.404.337c-.27.224-.626.475-1.067.752a10.02 10.02 0 0 1-1.471.752 4.21 4.21 0 0 1-1.685.36c-.57 0-1.138-.187-1.707-.562a27.573 27.573 0 0 1-1.752-1.224A27.566 27.566 0 0 0 9.5-5.795c-.599-.36-1.19-.539-1.774-.539" font-size="17.008" style="vector-effect:none;fill-rule:nonzero" transform="matrix(.65217 0 0 .65217 2.5 14.687)"/>
        </g>
    </g>
</svg>
