<svg xmlns="http://www.w3.org/2000/svg" width="20" height="20" version="1.2">
    <g font-weight="400" style="fill:none;fill-rule:evenodd;stroke:#000;stroke-width:1;stroke-linecap:square;stroke-linejoin:bevel">
        <g style="font-style:normal;font-weight:400;font-size:17.00779915px;font-family:icomoon;fill:#ff0;fill-opacity:1;stroke:none">
            <path d="M2.021-18.688h18.957c.555 0 1.03.199 1.427.596.397.396.595.872.595 1.426V2.291c0 .554-.198 1.03-.595 1.426a1.946 1.946 0 0 1-1.427.595H2.021c-.554 0-1.029-.198-1.426-.595A1.946 1.946 0 0 1 0 2.291v-18.957c0-.554.198-1.03.595-1.426a1.946 1.946 0 0 1 1.426-.596" font-size="17.008" style="vector-effect:none;fill-rule:nonzero" transform="matrix(.65217 0 0 .65217 2.5 14.687)"/>
        </g>
        <g style="font-style:normal;font-weight:400;font-size:17.00779915px;font-family:icomoon;fill:#000;fill-opacity:1;stroke:none">
            <path d="M20.979-18.014a1.3 1.3 0 0 1 .954.393 1.3 1.3 0 0 1 .393.955V2.291a1.3 1.3 0 0 1-.393.955 1.3 1.3 0 0 1-.955.393H2.021a1.3 1.3 0 0 1-.954-.393 1.3 1.3 0 0 1-.393-.955v-18.957a1.3 1.3 0 0 1 .393-.955 1.3 1.3 0 0 1 .954-.393h18.957m0-.674H2.021c-.554 0-1.029.199-1.426.596A1.946 1.946 0 0 0 0-16.666V2.291c0 .554.198 1.03.595 1.426.397.397.872.595 1.426.595h18.957c.555 0 1.03-.198 1.427-.595.397-.397.595-.872.595-1.426v-18.957c0-.554-.198-1.03-.595-1.426a1.946 1.946 0 0 0-1.426-.596m-5.66 11.5c1.377-.793 2.455-1.635 3.234-2.526.778-.891 1.033-1.569.763-2.033a1.137 1.137 0 0 0-.415-.326 1.26 1.26 0 0 0-.55-.123h-.18c-.898.09-1.752.277-2.56.561-.81.285-1.565.652-2.27 1.1l.046-.044c0-1.587-.191-2.939-.573-4.054-.382-1.116-.835-1.674-1.359-1.674-.539 0-1 .562-1.381 1.685-.382 1.123-.58 2.47-.595 4.043a11.49 11.49 0 0 0-2.202-1.056 9.864 9.864 0 0 0-2.493-.539l-.045-.022h-.18a1.26 1.26 0 0 0-.988.471c-.27.465-.015 1.138.764 2.022.779.883 1.857 1.722 3.234 2.515-1.377.81-2.455 1.655-3.234 2.539-.779.883-1.033 1.557-.764 2.021.09.15.236.262.438.337.202.075.446.112.73.112a10.78 10.78 0 0 0 2.527-.561 11.06 11.06 0 0 0 2.257-1.1l-.044.044c0 1.587.19 2.939.572 4.054.382 1.116.835 1.674 1.36 1.674.538 0 .995-.558 1.37-1.674.374-1.115.568-2.467.583-4.054.674.434 1.412.79 2.213 1.067.8.277 1.643.46 2.527.55h.044c.285 0 .524-.033.72-.1a.74.74 0 0 0 .426-.349c.285-.464.037-1.138-.741-2.021-.779-.884-1.857-1.73-3.235-2.538m2.853-4.335h.112c.075 0 .154.01.236.033.082.023.161.049.236.079.06.18-.21.632-.809 1.359-.599.726-1.61 1.5-3.032 2.324a.909.909 0 0 1-.146.079.905.905 0 0 0-.146.079 7.993 7.993 0 0 0-1.348-.562l-.067-.022c.045-.24.082-.494.112-.764s.045-.54.045-.809v-.022l.292-.18a9.958 9.958 0 0 1 2.1-1.033c.756-.27 1.546-.45 2.37-.539h.045v-.022m-6.716 4.918h-.045a1.66 1.66 0 0 1-.651-.134c-.03-.06-.06-.128-.09-.202a1.278 1.278 0 0 1-.067-.225l-.023-.022c.03-.09.06-.173.09-.248.03-.074.067-.15.112-.224l-.022.022a1.642 1.642 0 0 1 .674-.134h.022a1.642 1.642 0 0 1 .674.135c.03.06.06.127.09.201.03.075.06.158.09.247-.03.09-.064.176-.101.259a5.696 5.696 0 0 0-.102.236l.023-.045a2.385 2.385 0 0 1-.326.112c-.112.03-.228.045-.348.045v-.023m1.01-1.751a1.696 1.696 0 0 0-.213-.259l-.235-.236h-.023c.21-.15.434-.307.674-.471 0 .194-.011.378-.034.55-.022.172-.048.34-.078.505v-.067l-.09-.022m-2.022 0h-.09c-.014-.15-.033-.307-.056-.472a10.027 10.027 0 0 1-.056-.517c.24.165.464.322.674.472a2.22 2.22 0 0 0-.28.236 1.322 1.322 0 0 0-.214.28h.022m-.606.877v.583a12.535 12.535 0 0 1-.764-.314 15.477 15.477 0 0 1 .764-.314v.045m.606 1.46c.06.104.128.198.202.28.075.083.165.154.27.214a45.6 45.6 0 0 1-.674.471c0-.18.011-.348.034-.505.022-.157.049-.318.079-.483l.09.022m2.02 0h.09c.016.135.034.285.057.45.022.164.041.337.056.516v.023c-.255-.165-.48-.322-.674-.472.09-.06.176-.135.258-.225.083-.09.154-.18.214-.27v-.022m.606-.876v-.583a12.557 12.557 0 0 1 .764.314 15.506 15.506 0 0 1-.764.314v-.045m-1.617-8.714c.18.03.434.486.764 1.37.33.883.494 2.141.494 3.773v.337c-.24.15-.464.296-.674.438-.21.142-.42.288-.629.438l.045-.022c-.18-.135-.374-.274-.584-.416-.21-.142-.434-.288-.674-.438v-.337c-.03-1.632.124-2.89.46-3.773.338-.884.603-1.34.798-1.37m-7.3 4.222.135-.056c.09-.037.232-.056.427-.056.853.09 1.658.277 2.414.561.757.285 1.472.644 2.145 1.079l-.045-.023.292.157c0 .285.015.566.045.843s.068.55.113.82v-.068c-.285.09-.547.187-.786.292-.24.105-.472.217-.697.337l.068-.045a.822.822 0 0 1-.146-.067 3.446 3.446 0 0 0-.169-.09c-1.407-.824-2.41-1.599-3.01-2.325-.599-.726-.86-1.179-.786-1.359m.584 8.535c-.21 0-.355-.015-.438-.044a.534.534 0 0 1-.146-.068c-.075-.18.187-.632.786-1.359.6-.726 1.61-1.493 3.033-2.302a.906.906 0 0 1 .146-.079.834.834 0 0 0 .168-.1c.195.12.408.228.64.325.232.097.468.183.708.258l.067.023a8.685 8.685 0 0 0-.112.741c-.03.27-.053.547-.068.831v.023l-.292.18c-.628.403-1.321.744-2.077 1.021-.756.277-1.546.46-2.37.55H4.74m6.716 4.11c-.18-.03-.434-.486-.764-1.37-.329-.883-.494-2.14-.494-3.773v-.337c.24-.15.465-.295.674-.438.21-.142.404-.28.584-.415.18.135.37.273.573.415.202.143.408.281.617.416l.068.022v.337c0 1.632-.165 2.89-.494 3.774-.33.883-.584 1.34-.764 1.37m7.3-4.223-.135.056c-.09.038-.232.056-.427.056a10.15 10.15 0 0 1-4.56-1.617l.046.045-.292-.18a16.343 16.343 0 0 0-.068-.853c-.03-.285-.067-.562-.112-.831v.09c.284-.09.547-.187.786-.292.24-.105.472-.217.697-.337l-.068.022c.06.045.116.079.169.101a.905.905 0 0 1 .146.079c1.407.809 2.41 1.576 3.01 2.302.598.727.868 1.18.808 1.36" font-size="17.008" style="vector-effect:none;fill-rule:nonzero" transform="matrix(.65217 0 0 .65217 2.5 14.687)"/>
        </g>
    </g>
</svg>
