<?xml version="1.0" encoding="UTF-8" standalone="no"?>
<svg
   xml:space="preserve"
   width="20"
   height="20"
   version="1.1"
   id="svg10"
   sodipodi:docname="60201060714.svg"
   inkscape:version="1.3 (0e150ed6c4, 2023-07-21)"
   xmlns:inkscape="http://www.inkscape.org/namespaces/inkscape"
   xmlns:sodipodi="http://sodipodi.sourceforge.net/DTD/sodipodi-0.dtd"
   xmlns="http://www.w3.org/2000/svg"
   xmlns:svg="http://www.w3.org/2000/svg"><sodipodi:namedview
   id="namedview10"
   pagecolor="#ffffff"
   bordercolor="#000000"
   borderopacity="0.25"
   inkscape:showpageshadow="2"
   inkscape:pageopacity="0.0"
   inkscape:pagecheckerboard="0"
   inkscape:deskcolor="#d1d1d1"
   inkscape:zoom="1.4413919"
   inkscape:cx="273.34689"
   inkscape:cy="273"
   inkscape:window-width="1920"
   inkscape:window-height="1001"
   inkscape:window-x="3191"
   inkscape:window-y="-9"
   inkscape:window-maximized="1"
   inkscape:current-layer="svg10" />&#10;    <defs
   id="defs4">&#10;        <filter
   id="d"
   width="1.0149015"
   height="1.0113841"
   x="-0.0074438257"
   y="-0.0056860082"
   style="color-interpolation-filters:sRGB">&#10;            <feGaussianBlur
   stdDeviation=".264"
   id="feGaussianBlur1" />&#10;        </filter>&#10;        <filter
   id="a"
   width="1.0149047"
   height="1.0113843"
   x="-0.0074448269"
   y="-0.0056860316"
   style="color-interpolation-filters:sRGB">&#10;            <feGaussianBlur
   stdDeviation=".264"
   id="feGaussianBlur2" />&#10;        </filter>&#10;        <filter
   id="b"
   width="1.9842587"
   height="1.9842587"
   x="-0.49212934"
   y="-0.49212934"
   style="color-interpolation-filters:sRGB">&#10;            <feGaussianBlur
   stdDeviation=".04"
   id="feGaussianBlur3" />&#10;        </filter>&#10;        <filter
   id="c"
   width="1.9842646"
   height="1.9842646"
   x="-0.49213229"
   y="-0.49213229"
   style="color-interpolation-filters:sRGB">&#10;            <feGaussianBlur
   stdDeviation=".033"
   id="feGaussianBlur4" />&#10;        </filter>&#10;    </defs>&#10;    <g
   style="display:inline"
   id="g10">&#10;        <g
   style="font-style:normal;font-weight:400;font-size:22.6771px;font-family:icomoon;display:inline;opacity:1;fill:#ffffff;fill-opacity:1;fill-rule:evenodd;stroke:none;stroke-width:1;stroke-linecap:square;stroke-linejoin:bevel"
   id="g4">&#10;            <path
   d="m 2.637,-24.375 h 24.726 c 0.723,0 1.343,0.259 1.86,0.776 0.518,0.518 0.777,1.138 0.777,1.86 V 2.989 c 0,0.723 -0.259,1.343 -0.776,1.86 a 2.538,2.538 0 0 1 -1.86,0.777 H 2.636 A 2.538,2.538 0 0 1 0.776,4.85 2.538,2.538 0 0 1 0,2.989 v -24.727 c 0,-0.723 0.259,-1.343 0.776,-1.86 a 2.538,2.538 0 0 1 1.86,-0.777"
   font-size="22.677px"
   font-weight="400"
   style="vector-effect:none;fill:#ffffff;fill-opacity:1;fill-rule:nonzero"
   transform="matrix(0.66667,0,0,0.66667,0,16.25)"
   id="path4" />&#10;        </g>&#10;        <path
   d="m 102.884,63.104 c -10.08,0 -18.732,3.61 -25.951,10.83 -7.22,7.219 -10.83,15.87 -10.83,25.95 v 344.92 c 0,10.08 3.61,18.73 10.83,25.95 7.22,7.22 15.871,10.83 25.951,10.83 h 344.92 c 10.081,0 18.732,-3.61 25.951,-10.83 7.22,-7.22 10.828,-15.87 10.828,-25.95 V 99.885 c 0,-10.08 -3.609,-18.731 -10.828,-25.95 -7.219,-7.22 -15.87,-10.83 -25.951,-10.83 z m 0,12.26 h 344.92 c 6.811,0 12.603,2.385 17.37,7.152 4.766,4.766 7.152,10.557 7.152,17.369 v 344.92 c 0,6.81 -2.386,12.6 -7.153,17.367 -4.766,4.768 -10.558,7.152 -17.369,7.152 h -344.92 c -6.81,0 -12.602,-2.384 -17.369,-7.152 -4.768,-4.767 -7.15,-10.557 -7.15,-17.367 V 99.885 c 0,-6.812 2.382,-12.603 7.15,-17.37 4.767,-4.766 10.558,-7.152 17.37,-7.152 z m 61.781,83.54 c -0.11,0.522 -0.295,0.943 -0.431,1.43 0.263,0.014 0.523,0.044 0.785,0.063 -0.11,-0.502 -0.207,-1.009 -0.354,-1.493 z"
   style="font-style:normal;font-weight:400;font-size:17.0078px;font-family:icomoon;display:inline;opacity:1;vector-effect:none;fill:#000000;fill-opacity:1;fill-rule:nonzero;stroke:none;stroke-width:18.1948;stroke-linecap:square;stroke-linejoin:bevel"
   transform="matrix(0.03664,0,0,0.03664,-0.015,0.021)"
   id="path5" />&#10;        <g
   style="font-style:normal;font-weight:400;font-size:22.6771px;font-family:icomoon;display:inline;opacity:1;fill:#000000;fill-opacity:1;fill-rule:evenodd;stroke:none;stroke-width:1;stroke-linecap:square;stroke-linejoin:bevel"
   id="g6">&#10;            <path
   d="m 26.426,-22.236 c 0.39,0 0.727,0.141 1.01,0.425 0.284,0.283 0.425,0.62 0.425,1.01 V 2.051 c 0,0.39 -0.141,0.727 -0.425,1.01 a 1.38,1.38 0 0 1 -1.01,0.425 H 3.574 A 1.38,1.38 0 0 1 2.564,3.062 1.38,1.38 0 0 1 2.139,2.051 v -22.852 c 0,-0.39 0.141,-0.727 0.424,-1.01 a 1.38,1.38 0 0 1 1.011,-0.425 h 22.852 m 0,-0.703 H 3.574 c -0.586,0 -1.089,0.21 -1.509,0.63 -0.42,0.42 -0.63,0.922 -0.63,1.508 V 2.051 c 0,0.586 0.21,1.089 0.63,1.509 0.42,0.42 0.923,0.63 1.51,0.63 h 22.85 c 0.587,0 1.09,-0.21 1.51,-0.63 0.42,-0.42 0.63,-0.923 0.63,-1.51 V -20.8 c 0,-0.587 -0.21,-1.09 -0.63,-1.51 -0.42,-0.42 -0.923,-0.63 -1.51,-0.63 m 1.436,-0.732 c 0.391,0 0.728,0.142 1.011,0.425 0.283,0.283 0.425,0.62 0.425,1.01 V 3.487 c 0,0.39 -0.142,0.728 -0.425,1.011 a 1.38,1.38 0 0 1 -1.01,0.425 H 2.138 A 1.38,1.38 0 0 1 1.127,4.498 1.38,1.38 0 0 1 0.702,3.488 v -25.723 c 0,-0.391 0.142,-0.728 0.425,-1.011 a 1.38,1.38 0 0 1 1.01,-0.425 H 27.86 m 0,-0.703 H 2.14 c -0.586,0 -1.09,0.21 -1.51,0.63 -0.419,0.42 -0.629,0.923 -0.629,1.509 V 3.486 c 0,0.586 0.21,1.09 0.63,1.51 0.42,0.419 0.923,0.629 1.509,0.629 h 25.72 c 0.586,0 1.09,-0.21 1.51,-0.63 0.419,-0.42 0.629,-0.923 0.629,-1.509 v -25.722 c 0,-0.586 -0.21,-1.09 -0.63,-1.51 -0.42,-0.419 -0.923,-0.629 -1.509,-0.629"
   font-size="22.677px"
   font-weight="400"
   style="vector-effect:none;fill-rule:nonzero"
   transform="matrix(0.66667,0,0,0.66667,0,16.25)"
   id="path6" />&#10;        </g>&#10;        <g
   style="display:inline;opacity:1"
   id="g9">&#10;            <g
   transform="matrix(0.02923,0,0,0.02923,1.77,1.88)"
   id="g7">&#10;                <path
   d="m 362.751,151.5 c -1.31,3.808 -3.93,11.422 -6.462,17.45 -2.531,6.03 -4.973,10.472 -7.894,13.771 -2.921,3.3 -6.32,5.456 -10.703,7.263 -4.383,1.808 -9.748,3.267 -10.849,1.422 -1.101,-1.844 2.062,-6.992 1.71,-10.373 -0.354,-3.38 -4.224,-4.994 -8.352,-6.94 -4.127,-1.947 -8.508,-4.225 -12.657,-3.244 -4.15,0.98 -8.063,5.22 -11.923,9.787 -3.86,4.566 -7.665,9.458 -10.655,15.167 -2.99,5.708 -5.164,12.231 -8.045,15.005 -2.88,2.774 -6.468,1.8 -8.694,2.327 -2.227,0.528 -3.09,2.557 -4.504,5 -1.413,2.445 -3.376,5.304 -4.466,9.561 -1.09,4.257 -1.308,9.91 2.009,14.857 3.316,4.947 10.166,9.187 17.94,11.198 7.773,2.011 16.47,1.794 23.102,1.305 6.632,-0.49 11.199,-1.25 13.318,2.174 2.12,3.426 1.794,11.036 0,20.604 -1.794,9.567 -5.056,21.091 -9.079,31.202 -4.022,10.112 -8.806,18.81 -14.35,28.05 -5.546,9.242 -11.851,19.027 -15.004,25.768 -3.153,6.74 -3.153,10.437 -2.61,13.047 0.545,2.61 1.632,4.131 3.372,5.218 1.74,1.087 4.131,1.74 6.414,1.848 2.283,0.108 4.458,-0.327 6.958,-2.61 2.5,-2.283 5.327,-6.414 8.697,-11.524 3.37,-5.11 7.285,-11.198 10.655,-16.743 3.37,-5.545 6.197,-10.546 8.915,-15.33 2.718,-4.784 5.327,-9.35 7.828,-13.264 2.5,-3.914 4.893,-7.176 6.85,-10.546 1.956,-3.37 3.478,-6.85 6.632,-8.806 3.154,-1.958 7.937,-2.393 10.764,-2.283 2.827,0.109 3.697,0.761 5.436,1.848 1.74,1.087 4.35,2.61 6.197,5.437 1.848,2.827 2.935,6.958 3.479,12.503 0.543,5.545 0.543,12.503 0.543,19.352 0,6.85 0,13.59 -0.109,19.57 -0.108,5.98 -0.326,11.198 0.544,16.09 0.87,4.894 2.827,9.46 5.654,11.851 2.827,2.391 6.524,2.609 9.567,1.739 3.044,-0.87 5.436,-2.827 7.121,-6.034 1.685,-3.207 2.664,-7.664 3.262,-13.372 0.598,-5.708 0.815,-12.666 0.76,-20.874 -0.053,-8.21 -0.38,-17.667 -0.869,-25.06 -0.489,-7.394 -1.141,-12.721 -2.88,-17.94 -1.74,-5.218 -4.567,-10.328 -7.067,-14.297 -2.5,-3.968 -4.675,-6.795 -7.502,-9.296 -2.826,-2.5 -6.305,-4.675 -7.937,-7.719 -1.631,-3.044 -1.414,-6.958 -1.305,-14.351 0.109,-7.393 0.109,-18.265 0.217,-24.462 0.109,-6.198 0.326,-7.72 1.523,-7.61 1.197,0.108 3.371,1.847 7.285,5 3.914,3.153 9.567,7.72 17.178,10.111 7.61,2.391 17.178,2.609 22.505,2.609 5.327,0 6.415,-0.218 7.067,0.11 0.652,0.326 0.87,1.196 -0.816,23.375 -1.686,22.18 -5.273,65.667 -6.74,87.738 -1.468,22.07 -0.815,22.723 0.109,22.994 0.924,0.271 2.12,0.163 3.207,-0.272 1.086,-0.435 2.065,-1.196 4.565,-23.865 2.5,-22.668 6.523,-67.242 8.427,-89.585 1.903,-22.343 1.686,-22.452 3.86,-23.213 2.174,-0.761 6.74,-2.175 8.48,-5.599 1.739,-3.424 0.652,-8.86 -0.87,-11.796 -1.522,-2.936 -3.479,-3.37 -5.436,-2.719 -1.958,0.653 -3.915,2.392 -9.242,3.044 -5.327,0.653 -14.024,0.218 -24.19,-6.06 -10.165,-6.279 -21.798,-18.4 -27.56,-26.446 -5.764,-8.046 -5.655,-12.014 -2.285,-16.5 3.371,-4.485 10.003,-9.486 11.308,-13.943 1.305,-4.457 -2.718,-8.37 -7.12,-11.035 -4.404,-2.664 -9.188,-4.077 -11.58,-4.784 -2.393,-0.707 -2.393,-0.707 -3.703,3.1 z"
   style="mix-blend-mode:normal;fill:#000000;fill-opacity:1;stroke:#000000;stroke-width:1.5;stroke-linecap:round;stroke-linejoin:bevel;stroke-dasharray:none;stroke-opacity:0.502146;paint-order:markers stroke fill;filter:url(#a)"
   transform="matrix(1.25559,0,0,1.25559,-61,-33.698)"
   id="path7" />&#10;                <circle
   cx="411.763"
   cy="161.64101"
   r="15.85"
   style="fill:#000000;fill-opacity:1;stroke:#000000;stroke-width:31.009;stroke-linecap:round;stroke-linejoin:bevel;stroke-dasharray:none;stroke-opacity:1;paint-order:stroke markers fill;filter:url(#b)"
   id="circle7" />&#10;            </g>&#10;            <g
   transform="matrix(0.02923,0,0,0.02923,1.884,1.88)"
   id="g8">&#10;                <circle
   cx="194.58299"
   cy="214.48"
   r="13.047"
   style="fill:#000000;fill-opacity:1;stroke:#000000;stroke-width:25.525;stroke-linecap:round;stroke-linejoin:bevel;stroke-dasharray:none;stroke-opacity:1;paint-order:normal;filter:url(#c)"
   id="circle8" />&#10;                <path
   d="m 179.574,211.764 c -1.31,3.807 -3.93,11.421 -6.461,17.45 -2.532,6.029 -4.974,10.471 -8.144,13.9 -3.17,3.43 -7.067,5.846 -9.893,7.412 -2.825,1.567 -4.579,2.284 -4.999,0.859 -0.42,-1.425 0.495,-4.993 -1.135,-7.713 -1.63,-2.72 -5.806,-4.593 -10.366,-7.088 -4.559,-2.495 -9.5,-5.613 -13.93,-5.052 -4.428,0.56 -8.342,4.8 -12.202,9.367 -3.86,4.566 -7.665,9.459 -10.655,15.167 -2.99,5.708 -5.164,12.231 -7.664,14.569 -2.5,2.337 -5.326,0.49 -7.773,0.978 -2.447,0.49 -4.513,3.316 -6.307,6.197 -1.794,2.881 -3.316,5.817 -4.186,10.112 -0.87,4.295 -1.087,9.948 2.23,14.895 3.317,4.946 10.166,9.186 17.94,11.197 7.773,2.012 16.47,1.794 23.103,1.305 6.632,-0.49 11.198,-1.25 13.317,2.175 2.12,3.425 1.794,11.035 0,20.603 -1.794,9.567 -5.056,21.092 -9.078,31.203 -4.023,10.11 -8.807,18.808 -14.352,28.05 -5.545,9.241 -11.85,19.026 -15.003,25.767 -3.153,6.741 -3.153,10.438 -2.609,13.047 0.544,2.61 1.631,4.131 3.371,5.218 1.74,1.087 4.132,1.74 6.415,1.848 2.283,0.108 4.457,-0.326 6.957,-2.61 2.5,-2.283 5.327,-6.414 8.697,-11.524 3.37,-5.11 7.285,-11.198 10.655,-16.743 3.37,-5.545 6.197,-10.546 8.915,-15.33 2.718,-4.783 5.328,-9.35 7.828,-13.264 2.5,-3.914 4.893,-7.175 6.85,-10.546 1.957,-3.37 3.479,-6.849 6.632,-8.806 3.154,-1.957 7.937,-2.392 10.764,-2.283 2.827,0.11 3.697,0.761 5.437,1.849 1.74,1.087 4.348,2.609 6.196,5.436 1.848,2.827 2.935,6.958 3.479,12.503 0.543,5.545 0.543,12.503 0.543,19.352 0,6.85 0,13.59 -0.109,19.57 -0.108,5.98 -0.326,11.198 0.544,16.091 0.87,4.893 2.827,9.459 5.654,11.85 2.828,2.392 6.524,2.609 9.568,1.74 3.044,-0.87 5.435,-2.828 7.12,-6.035 1.685,-3.207 2.664,-7.664 3.262,-13.372 0.598,-5.708 0.815,-12.666 0.761,-20.874 -0.054,-8.209 -0.38,-17.667 -0.87,-25.06 -0.489,-7.394 -1.141,-12.72 -2.88,-17.94 -1.74,-5.218 -4.566,-10.328 -7.067,-14.296 -2.5,-3.969 -4.675,-6.795 -7.501,-9.296 -2.827,-2.501 -6.306,-4.675 -7.938,-7.72 -1.631,-3.044 -1.414,-6.958 -1.305,-14.35 0.109,-7.394 0.109,-18.266 0.218,-24.463 0.108,-6.197 0.326,-7.72 1.522,-7.61 1.197,0.108 3.371,1.848 7.285,5 3.914,3.154 9.568,7.72 17.178,10.111 7.61,2.392 17.178,2.61 22.505,2.609 5.328,0 6.415,-0.218 7.067,0.11 0.652,0.326 0.87,1.196 -0.816,23.375 -1.685,22.18 -5.273,65.667 -6.74,87.738 -1.468,22.07 -0.815,22.723 0.109,22.994 0.924,0.272 2.12,0.163 3.207,-0.272 1.087,-0.435 2.065,-1.196 4.566,-23.864 2.5,-22.669 6.523,-67.243 8.426,-89.586 1.903,-22.343 1.686,-22.451 3.86,-23.213 2.174,-0.761 6.74,-2.175 8.48,-5.599 1.74,-3.424 0.652,-8.86 -0.87,-11.796 -1.521,-2.936 -3.478,-3.37 -5.436,-2.718 -1.957,0.652 -3.914,2.391 -9.241,3.044 -5.327,0.652 -14.025,0.217 -24.19,-6.061 -10.166,-6.278 -21.799,-18.4 -27.562,-26.446 -5.763,-8.046 -5.654,-12.014 -2.283,-16.5 3.37,-4.485 10.002,-9.486 11.307,-13.943 1.305,-4.457 -2.717,-8.37 -7.12,-11.035 -4.404,-2.664 -9.187,-4.077 -11.58,-4.784 -2.392,-0.707 -2.392,-0.707 -3.703,3.1 z"
   style="mix-blend-mode:normal;fill:#000000;fill-opacity:1;stroke:#000000;stroke-width:1.5;stroke-linecap:round;stroke-linejoin:bevel;stroke-dasharray:none;stroke-opacity:0.502146;paint-order:markers stroke fill;filter:url(#d)"
   id="path8" />&#10;            </g>&#10;        </g>&#10;        <path
   d="m 26.347,536.894 c -2.405,0 -4.552,-0.429 -6.441,-1.288 a 25.63,25.63 0 0 1 -5.41,-3.349 25.626,25.626 0 0 1 -3.35,-5.41 c -0.859,-1.89 -1.288,-4.037 -1.288,-6.442 0,-2.404 0.43,-4.551 1.288,-6.44 a 25.626,25.626 0 0 1 3.35,-5.411 l 494.67,-494.67 a 25.658,25.658 0 0 1 5.41,-3.35 c 1.89,-0.86 4.038,-1.289 6.443,-1.289 4.465,0 8.33,1.632 11.594,4.895 3.262,3.264 4.894,7.128 4.894,11.593 0,2.406 -0.43,4.553 -1.288,6.443 a 25.659,25.659 0 0 1 -3.35,5.41 L 38.2,532.256 a 25.626,25.626 0 0 1 -5.411,3.35 c -1.89,0.858 -4.036,1.287 -6.441,1.287"
   style="font-style:normal;font-weight:400;font-size:21.5433px;font-family:icomoon;vector-effect:none;fill:#ff0000;fill-opacity:1;fill-rule:nonzero;stroke:none;stroke-width:18.1948;stroke-linecap:square;stroke-linejoin:bevel"
   transform="matrix(0.03664,0,0,0.03664,-0.015,0.021)"
   id="path9" />&#10;    </g>&#10;</svg>
