<svg xmlns="http://www.w3.org/2000/svg" width="20" height="20" version="1.2">
    <g font-weight="400" style="fill:none;fill-rule:evenodd;stroke:#000;stroke-width:1;stroke-linecap:square;stroke-linejoin:bevel">
        <g style="font-style:normal;font-weight:400;font-size:22.67709923px;font-family:icomoon;fill:#fff;fill-opacity:1;stroke:none">
            <path d="M2.637-24.375h24.726c.723 0 1.343.259 1.86.776.518.518.777 1.138.777 1.86V2.989c0 .723-.259 1.343-.776 1.86a2.538 2.538 0 0 1-1.86.777H2.636a2.538 2.538 0 0 1-1.86-.776A2.538 2.538 0 0 1 0 2.989v-24.727c0-.723.259-1.343.776-1.86a2.538 2.538 0 0 1 1.86-.777" font-size="22.677" style="vector-effect:none;fill-rule:nonzero" transform="matrix(.66667 0 0 .66667 0 16.25)"/>
        </g>
        <g style="font-style:normal;font-weight:400;font-size:17.00779915px;font-family:icomoon;fill:#000;fill-opacity:1;stroke:none">
            <path d="M20.979-18.014a1.3 1.3 0 0 1 .954.393 1.3 1.3 0 0 1 .393.955V2.291a1.3 1.3 0 0 1-.393.955 1.3 1.3 0 0 1-.955.393H2.021a1.3 1.3 0 0 1-.954-.393 1.3 1.3 0 0 1-.393-.955v-18.957a1.3 1.3 0 0 1 .393-.955 1.3 1.3 0 0 1 .954-.393h18.957m0-.674H2.021c-.554 0-1.029.199-1.426.596A1.946 1.946 0 0 0 0-16.666V2.291c0 .554.198 1.03.595 1.426.397.397.872.595 1.426.595h18.957c.555 0 1.03-.198 1.427-.595.397-.397.595-.872.595-1.426v-18.957c0-.554-.198-1.03-.595-1.426a1.946 1.946 0 0 0-1.426-.596M18.26.023l-5.009-1.864 4.402-1.909a.238.238 0 0 0 .146-.112.374.374 0 0 0 .056-.202v-.831a.348.348 0 0 0-.033-.158.29.29 0 0 0-.101-.112.44.44 0 0 0-.09-.034.472.472 0 0 0-.112-.01h-.057a.076.076 0 0 0-.056.022l-6.58 2.425L5.57-4.717c-.015-.015-.03-.022-.045-.022h-.067a.521.521 0 0 0-.101.011.105.105 0 0 0-.079.056.401.401 0 0 0-.112.112.277.277 0 0 0-.045.158v.853c0 .06.019.12.056.18a.36.36 0 0 0 .146.135L8.49-1.887 4.74-.494a.446.446 0 0 0-.158.135.329.329 0 0 0-.067.202c0 .015.003.033.01.056a.185.185 0 0 1 .012.056l.472 1.348a.237.237 0 0 0 .078.112c.038.03.072.06.101.09h.27l5.458-2.359L17.542 2a.18.18 0 0 0 .079.022h.134A.076.076 0 0 0 17.812 2a.237.237 0 0 0 .112-.079.397.397 0 0 0 .067-.123l.494-1.348V.337a.374.374 0 0 0-.056-.202.246.246 0 0 0-.168-.113m-7.367-4.918a2.085 2.085 0 0 1 .764.135h-.023c.135-.135.367-.42.696-.854.315-.42.629-.985.943-1.696.315-.711.577-1.569.787-2.572.194-.988.232-2.104.112-3.347a46.443 46.443 0 0 0-1.527-1.628 34.168 34.168 0 0 0-1.595-1.516l-.023-.023.326 1.247c.217.831-.46 1.958-2.033 3.38l-.674.63c-.06.239-.108.497-.146.774a6.455 6.455 0 0 0-.056.865c0 .913.18 1.77.54 2.572.359.8.845 1.486 1.46 2.055l.022.022a1.42 1.42 0 0 1 .202-.033c.075-.008.15-.011.225-.011m-4.021 0c.464.359.92.52 1.37.482a8.73 8.73 0 0 0 1.325-.213A7.383 7.383 0 0 1 8.21-6.806a6.815 6.815 0 0 1-.505-2.605 7.714 7.714 0 0 1 .045-.831v.022C6.716-9.157 6.061-8.194 5.784-7.333c-.277.86.086 1.673 1.09 2.437m9.77-1.124c.374-.344.584-.756.629-1.235.044-.479-.027-.992-.214-1.538a8.016 8.016 0 0 0-.82-1.674 18.383 18.383 0 0 0-1.19-1.707v.517c0 .674-.053 1.34-.157 1.999-.12.644-.292 1.269-.517 1.875a12.906 12.906 0 0 1-.809 1.763c-.314.555-.673 1.071-1.078 1.55l.023-.022c.509.135 1.093.138 1.752.011.658-.127 1.452-.64 2.38-1.539" font-size="17.008" style="vector-effect:none;fill-rule:nonzero" transform="matrix(.66667 0 0 .66667 2.333 14.792)"/>
        </g>
        <g style="font-style:normal;font-weight:400;font-size:22.67709923px;font-family:icomoon;fill:#000;fill-opacity:1;stroke:none">
            <path d="M26.426-22.236c.39 0 .727.141 1.01.425.284.283.425.62.425 1.01V2.051c0 .39-.141.727-.425 1.01a1.38 1.38 0 0 1-1.01.425H3.574a1.38 1.38 0 0 1-1.01-.424 1.38 1.38 0 0 1-.425-1.011v-22.852c0-.39.141-.727.424-1.01a1.38 1.38 0 0 1 1.011-.425h22.852m0-.703H3.574c-.586 0-1.089.21-1.509.63-.42.42-.63.922-.63 1.508V2.051c0 .586.21 1.089.63 1.509.42.42.923.63 1.51.63h22.85c.587 0 1.09-.21 1.51-.63.42-.42.63-.923.63-1.51V-20.8c0-.587-.21-1.09-.63-1.51-.42-.42-.923-.63-1.51-.63m1.436-.732c.391 0 .728.142 1.011.425.283.283.425.62.425 1.01V3.487c0 .39-.142.728-.425 1.011a1.38 1.38 0 0 1-1.01.425H2.138a1.38 1.38 0 0 1-1.011-.425 1.38 1.38 0 0 1-.425-1.01v-25.723c0-.391.142-.728.425-1.011a1.38 1.38 0 0 1 1.01-.425h25.723m0-.703H2.14c-.586 0-1.09.21-1.51.63-.419.42-.629.923-.629 1.509V3.486c0 .586.21 1.09.63 1.51.42.419.923.629 1.509.629H27.86c.586 0 1.09-.21 1.51-.63.419-.42.629-.923.629-1.509v-25.722c0-.586-.21-1.09-.63-1.51-.42-.419-.923-.629-1.509-.629" font-size="22.677" style="vector-effect:none;fill-rule:nonzero" transform="matrix(.66667 0 0 .66667 0 16.25)"/>
        </g>
    </g>
</svg>
