<?xml version="1.0" encoding="UTF-8" standalone="no"?>
<svg
   xmlns:dc="http://purl.org/dc/elements/1.1/"
   xmlns:cc="http://creativecommons.org/ns#"
   xmlns:rdf="http://www.w3.org/1999/02/22-rdf-syntax-ns#"
   xmlns:svg="http://www.w3.org/2000/svg"
   xmlns="http://www.w3.org/2000/svg"
   xmlns:sodipodi="http://sodipodi.sourceforge.net/DTD/sodipodi-0.dtd"
   xmlns:inkscape="http://www.inkscape.org/namespaces/inkscape"
   width="20"
   height="20"
   viewBox="0 0 20 20"
   version="1.2"
   id="svg38"
   sodipodi:docname="60202010232.svg"
   inkscape:version="0.92.4 (5da689c313, 2019-01-14)">
  <metadata
     id="metadata42">
    <rdf:RDF>
      <cc:Work
         rdf:about="">
        <dc:format>image/svg+xml</dc:format>
        <dc:type
           rdf:resource="http://purl.org/dc/dcmitype/StillImage" />
      </cc:Work>
    </rdf:RDF>
  </metadata>
  <sodipodi:namedview
     pagecolor="#ffffff"
     bordercolor="#666666"
     borderopacity="1"
     objecttolerance="10"
     gridtolerance="10"
     guidetolerance="10"
     inkscape:pageopacity="0"
     inkscape:pageshadow="2"
     inkscape:window-width="1920"
     inkscape:window-height="1017"
     id="namedview40"
     showgrid="false"
     inkscape:zoom="11.8"
     inkscape:cx="-5.2542373"
     inkscape:cy="10"
     inkscape:window-x="-8"
     inkscape:window-y="-8"
     inkscape:window-maximized="1"
     inkscape:current-layer="svg38" />
  <title
     id="title2">Qt SVG Document</title>
  <desc
     id="desc4">Generated with Qt</desc>
  <defs
     id="defs6" />
  <g
     id="g36"
     transform="matrix(0.65217391,0,0,0.65217391,-0.43478256,-0.43478256)"
     style="fill:none;fill-rule:evenodd;stroke:#000000;stroke-width:1;stroke-linecap:square;stroke-linejoin:bevel">
    <g
       transform="translate(16,16)"
       font-size="8.25"
       font-weight="400"
       font-style="normal"
       id="g8"
       style="font-style:normal;font-weight:400;font-size:8.25px;font-family:'MS Shell Dlg 2';fill:none;stroke:#000000;stroke-width:1;stroke-linecap:square;stroke-linejoin:bevel;stroke-opacity:1" />
    <g
       transform="matrix(1.33333,0,0,1.33333,16,16)"
       font-size="8.25"
       font-weight="400"
       font-style="normal"
       id="g10"
       style="font-style:normal;font-weight:400;font-size:8.25px;font-family:'MS Shell Dlg 2';fill:none;stroke:#000000;stroke-width:1;stroke-linecap:square;stroke-linejoin:bevel;stroke-opacity:1" />
    <g
       transform="translate(4.5,23.1875)"
       font-size="17.0078"
       font-weight="400"
       font-style="normal"
       id="g14"
       style="font-style:normal;font-weight:400;font-size:17.00779915px;font-family:icomoon;fill:#ff0000;fill-opacity:1;stroke:none">
      <path
         d="M 2.02148,-18.6875 H 20.9785 c 0.5541,0 1.0295,0.1984 1.4263,0.5952 C 22.8016,-17.6955 23,-17.2201 23,-16.666 V 2.29102 C 23,2.84505 22.8016,3.32048 22.4048,3.71729 22.008,4.1141 21.5326,4.3125 20.9785,4.3125 H 2.02148 C 1.46745,4.3125 0.992025,4.1141 0.595215,3.71729 0.198405,3.32048 0,2.84505 0,2.29102 V -16.666 c 0,-0.5541 0.198405,-1.0295 0.595215,-1.4263 0.39681,-0.3968 0.872235,-0.5952 1.426265,-0.5952"
         id="path12"
         inkscape:connector-curvature="0"
         style="vector-effect:none;fill-rule:nonzero" />
    </g>
    <g
       transform="matrix(1.33333,0,0,1.33333,16,16)"
       font-size="8.25"
       font-weight="400"
       font-style="normal"
       id="g16"
       style="font-style:normal;font-weight:400;font-size:8.25px;font-family:'MS Shell Dlg 2';fill:none;stroke:#000000;stroke-width:1;stroke-linecap:square;stroke-linejoin:bevel;stroke-opacity:1" />
    <g
       transform="translate(16,16)"
       font-size="8.25"
       font-weight="400"
       font-style="normal"
       id="g18"
       style="font-style:normal;font-weight:400;font-size:8.25px;font-family:'MS Shell Dlg 2';fill:none;stroke:#000000;stroke-width:1;stroke-linecap:square;stroke-linejoin:bevel;stroke-opacity:1" />
    <g
       font-size="8.25"
       font-weight="400"
       font-style="normal"
       id="g20"
       style="font-style:normal;font-weight:400;font-size:8.25px;font-family:'MS Shell Dlg 2';fill:none;stroke:#000000;stroke-width:1;stroke-linecap:square;stroke-linejoin:bevel;stroke-opacity:1" />
    <g
       transform="translate(16,16)"
       font-size="8.25"
       font-weight="400"
       font-style="normal"
       id="g22"
       style="font-style:normal;font-weight:400;font-size:8.25px;font-family:'MS Shell Dlg 2';fill:none;stroke:#000000;stroke-width:1;stroke-linecap:square;stroke-linejoin:bevel;stroke-opacity:1" />
    <g
       transform="matrix(1.33333,0,0,1.33333,16,16)"
       font-size="8.25"
       font-weight="400"
       font-style="normal"
       id="g24"
       style="font-style:normal;font-weight:400;font-size:8.25px;font-family:'MS Shell Dlg 2';fill:none;stroke:#000000;stroke-width:1;stroke-linecap:square;stroke-linejoin:bevel;stroke-opacity:1" />
    <g
       transform="translate(4.5,23.1875)"
       font-size="17.0078"
       font-weight="400"
       font-style="normal"
       id="g28"
       style="font-style:normal;font-weight:400;font-size:17.00779915px;font-family:icomoon;fill:#000000;fill-opacity:1;stroke:none">
      <path
         d="m 20.9785,-18.0137 c 0.3744,0 0.6926,0.1311 0.9546,0.3931 0.262,0.262 0.3931,0.5802 0.3931,0.9546 V 2.29102 c 0,0.37434 -0.1311,0.69254 -0.3931,0.95459 -0.262,0.26204 -0.5802,0.39306 -0.9546,0.39306 H 2.02148 C 1.64714,3.63867 1.32894,3.50765 1.06689,3.24561 0.80485,2.98356 0.673828,2.66536 0.673828,2.29102 V -16.666 c 0,-0.3744 0.131022,-0.6926 0.393062,-0.9546 0.26205,-0.262 0.58025,-0.3931 0.95459,-0.3931 H 20.9785 m 0,-0.6738 H 2.02148 c -0.55403,0 -1.029455,0.1984 -1.426265,0.5952 C 0.198405,-17.6955 0,-17.2201 0,-16.666 V 2.29102 C 0,2.84505 0.198405,3.32048 0.595215,3.71729 0.992025,4.1141 1.46745,4.3125 2.02148,4.3125 H 20.9785 c 0.5541,0 1.0295,-0.1984 1.4263,-0.59521 C 22.8016,3.32048 23,2.84505 23,2.29102 V -16.666 c 0,-0.5541 -0.1984,-1.0295 -0.5952,-1.4263 -0.3968,-0.3968 -0.8722,-0.5952 -1.4263,-0.5952 M 18.5977,-1.10059 V -12.3984 h -0.9659 c 0,-0.9434 -0.3369,-1.752 -1.0107,-2.4258 -0.6738,-0.6738 -1.4824,-1.0108 -2.4258,-1.0108 -0.5989,0 -1.1455,0.1348 -1.6396,0.4043 -0.4942,0.2696 -0.891,0.6289 -1.1905,1.0782 h -0.0224 c -0.3145,-0.4493 -0.7188,-0.8086 -1.2129,-1.0782 -0.49416,-0.2695 -1.03322,-0.4043 -1.6172,-0.4043 -0.94336,0 -1.75196,0.337 -2.42579,1.0108 -0.67382,0.6738 -1.01074,1.4824 -1.01074,2.4258 V -1.10059 H 2.80762 V 1.48242 H 20.1924 V -1.10059 H 18.5977 M 14.1953,-14.4873 c 0.584,0 1.0819,0.2021 1.4937,0.6064 0.4117,0.4043 0.6176,0.8985 0.6176,1.4825 H 15.2061 V -1.10059 H 13.0947 V -12.3984 H 12.084 c 0,-0.584 0.2059,-1.0782 0.6177,-1.4825 0.4117,-0.4043 0.9096,-0.6064 1.4936,-0.6064 0,0 0.0075,0 0.0225,0 h -0.0225 m -7.77147,2.0889 c 0,-0.569 0.20589,-1.0594 0.61767,-1.4712 0.41179,-0.4118 0.90218,-0.6177 1.4712,-0.6177 0.58398,0 1.07812,0.2059 1.48242,0.6177 0.40428,0.4118 0.60648,0.9022 0.60648,1.4712 H 9.47852 V -1.10059 H 6.42383 V -12.3984"
         id="path26"
         inkscape:connector-curvature="0"
         style="vector-effect:none;fill-rule:nonzero" />
    </g>
    <g
       transform="matrix(1.33333,0,0,1.33333,16,16)"
       font-size="8.25"
       font-weight="400"
       font-style="normal"
       id="g30"
       style="font-style:normal;font-weight:400;font-size:8.25px;font-family:'MS Shell Dlg 2';fill:none;stroke:#000000;stroke-width:1;stroke-linecap:square;stroke-linejoin:bevel;stroke-opacity:1" />
    <g
       transform="translate(16,16)"
       font-size="8.25"
       font-weight="400"
       font-style="normal"
       id="g32"
       style="font-style:normal;font-weight:400;font-size:8.25px;font-family:'MS Shell Dlg 2';fill:none;stroke:#000000;stroke-width:1;stroke-linecap:square;stroke-linejoin:bevel;stroke-opacity:1" />
    <g
       font-size="8.25"
       font-weight="400"
       font-style="normal"
       id="g34"
       style="font-style:normal;font-weight:400;font-size:8.25px;font-family:'MS Shell Dlg 2';fill:none;stroke:#000000;stroke-width:1;stroke-linecap:square;stroke-linejoin:bevel;stroke-opacity:1" />
  </g>
</svg>
