<svg xmlns="http://www.w3.org/2000/svg" width="20" height="20" version="1.2">
    <g font-weight="400" style="fill:none;fill-rule:evenodd;stroke:#000;stroke-width:1;stroke-linecap:square;stroke-linejoin:bevel">
        <g style="font-style:normal;font-weight:400;font-size:17.00779915px;font-family:icomoon;fill:red;fill-opacity:1;stroke:none">
            <path d="M2.021-18.688h18.957c.555 0 1.03.199 1.427.596.397.396.595.872.595 1.426V2.291c0 .554-.198 1.03-.595 1.426a1.946 1.946 0 0 1-1.427.595H2.021c-.554 0-1.029-.198-1.426-.595A1.946 1.946 0 0 1 0 2.291v-18.957c0-.554.198-1.03.595-1.426a1.946 1.946 0 0 1 1.426-.596" font-size="17.008" style="vector-effect:none;fill-rule:nonzero" transform="matrix(.65217 0 0 .65217 2.5 14.687)"/>
        </g>
        <g style="font-style:normal;font-weight:400;font-size:17.00779915px;font-family:icomoon;fill:#000;fill-opacity:1;stroke:none">
            <path d="M20.979-18.014a1.3 1.3 0 0 1 .954.393 1.3 1.3 0 0 1 .393.955V2.291a1.3 1.3 0 0 1-.393.955 1.3 1.3 0 0 1-.955.393H2.021a1.3 1.3 0 0 1-.954-.393 1.3 1.3 0 0 1-.393-.955v-18.957a1.3 1.3 0 0 1 .393-.955 1.3 1.3 0 0 1 .954-.393h18.957m0-.674H2.021c-.554 0-1.029.199-1.426.596A1.946 1.946 0 0 0 0-16.666V2.291c0 .554.198 1.03.595 1.426.397.397.872.595 1.426.595h18.957c.555 0 1.03-.198 1.427-.595.397-.397.595-.872.595-1.426v-18.957c0-.554-.198-1.03-.595-1.426a1.946 1.946 0 0 0-1.426-.596m-5.414 6.761a4.56 4.56 0 0 1 1.842.382c.57.24 1.067.577 1.494 1.01a5.1 5.1 0 0 1 1.022 1.506c.254.569.382 1.183.382 1.841 0 .66-.128 1.273-.382 1.842A5.099 5.099 0 0 1 18.9-3.84a4.546 4.546 0 0 1-1.494 1.01 4.56 4.56 0 0 1-1.842.383h-8.13a4.56 4.56 0 0 1-1.842-.382 4.545 4.545 0 0 1-1.494-1.01 5.097 5.097 0 0 1-1.022-1.506 4.458 4.458 0 0 1-.382-1.841c0-.66.128-1.273.382-1.842A5.097 5.097 0 0 1 4.1-10.534a4.546 4.546 0 0 1 1.494-1.01 4.56 4.56 0 0 1 1.842-.383h8.13m0-.674h-8.13a5.11 5.11 0 0 0-2.09.427 5.608 5.608 0 0 0-1.729 1.157A5.377 5.377 0 0 0 2.448-9.3a5.268 5.268 0 0 0-.427 2.112c0 .748.143 1.452.427 2.11a5.376 5.376 0 0 0 1.168 1.72c.494.486 1.07.871 1.73 1.156a5.11 5.11 0 0 0 2.089.427h8.13a5.11 5.11 0 0 0 2.09-.427 5.607 5.607 0 0 0 1.729-1.157 5.376 5.376 0 0 0 1.168-1.718 5.268 5.268 0 0 0 .427-2.111c0-.75-.143-1.453-.427-2.112a5.377 5.377 0 0 0-1.168-1.718 5.608 5.608 0 0 0-1.73-1.157 5.11 5.11 0 0 0-2.089-.427m0 2.718a2.6 2.6 0 0 1 1.91.786 2.6 2.6 0 0 1 .786 1.91 2.6 2.6 0 0 1-.786 1.909 2.6 2.6 0 0 1-1.91.786h-8.13a2.6 2.6 0 0 1-1.91-.786 2.6 2.6 0 0 1-.786-1.91 2.6 2.6 0 0 1 .786-1.909 2.6 2.6 0 0 1 1.91-.786h8.13m0-.696h-8.13c-.929 0-1.722.333-2.381 1-.66.666-.989 1.463-.989 2.392 0 .928.33 1.725.989 2.392.659.666 1.452 1 2.38 1h8.131c.929 0 1.722-.334 2.381-1 .66-.667.989-1.464.989-2.392 0-.929-.33-1.726-.989-2.393-.659-.666-1.452-1-2.38-1" font-size="17.008" style="vector-effect:none;fill-rule:nonzero" transform="matrix(.65217 0 0 .65217 2.5 14.687)"/>
        </g>
    </g>
</svg>
