<svg xmlns="http://www.w3.org/2000/svg" width="20" height="20" version="1.2">
    <g font-weight="400" style="fill:none;fill-rule:evenodd;stroke:#000;stroke-width:1;stroke-linecap:square;stroke-linejoin:bevel">
        <g style="font-style:normal;font-weight:400;font-size:17.00779915px;font-family:icomoon;fill:#fff;fill-opacity:1;stroke:none">
            <path d="M2.021-18.688h18.957c.555 0 1.03.199 1.427.596.397.396.595.872.595 1.426V2.291c0 .554-.198 1.03-.595 1.426a1.946 1.946 0 0 1-1.427.595H2.021c-.554 0-1.029-.198-1.426-.595A1.946 1.946 0 0 1 0 2.291v-18.957c0-.554.198-1.03.595-1.426a1.946 1.946 0 0 1 1.426-.596" font-size="17.008" style="vector-effect:none;fill-rule:nonzero" transform="matrix(.65217 0 0 .65217 2.5 14.687)"/>
        </g>
        <g style="font-style:normal;font-weight:400;font-size:17.00779915px;font-family:icomoon;fill:#000;fill-opacity:1;stroke:none">
            <path d="M20.979-18.014a1.3 1.3 0 0 1 .954.393 1.3 1.3 0 0 1 .393.955V2.291a1.3 1.3 0 0 1-.393.955 1.3 1.3 0 0 1-.955.393H2.021a1.3 1.3 0 0 1-.954-.393 1.3 1.3 0 0 1-.393-.955v-18.957a1.3 1.3 0 0 1 .393-.955 1.3 1.3 0 0 1 .954-.393h18.957m0-.674H2.021c-.554 0-1.029.199-1.426.596A1.946 1.946 0 0 0 0-16.666V2.291c0 .554.198 1.03.595 1.426.397.397.872.595 1.426.595h18.957c.555 0 1.03-.198 1.427-.595.397-.397.595-.872.595-1.426v-18.957c0-.554-.198-1.03-.595-1.426a1.946 1.946 0 0 0-1.426-.596M3.055-.247h16.89v1.349H3.055V-.247M5.48-8.266l-2.2 2.044c.239.614.553 1.247.943 1.898.389.652.86 1.142 1.415 1.471L7.95-8.31l-2.47.045m14.846.787a7.87 7.87 0 0 0 .169-.562l.056-.225h-1.056l.831.787M3.504-8.266h-.876l.045.191c.03.128.075.296.135.506l.696-.697m14.015 0h-2.47l2.336 5.548c.569-.344 1.055-.835 1.46-1.471.404-.636.734-1.276.988-1.92L17.52-8.266m-3.504 1.079H8.984L6.94-2.359h9.142l-2.066-4.83m6.58.427-7.277-6.85a1.918 1.918 0 0 0 .292-1.01c0-.57-.198-1.053-.595-1.45a1.946 1.946 0 0 0-1.426-.595c-.57 0-1.048.198-1.438.595-.389.397-.584.88-.584 1.449 0 .165.02.33.057.494.037.165.1.315.19.45h-.022l-7.39 6.917a.427.427 0 0 0-.078.113.3.3 0 0 0-.034.134c0 .045.011.086.034.124a.522.522 0 0 0 .078.1c.03.046.064.076.101.09a.33.33 0 0 0 .124.023h.022a.3.3 0 0 0 .225-.09l7.345-6.895.134.112L5.301-1.1a.185.185 0 0 1-.011.056.32.32 0 0 0 .045.27.391.391 0 0 0 .145.123h.135a.32.32 0 0 0 .191-.057.391.391 0 0 0 .124-.146l5.03-11.881c.09.03.188.056.293.078.105.023.217.034.337.034.09 0 .172-.004.247-.011.075-.008.157-.027.247-.056h-.022L17.07-.854c.03.06.071.109.124.146a.32.32 0 0 0 .19.057h.135a.39.39 0 0 0 .146-.124.32.32 0 0 0 .057-.19.185.185 0 0 0-.012-.057.251.251 0 0 1-.01-.079L12.69-12.96a.589.589 0 0 0 .09-.056.853.853 0 0 0 .09-.079l7.278 6.828a.299.299 0 0 0 .224.09c.045 0 .09-.007.135-.022a.216.216 0 0 0 .112-.09.299.299 0 0 0 .09-.225.299.299 0 0 0-.034-.134.43.43 0 0 0-.078-.113m-10.355-7.861v-.023a1.3 1.3 0 0 1 .393-.954 1.3 1.3 0 0 1 .955-.393 1.3 1.3 0 0 1 .954.393 1.3 1.3 0 0 1 .393.955c0 .164-.03.321-.09.471-.06.15-.134.285-.224.404-.135.15-.288.266-.46.349a1.311 1.311 0 0 1-.573.123 1.3 1.3 0 0 1-.955-.393 1.274 1.274 0 0 1-.393-.932" font-size="17.008" style="vector-effect:none;fill-rule:nonzero" transform="matrix(.65217 0 0 .65217 2.5 14.687)"/>
        </g>
        <g style="font-style:normal;font-weight:400;font-size:15.8739996px;font-family:icomoon;fill:red;fill-opacity:1;stroke:none">
            <path d="M.656 3.938A.613.613 0 0 1 .4 3.885a1.02 1.02 0 0 1-.215-.133 1.02 1.02 0 0 1-.134-.215A.613.613 0 0 1 0 3.28c0-.095.017-.18.051-.256a1.02 1.02 0 0 1 .134-.215l19.687-19.688c.068-.055.14-.1.215-.133a.613.613 0 0 1 .257-.051.63.63 0 0 1 .461.194.63.63 0 0 1 .195.462.613.613 0 0 1-.051.256 1.014 1.014 0 0 1-.134.215L1.128 3.753c-.068.055-.14.1-.215.133a.613.613 0 0 1-.257.051" font-size="15.874" style="vector-effect:none;fill-rule:nonzero" transform="matrix(.65217 0 0 .65217 3.152 14.28)"/>
        </g>
    </g>
</svg>
