<svg xmlns="http://www.w3.org/2000/svg" width="20" height="20" version="1.2">
    <g font-weight="400" style="fill:none;fill-rule:evenodd;stroke:#000;stroke-width:1;stroke-linecap:square;stroke-linejoin:bevel">
        <g style="font-style:normal;font-weight:400;font-size:17.00779915px;font-family:icomoon;fill:red;fill-opacity:1;stroke:none">
            <path d="M2.021-18.688h18.957c.555 0 1.03.199 1.427.596.397.396.595.872.595 1.426V2.291c0 .554-.198 1.03-.595 1.426a1.946 1.946 0 0 1-1.427.595H2.021c-.554 0-1.029-.198-1.426-.595A1.946 1.946 0 0 1 0 2.291v-18.957c0-.554.198-1.03.595-1.426a1.946 1.946 0 0 1 1.426-.596" font-size="17.008" style="vector-effect:none;fill-rule:nonzero" transform="matrix(.65217 0 0 .65217 2.5 14.687)"/>
        </g>
        <g style="font-style:normal;font-weight:400;font-size:17.00779915px;font-family:icomoon;fill:#000;fill-opacity:1;stroke:none">
            <path d="M20.979-18.014a1.3 1.3 0 0 1 .954.393 1.3 1.3 0 0 1 .393.955V2.291a1.3 1.3 0 0 1-.393.955 1.3 1.3 0 0 1-.955.393H2.021a1.3 1.3 0 0 1-.954-.393 1.3 1.3 0 0 1-.393-.955v-18.957a1.3 1.3 0 0 1 .393-.955 1.3 1.3 0 0 1 .954-.393h18.957m0-.674H2.021c-.554 0-1.029.199-1.426.596A1.946 1.946 0 0 0 0-16.666V2.291c0 .554.198 1.03.595 1.426.397.397.872.595 1.426.595h18.957c.555 0 1.03-.198 1.427-.595.397-.397.595-.872.595-1.426v-18.957c0-.554-.198-1.03-.595-1.426a1.946 1.946 0 0 0-1.426-.596m.067 11.5v-.673h-.023a9.636 9.636 0 0 0-.92-3.504 9.708 9.708 0 0 0-2.067-2.83 9.274 9.274 0 0 0-2.965-1.887 9.257 9.257 0 0 0-3.571-.696 9.256 9.256 0 0 0-3.571.696 9.375 9.375 0 0 0-2.965 1.875 9.471 9.471 0 0 0-2.067 2.842 9.444 9.444 0 0 0-.92 3.481v.023h-.045v1.347h.045a9.26 9.26 0 0 0 .876 3.325A9.351 9.351 0 0 0 4.75-.438 9.443 9.443 0 0 0 7.48 1.46a9.224 9.224 0 0 0 3.301.876h.045v.022h1.348v-.022a9.26 9.26 0 0 0 3.324-.876A9.35 9.35 0 0 0 18.25-.438a9.445 9.445 0 0 0 1.897-2.729 9.224 9.224 0 0 0 .876-3.302v-.045h.023v-.673M11.5-15.386a7.87 7.87 0 0 1 3.032.584c.959.39 1.8.921 2.527 1.595a8.42 8.42 0 0 1 1.786 2.38c.449.9.719 1.88.808 2.943l.023.023H3.324a7.958 7.958 0 0 1 .831-2.965 8.42 8.42 0 0 1 1.786-2.381 8.233 8.233 0 0 1 2.527-1.595 7.87 7.87 0 0 1 3.032-.584M3.324-6.514h7.502V.988A8.054 8.054 0 0 1 8.02.225a8.508 8.508 0 0 1-2.303-1.618 8.217 8.217 0 0 1-1.628-2.29 7.718 7.718 0 0 1-.741-2.808l-.023-.023m8.85 7.502v-7.502h7.502a8.055 8.055 0 0 1-.764 2.808 8.508 8.508 0 0 1-1.617 2.302A8.216 8.216 0 0 1 15.004.225a7.719 7.719 0 0 1-2.808.74l-.022.023" font-size="17.008" style="vector-effect:none;fill-rule:nonzero" transform="matrix(.65217 0 0 .65217 2.5 14.687)"/>
        </g>
    </g>
</svg>
