<svg xmlns="http://www.w3.org/2000/svg" width="20" height="20" version="1.2">
    <g font-weight="400" style="fill:none;fill-rule:evenodd;stroke:#000;stroke-width:1;stroke-linecap:square;stroke-linejoin:bevel">
        <g style="font-style:normal;font-weight:400;font-size:22.67709923px;font-family:icomoon;fill:#fff;fill-opacity:1;stroke:none">
            <path d="M2.637-24.375h24.726c.723 0 1.343.259 1.86.776.518.518.777 1.138.777 1.86V2.989c0 .723-.259 1.343-.776 1.86a2.538 2.538 0 0 1-1.86.777H2.636a2.538 2.538 0 0 1-1.86-.776A2.538 2.538 0 0 1 0 2.989v-24.727c0-.723.259-1.343.776-1.86a2.538 2.538 0 0 1 1.86-.777" font-size="22.677" style="vector-effect:none;fill-rule:nonzero" transform="matrix(.66667 0 0 .66667 0 16.25)"/>
        </g>
        <g style="font-style:normal;font-weight:400;font-size:17.00779915px;font-family:icomoon;fill:#000;fill-opacity:1;stroke:none">
            <path d="M20.979-18.014a1.3 1.3 0 0 1 .954.393 1.3 1.3 0 0 1 .393.955V2.291a1.3 1.3 0 0 1-.393.955 1.3 1.3 0 0 1-.955.393H2.021a1.3 1.3 0 0 1-.954-.393 1.3 1.3 0 0 1-.393-.955v-18.957a1.3 1.3 0 0 1 .393-.955 1.3 1.3 0 0 1 .954-.393h18.957m0-.674H2.021c-.554 0-1.029.199-1.426.596A1.946 1.946 0 0 0 0-16.666V2.291c0 .554.198 1.03.595 1.426.397.397.872.595 1.426.595h18.957c.555 0 1.03-.198 1.427-.595.397-.397.595-.872.595-1.426v-18.957c0-.554-.198-1.03-.595-1.426a1.946 1.946 0 0 0-1.426-.596M11.5-16.733a9.47 9.47 0 0 0-3.729.74 9.86 9.86 0 0 0-3.02 2.056 9.861 9.861 0 0 0-2.056 3.021 9.47 9.47 0 0 0-.74 3.728c0 1.318.246 2.561.74 3.729A9.861 9.861 0 0 0 4.75-.438a9.861 9.861 0 0 0 3.021 2.055 9.47 9.47 0 0 0 3.729.741 9.47 9.47 0 0 0 3.728-.74A9.861 9.861 0 0 0 18.25-.439a9.86 9.86 0 0 0 2.055-3.021 9.47 9.47 0 0 0 .74-3.729 9.47 9.47 0 0 0-.74-3.728 9.86 9.86 0 0 0-2.055-3.021 9.86 9.86 0 0 0-3.021-2.055 9.47 9.47 0 0 0-3.729-.741m8.176 8.872H13.14l4.604-4.627c.54.629.977 1.332 1.314 2.111a7.51 7.51 0 0 1 .595 2.493l.023.023m-7.502-7.502c.898.075 1.737.28 2.516.617a8.267 8.267 0 0 1 2.11 1.314l-4.626 4.605v-6.536m-1.348 6.536L6.2-13.432a8.267 8.267 0 0 1 2.112-1.314 7.51 7.51 0 0 1 2.493-.595l.022-.022v6.536m0 9.815A7.953 7.953 0 0 1 8.311.371 8.268 8.268 0 0 1 6.199-.943l4.627-4.605V.988m1.348-6.536L16.8-.943A8.268 8.268 0 0 1 14.69.37a7.51 7.51 0 0 1-2.494.595l-.022.022v-6.536m-6.918-6.94L9.86-7.861H3.324c.075-.899.281-1.737.618-2.516a8.269 8.269 0 0 1 1.314-2.111M3.324-6.514H9.86L5.256-1.887a8.268 8.268 0 0 1-1.314-2.111 7.509 7.509 0 0 1-.595-2.493l-.023-.023m14.42 4.627L13.14-6.514h6.536a7.954 7.954 0 0 1-.618 2.516 8.267 8.267 0 0 1-1.314 2.111" font-size="17.008" style="vector-effect:none;fill-rule:nonzero" transform="matrix(.66667 0 0 .66667 2.333 14.792)"/>
        </g>
        <g style="font-style:normal;font-weight:400;font-size:22.67709923px;font-family:icomoon;fill:#000;fill-opacity:1;stroke:none">
            <path d="M26.426-22.236c.39 0 .727.141 1.01.425.284.283.425.62.425 1.01V2.051c0 .39-.141.727-.425 1.01a1.38 1.38 0 0 1-1.01.425H3.574a1.38 1.38 0 0 1-1.01-.424 1.38 1.38 0 0 1-.425-1.011v-22.852c0-.39.141-.727.424-1.01a1.38 1.38 0 0 1 1.011-.425h22.852m0-.703H3.574c-.586 0-1.089.21-1.509.63-.42.42-.63.922-.63 1.508V2.051c0 .586.21 1.089.63 1.509.42.42.923.63 1.51.63h22.85c.587 0 1.09-.21 1.51-.63.42-.42.63-.923.63-1.51V-20.8c0-.587-.21-1.09-.63-1.51-.42-.42-.923-.63-1.51-.63m1.436-.732c.391 0 .728.142 1.011.425.283.283.425.62.425 1.01V3.487c0 .39-.142.728-.425 1.011a1.38 1.38 0 0 1-1.01.425H2.138a1.38 1.38 0 0 1-1.011-.425 1.38 1.38 0 0 1-.425-1.01v-25.723c0-.391.142-.728.425-1.011a1.38 1.38 0 0 1 1.01-.425h25.723m0-.703H2.14c-.586 0-1.09.21-1.51.63-.419.42-.629.923-.629 1.509V3.486c0 .586.21 1.09.63 1.51.42.419.923.629 1.509.629H27.86c.586 0 1.09-.21 1.51-.63.419-.42.629-.923.629-1.509v-25.722c0-.586-.21-1.09-.63-1.51-.42-.419-.923-.629-1.509-.629" font-size="22.677" style="vector-effect:none;fill-rule:nonzero" transform="matrix(.66667 0 0 .66667 0 16.25)"/>
        </g>
        <g style="font-style:normal;font-weight:400;font-size:21.54330063px;font-family:icomoon;fill:red;fill-opacity:1;stroke:none">
            <path d="M.906 5.438a.847.847 0 0 1-.354-.071 1.409 1.409 0 0 1-.297-.184 1.408 1.408 0 0 1-.184-.298A.847.847 0 0 1 0 4.531c0-.132.024-.25.07-.354.048-.104.11-.203.185-.297l27.187-27.188a1.41 1.41 0 0 1 .298-.184.847.847 0 0 1 .354-.07c.245 0 .458.09.637.269.18.179.269.391.269.637 0 .132-.024.25-.07.354a1.41 1.41 0 0 1-.185.297L1.558 5.183a1.408 1.408 0 0 1-.298.184.847.847 0 0 1-.354.07" font-size="21.543" style="vector-effect:none;fill-rule:nonzero" transform="matrix(.66667 0 0 .66667 .333 16.042)"/>
        </g>
    </g>
</svg>
