<svg xmlns="http://www.w3.org/2000/svg" width="20" height="20" version="1.2">
    <g font-weight="400" style="fill:none;fill-rule:evenodd;stroke:#000;stroke-width:1;stroke-linecap:square;stroke-linejoin:bevel">
        <g style="font-style:normal;font-weight:400;font-size:17.00779915px;font-family:icomoon;fill:#fff;fill-opacity:1;stroke:none">
            <path d="M2.021-18.688h18.957c.555 0 1.03.199 1.427.596.397.396.595.872.595 1.426V2.291c0 .554-.198 1.03-.595 1.426a1.946 1.946 0 0 1-1.427.595H2.021c-.554 0-1.029-.198-1.426-.595A1.946 1.946 0 0 1 0 2.291v-18.957c0-.554.198-1.03.595-1.426a1.946 1.946 0 0 1 1.426-.596" font-size="17.008" style="vector-effect:none;fill-rule:nonzero" transform="matrix(.65217 0 0 .65217 2.5 14.687)"/>
        </g>
        <g style="font-style:normal;font-weight:400;font-size:17.00779915px;font-family:icomoon;fill:#000;fill-opacity:1;stroke:none">
            <path d="M20.979-18.014a1.3 1.3 0 0 1 .954.393 1.3 1.3 0 0 1 .393.955V2.291a1.3 1.3 0 0 1-.393.955 1.3 1.3 0 0 1-.955.393H2.021a1.3 1.3 0 0 1-.954-.393 1.3 1.3 0 0 1-.393-.955v-18.957a1.3 1.3 0 0 1 .393-.955 1.3 1.3 0 0 1 .954-.393h18.957m0-.674H2.021c-.554 0-1.029.199-1.426.596A1.946 1.946 0 0 0 0-16.666V2.291c0 .554.198 1.03.595 1.426.397.397.872.595 1.426.595h18.957c.555 0 1.03-.198 1.427-.595.397-.397.595-.872.595-1.426v-18.957c0-.554-.198-1.03-.595-1.426a1.946 1.946 0 0 0-1.426-.596m-8.805 1.977v-.045h-1.348v.045a9.187 9.187 0 0 0-3.481.943 9.33 9.33 0 0 0-2.83 2.067 9.818 9.818 0 0 0-1.887 2.965 9.256 9.256 0 0 0-.696 3.571c0 1.318.254 2.553.763 3.706A9.386 9.386 0 0 0 4.74-.416c.869.861 1.88 1.547 3.032 2.056a9.47 9.47 0 0 0 3.729.74 9.47 9.47 0 0 0 3.728-.74 10.002 10.002 0 0 0 3.033-2.056 9.387 9.387 0 0 0 2.044-3.043 9.072 9.072 0 0 0 .763-3.706 9.256 9.256 0 0 0-.696-3.571 9.819 9.819 0 0 0-1.887-2.965 9.417 9.417 0 0 0-2.807-2.067 9.151 9.151 0 0 0-3.46-.943h-.044M4.739-2.583a8.066 8.066 0 0 1-1.437-4.604 7.87 7.87 0 0 1 .584-3.033c.39-.958.92-1.8 1.594-2.527a8.42 8.42 0 0 1 2.381-1.785 7.625 7.625 0 0 1 2.943-.809l.022-.022v7.861L4.74-2.583M11.5 1.011A7.92 7.92 0 0 1 8.22.326a8.15 8.15 0 0 1-2.627-1.853H5.57l5.93-4.785 5.93 4.785A8.412 8.412 0 0 1 14.78.326a7.92 7.92 0 0 1-3.28.685m.674-8.513v-7.861a7.959 7.959 0 0 1 2.965.83 8.42 8.42 0 0 1 2.38 1.786 8.308 8.308 0 0 1 1.595 2.505c.39.958.584 1.969.584 3.032a8.111 8.111 0 0 1-1.46 4.672l.023-.045-6.087-4.919" font-size="17.008" style="vector-effect:none;fill-rule:nonzero" transform="matrix(.65217 0 0 .65217 2.5 14.687)"/>
        </g>
    </g>
</svg>
