<svg xmlns="http://www.w3.org/2000/svg" width="20" height="20" version="1.2">
    <g font-weight="400" style="fill:none;fill-rule:evenodd;stroke:#000;stroke-width:1;stroke-linecap:square;stroke-linejoin:bevel">
        <g style="font-style:normal;font-weight:400;font-size:19.84250069px;font-family:icomoon;fill:#fff;fill-opacity:1;stroke:none">
            <path d="M2.285-21.125h21.43a2.2 2.2 0 0 1 1.612.673A2.2 2.2 0 0 1 26-18.84V2.59a2.2 2.2 0 0 1-.673 1.612 2.2 2.2 0 0 1-1.612.673H2.285a2.2 2.2 0 0 1-1.612-.673A2.2 2.2 0 0 1 0 2.59v-21.43a2.2 2.2 0 0 1 .673-1.612 2.2 2.2 0 0 1 1.612-.673" font-size="19.843" style="vector-effect:none;fill-rule:nonzero" transform="matrix(.6923 0 0 .6923 1 15.625)"/>
        </g>
        <g style="font-style:normal;font-weight:400;font-size:17.00779915px;font-family:icomoon;fill:#000;fill-opacity:1;stroke:none">
            <path d="M20.979-18.014a1.3 1.3 0 0 1 .954.393 1.3 1.3 0 0 1 .393.955V2.291a1.3 1.3 0 0 1-.393.955 1.3 1.3 0 0 1-.955.393H2.021a1.3 1.3 0 0 1-.954-.393 1.3 1.3 0 0 1-.393-.955v-18.957a1.3 1.3 0 0 1 .393-.955 1.3 1.3 0 0 1 .954-.393h18.957m0-.674H2.021c-.554 0-1.029.199-1.426.596A1.946 1.946 0 0 0 0-16.666V2.291c0 .554.198 1.03.595 1.426.397.397.872.595 1.426.595h18.957c.555 0 1.03-.198 1.427-.595.397-.397.595-.872.595-1.426v-18.957c0-.554-.198-1.03-.595-1.426a1.946 1.946 0 0 0-1.426-.596m.044 10.827a9.26 9.26 0 0 0-.876-3.325 9.352 9.352 0 0 0-1.898-2.751 9.445 9.445 0 0 0-2.729-1.898 9.224 9.224 0 0 0-3.301-.876h-.045v-.045h-1.348v.045a9.26 9.26 0 0 0-3.324.876 9.352 9.352 0 0 0-2.752 1.898 9.443 9.443 0 0 0-1.897 2.729 9.224 9.224 0 0 0-.876 3.302v.045h-.045v1.347h.045a9.26 9.26 0 0 0 .876 3.325A9.351 9.351 0 0 0 4.75-.438 9.443 9.443 0 0 0 7.48 1.46a9.224 9.224 0 0 0 3.301.876h.045v.022h1.348v-.022a9.26 9.26 0 0 0 3.324-.876A9.35 9.35 0 0 0 18.25-.438a9.445 9.445 0 0 0 1.897-2.729 9.224 9.224 0 0 0 .876-3.302v-.045h.023V-7.86h-.023m-1.347 0h-7.502v-7.502c1.003.09 1.939.344 2.807.763.869.42 1.636.959 2.303 1.618a8.218 8.218 0 0 1 1.628 2.29c.42.87.666 1.805.741 2.808l.023.023m-8.85-7.502v7.502H3.324c.09-1.004.345-1.94.764-2.808a8.508 8.508 0 0 1 1.617-2.302A8.219 8.219 0 0 1 7.996-14.6a7.716 7.716 0 0 1 2.808-.74l.022-.023m-7.502 8.85h7.502V.987A8.054 8.054 0 0 1 8.02.225a8.508 8.508 0 0 1-2.303-1.618 8.217 8.217 0 0 1-1.628-2.29 7.718 7.718 0 0 1-.741-2.808l-.023-.023m8.85 7.502v-7.502h7.502a8.055 8.055 0 0 1-.764 2.808 8.508 8.508 0 0 1-1.617 2.302A8.216 8.216 0 0 1 15.004.225a7.719 7.719 0 0 1-2.808.74l-.022.023" font-size="17.008" style="vector-effect:none;fill-rule:nonzero" transform="matrix(.6923 0 0 .6923 2.038 14.976)"/>
        </g>
        <g style="font-style:normal;font-weight:400;font-size:19.84250069px;font-family:icomoon;fill:#000;fill-opacity:1;stroke:none">
            <path d="M23.943-20.44c.373 0 .694.136.965.407.271.27.406.592.406.965V2.818c0 .373-.135.694-.406.965-.27.271-.592.406-.965.406H2.057c-.373 0-.694-.135-.965-.406a1.318 1.318 0 0 1-.406-.965v-21.886c0-.373.135-.694.406-.965.27-.271.592-.407.965-.407h21.886m0-.685H2.057c-.576 0-1.063.199-1.46.597A1.986 1.986 0 0 0 0-19.068V2.818c0 .576.199 1.063.597 1.46.397.398.884.597 1.46.597h21.886c.576 0 1.063-.199 1.46-.597.398-.397.597-.884.597-1.46v-21.886c0-.576-.199-1.063-.597-1.46a1.986 1.986 0 0 0-1.46-.597" font-size="19.843" style="vector-effect:none;fill-rule:nonzero" transform="matrix(.6923 0 0 .6923 1 15.625)"/>
        </g>
    </g>
</svg>
