<svg xmlns="http://www.w3.org/2000/svg" width="20" height="20" version="1.2">
    <g font-weight="400" style="fill:none;fill-rule:evenodd;stroke:#000;stroke-width:1;stroke-linecap:square;stroke-linejoin:bevel">
        <g style="font-style:normal;font-weight:400;font-size:22.67709923px;font-family:icomoon;fill:#fff;fill-opacity:1;stroke:none">
            <path d="M2.637-24.375h24.726c.723 0 1.343.259 1.86.776.518.518.777 1.138.777 1.86V2.989c0 .723-.259 1.343-.776 1.86a2.538 2.538 0 0 1-1.86.777H2.636a2.538 2.538 0 0 1-1.86-.776A2.538 2.538 0 0 1 0 2.989v-24.727c0-.723.259-1.343.776-1.86a2.538 2.538 0 0 1 1.86-.777" font-size="22.677" style="vector-effect:none;fill-rule:nonzero" transform="matrix(.66667 0 0 .66667 0 16.25)"/>
        </g>
        <g style="font-style:normal;font-weight:400;font-size:17.00779915px;font-family:icomoon;fill:#000;fill-opacity:1;stroke:none">
            <path d="M20.979-18.014a1.3 1.3 0 0 1 .954.393 1.3 1.3 0 0 1 .393.955V2.291a1.3 1.3 0 0 1-.393.955 1.3 1.3 0 0 1-.955.393H2.021a1.3 1.3 0 0 1-.954-.393 1.3 1.3 0 0 1-.393-.955v-18.957a1.3 1.3 0 0 1 .393-.955 1.3 1.3 0 0 1 .954-.393h18.957m0-.674H2.021c-.554 0-1.029.199-1.426.596A1.946 1.946 0 0 0 0-16.666V2.291c0 .554.198 1.03.595 1.426.397.397.872.595 1.426.595h18.957c.555 0 1.03-.198 1.427-.595.397-.397.595-.872.595-1.426v-18.957c0-.554-.198-1.03-.595-1.426a1.946 1.946 0 0 0-1.426-.596M11.5-16.733a9.47 9.47 0 0 0-3.729.74 10.003 10.003 0 0 0-3.032 2.056 9.387 9.387 0 0 0-2.044 3.043 9.072 9.072 0 0 0-.763 3.706c0 1.318.254 2.561.763 3.729A9.583 9.583 0 0 0 4.74-.427a9.583 9.583 0 0 0 3.032 2.044 9.23 9.23 0 0 0 3.729.764 9.072 9.072 0 0 0 3.706-.764A9.387 9.387 0 0 0 18.25-.427a10.003 10.003 0 0 0 2.056-3.032 9.47 9.47 0 0 0 .74-3.728 9.309 9.309 0 0 0-.74-3.707 9.787 9.787 0 0 0-2.056-3.043 9.787 9.787 0 0 0-3.043-2.055 9.309 9.309 0 0 0-3.706-.741m3.728 7.187h4.133a8.418 8.418 0 0 1 .337 2.358c0 .42-.03.832-.09 1.236s-.15.801-.27 1.19l.023-.067h-4.133v-4.717m-1.37 4.717H9.142v-4.717h4.716v4.717m4.942-6.087h-3.572v-3.571a8.7 8.7 0 0 1 2.056 1.505 8.037 8.037 0 0 1 1.493 2.021l.023.045m-4.942-4.133v4.133H9.142v-4.133a8.419 8.419 0 0 1 2.358-.337c.42 0 .831.03 1.235.09.405.06.802.15 1.19.27l-.067-.023m-6.087.562v3.571h-3.57a8.7 8.7 0 0 1 1.504-2.055 8.038 8.038 0 0 1 2.022-1.494l.044-.022M3.64-9.546H7.77v4.717H3.64a8.42 8.42 0 0 1-.337-2.358c0-.42.03-.832.09-1.236s.15-.801.27-1.19l-.023.067M4.2-3.459h3.571V.112a8.7 8.7 0 0 1-2.055-1.505 8.037 8.037 0 0 1-1.493-2.021L4.2-3.46M9.142.674V-3.46h4.716V.674a8.42 8.42 0 0 1-2.358.337c-.42 0-.831-.03-1.235-.09a8.057 8.057 0 0 1-1.19-.27l.067.023m6.087-.562v-3.571h3.57a8.699 8.699 0 0 1-1.504 2.055A8.037 8.037 0 0 1 15.273.09l-.044.022" font-size="17.008" style="vector-effect:none;fill-rule:nonzero" transform="matrix(.66667 0 0 .66667 2.333 14.792)"/>
        </g>
        <g style="font-style:normal;font-weight:400;font-size:22.67709923px;font-family:icomoon;fill:#000;fill-opacity:1;stroke:none">
            <path d="M26.426-22.236c.39 0 .727.141 1.01.425.284.283.425.62.425 1.01V2.051c0 .39-.141.727-.425 1.01a1.38 1.38 0 0 1-1.01.425H3.574a1.38 1.38 0 0 1-1.01-.424 1.38 1.38 0 0 1-.425-1.011v-22.852c0-.39.141-.727.424-1.01a1.38 1.38 0 0 1 1.011-.425h22.852m0-.703H3.574c-.586 0-1.089.21-1.509.63-.42.42-.63.922-.63 1.508V2.051c0 .586.21 1.089.63 1.509.42.42.923.63 1.51.63h22.85c.587 0 1.09-.21 1.51-.63.42-.42.63-.923.63-1.51V-20.8c0-.587-.21-1.09-.63-1.51-.42-.42-.923-.63-1.51-.63m1.436-.732c.391 0 .728.142 1.011.425.283.283.425.62.425 1.01V3.487c0 .39-.142.728-.425 1.011a1.38 1.38 0 0 1-1.01.425H2.138a1.38 1.38 0 0 1-1.011-.425 1.38 1.38 0 0 1-.425-1.01v-25.723c0-.391.142-.728.425-1.011a1.38 1.38 0 0 1 1.01-.425h25.723m0-.703H2.14c-.586 0-1.09.21-1.51.63-.419.42-.629.923-.629 1.509V3.486c0 .586.21 1.09.63 1.51.42.419.923.629 1.509.629H27.86c.586 0 1.09-.21 1.51-.63.419-.42.629-.923.629-1.509v-25.722c0-.586-.21-1.09-.63-1.51-.42-.419-.923-.629-1.509-.629" font-size="22.677" style="vector-effect:none;fill-rule:nonzero" transform="matrix(.66667 0 0 .66667 0 16.25)"/>
        </g>
    </g>
</svg>
