<svg xmlns="http://www.w3.org/2000/svg" width="20" height="20" version="1.2">
    <g font-weight="400" style="fill:none;fill-rule:evenodd;stroke:#000;stroke-width:1;stroke-linecap:square;stroke-linejoin:bevel">
        <g style="font-style:normal;font-weight:400;font-size:17.00779915px;font-family:icomoon;fill:#fff;fill-opacity:1;stroke:none">
            <path d="M2.021-18.688h18.957c.555 0 1.03.199 1.427.596.397.396.595.872.595 1.426V2.291c0 .554-.198 1.03-.595 1.426a1.946 1.946 0 0 1-1.427.595H2.021c-.554 0-1.029-.198-1.426-.595A1.946 1.946 0 0 1 0 2.291v-18.957c0-.554.198-1.03.595-1.426a1.946 1.946 0 0 1 1.426-.596" font-size="17.008" style="vector-effect:none;fill-rule:nonzero" transform="matrix(.65217 0 0 .65217 2.5 14.687)"/>
        </g>
        <g style="font-style:normal;font-weight:400;font-size:17.00779915px;font-family:icomoon;fill:#000;fill-opacity:1;stroke:none">
            <path d="M20.979-18.014a1.3 1.3 0 0 1 .954.393 1.3 1.3 0 0 1 .393.955V2.291a1.3 1.3 0 0 1-.393.955 1.3 1.3 0 0 1-.955.393H2.021a1.3 1.3 0 0 1-.954-.393 1.3 1.3 0 0 1-.393-.955v-18.957a1.3 1.3 0 0 1 .393-.955 1.3 1.3 0 0 1 .954-.393h18.957m0-.674H2.021c-.554 0-1.029.199-1.426.596A1.946 1.946 0 0 0 0-16.666V2.291c0 .554.198 1.03.595 1.426.397.397.872.595 1.426.595h18.957c.555 0 1.03-.198 1.427-.595.397-.397.595-.872.595-1.426v-18.957c0-.554-.198-1.03-.595-1.426a1.946 1.946 0 0 0-1.426-.596M11.5-16.733a9.47 9.47 0 0 0-3.729.74 10.003 10.003 0 0 0-3.032 2.056 9.387 9.387 0 0 0-2.044 3.043 9.072 9.072 0 0 0-.763 3.706c0 1.318.254 2.561.763 3.729A9.583 9.583 0 0 0 4.74-.427a9.583 9.583 0 0 0 3.032 2.044 9.23 9.23 0 0 0 3.729.764 9.072 9.072 0 0 0 3.706-.764A9.387 9.387 0 0 0 18.25-.427a10.003 10.003 0 0 0 2.056-3.032 9.47 9.47 0 0 0 .74-3.728 9.309 9.309 0 0 0-.74-3.707 9.787 9.787 0 0 0-2.056-3.043 9.787 9.787 0 0 0-3.043-2.055 9.309 9.309 0 0 0-3.706-.741m3.728 7.187h4.133a8.418 8.418 0 0 1 .337 2.358c0 .42-.03.832-.09 1.236s-.15.801-.27 1.19l.023-.067h-4.133v-4.717m-1.37 4.717H9.142v-4.717h4.716v4.717m4.942-6.087h-3.572v-3.571a8.7 8.7 0 0 1 2.056 1.505 8.037 8.037 0 0 1 1.493 2.021l.023.045m-4.942-4.133v4.133H9.142v-4.133a8.419 8.419 0 0 1 2.358-.337c.42 0 .831.03 1.235.09.405.06.802.15 1.19.27l-.067-.023m-6.087.562v3.571h-3.57a8.7 8.7 0 0 1 1.504-2.055 8.038 8.038 0 0 1 2.022-1.494l.044-.022M3.64-9.546H7.77v4.717H3.64a8.42 8.42 0 0 1-.337-2.358c0-.42.03-.832.09-1.236s.15-.801.27-1.19l-.023.067M4.2-3.459h3.571V.112a8.7 8.7 0 0 1-2.055-1.505 8.037 8.037 0 0 1-1.493-2.021L4.2-3.46M9.142.674V-3.46h4.716V.674a8.42 8.42 0 0 1-2.358.337c-.42 0-.831-.03-1.235-.09a8.057 8.057 0 0 1-1.19-.27l.067.023m6.087-.562v-3.571h3.57a8.699 8.699 0 0 1-1.504 2.055A8.037 8.037 0 0 1 15.273.09l-.044.022" font-size="17.008" style="vector-effect:none;fill-rule:nonzero" transform="matrix(.65217 0 0 .65217 2.5 14.687)"/>
        </g>
        <g style="font-style:normal;font-weight:400;font-size:15.8739996px;font-family:icomoon;fill:red;fill-opacity:1;stroke:none">
            <path d="M.656 3.938A.613.613 0 0 1 .4 3.885a1.02 1.02 0 0 1-.215-.133 1.02 1.02 0 0 1-.134-.215A.613.613 0 0 1 0 3.28c0-.095.017-.18.051-.256a1.02 1.02 0 0 1 .134-.215l19.687-19.688c.068-.055.14-.1.215-.133a.613.613 0 0 1 .257-.051.63.63 0 0 1 .461.194.63.63 0 0 1 .195.462.613.613 0 0 1-.051.256 1.014 1.014 0 0 1-.134.215L1.128 3.753c-.068.055-.14.1-.215.133a.613.613 0 0 1-.257.051" font-size="15.874" style="vector-effect:none;fill-rule:nonzero" transform="matrix(.65217 0 0 .65217 3.152 14.28)"/>
        </g>
    </g>
</svg>
