<svg xmlns="http://www.w3.org/2000/svg" width="20" height="20" version="1.2">
    <g font-weight="400" style="fill:none;fill-rule:evenodd;stroke:#000;stroke-width:1;stroke-linecap:square;stroke-linejoin:bevel">
        <g style="font-style:normal;font-weight:400;font-size:19.84250069px;font-family:icomoon;fill:red;fill-opacity:1;stroke:none">
            <path d="M2.285-21.125h21.43a2.2 2.2 0 0 1 1.612.673A2.2 2.2 0 0 1 26-18.84V2.59a2.2 2.2 0 0 1-.673 1.612 2.2 2.2 0 0 1-1.612.673H2.285a2.2 2.2 0 0 1-1.612-.673A2.2 2.2 0 0 1 0 2.59v-21.43a2.2 2.2 0 0 1 .673-1.612 2.2 2.2 0 0 1 1.612-.673" font-size="19.843" style="vector-effect:none;fill-rule:nonzero" transform="matrix(.6923 0 0 .6923 1 15.625)"/>
        </g>
        <g style="font-style:normal;font-weight:400;font-size:17.00779915px;font-family:icomoon;fill:#000;fill-opacity:1;stroke:none">
            <path d="M20.979-18.014a1.3 1.3 0 0 1 .954.393 1.3 1.3 0 0 1 .393.955V2.291a1.3 1.3 0 0 1-.393.955 1.3 1.3 0 0 1-.955.393H2.021a1.3 1.3 0 0 1-.954-.393 1.3 1.3 0 0 1-.393-.955v-18.957a1.3 1.3 0 0 1 .393-.955 1.3 1.3 0 0 1 .954-.393h18.957m0-.674H2.021c-.554 0-1.029.199-1.426.596A1.946 1.946 0 0 0 0-16.666V2.291c0 .554.198 1.03.595 1.426.397.397.872.595 1.426.595h18.957c.555 0 1.03-.198 1.427-.595.397-.397.595-.872.595-1.426v-18.957c0-.554-.198-1.03-.595-1.426a1.946 1.946 0 0 0-1.426-.596M18.867-1.1a9.382 9.382 0 0 0 2.179-6.064 9.47 9.47 0 0 0-.741-3.729 10.004 10.004 0 0 0-2.055-3.032 9.45 9.45 0 0 0-3.021-2.044 9.23 9.23 0 0 0-3.729-.763 9.23 9.23 0 0 0-3.729.763 9.45 9.45 0 0 0-3.02 2.044 10.005 10.005 0 0 0-2.056 3.032 9.47 9.47 0 0 0-.74 3.729c0 1.153.194 2.25.583 3.29.39 1.041.921 1.973 1.595 2.797v-.023l.067.068c.09.12.184.232.281.337.097.105.198.21.303.314l.247.225c.075.075.154.146.236.213.082.068.161.139.236.214l.314.224c.09.06.173.12.247.18.075.06.158.112.248.157.09.06.157.101.202.124.045.022.09.056.134.1.06.03.139.072.236.124.098.053.191.101.281.146l.382.18.539.224c.06.03.123.057.19.08.068.022.132.04.192.055.075.03.164.06.27.09l.314.09.382.09c.12.03.235.052.348.067l.325.045.337.067a11.407 11.407 0 0 0 1.033.045h.528c.173 0 .349-.015.528-.045l.315-.022a4.84 4.84 0 0 0 .348-.056c.112-.023.22-.041.326-.056l.381-.113c.105-.015.206-.037.304-.067.097-.03.198-.067.303-.112.09-.03.16-.053.213-.068a.984.984 0 0 0 .169-.067c.06-.03.142-.064.247-.101.105-.038.202-.079.292-.124l.382-.18.494-.291.359-.202c.075-.045.154-.098.236-.158.082-.06.168-.12.258-.18l.292-.224a7.831 7.831 0 0 0 .494-.45c.09-.074.142-.119.157-.134a.667.667 0 0 1 .09-.067 15.49 15.49 0 0 0 .674-.72V-1.1M11.5-15.386h.023a8.08 8.08 0 0 1 3.189.63 8.349 8.349 0 0 1 2.617 1.762 8.109 8.109 0 0 1 1.74 2.595 7.942 7.942 0 0 1 .652 3.189 7.97 7.97 0 0 1-.393 2.516 8.247 8.247 0 0 1-1.09 2.178l.023-.022-6.334-5.144a.879.879 0 0 0-.202-.112.6.6 0 0 0-.46 0 .983.983 0 0 0-.192.112L4.74-2.583a8.066 8.066 0 0 1-1.437-4.604 7.84 7.84 0 0 1 .651-3.19 8.352 8.352 0 0 1 1.763-2.617 8.423 8.423 0 0 1 2.595-1.763 8.08 8.08 0 0 1 3.189-.629" font-size="17.008" style="vector-effect:none;fill-rule:nonzero" transform="matrix(.6923 0 0 .6923 2.038 14.976)"/>
        </g>
        <g style="font-style:normal;font-weight:400;font-size:19.84250069px;font-family:icomoon;fill:#000;fill-opacity:1;stroke:none">
            <path d="M23.943-20.44c.373 0 .694.136.965.407.271.27.406.592.406.965V2.818c0 .373-.135.694-.406.965-.27.271-.592.406-.965.406H2.057c-.373 0-.694-.135-.965-.406a1.318 1.318 0 0 1-.406-.965v-21.886c0-.373.135-.694.406-.965.27-.271.592-.407.965-.407h21.886m0-.685H2.057c-.576 0-1.063.199-1.46.597A1.986 1.986 0 0 0 0-19.068V2.818c0 .576.199 1.063.597 1.46.397.398.884.597 1.46.597h21.886c.576 0 1.063-.199 1.46-.597.398-.397.597-.884.597-1.46v-21.886c0-.576-.199-1.063-.597-1.46a1.986 1.986 0 0 0-1.46-.597" font-size="19.843" style="vector-effect:none;fill-rule:nonzero" transform="matrix(.6923 0 0 .6923 1 15.625)"/>
        </g>
    </g>
</svg>
