<svg xmlns="http://www.w3.org/2000/svg" width="20" height="20" version="1.2">
    <g font-weight="400" style="fill:none;fill-rule:evenodd;stroke:#000;stroke-width:1;stroke-linecap:square;stroke-linejoin:bevel">
        <g style="font-style:normal;font-weight:400;font-size:22.67709923px;font-family:icomoon;fill:#fff;fill-opacity:1;stroke:none">
            <path d="M2.637-24.375h24.726c.723 0 1.343.259 1.86.776.518.518.777 1.138.777 1.86V2.989c0 .723-.259 1.343-.776 1.86a2.538 2.538 0 0 1-1.86.777H2.636a2.538 2.538 0 0 1-1.86-.776A2.538 2.538 0 0 1 0 2.989v-24.727c0-.723.259-1.343.776-1.86a2.538 2.538 0 0 1 1.86-.777" font-size="22.677" style="vector-effect:none;fill-rule:nonzero" transform="matrix(.66667 0 0 .66667 0 16.25)"/>
        </g>
        <g style="font-style:normal;font-weight:400;font-size:17.00779915px;font-family:icomoon;fill:#000;fill-opacity:1;stroke:none">
            <path d="M20.979-18.014a1.3 1.3 0 0 1 .954.393 1.3 1.3 0 0 1 .393.955V2.291a1.3 1.3 0 0 1-.393.955 1.3 1.3 0 0 1-.955.393H2.021a1.3 1.3 0 0 1-.954-.393 1.3 1.3 0 0 1-.393-.955v-18.957a1.3 1.3 0 0 1 .393-.955 1.3 1.3 0 0 1 .954-.393h18.957m0-.674H2.021c-.554 0-1.029.199-1.426.596A1.946 1.946 0 0 0 0-16.666V2.291c0 .554.198 1.03.595 1.426.397.397.872.595 1.426.595h18.957c.555 0 1.03-.198 1.427-.595.397-.397.595-.872.595-1.426v-18.957c0-.554-.198-1.03-.595-1.426a1.946 1.946 0 0 0-1.426-.596m-5.414 6.761a4.56 4.56 0 0 1 1.842.382c.57.24 1.067.577 1.494 1.01a5.1 5.1 0 0 1 1.022 1.506c.254.569.382 1.183.382 1.841 0 .66-.128 1.273-.382 1.842A5.099 5.099 0 0 1 18.9-3.84a4.546 4.546 0 0 1-1.494 1.01 4.56 4.56 0 0 1-1.842.383h-8.13a4.56 4.56 0 0 1-1.842-.382 4.545 4.545 0 0 1-1.494-1.01 5.097 5.097 0 0 1-1.022-1.506 4.458 4.458 0 0 1-.382-1.841c0-.66.128-1.273.382-1.842A5.097 5.097 0 0 1 4.1-10.534a4.546 4.546 0 0 1 1.494-1.01 4.56 4.56 0 0 1 1.842-.383h8.13m0-.674h-8.13a5.11 5.11 0 0 0-2.09.427 5.608 5.608 0 0 0-1.729 1.157A5.377 5.377 0 0 0 2.448-9.3a5.268 5.268 0 0 0-.427 2.112c0 .748.143 1.452.427 2.11a5.376 5.376 0 0 0 1.168 1.72c.494.486 1.07.871 1.73 1.156a5.11 5.11 0 0 0 2.089.427h8.13a5.11 5.11 0 0 0 2.09-.427 5.607 5.607 0 0 0 1.729-1.157 5.376 5.376 0 0 0 1.168-1.718 5.268 5.268 0 0 0 .427-2.111c0-.75-.143-1.453-.427-2.112a5.377 5.377 0 0 0-1.168-1.718 5.608 5.608 0 0 0-1.73-1.157 5.11 5.11 0 0 0-2.089-.427m0 2.718a2.6 2.6 0 0 1 1.91.786 2.6 2.6 0 0 1 .786 1.91 2.6 2.6 0 0 1-.786 1.909 2.6 2.6 0 0 1-1.91.786h-8.13a2.6 2.6 0 0 1-1.91-.786 2.6 2.6 0 0 1-.786-1.91 2.6 2.6 0 0 1 .786-1.909 2.6 2.6 0 0 1 1.91-.786h8.13m0-.696h-8.13c-.929 0-1.722.333-2.381 1-.66.666-.989 1.463-.989 2.392 0 .928.33 1.725.989 2.392.659.666 1.452 1 2.38 1h8.131c.929 0 1.722-.334 2.381-1 .66-.667.989-1.464.989-2.392 0-.929-.33-1.726-.989-2.393-.659-.666-1.452-1-2.38-1" font-size="17.008" style="vector-effect:none;fill-rule:nonzero" transform="matrix(.66667 0 0 .66667 2.333 14.792)"/>
        </g>
        <g style="font-style:normal;font-weight:400;font-size:22.67709923px;font-family:icomoon;fill:#000;fill-opacity:1;stroke:none">
            <path d="M26.426-22.236c.39 0 .727.141 1.01.425.284.283.425.62.425 1.01V2.051c0 .39-.141.727-.425 1.01a1.38 1.38 0 0 1-1.01.425H3.574a1.38 1.38 0 0 1-1.01-.424 1.38 1.38 0 0 1-.425-1.011v-22.852c0-.39.141-.727.424-1.01a1.38 1.38 0 0 1 1.011-.425h22.852m0-.703H3.574c-.586 0-1.089.21-1.509.63-.42.42-.63.922-.63 1.508V2.051c0 .586.21 1.089.63 1.509.42.42.923.63 1.51.63h22.85c.587 0 1.09-.21 1.51-.63.42-.42.63-.923.63-1.51V-20.8c0-.587-.21-1.09-.63-1.51-.42-.42-.923-.63-1.51-.63m1.436-.732c.391 0 .728.142 1.011.425.283.283.425.62.425 1.01V3.487c0 .39-.142.728-.425 1.011a1.38 1.38 0 0 1-1.01.425H2.138a1.38 1.38 0 0 1-1.011-.425 1.38 1.38 0 0 1-.425-1.01v-25.723c0-.391.142-.728.425-1.011a1.38 1.38 0 0 1 1.01-.425h25.723m0-.703H2.14c-.586 0-1.09.21-1.51.63-.419.42-.629.923-.629 1.509V3.486c0 .586.21 1.09.63 1.51.42.419.923.629 1.509.629H27.86c.586 0 1.09-.21 1.51-.63.419-.42.629-.923.629-1.509v-25.722c0-.586-.21-1.09-.63-1.51-.42-.419-.923-.629-1.509-.629" font-size="22.677" style="vector-effect:none;fill-rule:nonzero" transform="matrix(.66667 0 0 .66667 0 16.25)"/>
        </g>
        <g style="font-style:normal;font-weight:400;font-size:21.54330063px;font-family:icomoon;fill:red;fill-opacity:1;stroke:none">
            <path d="M.906 5.438a.847.847 0 0 1-.354-.071 1.409 1.409 0 0 1-.297-.184 1.408 1.408 0 0 1-.184-.298A.847.847 0 0 1 0 4.531c0-.132.024-.25.07-.354.048-.104.11-.203.185-.297l27.187-27.188a1.41 1.41 0 0 1 .298-.184.847.847 0 0 1 .354-.07c.245 0 .458.09.637.269.18.179.269.391.269.637 0 .132-.024.25-.07.354a1.41 1.41 0 0 1-.185.297L1.558 5.183a1.408 1.408 0 0 1-.298.184.847.847 0 0 1-.354.07" font-size="21.543" style="vector-effect:none;fill-rule:nonzero" transform="matrix(.66667 0 0 .66667 .333 16.042)"/>
        </g>
    </g>
</svg>
