<svg xmlns="http://www.w3.org/2000/svg" width="20" height="20" version="1.2">
    <g font-weight="400" style="fill:none;fill-rule:evenodd;stroke:#000;stroke-width:1;stroke-linecap:square;stroke-linejoin:bevel">
        <g style="font-style:normal;font-weight:400;font-size:17.00779915px;font-family:icomoon;fill:red;fill-opacity:1;stroke:none">
            <path d="M2.021-18.688h18.957c.555 0 1.03.199 1.427.596.397.396.595.872.595 1.426V2.291c0 .554-.198 1.03-.595 1.426a1.946 1.946 0 0 1-1.427.595H2.021c-.554 0-1.029-.198-1.426-.595A1.946 1.946 0 0 1 0 2.291v-18.957c0-.554.198-1.03.595-1.426a1.946 1.946 0 0 1 1.426-.596" font-size="17.008" style="vector-effect:none;fill-rule:nonzero" transform="matrix(.65217 0 0 .65217 2.5 14.687)"/>
        </g>
        <g style="font-style:normal;font-weight:400;font-size:17.00779915px;font-family:icomoon;fill:#000;fill-opacity:1;stroke:none">
            <path d="M20.979-18.014a1.3 1.3 0 0 1 .954.393 1.3 1.3 0 0 1 .393.955V2.291a1.3 1.3 0 0 1-.393.955 1.3 1.3 0 0 1-.955.393H2.021a1.3 1.3 0 0 1-.954-.393 1.3 1.3 0 0 1-.393-.955v-18.957a1.3 1.3 0 0 1 .393-.955 1.3 1.3 0 0 1 .954-.393h18.957m0-.674H2.021c-.554 0-1.029.199-1.426.596A1.946 1.946 0 0 0 0-16.666V2.291c0 .554.198 1.03.595 1.426.397.397.872.595 1.426.595h18.957c.555 0 1.03-.198 1.427-.595.397-.397.595-.872.595-1.426v-18.957c0-.554-.198-1.03-.595-1.426a1.946 1.946 0 0 0-1.426-.596m-4.425 8.176-.045 1.91h4.47v-1.91c0-.479-.225-.928-.674-1.347a8.95 8.95 0 0 0-1.483-1.078 11.357 11.357 0 0 0-1.482-.742l-.696-.27H6.356l-.696.27c-.45.18-.943.427-1.482.742a8.95 8.95 0 0 0-1.483 1.078c-.449.419-.674.868-.674 1.347v1.91h4.47l-.045-1.91h-.674v-1.482h2.74v2.83L3.617-3.616v3.19h15.768v-3.19l-4.897-5.548v-2.83h2.74v1.482h-.673m-6.626-1.415h3.144v2.718H9.928v-2.718m4.716 6.94c0 .884-.31 1.637-.932 2.258-.621.621-1.366.932-2.234.932-.884 0-1.636-.31-2.258-.932a3.075 3.075 0 0 1-.932-2.257c0-.869.31-1.614.932-2.235a3.074 3.074 0 0 1 2.258-.932h.022c.884 0 1.632.307 2.246.92a3.11 3.11 0 0 1 .944 2.224l-.045.023" font-size="17.008" style="vector-effect:none;fill-rule:nonzero" transform="matrix(.65217 0 0 .65217 2.5 14.687)"/>
        </g>
    </g>
</svg>
