<svg xmlns="http://www.w3.org/2000/svg" width="20" height="20" version="1.2">
    <g font-weight="400" style="fill:none;fill-rule:evenodd;stroke:#000;stroke-width:1;stroke-linecap:square;stroke-linejoin:bevel">
        <g style="font-style:normal;font-weight:400;font-size:19.84250069px;font-family:icomoon;fill:red;fill-opacity:1;stroke:none">
            <path d="M2.285-21.125h21.43a2.2 2.2 0 0 1 1.612.673A2.2 2.2 0 0 1 26-18.84V2.59a2.2 2.2 0 0 1-.673 1.612 2.2 2.2 0 0 1-1.612.673H2.285a2.2 2.2 0 0 1-1.612-.673A2.2 2.2 0 0 1 0 2.59v-21.43a2.2 2.2 0 0 1 .673-1.612 2.2 2.2 0 0 1 1.612-.673" font-size="19.843" style="vector-effect:none;fill-rule:nonzero" transform="matrix(.6923 0 0 .6923 1 15.625)"/>
        </g>
        <g style="font-style:normal;font-weight:400;font-size:17.00779915px;font-family:icomoon;fill:#000;fill-opacity:1;stroke:none">
            <path d="M20.979-18.014a1.3 1.3 0 0 1 .954.393 1.3 1.3 0 0 1 .393.955V2.291a1.3 1.3 0 0 1-.393.955 1.3 1.3 0 0 1-.955.393H2.021a1.3 1.3 0 0 1-.954-.393 1.3 1.3 0 0 1-.393-.955v-18.957a1.3 1.3 0 0 1 .393-.955 1.3 1.3 0 0 1 .954-.393h18.957m0-.674H2.021c-.554 0-1.029.199-1.426.596A1.946 1.946 0 0 0 0-16.666V2.291c0 .554.198 1.03.595 1.426.397.397.872.595 1.426.595h18.957c.555 0 1.03-.198 1.427-.595.397-.397.595-.872.595-1.426v-18.957c0-.554-.198-1.03-.595-1.426a1.946 1.946 0 0 0-1.426-.596m.494 15.903v-.292h-.09l-4.2-8.131v-2.403H12.51v-2.291h-2.022v2.29H5.817v2.36L2.021-3.078h-.067l-.022.292a.25.25 0 0 0-.023.112V-2.38c0 .045.008.09.023.135v-.023a.2.2 0 0 0-.023.09v.09c0 .629.12 1.213.36 1.752a4.58 4.58 0 0 0 .965 1.438 4.58 4.58 0 0 0 1.438.965c.539.24 1.123.36 1.752.36s1.213-.12 1.752-.36a4.58 4.58 0 0 0 1.437-.965 4.58 4.58 0 0 0 .966-1.438c.24-.539.36-1.123.36-1.752 0-.03-.004-.06-.012-.09a.373.373 0 0 1-.011-.09v-.516l-.09-.292h-.09l-4.245-8.22v-1.64h9.973v1.594l-3.818 8.266h-.068l-.045.292c0 .03-.004.067-.011.112a.965.965 0 0 0 0 .292c.007.045.011.09.011.135v-.023.18c0 .629.112 1.213.337 1.752.24.554.565 1.033.977 1.438a4.8 4.8 0 0 0 1.426.965c.554.24 1.138.36 1.752.36.63 0 1.213-.12 1.752-.36a4.58 4.58 0 0 0 1.438-.965 4.58 4.58 0 0 0 .966-1.438c.24-.539.359-1.123.359-1.752v-.18a3.236 3.236 0 0 1-.034-.28 2.182 2.182 0 0 0-.033-.259v.023M2.785-3.077l3.392-7.367 3.796 7.367H2.785m13.993-7.367 3.796 7.367h-7.187l3.391-7.367" font-size="17.008" style="vector-effect:none;fill-rule:nonzero" transform="matrix(.6923 0 0 .6923 2.038 14.976)"/>
        </g>
        <g style="font-style:normal;font-weight:400;font-size:19.84250069px;font-family:icomoon;fill:#000;fill-opacity:1;stroke:none">
            <path d="M23.943-20.44c.373 0 .694.136.965.407.271.27.406.592.406.965V2.818c0 .373-.135.694-.406.965-.27.271-.592.406-.965.406H2.057c-.373 0-.694-.135-.965-.406a1.318 1.318 0 0 1-.406-.965v-21.886c0-.373.135-.694.406-.965.27-.271.592-.407.965-.407h21.886m0-.685H2.057c-.576 0-1.063.199-1.46.597A1.986 1.986 0 0 0 0-19.068V2.818c0 .576.199 1.063.597 1.46.397.398.884.597 1.46.597h21.886c.576 0 1.063-.199 1.46-.597.398-.397.597-.884.597-1.46v-21.886c0-.576-.199-1.063-.597-1.46a1.986 1.986 0 0 0-1.46-.597" font-size="19.843" style="vector-effect:none;fill-rule:nonzero" transform="matrix(.6923 0 0 .6923 1 15.625)"/>
        </g>
    </g>
</svg>
