<svg xmlns="http://www.w3.org/2000/svg" width="20" height="20" version="1.2">
    <g font-weight="400" style="fill:none;fill-rule:evenodd;stroke:#000;stroke-width:1;stroke-linecap:square;stroke-linejoin:bevel">
        <g style="font-style:normal;font-weight:400;font-size:22.67709923px;font-family:icomoon;fill:#fff;fill-opacity:1;stroke:none">
            <path d="M2.637-24.375h24.726c.723 0 1.343.259 1.86.776.518.518.777 1.138.777 1.86V2.989c0 .723-.259 1.343-.776 1.86a2.538 2.538 0 0 1-1.86.777H2.636a2.538 2.538 0 0 1-1.86-.776A2.538 2.538 0 0 1 0 2.989v-24.727c0-.723.259-1.343.776-1.86a2.538 2.538 0 0 1 1.86-.777" font-size="22.677" style="vector-effect:none;fill-rule:nonzero" transform="matrix(.66667 0 0 .66667 0 16.25)"/>
        </g>
        <g style="font-style:normal;font-weight:400;font-size:17.00779915px;font-family:icomoon;fill:#000;fill-opacity:1;stroke:none">
            <path d="M20.979-18.014a1.3 1.3 0 0 1 .954.393 1.3 1.3 0 0 1 .393.955V2.291a1.3 1.3 0 0 1-.393.955 1.3 1.3 0 0 1-.955.393H2.021a1.3 1.3 0 0 1-.954-.393 1.3 1.3 0 0 1-.393-.955v-18.957a1.3 1.3 0 0 1 .393-.955 1.3 1.3 0 0 1 .954-.393h18.957m0-.674H2.021c-.554 0-1.029.199-1.426.596A1.946 1.946 0 0 0 0-16.666V2.291c0 .554.198 1.03.595 1.426.397.397.872.595 1.426.595h18.957c.555 0 1.03-.198 1.427-.595.397-.397.595-.872.595-1.426v-18.957c0-.554-.198-1.03-.595-1.426a1.946 1.946 0 0 0-1.426-.596m-4.156 8.266c-.03-.674-.25-1.557-.662-2.65-.412-1.093-1.344-1.865-2.797-2.314-.494-.165-.823-.202-.988-.112-.165.09-.21.262-.135.517a3.794 3.794 0 0 0-1.145-.225c-.39-.015-.562.18-.517.584a9.804 9.804 0 0 0 1.1 2.864c.51.876 1.124 1.65 1.842 2.324a3.35 3.35 0 0 1-.527 1.045 3.55 3.55 0 0 1-.798.775h-.022a4.84 4.84 0 0 0-1.337-.618c-.486-.142-1-.213-1.538-.213h-.337a3.072 3.072 0 0 0-1.752.584 5.14 5.14 0 0 0-1.303 1.415 7.404 7.404 0 0 0-.83 1.819 6.59 6.59 0 0 0-.293 1.864 3.377 3.377 0 0 0-1.09.36c-.381.194-.572.546-.572 1.055 0 .734.258 1.13.775 1.19.517.06.707.195.573.405-.225.27-.217.487.022.651l.36.248h7.838l.236-.64c.158-.427.079-.7-.236-.82-.314-.135-.153-.169.483-.102l.955.102.19.707c.128.472.349.723.663.753.315.03.891.037 1.73.022l1.258-.022.045-.483c.03-.322-.277-.648-.921-.977a.3.3 0 0 0-.101-.068 1.355 1.355 0 0 1-.101-.045h-.023a20.78 20.78 0 0 0 .483-2.246c.127-.793.206-1.61.236-2.448v-.045c.075.03.153.049.236.056.082.008.16.011.236.011.329 0 .632-.082.91-.247.276-.164.49-.382.64-.651.374-.719.306-1.527-.203-2.426-.509-.898-1.37-1.565-2.583-1.999" font-size="17.008" style="vector-effect:none;fill-rule:nonzero" transform="matrix(.66667 0 0 .66667 2.333 14.792)"/>
        </g>
        <g style="font-style:normal;font-weight:400;font-size:22.67709923px;font-family:icomoon;fill:#000;fill-opacity:1;stroke:none">
            <path d="M26.426-22.236c.39 0 .727.141 1.01.425.284.283.425.62.425 1.01V2.051c0 .39-.141.727-.425 1.01a1.38 1.38 0 0 1-1.01.425H3.574a1.38 1.38 0 0 1-1.01-.424 1.38 1.38 0 0 1-.425-1.011v-22.852c0-.39.141-.727.424-1.01a1.38 1.38 0 0 1 1.011-.425h22.852m0-.703H3.574c-.586 0-1.089.21-1.509.63-.42.42-.63.922-.63 1.508V2.051c0 .586.21 1.089.63 1.509.42.42.923.63 1.51.63h22.85c.587 0 1.09-.21 1.51-.63.42-.42.63-.923.63-1.51V-20.8c0-.587-.21-1.09-.63-1.51-.42-.42-.923-.63-1.51-.63m1.436-.732c.391 0 .728.142 1.011.425.283.283.425.62.425 1.01V3.487c0 .39-.142.728-.425 1.011a1.38 1.38 0 0 1-1.01.425H2.138a1.38 1.38 0 0 1-1.011-.425 1.38 1.38 0 0 1-.425-1.01v-25.723c0-.391.142-.728.425-1.011a1.38 1.38 0 0 1 1.01-.425h25.723m0-.703H2.14c-.586 0-1.09.21-1.51.63-.419.42-.629.923-.629 1.509V3.486c0 .586.21 1.09.63 1.51.42.419.923.629 1.509.629H27.86c.586 0 1.09-.21 1.51-.63.419-.42.629-.923.629-1.509v-25.722c0-.586-.21-1.09-.63-1.51-.42-.419-.923-.629-1.509-.629" font-size="22.677" style="vector-effect:none;fill-rule:nonzero" transform="matrix(.66667 0 0 .66667 0 16.25)"/>
        </g>
        <g style="font-style:normal;font-weight:400;font-size:21.54330063px;font-family:icomoon;fill:red;fill-opacity:1;stroke:none">
            <path d="M.906 5.438a.847.847 0 0 1-.354-.071 1.409 1.409 0 0 1-.297-.184 1.408 1.408 0 0 1-.184-.298A.847.847 0 0 1 0 4.531c0-.132.024-.25.07-.354.048-.104.11-.203.185-.297l27.187-27.188a1.41 1.41 0 0 1 .298-.184.847.847 0 0 1 .354-.07c.245 0 .458.09.637.269.18.179.269.391.269.637 0 .132-.024.25-.07.354a1.41 1.41 0 0 1-.185.297L1.558 5.183a1.408 1.408 0 0 1-.298.184.847.847 0 0 1-.354.07" font-size="21.543" style="vector-effect:none;fill-rule:nonzero" transform="matrix(.66667 0 0 .66667 .333 16.042)"/>
        </g>
    </g>
</svg>
