<svg xmlns="http://www.w3.org/2000/svg" width="20" height="20" version="1.2">
    <g font-weight="400" style="fill:none;fill-rule:evenodd;stroke:#000;stroke-width:1;stroke-linecap:square;stroke-linejoin:bevel">
        <g style="font-style:normal;font-weight:400;font-size:19.84250069px;font-family:icomoon;fill:#fff;fill-opacity:1;stroke:none">
            <path d="M2.285-21.125h21.43a2.2 2.2 0 0 1 1.612.673A2.2 2.2 0 0 1 26-18.84V2.59a2.2 2.2 0 0 1-.673 1.612 2.2 2.2 0 0 1-1.612.673H2.285a2.2 2.2 0 0 1-1.612-.673A2.2 2.2 0 0 1 0 2.59v-21.43a2.2 2.2 0 0 1 .673-1.612 2.2 2.2 0 0 1 1.612-.673" font-size="19.843" style="vector-effect:none;fill-rule:nonzero" transform="matrix(.6923 0 0 .6923 1 15.625)"/>
        </g>
        <g style="font-style:normal;font-weight:400;font-size:17.00779915px;font-family:icomoon;fill:#000;fill-opacity:1;stroke:none">
            <path d="M20.66-18.014a1.3 1.3 0 0 1 .955.393 1.3 1.3 0 0 1 .393.955V2.291a1.3 1.3 0 0 1-.393.955 1.3 1.3 0 0 1-.955.393H1.703a1.3 1.3 0 0 1-.954-.393 1.3 1.3 0 0 1-.393-.955v-18.957a1.3 1.3 0 0 1 .393-.955 1.3 1.3 0 0 1 .954-.393H20.66m0-.674H1.703c-.554 0-1.03.199-1.426.596a1.946 1.946 0 0 0-.595 1.426V2.291c0 .554.198 1.03.595 1.426.397.397.872.596 1.426.596H20.66c.554 0 1.03-.199 1.427-.596.396-.397.595-.872.595-1.426v-18.957c0-.554-.199-1.03-.595-1.426a1.946 1.946 0 0 0-1.427-.596m-.83 9.412a2.41 2.41 0 0 1-.338-.55 2.978 2.978 0 0 1-.202-.663 1.865 1.865 0 0 0-.348-.854 1.896 1.896 0 0 0-.685-.584h-.023c0-.15-.026-.292-.078-.427a1.233 1.233 0 0 0-.214-.359c-.164-.225-.52-.378-1.066-.46-.547-.083-.97-.101-1.27-.057-.464.12-.898.289-1.302.506a5.04 5.04 0 0 0-1.1.797 3.537 3.537 0 0 0-.922-.55 3.551 3.551 0 0 0-1.078-.258h-.022c-.24 0-.464.04-.674.123-.21.082-.404.191-.584.326a3.196 3.196 0 0 0-.64-.169 4.44 4.44 0 0 0-.708-.056h-.045c-.913 0-1.598.184-2.055.55-.457.367-.722.708-.797 1.022-.27.105-.513.248-.73.427-.217.18-.408.382-.573.607v.022a1.71 1.71 0 0 0-.292.562h-.022c-.375.12-.72.3-1.034.539-.314.24-.471.576-.471 1.01v.18c0 .434.12.824.36 1.168.239.345.546.6.92.764.12.284.288.539.505.764.218.224.46.404.73.539h.023a2.385 2.385 0 0 0-.023.336v.36a9.625 9.625 0 0 0 .09 1.303v-.045c.015.105.086.27.214.494.127.224.265.337.415.337h1.505c.045-.105.082-.21.112-.315.03-.105.045-.217.045-.337a.37.37 0 0 0-.011-.09.37.37 0 0 1-.011-.09 3.778 3.778 0 0 0-.146-.303 10.46 10.46 0 0 1-.146-.28v.022-.112a1.036 1.036 0 0 1 .045-.292c.344-.06.666-.131.966-.214.299-.082.583-.175.853-.28l-.09.022c.42.105.865.187 1.337.247.471.06.954.098 1.448.113.12 0 .304-.004.55-.012.248-.007.416-.018.506-.033.015.314.075.614.18.898.105.285.24.547.404.786.075.09.142.157.202.202.06.045.15.068.27.068h.741c.18-.06.337-.236.472-.528a9.13 9.13 0 0 0 .426-1.202 7.698 7.698 0 0 1 1.64-2.605c.165-.225.303-.468.416-.73.112-.262.198-.536.258-.82v-.022h.18a1.777 1.777 0 0 1 .561.09c.06.03.124.052.19.067a1.14 1.14 0 0 0 .55-.022c.106-.03.203-.076.293-.135.18-.12.322-.274.427-.46.105-.188.157-.394.157-.619v-.045a1.179 1.179 0 0 0-.1-.37 1.39 1.39 0 0 0-.192-.303" font-size="17.008" style="vector-effect:none;fill-rule:nonzero" transform="matrix(.6923 0 0 .6923 2.259 14.976)"/>
        </g>
        <g style="font-style:normal;font-weight:400;font-size:19.84250069px;font-family:icomoon;fill:#000;fill-opacity:1;stroke:none">
            <path d="M23.943-20.44c.373 0 .694.136.965.407.271.27.406.592.406.965V2.818c0 .373-.135.694-.406.965-.27.271-.592.406-.965.406H2.057c-.373 0-.694-.135-.965-.406a1.318 1.318 0 0 1-.406-.965v-21.886c0-.373.135-.694.406-.965.27-.271.592-.407.965-.407h21.886m0-.685H2.057c-.576 0-1.063.199-1.46.597A1.986 1.986 0 0 0 0-19.068V2.818c0 .576.199 1.063.597 1.46.397.398.884.597 1.46.597h21.886c.576 0 1.063-.199 1.46-.597.398-.397.597-.884.597-1.46v-21.886c0-.576-.199-1.063-.597-1.46a1.986 1.986 0 0 0-1.46-.597" font-size="19.843" style="vector-effect:none;fill-rule:nonzero" transform="matrix(.6923 0 0 .6923 1 15.625)"/>
        </g>
    </g>
</svg>
