<svg xmlns="http://www.w3.org/2000/svg" width="20" height="20" version="1.2">
    <g font-weight="400" style="fill:none;fill-rule:evenodd;stroke:#000;stroke-width:1;stroke-linecap:square;stroke-linejoin:bevel">
        <g style="font-style:normal;font-weight:400;font-size:17.00779915px;font-family:icomoon;fill:#fff;fill-opacity:1;stroke:none">
            <path d="M2.021-18.688h18.957c.555 0 1.03.199 1.427.596.397.396.595.872.595 1.426V2.291c0 .554-.198 1.03-.595 1.426a1.946 1.946 0 0 1-1.427.595H2.021c-.554 0-1.029-.198-1.426-.595A1.946 1.946 0 0 1 0 2.291v-18.957c0-.554.198-1.03.595-1.426a1.946 1.946 0 0 1 1.426-.596" font-size="17.008" style="vector-effect:none;fill-rule:nonzero" transform="matrix(.65217 0 0 .65217 2.5 14.687)"/>
        </g>
        <g style="font-style:normal;font-weight:400;font-size:17.00779915px;font-family:icomoon;fill:#000;fill-opacity:1;stroke:none">
            <path d="M20.979-18.014a1.3 1.3 0 0 1 .954.393 1.3 1.3 0 0 1 .393.955V2.291a1.3 1.3 0 0 1-.393.955 1.3 1.3 0 0 1-.955.393H2.021a1.3 1.3 0 0 1-.954-.393 1.3 1.3 0 0 1-.393-.955v-18.957a1.3 1.3 0 0 1 .393-.955 1.3 1.3 0 0 1 .954-.393h18.957m0-.674H2.021c-.554 0-1.029.199-1.426.596A1.946 1.946 0 0 0 0-16.666V2.291c0 .554.198 1.03.595 1.426.397.397.872.595 1.426.595h18.957c.555 0 1.03-.198 1.427-.595.397-.397.595-.872.595-1.426v-18.957c0-.554-.198-1.03-.595-1.426a1.946 1.946 0 0 0-1.426-.596M4.582-12.038 2.695-10.4a.87.87 0 0 0-.045.112.424.424 0 0 0-.022.135v.112c.045.105.094.236.146.393.052.157.138.25.258.28h.023a6.998 6.998 0 0 1 1.37.136l-.045-.023c.314.12.61.243.887.37.277.128.535.266.775.416L6.02-8.49c.044.105.27.554.673 1.347.405.794.644 1.228.72 1.303.074.075.257.199.55.37.291.173.445.334.46.484.015.134.052.445.112.932l.09.73-.898 1.707-.292.18.067.247H8.4l.203-.18.876-1.977.314-.18v1.101l-.674.876.068.157h1.01l.247-.404.326-1.426c.217-.951.356-1.471.415-1.561l.236-.326c.158-.217.304-.31.438-.28.15.014.536.07 1.157.168.621.097 1 .176 1.134.236.24.12.457.25.652.393.194.142.382.295.561.46.135.15.244.199.326.146a.441.441 0 0 1 .236-.078c.075 0 .153.022.236.067a.264.264 0 0 0 .258 0c.09-.06.15-.12.18-.18s.097-.082.202-.067c.045.015.09.034.135.056.044.022.09.041.134.056l-.674 1.954-.965.607.09.18h1.078l.27-.113.426-.629.764-1.774h.314l.45 1.1-.877 1.505.247.113h1.011l.247-.225.157-1.718c.105-1.146.15-1.763.135-1.853a7.77 7.77 0 0 1-.157-.753 14.345 14.345 0 0 1-.112-.865l-.023-.067c.03-.12.105-.475.225-1.067l.18-.887-.046.55c-.03.367-.037.603-.022.708 0 .105.037.314.112.629.075.314.18.509.315.584.135.075.198-.094.19-.506l-.01-.617-.113-.798c-.075-.531-.112-.894-.112-1.09.015-.194-.038-.523-.157-.987-.12-.464-.277-.771-.472-.921a3.973 3.973 0 0 1-.663-.618c-.247-.277-.872-.415-1.875-.415-.554 0-1.224.082-2.01.247-.787.164-1.606.247-2.46.247a9.936 9.936 0 0 1-2.729-.393c-.92-.262-1.868-.229-2.841.1-.075.03-.165-.033-.27-.19l-.157-.236.18-.45a.25.25 0 0 1 .011-.078.249.249 0 0 0 .011-.078.249.249 0 0 0-.011-.08.25.25 0 0 1-.011-.078c-.03-.045-.083-.07-.157-.078l-.113-.012-.92.584-.461-.28c-.307-.187-.483-.281-.528-.281-.03 0-.093-.011-.19-.034-.098-.022-.177-.011-.237.034-.075.06-.1.18-.078.36l.033.269.517.494" font-size="17.008" style="vector-effect:none;fill-rule:nonzero" transform="matrix(.65217 0 0 .65217 2.5 14.687)"/>
        </g>
        <g style="font-style:normal;font-weight:400;font-size:15.8739996px;font-family:icomoon;fill:red;fill-opacity:1;stroke:none">
            <path d="M.656 3.938A.613.613 0 0 1 .4 3.885a1.02 1.02 0 0 1-.215-.133 1.02 1.02 0 0 1-.134-.215A.613.613 0 0 1 0 3.28c0-.095.017-.18.051-.256a1.02 1.02 0 0 1 .134-.215l19.687-19.688c.068-.055.14-.1.215-.133a.613.613 0 0 1 .257-.051.63.63 0 0 1 .461.194.63.63 0 0 1 .195.462.613.613 0 0 1-.051.256 1.014 1.014 0 0 1-.134.215L1.128 3.753c-.068.055-.14.1-.215.133a.613.613 0 0 1-.257.051" font-size="15.874" style="vector-effect:none;fill-rule:nonzero" transform="matrix(.65217 0 0 .65217 3.152 14.28)"/>
        </g>
    </g>
</svg>
