<svg xmlns="http://www.w3.org/2000/svg" width="20" height="20" version="1.2">
    <g font-weight="400" style="fill:none;fill-rule:evenodd;stroke:#000;stroke-width:1;stroke-linecap:square;stroke-linejoin:bevel">
        <g style="font-style:normal;font-weight:400;font-size:17.00779915px;font-family:icomoon;fill:#fff;fill-opacity:1;stroke:none">
            <path d="M2.021-18.688h18.957c.555 0 1.03.199 1.427.596.397.396.595.872.595 1.426V2.291c0 .554-.198 1.03-.595 1.426a1.946 1.946 0 0 1-1.427.595H2.021c-.554 0-1.029-.198-1.426-.595A1.946 1.946 0 0 1 0 2.291v-18.957c0-.554.198-1.03.595-1.426a1.946 1.946 0 0 1 1.426-.596" font-size="17.008" style="vector-effect:none;fill-rule:nonzero" transform="matrix(.65217 0 0 .65217 2.5 14.687)"/>
        </g>
        <g style="font-style:normal;font-weight:400;font-size:17.00779915px;font-family:icomoon;fill:#000;fill-opacity:1;stroke:none">
            <path d="M20.979-18.014a1.3 1.3 0 0 1 .954.393 1.3 1.3 0 0 1 .393.955V2.291a1.3 1.3 0 0 1-.393.955 1.3 1.3 0 0 1-.955.393H2.021a1.3 1.3 0 0 1-.954-.393 1.3 1.3 0 0 1-.393-.955v-18.957a1.3 1.3 0 0 1 .393-.955 1.3 1.3 0 0 1 .954-.393h18.957m0-.674H2.021c-.554 0-1.029.199-1.426.596A1.946 1.946 0 0 0 0-16.666V2.291c0 .554.198 1.03.595 1.426.397.397.872.595 1.426.595h18.957c.555 0 1.03-.198 1.427-.595.397-.397.595-.872.595-1.426v-18.957c0-.554-.198-1.03-.595-1.426a1.946 1.946 0 0 0-1.426-.596m-4.156 8.266c-.03-.674-.25-1.557-.662-2.65-.412-1.093-1.344-1.865-2.797-2.314-.494-.165-.823-.202-.988-.112-.165.09-.21.262-.135.517a3.794 3.794 0 0 0-1.145-.225c-.39-.015-.562.18-.517.584a9.804 9.804 0 0 0 1.1 2.864c.51.876 1.124 1.65 1.842 2.324a3.35 3.35 0 0 1-.527 1.045 3.55 3.55 0 0 1-.798.775h-.022a4.84 4.84 0 0 0-1.337-.618c-.486-.142-1-.213-1.538-.213h-.337a3.072 3.072 0 0 0-1.752.584 5.14 5.14 0 0 0-1.303 1.415 7.404 7.404 0 0 0-.83 1.819 6.59 6.59 0 0 0-.293 1.864 3.377 3.377 0 0 0-1.09.36c-.381.194-.572.546-.572 1.055 0 .734.258 1.13.775 1.19.517.06.707.195.573.405-.225.27-.217.487.022.651l.36.248h7.838l.236-.64c.158-.427.079-.7-.236-.82-.314-.135-.153-.169.483-.102l.955.102.19.707c.128.472.349.723.663.753.315.03.891.037 1.73.022l1.258-.022.045-.483c.03-.322-.277-.648-.921-.977a.3.3 0 0 0-.101-.068 1.355 1.355 0 0 1-.101-.045h-.023a20.78 20.78 0 0 0 .483-2.246c.127-.793.206-1.61.236-2.448v-.045c.075.03.153.049.236.056.082.008.16.011.236.011.329 0 .632-.082.91-.247.276-.164.49-.382.64-.651.374-.719.306-1.527-.203-2.426-.509-.898-1.37-1.565-2.583-1.999" font-size="17.008" style="vector-effect:none;fill-rule:nonzero" transform="matrix(.65217 0 0 .65217 2.5 14.687)"/>
        </g>
        <g style="font-style:normal;font-weight:400;font-size:15.8739996px;font-family:icomoon;fill:red;fill-opacity:1;stroke:none">
            <path d="M.656 3.938A.613.613 0 0 1 .4 3.885a1.02 1.02 0 0 1-.215-.133 1.02 1.02 0 0 1-.134-.215A.613.613 0 0 1 0 3.28c0-.095.017-.18.051-.256a1.02 1.02 0 0 1 .134-.215l19.687-19.688c.068-.055.14-.1.215-.133a.613.613 0 0 1 .257-.051.63.63 0 0 1 .461.194.63.63 0 0 1 .195.462.613.613 0 0 1-.051.256 1.014 1.014 0 0 1-.134.215L1.128 3.753c-.068.055-.14.1-.215.133a.613.613 0 0 1-.257.051" font-size="15.874" style="vector-effect:none;fill-rule:nonzero" transform="matrix(.65217 0 0 .65217 3.152 14.28)"/>
        </g>
    </g>
</svg>
