<svg xmlns="http://www.w3.org/2000/svg" width="20" height="20" version="1.2">
    <g font-weight="400" style="fill:none;fill-rule:evenodd;stroke:#000;stroke-width:1;stroke-linecap:square;stroke-linejoin:bevel">
        <g style="font-style:normal;font-weight:400;font-size:19.84250069px;font-family:icomoon;fill:#fff;fill-opacity:1;stroke:none">
            <path d="M2.285-21.125h21.43a2.2 2.2 0 0 1 1.612.673A2.2 2.2 0 0 1 26-18.84V2.59a2.2 2.2 0 0 1-.673 1.612 2.2 2.2 0 0 1-1.612.673H2.285a2.2 2.2 0 0 1-1.612-.673A2.2 2.2 0 0 1 0 2.59v-21.43a2.2 2.2 0 0 1 .673-1.612 2.2 2.2 0 0 1 1.612-.673" font-size="19.843" style="vector-effect:none;fill-rule:nonzero" transform="matrix(.6923 0 0 .6923 1 15.625)"/>
        </g>
        <g style="font-style:normal;font-weight:400;font-size:17.00779915px;font-family:icomoon;fill:#000;fill-opacity:1;stroke:none">
            <path d="M20.979-18.014a1.3 1.3 0 0 1 .954.393 1.3 1.3 0 0 1 .393.955V2.291a1.3 1.3 0 0 1-.393.955 1.3 1.3 0 0 1-.955.393H2.021a1.3 1.3 0 0 1-.954-.393 1.3 1.3 0 0 1-.393-.955v-18.957a1.3 1.3 0 0 1 .393-.955 1.3 1.3 0 0 1 .954-.393h18.957m0-.674H2.021c-.554 0-1.029.199-1.426.596A1.946 1.946 0 0 0 0-16.666V2.291c0 .554.198 1.03.595 1.426.397.397.872.595 1.426.595h18.957c.555 0 1.03-.198 1.427-.595.397-.397.595-.872.595-1.426v-18.957c0-.554-.198-1.03-.595-1.426a1.946 1.946 0 0 0-1.426-.596M10.893-4.223A12.687 12.687 0 0 0 12.6-4.38a9.212 9.212 0 0 0 1.594-.404l-.067.022c.898-.27 1.71-.808 2.437-1.617.726-.809 1.239-1.437 1.539-1.887.898.09 1.463.09 1.695 0l.348-.134v-4.65a5.971 5.971 0 0 0-3.706 2.47h-.022l-.618-.044a9.897 9.897 0 0 0-1.82.045 8.842 8.842 0 0 0-1.11.202h.066c.884-.794 1.333-1.52 1.348-2.179.015-.659-.12-1.123-.404-1.392-.375-.36-.842-.333-1.404.078-.562.412-1.074.955-1.539 1.629v-2.381a.988.988 0 0 0-.292-.708.959.959 0 0 0-.718-.303.95.95 0 0 0-.697.292.977.977 0 0 0-.292.719v2.29a2.294 2.294 0 0 0-.774-.64 2.225 2.225 0 0 0-1.494-.18 1.693 1.693 0 0 0-.45.17v-.023c-.643.285-.692.902-.145 1.853.546.951 1.5 1.928 2.863 2.931v1.033c-.284.45-.497.861-.64 1.236-.142.374-.16.636-.056.786a2.064 2.064 0 0 0 .63.494V-2.965c-.18.105-.375.191-.585.258a2.19 2.19 0 0 1-1.202.034 3.127 3.127 0 0 1-.505-.18l.023.023a3.276 3.276 0 0 1-1.011-1.09 3.456 3.456 0 0 1-.45-1.448v-.023c-.12-.703-.422-.973-.91-.808-.486.164-.796.344-.931.539-.165.224-.292.599-.382 1.123a5.46 5.46 0 0 0-.034 1.606c.068.561.244 1.09.528 1.583.27.51.689.876 1.258 1.1.629.255 1.243.315 1.842.18a5.86 5.86 0 0 0 1.572-.595c.464-.262.838-.52 1.123-.774l.404-.382a3.849 3.849 0 0 0 1.36 2.2c.71.585 1.538.877 2.481.877h.157c1.078 0 2-.127 2.763-.382.779-.255 1.419-.554 1.92-.898.502-.345.88-.712 1.135-1.101.254-.374.404-.689.449-.943.135-.839-.056-1.64-.573-2.404-.516-.763-1.112-.995-1.786-.696-.673.314-1.265.902-1.774 1.763-.509.861-1.347 1.307-2.515 1.337a.784.784 0 0 1-.191.022h-.214c-.39 0-.756-.06-1.1-.18a3.54 3.54 0 0 1-.944-.494v.023a.933.933 0 0 0 .135-.494l-.022-1.034m3.032-2.762-.753.64c-.501.427-.977.558-1.426.393.165-.899.57-1.295 1.213-1.19l.966.157" font-size="17.008" style="vector-effect:none;fill-rule:nonzero" transform="matrix(.6923 0 0 .6923 2.038 14.976)"/>
        </g>
        <g style="font-style:normal;font-weight:400;font-size:19.84250069px;font-family:icomoon;fill:#000;fill-opacity:1;stroke:none">
            <path d="M23.943-20.44c.373 0 .694.136.965.407.271.27.406.592.406.965V2.818c0 .373-.135.694-.406.965-.27.271-.592.406-.965.406H2.057c-.373 0-.694-.135-.965-.406a1.318 1.318 0 0 1-.406-.965v-21.886c0-.373.135-.694.406-.965.27-.271.592-.407.965-.407h21.886m0-.685H2.057c-.576 0-1.063.199-1.46.597A1.986 1.986 0 0 0 0-19.068V2.818c0 .576.199 1.063.597 1.46.397.398.884.597 1.46.597h21.886c.576 0 1.063-.199 1.46-.597.398-.397.597-.884.597-1.46v-21.886c0-.576-.199-1.063-.597-1.46a1.986 1.986 0 0 0-1.46-.597" font-size="19.843" style="vector-effect:none;fill-rule:nonzero" transform="matrix(.6923 0 0 .6923 1 15.625)"/>
        </g>
    </g>
</svg>
