<svg xmlns="http://www.w3.org/2000/svg" width="20" height="20" version="1.2">
    <g font-weight="400" style="fill:none;fill-rule:evenodd;stroke:#000;stroke-width:1;stroke-linecap:square;stroke-linejoin:bevel">
        <g style="font-style:normal;font-weight:400;font-size:19.84250069px;font-family:icomoon;fill:#fff;fill-opacity:1;stroke:none">
            <path d="M2.285-21.125h21.43a2.2 2.2 0 0 1 1.612.673A2.2 2.2 0 0 1 26-18.84V2.59a2.2 2.2 0 0 1-.673 1.612 2.2 2.2 0 0 1-1.612.673H2.285a2.2 2.2 0 0 1-1.612-.673A2.2 2.2 0 0 1 0 2.59v-21.43a2.2 2.2 0 0 1 .673-1.612 2.2 2.2 0 0 1 1.612-.673" font-size="19.843" style="vector-effect:none;fill-rule:nonzero" transform="matrix(.6923 0 0 .6923 1 15.625)"/>
        </g>
        <g style="font-style:normal;font-weight:400;font-size:17.00779915px;font-family:icomoon;fill:#000;fill-opacity:1;stroke:none">
            <path d="M20.979-18.014a1.3 1.3 0 0 1 .954.393 1.3 1.3 0 0 1 .393.955V2.291a1.3 1.3 0 0 1-.393.955 1.3 1.3 0 0 1-.955.393H2.021a1.3 1.3 0 0 1-.954-.393 1.3 1.3 0 0 1-.393-.955v-18.957a1.3 1.3 0 0 1 .393-.955 1.3 1.3 0 0 1 .954-.393h18.957m0-.674H2.021c-.554 0-1.029.199-1.426.596A1.946 1.946 0 0 0 0-16.666V2.291c0 .554.198 1.03.595 1.426.397.397.872.595 1.426.595h18.957c.555 0 1.03-.198 1.427-.595.397-.397.595-.872.595-1.426v-18.957c0-.554-.198-1.03-.595-1.426a1.946 1.946 0 0 0-1.426-.596M5.322-10.893c1.722 0 2.752.083 3.089.248.337.164.804.247 1.403.247.584 0 1.138-.199 1.662-.596.525-.396 1.206-.595 2.044-.595H13.813c.405 0 .798.041 1.18.124.381.082.752.198 1.111.348l-.044-.023.55-.527c.367-.352.73-.453 1.09-.304.209.075.19.217-.057.427a.926.926 0 0 0-.348.786c.03.3.225.723.584 1.27.36.546.509 1.171.45 1.875-.03.33-.21.576-.54.74l-.494.248-.865-.382c-.576-.254-.947-.21-1.112.135-.374.734-.786 1.104-1.235 1.112-.45.007-.674.266-.674.775s.064 1.055.191 1.64c.127.583.041.875-.258.875h-2.403l-.248-.1c-.164-.068-.247-.214-.247-.439 0-.224.083-.516.247-.876.165-.36.083-.599-.247-.718-.344-.12-.726-.102-1.145.056-.42.157-1.116.048-2.089-.326-.524-.21-.738-.082-.64.382l.146.696.09.674c.06.45-.09.674-.45.674H3.908l-.258-.214c-.172-.142-.258-.295-.258-.46 0-.18.052-.288.157-.326.105-.037.142-.228.112-.573-.015-.299-.093-.512-.236-.64-.142-.127-.31-.348-.505-.662-.105-.18-.225-.577-.36-1.19a5.005 5.005 0 0 1-.1-1.865 3.463 3.463 0 0 1 .752-1.752c.42-.509 1.123-.764 2.111-.764M21.091-6.58c-.015-.03-.034-.049-.056-.056a.185.185 0 0 0-.056-.011H15.7a.248.248 0 0 0-.078.01.141.141 0 0 0-.057.034v.023c-.014 0-.026.011-.033.034a.187.187 0 0 0-.011.056v.022l.022.023.696 3.998c0 .03.015.06.045.09s.068.045.112.045h3.909c.03 0 .063-.015.1-.045.038-.03.057-.06.057-.09l.674-4.02v-.023a.184.184 0 0 0-.045-.113v.023" font-size="17.008" style="vector-effect:none;fill-rule:nonzero" transform="matrix(.6923 0 0 .6923 2.038 14.976)"/>
        </g>
        <g style="font-style:normal;font-weight:400;font-size:19.84250069px;font-family:icomoon;fill:#000;fill-opacity:1;stroke:none">
            <path d="M23.943-20.44c.373 0 .694.136.965.407.271.27.406.592.406.965V2.818c0 .373-.135.694-.406.965-.27.271-.592.406-.965.406H2.057c-.373 0-.694-.135-.965-.406a1.318 1.318 0 0 1-.406-.965v-21.886c0-.373.135-.694.406-.965.27-.271.592-.407.965-.407h21.886m0-.685H2.057c-.576 0-1.063.199-1.46.597A1.986 1.986 0 0 0 0-19.068V2.818c0 .576.199 1.063.597 1.46.397.398.884.597 1.46.597h21.886c.576 0 1.063-.199 1.46-.597.398-.397.597-.884.597-1.46v-21.886c0-.576-.199-1.063-.597-1.46a1.986 1.986 0 0 0-1.46-.597" font-size="19.843" style="vector-effect:none;fill-rule:nonzero" transform="matrix(.6923 0 0 .6923 1 15.625)"/>
        </g>
    </g>
</svg>
