<svg xmlns="http://www.w3.org/2000/svg" width="20" height="20" version="1.2">
    <path d="M2.582 1h14.836c.434 0 .806.155 1.116.466.31.31.466.682.466 1.116v14.836c0 .434-.155.806-.466 1.116-.31.31-.682.466-1.116.466H2.582c-.434 0-.806-.155-1.116-.466A1.523 1.523 0 0 1 1 17.418V2.582c0-.434.155-.806.466-1.116.31-.31.682-.466 1.116-.466" style="font-style:normal;font-weight:400;font-size:19.84250069px;font-family:icomoon;vector-effect:none;fill:red;fill-opacity:1;fill-rule:nonzero;stroke:none;stroke-width:.69230771;stroke-linecap:square;stroke-linejoin:bevel"/>
    <path d="M16.562 2.505a.9.9 0 0 1 .66.272.9.9 0 0 1 .273.661v13.124a.9.9 0 0 1-.272.66.9.9 0 0 1-.661.273H3.438a.9.9 0 0 1-.66-.272.9.9 0 0 1-.273-.66V3.437a.9.9 0 0 1 .272-.66.9.9 0 0 1 .66-.273h13.125m0-.467H3.438c-.384 0-.713.138-.987.413a1.347 1.347 0 0 0-.413.987v13.124c0 .384.138.713.413.987.274.275.603.413.987.413h13.124c.384 0 .713-.138.987-.413.275-.274.413-.603.413-.987V3.438c0-.384-.138-.713-.413-.987a1.347 1.347 0 0 0-.987-.413m-3.405 2.209a3.43 3.43 0 0 0-.241-.125 14.004 14.004 0 0 0-.272-.124l-.047-.016h-.031a2.238 2.238 0 0 0-.257-.109 16.366 16.366 0 0 0-.272-.093h-.078a6.467 6.467 0 0 1-.256-.07 6.354 6.354 0 0 0-.257-.07l-.109-.031a7.497 7.497 0 0 1-.24-.039 4.289 4.289 0 0 0-.273-.039h-.015l-.125-.015a1.012 1.012 0 0 0-.334-.07 8.047 8.047 0 0 0-.35-.008c-.902 0-1.752.171-2.55.513a6.798 6.798 0 0 0-2.084 1.415A6.8 6.8 0 0 0 3.951 7.45 6.405 6.405 0 0 0 3.438 10a7.552 7.552 0 0 0 .031.669.36.36 0 0 0 .031.14c.01.103.023.2.039.287.016.088.029.18.039.272v-.03l.031.108.062.257a2.1 2.1 0 0 0 .078.256v.078l.093.272c.031.088.068.174.11.257v.03c.258.581.59 1.115.994 1.602.405.477.866.89 1.384 1.237a6.362 6.362 0 0 0 1.695.8 6.252 6.252 0 0 0 1.928.296 6.515 6.515 0 0 0 4.634-1.92 6.673 6.673 0 0 0 1.4-2.092 6.243 6.243 0 0 0 .528-2.55c0-.612-.083-1.197-.248-1.757a6.177 6.177 0 0 0-.677-1.586 7.067 7.067 0 0 0-1.05-1.338 6.213 6.213 0 0 0-1.352-1.026l-.031-.015M10 15.147a5.035 5.035 0 0 1-1.99-.397 5.058 5.058 0 0 1-1.618-1.08l7.278-7.278a5.271 5.271 0 0 1 1.08 1.625c.265.617.397 1.278.397 1.983a4.99 4.99 0 0 1-.404 2.006 5.22 5.22 0 0 1-1.104 1.633 5.222 5.222 0 0 1-1.633 1.104 4.99 4.99 0 0 1-2.006.404" style="font-style:normal;font-weight:400;font-size:17.00779915px;font-family:icomoon;vector-effect:none;fill:#000;fill-opacity:1;fill-rule:nonzero;stroke:none;stroke-width:.69230771;stroke-linecap:square;stroke-linejoin:bevel"/>
    <path d="M17.576 1.475c.258 0 .48.093.668.28.188.188.281.411.281.669v15.152c0 .258-.093.48-.28.668a.912.912 0 0 1-.669.281H2.424a.912.912 0 0 1-.668-.28.913.913 0 0 1-.281-.669V2.424c0-.258.093-.48.28-.668a.913.913 0 0 1 .669-.281h15.152m0-.475H2.424c-.399 0-.736.138-1.01.413A1.375 1.375 0 0 0 1 2.423v15.153c0 .399.138.736.413 1.01.275.276.612.414 1.01.414h15.153c.399 0 .735-.138 1.01-.413.276-.275.414-.612.414-1.01V2.423c0-.399-.138-.736-.413-1.01A1.375 1.375 0 0 0 17.577 1" style="font-style:normal;font-weight:400;font-size:19.84250069px;font-family:icomoon;vector-effect:none;fill:#000;fill-opacity:1;fill-rule:nonzero;stroke:none;stroke-width:.69230771;stroke-linecap:square;stroke-linejoin:bevel"/>
</svg>
