<svg xmlns="http://www.w3.org/2000/svg" width="20" height="20" version="1.2">
    <g font-weight="400" style="fill:none;fill-rule:evenodd;stroke:#000;stroke-width:1;stroke-linecap:square;stroke-linejoin:bevel">
        <g style="font-style:normal;font-weight:400;font-size:19.84250069px;font-family:icomoon;fill:#fff;fill-opacity:1;stroke:none">
            <path d="M2.285-21.125h21.43a2.2 2.2 0 0 1 1.612.673A2.2 2.2 0 0 1 26-18.84V2.59a2.2 2.2 0 0 1-.673 1.612 2.2 2.2 0 0 1-1.612.673H2.285a2.2 2.2 0 0 1-1.612-.673A2.2 2.2 0 0 1 0 2.59v-21.43a2.2 2.2 0 0 1 .673-1.612 2.2 2.2 0 0 1 1.612-.673" font-size="19.843" style="vector-effect:none;fill-rule:nonzero" transform="matrix(.6923 0 0 .6923 1 15.625)"/>
        </g>
        <g style="font-style:normal;font-weight:400;font-size:17.00779915px;font-family:icomoon;fill:#000;fill-opacity:1;stroke:none">
            <path d="M20.979-18.014a1.3 1.3 0 0 1 .954.393 1.3 1.3 0 0 1 .393.955V2.291a1.3 1.3 0 0 1-.393.955 1.3 1.3 0 0 1-.955.393H2.021a1.3 1.3 0 0 1-.954-.393 1.3 1.3 0 0 1-.393-.955v-18.957a1.3 1.3 0 0 1 .393-.955 1.3 1.3 0 0 1 .954-.393h18.957m0-.674H2.021c-.554 0-1.029.199-1.426.596A1.946 1.946 0 0 0 0-16.666V2.291c0 .554.198 1.03.595 1.426.397.397.872.595 1.426.595h18.957c.555 0 1.03-.198 1.427-.595.397-.397.595-.872.595-1.426v-18.957c0-.554-.198-1.03-.595-1.426a1.946 1.946 0 0 0-1.426-.596m-4.92 3.19c-.104-.06-.22-.12-.348-.18-.127-.06-.258-.12-.393-.18l-.067-.022h-.045a3.232 3.232 0 0 0-.37-.157c-.128-.045-.259-.09-.394-.135h-.112a9.341 9.341 0 0 1-.37-.1 9.178 9.178 0 0 0-.371-.102l-.157-.045c-.105-.015-.221-.034-.348-.056a6.195 6.195 0 0 0-.394-.056h-.022l-.18-.023c-.15-.06-.31-.093-.483-.1-.172-.008-.34-.012-.505-.012-1.303 0-2.53.247-3.684.741a9.82 9.82 0 0 0-3.01 2.044 9.821 9.821 0 0 0-2.043 3.01 9.252 9.252 0 0 0-.742 3.684 10.891 10.891 0 0 0 .045.965.52.52 0 0 0 .045.202c.015.15.034.289.056.416.023.127.042.258.057.393v-.045l.045.157.09.371c.03.127.067.25.112.37v.113l.134.393c.045.127.098.25.158.37v.045A9.97 9.97 0 0 0 4.2-1.123a9.652 9.652 0 0 0 2 1.786 9.189 9.189 0 0 0 2.447 1.156 9.03 9.03 0 0 0 2.786.427c1.302 0 2.53-.247 3.683-.741a9.41 9.41 0 0 0 3.01-2.033 9.64 9.64 0 0 0 2.022-3.02c.509-1.154.763-2.382.763-3.684 0-.884-.12-1.73-.36-2.539a8.922 8.922 0 0 0-.976-2.29 10.208 10.208 0 0 0-1.516-1.932 8.975 8.975 0 0 0-1.955-1.483l-.044-.022M11.5.247a7.273 7.273 0 0 1-2.875-.573 7.307 7.307 0 0 1-2.336-1.56l10.512-10.512a7.614 7.614 0 0 1 1.56 2.347c.383.89.574 1.845.574 2.863a7.208 7.208 0 0 1-.584 2.898 7.541 7.541 0 0 1-1.595 2.358 7.542 7.542 0 0 1-2.358 1.595A7.208 7.208 0 0 1 11.5.247" font-size="17.008" style="vector-effect:none;fill-rule:nonzero" transform="matrix(.6923 0 0 .6923 2.038 14.976)"/>
        </g>
        <g style="font-style:normal;font-weight:400;font-size:19.84250069px;font-family:icomoon;fill:#000;fill-opacity:1;stroke:none">
            <path d="M23.943-20.44c.373 0 .694.136.965.407.271.27.406.592.406.965V2.818c0 .373-.135.694-.406.965-.27.271-.592.406-.965.406H2.057c-.373 0-.694-.135-.965-.406a1.318 1.318 0 0 1-.406-.965v-21.886c0-.373.135-.694.406-.965.27-.271.592-.407.965-.407h21.886m0-.685H2.057c-.576 0-1.063.199-1.46.597A1.986 1.986 0 0 0 0-19.068V2.818c0 .576.199 1.063.597 1.46.397.398.884.597 1.46.597h21.886c.576 0 1.063-.199 1.46-.597.398-.397.597-.884.597-1.46v-21.886c0-.576-.199-1.063-.597-1.46a1.986 1.986 0 0 0-1.46-.597" font-size="19.843" style="vector-effect:none;fill-rule:nonzero" transform="matrix(.6923 0 0 .6923 1 15.625)"/>
        </g>
    </g>
</svg>
