<svg xmlns="http://www.w3.org/2000/svg" width="20" height="20" version="1.2">
    <g font-weight="400" style="fill:none;fill-rule:evenodd;stroke:#000;stroke-width:1;stroke-linecap:square;stroke-linejoin:bevel">
        <g style="font-style:normal;font-weight:400;font-size:22.67709923px;font-family:icomoon;fill:#ff0;fill-opacity:1;stroke:none">
            <path d="M2.637-24.375h24.726c.723 0 1.343.259 1.86.776.518.518.777 1.138.777 1.86V2.989c0 .723-.259 1.343-.776 1.86a2.538 2.538 0 0 1-1.86.777H2.636a2.538 2.538 0 0 1-1.86-.776A2.538 2.538 0 0 1 0 2.989v-24.727c0-.723.259-1.343.776-1.86a2.538 2.538 0 0 1 1.86-.777" font-size="22.677" style="vector-effect:none;fill-rule:nonzero" transform="matrix(.66667 0 0 .66667 0 16.25)"/>
        </g>
        <g style="font-style:normal;font-weight:400;font-size:17.00779915px;font-family:icomoon;fill:#000;fill-opacity:1;stroke:none">
            <path d="M20.979-18.014a1.3 1.3 0 0 1 .954.393 1.3 1.3 0 0 1 .393.955V2.291a1.3 1.3 0 0 1-.393.955 1.3 1.3 0 0 1-.955.393H2.021a1.3 1.3 0 0 1-.954-.393 1.3 1.3 0 0 1-.393-.955v-18.957a1.3 1.3 0 0 1 .393-.955 1.3 1.3 0 0 1 .954-.393h18.957m0-.674H2.021c-.554 0-1.029.199-1.426.596A1.946 1.946 0 0 0 0-16.666V2.291c0 .554.198 1.03.595 1.426.397.397.872.595 1.426.595h18.957c.555 0 1.03-.198 1.427-.595.397-.397.595-.872.595-1.426v-18.957c0-.554-.198-1.03-.595-1.426a1.946 1.946 0 0 0-1.426-.596M18.44-3.257c.36-.36.652-.778.876-1.258.225-.479.36-.988.405-1.527v-.022h1.258v-.674h-1.236a4.82 4.82 0 0 0-.629-2.055 4.823 4.823 0 0 0-1.392-1.539l-.023-.022v-2.247h-6.446v2.291a4.607 4.607 0 0 0-.842.775c-.247.292-.46.603-.64.932l-.023.045-.27-.112h-1.37v-4.986h6.784v1.055h.673v-1.73h-8.13v5.661H4.582v1.73a3.936 3.936 0 0 0-.92 1.123 3.54 3.54 0 0 0-.428 1.415h-.539v.696h.54c.074.539.254 1.037.538 1.494a3.47 3.47 0 0 0 1.101 1.111H2.021v.674h18.957V-1.1h-1.751l-.787-2.156m-6.783-6.558.27-.203v-1.909h5.12v1.954l.27.202c.524.375.947.85 1.27 1.427.321.576.482 1.209.482 1.898-.045 1.183-.494 2.186-1.347 3.01-.854.823-1.88 1.235-3.078 1.235h-.314c-1.198 0-2.224-.412-3.077-1.236-.854-.823-1.303-1.819-1.348-2.987v-.022c0-.69.158-1.325.472-1.91a4.166 4.166 0 0 1 1.258-1.437l.022-.022M3.886-4.11c0-.494.112-.951.337-1.37.224-.42.524-.764.898-1.034h.023l.134-.09v-1.392h4.043l.158.022c-.06.18-.113.375-.158.584-.045.21-.075.42-.09.63v.022H7.996v.674h1.258a4.471 4.471 0 0 0 1.28 2.807l-.337.944-.067.067c-.39.33-.824.595-1.303.797-.479.202-.988.318-1.527.348h-.27a3.055 3.055 0 0 1-2.178-.876 2.99 2.99 0 0 1-.966-2.133" font-size="17.008" style="vector-effect:none;fill-rule:nonzero" transform="matrix(.66667 0 0 .66667 2.333 14.792)"/>
        </g>
        <g style="font-style:normal;font-weight:400;font-size:22.67709923px;font-family:icomoon;fill:#000;fill-opacity:1;stroke:none">
            <path d="M26.426-22.236c.39 0 .727.141 1.01.425.284.283.425.62.425 1.01V2.051c0 .39-.141.727-.425 1.01a1.38 1.38 0 0 1-1.01.425H3.574a1.38 1.38 0 0 1-1.01-.424 1.38 1.38 0 0 1-.425-1.011v-22.852c0-.39.141-.727.424-1.01a1.38 1.38 0 0 1 1.011-.425h22.852m0-.703H3.574c-.586 0-1.089.21-1.509.63-.42.42-.63.922-.63 1.508V2.051c0 .586.21 1.089.63 1.509.42.42.923.63 1.51.63h22.85c.587 0 1.09-.21 1.51-.63.42-.42.63-.923.63-1.51V-20.8c0-.587-.21-1.09-.63-1.51-.42-.42-.923-.63-1.51-.63m1.436-.732c.391 0 .728.142 1.011.425.283.283.425.62.425 1.01V3.487c0 .39-.142.728-.425 1.011a1.38 1.38 0 0 1-1.01.425H2.138a1.38 1.38 0 0 1-1.011-.425 1.38 1.38 0 0 1-.425-1.01v-25.723c0-.391.142-.728.425-1.011a1.38 1.38 0 0 1 1.01-.425h25.723m0-.703H2.14c-.586 0-1.09.21-1.51.63-.419.42-.629.923-.629 1.509V3.486c0 .586.21 1.09.63 1.51.42.419.923.629 1.509.629H27.86c.586 0 1.09-.21 1.51-.63.419-.42.629-.923.629-1.509v-25.722c0-.586-.21-1.09-.63-1.51-.42-.419-.923-.629-1.509-.629" font-size="22.677" style="vector-effect:none;fill-rule:nonzero" transform="matrix(.66667 0 0 .66667 0 16.25)"/>
        </g>
    </g>
</svg>
