<svg xmlns="http://www.w3.org/2000/svg" width="20" height="20" version="1.2">
    <g font-weight="400" style="fill:none;fill-rule:evenodd;stroke:#000;stroke-width:1;stroke-linecap:square;stroke-linejoin:bevel">
        <g style="font-style:normal;font-weight:400;font-size:17.00779915px;font-family:icomoon;fill:#ff0;fill-opacity:1;stroke:none">
            <path d="M2.021-18.688h18.957c.555 0 1.03.199 1.427.596.397.396.595.872.595 1.426V2.291c0 .554-.198 1.03-.595 1.426a1.946 1.946 0 0 1-1.427.595H2.021c-.554 0-1.029-.198-1.426-.595A1.946 1.946 0 0 1 0 2.291v-18.957c0-.554.198-1.03.595-1.426a1.946 1.946 0 0 1 1.426-.596" font-size="17.008" style="vector-effect:none;fill-rule:nonzero" transform="matrix(.65217 0 0 .65217 2.5 14.687)"/>
        </g>
        <g style="font-style:normal;font-weight:400;font-size:17.00779915px;font-family:icomoon;fill:#000;fill-opacity:1;stroke:none">
            <path d="M20.979-18.014a1.3 1.3 0 0 1 .954.393 1.3 1.3 0 0 1 .393.955V2.291a1.3 1.3 0 0 1-.393.955 1.3 1.3 0 0 1-.955.393H2.021a1.3 1.3 0 0 1-.954-.393 1.3 1.3 0 0 1-.393-.955v-18.957a1.3 1.3 0 0 1 .393-.955 1.3 1.3 0 0 1 .954-.393h18.957m0-.674H2.021c-.554 0-1.029.199-1.426.596A1.946 1.946 0 0 0 0-16.666V2.291c0 .554.198 1.03.595 1.426.397.397.872.595 1.426.595h18.957c.555 0 1.03-.198 1.427-.595.397-.397.595-.872.595-1.426v-18.957c0-.554-.198-1.03-.595-1.426a1.946 1.946 0 0 0-1.426-.596M11.5-16.553c-1.288 0-2.5.247-3.639.741a9.531 9.531 0 0 0-2.976 2.01 9.533 9.533 0 0 0-2.01 2.977 9.037 9.037 0 0 0-.741 3.639c0 1.287.247 2.5.741 3.638a9.533 9.533 0 0 0 2.01 2.976 9.533 9.533 0 0 0 2.976 2.01 9.036 9.036 0 0 0 3.639.742c1.288 0 2.5-.247 3.639-.741a9.532 9.532 0 0 0 2.976-2.01 9.531 9.531 0 0 0 2.01-2.977 9.037 9.037 0 0 0 .741-3.639c0-1.287-.247-2.5-.741-3.638a9.53 9.53 0 0 0-2.01-2.976 9.53 9.53 0 0 0-2.976-2.01 9.037 9.037 0 0 0-3.639-.742m8.333 8.94h-2.134a5.866 5.866 0 0 0-.539-2.157 6.468 6.468 0 0 0-1.224-1.785 5.924 5.924 0 0 0-1.763-1.247 5.883 5.883 0 0 0-2.134-.584h-.022v-2.111a8.007 8.007 0 0 1 2.964.741 8.403 8.403 0 0 1 2.437 1.707 8.68 8.68 0 0 1 1.696 2.448 8.29 8.29 0 0 1 .719 2.965v.023M11.5-1.977a5.077 5.077 0 0 1-2.021-.404 5.151 5.151 0 0 1-1.674-1.112 5.151 5.151 0 0 1-1.112-1.673 5.077 5.077 0 0 1-.404-2.021c0-.72.135-1.393.404-2.022.27-.644.64-1.202 1.112-1.673a5.15 5.15 0 0 1 1.674-1.112 5.076 5.076 0 0 1 2.021-.404c.719 0 1.393.134 2.022.404a5.15 5.15 0 0 1 1.673 1.112 5.15 5.15 0 0 1 1.112 1.673c.27.629.404 1.303.404 2.021 0 .72-.135 1.393-.404 2.022a5.15 5.15 0 0 1-1.112 1.673A5.151 5.151 0 0 1 13.52-2.38a5.077 5.077 0 0 1-2.021.404m-.517-13.521v2.111a6.17 6.17 0 0 0-2.133.562 6.288 6.288 0 0 0-2.988 2.987 5.963 5.963 0 0 0-.561 2.111v.023H3.189a7.825 7.825 0 0 1 .742-2.943 8.164 8.164 0 0 1 4.088-4.11 7.967 7.967 0 0 1 2.942-.741h.022M3.19-6.671h2.112c.06.749.247 1.46.561 2.134A6.289 6.289 0 0 0 8.85-1.55a5.962 5.962 0 0 0 2.11.562h.023v2.111A7.825 7.825 0 0 1 8.041.382a8.164 8.164 0 0 1-4.11-4.088 7.97 7.97 0 0 1-.742-2.942v-.023m8.828 7.794V-.988a5.962 5.962 0 0 0 2.11-.562c.66-.3 1.24-.7 1.742-1.201a6.78 6.78 0 0 0 1.246-1.719c.315-.659.51-1.355.584-2.089v-.022h2.111a8.103 8.103 0 0 1-.763 2.92 8.574 8.574 0 0 1-1.685 2.403 8.21 8.21 0 0 1-5.323 2.381h-.022" font-size="17.008" style="vector-effect:none;fill-rule:nonzero" transform="matrix(.65217 0 0 .65217 2.5 14.687)"/>
        </g>
    </g>
</svg>
