<svg xmlns="http://www.w3.org/2000/svg" xml:space="preserve" width="210mm" height="297mm" viewBox="0 0 210 297">
    <path d="M109.23 228.097h14.836c.433 0 .805.156 1.116.466.31.31.466.683.466 1.117v14.835c0 .434-.156.806-.466 1.117-.31.31-.683.465-1.116.465H109.23c-.434 0-.806-.155-1.116-.465a1.523 1.523 0 0 1-.466-1.117V229.68c0-.434.155-.806.466-1.117.31-.31.682-.466 1.116-.466" style="font-style:normal;font-weight:400;font-size:19.8425px;font-family:icomoon;display:inline;vector-effect:none;fill:#ff0;fill-opacity:1;fill-rule:nonzero;stroke:none;stroke-width:.692308;stroke-linecap:square;stroke-linejoin:bevel" transform="translate(-107.648 -228.098)"/>
    <path d="M110.086 229.136c-.384 0-.713.137-.988.412a1.347 1.347 0 0 0-.412.987v13.125c0 .383.138.712.412.987.275.275.604.412.988.412h13.124c.383 0 .713-.137.987-.412.275-.275.412-.604.412-.987v-13.125c0-.383-.137-.712-.412-.987a1.347 1.347 0 0 0-.987-.412zm0 .466h13.124a.9.9 0 0 1 .66.273.9.9 0 0 1 .273.66v13.125a.9.9 0 0 1-.272.66.9.9 0 0 1-.661.272h-13.124a.9.9 0 0 1-.661-.272.9.9 0 0 1-.272-.66v-13.125a.9.9 0 0 1 .272-.66.9.9 0 0 1 .66-.273z" style="font-style:normal;font-weight:400;font-size:17.0078px;font-family:icomoon;vector-effect:none;fill:#000;fill-opacity:1;fill-rule:nonzero;stroke:none;stroke-width:.692308;stroke-linecap:square;stroke-linejoin:bevel" transform="translate(-107.648 -228.098)"/>
    <path d="M109.072 228.098c-.399 0-.736.137-1.011.413a1.375 1.375 0 0 0-.413 1.01v15.153c0 .398.137.735.413 1.01.275.276.612.413 1.01.413h15.153c.398 0 .735-.137 1.01-.413.276-.275.414-.612.414-1.01V229.52c0-.398-.138-.735-.413-1.01a1.375 1.375 0 0 0-1.011-.413zm0 .474h15.152c.258 0 .48.094.668.281.187.188.281.41.281.668v15.153c0 .257-.094.48-.281.668a.912.912 0 0 1-.668.28h-15.152a.913.913 0 0 1-.668-.28.913.913 0 0 1-.282-.668V229.52c0-.258.094-.48.282-.668a.913.913 0 0 1 .668-.28z" style="font-style:normal;font-weight:400;font-size:19.8425px;font-family:icomoon;vector-effect:none;fill:#000;fill-opacity:1;fill-rule:nonzero;stroke:none;stroke-width:.692308;stroke-linecap:square;stroke-linejoin:bevel" transform="translate(-107.648 -228.098)"/>
    <path d="m-96.28-52.62-.016 6.531" style="fill:#000;stroke:#000;stroke-width:.23307;stroke-linecap:round;stroke-linejoin:round;stroke-dasharray:none;stroke-opacity:1;paint-order:stroke markers fill" transform="matrix(.87822 0 0 .87822 97.003 54.787)"/>
    <path d="M-100.068-46.084c-.021-1.49-.02-2.98.005-4.47l.006-.45v-2.178c0-.5.205-.998.558-1.352.353-.354.85-.56 1.35-.558a1.9 1.9 0 0 1 1.317.55c.345.345.547.829.55 1.317v.249c0 .254-.002.508 0 .762 0 .083.002.167 0 .251v.017-1.085a1301.333 1301.333 0 0 0 0-.156v-.112a1.75 1.75 0 0 0-.508-1.21 1.77 1.77 0 0 0-1.212-.51H-98.143v-.001h-.002a.002.002 0 0 0 0 .002v0l.002.002h0l.002.002V-46.081l.001.003v.002H-100.068v-.007z" style="fill:#000;stroke:#000;stroke-width:.234468;stroke-linecap:round;stroke-linejoin:round;stroke-dasharray:none;stroke-opacity:1;paint-order:stroke markers fill" transform="matrix(.87822 0 0 .87822 97.003 54.787)"/>
    <path d="M-104.982-46.002c-.032-2.16-.03-4.321.007-6.482.004-.217.008-.434.009-.651V-56.295a2.82 2.82 0 0 1 .81-1.959 2.775 2.775 0 0 1 1.958-.809 2.754 2.754 0 0 1 1.908.798c.5.5.793 1.201.798 1.908V-55.995c0 .368-.004.736 0 1.104 0 .122.003.243 0 .365a.12.12 0 0 0 0 .009v.012l-.001.003v-.006l.001-.004.001-.008-.001-.009c-.003-.022 0-.044 0-.066V-54.697c.002-.46 0-.919 0-1.378v-.388a2.538 2.538 0 0 0-.738-1.756 2.565 2.565 0 0 0-1.757-.739H-102.19l-.001-.001h-.002l-.001.002v.003h.005l.002.003V-45.99h-.001l-.002.001H-104.983a.109.109 0 0 0 0-.011z" style="fill:#000;stroke:#000;stroke-width:.339952;stroke-linecap:round;stroke-linejoin:round;stroke-dasharray:none;stroke-opacity:1;paint-order:stroke markers fill" transform="matrix(.87822 0 0 .87822 97.003 54.787)"/>
    <path d="M-105.817-46.007H-96.376v.001l1.995-.008v.152h-11.436z" style="fill:#000;fill-opacity:1;stroke:#000;stroke-width:.144458;stroke-linecap:round;stroke-linejoin:round;stroke-dasharray:none;stroke-opacity:1;paint-order:stroke markers fill" transform="matrix(.87822 0 0 .87822 97.003 54.787)"/>
</svg>
