<svg xmlns="http://www.w3.org/2000/svg" xml:space="preserve" width="210mm" height="297mm" viewBox="0 0 210 297">
    <path d="M110.605 212.196h12.108c.354 0 .658.127.911.38.254.253.38.556.38.91v12.09c0 .353-.126.656-.38.909-.253.253-.557.38-.91.38h-12.11c-.353 0-.657-.127-.91-.38a1.24 1.24 0 0 1-.38-.91v-12.09c0-.353.126-.656.38-.91.253-.252.557-.379.91-.379" style="font-style:normal;font-weight:400;font-size:19.8425px;font-family:icomoon;display:inline;vector-effect:none;fill:#ff0;fill-opacity:1;fill-rule:nonzero;stroke:none;stroke-width:.564606;stroke-linecap:square;stroke-linejoin:bevel" transform="translate(-109.148 -212.098)"/>
    <path d="M110.466 212.097c-.361 0-.671.13-.93.389a1.269 1.269 0 0 0-.388.93v12.363c0 .361.13.672.388.93.259.26.569.389.93.389h12.363c.362 0 .672-.13.93-.389.26-.258.389-.569.389-.93v-12.363c0-.361-.13-.672-.388-.93a1.269 1.269 0 0 0-.93-.388zm0 .44h12.363c.245 0 .452.085.623.256.17.171.256.379.256.623v12.363a.848.848 0 0 1-.256.623.847.847 0 0 1-.623.256h-12.363a.847.847 0 0 1-.622-.256.848.848 0 0 1-.257-.623v-12.363c0-.244.086-.452.257-.623a.848.848 0 0 1 .622-.256z" style="font-style:normal;font-weight:400;font-size:17.0078px;font-family:icomoon;vector-effect:none;fill:#000;fill-opacity:1;fill-rule:nonzero;stroke:none;stroke-width:.652176;stroke-linecap:square;stroke-linejoin:bevel" transform="translate(-109.148 -212.098)"/>
    <path d="m132.982 217.287-28.973-.268-8.698-27.637 23.597-16.813 23.282 17.246z" style="fill:#000;stroke:#000;stroke-width:4.34401;stroke-linecap:square;paint-order:stroke markers fill" transform="matrix(.21804 0 0 .19186 -18.218 -29.93)"/>
</svg>
