<svg xmlns="http://www.w3.org/2000/svg" width="20" height="20" version="1.2">
    <g font-weight="400" style="fill:none;fill-rule:evenodd;stroke:#000;stroke-width:1;stroke-linecap:square;stroke-linejoin:bevel">
        <g style="font-style:normal;font-weight:400;font-size:17.00779915px;font-family:icomoon;fill:red;fill-opacity:1;stroke:none">
            <path d="M2.021-18.688h18.957c.555 0 1.03.199 1.427.596.397.396.595.872.595 1.426V2.291c0 .554-.198 1.03-.595 1.426a1.946 1.946 0 0 1-1.427.595H2.021c-.554 0-1.029-.198-1.426-.595A1.946 1.946 0 0 1 0 2.291v-18.957c0-.554.198-1.03.595-1.426a1.946 1.946 0 0 1 1.426-.596" font-size="17.008" style="vector-effect:none;fill-rule:nonzero" transform="matrix(.65217 0 0 .65217 2.5 14.687)"/>
        </g>
        <g style="font-style:normal;font-weight:400;font-size:17.00779915px;font-family:icomoon;fill:#000;fill-opacity:1;stroke:none">
            <path d="M20.979-18.014a1.3 1.3 0 0 1 .954.393 1.3 1.3 0 0 1 .393.955V2.291a1.3 1.3 0 0 1-.393.955 1.3 1.3 0 0 1-.955.393H2.021a1.3 1.3 0 0 1-.954-.393 1.3 1.3 0 0 1-.393-.955v-18.957a1.3 1.3 0 0 1 .393-.955 1.3 1.3 0 0 1 .954-.393h18.957m0-.674H2.021c-.554 0-1.029.199-1.426.596A1.946 1.946 0 0 0 0-16.666V2.291c0 .554.198 1.03.595 1.426.397.397.872.595 1.426.595h18.957c.555 0 1.03-.198 1.427-.595.397-.397.595-.872.595-1.426v-18.957c0-.554-.198-1.03-.595-1.426a1.946 1.946 0 0 0-1.426-.596M14.892-3.773l-2.65-11.59a.74.74 0 0 0-.248-.37.656.656 0 0 0-.427-.147h-.022a.656.656 0 0 0-.427.146.614.614 0 0 0-.224.348v.023L7.996-3.526v.067c-.06.195-.108.397-.146.606-.037.21-.056.427-.056.652 0 1.018.363 1.89 1.09 2.617.726.726 1.598 1.089 2.616 1.089 1.033 0 1.913-.363 2.64-1.09.725-.726 1.089-1.598 1.089-2.616 0-.285-.03-.562-.09-.831-.06-.27-.15-.524-.27-.764l.023.023m-3.347-8.49 1.527 6.693a2.907 2.907 0 0 0-.74-.27c-.27-.06-.555-.09-.854-.09-.285 0-.562.03-.831.09-.27.06-.525.15-.764.27h.022l1.64-6.694M11.5.157a2.258 2.258 0 0 1-1.673-.696 2.287 2.287 0 0 1-.685-1.662c0-.659.228-1.22.685-1.685a2.258 2.258 0 0 1 1.673-.696c.659 0 1.217.232 1.673.696.457.464.685 1.026.685 1.685 0 .644-.228 1.198-.685 1.662A2.258 2.258 0 0 1 11.5.157" font-size="17.008" style="vector-effect:none;fill-rule:nonzero" transform="matrix(.65217 0 0 .65217 2.5 14.687)"/>
        </g>
    </g>
</svg>
