<svg xmlns="http://www.w3.org/2000/svg" xml:space="preserve" width="210mm" height="297mm" viewBox="0 0 210 297">
    <path d="M81.105 212.196h12.108c.354 0 .658.127.911.38.254.253.38.556.38.91v12.09c0 .353-.126.656-.38.909-.253.253-.557.38-.91.38h-12.11c-.353 0-.657-.127-.91-.38a1.24 1.24 0 0 1-.38-.91v-12.09c0-.353.126-.656.38-.91.253-.252.557-.379.91-.379" style="font-style:normal;font-weight:400;font-size:19.8425px;font-family:icomoon;display:inline;vector-effect:none;fill:red;fill-opacity:1;fill-rule:nonzero;stroke:none;stroke-width:.564606;stroke-linecap:square;stroke-linejoin:bevel" transform="translate(-74.9 -183.302)"/>
    <path d="M80.966 212.097c-.361 0-.671.13-.93.389a1.269 1.269 0 0 0-.388.93v12.363c0 .361.13.672.388.93.259.26.569.389.93.389H93.33c.362 0 .672-.13.93-.389.26-.258.389-.569.389-.93v-12.363c0-.361-.13-.672-.388-.93a1.269 1.269 0 0 0-.93-.388zm0 .44H93.33c.245 0 .452.085.623.256.17.171.256.379.256.623v12.363a.848.848 0 0 1-.256.623.847.847 0 0 1-.623.256H80.966a.847.847 0 0 1-.622-.256.848.848 0 0 1-.257-.623v-12.363c0-.244.086-.452.257-.623a.848.848 0 0 1 .622-.256z" style="font-style:normal;font-weight:400;font-size:17.0078px;font-family:icomoon;vector-effect:none;fill:#000;fill-opacity:1;fill-rule:nonzero;stroke:none;stroke-width:.652176;stroke-linecap:square;stroke-linejoin:bevel" transform="translate(-74.9 -183.302)"/>
    <path d="m-96.28-52.62-.016 6.531" style="fill:#000;stroke:#000;stroke-width:.23307;stroke-linecap:round;stroke-linejoin:round;stroke-dasharray:none;stroke-opacity:1;paint-order:stroke markers fill" transform="matrix(.87822 0 0 .87822 100.088 82.284)"/>
    <path d="M-100.068-46.084c-.021-1.49-.02-2.98.005-4.47l.006-.45v-2.178c0-.5.205-.998.558-1.352.353-.354.85-.56 1.35-.558a1.9 1.9 0 0 1 1.317.55c.345.345.547.829.55 1.317v.249c0 .254-.002.508 0 .762 0 .083.002.167 0 .251v.017-1.085a1301.333 1301.333 0 0 0 0-.156v-.112a1.75 1.75 0 0 0-.508-1.21 1.77 1.77 0 0 0-1.212-.51H-98.143v-.001h-.002a.002.002 0 0 0 0 .002v0l.002.002h0l.002.002V-46.081l.001.003v.002H-100.068v-.007z" style="fill:#000;stroke:#000;stroke-width:.234468;stroke-linecap:round;stroke-linejoin:round;stroke-dasharray:none;stroke-opacity:1;paint-order:stroke markers fill" transform="matrix(.87822 0 0 .87822 100.088 82.284)"/>
    <path d="M-104.982-46.002c-.032-2.16-.03-4.321.007-6.482.004-.217.008-.434.009-.651V-56.295a2.82 2.82 0 0 1 .81-1.959 2.775 2.775 0 0 1 1.958-.809 2.754 2.754 0 0 1 1.908.798c.5.5.793 1.201.798 1.908V-55.995c0 .368-.004.736 0 1.104 0 .122.003.243 0 .365a.12.12 0 0 0 0 .009v.012l-.001.003v-.006l.001-.004.001-.008-.001-.009c-.003-.022 0-.044 0-.066V-54.697c.002-.46 0-.919 0-1.378v-.388a2.538 2.538 0 0 0-.738-1.756 2.565 2.565 0 0 0-1.757-.739H-102.19l-.001-.001h-.002l-.001.002v.003h.005l.002.003V-45.99h-.001l-.002.001H-104.983a.109.109 0 0 0 0-.011z" style="fill:#000;stroke:#000;stroke-width:.339952;stroke-linecap:round;stroke-linejoin:round;stroke-dasharray:none;stroke-opacity:1;paint-order:stroke markers fill" transform="matrix(.87822 0 0 .87822 100.088 82.284)"/>
    <path d="M-105.817-46.007H-96.376v.001l1.995-.008v.152h-11.436z" style="fill:#000;fill-opacity:1;stroke:#000;stroke-width:.144458;stroke-linecap:round;stroke-linejoin:round;stroke-dasharray:none;stroke-opacity:1;paint-order:stroke markers fill" transform="matrix(.87822 0 0 .87822 100.088 82.284)"/>
</svg>
