<?xml version="1.0" encoding="UTF-8" standalone="no"?>
<svg
   xmlns:dc="http://purl.org/dc/elements/1.1/"
   xmlns:cc="http://creativecommons.org/ns#"
   xmlns:rdf="http://www.w3.org/1999/02/22-rdf-syntax-ns#"
   xmlns:svg="http://www.w3.org/2000/svg"
   xmlns="http://www.w3.org/2000/svg"
   xmlns:sodipodi="http://sodipodi.sourceforge.net/DTD/sodipodi-0.dtd"
   xmlns:inkscape="http://www.inkscape.org/namespaces/inkscape"
   width="20"
   height="20"
   viewBox="0 0 20 20"
   version="1.2"
   id="svg52"
   sodipodi:docname="60204051511.svg"
   inkscape:version="0.92.4 (5da689c313, 2019-01-14)">
  <metadata
     id="metadata56">
    <rdf:RDF>
      <cc:Work
         rdf:about="">
        <dc:format>image/svg+xml</dc:format>
        <dc:type
           rdf:resource="http://purl.org/dc/dcmitype/StillImage" />
      </cc:Work>
    </rdf:RDF>
  </metadata>
  <sodipodi:namedview
     pagecolor="#ffffff"
     bordercolor="#666666"
     borderopacity="1"
     objecttolerance="10"
     gridtolerance="10"
     guidetolerance="10"
     inkscape:pageopacity="0"
     inkscape:pageshadow="2"
     inkscape:window-width="1920"
     inkscape:window-height="1017"
     id="namedview54"
     showgrid="false"
     inkscape:zoom="11.8"
     inkscape:cx="10"
     inkscape:cy="10"
     inkscape:window-x="-8"
     inkscape:window-y="-8"
     inkscape:window-maximized="1"
     inkscape:current-layer="svg52" />
  <title
     id="title2">Qt SVG Document</title>
  <desc
     id="desc4">Generated with Qt</desc>
  <defs
     id="defs6" />
  <g
     id="g50"
     transform="matrix(0.66666667,0,0,0.66666667,-0.66666672,-0.66666672)"
     style="fill:none;fill-rule:evenodd;stroke:#000000;stroke-width:1;stroke-linecap:square;stroke-linejoin:bevel">
    <g
       transform="translate(16,16)"
       font-size="8.25"
       font-weight="400"
       font-style="normal"
       id="g8"
       style="font-style:normal;font-weight:400;font-size:8.25px;font-family:'MS Shell Dlg 2';fill:none;stroke:#000000;stroke-width:1;stroke-linecap:square;stroke-linejoin:bevel;stroke-opacity:1" />
    <g
       transform="matrix(1.33333,0,0,1.33333,16,16)"
       font-size="8.25"
       font-weight="400"
       font-style="normal"
       id="g10"
       style="font-style:normal;font-weight:400;font-size:8.25px;font-family:'MS Shell Dlg 2';fill:none;stroke:#000000;stroke-width:1;stroke-linecap:square;stroke-linejoin:bevel;stroke-opacity:1" />
    <g
       transform="translate(1,25.375)"
       font-size="22.6771"
       font-weight="400"
       font-style="normal"
       id="g14"
       style="font-style:normal;font-weight:400;font-size:22.67709923px;font-family:icomoon;fill:#ffffff;fill-opacity:1;stroke:none">
      <path
         d="M 2.63672,-24.375 H 27.3633 c 0.7226,0 1.3428,0.2588 1.8603,0.7764 0.5176,0.5175 0.7764,1.1377 0.7764,1.8603 V 2.98828 C 30,3.71094 29.7412,4.33105 29.2236,4.84863 28.7061,5.36621 28.0859,5.625 27.3633,5.625 H 2.63672 C 1.91406,5.625 1.29395,5.36621 0.776367,4.84863 0.258789,4.33105 0,3.71094 0,2.98828 V -21.7383 c 0,-0.7226 0.258789,-1.3428 0.776367,-1.8603 0.517583,-0.5176 1.137693,-0.7764 1.860353,-0.7764"
         id="path12"
         inkscape:connector-curvature="0"
         style="vector-effect:none;fill-rule:nonzero" />
    </g>
    <g
       transform="matrix(1.33333,0,0,1.33333,16,16)"
       font-size="8.25"
       font-weight="400"
       font-style="normal"
       id="g16"
       style="font-style:normal;font-weight:400;font-size:8.25px;font-family:'MS Shell Dlg 2';fill:none;stroke:#000000;stroke-width:1;stroke-linecap:square;stroke-linejoin:bevel;stroke-opacity:1" />
    <g
       transform="translate(16,16)"
       font-size="8.25"
       font-weight="400"
       font-style="normal"
       id="g18"
       style="font-style:normal;font-weight:400;font-size:8.25px;font-family:'MS Shell Dlg 2';fill:none;stroke:#000000;stroke-width:1;stroke-linecap:square;stroke-linejoin:bevel;stroke-opacity:1" />
    <g
       font-size="8.25"
       font-weight="400"
       font-style="normal"
       id="g20"
       style="font-style:normal;font-weight:400;font-size:8.25px;font-family:'MS Shell Dlg 2';fill:none;stroke:#000000;stroke-width:1;stroke-linecap:square;stroke-linejoin:bevel;stroke-opacity:1" />
    <g
       transform="translate(16,16)"
       font-size="8.25"
       font-weight="400"
       font-style="normal"
       id="g22"
       style="font-style:normal;font-weight:400;font-size:8.25px;font-family:'MS Shell Dlg 2';fill:none;stroke:#000000;stroke-width:1;stroke-linecap:square;stroke-linejoin:bevel;stroke-opacity:1" />
    <g
       transform="matrix(1.33333,0,0,1.33333,16,16)"
       font-size="8.25"
       font-weight="400"
       font-style="normal"
       id="g24"
       style="font-style:normal;font-weight:400;font-size:8.25px;font-family:'MS Shell Dlg 2';fill:none;stroke:#000000;stroke-width:1;stroke-linecap:square;stroke-linejoin:bevel;stroke-opacity:1" />
    <g
       transform="translate(4.5,23.1875)"
       font-size="17.0078"
       font-weight="400"
       font-style="normal"
       id="g28"
       style="font-style:normal;font-weight:400;font-size:17.00779915px;font-family:icomoon;fill:#000000;fill-opacity:1;stroke:none">
      <path
         d="m 20.9785,-18.0137 c 0.3744,0 0.6926,0.1311 0.9546,0.3931 0.262,0.262 0.3931,0.5802 0.3931,0.9546 V 2.29102 c 0,0.37434 -0.1311,0.69254 -0.3931,0.95459 -0.262,0.26204 -0.5802,0.39306 -0.9546,0.39306 H 2.02148 C 1.64714,3.63867 1.32894,3.50765 1.06689,3.24561 0.80485,2.98356 0.673828,2.66536 0.673828,2.29102 V -16.666 c 0,-0.3744 0.131022,-0.6926 0.393062,-0.9546 0.26205,-0.262 0.58025,-0.3931 0.95459,-0.3931 H 20.9785 m 0,-0.6738 H 2.02148 c -0.55403,0 -1.029455,0.1984 -1.426265,0.5952 C 0.198405,-17.6955 0,-17.2201 0,-16.666 V 2.29102 C 0,2.84505 0.198405,3.32048 0.595215,3.71729 0.992025,4.1141 1.46745,4.3125 2.02148,4.3125 H 20.9785 c 0.5541,0 1.0295,-0.1984 1.4263,-0.59521 C 22.8016,3.32048 23,2.84505 23,2.29102 V -16.666 c 0,-0.5541 -0.1984,-1.0295 -0.5952,-1.4263 -0.3968,-0.3968 -0.8722,-0.5952 -1.4263,-0.5952 M 19.4961,-7.81641 H 18.126 c -0.0749,-0.77864 -0.2845,-1.51237 -0.6289,-2.20119 -0.3295,-0.6888 -0.7562,-1.2952 -1.2803,-1.8193 -0.5241,-0.5241 -1.1305,-0.9509 -1.8193,-1.2803 -0.6888,-0.3294 -1.4226,-0.5316 -2.2012,-0.6064 l -0.0225,-0.0225 v -1.3701 h -1.3476 v 1.3701 c -0.7787,0.0898 -1.5124,0.2995 -2.2012,0.6289 -0.6888,0.3444 -1.29525,0.7749 -1.81934,1.2915 -0.52408,0.5166 -0.95084,1.1193 -1.28027,1.8081 -0.32943,0.67385 -0.53906,1.40009 -0.62891,2.17873 v 0.02246 H 3.54883 v 1.37012 h 1.34765 c 0.08985,0.89844 0.34441,1.72575 0.76368,2.48193 0.41927,0.75619 0.95833,1.40381 1.61718,1.94288 v 0.02246 c 0.07487,0.05989 0.15723,0.12353 0.24707,0.19091 0.08985,0.06739 0.17969,0.13103 0.26954,0.19092 0.50911,0.3444 1.08186,0.617678 1.71826,0.819827 0.63639,0.202148 1.29899,0.303222 1.98779,0.303222 0.8535,0 1.6621,-0.149739 2.4258,-0.449218 0.7637,-0.314451 1.4412,-0.737471 2.0327,-1.269041 0.5915,-0.53158 1.0744,-1.15674 1.4487,-1.87549 0.3744,-0.71875 0.6065,-1.4974 0.6963,-2.33594 v -0.02246 h 1.3477 l 0.0449,-1.37012 M 11.5,-13.0947 c 0.8236,0 1.5947,0.1572 2.3135,0.4717 0.7337,0.3144 1.3701,0.7412 1.9092,1.2802 0.539,0.5391 0.9583,1.168 1.2578,1.88675 0.3144,0.71875 0.4716,1.4899 0.4716,2.31347 H 5.54785 c 0,-0.82357 0.15723,-1.59472 0.47168,-2.31347 0.29948,-0.71875 0.71875,-1.34765 1.25781,-1.88675 0.53907,-0.539 1.17546,-0.9658 1.90918,-1.2802 0.71875,-0.3145 1.48988,-0.4717 2.31348,-0.4717"
         id="path26"
         inkscape:connector-curvature="0"
         style="vector-effect:none;fill-rule:nonzero" />
    </g>
    <g
       transform="matrix(1.33333,0,0,1.33333,16,16)"
       font-size="8.25"
       font-weight="400"
       font-style="normal"
       id="g30"
       style="font-style:normal;font-weight:400;font-size:8.25px;font-family:'MS Shell Dlg 2';fill:none;stroke:#000000;stroke-width:1;stroke-linecap:square;stroke-linejoin:bevel;stroke-opacity:1" />
    <g
       transform="translate(16,16)"
       font-size="8.25"
       font-weight="400"
       font-style="normal"
       id="g32"
       style="font-style:normal;font-weight:400;font-size:8.25px;font-family:'MS Shell Dlg 2';fill:none;stroke:#000000;stroke-width:1;stroke-linecap:square;stroke-linejoin:bevel;stroke-opacity:1" />
    <g
       font-size="8.25"
       font-weight="400"
       font-style="normal"
       id="g34"
       style="font-style:normal;font-weight:400;font-size:8.25px;font-family:'MS Shell Dlg 2';fill:none;stroke:#000000;stroke-width:1;stroke-linecap:square;stroke-linejoin:bevel;stroke-opacity:1" />
    <g
       transform="translate(16,16)"
       font-size="8.25"
       font-weight="400"
       font-style="normal"
       id="g36"
       style="font-style:normal;font-weight:400;font-size:8.25px;font-family:'MS Shell Dlg 2';fill:none;stroke:#000000;stroke-width:1;stroke-linecap:square;stroke-linejoin:bevel;stroke-opacity:1" />
    <g
       transform="matrix(1.33333,0,0,1.33333,16,16)"
       font-size="8.25"
       font-weight="400"
       font-style="normal"
       id="g38"
       style="font-style:normal;font-weight:400;font-size:8.25px;font-family:'MS Shell Dlg 2';fill:none;stroke:#000000;stroke-width:1;stroke-linecap:square;stroke-linejoin:bevel;stroke-opacity:1" />
    <g
       transform="translate(1,25.375)"
       font-size="22.6771"
       font-weight="400"
       font-style="normal"
       id="g42"
       style="font-style:normal;font-weight:400;font-size:22.67709923px;font-family:icomoon;fill:#000000;fill-opacity:1;stroke:none">
      <path
         d="m 26.4258,-22.2363 c 0.3906,0 0.7275,0.1416 1.0107,0.4248 0.2832,0.2832 0.4248,0.6201 0.4248,1.0107 V 2.05078 c 0,0.39063 -0.1416,0.72754 -0.4248,1.01074 -0.2832,0.28321 -0.6201,0.42481 -1.0107,0.42481 H 3.57422 C 3.18359,3.48633 2.84668,3.34473 2.56348,3.06152 2.28027,2.77832 2.13867,2.44141 2.13867,2.05078 V -20.8008 c 0,-0.3906 0.1416,-0.7275 0.42481,-1.0107 0.2832,-0.2832 0.62011,-0.4248 1.01074,-0.4248 H 26.4258 m 0,-0.7032 H 3.57422 c -0.58594,0 -1.08887,0.21 -1.50879,0.6299 -0.41992,0.42 -0.62988,0.9229 -0.62988,1.5088 V 2.05078 c 0,0.58594 0.20996,1.08887 0.62988,1.50879 0.41992,0.41992 0.92285,0.62988 1.50879,0.62988 H 26.4258 c 0.5859,0 1.0888,-0.20996 1.5088,-0.62988 0.4199,-0.41992 0.6299,-0.92285 0.6299,-1.50879 V -20.8008 c 0,-0.5859 -0.21,-1.0888 -0.6299,-1.5088 -0.42,-0.4199 -0.9229,-0.6299 -1.5088,-0.6299 m 1.4355,-0.7324 c 0.3907,0 0.7276,0.1416 1.0108,0.4248 0.2832,0.2832 0.4248,0.6201 0.4248,1.0108 V 3.48633 c 0,0.39062 -0.1416,0.72754 -0.4248,1.01074 -0.2832,0.2832 -0.6201,0.42481 -1.0108,0.42481 H 2.13867 C 1.74805,4.92188 1.41113,4.78027 1.12793,4.49707 0.844727,4.21387 0.703125,3.87695 0.703125,3.48633 V -22.2363 c 0,-0.3907 0.141602,-0.7276 0.424805,-1.0108 0.2832,-0.2832 0.62012,-0.4248 1.01074,-0.4248 H 27.8613 m 0,-0.7031 H 2.13867 c -0.58594,0 -1.08887,0.21 -1.508787,0.6299 C 0.209961,-23.3252 0,-22.8223 0,-22.2363 V 3.48633 C 0,4.07227 0.209961,4.5752 0.629883,4.99512 1.0498,5.41504 1.55273,5.625 2.13867,5.625 H 27.8613 c 0.586,0 1.0889,-0.20996 1.5088,-0.62988 C 29.79,4.5752 30,4.07227 30,3.48633 V -22.2363 c 0,-0.586 -0.21,-1.0889 -0.6299,-1.5088 -0.4199,-0.4199 -0.9228,-0.6299 -1.5088,-0.6299"
         id="path40"
         inkscape:connector-curvature="0"
         style="vector-effect:none;fill-rule:nonzero" />
    </g>
    <g
       transform="matrix(1.33333,0,0,1.33333,16,16)"
       font-size="8.25"
       font-weight="400"
       font-style="normal"
       id="g44"
       style="font-style:normal;font-weight:400;font-size:8.25px;font-family:'MS Shell Dlg 2';fill:none;stroke:#000000;stroke-width:1;stroke-linecap:square;stroke-linejoin:bevel;stroke-opacity:1" />
    <g
       transform="translate(16,16)"
       font-size="8.25"
       font-weight="400"
       font-style="normal"
       id="g46"
       style="font-style:normal;font-weight:400;font-size:8.25px;font-family:'MS Shell Dlg 2';fill:none;stroke:#000000;stroke-width:1;stroke-linecap:square;stroke-linejoin:bevel;stroke-opacity:1" />
    <g
       font-size="8.25"
       font-weight="400"
       font-style="normal"
       id="g48"
       style="font-style:normal;font-weight:400;font-size:8.25px;font-family:'MS Shell Dlg 2';fill:none;stroke:#000000;stroke-width:1;stroke-linecap:square;stroke-linejoin:bevel;stroke-opacity:1" />
  </g>
</svg>
