<?xml version="1.0" encoding="UTF-8" standalone="no"?>
<svg
   xmlns:dc="http://purl.org/dc/elements/1.1/"
   xmlns:cc="http://creativecommons.org/ns#"
   xmlns:rdf="http://www.w3.org/1999/02/22-rdf-syntax-ns#"
   xmlns:svg="http://www.w3.org/2000/svg"
   xmlns="http://www.w3.org/2000/svg"
   xmlns:sodipodi="http://sodipodi.sourceforge.net/DTD/sodipodi-0.dtd"
   xmlns:inkscape="http://www.inkscape.org/namespaces/inkscape"
   width="20"
   height="20"
   viewBox="0 0 20 20"
   version="1.2"
   id="svg52"
   sodipodi:docname="60204050924.svg"
   inkscape:version="0.92.4 (5da689c313, 2019-01-14)">
  <metadata
     id="metadata56">
    <rdf:RDF>
      <cc:Work
         rdf:about="">
        <dc:format>image/svg+xml</dc:format>
        <dc:type
           rdf:resource="http://purl.org/dc/dcmitype/StillImage" />
      </cc:Work>
    </rdf:RDF>
  </metadata>
  <sodipodi:namedview
     pagecolor="#ffffff"
     bordercolor="#666666"
     borderopacity="1"
     objecttolerance="10"
     gridtolerance="10"
     guidetolerance="10"
     inkscape:pageopacity="0"
     inkscape:pageshadow="2"
     inkscape:window-width="1920"
     inkscape:window-height="1017"
     id="namedview54"
     showgrid="false"
     inkscape:zoom="16.68772"
     inkscape:cx="12.854468"
     inkscape:cy="10.148929"
     inkscape:window-x="-8"
     inkscape:window-y="-8"
     inkscape:window-maximized="1"
     inkscape:current-layer="svg52" />
  <title
     id="title2">Qt SVG Document</title>
  <desc
     id="desc4">Generated with Qt</desc>
  <defs
     id="defs6" />
  <g
     style="font-style:normal;font-weight:400;font-size:8.25px;font-family:'MS Shell Dlg 2';fill:none;fill-rule:evenodd;stroke:#000000;stroke-width:1;stroke-linecap:square;stroke-linejoin:bevel;stroke-opacity:1"
     id="g8"
     font-style="normal"
     font-weight="400"
     font-size="8.25"
     transform="translate(16,16)" />
  <g
     style="font-style:normal;font-weight:400;font-size:8.25px;font-family:'MS Shell Dlg 2';fill:none;fill-rule:evenodd;stroke:#000000;stroke-width:1;stroke-linecap:square;stroke-linejoin:bevel;stroke-opacity:1"
     id="g10"
     font-style="normal"
     font-weight="400"
     font-size="8.25"
     transform="matrix(1.33333,0,0,1.33333,16,16)" />
  <g
     style="font-style:normal;font-weight:400;font-size:8.25px;font-family:'MS Shell Dlg 2';fill:none;fill-rule:evenodd;stroke:#000000;stroke-width:1;stroke-linecap:square;stroke-linejoin:bevel;stroke-opacity:1"
     id="g16"
     font-style="normal"
     font-weight="400"
     font-size="8.25"
     transform="matrix(1.33333,0,0,1.33333,16,16)" />
  <g
     style="font-style:normal;font-weight:400;font-size:8.25px;font-family:'MS Shell Dlg 2';fill:none;fill-rule:evenodd;stroke:#000000;stroke-width:1;stroke-linecap:square;stroke-linejoin:bevel;stroke-opacity:1"
     id="g18"
     font-style="normal"
     font-weight="400"
     font-size="8.25"
     transform="translate(16,16)" />
  <g
     style="font-style:normal;font-weight:400;font-size:8.25px;font-family:'MS Shell Dlg 2';fill:none;fill-rule:evenodd;stroke:#000000;stroke-width:1;stroke-linecap:square;stroke-linejoin:bevel;stroke-opacity:1"
     id="g20"
     font-style="normal"
     font-weight="400"
     font-size="8.25" />
  <g
     style="font-style:normal;font-weight:400;font-size:8.25px;font-family:'MS Shell Dlg 2';fill:none;fill-rule:evenodd;stroke:#000000;stroke-width:1;stroke-linecap:square;stroke-linejoin:bevel;stroke-opacity:1"
     id="g22"
     font-style="normal"
     font-weight="400"
     font-size="8.25"
     transform="translate(16,16)" />
  <g
     style="font-style:normal;font-weight:400;font-size:8.25px;font-family:'MS Shell Dlg 2';fill:none;fill-rule:evenodd;stroke:#000000;stroke-width:1;stroke-linecap:square;stroke-linejoin:bevel;stroke-opacity:1"
     id="g24"
     font-style="normal"
     font-weight="400"
     font-size="8.25"
     transform="matrix(1.33333,0,0,1.33333,16,16)" />
  <g
     style="font-style:normal;font-weight:400;font-size:8.25px;font-family:'MS Shell Dlg 2';fill:none;fill-rule:evenodd;stroke:#000000;stroke-width:1;stroke-linecap:square;stroke-linejoin:bevel;stroke-opacity:1"
     id="g30"
     font-style="normal"
     font-weight="400"
     font-size="8.25"
     transform="matrix(1.33333,0,0,1.33333,16,16)" />
  <g
     style="font-style:normal;font-weight:400;font-size:8.25px;font-family:'MS Shell Dlg 2';fill:none;fill-rule:evenodd;stroke:#000000;stroke-width:1;stroke-linecap:square;stroke-linejoin:bevel;stroke-opacity:1"
     id="g32"
     font-style="normal"
     font-weight="400"
     font-size="8.25"
     transform="translate(16,16)" />
  <g
     style="font-style:normal;font-weight:400;font-size:8.25px;font-family:'MS Shell Dlg 2';fill:none;fill-rule:evenodd;stroke:#000000;stroke-width:1;stroke-linecap:square;stroke-linejoin:bevel;stroke-opacity:1"
     id="g34"
     font-style="normal"
     font-weight="400"
     font-size="8.25" />
  <g
     style="font-style:normal;font-weight:400;font-size:8.25px;font-family:'MS Shell Dlg 2';fill:none;fill-rule:evenodd;stroke:#000000;stroke-width:1;stroke-linecap:square;stroke-linejoin:bevel;stroke-opacity:1"
     id="g36"
     font-style="normal"
     font-weight="400"
     font-size="8.25"
     transform="translate(16,16)" />
  <g
     style="font-style:normal;font-weight:400;font-size:8.25px;font-family:'MS Shell Dlg 2';fill:none;fill-rule:evenodd;stroke:#000000;stroke-width:1;stroke-linecap:square;stroke-linejoin:bevel;stroke-opacity:1"
     id="g38"
     font-style="normal"
     font-weight="400"
     font-size="8.25"
     transform="matrix(1.33333,0,0,1.33333,16,16)" />
  <g
     style="font-style:normal;font-weight:400;font-size:8.25px;font-family:'MS Shell Dlg 2';fill:none;fill-rule:evenodd;stroke:#000000;stroke-width:1;stroke-linecap:square;stroke-linejoin:bevel;stroke-opacity:1"
     id="g44"
     font-style="normal"
     font-weight="400"
     font-size="8.25"
     transform="matrix(1.33333,0,0,1.33333,16,16)" />
  <g
     style="font-style:normal;font-weight:400;font-size:8.25px;font-family:'MS Shell Dlg 2';fill:none;fill-rule:evenodd;stroke:#000000;stroke-width:1;stroke-linecap:square;stroke-linejoin:bevel;stroke-opacity:1"
     id="g46"
     font-style="normal"
     font-weight="400"
     font-size="8.25"
     transform="translate(16,16)" />
  <g
     style="font-style:normal;font-weight:400;font-size:8.25px;font-family:'MS Shell Dlg 2';fill:none;fill-rule:evenodd;stroke:#000000;stroke-width:1;stroke-linecap:square;stroke-linejoin:bevel;stroke-opacity:1"
     id="g48"
     font-style="normal"
     font-weight="400"
     font-size="8.25" />
  <path
     d="M 2.5820338,1 H 17.417938 c 0.433593,0 0.805708,0.1552847 1.116208,0.4658539 C 18.844715,1.7763539 19,2.1484693 19,2.5820616 V 17.417966 c 0,0.433599 -0.155285,0.805666 -0.465854,1.116215 C 18.223646,18.844729 17.851531,19 17.417938,19 H 2.5820338 C 2.1484346,19 1.7763677,18.844729 1.4658206,18.534181 1.1552735,18.223632 1,17.851565 1,17.417966 V 2.5820616 C 1,2.1484693 1.1552735,1.7763539 1.4658206,1.4658539 1.7763677,1.1552847 2.1484346,1 2.5820338,1"
     id="path12-8"
     inkscape:connector-curvature="0"
     style="font-style:normal;font-weight:400;font-size:19.84250069px;font-family:icomoon;vector-effect:none;fill:#ffffff;fill-opacity:1;fill-rule:nonzero;stroke:none;stroke-width:0.69230771;stroke-linecap:square;stroke-linejoin:bevel" />
  <path
     d="m 17.5762,1.474577 c 0.257815,0 0.480461,0.093808 0.667938,0.2812846 0.187477,0.1874769 0.281285,0.4101231 0.281285,0.6679384 v 15.152372 c 0,0.257816 -0.09381,0.480469 -0.281285,0.667966 -0.187477,0.187505 -0.410123,0.28125 -0.667938,0.28125 H 2.4238277 c -0.2578154,0 -0.4804685,-0.09374 -0.6679662,-0.28125 -0.1875018,-0.187497 -0.281252,-0.41015 -0.281252,-0.667966 V 2.4238 c 0,-0.2578153 0.09375,-0.4804615 0.281252,-0.6679384 C 1.9433592,1.5683847 2.1660123,1.474577 2.4238277,1.474577 H 17.5762 M 17.5762,1 H 2.4238277 C 2.0253908,1 1.6884765,1.1377 1.4130862,1.4131 1.1376952,1.6885 1,2.025377 1,2.4238 v 15.152372 c 0,0.398437 0.1376952,0.735349 0.4130862,1.010742 C 1.6884765,18.862307 2.0253908,19 2.4238277,19 H 17.5762 c 0.398423,0 0.7353,-0.137693 1.0107,-0.413086 C 18.8623,18.311521 19,17.974609 19,17.576172 V 2.4238 C 19,2.025377 18.8623,1.6885 18.5869,1.4131 18.3115,1.1377 17.974623,1 17.5762,1"
     id="path40-1"
     inkscape:connector-curvature="0"
     style="font-style:normal;font-weight:400;font-size:19.84250069px;font-family:icomoon;vector-effect:none;fill:#000000;fill-opacity:1;fill-rule:nonzero;stroke:none;stroke-width:0.69230771;stroke-linecap:square;stroke-linejoin:bevel" />
  <path
     d="m 16.562038,2.504939 c 0.2592,0 0.479493,0.090762 0.660877,0.2721461 0.181385,0.1813846 0.272147,0.4016769 0.272147,0.6608769 v 13.124091 c 0,0.259158 -0.09076,0.479451 -0.272147,0.66087 -0.181384,0.181412 -0.401677,0.272118 -0.660877,0.272118 H 3.4379477 c -0.2591584,0 -0.4794507,-0.09071 -0.6608699,-0.272118 C 2.5956654,17.041504 2.5049579,16.821211 2.5049579,16.562053 V 3.437962 c 0,-0.2592 0.090708,-0.4794923 0.2721199,-0.6608769 C 2.958497,2.5957005 3.1787893,2.504939 3.4379477,2.504939 H 16.562038 m 0,-0.466477 H 3.4379477 c -0.3835592,0 -0.7126996,0.1373539 -0.9874142,0.4120616 C 2.1758189,2.7252313 2.0384616,3.0543543 2.0384616,3.437962 v 13.124091 c 0,0.383559 0.1373573,0.712703 0.4120719,0.987417 0.2747146,0.274715 0.603855,0.412069 0.9874142,0.412069 H 16.562038 c 0.383608,0 0.712731,-0.137354 0.987439,-0.412069 0.274708,-0.274714 0.412061,-0.603858 0.412061,-0.987417 V 3.437962 c 0,-0.3836077 -0.137353,-0.7127307 -0.412061,-0.9874384 C 17.274769,2.1758159 16.945646,2.038462 16.562038,2.038462 m -1.757146,10.682765 c 0.248816,-0.248795 0.45097,-0.539059 0.606462,-0.870792 0.155492,-0.331733 0.248815,-0.684194 0.2799,-1.057389 v -0.01555 h 0.870784 V 10.310999 H 15.706831 C 15.665362,9.7926682 15.520185,9.3183959 15.271438,8.888182 15.022623,8.4579682 14.701254,8.1029182 14.307331,7.8230389 L 14.291754,7.807462 V 6.2524697 H 9.8289308 V 7.8385466 C 9.6112693,7.9940389 9.4168693,8.1728897 9.2458,8.3750366 9.0748,8.5771836 8.9270616,8.7922905 8.8026608,9.0203574 L 8.7871116,9.0514559 8.6005139,8.9737097 H 7.6519693 V 5.5216005 h 4.6960617 v 0.7308692 h 0.466477 V 5.0551236 H 7.1854716 V 8.9737097 H 5.2106362 V 10.171049 C 4.9514708,10.388745 4.7389601,10.64791 4.5730901,10.948545 4.407227,11.249173 4.3087462,11.57572 4.2776477,11.928188 H 3.9044454 v 0.482047 h 0.3732023 c 0.051826,0.373195 0.176227,0.717882 0.3731954,1.034065 0.1969616,0.316177 0.4509416,0.572754 0.76194,0.769715 H 3.4379477 v 0.466499 H 16.562038 V 14.214015 H 15.349185 L 14.804892,12.721227 M 10.108831,8.1806643 10.295477,8.0407005 V 6.7189466 h 3.545377 v 1.3528662 l 0.186577,0.13995 c 0.362838,0.2591654 0.655684,0.5883023 0.878538,0.9874177 0.222923,0.3991154 0.334316,0.8371035 0.334316,1.3139655 -0.03109,0.818958 -0.34207,1.513523 -0.932954,2.083687 -0.590885,0.570157 -1.301054,0.855242 -2.130369,0.855242 -0.0207,0 -0.03884,0 -0.05442,0 -0.01551,0 -0.03365,0 -0.05442,0 -0.0207,0 -0.03884,0 -0.05442,0 -0.01558,0 -0.03371,0 -0.05441,0 -0.829315,0 -1.539485,-0.285085 -2.1303692,-0.855242 C 9.2380462,12.026669 8.9270616,11.33729 8.8959562,10.528695 v -0.01555 c 0,-0.476862 0.1088515,-0.9174394 0.3265823,-1.3217401 C 9.4402,8.787112 9.7304847,8.4553789 10.093323,8.1962136 l 0.01551,-0.015549 M 4.7285893,12.130335 c 0,-0.342097 0.077753,-0.658281 0.2332523,-0.948545 0.1554992,-0.290263 0.3628246,-0.528694 0.62199,-0.715292 h 0.015549 l 0.093302,-0.0622 V 9.4402074 h 2.7989792 l 0.1088516,0.015549 C 8.5590447,9.5801505 8.5227608,9.714922 8.4916623,9.8600505 8.4605639,10.005186 8.4398293,10.150314 8.4294654,10.29545 V 10.311 H 7.5742162 v 0.466498 h 0.8707985 c 0.031098,0.383559 0.1243938,0.741205 0.279893,1.072938 0.1554993,0.331733 0.3576462,0.621997 0.6064616,0.870792 l -0.2332385,0.653095 -0.046661,0.04666 c -0.2695431,0.22806 -0.5701708,0.412068 -0.9019039,0.552018 -0.3317331,0.13995 -0.6841938,0.220292 -1.0573961,0.24102 H 7.07662 6.936677 c -0.010371,0 -0.015556,0 -0.015556,0 0,0 -0.00518,0 -0.015549,0 -0.5805277,0 -1.0833092,-0.202147 -1.5083377,-0.606441 -0.4250285,-0.4043 -0.64791,-0.896711 -0.6686446,-1.477239"
     id="path26"
     inkscape:connector-curvature="0"
     style="font-style:normal;font-weight:400;font-size:17.00779915px;font-family:icomoon;vector-effect:none;fill:#000000;fill-opacity:1;fill-rule:nonzero;stroke:none;stroke-width:0.69230771;stroke-linecap:square;stroke-linejoin:bevel" />
  <path
     d="m 1.8870193,18.653846 c -0.078876,0 -0.1493017,-0.01409 -0.2112757,-0.04226 -0.061974,-0.02817 -0.121131,-0.06479 -0.177471,-0.109862 -0.045073,-0.05634 -0.081694,-0.115498 -0.1098636,-0.177467 -0.02817,-0.06198 -0.042255,-0.132403 -0.042255,-0.211278 0,-0.07888 0.014085,-0.149303 0.042255,-0.211279 0.02817,-0.06197 0.064791,-0.121126 0.1098636,-0.177466 L 17.724215,1.498254 c 0.05635,-0.045069 0.115547,-0.081692 0.177508,-0.1098692 0.06196,-0.028177 0.132369,-0.042231 0.211292,-0.042231 0.146423,0 0.273185,0.053515 0.380285,0.1605462 0.107031,0.1071 0.160546,0.2338615 0.160546,0.3802846 0,0.078923 -0.01405,0.1493308 -0.04223,0.2112923 -0.02818,0.061962 -0.0648,0.1211539 -0.109869,0.1775077 L 2.2757639,18.501726 c -0.05634,0.04508 -0.1154977,0.08169 -0.1774662,0.109862 -0.061977,0.02817 -0.1324024,0.04226 -0.2112784,0.04226"
     id="path54"
     inkscape:connector-curvature="0"
     style="font-style:normal;font-weight:400;font-size:18.70859909px;font-family:icomoon;vector-effect:none;fill:#ff0000;fill-opacity:1;fill-rule:nonzero;stroke:none;stroke-width:0.69230771;stroke-linecap:square;stroke-linejoin:bevel" />
</svg>
