<?xml version="1.0" encoding="UTF-8" standalone="no"?>
<svg
   xmlns:dc="http://purl.org/dc/elements/1.1/"
   xmlns:cc="http://creativecommons.org/ns#"
   xmlns:rdf="http://www.w3.org/1999/02/22-rdf-syntax-ns#"
   xmlns:svg="http://www.w3.org/2000/svg"
   xmlns="http://www.w3.org/2000/svg"
   xmlns:sodipodi="http://sodipodi.sourceforge.net/DTD/sodipodi-0.dtd"
   xmlns:inkscape="http://www.inkscape.org/namespaces/inkscape"
   width="20"
   height="20"
   viewBox="0 0 20 20"
   version="1.2"
   id="svg52"
   sodipodi:docname="60204051323.svg"
   inkscape:version="0.92.4 (5da689c313, 2019-01-14)">
  <metadata
     id="metadata56">
    <rdf:RDF>
      <cc:Work
         rdf:about="">
        <dc:format>image/svg+xml</dc:format>
        <dc:type
           rdf:resource="http://purl.org/dc/dcmitype/StillImage" />
      </cc:Work>
    </rdf:RDF>
  </metadata>
  <sodipodi:namedview
     pagecolor="#ffffff"
     bordercolor="#666666"
     borderopacity="1"
     objecttolerance="10"
     gridtolerance="10"
     guidetolerance="10"
     inkscape:pageopacity="0"
     inkscape:pageshadow="2"
     inkscape:window-width="1920"
     inkscape:window-height="1017"
     id="namedview54"
     showgrid="false"
     inkscape:zoom="11.8"
     inkscape:cx="10"
     inkscape:cy="10"
     inkscape:window-x="-8"
     inkscape:window-y="-8"
     inkscape:window-maximized="1"
     inkscape:current-layer="svg52" />
  <title
     id="title2">Qt SVG Document</title>
  <desc
     id="desc4">Generated with Qt</desc>
  <defs
     id="defs6" />
  <g
     id="g50"
     transform="matrix(0.69230769,0,0,0.69230769,-1.076923,-1.076923)"
     style="fill:none;fill-rule:evenodd;stroke:#000000;stroke-width:1;stroke-linecap:square;stroke-linejoin:bevel">
    <g
       transform="translate(16,16)"
       font-size="8.25"
       font-weight="400"
       font-style="normal"
       id="g8"
       style="font-style:normal;font-weight:400;font-size:8.25px;font-family:'MS Shell Dlg 2';fill:none;stroke:#000000;stroke-width:1;stroke-linecap:square;stroke-linejoin:bevel;stroke-opacity:1" />
    <g
       transform="matrix(1.33333,0,0,1.33333,16,16)"
       font-size="8.25"
       font-weight="400"
       font-style="normal"
       id="g10"
       style="font-style:normal;font-weight:400;font-size:8.25px;font-family:'MS Shell Dlg 2';fill:none;stroke:#000000;stroke-width:1;stroke-linecap:square;stroke-linejoin:bevel;stroke-opacity:1" />
    <g
       transform="translate(3,24.125)"
       font-size="19.8425"
       font-weight="400"
       font-style="normal"
       id="g14"
       style="font-style:normal;font-weight:400;font-size:19.84250069px;font-family:icomoon;fill:#ffff00;fill-opacity:1;stroke:none">
      <path
         d="M 2.28516,-21.125 H 23.7148 c 0.6263,0 1.1638,0.2243 1.6123,0.6729 0.4486,0.4485 0.6729,0.986 0.6729,1.6123 V 2.58984 C 26,3.21615 25.7757,3.75358 25.3271,4.20215 24.8786,4.65072 24.3411,4.875 23.7148,4.875 H 2.28516 C 1.65885,4.875 1.12142,4.65072 0.672852,4.20215 0.224284,3.75358 0,3.21615 0,2.58984 V -18.8398 c 0,-0.6263 0.224284,-1.1638 0.672852,-1.6123 0.448568,-0.4486 0.985998,-0.6729 1.612308,-0.6729"
         id="path12"
         inkscape:connector-curvature="0"
         style="vector-effect:none;fill-rule:nonzero" />
    </g>
    <g
       transform="matrix(1.33333,0,0,1.33333,16,16)"
       font-size="8.25"
       font-weight="400"
       font-style="normal"
       id="g16"
       style="font-style:normal;font-weight:400;font-size:8.25px;font-family:'MS Shell Dlg 2';fill:none;stroke:#000000;stroke-width:1;stroke-linecap:square;stroke-linejoin:bevel;stroke-opacity:1" />
    <g
       transform="translate(16,16)"
       font-size="8.25"
       font-weight="400"
       font-style="normal"
       id="g18"
       style="font-style:normal;font-weight:400;font-size:8.25px;font-family:'MS Shell Dlg 2';fill:none;stroke:#000000;stroke-width:1;stroke-linecap:square;stroke-linejoin:bevel;stroke-opacity:1" />
    <g
       font-size="8.25"
       font-weight="400"
       font-style="normal"
       id="g20"
       style="font-style:normal;font-weight:400;font-size:8.25px;font-family:'MS Shell Dlg 2';fill:none;stroke:#000000;stroke-width:1;stroke-linecap:square;stroke-linejoin:bevel;stroke-opacity:1" />
    <g
       transform="translate(16,16)"
       font-size="8.25"
       font-weight="400"
       font-style="normal"
       id="g22"
       style="font-style:normal;font-weight:400;font-size:8.25px;font-family:'MS Shell Dlg 2';fill:none;stroke:#000000;stroke-width:1;stroke-linecap:square;stroke-linejoin:bevel;stroke-opacity:1" />
    <g
       transform="matrix(1.33333,0,0,1.33333,16,16)"
       font-size="8.25"
       font-weight="400"
       font-style="normal"
       id="g24"
       style="font-style:normal;font-weight:400;font-size:8.25px;font-family:'MS Shell Dlg 2';fill:none;stroke:#000000;stroke-width:1;stroke-linecap:square;stroke-linejoin:bevel;stroke-opacity:1" />
    <g
       transform="translate(4.5,23.1875)"
       font-size="17.0078"
       font-weight="400"
       font-style="normal"
       id="g28"
       style="font-style:normal;font-weight:400;font-size:17.00779915px;font-family:icomoon;fill:#000000;fill-opacity:1;stroke:none">
      <path
         d="m 20.9785,-18.0137 c 0.3744,0 0.6926,0.1311 0.9546,0.3931 0.262,0.262 0.3931,0.5802 0.3931,0.9546 V 2.29102 c 0,0.37434 -0.1311,0.69254 -0.3931,0.95459 -0.262,0.26204 -0.5802,0.39306 -0.9546,0.39306 H 2.02148 C 1.64714,3.63867 1.32894,3.50765 1.06689,3.24561 0.80485,2.98356 0.673828,2.66536 0.673828,2.29102 V -16.666 c 0,-0.3744 0.131022,-0.6926 0.393062,-0.9546 0.26205,-0.262 0.58025,-0.3931 0.95459,-0.3931 H 20.9785 m 0,-0.6738 H 2.02148 c -0.55403,0 -1.029455,0.1984 -1.426265,0.5952 C 0.198405,-17.6955 0,-17.2201 0,-16.666 V 2.29102 C 0,2.84505 0.198405,3.32048 0.595215,3.71729 0.992025,4.1141 1.46745,4.3125 2.02148,4.3125 H 20.9785 c 0.5541,0 1.0295,-0.1984 1.4263,-0.59521 C 22.8016,3.32048 23,2.84505 23,2.29102 V -16.666 c 0,-0.5541 -0.1984,-1.0295 -0.5952,-1.4263 -0.3968,-0.3968 -0.8722,-0.5952 -1.4263,-0.5952 M 11.5,-16.5537 c -1.2878,0 -2.50065,0.2471 -3.63867,0.7412 -1.13802,0.4941 -2.13005,1.1642 -2.97608,2.0103 -0.84602,0.846 -1.51611,1.838 -2.01025,2.976 -0.49414,1.13805 -0.74121,2.35094 -0.74121,3.6387 0,1.28776 0.24707,2.50065 0.74121,3.63867 0.49414,1.13802 1.16423,2.13005 2.01025,2.976076 C 5.73128,0.273275 6.72331,0.943359 7.86133,1.4375 8.99935,1.93164 10.2122,2.17871 11.5,2.17871 c 1.2878,0 2.5007,-0.24707 3.6387,-0.74121 1.138,-0.494141 2.13,-1.164225 2.976,-2.010254 0.8461,-0.846026 1.5162,-1.838056 2.0103,-2.976076 0.4941,-1.13802 0.7412,-2.35091 0.7412,-3.63867 0,-1.28776 -0.2471,-2.50065 -0.7412,-3.6387 -0.4941,-1.138 -1.1642,-2.13 -2.0103,-2.976 -0.846,-0.8461 -1.838,-1.5162 -2.976,-2.0103 -1.138,-0.4941 -2.3509,-0.7412 -3.6387,-0.7412 m 8.333,8.93944 h -2.1338 c -0.0449,-0.76367 -0.2246,-1.48242 -0.539,-2.15625 -0.3145,-0.67379 -0.7225,-1.26909 -1.2242,-1.78569 -0.5016,-0.5166 -1.0893,-0.9321 -1.7631,-1.2465 -0.6739,-0.3295 -1.3851,-0.5241 -2.1338,-0.584 h -0.0225 v -2.1113 c 1.0482,0.0598 2.0365,0.3069 2.9648,0.7412 0.9284,0.4342 1.7408,1.0032 2.4371,1.707 0.6962,0.7038 1.2615,1.5199 1.6958,2.4482 0.4192,0.92842 0.6588,1.9167 0.7187,2.96488 v 0.02246 m -8.333,5.6377 c -0.7187,0 -1.3926,-0.13477 -2.02148,-0.4043 C 8.83464,-2.65039 8.27686,-3.021 7.80518,-3.49268 7.3335,-3.96436 6.96289,-4.52214 6.69336,-5.16602 6.42383,-5.79492 6.28906,-6.46875 6.28906,-7.1875 c 0,-0.71875 0.13477,-1.39258 0.4043,-2.02148 0.26953,-0.64388 0.64014,-1.20162 1.11182,-1.67332 0.47168,-0.4717 1.02946,-0.8423 1.67334,-1.1118 0.62888,-0.2696 1.30278,-0.4043 2.02148,-0.4043 0.7188,0 1.3926,0.1347 2.0215,0.4043 0.6439,0.2695 1.2016,0.6401 1.6733,1.1118 0.4717,0.4717 0.8423,1.02944 1.1118,1.67332 0.2696,0.6289 0.4043,1.30273 0.4043,2.02148 0,0.71875 -0.1347,1.39258 -0.4043,2.02148 -0.2695,0.64388 -0.6401,1.20166 -1.1118,1.67334 -0.4717,0.47168 -1.0294,0.84229 -1.6733,1.11182 -0.6289,0.26953 -1.3027,0.4043 -2.0215,0.4043 M 10.9834,-15.498 v 2.1113 c -0.7487,0.0599 -1.45996,0.2471 -2.13379,0.5615 -0.65885,0.3145 -1.24284,0.7262 -1.75195,1.2354 -0.50912,0.5091 -0.9209,1.0931 -1.23536,1.75191 -0.31445,0.65885 -0.50162,1.36263 -0.56152,2.11133 V -7.7041 H 3.18945 c 0.0599,-1.04818 0.30697,-2.02897 0.74121,-2.9424 0.41927,-0.9284 0.97705,-1.7407 1.67334,-2.437 0.69629,-0.6963 1.50114,-1.2541 2.41455,-1.6733 0.92839,-0.4343 1.90918,-0.6814 2.94235,-0.7412 h 0.0225 m -7.79395,8.8271 h 2.11133 c 0.0599,0.7487 0.24707,1.45996 0.56152,2.13379 0.31446,0.65885 0.72624,1.24284 1.23536,1.75195 0.50911,0.50912 1.0931,0.9209 1.75195,1.23536 0.65885,0.31445 1.36259,0.50162 2.11129,0.561519 h 0.0225 V 1.12305 C 9.93522,1.06315 8.95443,0.816081 8.04102,0.381836 7.11263,-0.0374349 6.30029,-0.595215 5.604,-1.2915 4.90771,-1.98779 4.34993,-2.79264 3.93066,-3.70605 3.49642,-4.63444 3.24935,-5.61523 3.18945,-6.64844 V -6.6709 m 8.82715,7.79395 v -2.111331 c 0.7487,-0.059899 1.4525,-0.247069 2.1113,-0.561519 0.6589,-0.29948 1.2391,-0.70004 1.7408,-1.20166 0.5016,-0.50163 0.9171,-1.07439 1.2465,-1.71827 0.3145,-0.65885 0.5091,-1.35514 0.584,-2.08886 v -0.02246 h 2.1113 c -0.0748,1.0332 -0.3294,2.00651 -0.7636,2.91992 -0.4343,0.91341 -0.9958,1.71452 -1.6846,2.40332 -0.6888,0.6888 -1.4899,1.242836 -2.4033,1.662107 -0.9134,0.419271 -1.8867,0.658853 -2.9199,0.718753 h -0.0225"
         id="path26"
         inkscape:connector-curvature="0"
         style="vector-effect:none;fill-rule:nonzero" />
    </g>
    <g
       transform="matrix(1.33333,0,0,1.33333,16,16)"
       font-size="8.25"
       font-weight="400"
       font-style="normal"
       id="g30"
       style="font-style:normal;font-weight:400;font-size:8.25px;font-family:'MS Shell Dlg 2';fill:none;stroke:#000000;stroke-width:1;stroke-linecap:square;stroke-linejoin:bevel;stroke-opacity:1" />
    <g
       transform="translate(16,16)"
       font-size="8.25"
       font-weight="400"
       font-style="normal"
       id="g32"
       style="font-style:normal;font-weight:400;font-size:8.25px;font-family:'MS Shell Dlg 2';fill:none;stroke:#000000;stroke-width:1;stroke-linecap:square;stroke-linejoin:bevel;stroke-opacity:1" />
    <g
       font-size="8.25"
       font-weight="400"
       font-style="normal"
       id="g34"
       style="font-style:normal;font-weight:400;font-size:8.25px;font-family:'MS Shell Dlg 2';fill:none;stroke:#000000;stroke-width:1;stroke-linecap:square;stroke-linejoin:bevel;stroke-opacity:1" />
    <g
       transform="translate(16,16)"
       font-size="8.25"
       font-weight="400"
       font-style="normal"
       id="g36"
       style="font-style:normal;font-weight:400;font-size:8.25px;font-family:'MS Shell Dlg 2';fill:none;stroke:#000000;stroke-width:1;stroke-linecap:square;stroke-linejoin:bevel;stroke-opacity:1" />
    <g
       transform="matrix(1.33333,0,0,1.33333,16,16)"
       font-size="8.25"
       font-weight="400"
       font-style="normal"
       id="g38"
       style="font-style:normal;font-weight:400;font-size:8.25px;font-family:'MS Shell Dlg 2';fill:none;stroke:#000000;stroke-width:1;stroke-linecap:square;stroke-linejoin:bevel;stroke-opacity:1" />
    <g
       transform="translate(3,24.125)"
       font-size="19.8425"
       font-weight="400"
       font-style="normal"
       id="g42"
       style="font-style:normal;font-weight:400;font-size:19.84250069px;font-family:icomoon;fill:#000000;fill-opacity:1;stroke:none">
      <path
         d="m 23.9434,-20.4395 c 0.3724,0 0.694,0.1355 0.9648,0.4063 0.2708,0.2708 0.4063,0.5924 0.4063,0.9648 V 2.81836 c 0,0.3724 -0.1355,0.69401 -0.4063,0.96484 -0.2708,0.27084 -0.5924,0.40625 -0.9648,0.40625 H 2.05664 C 1.68424,4.18945 1.36263,4.05404 1.0918,3.7832 0.820964,3.51237 0.685547,3.19076 0.685547,2.81836 V -19.0684 c 0,-0.3724 0.135417,-0.694 0.406253,-0.9648 0.27083,-0.2708 0.59244,-0.4063 0.96484,-0.4063 H 23.9434 m 0,-0.6855 H 2.05664 c -0.57552,0 -1.062174,0.1989 -1.45996,0.5967 C 0.198893,-20.1305 0,-19.6439 0,-19.0684 V 2.81836 C 0,3.39388 0.198893,3.88053 0.59668,4.27832 0.994466,4.67611 1.48112,4.875 2.05664,4.875 H 23.9434 c 0.5755,0 1.0621,-0.19889 1.4599,-0.59668 C 25.8011,3.88053 26,3.39388 26,2.81836 V -19.0684 c 0,-0.5755 -0.1989,-1.0621 -0.5967,-1.4599 -0.3978,-0.3978 -0.8844,-0.5967 -1.4599,-0.5967"
         id="path40"
         inkscape:connector-curvature="0"
         style="vector-effect:none;fill-rule:nonzero" />
    </g>
    <g
       transform="matrix(1.33333,0,0,1.33333,16,16)"
       font-size="8.25"
       font-weight="400"
       font-style="normal"
       id="g44"
       style="font-style:normal;font-weight:400;font-size:8.25px;font-family:'MS Shell Dlg 2';fill:none;stroke:#000000;stroke-width:1;stroke-linecap:square;stroke-linejoin:bevel;stroke-opacity:1" />
    <g
       transform="translate(16,16)"
       font-size="8.25"
       font-weight="400"
       font-style="normal"
       id="g46"
       style="font-style:normal;font-weight:400;font-size:8.25px;font-family:'MS Shell Dlg 2';fill:none;stroke:#000000;stroke-width:1;stroke-linecap:square;stroke-linejoin:bevel;stroke-opacity:1" />
    <g
       font-size="8.25"
       font-weight="400"
       font-style="normal"
       id="g48"
       style="font-style:normal;font-weight:400;font-size:8.25px;font-family:'MS Shell Dlg 2';fill:none;stroke:#000000;stroke-width:1;stroke-linecap:square;stroke-linejoin:bevel;stroke-opacity:1" />
  </g>
</svg>
