<?xml version="1.0" encoding="UTF-8" standalone="no"?>
<svg
   xmlns:dc="http://purl.org/dc/elements/1.1/"
   xmlns:cc="http://creativecommons.org/ns#"
   xmlns:rdf="http://www.w3.org/1999/02/22-rdf-syntax-ns#"
   xmlns:svg="http://www.w3.org/2000/svg"
   xmlns="http://www.w3.org/2000/svg"
   xmlns:sodipodi="http://sodipodi.sourceforge.net/DTD/sodipodi-0.dtd"
   xmlns:inkscape="http://www.inkscape.org/namespaces/inkscape"
   width="20"
   height="20"
   viewBox="0 0 20 20"
   version="1.2"
   id="svg52"
   sodipodi:docname="60204050922.svg"
   inkscape:version="0.92.4 (5da689c313, 2019-01-14)">
  <metadata
     id="metadata56">
    <rdf:RDF>
      <cc:Work
         rdf:about="">
        <dc:format>image/svg+xml</dc:format>
        <dc:type
           rdf:resource="http://purl.org/dc/dcmitype/StillImage" />
      </cc:Work>
    </rdf:RDF>
  </metadata>
  <sodipodi:namedview
     pagecolor="#ffffff"
     bordercolor="#666666"
     borderopacity="1"
     objecttolerance="10"
     gridtolerance="10"
     guidetolerance="10"
     inkscape:pageopacity="0"
     inkscape:pageshadow="2"
     inkscape:window-width="1920"
     inkscape:window-height="1017"
     id="namedview54"
     showgrid="false"
     inkscape:zoom="11.8"
     inkscape:cx="10"
     inkscape:cy="10"
     inkscape:window-x="-8"
     inkscape:window-y="-8"
     inkscape:window-maximized="1"
     inkscape:current-layer="svg52" />
  <title
     id="title2">Qt SVG Document</title>
  <desc
     id="desc4">Generated with Qt</desc>
  <defs
     id="defs6" />
  <g
     id="g99"
     transform="matrix(0.69230769,0,0,0.69230769,3.0769231,3.0769231)">
    <path
       style="font-style:normal;font-weight:400;font-size:19.84250069px;font-family:icomoon;vector-effect:none;fill:#ff0000;fill-opacity:1;fill-rule:nonzero;stroke:none;stroke-width:1;stroke-linecap:square;stroke-linejoin:bevel"
       inkscape:connector-curvature="0"
       id="path12-5"
       d="M -0.71484,-3 H 20.7148 c 0.6263,0 1.1638,0.2243 1.6123,0.6729 C 22.7757,-1.8786 23,-1.3411 23,-0.7148 v 21.42964 c 0,0.62631 -0.2243,1.16374 -0.6729,1.61231 C 21.8786,22.77572 21.3411,23 20.7148,23 H -0.71484 C -1.34115,23 -1.87858,22.77572 -2.327148,22.32715 -2.775716,21.87858 -3,21.34115 -3,20.71484 V -0.7148 c 0,-0.6263 0.224284,-1.1638 0.672852,-1.6123 C -1.87858,-2.7757 -1.34115,-3 -0.71484,-3" />
    <path
       style="font-style:normal;font-weight:400;font-size:19.84250069px;font-family:icomoon;vector-effect:none;fill:#000000;fill-opacity:1;fill-rule:nonzero;stroke:none;stroke-width:1;stroke-linecap:square;stroke-linejoin:bevel"
       inkscape:connector-curvature="0"
       id="path40-5"
       d="m 20.9434,-2.3145 c 0.3724,0 0.694,0.1355 0.9648,0.4063 0.2708,0.2708 0.4063,0.5924 0.4063,0.9648 v 21.88676 c 0,0.3724 -0.1355,0.69401 -0.4063,0.96484 -0.2708,0.27084 -0.5924,0.40625 -0.9648,0.40625 H -0.94336 c -0.3724,0 -0.69401,-0.13541 -0.96484,-0.40625 -0.270836,-0.27083 -0.406253,-0.59244 -0.406253,-0.96484 V -0.9434 c 0,-0.3724 0.135417,-0.694 0.406253,-0.9648 0.27083,-0.2708 0.59244,-0.4063 0.96484,-0.4063 H 20.9434 m 0,-0.6855 H -0.94336 c -0.57552,0 -1.062174,0.1989 -1.45996,0.5967 C -2.801107,-2.0055 -3,-1.5189 -3,-0.9434 v 21.88676 c 0,0.57552 0.198893,1.06217 0.59668,1.45996 C -2.005534,22.80111 -1.51888,23 -0.94336,23 H 20.9434 c 0.5755,0 1.0621,-0.19889 1.4599,-0.59668 C 22.8011,22.00553 23,21.51888 23,20.94336 V -0.9434 C 23,-1.5189 22.8011,-2.0055 22.4033,-2.4033 22.0055,-2.8011 21.5189,-3 20.9434,-3" />
    <path
       style="font-style:normal;font-weight:400;font-size:17.00779915px;font-family:icomoon;vector-effect:none;fill:#000000;fill-opacity:1;fill-rule:nonzero;stroke:none;stroke-width:1;stroke-linecap:square;stroke-linejoin:bevel"
       inkscape:connector-curvature="0"
       id="path26"
       d="m 19.4785,-0.82620025 c 0.3744,0 0.6926,0.1311 0.9546,0.3931 0.262,0.262 0.3931,0.5802 0.3931,0.9546 V 19.47852 c 0,0.37434 -0.1311,0.69254 -0.3931,0.95459 -0.262,0.26204 -0.5802,0.39306 -0.9546,0.39306 H 0.52148 c -0.37434,0 -0.69254,-0.13102 -0.95459,-0.39306 -0.26204,-0.26205 -0.393062,-0.58025 -0.393062,-0.95459 V 0.52149975 c 0,-0.3744 0.131022,-0.6926 0.393062,-0.9546 0.26205,-0.262 0.58025,-0.3931 0.95459,-0.3931 H 19.4785 m 0,-0.67379995 H 0.52148 c -0.55403,0 -1.029455,0.1984 -1.426265,0.59519995 -0.39681,0.3968 -0.595215,0.8722 -0.595215,1.4263 V 19.47852 c 0,0.55403 0.198405,1.02946 0.595215,1.42627 C -0.507975,21.3016 -0.03255,21.5 0.52148,21.5 H 19.4785 c 0.5541,0 1.0295,-0.1984 1.4263,-0.59521 C 21.3016,20.50798 21.5,20.03255 21.5,19.47852 V 0.52149975 c 0,-0.5541 -0.1984,-1.0295 -0.5952,-1.4263 C 20.508,-1.3016002 20.0326,-1.5000002 19.4785,-1.5000002 M 16.9404,13.93066 c 0.3594,-0.35937 0.6514,-0.77864 0.876,-1.25781 0.2246,-0.47917 0.3594,-0.98828 0.4043,-1.52734 v -0.02246 h 1.2578 V 10.44922 H 18.2432 C 18.1833,9.7005197 17.9736,9.0154598 17.6143,8.3940397 c -0.3594,-0.62142 -0.8236,-1.13427 -1.3926,-1.53854 l -0.0225,-0.0225 v -2.2461 H 9.7529 v 2.291 c -0.3144,0.2246 -0.5952,0.48294 -0.8423,0.77493 -0.247,0.29199 -0.4604,0.6027 -0.64009,0.9321301 l -0.02246,0.04492 -0.26953,-0.1123 H 6.6084 V 3.5311997 h 6.7832 v 1.0557 h 0.6738 V 2.8573998 H 5.93457 v 5.66018 H 3.08203 V 10.24707 c -0.37435,0.31445 -0.68131,0.6888 -0.9209,1.12305 -0.23958,0.43424 -0.38183,0.90592 -0.42675,1.41504 H 1.19531 v 0.69629 h 0.53907 c 0.07486,0.53906 0.25455,1.03694 0.53906,1.49365 0.2845,0.4567 0.65136,0.82731 1.10058,1.11181 H 0.52148 v 0.673832 H 19.4785 V 16.08691 h -1.7519 l -0.7862,-2.15625 m -6.7832,-6.5585903 0.2696,-0.20217 v -1.9092 h 5.1211 v 1.95414 l 0.2695,0.20215 c 0.5241,0.37435 0.9471,0.84977 1.269,1.42627 0.322,0.5765 0.4829,1.2091503 0.4829,1.8979503 -0.0449,1.18294 -0.4941,2.1862 -1.3476,3.00977 -0.8535,0.82356 -1.8793,1.23535 -3.0772,1.23535 -0.0299,0 -0.0561,0 -0.0786,0 -0.0224,0 -0.0486,0 -0.0786,0 -0.0299,0 -0.0561,0 -0.0786,0 -0.0225,0 -0.0487,0 -0.0786,0 -1.1979,0 -2.2237,-0.41179 -3.0772,-1.23535 C 8.8994,12.92741 8.4502,11.93164 8.40527,10.76367 v -0.02246 c 0,-0.6888 0.15723,-1.3251902 0.47173,-1.9091802 0.3144,-0.58398 0.7337,-1.0631501 1.2578,-1.4375001 l 0.0224,-0.02246 M 2.38574,13.07715 c 0,-0.49414 0.11231,-0.95085 0.33692,-1.37012 0.22461,-0.41927 0.52408,-0.76367 0.89843,-1.0332 H 3.64355 L 3.77832,10.58398 V 9.1914097 h 4.04297 l 0.15723,0.02246 c -0.0599,0.17968 -0.11231,0.37435 -0.15723,0.58398 C 7.77637,10.00749 7.74642,10.21712 7.73145,10.42676 v 0.02246 H 6.49609 v 0.67383 h 1.25782 c 0.04492,0.55403 0.17968,1.07063 0.40429,1.5498 0.22461,0.47917 0.5166,0.89844 0.876,1.25781 L 8.6973,14.87402 8.6299,14.94141 C 8.24056,15.27083 7.80632,15.53662 7.32715,15.73877 6.84798,15.94092 6.33887,16.05697 5.7998,16.08691 H 5.77734 5.5752 c -0.01498,0 -0.02247,0 -0.02247,0 0,0 -0.0075,0 -0.02246,0 -0.83854,0 -1.56478,-0.29199 -2.17871,-0.87597 C 2.73763,14.62695 2.41569,13.91569 2.38574,13.07715" />
  </g>
</svg>
