<?xml version="1.0" encoding="UTF-8" standalone="no"?>
<svg
   xmlns:dc="http://purl.org/dc/elements/1.1/"
   xmlns:cc="http://creativecommons.org/ns#"
   xmlns:rdf="http://www.w3.org/1999/02/22-rdf-syntax-ns#"
   xmlns:svg="http://www.w3.org/2000/svg"
   xmlns="http://www.w3.org/2000/svg"
   xmlns:sodipodi="http://sodipodi.sourceforge.net/DTD/sodipodi-0.dtd"
   xmlns:inkscape="http://www.inkscape.org/namespaces/inkscape"
   width="20"
   height="20"
   viewBox="0 0 20 20"
   version="1.2"
   id="svg66"
   sodipodi:docname="60204051214.svg"
   inkscape:version="0.92.4 (5da689c313, 2019-01-14)">
  <metadata
     id="metadata70">
    <rdf:RDF>
      <cc:Work
         rdf:about="">
        <dc:format>image/svg+xml</dc:format>
        <dc:type
           rdf:resource="http://purl.org/dc/dcmitype/StillImage" />
      </cc:Work>
    </rdf:RDF>
  </metadata>
  <sodipodi:namedview
     pagecolor="#ffffff"
     bordercolor="#666666"
     borderopacity="1"
     objecttolerance="10"
     gridtolerance="10"
     guidetolerance="10"
     inkscape:pageopacity="0"
     inkscape:pageshadow="2"
     inkscape:window-width="1920"
     inkscape:window-height="1017"
     id="namedview68"
     showgrid="false"
     inkscape:zoom="11.8"
     inkscape:cx="10"
     inkscape:cy="10"
     inkscape:window-x="-8"
     inkscape:window-y="-8"
     inkscape:window-maximized="1"
     inkscape:current-layer="svg66" />
  <title
     id="title2">Qt SVG Document</title>
  <desc
     id="desc4">Generated with Qt</desc>
  <defs
     id="defs6" />
  <g
     id="g64"
     transform="matrix(0.66666667,0,0,0.66666667,-0.66666672,-0.66666672)"
     style="fill:none;fill-rule:evenodd;stroke:#000000;stroke-width:1;stroke-linecap:square;stroke-linejoin:bevel">
    <g
       transform="translate(16,16)"
       font-size="8.25"
       font-weight="400"
       font-style="normal"
       id="g8"
       style="font-style:normal;font-weight:400;font-size:8.25px;font-family:'MS Shell Dlg 2';fill:none;stroke:#000000;stroke-width:1;stroke-linecap:square;stroke-linejoin:bevel;stroke-opacity:1" />
    <g
       transform="matrix(1.33333,0,0,1.33333,16,16)"
       font-size="8.25"
       font-weight="400"
       font-style="normal"
       id="g10"
       style="font-style:normal;font-weight:400;font-size:8.25px;font-family:'MS Shell Dlg 2';fill:none;stroke:#000000;stroke-width:1;stroke-linecap:square;stroke-linejoin:bevel;stroke-opacity:1" />
    <g
       transform="translate(1,25.375)"
       font-size="22.6771"
       font-weight="400"
       font-style="normal"
       id="g14"
       style="font-style:normal;font-weight:400;font-size:22.67709923px;font-family:icomoon;fill:#ffffff;fill-opacity:1;stroke:none">
      <path
         d="M 2.63672,-24.375 H 27.3633 c 0.7226,0 1.3428,0.2588 1.8603,0.7764 0.5176,0.5175 0.7764,1.1377 0.7764,1.8603 V 2.98828 C 30,3.71094 29.7412,4.33105 29.2236,4.84863 28.7061,5.36621 28.0859,5.625 27.3633,5.625 H 2.63672 C 1.91406,5.625 1.29395,5.36621 0.776367,4.84863 0.258789,4.33105 0,3.71094 0,2.98828 V -21.7383 c 0,-0.7226 0.258789,-1.3428 0.776367,-1.8603 0.517583,-0.5176 1.137693,-0.7764 1.860353,-0.7764"
         id="path12"
         inkscape:connector-curvature="0"
         style="vector-effect:none;fill-rule:nonzero" />
    </g>
    <g
       transform="matrix(1.33333,0,0,1.33333,16,16)"
       font-size="8.25"
       font-weight="400"
       font-style="normal"
       id="g16"
       style="font-style:normal;font-weight:400;font-size:8.25px;font-family:'MS Shell Dlg 2';fill:none;stroke:#000000;stroke-width:1;stroke-linecap:square;stroke-linejoin:bevel;stroke-opacity:1" />
    <g
       transform="translate(16,16)"
       font-size="8.25"
       font-weight="400"
       font-style="normal"
       id="g18"
       style="font-style:normal;font-weight:400;font-size:8.25px;font-family:'MS Shell Dlg 2';fill:none;stroke:#000000;stroke-width:1;stroke-linecap:square;stroke-linejoin:bevel;stroke-opacity:1" />
    <g
       font-size="8.25"
       font-weight="400"
       font-style="normal"
       id="g20"
       style="font-style:normal;font-weight:400;font-size:8.25px;font-family:'MS Shell Dlg 2';fill:none;stroke:#000000;stroke-width:1;stroke-linecap:square;stroke-linejoin:bevel;stroke-opacity:1" />
    <g
       transform="translate(16,16)"
       font-size="8.25"
       font-weight="400"
       font-style="normal"
       id="g22"
       style="font-style:normal;font-weight:400;font-size:8.25px;font-family:'MS Shell Dlg 2';fill:none;stroke:#000000;stroke-width:1;stroke-linecap:square;stroke-linejoin:bevel;stroke-opacity:1" />
    <g
       transform="matrix(1.33333,0,0,1.33333,16,16)"
       font-size="8.25"
       font-weight="400"
       font-style="normal"
       id="g24"
       style="font-style:normal;font-weight:400;font-size:8.25px;font-family:'MS Shell Dlg 2';fill:none;stroke:#000000;stroke-width:1;stroke-linecap:square;stroke-linejoin:bevel;stroke-opacity:1" />
    <g
       transform="translate(4.5,23.1875)"
       font-size="17.0078"
       font-weight="400"
       font-style="normal"
       id="g28"
       style="font-style:normal;font-weight:400;font-size:17.00779915px;font-family:icomoon;fill:#000000;fill-opacity:1;stroke:none">
      <path
         d="m 20.9785,-18.0137 c 0.3744,0 0.6926,0.1311 0.9546,0.3931 0.262,0.262 0.3931,0.5802 0.3931,0.9546 V 2.29102 c 0,0.37434 -0.1311,0.69254 -0.3931,0.95459 -0.262,0.26204 -0.5802,0.39306 -0.9546,0.39306 H 2.02148 C 1.64714,3.63867 1.32894,3.50765 1.06689,3.24561 0.80485,2.98356 0.673828,2.66536 0.673828,2.29102 V -16.666 c 0,-0.3744 0.131022,-0.6926 0.393062,-0.9546 0.26205,-0.262 0.58025,-0.3931 0.95459,-0.3931 H 20.9785 m 0,-0.6738 H 2.02148 c -0.55403,0 -1.029455,0.1984 -1.426265,0.5952 C 0.198405,-17.6955 0,-17.2201 0,-16.666 V 2.29102 C 0,2.84505 0.198405,3.32048 0.595215,3.71729 0.992025,4.1141 1.46745,4.3125 2.02148,4.3125 H 20.9785 c 0.5541,0 1.0295,-0.1984 1.4263,-0.59521 C 22.8016,3.32048 23,2.84505 23,2.29102 V -16.666 c 0,-0.5541 -0.1984,-1.0295 -0.5952,-1.4263 -0.3968,-0.3968 -0.8722,-0.5952 -1.4263,-0.5952 M 11.5,-16.8906 c -1.3477,0 -2.60547,0.2545 -3.77344,0.7636 -1.18294,0.5092 -2.2124,1.2017 -3.08838,2.0777 -0.87597,0.876 -1.56852,1.9054 -2.07763,3.0884 -0.50912,1.16793 -0.76367,2.42574 -0.76367,3.7734 0,1.34766 0.25455,2.60547 0.76367,3.77344 0.50911,1.18294 1.20166,2.2124 2.07763,3.088376 C 5.51416,0.550293 6.54362,1.24284 7.72656,1.75195 8.89453,2.26107 10.1523,2.51563 11.5,2.51563 c 1.3477,0 2.6055,-0.25456 3.7734,-0.76368 1.183,-0.50911 2.2124,-1.201657 3.0884,-2.077634 0.876,-0.875976 1.5685,-1.905436 2.0777,-3.088376 0.5091,-1.16797 0.7636,-2.42578 0.7636,-3.77344 0,-1.34766 -0.2545,-2.60547 -0.7636,-3.7734 -0.5092,-1.183 -1.2017,-2.2124 -2.0777,-3.0884 -0.876,-0.876 -1.9054,-1.5685 -3.0884,-2.0777 -1.1679,-0.5091 -2.4257,-0.7636 -3.7734,-0.7636 m 0,18.05857 C 10.347,1.16797 9.26139,0.950846 8.24316,0.516602 7.22493,0.0673828 6.34147,-0.531576 5.59277,-1.28027 4.84408,-2.02897 4.24512,-2.91243 3.7959,-3.93066 3.36165,-4.94889 3.14453,-6.03451 3.14453,-7.1875 c 0,-1.15299 0.21712,-2.23861 0.65137,-3.2568 0.44922,-1.0183 1.04818,-1.9017 1.79687,-2.6504 0.7487,-0.7487 1.63216,-1.3477 2.65039,-1.7969 1.01823,-0.4342 2.10384,-0.6514 3.25684,-0.6514 1.153,0 2.2386,0.2172 3.2568,0.6514 1.0183,0.4492 1.9017,1.0482 2.6504,1.7969 0.7487,0.7487 1.3477,1.6321 1.7969,2.6504 0.4342,1.01819 0.6514,2.10381 0.6514,3.2568 0,1.15299 -0.2172,2.23861 -0.6514,3.25684 -0.4492,1.00325 -1.0519,1.88297 -1.8081,2.63916 -0.7562,0.756181 -1.6359,1.3588828 -2.6392,1.808102 C 13.7386,0.950846 12.653,1.16797 11.5,1.16797 m 5.0762,-13.38677 c -0.2995,-0.3144 -0.6364,-0.5989 -1.0108,-0.8535 -0.3743,-0.2545 -0.7636,-0.4716 -1.1679,-0.6513 l -0.0674,-0.0225 h -0.0225 c -0.1048,-0.0449 -0.2059,-0.0861 -0.3032,-0.1235 -0.0973,-0.0375 -0.1909,-0.0712 -0.2808,-0.1011 h -0.0898 c -0.0899,-0.03 -0.1797,-0.0562 -0.2695,-0.0786 -0.0899,-0.0225 -0.1872,-0.0412 -0.292,-0.0562 h -0.1348 c -0.0749,-0.0149 -0.1572,-0.0299 -0.2471,-0.0449 -0.0898,-0.015 -0.1871,-0.0299 -0.292,-0.0449 H 12.376 12.2412 c -0.1198,0 -0.2433,-0.0075 -0.3706,-0.0225 -0.1273,-0.0149 -0.2508,-0.0224 -0.3706,-0.0224 0,0 -0.0037,0 -0.0112,0 -0.0075,0 -0.0113,0 -0.0113,0 -0.8535,0 -1.66207,0.1422 -2.42574,0.4267 -0.76367,0.2845 -1.45248,0.6739 -2.06641,1.168 -0.61393,0.4941 -1.13802,1.0781 -1.57226,1.7519 -0.41927,0.6888 -0.72624,1.43006 -0.9209,2.22368 V -8.625 c -0.04492,0.20964 -0.07862,0.43424 -0.10108,0.67383 -0.02246,0.23958 -0.03369,0.48665 -0.03369,0.74121 0,0.01497 0,0.02246 0,0.02246 0,0.11979 0,0.24333 0,0.37061 0,0.12727 0.00749,0.25081 0.02246,0.3706 0,0.01497 0,0.02621 0,0.03369 0,0.00749 0,0.01872 0,0.03369 0,0.01498 0,0.02621 0,0.0337 0,0.00748 0,0.01871 0,0.03369 0,0.08984 0.01123,0.18343 0.03369,0.28076 0.02247,0.09733 0.04118,0.19092 0.05616,0.28076 0,0.02995 0,0.05615 0,0.07861 0,0.02246 0,0.04118 0,0.05616 0.02994,0.08984 0.05615,0.18343 0.07861,0.28076 0.02246,0.09733 0.04867,0.19092 0.07861,0.28076 0,0 0,0.01123 0,0.03369 0,0.02246 0,0.03369 0,0.03369 0.02995,0.10482 0.06364,0.20589 0.10108,0.30322 0.03743,0.09734 0.07861,0.19841 0.12353,0.30323 v 0.02246 c 0.28451,0.61393 0.65137,1.17545 1.10059,1.68457 0.43424,0.50911 0.93213,0.94336 1.49365,1.30273 0.56152,0.35938 1.17171,0.643883 1.83057,0.853518 0.65885,0.194662 1.34013,0.291993 2.04393,0.291993 0.9883,0 1.9167,-0.187175 2.7852,-0.561524 0.8685,-0.374347 1.6284,-0.883467 2.2798,-1.527347 0.6513,-0.64388 1.1642,-1.40006 1.5385,-2.26855 0.3744,-0.86849 0.5616,-1.79688 0.5616,-2.78516 0,-0.94336 -0.1685,-1.82682 -0.5054,-2.65041 -0.3369,-0.8235 -0.8049,-1.5573 -1.4038,-2.2012 M 11.5,-1.72949 c -0.7487,0 -1.4525,-0.13851 -2.11133,-0.41553 -0.65885,-0.27702 -1.22786,-0.6626 -1.70703,-1.15674 l 7.70406,-7.70414 c 0.4942,0.4792 0.8798,1.04822 1.1568,1.70707 0.277,0.65886 0.4155,1.36263 0.4155,2.11133 0,0.7487 -0.1422,1.45996 -0.4267,2.13379 -0.2846,0.65885 -0.6739,1.23535 -1.168,1.72949 -0.4942,0.49414 -1.0707,0.88346 -1.7295,1.16797 -0.6738,0.28451 -1.3851,0.42676 -2.1338,0.42676"
         id="path26"
         inkscape:connector-curvature="0"
         style="vector-effect:none;fill-rule:nonzero" />
    </g>
    <g
       transform="matrix(1.33333,0,0,1.33333,16,16)"
       font-size="8.25"
       font-weight="400"
       font-style="normal"
       id="g30"
       style="font-style:normal;font-weight:400;font-size:8.25px;font-family:'MS Shell Dlg 2';fill:none;stroke:#000000;stroke-width:1;stroke-linecap:square;stroke-linejoin:bevel;stroke-opacity:1" />
    <g
       transform="translate(16,16)"
       font-size="8.25"
       font-weight="400"
       font-style="normal"
       id="g32"
       style="font-style:normal;font-weight:400;font-size:8.25px;font-family:'MS Shell Dlg 2';fill:none;stroke:#000000;stroke-width:1;stroke-linecap:square;stroke-linejoin:bevel;stroke-opacity:1" />
    <g
       font-size="8.25"
       font-weight="400"
       font-style="normal"
       id="g34"
       style="font-style:normal;font-weight:400;font-size:8.25px;font-family:'MS Shell Dlg 2';fill:none;stroke:#000000;stroke-width:1;stroke-linecap:square;stroke-linejoin:bevel;stroke-opacity:1" />
    <g
       transform="translate(16,16)"
       font-size="8.25"
       font-weight="400"
       font-style="normal"
       id="g36"
       style="font-style:normal;font-weight:400;font-size:8.25px;font-family:'MS Shell Dlg 2';fill:none;stroke:#000000;stroke-width:1;stroke-linecap:square;stroke-linejoin:bevel;stroke-opacity:1" />
    <g
       transform="matrix(1.33333,0,0,1.33333,16,16)"
       font-size="8.25"
       font-weight="400"
       font-style="normal"
       id="g38"
       style="font-style:normal;font-weight:400;font-size:8.25px;font-family:'MS Shell Dlg 2';fill:none;stroke:#000000;stroke-width:1;stroke-linecap:square;stroke-linejoin:bevel;stroke-opacity:1" />
    <g
       transform="translate(1,25.375)"
       font-size="22.6771"
       font-weight="400"
       font-style="normal"
       id="g42"
       style="font-style:normal;font-weight:400;font-size:22.67709923px;font-family:icomoon;fill:#000000;fill-opacity:1;stroke:none">
      <path
         d="m 26.4258,-22.2363 c 0.3906,0 0.7275,0.1416 1.0107,0.4248 0.2832,0.2832 0.4248,0.6201 0.4248,1.0107 V 2.05078 c 0,0.39063 -0.1416,0.72754 -0.4248,1.01074 -0.2832,0.28321 -0.6201,0.42481 -1.0107,0.42481 H 3.57422 C 3.18359,3.48633 2.84668,3.34473 2.56348,3.06152 2.28027,2.77832 2.13867,2.44141 2.13867,2.05078 V -20.8008 c 0,-0.3906 0.1416,-0.7275 0.42481,-1.0107 0.2832,-0.2832 0.62011,-0.4248 1.01074,-0.4248 H 26.4258 m 0,-0.7032 H 3.57422 c -0.58594,0 -1.08887,0.21 -1.50879,0.6299 -0.41992,0.42 -0.62988,0.9229 -0.62988,1.5088 V 2.05078 c 0,0.58594 0.20996,1.08887 0.62988,1.50879 0.41992,0.41992 0.92285,0.62988 1.50879,0.62988 H 26.4258 c 0.5859,0 1.0888,-0.20996 1.5088,-0.62988 0.4199,-0.41992 0.6299,-0.92285 0.6299,-1.50879 V -20.8008 c 0,-0.5859 -0.21,-1.0888 -0.6299,-1.5088 -0.42,-0.4199 -0.9229,-0.6299 -1.5088,-0.6299 m 1.4355,-0.7324 c 0.3907,0 0.7276,0.1416 1.0108,0.4248 0.2832,0.2832 0.4248,0.6201 0.4248,1.0108 V 3.48633 c 0,0.39062 -0.1416,0.72754 -0.4248,1.01074 -0.2832,0.2832 -0.6201,0.42481 -1.0108,0.42481 H 2.13867 C 1.74805,4.92188 1.41113,4.78027 1.12793,4.49707 0.844727,4.21387 0.703125,3.87695 0.703125,3.48633 V -22.2363 c 0,-0.3907 0.141602,-0.7276 0.424805,-1.0108 0.2832,-0.2832 0.62012,-0.4248 1.01074,-0.4248 H 27.8613 m 0,-0.7031 H 2.13867 c -0.58594,0 -1.08887,0.21 -1.508787,0.6299 C 0.209961,-23.3252 0,-22.8223 0,-22.2363 V 3.48633 C 0,4.07227 0.209961,4.5752 0.629883,4.99512 1.0498,5.41504 1.55273,5.625 2.13867,5.625 H 27.8613 c 0.586,0 1.0889,-0.20996 1.5088,-0.62988 C 29.79,4.5752 30,4.07227 30,3.48633 V -22.2363 c 0,-0.586 -0.21,-1.0889 -0.6299,-1.5088 -0.4199,-0.4199 -0.9228,-0.6299 -1.5088,-0.6299"
         id="path40"
         inkscape:connector-curvature="0"
         style="vector-effect:none;fill-rule:nonzero" />
    </g>
    <g
       transform="matrix(1.33333,0,0,1.33333,16,16)"
       font-size="8.25"
       font-weight="400"
       font-style="normal"
       id="g44"
       style="font-style:normal;font-weight:400;font-size:8.25px;font-family:'MS Shell Dlg 2';fill:none;stroke:#000000;stroke-width:1;stroke-linecap:square;stroke-linejoin:bevel;stroke-opacity:1" />
    <g
       transform="translate(16,16)"
       font-size="8.25"
       font-weight="400"
       font-style="normal"
       id="g46"
       style="font-style:normal;font-weight:400;font-size:8.25px;font-family:'MS Shell Dlg 2';fill:none;stroke:#000000;stroke-width:1;stroke-linecap:square;stroke-linejoin:bevel;stroke-opacity:1" />
    <g
       font-size="8.25"
       font-weight="400"
       font-style="normal"
       id="g48"
       style="font-style:normal;font-weight:400;font-size:8.25px;font-family:'MS Shell Dlg 2';fill:none;stroke:#000000;stroke-width:1;stroke-linecap:square;stroke-linejoin:bevel;stroke-opacity:1" />
    <g
       transform="translate(16,16)"
       font-size="8.25"
       font-weight="400"
       font-style="normal"
       id="g50"
       style="font-style:normal;font-weight:400;font-size:8.25px;font-family:'MS Shell Dlg 2';fill:none;stroke:#000000;stroke-width:1;stroke-linecap:square;stroke-linejoin:bevel;stroke-opacity:1" />
    <g
       transform="matrix(1.33333,0,0,1.33333,16,16)"
       font-size="8.25"
       font-weight="400"
       font-style="normal"
       id="g52"
       style="font-style:normal;font-weight:400;font-size:8.25px;font-family:'MS Shell Dlg 2';fill:none;stroke:#000000;stroke-width:1;stroke-linecap:square;stroke-linejoin:bevel;stroke-opacity:1" />
    <g
       transform="translate(1.5,25.0625)"
       font-size="21.5433"
       font-weight="400"
       font-style="normal"
       id="g56"
       style="font-style:normal;font-weight:400;font-size:21.54330063px;font-family:icomoon;fill:#ff0000;fill-opacity:1;stroke:none">
      <path
         d="M 0.90625,5.4375 C 0.774089,5.4375 0.656087,5.4139 0.552246,5.3667 0.448405,5.3195 0.349284,5.25814 0.254883,5.18262 0.179362,5.08822 0.118001,4.9891 0.0708008,4.88525 0.0236003,4.78141 0,4.66341 0,4.53125 0,4.39909 0.0236003,4.28109 0.0708008,4.17725 0.118001,4.0734 0.179362,3.97428 0.254883,3.87988 L 27.4424,-23.3076 c 0.0944,-0.0755 0.1935,-0.1369 0.2973,-0.1841 0.1039,-0.0472 0.2219,-0.0708 0.3541,-0.0708 0.2454,0 0.4578,0.0897 0.6372,0.269 0.1793,0.1794 0.269,0.3918 0.269,0.6372 0,0.1322 -0.0236,0.2502 -0.0708,0.3541 -0.0472,0.1038 -0.1086,0.2029 -0.1841,0.2973 L 1.55762,5.18262 C 1.46322,5.25814 1.3641,5.3195 1.26025,5.3667 1.15641,5.4139 1.03841,5.4375 0.90625,5.4375"
         id="path54"
         inkscape:connector-curvature="0"
         style="vector-effect:none;fill-rule:nonzero" />
    </g>
    <g
       transform="matrix(1.33333,0,0,1.33333,16,16)"
       font-size="8.25"
       font-weight="400"
       font-style="normal"
       id="g58"
       style="font-style:normal;font-weight:400;font-size:8.25px;font-family:'MS Shell Dlg 2';fill:none;stroke:#000000;stroke-width:1;stroke-linecap:square;stroke-linejoin:bevel;stroke-opacity:1" />
    <g
       transform="translate(16,16)"
       font-size="8.25"
       font-weight="400"
       font-style="normal"
       id="g60"
       style="font-style:normal;font-weight:400;font-size:8.25px;font-family:'MS Shell Dlg 2';fill:none;stroke:#000000;stroke-width:1;stroke-linecap:square;stroke-linejoin:bevel;stroke-opacity:1" />
    <g
       font-size="8.25"
       font-weight="400"
       font-style="normal"
       id="g62"
       style="font-style:normal;font-weight:400;font-size:8.25px;font-family:'MS Shell Dlg 2';fill:none;stroke:#000000;stroke-width:1;stroke-linecap:square;stroke-linejoin:bevel;stroke-opacity:1" />
  </g>
</svg>
