<?xml version="1.0" encoding="UTF-8" standalone="no"?>
<svg
   xmlns:dc="http://purl.org/dc/elements/1.1/"
   xmlns:cc="http://creativecommons.org/ns#"
   xmlns:rdf="http://www.w3.org/1999/02/22-rdf-syntax-ns#"
   xmlns:svg="http://www.w3.org/2000/svg"
   xmlns="http://www.w3.org/2000/svg"
   xmlns:sodipodi="http://sodipodi.sourceforge.net/DTD/sodipodi-0.dtd"
   xmlns:inkscape="http://www.inkscape.org/namespaces/inkscape"
   width="20"
   height="20"
   viewBox="0 0 20 20"
   version="1.2"
   id="svg52"
   sodipodi:docname="60204050932.svg"
   inkscape:version="0.92.4 (5da689c313, 2019-01-14)">
  <metadata
     id="metadata56">
    <rdf:RDF>
      <cc:Work
         rdf:about="">
        <dc:format>image/svg+xml</dc:format>
        <dc:type
           rdf:resource="http://purl.org/dc/dcmitype/StillImage" />
      </cc:Work>
    </rdf:RDF>
  </metadata>
  <sodipodi:namedview
     pagecolor="#ffffff"
     bordercolor="#666666"
     borderopacity="1"
     objecttolerance="10"
     gridtolerance="10"
     guidetolerance="10"
     inkscape:pageopacity="0"
     inkscape:pageshadow="2"
     inkscape:window-width="1920"
     inkscape:window-height="1017"
     id="namedview54"
     showgrid="false"
     inkscape:zoom="11.8"
     inkscape:cx="10"
     inkscape:cy="10"
     inkscape:window-x="-8"
     inkscape:window-y="-8"
     inkscape:window-maximized="1"
     inkscape:current-layer="svg52" />
  <title
     id="title2">Qt SVG Document</title>
  <desc
     id="desc4">Generated with Qt</desc>
  <defs
     id="defs6" />
  <path
     d="M 3.8183565,2.5 H 16.18163 c 0.36137,0 0.671413,0.1293913 0.930196,0.3881739 C 17.370609,3.1469565 17.5,3.457 17.5,3.8183696 V 16.181643 c 0,0.361324 -0.129391,0.671387 -0.388174,0.930177 C 16.853043,17.370609 16.543,17.5 16.18163,17.5 H 3.8183565 C 3.4570326,17.5 3.1469728,17.370609 2.8881837,17.11182 2.6293946,16.85303 2.5,16.542967 2.5,16.181643 V 3.8183696 C 2.5,3.457 2.6293946,3.1469565 2.8881837,2.8881739 3.1469728,2.6293913 3.4570326,2.5 3.8183565,2.5"
     id="path12-5"
     inkscape:connector-curvature="0"
     style="font-style:normal;font-weight:400;font-size:17.00779915px;font-family:icomoon;vector-effect:none;fill:#ff0000;fill-opacity:1;fill-rule:nonzero;stroke:none;stroke-width:0.65217394;stroke-linecap:square;stroke-linejoin:bevel" />
  <g
     style="font-style:normal;font-weight:400;font-size:8.25px;font-family:'MS Shell Dlg 2';fill:none;fill-rule:evenodd;stroke:#000000;stroke-width:1;stroke-linecap:square;stroke-linejoin:bevel;stroke-opacity:1"
     id="g8"
     font-style="normal"
     font-weight="400"
     font-size="8.25"
     transform="translate(16,16)" />
  <g
     style="font-style:normal;font-weight:400;font-size:8.25px;font-family:'MS Shell Dlg 2';fill:none;fill-rule:evenodd;stroke:#000000;stroke-width:1;stroke-linecap:square;stroke-linejoin:bevel;stroke-opacity:1"
     id="g10"
     font-style="normal"
     font-weight="400"
     font-size="8.25"
     transform="matrix(1.33333,0,0,1.33333,16,16)" />
  <g
     style="font-style:normal;font-weight:400;font-size:8.25px;font-family:'MS Shell Dlg 2';fill:none;fill-rule:evenodd;stroke:#000000;stroke-width:1;stroke-linecap:square;stroke-linejoin:bevel;stroke-opacity:1"
     id="g16"
     font-style="normal"
     font-weight="400"
     font-size="8.25"
     transform="matrix(1.33333,0,0,1.33333,16,16)" />
  <g
     style="font-style:normal;font-weight:400;font-size:8.25px;font-family:'MS Shell Dlg 2';fill:none;fill-rule:evenodd;stroke:#000000;stroke-width:1;stroke-linecap:square;stroke-linejoin:bevel;stroke-opacity:1"
     id="g18"
     font-style="normal"
     font-weight="400"
     font-size="8.25"
     transform="translate(16,16)" />
  <g
     style="font-style:normal;font-weight:400;font-size:8.25px;font-family:'MS Shell Dlg 2';fill:none;fill-rule:evenodd;stroke:#000000;stroke-width:1;stroke-linecap:square;stroke-linejoin:bevel;stroke-opacity:1"
     id="g20"
     font-style="normal"
     font-weight="400"
     font-size="8.25" />
  <g
     style="font-style:normal;font-weight:400;font-size:8.25px;font-family:'MS Shell Dlg 2';fill:none;fill-rule:evenodd;stroke:#000000;stroke-width:1;stroke-linecap:square;stroke-linejoin:bevel;stroke-opacity:1"
     id="g22"
     font-style="normal"
     font-weight="400"
     font-size="8.25"
     transform="translate(16,16)" />
  <g
     style="font-style:normal;font-weight:400;font-size:8.25px;font-family:'MS Shell Dlg 2';fill:none;fill-rule:evenodd;stroke:#000000;stroke-width:1;stroke-linecap:square;stroke-linejoin:bevel;stroke-opacity:1"
     id="g24"
     font-style="normal"
     font-weight="400"
     font-size="8.25"
     transform="matrix(1.33333,0,0,1.33333,16,16)" />
  <g
     style="font-style:normal;font-weight:400;font-size:17.00779915px;font-family:icomoon;fill:#000000;fill-opacity:1;fill-rule:evenodd;stroke:none;stroke-width:1;stroke-linecap:square;stroke-linejoin:bevel"
     id="g28"
     font-style="normal"
     font-weight="400"
     font-size="17.0078"
     transform="matrix(0.65217391,0,0,0.65217391,2.5,14.6875)">
    <path
       style="vector-effect:none;fill-rule:nonzero"
       inkscape:connector-curvature="0"
       id="path26"
       d="m 20.9785,-18.0137 c 0.3744,0 0.6926,0.1311 0.9546,0.3931 0.262,0.262 0.3931,0.5802 0.3931,0.9546 V 2.29102 c 0,0.37434 -0.1311,0.69254 -0.3931,0.95459 -0.262,0.26204 -0.5802,0.39306 -0.9546,0.39306 H 2.02148 C 1.64714,3.63867 1.32894,3.50765 1.06689,3.24561 0.80485,2.98356 0.673828,2.66536 0.673828,2.29102 V -16.666 c 0,-0.3744 0.131022,-0.6926 0.393062,-0.9546 0.26205,-0.262 0.58025,-0.3931 0.95459,-0.3931 H 20.9785 m 0,-0.6738 H 2.02148 c -0.55403,0 -1.029455,0.1984 -1.426265,0.5952 C 0.198405,-17.6955 0,-17.2201 0,-16.666 V 2.29102 C 0,2.84505 0.198405,3.32048 0.595215,3.71729 0.992025,4.1141 1.46745,4.3125 2.02148,4.3125 H 20.9785 c 0.5541,0 1.0295,-0.1984 1.4263,-0.59521 C 22.8016,3.32048 23,2.84505 23,2.29102 V -16.666 c 0,-0.5541 -0.1984,-1.0295 -0.5952,-1.4263 -0.3968,-0.3968 -0.8722,-0.5952 -1.4263,-0.5952 m -2.5381,15.43066 c 0.3594,-0.35937 0.6514,-0.77864 0.876,-1.25781 0.2246,-0.47917 0.3594,-0.98828 0.4043,-1.52734 v -0.02246 h 1.2578 v -0.67383 h -1.2353 c -0.0599,-0.7487 -0.2696,-1.43376 -0.6289,-2.05518 -0.3594,-0.62142 -0.8236,-1.13427 -1.3926,-1.53854 l -0.0225,-0.0225 v -2.2461 h -6.4463 v 2.291 c -0.3144,0.2246 -0.5952,0.48294 -0.8423,0.77493 -0.247,0.29199 -0.4604,0.6027 -0.64009,0.93213 L 9.74805,-8.55762 9.47852,-8.66992 H 8.1084 v -4.98638 h 6.7832 v 1.0557 h 0.6738 v -1.7295 H 7.43457 v 5.66018 H 4.58203 v 1.72949 c -0.37435,0.31445 -0.68131,0.6888 -0.9209,1.12305 -0.23958,0.43424 -0.38183,0.90592 -0.42675,1.41504 H 2.69531 v 0.69629 h 0.53907 c 0.07486,0.53906 0.25455,1.03694 0.53906,1.49365 0.2845,0.4567 0.65136,0.82731 1.10058,1.11181 H 2.02148 v 0.673832 H 20.9785 V -1.10059 h -1.7519 l -0.7862,-2.15625 m -6.7832,-6.55859 0.2696,-0.20217 v -1.9092 h 5.1211 v 1.95414 l 0.2695,0.20215 c 0.5241,0.37435 0.9471,0.84977 1.269,1.42627 0.322,0.5765 0.4829,1.20915 0.4829,1.89795 -0.0449,1.18294 -0.4941,2.1862 -1.3476,3.00977 -0.8535,0.82356 -1.8793,1.23535 -3.0772,1.23535 -0.0299,0 -0.0561,0 -0.0786,0 -0.0224,0 -0.0486,0 -0.0786,0 -0.0299,0 -0.0561,0 -0.0786,0 -0.0225,0 -0.0487,0 -0.0786,0 -1.1979,0 -2.2237,-0.41179 -3.0772,-1.23535 -0.8535,-0.82357 -1.3027,-1.81934 -1.34763,-2.98731 v -0.02246 c 0,-0.6888 0.15723,-1.32519 0.47173,-1.90918 0.3144,-0.58398 0.7337,-1.06315 1.2578,-1.4375 l 0.0224,-0.02246 m -7.77146,5.70508 c 0,-0.49414 0.11231,-0.95085 0.33692,-1.37012 0.22461,-0.41927 0.52408,-0.76367 0.89843,-1.0332 h 0.02246 l 0.13477,-0.08985 v -1.39257 h 4.04297 l 0.15723,0.02246 c -0.0599,0.17968 -0.11231,0.37435 -0.15723,0.58398 -0.04492,0.20964 -0.07487,0.41927 -0.08984,0.62891 v 0.02246 H 7.99609 v 0.67383 h 1.25782 c 0.04492,0.55403 0.17968,1.07063 0.40429,1.5498 0.22461,0.47917 0.5166,0.89844 0.876,1.25781 l -0.3369,0.94336 -0.0674,0.06739 C 9.74056,-1.91667 9.30632,-1.65088 8.82715,-1.44873 8.34798,-1.24658 7.83887,-1.13053 7.2998,-1.10059 H 7.27734 7.0752 c -0.01498,0 -0.02247,0 -0.02247,0 0,0 -0.00748,0 -0.02246,0 -0.83854,0 -1.56478,-0.29199 -2.17871,-0.87597 C 4.23763,-2.56055 3.91569,-3.27181 3.88574,-4.11035" />
  </g>
  <g
     style="font-style:normal;font-weight:400;font-size:8.25px;font-family:'MS Shell Dlg 2';fill:none;fill-rule:evenodd;stroke:#000000;stroke-width:1;stroke-linecap:square;stroke-linejoin:bevel;stroke-opacity:1"
     id="g30"
     font-style="normal"
     font-weight="400"
     font-size="8.25"
     transform="matrix(1.33333,0,0,1.33333,16,16)" />
  <g
     style="font-style:normal;font-weight:400;font-size:8.25px;font-family:'MS Shell Dlg 2';fill:none;fill-rule:evenodd;stroke:#000000;stroke-width:1;stroke-linecap:square;stroke-linejoin:bevel;stroke-opacity:1"
     id="g32"
     font-style="normal"
     font-weight="400"
     font-size="8.25"
     transform="translate(16,16)" />
  <g
     style="font-style:normal;font-weight:400;font-size:8.25px;font-family:'MS Shell Dlg 2';fill:none;fill-rule:evenodd;stroke:#000000;stroke-width:1;stroke-linecap:square;stroke-linejoin:bevel;stroke-opacity:1"
     id="g34"
     font-style="normal"
     font-weight="400"
     font-size="8.25" />
  <g
     style="font-style:normal;font-weight:400;font-size:8.25px;font-family:'MS Shell Dlg 2';fill:none;fill-rule:evenodd;stroke:#000000;stroke-width:1;stroke-linecap:square;stroke-linejoin:bevel;stroke-opacity:1"
     id="g36"
     font-style="normal"
     font-weight="400"
     font-size="8.25"
     transform="translate(16,16)" />
  <g
     style="font-style:normal;font-weight:400;font-size:8.25px;font-family:'MS Shell Dlg 2';fill:none;fill-rule:evenodd;stroke:#000000;stroke-width:1;stroke-linecap:square;stroke-linejoin:bevel;stroke-opacity:1"
     id="g38"
     font-style="normal"
     font-weight="400"
     font-size="8.25"
     transform="matrix(1.33333,0,0,1.33333,16,16)" />
  <g
     style="font-style:normal;font-weight:400;font-size:8.25px;font-family:'MS Shell Dlg 2';fill:none;fill-rule:evenodd;stroke:#000000;stroke-width:1;stroke-linecap:square;stroke-linejoin:bevel;stroke-opacity:1"
     id="g44"
     font-style="normal"
     font-weight="400"
     font-size="8.25"
     transform="matrix(1.33333,0,0,1.33333,16,16)" />
  <g
     style="font-style:normal;font-weight:400;font-size:8.25px;font-family:'MS Shell Dlg 2';fill:none;fill-rule:evenodd;stroke:#000000;stroke-width:1;stroke-linecap:square;stroke-linejoin:bevel;stroke-opacity:1"
     id="g46"
     font-style="normal"
     font-weight="400"
     font-size="8.25"
     transform="translate(16,16)" />
  <g
     style="font-style:normal;font-weight:400;font-size:8.25px;font-family:'MS Shell Dlg 2';fill:none;fill-rule:evenodd;stroke:#000000;stroke-width:1;stroke-linecap:square;stroke-linejoin:bevel;stroke-opacity:1"
     id="g48"
     font-style="normal"
     font-weight="400"
     font-size="8.25" />
</svg>
