<?xml version="1.0" encoding="UTF-8" standalone="no"?>
<svg
   xmlns:dc="http://purl.org/dc/elements/1.1/"
   xmlns:cc="http://creativecommons.org/ns#"
   xmlns:rdf="http://www.w3.org/1999/02/22-rdf-syntax-ns#"
   xmlns:svg="http://www.w3.org/2000/svg"
   xmlns="http://www.w3.org/2000/svg"
   xmlns:sodipodi="http://sodipodi.sourceforge.net/DTD/sodipodi-0.dtd"
   xmlns:inkscape="http://www.inkscape.org/namespaces/inkscape"
   width="20"
   height="20"
   viewBox="0 0 20 20"
   version="1.2"
   id="svg38"
   sodipodi:docname="60204051133.svg"
   inkscape:version="0.92.4 (5da689c313, 2019-01-14)">
  <metadata
     id="metadata42">
    <rdf:RDF>
      <cc:Work
         rdf:about="">
        <dc:format>image/svg+xml</dc:format>
        <dc:type
           rdf:resource="http://purl.org/dc/dcmitype/StillImage" />
      </cc:Work>
    </rdf:RDF>
  </metadata>
  <sodipodi:namedview
     pagecolor="#ffffff"
     bordercolor="#666666"
     borderopacity="1"
     objecttolerance="10"
     gridtolerance="10"
     guidetolerance="10"
     inkscape:pageopacity="0"
     inkscape:pageshadow="2"
     inkscape:window-width="1920"
     inkscape:window-height="1017"
     id="namedview40"
     showgrid="false"
     inkscape:zoom="11.8"
     inkscape:cx="10"
     inkscape:cy="10"
     inkscape:window-x="-8"
     inkscape:window-y="-8"
     inkscape:window-maximized="1"
     inkscape:current-layer="svg38" />
  <title
     id="title2">Qt SVG Document</title>
  <desc
     id="desc4">Generated with Qt</desc>
  <defs
     id="defs6" />
  <g
     id="g36"
     transform="matrix(0.65217391,0,0,0.65217391,-0.43478256,-0.43478256)"
     style="fill:none;fill-rule:evenodd;stroke:#000000;stroke-width:1;stroke-linecap:square;stroke-linejoin:bevel">
    <g
       transform="translate(16,16)"
       font-size="8.25"
       font-weight="400"
       font-style="normal"
       id="g8"
       style="font-style:normal;font-weight:400;font-size:8.25px;font-family:'MS Shell Dlg 2';fill:none;stroke:#000000;stroke-width:1;stroke-linecap:square;stroke-linejoin:bevel;stroke-opacity:1" />
    <g
       transform="matrix(1.33333,0,0,1.33333,16,16)"
       font-size="8.25"
       font-weight="400"
       font-style="normal"
       id="g10"
       style="font-style:normal;font-weight:400;font-size:8.25px;font-family:'MS Shell Dlg 2';fill:none;stroke:#000000;stroke-width:1;stroke-linecap:square;stroke-linejoin:bevel;stroke-opacity:1" />
    <g
       transform="translate(4.5,23.1875)"
       font-size="17.0078"
       font-weight="400"
       font-style="normal"
       id="g14"
       style="font-style:normal;font-weight:400;font-size:17.00779915px;font-family:icomoon;fill:#ffff00;fill-opacity:1;stroke:none">
      <path
         d="M 2.02148,-18.6875 H 20.9785 c 0.5541,0 1.0295,0.1984 1.4263,0.5952 C 22.8016,-17.6955 23,-17.2201 23,-16.666 V 2.29102 C 23,2.84505 22.8016,3.32048 22.4048,3.71729 22.008,4.1141 21.5326,4.3125 20.9785,4.3125 H 2.02148 C 1.46745,4.3125 0.992025,4.1141 0.595215,3.71729 0.198405,3.32048 0,2.84505 0,2.29102 V -16.666 c 0,-0.5541 0.198405,-1.0295 0.595215,-1.4263 0.39681,-0.3968 0.872235,-0.5952 1.426265,-0.5952"
         id="path12"
         inkscape:connector-curvature="0"
         style="vector-effect:none;fill-rule:nonzero" />
    </g>
    <g
       transform="matrix(1.33333,0,0,1.33333,16,16)"
       font-size="8.25"
       font-weight="400"
       font-style="normal"
       id="g16"
       style="font-style:normal;font-weight:400;font-size:8.25px;font-family:'MS Shell Dlg 2';fill:none;stroke:#000000;stroke-width:1;stroke-linecap:square;stroke-linejoin:bevel;stroke-opacity:1" />
    <g
       transform="translate(16,16)"
       font-size="8.25"
       font-weight="400"
       font-style="normal"
       id="g18"
       style="font-style:normal;font-weight:400;font-size:8.25px;font-family:'MS Shell Dlg 2';fill:none;stroke:#000000;stroke-width:1;stroke-linecap:square;stroke-linejoin:bevel;stroke-opacity:1" />
    <g
       font-size="8.25"
       font-weight="400"
       font-style="normal"
       id="g20"
       style="font-style:normal;font-weight:400;font-size:8.25px;font-family:'MS Shell Dlg 2';fill:none;stroke:#000000;stroke-width:1;stroke-linecap:square;stroke-linejoin:bevel;stroke-opacity:1" />
    <g
       transform="translate(16,16)"
       font-size="8.25"
       font-weight="400"
       font-style="normal"
       id="g22"
       style="font-style:normal;font-weight:400;font-size:8.25px;font-family:'MS Shell Dlg 2';fill:none;stroke:#000000;stroke-width:1;stroke-linecap:square;stroke-linejoin:bevel;stroke-opacity:1" />
    <g
       transform="matrix(1.33333,0,0,1.33333,16,16)"
       font-size="8.25"
       font-weight="400"
       font-style="normal"
       id="g24"
       style="font-style:normal;font-weight:400;font-size:8.25px;font-family:'MS Shell Dlg 2';fill:none;stroke:#000000;stroke-width:1;stroke-linecap:square;stroke-linejoin:bevel;stroke-opacity:1" />
    <g
       transform="translate(4.5,23.1875)"
       font-size="17.0078"
       font-weight="400"
       font-style="normal"
       id="g28"
       style="font-style:normal;font-weight:400;font-size:17.00779915px;font-family:icomoon;fill:#000000;fill-opacity:1;stroke:none">
      <path
         d="m 20.9785,-18.0137 c 0.3744,0 0.6926,0.1311 0.9546,0.3931 0.262,0.262 0.3931,0.5802 0.3931,0.9546 V 2.29102 c 0,0.37434 -0.1311,0.69254 -0.3931,0.95459 -0.262,0.26204 -0.5802,0.39306 -0.9546,0.39306 H 2.02148 C 1.64714,3.63867 1.32894,3.50765 1.06689,3.24561 0.80485,2.98356 0.673828,2.66536 0.673828,2.29102 V -16.666 c 0,-0.3744 0.131022,-0.6926 0.393062,-0.9546 0.26205,-0.262 0.58025,-0.3931 0.95459,-0.3931 H 20.9785 m 0,-0.6738 H 2.02148 c -0.55403,0 -1.029455,0.1984 -1.426265,0.5952 C 0.198405,-17.6955 0,-17.2201 0,-16.666 V 2.29102 C 0,2.84505 0.198405,3.32048 0.595215,3.71729 0.992025,4.1141 1.46745,4.3125 2.02148,4.3125 H 20.9785 c 0.5541,0 1.0295,-0.1984 1.4263,-0.59521 C 22.8016,3.32048 23,2.84505 23,2.29102 V -16.666 c 0,-0.5541 -0.1984,-1.0295 -0.5952,-1.4263 -0.3968,-0.3968 -0.8722,-0.5952 -1.4263,-0.5952 m -4.9189,3.1895 c -0.1048,-0.0599 -0.2209,-0.1198 -0.3482,-0.1797 -0.1273,-0.0599 -0.2583,-0.1198 -0.393,-0.1797 l -0.0674,-0.0225 h -0.0449 c -0.1198,-0.0599 -0.2434,-0.1123 -0.3707,-0.1572 -0.1272,-0.0449 -0.2583,-0.0899 -0.393,-0.1348 h -0.1123 c -0.1198,-0.0299 -0.2433,-0.0636 -0.3706,-0.101 -0.1273,-0.0375 -0.2508,-0.0712 -0.3706,-0.1011 l -0.1573,-0.0449 c -0.1048,-0.015 -0.2208,-0.0337 -0.3481,-0.0562 -0.1273,-0.0225 -0.2583,-0.0412 -0.3931,-0.0562 H 12.668 l -0.1797,-0.0224 c -0.1498,-0.0599 -0.3107,-0.0936 -0.4829,-0.1011 -0.1722,-0.0075 -0.3407,-0.0112 -0.5054,-0.0112 -1.3027,0 -2.5306,0.2471 -3.68359,0.7412 -1.153,0.5091 -2.15625,1.1904 -3.00977,2.0439 -0.85351,0.8536 -1.53483,1.8568 -2.04394,3.0098 -0.49415,1.153 -0.74122,2.38087 -0.74122,3.6836 0,0.16471 0.00375,0.32943 0.01123,0.49414 0.00749,0.16471 0.01872,0.32194 0.0337,0.47168 0,0.02995 0.00374,0.06364 0.01123,0.10107 0.00748,0.03744 0.01871,0.07113 0.03369,0.10108 0.01497,0.14974 0.03369,0.28825 0.05615,0.41553 0.02246,0.12727 0.04118,0.2583 0.05615,0.39306 v -0.04492 l 0.04492,0.15723 c 0.02995,0.11979 0.0599,0.24332 0.08985,0.3706 0.02995,0.12728 0.06738,0.25082 0.1123,0.37061 0,0.01497 0,0.0262 0,0.03369 0,0.00749 0,0.01123 0,0.01123 0,0.01497 0,0.0262 0,0.03369 0,0.00749 0,0.01872 0,0.03369 0.04493,0.13477 0.08985,0.26579 0.13477,0.39307 0.04492,0.12728 0.09733,0.25081 0.15723,0.3706 v 0.04493 c 0.37434,0.83854 0.85351,1.6097 1.4375,2.31347 0.58398,0.688805 1.25032,1.28402 1.99902,1.785648 C 6.94792,1.16423 7.764,1.5498 8.64746,1.81934 c 0.88346,0.2845 1.81184,0.42675 2.78514,0.42675 1.3028,0 2.5306,-0.24707 3.6836,-0.74121 1.153,-0.49414 2.1563,-1.171709 3.0098,-2.032712 0.8535,-0.860998 1.5273,-1.867998 2.0215,-3.020998 0.5091,-1.15299 0.7636,-2.38086 0.7636,-3.68359 0,-0.88347 -0.1198,-1.72949 -0.3593,-2.53809 -0.2247,-0.82359 -0.5503,-1.58719 -0.9771,-2.29099 -0.4268,-0.7038 -0.9321,-1.3477 -1.5161,-1.9317 -0.584,-0.5839 -1.2354,-1.0781 -1.9541,-1.4824 L 16.0596,-15.498 M 11.5,0.24707 c -1.0182,0 -1.97656,-0.1909177 -2.875,-0.572754 C 7.72656,-0.70752 6.94792,-1.22786 6.28906,-1.88672 L 16.8008,-12.3984 c 0.6588,0.6738 1.1792,1.4562 1.561,2.3471 0.3819,0.89098 0.5728,1.84557 0.5728,2.8638 0,1.0332 -0.1947,1.99902 -0.584,2.89746 -0.3893,0.89844 -0.9209,1.68457 -1.5947,2.3584 -0.6739,0.67383 -1.46,1.205403 -2.3584,1.594726 C 13.499,0.0524089 12.5332,0.24707 11.5,0.24707"
         id="path26"
         inkscape:connector-curvature="0"
         style="vector-effect:none;fill-rule:nonzero" />
    </g>
    <g
       transform="matrix(1.33333,0,0,1.33333,16,16)"
       font-size="8.25"
       font-weight="400"
       font-style="normal"
       id="g30"
       style="font-style:normal;font-weight:400;font-size:8.25px;font-family:'MS Shell Dlg 2';fill:none;stroke:#000000;stroke-width:1;stroke-linecap:square;stroke-linejoin:bevel;stroke-opacity:1" />
    <g
       transform="translate(16,16)"
       font-size="8.25"
       font-weight="400"
       font-style="normal"
       id="g32"
       style="font-style:normal;font-weight:400;font-size:8.25px;font-family:'MS Shell Dlg 2';fill:none;stroke:#000000;stroke-width:1;stroke-linecap:square;stroke-linejoin:bevel;stroke-opacity:1" />
    <g
       font-size="8.25"
       font-weight="400"
       font-style="normal"
       id="g34"
       style="font-style:normal;font-weight:400;font-size:8.25px;font-family:'MS Shell Dlg 2';fill:none;stroke:#000000;stroke-width:1;stroke-linecap:square;stroke-linejoin:bevel;stroke-opacity:1" />
  </g>
</svg>
