<?xml version="1.0" encoding="UTF-8" standalone="no"?>
<svg
   xmlns:dc="http://purl.org/dc/elements/1.1/"
   xmlns:cc="http://creativecommons.org/ns#"
   xmlns:rdf="http://www.w3.org/1999/02/22-rdf-syntax-ns#"
   xmlns:svg="http://www.w3.org/2000/svg"
   xmlns="http://www.w3.org/2000/svg"
   xmlns:sodipodi="http://sodipodi.sourceforge.net/DTD/sodipodi-0.dtd"
   xmlns:inkscape="http://www.inkscape.org/namespaces/inkscape"
   width="20"
   height="20"
   viewBox="0 0 20 20"
   version="1.2"
   id="svg52"
   sodipodi:docname="60204051011.svg"
   inkscape:version="0.92.4 (5da689c313, 2019-01-14)">
  <metadata
     id="metadata56">
    <rdf:RDF>
      <cc:Work
         rdf:about="">
        <dc:format>image/svg+xml</dc:format>
        <dc:type
           rdf:resource="http://purl.org/dc/dcmitype/StillImage" />
      </cc:Work>
    </rdf:RDF>
  </metadata>
  <sodipodi:namedview
     pagecolor="#ffffff"
     bordercolor="#666666"
     borderopacity="1"
     objecttolerance="10"
     gridtolerance="10"
     guidetolerance="10"
     inkscape:pageopacity="0"
     inkscape:pageshadow="2"
     inkscape:window-width="1920"
     inkscape:window-height="1017"
     id="namedview54"
     showgrid="false"
     inkscape:zoom="11.8"
     inkscape:cx="-5.2542373"
     inkscape:cy="10"
     inkscape:window-x="-8"
     inkscape:window-y="-8"
     inkscape:window-maximized="1"
     inkscape:current-layer="svg52" />
  <title
     id="title2">Qt SVG Document</title>
  <desc
     id="desc4">Generated with Qt</desc>
  <defs
     id="defs6" />
  <g
     style="font-style:normal;font-weight:400;font-size:8.25px;font-family:'MS Shell Dlg 2';fill:none;fill-rule:evenodd;stroke:#000000;stroke-width:1;stroke-linecap:square;stroke-linejoin:bevel;stroke-opacity:1"
     id="g8"
     font-style="normal"
     font-weight="400"
     font-size="8.25"
     transform="matrix(0.66666667,0,0,0.66666667,10,10)" />
  <g
     style="font-style:normal;font-weight:400;font-size:8.25px;font-family:'MS Shell Dlg 2';fill:none;fill-rule:evenodd;stroke:#000000;stroke-width:1;stroke-linecap:square;stroke-linejoin:bevel;stroke-opacity:1"
     id="g10"
     font-style="normal"
     font-weight="400"
     font-size="8.25"
     transform="matrix(0.88888667,0,0,0.88888667,10,10)" />
  <g
     style="font-style:normal;font-weight:400;font-size:22.67709923px;font-family:icomoon;fill:#ffffff;fill-opacity:1;fill-rule:evenodd;stroke:none;stroke-width:1;stroke-linecap:square;stroke-linejoin:bevel"
     id="g14"
     font-style="normal"
     font-weight="400"
     font-size="22.6771"
     transform="matrix(0.66666667,0,0,0.66666667,-5e-8,16.25)">
    <path
       style="vector-effect:none;fill-rule:nonzero"
       inkscape:connector-curvature="0"
       id="path12"
       d="M 2.63672,-24.375 H 27.3633 c 0.7226,0 1.3428,0.2588 1.8603,0.7764 0.5176,0.5175 0.7764,1.1377 0.7764,1.8603 V 2.98828 C 30,3.71094 29.7412,4.33105 29.2236,4.84863 28.7061,5.36621 28.0859,5.625 27.3633,5.625 H 2.63672 C 1.91406,5.625 1.29395,5.36621 0.776367,4.84863 0.258789,4.33105 0,3.71094 0,2.98828 V -21.7383 c 0,-0.7226 0.258789,-1.3428 0.776367,-1.8603 0.517583,-0.5176 1.137693,-0.7764 1.860353,-0.7764" />
  </g>
  <g
     style="font-style:normal;font-weight:400;font-size:8.25px;font-family:'MS Shell Dlg 2';fill:none;fill-rule:evenodd;stroke:#000000;stroke-width:1;stroke-linecap:square;stroke-linejoin:bevel;stroke-opacity:1"
     id="g16"
     font-style="normal"
     font-weight="400"
     font-size="8.25"
     transform="matrix(0.88888667,0,0,0.88888667,10,10)" />
  <g
     style="font-style:normal;font-weight:400;font-size:8.25px;font-family:'MS Shell Dlg 2';fill:none;fill-rule:evenodd;stroke:#000000;stroke-width:1;stroke-linecap:square;stroke-linejoin:bevel;stroke-opacity:1"
     id="g18"
     font-style="normal"
     font-weight="400"
     font-size="8.25"
     transform="matrix(0.66666667,0,0,0.66666667,10,10)" />
  <g
     style="font-style:normal;font-weight:400;font-size:8.25px;font-family:'MS Shell Dlg 2';fill:none;fill-rule:evenodd;stroke:#000000;stroke-width:1;stroke-linecap:square;stroke-linejoin:bevel;stroke-opacity:1"
     id="g20"
     font-style="normal"
     font-weight="400"
     font-size="8.25"
     transform="matrix(0.66666667,0,0,0.66666667,-0.66666672,-0.66666672)" />
  <g
     style="font-style:normal;font-weight:400;font-size:8.25px;font-family:'MS Shell Dlg 2';fill:none;fill-rule:evenodd;stroke:#000000;stroke-width:1;stroke-linecap:square;stroke-linejoin:bevel;stroke-opacity:1"
     id="g22"
     font-style="normal"
     font-weight="400"
     font-size="8.25"
     transform="matrix(0.66666667,0,0,0.66666667,10,10)" />
  <g
     style="font-style:normal;font-weight:400;font-size:8.25px;font-family:'MS Shell Dlg 2';fill:none;fill-rule:evenodd;stroke:#000000;stroke-width:1;stroke-linecap:square;stroke-linejoin:bevel;stroke-opacity:1"
     id="g24"
     font-style="normal"
     font-weight="400"
     font-size="8.25"
     transform="matrix(0.88888667,0,0,0.88888667,10,10)" />
  <g
     style="font-style:normal;font-weight:400;font-size:8.25px;font-family:'MS Shell Dlg 2';fill:none;fill-rule:evenodd;stroke:#000000;stroke-width:1;stroke-linecap:square;stroke-linejoin:bevel;stroke-opacity:1"
     id="g30"
     font-style="normal"
     font-weight="400"
     font-size="8.25"
     transform="matrix(0.88888667,0,0,0.88888667,10,10)" />
  <g
     style="font-style:normal;font-weight:400;font-size:8.25px;font-family:'MS Shell Dlg 2';fill:none;fill-rule:evenodd;stroke:#000000;stroke-width:1;stroke-linecap:square;stroke-linejoin:bevel;stroke-opacity:1"
     id="g32"
     font-style="normal"
     font-weight="400"
     font-size="8.25"
     transform="matrix(0.66666667,0,0,0.66666667,10,10)" />
  <g
     style="font-style:normal;font-weight:400;font-size:8.25px;font-family:'MS Shell Dlg 2';fill:none;fill-rule:evenodd;stroke:#000000;stroke-width:1;stroke-linecap:square;stroke-linejoin:bevel;stroke-opacity:1"
     id="g34"
     font-style="normal"
     font-weight="400"
     font-size="8.25"
     transform="matrix(0.66666667,0,0,0.66666667,-0.66666672,-0.66666672)" />
  <g
     style="font-style:normal;font-weight:400;font-size:8.25px;font-family:'MS Shell Dlg 2';fill:none;fill-rule:evenodd;stroke:#000000;stroke-width:1;stroke-linecap:square;stroke-linejoin:bevel;stroke-opacity:1"
     id="g36"
     font-style="normal"
     font-weight="400"
     font-size="8.25"
     transform="matrix(0.66666667,0,0,0.66666667,10,10)" />
  <g
     style="font-style:normal;font-weight:400;font-size:8.25px;font-family:'MS Shell Dlg 2';fill:none;fill-rule:evenodd;stroke:#000000;stroke-width:1;stroke-linecap:square;stroke-linejoin:bevel;stroke-opacity:1"
     id="g38"
     font-style="normal"
     font-weight="400"
     font-size="8.25"
     transform="matrix(0.88888667,0,0,0.88888667,10,10)" />
  <g
     style="font-style:normal;font-weight:400;font-size:22.67709923px;font-family:icomoon;fill:#000000;fill-opacity:1;fill-rule:evenodd;stroke:none;stroke-width:1;stroke-linecap:square;stroke-linejoin:bevel"
     id="g42"
     font-style="normal"
     font-weight="400"
     font-size="22.6771"
     transform="matrix(0.66666667,0,0,0.66666667,-5e-8,16.25)">
    <path
       style="vector-effect:none;fill-rule:nonzero"
       inkscape:connector-curvature="0"
       id="path40"
       d="m 26.4258,-22.2363 c 0.3906,0 0.7275,0.1416 1.0107,0.4248 0.2832,0.2832 0.4248,0.6201 0.4248,1.0107 V 2.05078 c 0,0.39063 -0.1416,0.72754 -0.4248,1.01074 -0.2832,0.28321 -0.6201,0.42481 -1.0107,0.42481 H 3.57422 C 3.18359,3.48633 2.84668,3.34473 2.56348,3.06152 2.28027,2.77832 2.13867,2.44141 2.13867,2.05078 V -20.8008 c 0,-0.3906 0.1416,-0.7275 0.42481,-1.0107 0.2832,-0.2832 0.62011,-0.4248 1.01074,-0.4248 H 26.4258 m 0,-0.7032 H 3.57422 c -0.58594,0 -1.08887,0.21 -1.50879,0.6299 -0.41992,0.42 -0.62988,0.9229 -0.62988,1.5088 V 2.05078 c 0,0.58594 0.20996,1.08887 0.62988,1.50879 0.41992,0.41992 0.92285,0.62988 1.50879,0.62988 H 26.4258 c 0.5859,0 1.0888,-0.20996 1.5088,-0.62988 0.4199,-0.41992 0.6299,-0.92285 0.6299,-1.50879 V -20.8008 c 0,-0.5859 -0.21,-1.0888 -0.6299,-1.5088 -0.42,-0.4199 -0.9229,-0.6299 -1.5088,-0.6299 m 1.4355,-0.7324 c 0.3907,0 0.7276,0.1416 1.0108,0.4248 0.2832,0.2832 0.4248,0.6201 0.4248,1.0108 V 3.48633 c 0,0.39062 -0.1416,0.72754 -0.4248,1.01074 -0.2832,0.2832 -0.6201,0.42481 -1.0108,0.42481 H 2.13867 C 1.74805,4.92188 1.41113,4.78027 1.12793,4.49707 0.844727,4.21387 0.703125,3.87695 0.703125,3.48633 V -22.2363 c 0,-0.3907 0.141602,-0.7276 0.424805,-1.0108 0.2832,-0.2832 0.62012,-0.4248 1.01074,-0.4248 H 27.8613 m 0,-0.7031 H 2.13867 c -0.58594,0 -1.08887,0.21 -1.508787,0.6299 C 0.209961,-23.3252 0,-22.8223 0,-22.2363 V 3.48633 C 0,4.07227 0.209961,4.5752 0.629883,4.99512 1.0498,5.41504 1.55273,5.625 2.13867,5.625 H 27.8613 c 0.586,0 1.0889,-0.20996 1.5088,-0.62988 C 29.79,4.5752 30,4.07227 30,3.48633 V -22.2363 c 0,-0.586 -0.21,-1.0889 -0.6299,-1.5088 -0.4199,-0.4199 -0.9228,-0.6299 -1.5088,-0.6299" />
  </g>
  <g
     style="font-style:normal;font-weight:400;font-size:8.25px;font-family:'MS Shell Dlg 2';fill:none;fill-rule:evenodd;stroke:#000000;stroke-width:1;stroke-linecap:square;stroke-linejoin:bevel;stroke-opacity:1"
     id="g44"
     font-style="normal"
     font-weight="400"
     font-size="8.25"
     transform="matrix(0.88888667,0,0,0.88888667,10,10)" />
  <g
     style="font-style:normal;font-weight:400;font-size:8.25px;font-family:'MS Shell Dlg 2';fill:none;fill-rule:evenodd;stroke:#000000;stroke-width:1;stroke-linecap:square;stroke-linejoin:bevel;stroke-opacity:1"
     id="g46"
     font-style="normal"
     font-weight="400"
     font-size="8.25"
     transform="matrix(0.66666667,0,0,0.66666667,10,10)" />
  <g
     style="font-style:normal;font-weight:400;font-size:8.25px;font-family:'MS Shell Dlg 2';fill:none;fill-rule:evenodd;stroke:#000000;stroke-width:1;stroke-linecap:square;stroke-linejoin:bevel;stroke-opacity:1"
     id="g48"
     font-style="normal"
     font-weight="400"
     font-size="8.25"
     transform="matrix(0.66666667,0,0,0.66666667,-0.66666672,-0.66666672)" />
  <g
     style="font-style:normal;font-weight:400;font-size:17.00779915px;font-family:icomoon;fill:#000000;fill-opacity:1;fill-rule:evenodd;stroke:none;stroke-width:1;stroke-linecap:square;stroke-linejoin:bevel"
     id="g28"
     font-style="normal"
     font-weight="400"
     font-size="17.0078"
     transform="matrix(0.66665217,0,0,0.66665217,2.3335,14.791562)">
    <path
       style="vector-effect:none;fill-rule:nonzero"
       inkscape:connector-curvature="0"
       id="path26"
       d="m 20.9785,-18.0137 c 0.3744,0 0.6926,0.1311 0.9546,0.3931 0.262,0.262 0.3931,0.5802 0.3931,0.9546 V 2.29102 c 0,0.37434 -0.1311,0.69254 -0.3931,0.95459 -0.262,0.26204 -0.5802,0.39306 -0.9546,0.39306 H 2.02148 C 1.64714,3.63867 1.32894,3.50765 1.06689,3.24561 0.80485,2.98356 0.673828,2.66536 0.673828,2.29102 V -16.666 c 0,-0.3744 0.131022,-0.6926 0.393062,-0.9546 0.26205,-0.262 0.58025,-0.3931 0.95459,-0.3931 H 20.9785 m 0,-0.6738 H 2.02148 c -0.55403,0 -1.029455,0.1984 -1.426265,0.5952 C 0.198405,-17.6955 0,-17.2201 0,-16.666 V 2.29102 C 0,2.84505 0.198405,3.32048 0.595215,3.71729 0.992025,4.1141 1.46745,4.3125 2.02148,4.3125 H 20.9785 c 0.5541,0 1.0295,-0.1984 1.4263,-0.59521 C 22.8016,3.32048 23,2.84505 23,2.29102 V -16.666 c 0,-0.5541 -0.1984,-1.0295 -0.5952,-1.4263 -0.3968,-0.3968 -0.8722,-0.5952 -1.4263,-0.5952 m 0.1572,14.8916 c 0,-1.19792 -0.408,-2.23112 -1.2241,-3.09961 C 19.0955,-7.764 18.1035,-8.23568 16.9355,-8.31055 H 16.9131 V -14.5771 H 5.97461 v 1.5947 c -0.61393,0.0898 -1.15674,0.3144 -1.62842,0.6738 -0.47168,0.3594 -0.82731,0.8011 -1.06689,1.3252 l -0.02246,0.0225 V 0.179688 H 1.75195 V 0.853516 H 20.709 V 0.179688 h -1.9766 c 0.7188,-0.389323 1.2953,-0.935873 1.7295,-1.639648 0.4343,-0.70378 0.6589,-1.48242 0.6738,-2.33594 M 6.64844,-12.9824 v -0.9209 h 9.59086 v 5.59275 c -1.168,0.08985 -2.1563,0.56527 -2.9649,1.42627 -0.8086,0.86101 -1.2129,1.88298 -1.2129,3.06592 0,0.86849 0.2209,1.65462 0.6626,2.3584 0.4418,0.703775 1.0145,1.250325 1.7183,1.639648 H 14.4873 9.34375 V -10.9834 C 9.08919,-11.5075 8.72607,-11.9492 8.25439,-12.3086 7.78271,-12.668 7.25488,-12.8926 6.6709,-12.9824 H 6.64844" />
  </g>
</svg>
