<?xml version="1.0" encoding="UTF-8" standalone="no"?>
<svg
   xmlns:dc="http://purl.org/dc/elements/1.1/"
   xmlns:cc="http://creativecommons.org/ns#"
   xmlns:rdf="http://www.w3.org/1999/02/22-rdf-syntax-ns#"
   xmlns:svg="http://www.w3.org/2000/svg"
   xmlns="http://www.w3.org/2000/svg"
   xmlns:sodipodi="http://sodipodi.sourceforge.net/DTD/sodipodi-0.dtd"
   xmlns:inkscape="http://www.inkscape.org/namespaces/inkscape"
   width="20"
   height="20"
   viewBox="0 0 20 20"
   version="1.2"
   id="svg52"
   sodipodi:docname="60204051122.svg"
   inkscape:version="0.92.4 (5da689c313, 2019-01-14)">
  <metadata
     id="metadata56">
    <rdf:RDF>
      <cc:Work
         rdf:about="">
        <dc:format>image/svg+xml</dc:format>
        <dc:type
           rdf:resource="http://purl.org/dc/dcmitype/StillImage" />
      </cc:Work>
    </rdf:RDF>
  </metadata>
  <sodipodi:namedview
     pagecolor="#ffffff"
     bordercolor="#666666"
     borderopacity="1"
     objecttolerance="10"
     gridtolerance="10"
     guidetolerance="10"
     inkscape:pageopacity="0"
     inkscape:pageshadow="2"
     inkscape:window-width="1920"
     inkscape:window-height="1017"
     id="namedview54"
     showgrid="false"
     inkscape:zoom="11.8"
     inkscape:cx="10"
     inkscape:cy="10"
     inkscape:window-x="-8"
     inkscape:window-y="-8"
     inkscape:window-maximized="1"
     inkscape:current-layer="svg52" />
  <title
     id="title2">Qt SVG Document</title>
  <desc
     id="desc4">Generated with Qt</desc>
  <defs
     id="defs6" />
  <g
     style="font-style:normal;font-weight:400;font-size:8.25px;font-family:'MS Shell Dlg 2';fill:none;fill-rule:evenodd;stroke:#000000;stroke-width:1;stroke-linecap:square;stroke-linejoin:bevel;stroke-opacity:1"
     id="g8"
     font-style="normal"
     font-weight="400"
     font-size="8.25"
     transform="translate(16,16)" />
  <g
     style="font-style:normal;font-weight:400;font-size:8.25px;font-family:'MS Shell Dlg 2';fill:none;fill-rule:evenodd;stroke:#000000;stroke-width:1;stroke-linecap:square;stroke-linejoin:bevel;stroke-opacity:1"
     id="g10"
     font-style="normal"
     font-weight="400"
     font-size="8.25"
     transform="matrix(1.33333,0,0,1.33333,16,16)" />
  <path
     d="M 2.5820338,1 H 17.417938 c 0.433593,0 0.805708,0.1552846 1.116208,0.4658538 C 18.844715,1.7763538 19,2.1484692 19,2.5820615 V 17.417966 c 0,0.433599 -0.155285,0.805666 -0.465854,1.116215 C 18.223646,18.844729 17.851531,19 17.417938,19 H 2.5820338 C 2.1484346,19 1.7763677,18.844729 1.4658206,18.534181 1.1552735,18.223632 1,17.851565 1,17.417966 V 2.5820615 C 1,2.1484692 1.1552735,1.7763538 1.4658206,1.4658538 1.7763677,1.1552846 2.1484346,1 2.5820338,1"
     id="path12"
     inkscape:connector-curvature="0"
     style="font-style:normal;font-weight:400;font-size:19.84250069px;font-family:icomoon;vector-effect:none;fill:#ff0000;fill-opacity:1;fill-rule:nonzero;stroke:none;stroke-width:0.69230771;stroke-linecap:square;stroke-linejoin:bevel" />
  <g
     style="font-style:normal;font-weight:400;font-size:8.25px;font-family:'MS Shell Dlg 2';fill:none;fill-rule:evenodd;stroke:#000000;stroke-width:1;stroke-linecap:square;stroke-linejoin:bevel;stroke-opacity:1"
     id="g16"
     font-style="normal"
     font-weight="400"
     font-size="8.25"
     transform="matrix(1.33333,0,0,1.33333,16,16)" />
  <g
     style="font-style:normal;font-weight:400;font-size:8.25px;font-family:'MS Shell Dlg 2';fill:none;fill-rule:evenodd;stroke:#000000;stroke-width:1;stroke-linecap:square;stroke-linejoin:bevel;stroke-opacity:1"
     id="g18"
     font-style="normal"
     font-weight="400"
     font-size="8.25"
     transform="translate(16,16)" />
  <g
     style="font-style:normal;font-weight:400;font-size:8.25px;font-family:'MS Shell Dlg 2';fill:none;fill-rule:evenodd;stroke:#000000;stroke-width:1;stroke-linecap:square;stroke-linejoin:bevel;stroke-opacity:1"
     id="g20"
     font-style="normal"
     font-weight="400"
     font-size="8.25" />
  <g
     style="font-style:normal;font-weight:400;font-size:8.25px;font-family:'MS Shell Dlg 2';fill:none;fill-rule:evenodd;stroke:#000000;stroke-width:1;stroke-linecap:square;stroke-linejoin:bevel;stroke-opacity:1"
     id="g22"
     font-style="normal"
     font-weight="400"
     font-size="8.25"
     transform="translate(16,16)" />
  <g
     style="font-style:normal;font-weight:400;font-size:8.25px;font-family:'MS Shell Dlg 2';fill:none;fill-rule:evenodd;stroke:#000000;stroke-width:1;stroke-linecap:square;stroke-linejoin:bevel;stroke-opacity:1"
     id="g24"
     font-style="normal"
     font-weight="400"
     font-size="8.25"
     transform="matrix(1.33333,0,0,1.33333,16,16)" />
  <path
     d="m 16.562038,2.5049387 c 0.2592,0 0.479493,0.090762 0.660877,0.2721461 0.181385,0.1813846 0.272147,0.4016769 0.272147,0.6608769 V 16.562052 c 0,0.259159 -0.09076,0.479451 -0.272147,0.66087 -0.181384,0.181413 -0.401677,0.272119 -0.660877,0.272119 H 3.4379479 c -0.2591584,0 -0.4794507,-0.09071 -0.6608699,-0.272119 C 2.5956657,17.041503 2.5049581,16.821211 2.5049581,16.562052 V 3.4379617 c 0,-0.2592 0.090708,-0.4794923 0.2721199,-0.6608769 C 2.9584972,2.5957002 3.1787895,2.5049387 3.4379479,2.5049387 H 16.562038 m 0,-0.466477 H 3.4379479 c -0.3835592,0 -0.7126995,0.1373539 -0.9874141,0.4120616 C 2.1758191,2.725231 2.0384618,3.054354 2.0384618,3.4379617 V 16.562052 c 0,0.38356 0.1373573,0.712703 0.412072,0.987418 0.2747146,0.274715 0.6038549,0.412068 0.9874141,0.412068 H 16.562038 c 0.383608,0 0.712731,-0.137353 0.987439,-0.412068 0.274708,-0.274715 0.412061,-0.603858 0.412061,-0.987418 V 3.4379617 c 0,-0.3836077 -0.137353,-0.7127307 -0.412061,-0.9874384 C 17.274769,2.1758156 16.945646,2.0384617 16.562038,2.0384617 m -3.405392,2.2081154 c -0.07255,-0.041469 -0.15293,-0.082938 -0.241061,-0.1244077 -0.08813,-0.041469 -0.178823,-0.082938 -0.272077,-0.1244077 l -0.04666,-0.015577 h -0.03108 C 12.482823,3.9407156 12.397254,3.9044387 12.309123,3.873354 12.221062,3.8422694 12.1303,3.8111156 12.037046,3.780031 H 11.9593 C 11.876362,3.759331 11.790862,3.7360002 11.702731,3.7101079 11.6146,3.6841464 11.5291,3.6608156 11.446162,3.6401156 l -0.1089,-0.031085 c -0.07255,-0.010384 -0.152862,-0.02333 -0.240993,-0.038907 -0.08813,-0.015577 -0.178823,-0.028523 -0.272146,-0.038908 h -0.01551 l -0.124405,-0.015508 c -0.103708,-0.041469 -0.2151,-0.0648 -0.334315,-0.069992 -0.119216,-0.00519 -0.23587,-0.00775 -0.349893,-0.00775 -0.901869,0 -1.7519535,0.1710693 -2.5501774,0.5131385 C 6.6515917,4.303554 5.9570341,4.7752233 5.3661357,5.3661079 4.7752441,5.9570617 4.303561,6.6515852 3.9511003,7.4498152 3.6089964,8.2480463 3.4379479,9.0981103 3.4379479,10 c 0,0.11403 0.0026,0.228067 0.00777,0.342097 0.00518,0.11403 0.01296,0.222881 0.023331,0.326548 0,0.02073 0.00259,0.04406 0.00778,0.06997 0.00518,0.02592 0.012953,0.04924 0.023324,0.06998 0.010364,0.103666 0.023324,0.199557 0.038873,0.287674 0.015549,0.08811 0.028509,0.178823 0.038873,0.272119 v -0.0311 l 0.031099,0.108852 c 0.020735,0.08293 0.041469,0.168452 0.062204,0.256569 0.020735,0.08812 0.046648,0.173645 0.077746,0.256576 0,0.01036 0,0.01814 0,0.02332 0,0.0052 0,0.0078 0,0.0078 0,0.01036 0,0.01814 0,0.02332 0,0.0052 0,0.01296 0,0.02332 0.031105,0.0933 0.062204,0.184009 0.093302,0.272126 0.031099,0.08812 0.067382,0.173637 0.1088516,0.256569 v 0.03111 c 0.2591584,0.580528 0.5908915,1.114408 0.9951923,1.601633 0.4042938,0.476865 0.8656061,0.888937 1.3839368,1.236218 0.5183308,0.347284 1.0833094,0.614217 1.6949355,0.800822 0.6116262,0.196961 1.2543507,0.295442 1.9281738,0.295442 0.9019381,0 1.7519531,-0.171049 2.5501841,-0.513145 0.798231,-0.342097 1.492823,-0.811184 2.083708,-1.407263 0.590884,-0.596075 1.057361,-1.293229 1.3995,-2.09146 0.352454,-0.798224 0.528646,-1.648287 0.528646,-2.5501768 0,-0.611634 -0.08294,-1.19734 -0.248746,-1.75714 C 16.11107,7.6416032 15.885655,7.1129562 15.590178,6.6257102 15.2947,6.1384462 14.944877,5.6926694 14.540569,5.2883617 14.136262,4.8841233 13.685293,4.5419848 13.187731,4.2620848 l -0.03108,-0.015508 M 10,15.14701 c -0.7049074,0 -1.3683874,-0.132174 -1.9903843,-0.396522 C 7.3876187,14.48614 6.8485602,14.125905 6.3924265,13.669771 L 13.669785,6.3924542 c 0.456092,0.466477 0.816369,1.0081381 1.080692,1.6249151 0.264392,0.616833 0.396554,1.277703 0.396554,1.9826307 0,0.715292 -0.134793,1.383937 -0.404308,2.005934 -0.269515,0.621997 -0.637546,1.166241 -1.104023,1.632738 -0.466546,0.466498 -1.010769,0.83451 -1.632738,1.104041 C 11.383923,15.012245 10.715293,15.14701 10,15.14701"
     id="path26"
     inkscape:connector-curvature="0"
     style="font-style:normal;font-weight:400;font-size:17.00779915px;font-family:icomoon;vector-effect:none;fill:#000000;fill-opacity:1;fill-rule:nonzero;stroke:none;stroke-width:0.69230771;stroke-linecap:square;stroke-linejoin:bevel" />
  <g
     style="font-style:normal;font-weight:400;font-size:8.25px;font-family:'MS Shell Dlg 2';fill:none;fill-rule:evenodd;stroke:#000000;stroke-width:1;stroke-linecap:square;stroke-linejoin:bevel;stroke-opacity:1"
     id="g30"
     font-style="normal"
     font-weight="400"
     font-size="8.25"
     transform="matrix(1.33333,0,0,1.33333,16,16)" />
  <g
     style="font-style:normal;font-weight:400;font-size:8.25px;font-family:'MS Shell Dlg 2';fill:none;fill-rule:evenodd;stroke:#000000;stroke-width:1;stroke-linecap:square;stroke-linejoin:bevel;stroke-opacity:1"
     id="g32"
     font-style="normal"
     font-weight="400"
     font-size="8.25"
     transform="translate(16,16)" />
  <g
     style="font-style:normal;font-weight:400;font-size:8.25px;font-family:'MS Shell Dlg 2';fill:none;fill-rule:evenodd;stroke:#000000;stroke-width:1;stroke-linecap:square;stroke-linejoin:bevel;stroke-opacity:1"
     id="g34"
     font-style="normal"
     font-weight="400"
     font-size="8.25" />
  <g
     style="font-style:normal;font-weight:400;font-size:8.25px;font-family:'MS Shell Dlg 2';fill:none;fill-rule:evenodd;stroke:#000000;stroke-width:1;stroke-linecap:square;stroke-linejoin:bevel;stroke-opacity:1"
     id="g36"
     font-style="normal"
     font-weight="400"
     font-size="8.25"
     transform="translate(16,16)" />
  <g
     style="font-style:normal;font-weight:400;font-size:8.25px;font-family:'MS Shell Dlg 2';fill:none;fill-rule:evenodd;stroke:#000000;stroke-width:1;stroke-linecap:square;stroke-linejoin:bevel;stroke-opacity:1"
     id="g38"
     font-style="normal"
     font-weight="400"
     font-size="8.25"
     transform="matrix(1.33333,0,0,1.33333,16,16)" />
  <path
     d="m 17.5762,1.4745769 c 0.257815,0 0.480462,0.093808 0.667938,0.2812846 0.187477,0.187477 0.281285,0.4101231 0.281285,0.6679385 v 15.152372 c 0,0.257816 -0.09381,0.480469 -0.281285,0.667966 -0.187476,0.187505 -0.410123,0.28125 -0.667938,0.28125 H 2.4238277 c -0.2578154,0 -0.4804685,-0.09374 -0.6679662,-0.28125 -0.1875018,-0.187497 -0.281252,-0.41015 -0.281252,-0.667966 V 2.4238 c 0,-0.2578154 0.09375,-0.4804615 0.281252,-0.6679385 C 1.9433592,1.5683846 2.1660123,1.4745769 2.4238277,1.4745769 H 17.5762 M 17.5762,1 H 2.4238277 C 2.0253908,1 1.6884765,1.1377 1.4130862,1.4131 1.1376952,1.6885 1,2.0253769 1,2.4238 v 15.152372 c 0,0.398437 0.1376952,0.735349 0.4130862,1.010742 C 1.6884765,18.862307 2.0253908,19 2.4238277,19 H 17.5762 c 0.398423,0 0.7353,-0.137693 1.0107,-0.413086 C 18.8623,18.311521 19,17.974609 19,17.576172 V 2.4238 C 19,2.0253769 18.8623,1.6885 18.5869,1.4131 18.3115,1.1377 17.974623,1 17.5762,1"
     id="path40"
     inkscape:connector-curvature="0"
     style="font-style:normal;font-weight:400;font-size:19.84250069px;font-family:icomoon;vector-effect:none;fill:#000000;fill-opacity:1;fill-rule:nonzero;stroke:none;stroke-width:0.69230771;stroke-linecap:square;stroke-linejoin:bevel" />
  <g
     style="font-style:normal;font-weight:400;font-size:8.25px;font-family:'MS Shell Dlg 2';fill:none;fill-rule:evenodd;stroke:#000000;stroke-width:1;stroke-linecap:square;stroke-linejoin:bevel;stroke-opacity:1"
     id="g44"
     font-style="normal"
     font-weight="400"
     font-size="8.25"
     transform="matrix(1.33333,0,0,1.33333,16,16)" />
  <g
     style="font-style:normal;font-weight:400;font-size:8.25px;font-family:'MS Shell Dlg 2';fill:none;fill-rule:evenodd;stroke:#000000;stroke-width:1;stroke-linecap:square;stroke-linejoin:bevel;stroke-opacity:1"
     id="g46"
     font-style="normal"
     font-weight="400"
     font-size="8.25"
     transform="translate(16,16)" />
  <g
     style="font-style:normal;font-weight:400;font-size:8.25px;font-family:'MS Shell Dlg 2';fill:none;fill-rule:evenodd;stroke:#000000;stroke-width:1;stroke-linecap:square;stroke-linejoin:bevel;stroke-opacity:1"
     id="g48"
     font-style="normal"
     font-weight="400"
     font-size="8.25" />
</svg>
