<svg xmlns="http://www.w3.org/2000/svg" width="20" height="20" version="1.2">
    <g font-weight="400" style="fill:none;fill-rule:evenodd;stroke:#000;stroke-width:1;stroke-linecap:square;stroke-linejoin:bevel">
        <g style="font-style:normal;font-weight:400;font-size:22.67709923px;font-family:icomoon;fill:#fff;fill-opacity:1;stroke:none">
            <path d="M2.637-24.375h24.726c.723 0 1.343.259 1.86.776.518.518.777 1.138.777 1.86V2.989c0 .723-.259 1.343-.776 1.86a2.538 2.538 0 0 1-1.86.777H2.636a2.538 2.538 0 0 1-1.86-.776A2.538 2.538 0 0 1 0 2.989v-24.727c0-.723.259-1.343.776-1.86a2.538 2.538 0 0 1 1.86-.777" font-size="22.677" style="vector-effect:none;fill-rule:nonzero" transform="matrix(.66667 0 0 .66667 0 16.25)"/>
        </g>
        <g style="font-style:normal;font-weight:400;font-size:17.00779915px;font-family:icomoon;fill:#000;fill-opacity:1;stroke:none">
            <path d="M20.979-18.014a1.3 1.3 0 0 1 .954.393 1.3 1.3 0 0 1 .393.955V2.291a1.3 1.3 0 0 1-.393.955 1.3 1.3 0 0 1-.955.393H2.021a1.3 1.3 0 0 1-.954-.393 1.3 1.3 0 0 1-.393-.955v-18.957a1.3 1.3 0 0 1 .393-.955 1.3 1.3 0 0 1 .954-.393h18.957m0-.674H2.021c-.554 0-1.029.199-1.426.596A1.946 1.946 0 0 0 0-16.666V2.291c0 .554.198 1.03.595 1.426.397.397.872.595 1.426.595h18.957c.555 0 1.03-.198 1.427-.595.397-.397.595-.872.595-1.426v-18.957c0-.554-.198-1.03-.595-1.426a1.946 1.946 0 0 0-1.426-.596m-6.784 6.132c.105-.194.187-.408.247-.64.06-.232.09-.468.09-.707a2.96 2.96 0 0 0-.887-2.157c-.592-.599-1.314-.898-2.167-.898-.839 0-1.554.3-2.145.898a2.96 2.96 0 0 0-.888 2.157c0 .24.03.475.09.707.06.232.142.453.247.663l-.022-.023c.06.135.127.259.202.37.075.113.157.214.247.304l2.291 3.28 2.246-3.257c.09-.105.172-.21.247-.315a2.52 2.52 0 0 0 .202-.337v-.045M8.805-1.819a2.842 2.842 0 0 0-.247.64 2.82 2.82 0 0 0-.09.707c0 .839.296 1.558.887 2.157s1.314.898 2.167.898c.839 0 1.554-.3 2.145-.898a2.96 2.96 0 0 0 .888-2.157c0-.24-.03-.475-.09-.707a3.348 3.348 0 0 0-.247-.663l.022.023v-.045a31.69 31.69 0 0 0-.213-.337 1.75 1.75 0 0 0-.236-.292L11.5-5.773 9.254-2.515c-.09.105-.172.21-.247.315a2.508 2.508 0 0 0-.202.337v.045M8.22-12.241a3.407 3.407 0 0 0-.45-.528 3.227 3.227 0 0 0-.539-.416H7.21a2.768 2.768 0 0 0-.719-.303 3.148 3.148 0 0 0-.808-.1c-.839 0-1.554.295-2.145.886a2.922 2.922 0 0 0-.888 2.145c0 .57.139 1.086.416 1.55.277.464.64.824 1.09 1.078l.022.023c.194.105.404.19.629.258.224.067.456.109.696.124h.18c.12 0 .235-.004.348-.012a1.56 1.56 0 0 0 .325-.056h-.022l3.953-.27-1.707-3.593a2.914 2.914 0 0 0-.157-.382 2.506 2.506 0 0 0-.202-.337h.022l-.022-.067m6.558 10.107c.135.195.285.37.45.528.164.157.344.296.539.416h.022c.225.134.464.235.719.303.254.067.524.1.808.1.839 0 1.554-.295 2.145-.886a2.922 2.922 0 0 0 .888-2.145c0-.57-.139-1.086-.416-1.55a2.949 2.949 0 0 0-1.09-1.078l-.022-.023a3.358 3.358 0 0 0-.629-.258 3.085 3.085 0 0 0-.696-.124h-.18c-.12 0-.236.004-.348.012-.112.007-.22.026-.325.056h.022l-3.953.27L14.42-2.92c.045.135.097.262.157.382s.127.232.202.337h-.022l.022.067m-9.276-4.74a3.307 3.307 0 0 0-.73.124 2.595 2.595 0 0 0-.64.281 3.13 3.13 0 0 0-1.09 1.1 2.925 2.925 0 0 0-.415 1.528c0 .839.296 1.554.887 2.145a2.922 2.922 0 0 0 2.145.887 2.99 2.99 0 0 0 1.449-.359c.442-.24.805-.561 1.09-.966v-.045c.06-.105.119-.217.179-.337.06-.12.112-.24.157-.359v-.022l1.752-3.617-3.953-.314-.314-.045a2.221 2.221 0 0 0-.315-.023h-.18l-.022.023m11.994-.629c.255-.015.498-.056.73-.123.232-.068.445-.161.64-.281a3.13 3.13 0 0 0 1.09-1.1c.277-.465.415-.974.415-1.528 0-.839-.296-1.554-.887-2.145a2.922 2.922 0 0 0-2.145-.887 2.99 2.99 0 0 0-1.449.359c-.442.24-.805.562-1.09.966v.045a6.88 6.88 0 0 0-.179.337c-.06.12-.112.24-.157.359v.023l-1.752 3.616 3.953.314.315.045c.104.015.21.023.314.023h.18l.022-.023" font-size="17.008" style="vector-effect:none;fill-rule:nonzero" transform="matrix(.66667 0 0 .66667 2.333 14.792)"/>
        </g>
        <g style="font-style:normal;font-weight:400;font-size:22.67709923px;font-family:icomoon;fill:#000;fill-opacity:1;stroke:none">
            <path d="M26.426-22.236c.39 0 .727.141 1.01.425.284.283.425.62.425 1.01V2.051c0 .39-.141.727-.425 1.01a1.38 1.38 0 0 1-1.01.425H3.574a1.38 1.38 0 0 1-1.01-.424 1.38 1.38 0 0 1-.425-1.011v-22.852c0-.39.141-.727.424-1.01a1.38 1.38 0 0 1 1.011-.425h22.852m0-.703H3.574c-.586 0-1.089.21-1.509.63-.42.42-.63.922-.63 1.508V2.051c0 .586.21 1.089.63 1.509.42.42.923.63 1.51.63h22.85c.587 0 1.09-.21 1.51-.63.42-.42.63-.923.63-1.51V-20.8c0-.587-.21-1.09-.63-1.51-.42-.42-.923-.63-1.51-.63m1.436-.732c.391 0 .728.142 1.011.425.283.283.425.62.425 1.01V3.487c0 .39-.142.728-.425 1.011a1.38 1.38 0 0 1-1.01.425H2.138a1.38 1.38 0 0 1-1.011-.425 1.38 1.38 0 0 1-.425-1.01v-25.723c0-.391.142-.728.425-1.011a1.38 1.38 0 0 1 1.01-.425h25.723m0-.703H2.14c-.586 0-1.09.21-1.51.63-.419.42-.629.923-.629 1.509V3.486c0 .586.21 1.09.63 1.51.42.419.923.629 1.509.629H27.86c.586 0 1.09-.21 1.51-.63.419-.42.629-.923.629-1.509v-25.722c0-.586-.21-1.09-.63-1.51-.42-.419-.923-.629-1.509-.629" font-size="22.677" style="vector-effect:none;fill-rule:nonzero" transform="matrix(.66667 0 0 .66667 0 16.25)"/>
        </g>
    </g>
</svg>
