<svg xmlns="http://www.w3.org/2000/svg" width="20" height="20" version="1.2">
    <g font-weight="400" style="fill:none;fill-rule:evenodd;stroke:#000;stroke-width:1;stroke-linecap:square;stroke-linejoin:bevel">
        <g style="font-style:normal;font-weight:400;font-size:17.00779915px;font-family:icomoon;fill:#fff;fill-opacity:1;stroke:none">
            <path d="M2.021-18.688h18.957c.555 0 1.03.199 1.427.596.397.396.595.872.595 1.426V2.291c0 .554-.198 1.03-.595 1.426a1.946 1.946 0 0 1-1.427.595H2.021c-.554 0-1.029-.198-1.426-.595A1.946 1.946 0 0 1 0 2.291v-18.957c0-.554.198-1.03.595-1.426a1.946 1.946 0 0 1 1.426-.596" font-size="17.008" style="vector-effect:none;fill-rule:nonzero" transform="matrix(.65217 0 0 .65217 2.5 14.687)"/>
        </g>
        <g style="font-style:normal;font-weight:400;font-size:17.00779915px;font-family:icomoon;fill:#000;fill-opacity:1;stroke:none">
            <path d="M20.979-18.014a1.3 1.3 0 0 1 .954.393 1.3 1.3 0 0 1 .393.955V2.291a1.3 1.3 0 0 1-.393.955 1.3 1.3 0 0 1-.955.393H2.021a1.3 1.3 0 0 1-.954-.393 1.3 1.3 0 0 1-.393-.955v-18.957a1.3 1.3 0 0 1 .393-.955 1.3 1.3 0 0 1 .954-.393h18.957m0-.674H2.021c-.554 0-1.029.199-1.426.596A1.946 1.946 0 0 0 0-16.666V2.291c0 .554.198 1.03.595 1.426.397.397.872.595 1.426.595h18.957c.555 0 1.03-.198 1.427-.595.397-.397.595-.872.595-1.426v-18.957c0-.554-.198-1.03-.595-1.426a1.946 1.946 0 0 0-1.426-.596M11.5-16.89c-1.348 0-2.605.255-3.773.764a9.797 9.797 0 0 0-3.089 2.078 9.796 9.796 0 0 0-2.077 3.088c-.51 1.168-.764 2.426-.764 3.774 0 1.347.254 2.605.764 3.773A9.796 9.796 0 0 0 4.638-.326a9.796 9.796 0 0 0 3.089 2.078c1.168.51 2.425.764 3.773.764 1.348 0 2.606-.255 3.773-.764a9.795 9.795 0 0 0 3.089-2.078 9.797 9.797 0 0 0 2.078-3.088c.509-1.168.763-2.426.763-3.773 0-1.348-.254-2.606-.763-3.774a9.797 9.797 0 0 0-2.078-3.088 9.797 9.797 0 0 0-3.089-2.078c-1.167-.51-2.425-.764-3.773-.764m0 18.059A8.215 8.215 0 0 1 8.243.517a8.637 8.637 0 0 1-2.65-1.797 8.637 8.637 0 0 1-1.797-2.65 8.215 8.215 0 0 1-.651-3.257c0-1.153.217-2.24.65-3.257a8.636 8.636 0 0 1 1.798-2.65 8.636 8.636 0 0 1 2.65-1.798 8.216 8.216 0 0 1 3.257-.651c1.153 0 2.239.217 3.257.651a8.635 8.635 0 0 1 2.65 1.797 8.635 8.635 0 0 1 1.797 2.65 8.215 8.215 0 0 1 .651 3.258 8.216 8.216 0 0 1-.65 3.256 8.756 8.756 0 0 1-1.809 2.64 8.756 8.756 0 0 1-2.64 1.808 8.214 8.214 0 0 1-3.256.651m5.076-13.387a6.222 6.222 0 0 0-1.01-.853 7.471 7.471 0 0 0-1.169-.652l-.067-.022h-.022a8.675 8.675 0 0 0-.584-.225h-.09a2.894 2.894 0 0 0-.562-.135h-.135a8.123 8.123 0 0 0-.539-.09h-.157c-.12 0-.243-.007-.37-.022a3.188 3.188 0 0 0-.371-.022h-.023c-.853 0-1.662.142-2.425.426a7.38 7.38 0 0 0-2.067 1.168 7.326 7.326 0 0 0-1.572 1.752 7.844 7.844 0 0 0-.92 2.224v.045c-.046.21-.08.434-.102.674-.022.24-.034.486-.034.741v.393c0 .127.008.25.023.37v.135c0 .09.011.184.034.281.022.098.04.191.056.281v.135c.03.09.056.183.078.28.023.098.049.191.079.281v.068c.03.104.064.206.101.303.037.097.079.198.124.303v.023a6.95 6.95 0 0 0 1.1 1.684A6.7 6.7 0 0 0 7.446-1.37c.561.36 1.172.644 1.83.853.66.195 1.34.292 2.044.292a6.96 6.96 0 0 0 2.786-.561 7.345 7.345 0 0 0 2.28-1.527 7.115 7.115 0 0 0 1.538-2.269 6.96 6.96 0 0 0 .561-2.785c0-.944-.168-1.827-.505-2.65a7.216 7.216 0 0 0-1.404-2.202M11.5-1.729a5.391 5.391 0 0 1-2.111-.416 5.104 5.104 0 0 1-1.707-1.157l7.704-7.704c.494.48.88 1.048 1.157 1.707s.415 1.363.415 2.111a5.43 5.43 0 0 1-.427 2.134 5.512 5.512 0 0 1-1.168 1.73 5.51 5.51 0 0 1-1.73 1.168 5.43 5.43 0 0 1-2.133.427" font-size="17.008" style="vector-effect:none;fill-rule:nonzero" transform="matrix(.65217 0 0 .65217 2.5 14.687)"/>
        </g>
    </g>
</svg>
