<svg xmlns="http://www.w3.org/2000/svg" width="20" height="20" version="1.2">
    <path d="M2.582 1h14.836c.434 0 .806.155 1.116.466.31.31.466.682.466 1.116v14.836c0 .434-.155.806-.466 1.116-.31.31-.682.466-1.116.466H2.582c-.434 0-.806-.155-1.116-.466A1.523 1.523 0 0 1 1 17.418V2.582c0-.434.155-.806.466-1.116.31-.31.682-.466 1.116-.466" style="font-style:normal;font-weight:400;font-size:19.84250069px;font-family:icomoon;vector-effect:none;fill:#fff;fill-opacity:1;fill-rule:nonzero;stroke:none;stroke-width:.69230771;stroke-linecap:square;stroke-linejoin:bevel"/>
    <path d="M17.576 1.475c.258 0 .48.093.668.28.188.188.281.411.281.669v15.152c0 .258-.093.48-.28.668a.912.912 0 0 1-.669.281H2.424a.912.912 0 0 1-.668-.28.913.913 0 0 1-.281-.669V2.424c0-.258.093-.48.28-.668a.913.913 0 0 1 .669-.281h15.152m0-.475H2.424c-.399 0-.736.138-1.01.413A1.375 1.375 0 0 0 1 2.423v15.153c0 .399.138.736.413 1.01.275.276.612.414 1.01.414h15.153c.399 0 .735-.138 1.01-.413.276-.275.414-.612.414-1.01V2.423c0-.399-.138-.736-.413-1.01A1.375 1.375 0 0 0 17.577 1" style="font-style:normal;font-weight:400;font-size:19.84250069px;font-family:icomoon;vector-effect:none;fill:#000;fill-opacity:1;fill-rule:nonzero;stroke:none;stroke-width:.69230771;stroke-linecap:square;stroke-linejoin:bevel"/>
    <path d="M16.562 2.505a.9.9 0 0 1 .66.272.9.9 0 0 1 .273.661v13.124a.9.9 0 0 1-.272.66.9.9 0 0 1-.661.273H3.438a.9.9 0 0 1-.66-.272.9.9 0 0 1-.273-.66V3.437a.9.9 0 0 1 .272-.66.9.9 0 0 1 .66-.273h13.125m0-.467H3.438c-.384 0-.713.138-.987.413a1.347 1.347 0 0 0-.413.987v13.124c0 .384.138.713.413.987.274.275.603.413.987.413h13.124c.384 0 .713-.138.987-.413.275-.274.413-.603.413-.987V3.438c0-.384-.138-.713-.413-.987a1.347 1.347 0 0 0-.987-.413m-1.757 10.683a3.05 3.05 0 0 0 .606-.87c.156-.332.25-.685.28-1.058v-.016h.871v-.466h-.855a3.336 3.336 0 0 0-.436-1.423 3.34 3.34 0 0 0-.964-1.065l-.015-.016V6.252H9.829V7.84a3.19 3.19 0 0 0-.583.536 3.858 3.858 0 0 0-.443.645l-.016.031-.186-.077h-.949V5.522h4.696v.73h.467V5.055h-5.63v3.919H5.211v1.197c-.26.218-.472.477-.638.778a2.45 2.45 0 0 0-.295.98h-.374v.481h.374c.051.373.176.718.373 1.034.197.316.45.573.762.77H3.438v.467h13.124v-.467h-1.213l-.544-1.493m-4.696-4.54.186-.14V6.719h3.546v1.353l.186.14c.363.259.656.588.879.987.223.4.334.837.334 1.314a2.951 2.951 0 0 1-.933 2.084c-.59.57-1.3.855-2.13.855h-.218c-.829 0-1.54-.285-2.13-.855a2.935 2.935 0 0 1-.933-2.068v-.016c0-.477.109-.917.327-1.322.217-.404.507-.736.87-.995l.016-.015m-5.38 3.95c0-.343.077-.659.233-.95.155-.29.363-.528.622-.715h.015l.094-.062V9.44h2.799l.109.016c-.042.124-.078.259-.11.404-.03.145-.051.29-.062.435v.016h-.855v.466h.871a3.096 3.096 0 0 0 .886 1.944l-.233.653-.047.047c-.27.228-.57.412-.901.552-.332.14-.685.22-1.058.241H6.906c-.581 0-1.084-.202-1.509-.606a2.07 2.07 0 0 1-.668-1.478" style="font-style:normal;font-weight:400;font-size:17.00779915px;font-family:icomoon;vector-effect:none;fill:#000;fill-opacity:1;fill-rule:nonzero;stroke:none;stroke-width:.69230771;stroke-linecap:square;stroke-linejoin:bevel"/>
    <path d="M1.887 18.654a.505.505 0 0 1-.211-.042.84.84 0 0 1-.178-.11.84.84 0 0 1-.11-.178.505.505 0 0 1-.042-.211c0-.079.014-.15.042-.211a.84.84 0 0 1 .11-.178L17.724 1.498a.842.842 0 0 1 .178-.11.505.505 0 0 1 .211-.042.52.52 0 0 1 .38.16.52.52 0 0 1 .16.381c0 .079-.013.15-.041.211a.842.842 0 0 1-.11.178L2.276 18.502a.84.84 0 0 1-.178.11.505.505 0 0 1-.211.042" style="font-style:normal;font-weight:400;font-size:18.70859909px;font-family:icomoon;vector-effect:none;fill:red;fill-opacity:1;fill-rule:nonzero;stroke:none;stroke-width:.69230771;stroke-linecap:square;stroke-linejoin:bevel"/>
</svg>
