<svg xmlns="http://www.w3.org/2000/svg" xml:space="preserve" width="210mm" height="297mm" viewBox="0 0 210 297">
    <g style="font-style:normal;font-weight:400;font-size:22.6771px;font-family:icomoon;display:inline;fill:#fff;fill-opacity:1;fill-rule:evenodd;stroke:none;stroke-width:1;stroke-linecap:square;stroke-linejoin:bevel">
        <path d="M2.637-24.375h24.726c.723 0 1.343.259 1.86.776.518.518.777 1.138.777 1.86V2.989c0 .723-.259 1.343-.776 1.86a2.538 2.538 0 0 1-1.86.777H2.636a2.538 2.538 0 0 1-1.86-.776A2.538 2.538 0 0 1 0 2.989v-24.727c0-.723.259-1.343.776-1.86a2.538 2.538 0 0 1 1.86-.777" font-size="22.677" font-weight="400" style="vector-effect:none;fill:#fff;fill-opacity:1;fill-rule:nonzero" transform="matrix(.4904 0 0 .4904 .13 12.118)"/>
    </g>
    <path d="M140.466 212.097c-.361 0-.67.13-.93.39a1.268 1.268 0 0 0-.388.929v12.363c0 .361.13.671.388.93.26.259.569.388.93.388h12.363c.362 0 .671-.13.93-.388.259-.259.389-.569.389-.93v-12.363c0-.362-.13-.671-.389-.93a1.268 1.268 0 0 0-.93-.389zm0 .44h12.363c.245 0 .453.085.623.256.171.17.256.379.256.623v12.363a.848.848 0 0 1-.256.623.848.848 0 0 1-.623.256h-12.363a.848.848 0 0 1-.623-.256.848.848 0 0 1-.256-.623v-12.363c0-.244.085-.452.256-.623a.848.848 0 0 1 .623-.256z" style="font-style:normal;font-weight:400;font-size:17.0078px;font-family:icomoon;vector-effect:none;fill:#000;fill-opacity:1;fill-rule:nonzero;stroke:none;stroke-width:.652173;stroke-linecap:square;stroke-linejoin:bevel" transform="translate(-139.148 -212.098)"/>
    <path d="m132.982 217.287-28.973-.268-8.698-27.637 23.597-16.813 23.282 17.246z" style="fill:#000;stroke:#000;stroke-width:4.34401;stroke-linecap:square;paint-order:stroke markers fill" transform="matrix(.21804 0 0 .19186 -18.284 -29.93)"/>
    <path d="M-16.42-45.652a.4.4 0 0 1-.167-.034.67.67 0 0 1-.14-.086.66.66 0 0 1-.087-.14.4.4 0 0 1-.034-.168.4.4 0 0 1 .034-.167.67.67 0 0 1 .087-.14l12.84-12.84a.659.659 0 0 1 .14-.087.4.4 0 0 1 .167-.034c.116 0 .216.043.3.127a.411.411 0 0 1 .128.301.398.398 0 0 1-.034.167.663.663 0 0 1-.087.14l-12.84 12.84a.665.665 0 0 1-.14.087.4.4 0 0 1-.167.034" style="font-style:normal;font-weight:400;font-size:15.874px;font-family:icomoon;display:inline;vector-effect:none;fill:red;fill-opacity:1;fill-rule:nonzero;stroke:none;stroke-width:.652173;stroke-linecap:square;stroke-linejoin:bevel" transform="translate(17.5 60)"/>
</svg>
