<svg xmlns="http://www.w3.org/2000/svg" width="20" height="20" version="1.2">
    <g font-weight="400" style="fill:none;fill-rule:evenodd;stroke:#000;stroke-width:1;stroke-linecap:square;stroke-linejoin:bevel">
        <g style="font-style:normal;font-weight:400;font-size:17.00779915px;font-family:icomoon;fill:#ff0;fill-opacity:1;stroke:none">
            <path d="M2.021-18.688h18.957c.555 0 1.03.199 1.427.596.397.396.595.872.595 1.426V2.291c0 .554-.198 1.03-.595 1.426a1.946 1.946 0 0 1-1.427.595H2.021c-.554 0-1.029-.198-1.426-.595A1.946 1.946 0 0 1 0 2.291v-18.957c0-.554.198-1.03.595-1.426a1.946 1.946 0 0 1 1.426-.596" font-size="17.008" style="vector-effect:none;fill-rule:nonzero" transform="matrix(.65217 0 0 .65217 2.5 14.687)"/>
        </g>
        <g style="font-style:normal;font-weight:400;font-size:17.00779915px;font-family:icomoon;fill:#000;fill-opacity:1;stroke:none">
            <path d="M20.979-18.014a1.3 1.3 0 0 1 .954.393 1.3 1.3 0 0 1 .393.955V2.291a1.3 1.3 0 0 1-.393.955 1.3 1.3 0 0 1-.955.393H2.021a1.3 1.3 0 0 1-.954-.393 1.3 1.3 0 0 1-.393-.955v-18.957a1.3 1.3 0 0 1 .393-.955 1.3 1.3 0 0 1 .954-.393h18.957m0-.674H2.021c-.554 0-1.029.199-1.426.596A1.946 1.946 0 0 0 0-16.666V2.291c0 .554.198 1.03.595 1.426.397.397.872.595 1.426.595h18.957c.555 0 1.03-.198 1.427-.595.397-.397.595-.872.595-1.426v-18.957c0-.554-.198-1.03-.595-1.426a1.946 1.946 0 0 0-1.426-.596M16.936.293l-.921-2.605.359-.427.247-.315.09-.134c.03-.06.064-.12.101-.18.037-.06.071-.12.101-.18a.14.14 0 0 0 .034-.056.14.14 0 0 1 .034-.056v-.023c.06-.12.12-.247.18-.381l.044-.113c.03-.06.056-.123.079-.19.022-.068.048-.14.078-.214v-.112c.015-.075.034-.154.057-.236a3.58 3.58 0 0 0 .056-.236V-5.21c.015-.076.03-.158.045-.248s.022-.18.022-.27v-.022a.176.176 0 0 0 .034-.045.1.1 0 0 0 .01-.045h1.528v-.674h-1.527a5.596 5.596 0 0 0-.73-2.549 6.051 6.051 0 0 0-1.718-1.92h-.023v-2.808H7.232v2.808a6.051 6.051 0 0 0-1.718 1.92 5.56 5.56 0 0 0-.73 2.527v.022H3.257v.674h1.527v.09c.015.105.026.202.034.292.007.09.019.18.034.27v-.023.045a.69.69 0 0 0 .044.236c.03.082.053.16.068.236v.09c.03.074.056.146.078.213.023.067.05.138.08.213l.044.113c.03.06.06.123.09.19.03.068.06.132.09.191.03.075.048.113.056.113.007 0 .011.007.011.022a.9.9 0 0 1 .09.146c.045.083.09.154.135.214l.067.134.124.169c.037.052.078.1.123.146l.112.157.248.27L5.413.292H3.077v.696h16.24V.292h-2.381m-4.627-.674h.134l.247-.045c.06 0 .12-.011.18-.033.06-.023.12-.042.18-.057l.27-.09.314-.09.27-.134a1.03 1.03 0 0 0 .269-.135v.023c.045-.03.09-.057.135-.079.045-.022.09-.049.134-.079l.248-.134h.044l2.18 1.527h-4.605v-.674M5.413-6.267c0-.853.198-1.643.595-2.37a5.202 5.202 0 0 1 1.584-1.785l.022-.022.27-.202v-2.471h6.536v2.47l.292.203a5.17 5.17 0 0 1 1.583 1.797 5.12 5.12 0 0 1 .618 2.38 3.282 3.282 0 0 1-.045.54v-.023H5.458a2.23 2.23 0 0 1-.034-.236 2.854 2.854 0 0 1-.01-.258v-.023m2.2 5.01h.045l.247.134a1.254 1.254 0 0 0 .27.135c.045.03.086.056.123.078a.54.54 0 0 0 .146.056l.27.113.314.112.27.09c.06.015.116.026.168.034.053.007.109.018.169.033l.27.068h.134V.27H5.413l2.201-1.528" font-size="17.008" style="vector-effect:none;fill-rule:nonzero" transform="matrix(.65217 0 0 .65217 2.5 14.687)"/>
        </g>
    </g>
</svg>
