<svg xmlns="http://www.w3.org/2000/svg" xml:space="preserve" baseProfile="tiny" overflow="visible" version="1.2" viewBox="0 0 20 20">
    <path fill="#FFF" d="M19.482.518A1.692 1.692 0 0 0 18.242 0H1.758C1.276 0 .863.173.518.518S0 1.276 0 1.758v16.484c0 .482.173.895.518 1.24s.758.518 1.24.518h16.484c.482 0 .895-.173 1.24-.518s.518-.758.518-1.24V1.758c0-.482-.173-.895-.518-1.24z"/>
    <path d="M17.27 2.73a1.297 1.297 0 0 0-.951-.397H3.681c-.37 0-.686.133-.95.397a1.297 1.297 0 0 0-.398.951v12.638c0 .37.133.686.397.95.265.265.582.398.951.398h12.638c.37 0 .686-.133.95-.397.265-.265.398-.582.398-.951V3.681c0-.37-.133-.686-.397-.95zm-.053 13.589c0 .25-.087.462-.262.636a.866.866 0 0 1-.636.262H3.681a.866.866 0 0 1-.636-.262.866.866 0 0 1-.262-.636V3.681c0-.25.087-.462.262-.636a.866.866 0 0 1 .636-.262h12.638c.25 0 .462.087.636.262a.866.866 0 0 1 .262.636v12.638z"/>
    <path d="M17.617 1.426a.92.92 0 0 1 .674.283.92.92 0 0 1 .283.674v15.234a.92.92 0 0 1-.283.674.92.92 0 0 1-.674.283H2.383a.92.92 0 0 1-.674-.283.92.92 0 0 1-.283-.674V2.383a.92.92 0 0 1 .283-.674.92.92 0 0 1 .674-.283h15.234m0-.469H2.383c-.39 0-.726.14-1.006.42-.28.28-.42.615-.42 1.006v15.234c0 .39.14.726.42 1.006s.615.42 1.006.42h15.234c.39 0 .726-.14 1.006-.42.28-.28.42-.615.42-1.006V2.383c0-.39-.14-.726-.42-1.006-.28-.28-.615-.42-1.006-.42m.957-.488a.92.92 0 0 1 .674.283.92.92 0 0 1 .283.674v17.148a.92.92 0 0 1-.283.674.92.92 0 0 1-.674.283H1.426a.92.92 0 0 1-.674-.283.92.92 0 0 1-.283-.674V1.426A.92.92 0 0 1 .752.752a.92.92 0 0 1 .674-.283h17.148m0-.469H1.426C1.036 0 .7.14.42.42.14.7 0 1.035 0 1.426v17.148c0 .39.14.726.42 1.006.28.28.615.42 1.006.42h17.148c.39 0 .726-.14 1.006-.42.28-.28.42-.615.42-1.006V1.426c0-.39-.14-.726-.42-1.006S18.965 0 18.574 0"/>
    <path d="M10.015 11.5H5.653a.917.917 0 0 1-.916-.917V5.917c0-.507.41-.917.916-.917h4.362c.507 0 .917.41.917.917v4.666c0 .507-.41.917-.917.917z"/>
    <path fill="#FFF" d="M9.73 8.028H5.938a.048.048 0 0 1-.048-.049V6.66c0-.026.022-.048.048-.048H9.73c.027 0 .049.022.049.048v1.32a.048.048 0 0 1-.049.049z"/>
    <path d="M9.694 12.703h-3.72a.605.605 0 0 1-.605-.605v-1.134h4.93v1.134c0 .334-.27.605-.605.605z"/>
    <path d="M6.467 13.361h-.334a.243.243 0 0 1-.243-.243v-.611c0-.134.109-.243.243-.243h.334c.134 0 .243.109.243.243v.611a.243.243 0 0 1-.243.243zM9.536 13.361h-.334a.243.243 0 0 1-.243-.243v-.611c0-.134.109-.243.243-.243h.334c.134 0 .243.109.243.243v.611a.243.243 0 0 1-.243.243zM10.703 6.396h5.333a.299.299 0 0 0 .299-.299v-.444a.299.299 0 0 0-.299-.299h-5.333a.299.299 0 0 0-.299.299v.444c0 .165.134.299.299.299z"/>
    <path d="M15.3 5.583h-.778a.243.243 0 0 0-.243.243v5.89c0 .133.11.242.243.242h.778a.243.243 0 0 0 .243-.243V5.826a.243.243 0 0 0-.243-.243z"/>
    <path d="M15.997 14.846c.01.002.015-.133.018-.277.004-.17-.004-.34 0-.519.01-.3-.009-.78-.027-1.758a13.726 13.726 0 0 0-.014-.417c-.01-.181.024-.374-.009-.375-.325-.007-.207 0-.241 0-1.418.032-1.453.024-3.861.056-.507.006-.514 0-.514 0-.311-.012-.347-.035-.417 0-.312.155-.338.98-.07 1.125.034.017.057.017.237.013.525-.01.57-.013.57-.013.581-.035.625-.039.652 0 .08.114-.077.481-.375.666-.355.22-.663.027-1.917.014h-.25c-2.455 0-3.635.03-4.18.014-.06-.002-.27-.009-.556 0-.153.005-.229.007-.291.014-.342.037-.876.233-1 .625-.023.072.005.034-.028.32-.043.368-.1.522-.014.61.054.055.135.056.18.056.626-.002 2.714-.015 3.07-.014.155 0 .352.005.694 0 .321-.004.45-.012.93-.028.275-.009.62-.02 1.043-.027.412-.008.493-.005 1.027-.014l.667-.014"/>
</svg>
