<svg xmlns="http://www.w3.org/2000/svg" width="20" height="20" version="1.2">
    <g font-weight="400" style="fill:none;fill-rule:evenodd;stroke:#000;stroke-width:1;stroke-linecap:square;stroke-linejoin:bevel">
        <g style="font-style:normal;font-weight:400;font-size:19.84250069px;font-family:icomoon;fill:#fff;fill-opacity:1;stroke:none">
            <path d="M2.285-21.125h21.43a2.2 2.2 0 0 1 1.612.673A2.2 2.2 0 0 1 26-18.84V2.59a2.2 2.2 0 0 1-.673 1.612 2.2 2.2 0 0 1-1.612.673H2.285a2.2 2.2 0 0 1-1.612-.673A2.2 2.2 0 0 1 0 2.59v-21.43a2.2 2.2 0 0 1 .673-1.612 2.2 2.2 0 0 1 1.612-.673" font-size="19.843" style="vector-effect:none;fill-rule:nonzero" transform="matrix(.6923 0 0 .6923 1 15.625)"/>
        </g>
        <g style="font-style:normal;font-weight:400;font-size:17.00779915px;font-family:icomoon;fill:#000;fill-opacity:1;stroke:none">
            <path d="M20.979-18.014a1.3 1.3 0 0 1 .954.393 1.3 1.3 0 0 1 .393.955V2.291a1.3 1.3 0 0 1-.393.955 1.3 1.3 0 0 1-.955.393H2.021a1.3 1.3 0 0 1-.954-.393 1.3 1.3 0 0 1-.393-.955v-18.957a1.3 1.3 0 0 1 .393-.955 1.3 1.3 0 0 1 .954-.393h18.957m0-.674H2.021c-.554 0-1.029.199-1.426.596A1.946 1.946 0 0 0 0-16.666V2.291c0 .554.198 1.03.595 1.426.397.397.872.595 1.426.595h18.957c.555 0 1.03-.198 1.427-.595.397-.397.595-.872.595-1.426v-18.957c0-.554-.198-1.03-.595-1.426a1.946 1.946 0 0 0-1.426-.596M15.835-8.4c-.135-.66-.397-1.37-.786-2.134a12.306 12.306 0 0 0-1.337-2.123c-.501-.636-1.03-1.149-1.583-1.538-.57-.375-1.1-.502-1.595-.382-1.258.33-2.216.748-2.875 1.258a7.675 7.675 0 0 0-1.628 1.752c-.442.658-.88 1.377-1.314 2.156-.42.793-1.033 1.625-1.842 2.493-.629.689-.651 1.355-.067 1.999.599.629 1.467 1.19 2.605 1.685 1.138.494 2.366.89 3.684 1.19 1.332.285 2.418.427 3.257.427.823 0 1.707-.053 2.65-.157a14.6 14.6 0 0 0 2.583-.517c.794-.24 1.445-.562 1.954-.966.51-.39.764-.868.764-1.437-.015-.584-.232-.981-.652-1.19a8.994 8.994 0 0 0-1.403-.551 9.551 9.551 0 0 1-1.494-.595c-.464-.255-.771-.712-.921-1.37m-3.392-2.898h.989v1.572h-.989v-1.572m0 2.426h1.977v1.213h-1.977v-1.213m-2.807-4.11h1.684v1.684H9.636v-1.684m0 2.627h1.235v1.258H9.636v-1.257M11.32-8.4v1.347H8.108V-8.4h3.212M7.84-11.77h.786v2.65h-.786v-2.65m-2.65 7.188h-1.37v-.854h1.37v.854m1.64 1.505h-.697v-2.359h.696v2.359m0-3.212H4.627v-1.348h2.201v1.348m.404-1.82H5.705v-1.527h1.527v1.528m1.663 5.03H7.839v-3.009h1.056v3.01m.74-3.212h2.314v1.19H9.636v-1.19m1.19 3.84h-1.1v-1.055h1.1v1.056m2.628-.36H11.5v-1.257h1.91l.044 1.257m.494-2.605h-1.145v-1.505h1.123l.022 1.505m1.977 2.763H14.42v-1.415h1.46l.045 1.415m.584-2.808H15.16v-1.28h1.303l.045 1.28m2.785 1.999h-1.707v-1.64h1.662l.045 1.64" font-size="17.008" style="vector-effect:none;fill-rule:nonzero" transform="matrix(.6923 0 0 .6923 2.038 14.976)"/>
        </g>
        <g style="font-style:normal;font-weight:400;font-size:19.84250069px;font-family:icomoon;fill:#000;fill-opacity:1;stroke:none">
            <path d="M23.943-20.44c.373 0 .694.136.965.407.271.27.406.592.406.965V2.818c0 .373-.135.694-.406.965-.27.271-.592.406-.965.406H2.057c-.373 0-.694-.135-.965-.406a1.318 1.318 0 0 1-.406-.965v-21.886c0-.373.135-.694.406-.965.27-.271.592-.407.965-.407h21.886m0-.685H2.057c-.576 0-1.063.199-1.46.597A1.986 1.986 0 0 0 0-19.068V2.818c0 .576.199 1.063.597 1.46.397.398.884.597 1.46.597h21.886c.576 0 1.063-.199 1.46-.597.398-.397.597-.884.597-1.46v-21.886c0-.576-.199-1.063-.597-1.46a1.986 1.986 0 0 0-1.46-.597" font-size="19.843" style="vector-effect:none;fill-rule:nonzero" transform="matrix(.6923 0 0 .6923 1 15.625)"/>
        </g>
        <g style="font-style:normal;font-weight:400;font-size:18.70859909px;font-family:icomoon;fill:red;fill-opacity:1;stroke:none">
            <path d="M.781 4.688a.73.73 0 0 1-.305-.062 1.214 1.214 0 0 1-.256-.158A1.214 1.214 0 0 1 .06 4.21.73.73 0 0 1 0 3.906a.73.73 0 0 1 .061-.305c.04-.09.094-.175.159-.256l23.437-23.438c.082-.065.167-.118.257-.159a.73.73 0 0 1 .305-.06c.211 0 .394.077.55.231a.751.751 0 0 1 .231.55.73.73 0 0 1-.061.305c-.04.09-.094.175-.159.256L1.343 4.468a1.214 1.214 0 0 1-.257.158.73.73 0 0 1-.305.061" font-size="18.709" style="vector-effect:none;fill-rule:nonzero" transform="matrix(.6923 0 0 .6923 1.346 15.409)"/>
        </g>
    </g>
</svg>
