<svg xmlns="http://www.w3.org/2000/svg" width="20" height="20" version="1.2">
    <g font-weight="400" style="fill:none;fill-rule:evenodd;stroke:#000;stroke-width:1;stroke-linecap:square;stroke-linejoin:bevel">
        <g style="font-style:normal;font-weight:400;font-size:22.67709923px;font-family:icomoon;fill:red;fill-opacity:1;stroke:none">
            <path d="M2.637-24.375h24.726c.723 0 1.343.259 1.86.776.518.518.777 1.138.777 1.86V2.989c0 .723-.259 1.343-.776 1.86a2.538 2.538 0 0 1-1.86.777H2.636a2.538 2.538 0 0 1-1.86-.776A2.538 2.538 0 0 1 0 2.989v-24.727c0-.723.259-1.343.776-1.86a2.538 2.538 0 0 1 1.86-.777" font-size="22.677" style="vector-effect:none;fill-rule:nonzero" transform="matrix(.66667 0 0 .66667 0 16.25)"/>
        </g>
        <g style="font-style:normal;font-weight:400;font-size:17.00779915px;font-family:icomoon;fill:#000;fill-opacity:1;stroke:none">
            <path d="M20.979-18.688H2.02c-.554 0-1.029.199-1.426.596A1.946 1.946 0 0 0 0-16.666V2.291c0 .554.198 1.03.595 1.426.397.397.872.595 1.426.595h18.957c.555 0 1.03-.198 1.427-.595.397-.397.595-.872.595-1.426v-18.957c0-.554-.198-1.03-.595-1.426a1.946 1.946 0 0 0-1.426-.596m1.347 20.979a1.3 1.3 0 0 1-.393.955 1.3 1.3 0 0 1-.955.393H2.021a1.3 1.3 0 0 1-.954-.393 1.3 1.3 0 0 1-.393-.955v-18.957a1.3 1.3 0 0 1 .393-.955 1.3 1.3 0 0 1 .954-.393h18.957a1.3 1.3 0 0 1 .955.393 1.3 1.3 0 0 1 .393.955V2.291m-2.515-11.86a1.222 1.222 0 0 0-.292-.1 3.957 3.957 0 0 0-.337-.057l-11.86-3.953V-15.588a.495.495 0 0 0-.157-.36.495.495 0 0 0-.36-.156.495.495 0 0 0-.359.157.495.495 0 0 0-.157.36v1.818c-.898.12-1.65.525-2.257 1.213a3.525 3.525 0 0 0-.91 2.404c0 .943.31 1.755.932 2.437a3.654 3.654 0 0 0 2.28 1.201h.022c-.015.015-.022.027-.022.034v.045c0 .007.007.011.022.011v5.93a.502.502 0 0 0 .495.516.513.513 0 0 0 .359-.146.484.484 0 0 0 .157-.37v-5.997h11.77c.21 0 .404-.038.584-.113.18-.074.344-.172.494-.292a1.68 1.68 0 0 0 .483-.516c.127-.21.19-.442.19-.696v-.068c-.014-.39-.127-.719-.336-.988-.21-.27-.457-.404-.741-.404M6.85-7.12A2.954 2.954 0 0 1 4.56-8.198h-.023a4.638 4.638 0 0 1-.18-.652 3.662 3.662 0 0 1-.067-.718 4.33 4.33 0 0 1 .505-1.966 4.517 4.517 0 0 1 1.292-1.516v-.022c.105-.03.217-.053.337-.068l.382-.045 1.617.562c-.764.344-1.378.782-1.842 1.314-.464.532-.696 1.104-.696 1.718a3.13 3.13 0 0 0 .483 1.438c.277.434.632.778 1.067 1.033H6.85m4.424 0h-2.47c-.18-.3-.322-.622-.427-.966a3.76 3.76 0 0 1-.157-1.1 4.35 4.35 0 0 1 .382-1.696c.24-.532.561-.992.965-1.382l2.18.72c-.465.209-.843.523-1.135.942-.292.42-.453.891-.483 1.415.015.435.123.832.326 1.19.202.36.468.652.797.877h.022m3.706 0h-1.999a3.642 3.642 0 0 1-.1-.54 5.104 5.104 0 0 1-.034-.583v-.045.022c.015-.494.09-.965.224-1.415.135-.449.33-.86.584-1.235l-.022.022 1.886.63c-.224.269-.408.576-.55.92a2.855 2.855 0 0 0-.213 1.1 2.915 2.915 0 0 0 .225 1.146v-.022m2.448-2.47v-.046h.045l-.045.045m1.707 2.47h-1.393a2.821 2.821 0 0 1-.168-.572 3.506 3.506 0 0 1 0-1.258c.037-.202.093-.4.168-.595v.023l1.258.426a2.142 2.142 0 0 0-.18.427 1.63 1.63 0 0 0-.067.472v.045a1.586 1.586 0 0 0 .382 1.033h-.023.023m.718-.337h-.045c-.09 0-.18-.067-.269-.202-.09-.135-.135-.315-.135-.54v-.044c0-.135.026-.255.079-.36a.733.733 0 0 1 .236-.27c.12.09.213.203.28.338a.991.991 0 0 1 .101.45c0 .119-.022.231-.067.336a1.186 1.186 0 0 1-.18.292" font-size="17.008" style="vector-effect:none;fill-rule:nonzero" transform="matrix(.66667 0 0 .66667 2.333 14.792)"/>
        </g>
        <g style="font-style:normal;font-weight:400;font-size:22.67709923px;font-family:icomoon;fill:#000;fill-opacity:1;stroke:none">
            <path d="M26.426-22.236c.39 0 .727.141 1.01.425.284.283.425.62.425 1.01V2.051c0 .39-.141.727-.425 1.01a1.38 1.38 0 0 1-1.01.425H3.574a1.38 1.38 0 0 1-1.01-.424 1.38 1.38 0 0 1-.425-1.011v-22.852c0-.39.141-.727.424-1.01a1.38 1.38 0 0 1 1.011-.425h22.852m0-.703H3.574c-.586 0-1.089.21-1.509.63-.42.42-.63.922-.63 1.508V2.051c0 .586.21 1.089.63 1.509.42.42.923.63 1.51.63h22.85c.587 0 1.09-.21 1.51-.63.42-.42.63-.923.63-1.51V-20.8c0-.587-.21-1.09-.63-1.51-.42-.42-.923-.63-1.51-.63m1.436-.732c.391 0 .728.142 1.011.425.283.283.425.62.425 1.01V3.487c0 .39-.142.728-.425 1.011a1.38 1.38 0 0 1-1.01.425H2.138a1.38 1.38 0 0 1-1.011-.425 1.38 1.38 0 0 1-.425-1.01v-25.723c0-.391.142-.728.425-1.011a1.38 1.38 0 0 1 1.01-.425h25.723m0-.703H2.14c-.586 0-1.09.21-1.51.63-.419.42-.629.923-.629 1.509V3.486c0 .586.21 1.09.63 1.51.42.419.923.629 1.509.629H27.86c.586 0 1.09-.21 1.51-.63.419-.42.629-.923.629-1.509v-25.722c0-.586-.21-1.09-.63-1.51-.42-.419-.923-.629-1.509-.629" font-size="22.677" style="vector-effect:none;fill-rule:nonzero" transform="matrix(.66667 0 0 .66667 0 16.25)"/>
        </g>
    </g>
</svg>
