<svg xmlns="http://www.w3.org/2000/svg" width="20" height="20" version="1.2">
    <g font-weight="400" style="fill:none;fill-rule:evenodd;stroke:#000;stroke-width:1;stroke-linecap:square;stroke-linejoin:bevel">
        <g style="font-style:normal;font-weight:400;font-size:19.84250069px;font-family:icomoon;fill:red;fill-opacity:1;stroke:none">
            <path d="M2.285-21.125h21.43a2.2 2.2 0 0 1 1.612.673A2.2 2.2 0 0 1 26-18.84V2.59a2.2 2.2 0 0 1-.673 1.612 2.2 2.2 0 0 1-1.612.673H2.285a2.2 2.2 0 0 1-1.612-.673A2.2 2.2 0 0 1 0 2.59v-21.43a2.2 2.2 0 0 1 .673-1.612 2.2 2.2 0 0 1 1.612-.673" font-size="19.843" style="vector-effect:none;fill-rule:nonzero" transform="matrix(.6923 0 0 .6923 1 15.625)"/>
        </g>
        <g style="font-style:normal;font-weight:400;font-size:17.00779915px;font-family:icomoon;fill:#000;fill-opacity:1;stroke:none">
            <path d="M20.979-18.688H2.02c-.554 0-1.029.199-1.426.596A1.946 1.946 0 0 0 0-16.666V2.291c0 .554.198 1.03.595 1.426.397.397.872.595 1.426.595h18.957c.555 0 1.03-.198 1.427-.595.397-.397.595-.872.595-1.426v-18.957c0-.554-.198-1.03-.595-1.426a1.946 1.946 0 0 0-1.426-.596m1.347 20.979a1.3 1.3 0 0 1-.393.955 1.3 1.3 0 0 1-.955.393H2.021a1.3 1.3 0 0 1-.954-.393 1.3 1.3 0 0 1-.393-.955v-18.957a1.3 1.3 0 0 1 .393-.955 1.3 1.3 0 0 1 .954-.393h18.957a1.3 1.3 0 0 1 .955.393 1.3 1.3 0 0 1 .393.955V2.291m-2.515-11.86a1.222 1.222 0 0 0-.292-.1 3.957 3.957 0 0 0-.337-.057l-11.86-3.953V-15.588a.495.495 0 0 0-.157-.36.495.495 0 0 0-.36-.156.495.495 0 0 0-.359.157.495.495 0 0 0-.157.36v1.818c-.898.12-1.65.525-2.257 1.213a3.525 3.525 0 0 0-.91 2.404c0 .943.31 1.755.932 2.437a3.654 3.654 0 0 0 2.28 1.201h.022c-.015.015-.022.027-.022.034v.045c0 .007.007.011.022.011v5.93a.502.502 0 0 0 .495.516.513.513 0 0 0 .359-.146.484.484 0 0 0 .157-.37v-5.997h11.77c.21 0 .404-.038.584-.113.18-.074.344-.172.494-.292a1.68 1.68 0 0 0 .483-.516c.127-.21.19-.442.19-.696v-.068c-.014-.39-.127-.719-.336-.988-.21-.27-.457-.404-.741-.404M6.85-7.12A2.954 2.954 0 0 1 4.56-8.198h-.023a4.638 4.638 0 0 1-.18-.652 3.662 3.662 0 0 1-.067-.718 4.33 4.33 0 0 1 .505-1.966 4.517 4.517 0 0 1 1.292-1.516v-.022c.105-.03.217-.053.337-.068l.382-.045 1.617.562c-.764.344-1.378.782-1.842 1.314-.464.532-.696 1.104-.696 1.718a3.13 3.13 0 0 0 .483 1.438c.277.434.632.778 1.067 1.033H6.85m4.424 0h-2.47c-.18-.3-.322-.622-.427-.966a3.76 3.76 0 0 1-.157-1.1 4.35 4.35 0 0 1 .382-1.696c.24-.532.561-.992.965-1.382l2.18.72c-.465.209-.843.523-1.135.942-.292.42-.453.891-.483 1.415.015.435.123.832.326 1.19.202.36.468.652.797.877h.022m3.706 0h-1.999a3.642 3.642 0 0 1-.1-.54 5.104 5.104 0 0 1-.034-.583v-.045.022c.015-.494.09-.965.224-1.415.135-.449.33-.86.584-1.235l-.022.022 1.886.63c-.224.269-.408.576-.55.92a2.855 2.855 0 0 0-.213 1.1 2.915 2.915 0 0 0 .225 1.146v-.022m2.448-2.47v-.046h.045l-.045.045m1.707 2.47h-1.393a2.821 2.821 0 0 1-.168-.572 3.506 3.506 0 0 1 0-1.258c.037-.202.093-.4.168-.595v.023l1.258.426a2.142 2.142 0 0 0-.18.427 1.63 1.63 0 0 0-.067.472v.045a1.586 1.586 0 0 0 .382 1.033h-.023.023m.718-.337h-.045c-.09 0-.18-.067-.269-.202-.09-.135-.135-.315-.135-.54v-.044c0-.135.026-.255.079-.36a.733.733 0 0 1 .236-.27c.12.09.213.203.28.338a.991.991 0 0 1 .101.45c0 .119-.022.231-.067.336a1.186 1.186 0 0 1-.18.292" font-size="17.008" style="vector-effect:none;fill-rule:nonzero" transform="matrix(.6923 0 0 .6923 2.038 14.976)"/>
        </g>
        <g style="font-style:normal;font-weight:400;font-size:19.84250069px;font-family:icomoon;fill:#000;fill-opacity:1;stroke:none">
            <path d="M23.943-20.44c.373 0 .694.136.965.407.271.27.406.592.406.965V2.818c0 .373-.135.694-.406.965-.27.271-.592.406-.965.406H2.057c-.373 0-.694-.135-.965-.406a1.318 1.318 0 0 1-.406-.965v-21.886c0-.373.135-.694.406-.965.27-.271.592-.407.965-.407h21.886m0-.685H2.057c-.576 0-1.063.199-1.46.597A1.986 1.986 0 0 0 0-19.068V2.818c0 .576.199 1.063.597 1.46.397.398.884.597 1.46.597h21.886c.576 0 1.063-.199 1.46-.597.398-.397.597-.884.597-1.46v-21.886c0-.576-.199-1.063-.597-1.46a1.986 1.986 0 0 0-1.46-.597" font-size="19.843" style="vector-effect:none;fill-rule:nonzero" transform="matrix(.6923 0 0 .6923 1 15.625)"/>
        </g>
    </g>
</svg>
