<svg xmlns="http://www.w3.org/2000/svg" width="20" height="20" version="1.2">
    <g font-weight="400" style="fill:none;fill-rule:evenodd;stroke:#000;stroke-width:1;stroke-linecap:square;stroke-linejoin:bevel">
        <g style="font-style:normal;font-weight:400;font-size:17.00779915px;font-family:icomoon;fill:#ff0;fill-opacity:1;stroke:none">
            <path d="M2.021-18.688h18.957c.555 0 1.03.199 1.427.596.397.396.595.872.595 1.426V2.291c0 .554-.198 1.03-.595 1.426a1.946 1.946 0 0 1-1.427.595H2.021c-.554 0-1.029-.198-1.426-.595A1.946 1.946 0 0 1 0 2.291v-18.957c0-.554.198-1.03.595-1.426a1.946 1.946 0 0 1 1.426-.596" font-size="17.008" style="vector-effect:none;fill-rule:nonzero" transform="matrix(.65217 0 0 .65217 2.5 14.687)"/>
        </g>
        <g style="font-style:normal;font-weight:400;font-size:17.00779915px;font-family:icomoon;fill:#000;fill-opacity:1;stroke:none">
            <path d="M20.979-18.014a1.3 1.3 0 0 1 .954.393 1.3 1.3 0 0 1 .393.955V2.291a1.3 1.3 0 0 1-.393.955 1.3 1.3 0 0 1-.955.393H2.021a1.3 1.3 0 0 1-.954-.393 1.3 1.3 0 0 1-.393-.955v-18.957a1.3 1.3 0 0 1 .393-.955 1.3 1.3 0 0 1 .954-.393h18.957m0-.674H2.021c-.554 0-1.029.199-1.426.596A1.946 1.946 0 0 0 0-16.666V2.291c0 .554.198 1.03.595 1.426.397.397.872.595 1.426.595h18.957c.555 0 1.03-.198 1.427-.595.397-.397.595-.872.595-1.426v-18.957c0-.554-.198-1.03-.595-1.426a1.946 1.946 0 0 0-1.426-.596m-9.793 2.067c-.09.015-.63.288-1.618.82-.988.531-1.482 1.74-1.482 3.627.045 1.018.217 1.984.517 2.898.299.913.703 1.767 1.212 2.56l-.022-.045-4.065 5.413-.045.09a.25.25 0 0 0-.023.112.3.3 0 0 0 .034.135.427.427 0 0 0 .078.113l2 1.841a.3.3 0 0 0 .224.09c.06 0 .116-.015.169-.045a.31.31 0 0 0 .123-.134l2.92-5.414 2.92 5.414a.31.31 0 0 0 .124.134.334.334 0 0 0 .393-.045l1.999-1.841a.43.43 0 0 0 .078-.113.3.3 0 0 0 .034-.135.25.25 0 0 0-.023-.112.351.351 0 0 0-.067-.09L12.623-6.76a10.799 10.799 0 0 0 1.707-5.39v-.023c0-.045.004-.093.011-.146.008-.052.012-.108.012-.168 0-.989-.296-1.865-.888-2.628-.591-.764-1.336-1.273-2.234-1.528l-.023-.022-.022.045m.022 7.165-.91-1.134c-.606-.757-.91-1.509-.91-2.258 0-.509.218-.835.652-.977.434-.142.824-.22 1.168-.236.36 0 .752.075 1.18.225.426.15.64.48.64.988 0 .764-.304 1.524-.91 2.28l-.91 1.134v-.022" font-size="17.008" style="vector-effect:none;fill-rule:nonzero" transform="matrix(.65217 0 0 .65217 2.5 14.687)"/>
        </g>
    </g>
</svg>
