<svg
	xmlns="http://www.w3.org/2000/svg"
	xmlns:xlink="http://www.w3.org/1999/xlink" xml:space="preserve" width="20" height="20">
	<defs>
		<path id="a" d="M954.424 863.471c-30.296-.244-34.588 8.353-34.14 22.656.463 14.746 7.367 20.007 33.748 19.588l240.627.068-10.134-40.46z"/>
	</defs>
	<path fill="#fff" d="M1.757-.001H18.23c.48 0 .893.173 1.239.517.344.344.517.758.517 1.24V18.22c0 .482-.173.894-.517 1.24a1.692 1.692 0 0 1-1.24.516H1.758a1.69 1.69 0 0 1-1.24-.516A1.691 1.69 0 0 1 0 18.22V1.756C0 1.274.172.86.518.516a1.691 1.691 0 0 1 1.239-.517" font-family="icomoon" font-size="19.843" font-weight="400"/>
	<path d="M2.707 1.152c-.426 0-.791.152-1.097.457a1.496 1.495 0 0 0-.457 1.096v14.567c0 .425.153.79.457 1.095.306.306.671.458 1.097.458H17.28c.425 0 .792-.152 1.096-.458.305-.305.457-.67.457-1.095V2.705c0-.426-.152-.79-.457-1.096a1.496 1.495 0 0 0-1.096-.457Zm0 .517H17.28a1 .999 0 0 1 .733.303 1 .999 0 0 1 .303.733v14.567a1 .999 0 0 1-.302.732 1 .999 0 0 1-.734.302H2.707a1 .999 0 0 1-.734-.302 1 .999 0 0 1-.302-.732V2.705a1 .999 0 0 1 .302-.733 1 .999 0 0 1 .733-.303Z" font-family="icomoon" font-size="17.008" font-weight="400"/>
	<path d="M1.582 0C1.138 0 .764.152.459.458A1.527 1.526 0 0 0 0 1.58v16.818c0 .442.152.816.459 1.121.305.307.68.459 1.121.459h16.826c.442 0 .816-.152 1.121-.459.307-.305.46-.679.46-1.12V1.577c0-.442-.153-.816-.458-1.12a1.527 1.526 0 0 0-1.123-.46zm0 .526h16.824c.286 0 .533.104.742.312.207.208.312.455.312.741v16.818c0 .286-.105.533-.312.742a1.013 1.012 0 0 1-.742.31H1.582a1.014 1.013 0 0 1-.742-.31 1.014 1.013 0 0 1-.313-.742V1.578c0-.286.104-.533.313-.741a1.014 1.013 0 0 1 .742-.311Z" font-family="icomoon" font-size="19.843" font-weight="400"/>
	<g paint-order="stroke markers fill" transform="matrix(.02066 0 0 .02065 -10.95 -3.89)">
		<circle cx="1019.344" cy="445.21" r="109.043"/>
		<path d="M1161.052 725.684c14.97 26.34 24.443 25.858 36.63 18.359 12.564-7.732 13.697-16.338.219-39.02l-130.735-219.837-27.71 26.555z"/>
	</g>
	<g paint-order="stroke markers fill" transform="matrix(.02066 0 0 .02065 -10.95 -3.89)">
		<circle cx="133.021" cy="-1537.865" r="109.043" transform="rotate(119.81)"/>
		<use xlink:href="#a"/>
	</g>
	<g paint-order="stroke markers fill" transform="matrix(-.01041 .01784 -.01784 -.0104 33.649 .803)">
		<circle cx="133.021" cy="-1537.865" r="109.043" transform="rotate(119.81)"/>
		<use xlink:href="#a"/>
	</g>
	<g fill="#f9f9f9" paint-order="stroke markers fill" transform="matrix(.02066 0 0 .02065 -10.95 -3.89)">
		<circle cx="986.209" cy="412.678" r="51.187"/>
		<circle cx="724.746" cy="850.056" r="51.187"/>
		<circle cx="1240.443" cy="850.056" r="51.187"/>
	</g>
</svg>