<svg
	xmlns="http://www.w3.org/2000/svg"
	xmlns:xlink="http://www.w3.org/1999/xlink" xml:space="preserve" width="20" height="20">
	<defs>
		<path id="a" d="M954.424 863.471c-30.296-.244-34.588 8.353-34.14 22.656.463 14.746 7.367 20.007 33.748 19.588l240.627.068-10.134-40.46z"/>
	</defs>
	<path fill="#fff" d="M2.002.281h16.14c.471 0 .876.17 1.214.509.338.341.506.748.506 1.221V18.24c0 .475-.168.881-.506 1.221a1.65 1.65 0 0 1-1.214.509H2.002c-.472 0-.877-.169-1.215-.509a1.657 1.666 0 0 1-.505-1.221V2.01c0-.473.167-.88.505-1.22A1.65 1.65 0 0 1 2.002.282" font-family="icomoon" font-size="19.843" font-weight="400"/>
	<path d="M1.755-.001c-.48 0-.893.174-1.238.52a1.689 1.698 0 0 0-.516 1.245v16.543c0 .483.173.899.516 1.244.345.348.757.52 1.238.52H18.21a1.68 1.68 0 0 0 1.238-.52c.346-.345.517-.761.517-1.244V1.764c0-.483-.173-.9-.516-1.245A1.689 1.698 0 0 0 18.211 0Zm0 .589H18.21c.326 0 .602.113.83.342.225.23.34.507.34.834v16.543a1.129 1.135 0 0 1-.34.833 1.127 1.133 0 0 1-.83.343H1.755a1.127 1.133 0 0 1-.828-.343 1.129 1.135 0 0 1-.342-.833V1.764c0-.327.115-.605.342-.834a1.129 1.135 0 0 1 .828-.342Z" font-family="icomoon" font-size="17.008" font-weight="400"/>
	<g paint-order="stroke markers fill" transform="matrix(.02476 0 0 .0249 -15.122 -6.717)">
		<circle cx="1019.344" cy="445.21" r="109.043"/>
		<path d="M1161.052 725.684c14.97 26.34 24.443 25.858 36.63 18.359 12.564-7.732 13.697-16.338.219-39.02l-130.735-219.837-27.71 26.555z"/>
	</g>
	<g paint-order="stroke markers fill" transform="matrix(.02476 0 0 .0249 -15.122 -6.717)">
		<circle cx="133.021" cy="-1537.865" r="109.043" transform="rotate(119.81)"/>
		<use xlink:href="#a"/>
	</g>
	<g paint-order="stroke markers fill" transform="matrix(-.01248 .0215 -.02139 -.01255 38.335 -1.059)">
		<circle cx="133.021" cy="-1537.865" r="109.043" transform="rotate(119.81)"/>
		<use xlink:href="#a"/>
	</g>
	<g fill="#f9f9f9" paint-order="stroke markers fill" transform="matrix(.02476 0 0 .0249 -15.122 -6.717)">
		<circle cx="986.209" cy="412.678" r="51.187"/>
		<circle cx="724.746" cy="850.056" r="51.187"/>
		<circle cx="1240.443" cy="850.056" r="51.187"/>
	</g>
</svg>