<svg
	xmlns="http://www.w3.org/2000/svg" width="20" height="20">
	<path fill="#fff" d="M2.013.296h16.196c.473 0 .88.17 1.218.507.34.339.51.744.51 1.216V18.18c0 .473-.17.878-.51 1.216a1.662 1.659 0 0 1-1.217.508H2.012a1.662 1.659 0 0 1-1.219-.507 1.662 1.659 0 0 1-.508-1.217V2.02c0-.473.17-.878.508-1.216A1.662 1.659 0 0 1 2.012.296" font-family="icomoon" font-size="22.677" font-weight="400"/>
	<path d="M2.715 1.156a1.5 1.5 0 0 0-1.099.458 1.498 1.495 0 0 0-.459 1.096v14.587c0 .427.153.791.46 1.096.306.306.671.458 1.098.458h14.62a1.5 1.5 0 0 0 1.1-.458c.304-.305.458-.67.458-1.096V2.71c0-.427-.154-.792-.459-1.096a1.498 1.495 0 0 0-1.1-.458Zm0 .518h14.62c.29 0 .533.1.735.302a1 .998 0 0 1 .303.734v14.587c0 .29-.1.532-.303.734a1 .997 0 0 1-.735.302H2.715a1 .998 0 0 1-.736-.302 1 .998 0 0 1-.301-.734V2.71c0-.29.1-.533.301-.734a1 .998 0 0 1 .736-.302Z" font-family="icomoon" font-size="17.008" font-weight="400"/>
	<path d="M1.586 0C1.142 0 .768.156.461.461A1.53 1.526 0 0 0 0 1.584v16.84c0 .442.154.816.461 1.123.307.305.68.46 1.125.46h16.878c.443 0 .818-.156 1.125-.461.307-.306.461-.678.461-1.123V1.583A1.53 1.53 0 0 0 19.59.46a1.53 1.526 0 0 0-1.126-.459Zm0 .528h16.878c.288 0 .535.104.744.312.209.21.313.456.313.743v16.841c0 .286-.104.534-.313.743a1.016 1.014 0 0 1-.744.31H1.586a1.016 1.014 0 0 1-.744-.31 1.017 1.015 0 0 1-.314-.743V1.582c0-.286.105-.534.314-.743a1.017 1.015 0 0 1 .744-.311Z" font-family="icomoon" font-size="19.843" font-weight="400"/>
	<path d="M7.578 13.283a.804.802 0 0 1-.234-.088.594.592 0 0 1-.296-.47l-.006-.05.01-.086a.827.825 0 0 1 .077-.278c.045-.096.104-.189.266-.42a5.9 5.9 0 0 0 .323-.491c.18-.326.279-.651.379-1.255.071-.422.077-.481.18-1.944a73.787 73.623 0 0 1 .06-.783l.006-.09-.076-.005-.076-.005-.164.009-.165.008-.114.02c-.345.06-.543.164-.77.406a3.663 3.654 0 0 0-.413.56l-.036.06h-.225l.006-.032c.013-.058.148-.456.2-.588l.052-.13.085-.17.084-.169.076-.116c.042-.064.11-.157.148-.207l.072-.093.135-.136.137-.137.078-.056c.042-.032.108-.074.145-.094l.07-.036.1-.033.1-.033.122-.025c.067-.013.163-.03.213-.035l.093-.011 2.628-.005 2.63-.004v1.051l-.87.002c-.479 0-.872.005-.873.006a32.148 32.148 0 0 0-.176 1.388 18.03 18.03 0 0 0-.1 1.47l-.011.392.01.313.012.315.03.11c.033.132.062.207.117.309.1.183.238.305.431.38.494.202 1.023-.044 1.148-.562l.034-.136.006-.026.059-.007c.033-.003.085-.006.115-.006h.056l-.004.035c-.03.212-.09.498-.14.68-.109.385-.25.65-.462.872a1.84 1.836 0 0 1-.296.244 2.323 2.323 0 0 1-.14.078 1.043 1.04 0 0 1-1.081-.089l-.077-.055-.095-.098-.093-.098-.055-.081a1.704 1.7 0 0 1-.23-.55 4.719 4.708 0 0 1-.112-.716l-.016-.16-.003-.459-.002-.459.008-.271.008-.27.031-.345c.085-.968.137-1.46.21-2.003l.025-.19-.007-.007-.006-.007-.894.002c-.491 0-.894.004-.895.005-.003.002-.015.155-.053.696a299.45 299.45 0 0 1-.101 1.379c-.04.513-.156 1.386-.267 1.992-.117.642-.245 1.12-.36 1.349a2 1.995 0 0 1-.095.159 1.06 1.058 0 0 1-.295.309.65.648 0 0 1-.11.05.598.597 0 0 1-.279.018z"/>
	<path fill="red" d="M.988 19.621a.563.561 0 0 1-.235-.048.937.935 0 0 1-.198-.122.933.931 0 0 1-.123-.197.563.561 0 0 1-.047-.234c0-.09.016-.167.047-.235a.938.936 0 0 1 .123-.198L18.629.553a.936.934 0 0 1 .198-.122.563.561 0 0 1 .235-.046.58.578 0 0 1 .424.177.58.578 0 0 1 .178.423.563.563 0 0 1-.046.235.938.936 0 0 1-.122.198L1.42 19.452a.933.931 0 0 1-.198.122.563.561 0 0 1-.234.047" font-family="icomoon" font-size="18.709" font-weight="400"/>
</svg>