<svg
	xmlns="http://www.w3.org/2000/svg" width="20" height="20">
	<path fill="#ff0" d="M1.94.132h16.128c.472 0 .877.17 1.214.509.338.339.506.744.506 1.218v16.18c0 .472-.168.877-.506 1.216a1.652 1.652 0 0 1-1.212.509H1.94c-.47 0-.876-.17-1.213-.509a1.652 1.66 0 0 1-.506-1.218V1.857C.221 1.386.39.98.727.64A1.655 1.655 0 0 1 1.94.132" font-family="icomoon" font-size="19.843" font-weight="400"/>
	<path d="M1.756 0C1.275 0 .862.174.516.52A1.69 1.698 0 0 0 0 1.766V18.31c0 .483.173.9.517 1.245.345.348.758.52 1.239.52h16.467c.482 0 .895-.174 1.239-.52.346-.346.518-.762.518-1.245V1.765a1.7 1.7 0 0 0-.517-1.244A1.69 1.698 0 0 0 18.224 0Zm0 .589h16.467c.326 0 .602.114.83.342.226.23.34.508.34.834V18.31a1.13 1.135 0 0 1-.34.834 1.128 1.134 0 0 1-.83.343H1.756a1.128 1.134 0 0 1-.829-.343 1.13 1.135 0 0 1-.342-.834V1.765c0-.326.114-.605.342-.834A1.13 1.135 0 0 1 1.756.59Z" font-family="icomoon" font-size="17.008" font-weight="400"/>
	<path d="M6.896 13.902a.962.966 0 0 1-.28-.106.71.713 0 0 1-.354-.566l-.007-.06.012-.103a.988.993 0 0 1 .092-.335c.053-.116.124-.227.318-.506a7.11 7.11 0 0 0 .387-.591c.214-.392.333-.784.452-1.511.086-.509.092-.58.216-2.34a88.233 88.65 0 0 1 .07-.944l.009-.107-.09-.007-.093-.007-.195.011-.198.01-.135.025c-.413.07-.65.197-.922.488a4.38 4.4 0 0 0-.493.675l-.044.07h-.27l.009-.037c.015-.07.177-.548.24-.708l.06-.156.102-.205.101-.203.091-.14c.05-.077.13-.19.177-.25l.085-.11.163-.165.164-.165.093-.067c.05-.039.13-.09.173-.114l.083-.043.12-.04.12-.04.146-.03c.08-.015.194-.035.254-.042l.11-.014 3.144-.005 3.144-.005v1.266l-1.039.002c-.573 0-1.043.006-1.044.007-.014.014-.164 1.207-.21 1.672a21.86 21.86 0 0 0-.12 1.769l-.014.472.013.378.014.378.036.134c.04.158.074.25.14.37.12.222.285.369.515.459.59.243 1.223-.053 1.373-.676l.04-.165.007-.03.07-.009c.04-.004.103-.008.139-.008h.067l-.006.043c-.036.254-.106.6-.168.82-.129.462-.297.78-.55 1.048a2.2 2.21 0 0 1-.355.295 2.78 2.78 0 0 1-.168.094 1.247 1.253 0 0 1-1.292-.108l-.092-.067-.113-.117-.112-.118-.065-.098a2.038 2.048 0 0 1-.276-.662 5.642 5.669 0 0 1-.133-.862l-.02-.193-.003-.552-.003-.553.01-.327.009-.325.037-.415c.101-1.165.164-1.758.25-2.411l.031-.23-.008-.009-.008-.008-1.068.003c-.587 0-1.07.004-1.07.005-.004.003-.018.188-.063.84-.035.495-.088 1.217-.122 1.659a28.015 28.015 0 0 1-.32 2.4c-.14.772-.292 1.349-.43 1.623a2.39 2.402 0 0 1-.113.191 1.268 1.274 0 0 1-.353.372.777.78 0 0 1-.132.062.715.719 0 0 1-.333.021z"/>
</svg>