<svg
	xmlns="http://www.w3.org/2000/svg" width="20" height="20">
	<path fill="#fff" d="M1.757 0h16.48c.481 0 .895.173 1.24.518a1.7 1.7 0 0 1 .518 1.241v16.488a1.7 1.7 0 0 1-.518 1.242 1.692 1.692 0 0 1-1.24.517H1.757a1.69 1.69 0 0 1-1.24-.517A1.692 1.693 0 0 1 0 18.247V1.76C0 1.277.172.864.518.518A1.691 1.691 0 0 1 1.758 0" font-family="icomoon" font-size="19.843" font-weight="400"/>
	<path d="m9.48 4.753-.04.007c-.007.005-.018.006-.024.013-.007.008.024.003.034-.003a.146.146 0 0 0 .03-.017z" font-family="icomoon" font-size="17.008" font-weight="400"/>
	<path d="M2.708 1.155c-.426 0-.792.152-1.097.458a1.496 1.497 0 0 0-.458 1.097v14.587c0 .426.153.792.458 1.097.305.306.67.458 1.097.458h14.578c.426 0 .792-.152 1.097-.458.305-.305.457-.671.457-1.097V2.71c0-.426-.152-.792-.457-1.097a1.496 1.497 0 0 0-1.097-.458Zm0 .518h14.578a1 1 0 0 1 .734.303 1 1 0 0 1 .303.734v14.587a1 1 0 0 1-.302.734 1 1 0 0 1-.735.302H2.708a1 1 0 0 1-.734-.302 1 1 0 0 1-.302-.734V2.71a1 1 0 0 1 .302-.734 1 1 0 0 1 .733-.303Z" font-family="icomoon" font-size="17.008" font-weight="400"/>
	<path d="M1.582.001c-.443 0-.818.152-1.123.46A1.527 1.528 0 0 0 0 1.582v16.841c0 .443.152.817.459 1.123.305.307.68.459 1.122.459h16.832a1.52 1.52 0 0 0 1.122-.46c.306-.305.46-.68.46-1.122V1.582c0-.443-.154-.817-.46-1.123A1.527 1.528 0 0 0 18.414 0Zm0 .527h16.83c.287 0 .534.104.743.312.208.21.312.456.312.743v16.841c0 .286-.104.534-.312.743a1.013 1.014 0 0 1-.742.31H1.582a1.014 1.015 0 0 1-.742-.31 1.014 1.015 0 0 1-.313-.743V1.582c0-.287.104-.534.313-.743a1.014 1.015 0 0 1 .742-.311Z" font-family="icomoon" font-size="19.843" font-weight="400"/>
	<path d="M7.558 13.493a.802.802 0 0 1-.233-.088.592.592 0 0 1-.297-.47l-.005-.05.01-.085a.824.825 0 0 1 .076-.279c.045-.096.104-.189.266-.42.17-.24.263-.383.322-.491.179-.326.278-.651.378-1.255.07-.422.076-.481.18-1.943a73.582 73.623 0 0 1 .058-.784l.007-.09-.076-.004-.076-.005-.163.009-.165.009-.113.019c-.343.058-.542.163-.769.405a3.652 3.654 0 0 0-.41.56l-.038.06h-.223l.007-.032c.011-.058.147-.456.199-.588l.05-.13.085-.17.085-.169.075-.115c.042-.065.11-.158.148-.208l.071-.092.136-.137.136-.137.078-.055c.042-.033.108-.075.144-.094l.07-.037.1-.033.1-.033.122-.025c.066-.013.162-.029.212-.035l.092-.011 2.621-.005 2.622-.004v1.051l-.867.002c-.477 0-.87.005-.87.006a32.23 32.23 0 0 0-.176 1.388 17.81 17.81 0 0 0-.099 1.47l-.011.392.011.313.011.315.029.11c.033.132.063.208.117.309.1.183.237.305.43.38.492.202 1.02-.043 1.146-.561l.032-.137.006-.026.06-.006a1.41 1.41 0 0 1 .115-.007h.056l-.006.037c-.03.21-.089.496-.14.678-.108.385-.247.65-.46.872a1.835 1.836 0 0 1-.295.245 1.64 1.64 0 0 1-.14.077 1.04 1.04 0 0 1-1.078-.089l-.076-.055-.095-.098-.093-.098-.054-.08a1.7 1.7 0 0 1-.23-.551 4.705 4.708 0 0 1-.111-.716l-.017-.159-.002-.46-.002-.459.007-.271.008-.27.031-.345c.085-.968.137-1.46.21-2.002l.026-.192-.007-.006-.007-.007-.892.002c-.49 0-.892.004-.893.005a29.73 29.73 0 0 0-.052.698c-.029.411-.072 1.011-.1 1.378a23.72 23.72 0 0 1-.267 1.992c-.116.64-.244 1.12-.36 1.348a1.994 1.995 0 0 1-.093.159 1.057 1.058 0 0 1-.295.309.648.648 0 0 1-.11.05.597.597 0 0 1-.278.019z"/>
</svg>