<svg
	xmlns="http://www.w3.org/2000/svg"
	xmlns:xlink="http://www.w3.org/1999/xlink" xml:space="preserve" width="20" height="20">
	<defs>
		<path id="a" d="M954.424 863.471c-30.296-.244-34.588 8.353-34.14 22.656.463 14.746 7.367 20.007 33.748 19.588l240.627.068-10.134-40.46z"/>
	</defs>
	<path fill="#fff" d="M2.005.296H18.14c.472 0 .877.17 1.214.507.338.338.507.742.507 1.214V18.16c0 .472-.17.876-.506 1.214a1.656 1.657 0 0 1-1.214.507H2.004a1.656 1.657 0 0 1-1.214-.507 1.656 1.657 0 0 1-.506-1.214V2.017c0-.472.169-.876.506-1.214A1.656 1.657 0 0 1 2.004.296" font-family="icomoon" font-size="22.677" font-weight="400"/>
	<path d="M2.704 1.154c-.425 0-.789.152-1.094.457a1.493 1.493 0 0 0-.457 1.095v14.57c0 .427.152.79.457 1.095.305.305.67.457 1.094.457H17.27c.426 0 .79-.152 1.096-.457.304-.304.457-.668.457-1.095V2.706c0-.426-.153-.79-.457-1.095a1.493 1.493 0 0 0-1.096-.457zm0 .517H17.27c.289 0 .532.1.733.302a.997.997 0 0 1 .301.733v14.57c0 .289-.1.532-.301.733a.995.996 0 0 1-.733.302H2.704a.997.997 0 0 1-.732-.302.997.997 0 0 1-.3-.733V2.706c0-.289.1-.532.3-.733a.997.997 0 0 1 .732-.302Z" font-family="icomoon" font-size="17.008" font-weight="400"/>
	<path d="M1.58 0A1.52 1.52 0 0 0 .46.46 1.524 1.524 0 0 0 0 1.581v16.821c0 .442.153.815.46 1.121.305.306.677.46 1.12.46h16.814c.442 0 .815-.156 1.121-.46.305-.306.46-.678.46-1.122V1.58a1.53 1.53 0 0 0-.46-1.122A1.524 1.524 0 0 0 18.395 0zm0 .527h16.814c.287 0 .533.104.742.312.207.208.312.455.312.741v16.822c0 .285-.105.533-.312.742a1.012 1.012 0 0 1-.742.31H1.58a1.012 1.012 0 0 1-.741-.31 1.013 1.014 0 0 1-.313-.742V1.58c0-.285.104-.533.313-.741A1.013 1.014 0 0 1 1.58.527Z" font-family="icomoon" font-size="19.843" font-weight="400"/>
	<g paint-order="stroke markers fill" transform="translate(-10.954 -3.89) scale(.02065)">
		<circle cx="1019.344" cy="445.21" r="109.043"/>
		<path d="M1161.052 725.684c14.97 26.34 24.443 25.858 36.63 18.359 12.564-7.732 13.697-16.338.219-39.02l-130.735-219.837-27.71 26.555z"/>
	</g>
	<g paint-order="stroke markers fill" transform="translate(-10.954 -3.89) scale(.02065)">
		<circle cx="133.021" cy="-1537.865" r="109.043" transform="rotate(119.81)"/>
		<use xlink:href="#a"/>
	</g>
	<g paint-order="stroke markers fill" transform="matrix(-.0104 .01784 -.01783 -.0104 33.618 .805)">
		<circle cx="133.021" cy="-1537.865" r="109.043" transform="rotate(119.81)"/>
		<use xlink:href="#a"/>
	</g>
	<g fill="#f9f9f9" paint-order="stroke markers fill" transform="translate(-10.954 -3.89) scale(.02065)">
		<circle cx="986.209" cy="412.678" r="51.187"/>
		<circle cx="724.746" cy="850.056" r="51.187"/>
		<circle cx="1240.443" cy="850.056" r="51.187"/>
	</g>
	<path fill="red" d="M.984 19.598a.56.56 0 0 1-.234-.047.933.934 0 0 1-.198-.122.93.93 0 0 1-.122-.198.56.56 0 0 1-.046-.234c0-.088.015-.166.046-.234a.934.935 0 0 1 .122-.198L18.558.552a.932.933 0 0 1 .198-.122.56.56 0 0 1 .234-.046.577.577 0 0 1 .422.177.577.577 0 0 1 .177.423.559.559 0 0 1-.045.234.934.935 0 0 1-.122.198L1.416 19.43a.93.93 0 0 1-.198.122.56.56 0 0 1-.233.047" font-family="icomoon" font-size="18.709" font-weight="400"/>
</svg>