<svg
	xmlns="http://www.w3.org/2000/svg"
	xmlns:xlink="http://www.w3.org/1999/xlink" xml:space="preserve" width="20" height="20">
	<defs>
		<path id="a" d="M954.424 863.471c-30.296-.244-34.588 8.353-34.14 22.656.463 14.746 7.367 20.007 33.748 19.588l240.627.068-10.134-40.46z"/>
	</defs>
	<path fill="#fff" d="M1.894.219h16.144c.472 0 .877.169 1.214.507.339.339.508.745.508 1.217v16.174c0 .473-.17.879-.507 1.217a1.657 1.66 0 0 1-1.214.508H1.894a1.657 1.66 0 0 1-1.215-.507 1.657 1.66 0 0 1-.507-1.218V1.943c0-.472.17-.878.507-1.216A1.657 1.66 0 0 1 1.894.219" font-family="icomoon" font-size="22.677" font-weight="400"/>
	<path d="M1.755 0C1.275 0 .863.173.517.519A1.688 1.691 0 0 0 0 1.759v16.49c0 .481.173.894.518 1.24.343.344.756.518 1.238.518h16.46c.48 0 .892-.174 1.238-.519.343-.344.516-.758.516-1.24V1.758c0-.482-.173-.894-.517-1.24A1.688 1.691 0 0 0 18.214 0Zm0 .587h16.46c.326 0 .603.112.83.34.227.228.341.507.341.83V18.25a1.129 1.131 0 0 1-.34.83 1.129 1.131 0 0 1-.83.342H1.755a1.129 1.131 0 0 1-.83-.341 1.129 1.131 0 0 1-.34-.831V1.758c0-.326.113-.603.34-.831a1.129 1.131 0 0 1 .83-.342Z" font-family="icomoon" font-size="17.008" font-weight="400"/>
	<g paint-order="stroke markers fill" transform="matrix(.02477 0 0 .02482 -15.14 -6.695)">
		<circle cx="1019.344" cy="445.21" r="109.043"/>
		<path d="M1161.052 725.684c14.97 26.34 24.443 25.858 36.63 18.359 12.564-7.732 13.697-16.338.219-39.02l-130.735-219.837-27.71 26.555z"/>
	</g>
	<g paint-order="stroke markers fill" transform="matrix(.02477 0 0 .02482 -15.14 -6.695)">
		<circle cx="133.021" cy="-1537.865" r="109.043" transform="rotate(119.81)"/>
		<use xlink:href="#a"/>
	</g>
	<g paint-order="stroke markers fill" transform="matrix(-.01248 .02143 -.0214 -.0125 38.337 -1.055)">
		<circle cx="133.021" cy="-1537.865" r="109.043" transform="rotate(119.81)"/>
		<use xlink:href="#a"/>
	</g>
	<g fill="#f9f9f9" paint-order="stroke markers fill" transform="matrix(.02477 0 0 .02482 -15.14 -6.695)">
		<circle cx="986.209" cy="412.678" r="51.187"/>
		<circle cx="724.746" cy="850.056" r="51.187"/>
		<circle cx="1240.443" cy="850.056" r="51.187"/>
	</g>
	<path fill="red" d="M1.438 19.137a.533.534 0 0 1-.223-.045.892.894 0 0 1-.186-.115.879.88 0 0 1-.116-.187.533.534 0 0 1-.045-.224.533.534 0 0 1 .045-.222.892.894 0 0 1 .116-.187L18.124 1.03a.877.879 0 0 1 .186-.116.533.534 0 0 1 .223-.045c.154 0 .287.057.399.169a.547.548 0 0 1 .17.401.53.53 0 0 1-.045.223.883.884 0 0 1-.116.187L1.847 18.976a.885.887 0 0 1-.187.116.533.534 0 0 1-.222.045" font-family="icomoon" font-size="15.874" font-weight="400"/>
</svg>