<svg
	xmlns="http://www.w3.org/2000/svg" width="20" height="20">
	<defs>
		<clipPath id="a" clipPathUnits="userSpaceOnUse">
			<path fill="red" d="M-2203.19 469.236v131.55h130.026v-131.55z"/>
		</clipPath>
	</defs>
	<path fill="#fff" d="M2.035.31h16.122c.472 0 .876.17 1.213.507.338.338.507.743.507 1.214v16.144c0 .472-.17.877-.506 1.215a1.655 1.657 0 0 1-1.213.507H2.034a1.655 1.657 0 0 1-1.213-.507 1.655 1.657 0 0 1-.506-1.215V2.032c0-.472.17-.877.506-1.214A1.655 1.657 0 0 1 2.034.31" font-family="icomoon" font-size="22.677" font-weight="400"/>
	<path d="M-2164.071 600.669c-1.516-.243-3.06-.862-4.469-1.791-1.338-.884-2.852-2.615-3.625-4.146-1.275-2.525-1.486-5.891-.536-8.536.573-1.596 1.392-2.876 2.636-4.12 1.916-1.915 4.133-2.956 6.796-3.188a10.911 10.911 0 0 1 10.121 4.925c1.241 1.91 1.759 3.656 1.762 5.944 0 1.453-.1 2.178-.478 3.373-1.035 3.275-3.66 5.969-6.895 7.078-1.561.535-3.694.72-5.312.46zm21.584-1.561c-1.48-.109-3.283-.296-3.333-.346-.023-.023.167-.476.422-1.006.797-1.658 1.364-3.616 1.655-5.722.055-.395.098-1.477.097-2.406v-1.69l.644.063c.354.034 1.573.104 2.71.155 4.494.202 9.521-.252 14.003-1.266 9.012-2.04 17.166-6.251 24.148-12.475 1.409-1.256 4.085-4.02 5.3-5.475 7.428-8.888 11.646-19.3 12.541-30.95.13-1.683.13-5.907 0-7.589-.895-11.651-5.113-22.062-12.54-30.95-1.215-1.455-3.892-4.22-5.301-5.476-9.068-8.083-20.059-12.74-32.25-13.666-1.687-.128-5.912-.128-7.588 0-4.718.362-8.941 1.2-13.267 2.632-.827.274-1.53.498-1.562.498-.032 0-.127-.275-.212-.611-.42-1.651-1.429-3.88-2.472-5.46-.725-1.097-1.265-1.761-2.238-2.751l-.756-.77 1.122-.438c4.447-1.733 9.948-3.108 15-3.75 2.962-.376 3.902-.425 8.221-.423 4.567.002 5.946.089 9.394.59 22.948 3.342 42.482 18.808 51.06 40.427 2.76 6.955 4.308 14.497 4.497 21.905.119 4.674-.134 8.522-.84 12.787-2.461 14.882-10.174 28.588-21.677 38.523-6.338 5.474-13.976 9.814-21.904 12.447-4.786 1.589-9.336 2.537-14.797 3.082-1.594.16-8.399.234-10.075.11zm-38.955-16.34c-12.17-10.845-19.81-25.784-21.45-41.954-.237-2.324-.299-3.69-.298-6.577 0-3.863.16-6.14.678-9.687 1.385-9.484 5.024-18.814 10.47-26.841.322-.475.597-.864.61-.864.013 0 .18.263.372.585 1.537 2.587 4.333 5.244 7 6.653l.76.401-.43.67c-4.337 6.76-7.213 14.843-8.113 22.802-.342 3.024-.44 7.291-.23 10.033.94 12.247 5.597 23.227 13.68 32.25.905 1.011 3.212 3.326 4.273 4.29.247.223.436.414.422.423-.015.009-.39.325-.834.703-2.274 1.932-4.135 4.564-5.261 7.442-.172.44-.32.808-.329.817-.01.009-.602-.507-1.32-1.147zm42.074-8.916c-9.037-.32-17.246-3.431-24.211-9.178-1.406-1.16-3.806-3.546-4.956-4.928-5.4-6.487-8.439-13.868-9.201-22.347-.125-1.388-.124-4.881 0-6.366.972-11.498 6.617-21.716 15.815-28.624 9.207-6.916 21.118-9.454 32.455-6.917 2.26.506 5.127 1.435 7.007 2.273l.73.325-.83.551a18.574 18.574 0 0 0-5.279 5.244c-.682 1.019-1.59 2.747-1.927 3.673-.1.275-.215.5-.255.5-.04 0-.576-.132-1.19-.294-5.157-1.356-10.837-1.155-15.814.56-9.22 3.177-16.009 10.916-17.969 20.485-.384 1.874-.463 2.794-.464 5.386 0 2.528.062 3.303.424 5.185 1.992 10.365 9.92 18.749 20.159 21.319 5.741 1.44 11.923.972 17.31-1.313 10.102-4.284 16.691-14.18 16.694-25.073v-1.357l1.056-.14c3.825-.51 7.636-2.326 10.337-4.922l.39-.376.093.535c.48 2.757.598 7.298.268 10.273-.711 6.411-2.779 12.237-6.224 17.538-2.91 4.477-7.092 8.658-11.57 11.569-5.56 3.615-12.011 5.814-18.464 6.295-1.36.102-3.393.159-4.384.124zm-.8-26.8c-5.792-.936-10.252-5.567-10.923-11.342-.126-1.08-.063-2.98.13-3.96 1.034-5.241 5.082-9.277 10.374-10.342 1.155-.232 3.824-.21 4.987.04 5.228 1.128 9.148 5.106 10.2 10.347.213 1.066.213 3.734 0 4.8-1.047 5.22-4.98 9.224-10.157 10.337-1.088.234-3.513.297-4.611.12zm26.179-21.924a11.022 11.022 0 0 1-9.153-9.102c-.201-1.222-.127-3.147.167-4.325 1.239-4.97 5.555-8.374 10.63-8.383 1.387-.002 2.388.159 3.625.585 3.832 1.322 6.585 4.59 7.254 8.612.208 1.249.137 3.186-.16 4.354-.835 3.297-3.018 5.95-6.07 7.38-1.852.869-4.246 1.203-6.293.88zm-63.024-26.642c-4.462-.82-7.893-4.165-8.862-8.64-.195-.9-.22-3.277-.043-4.173.875-4.435 4.196-7.82 8.61-8.778.997-.216 3.377-.222 4.358-.01 2.178.47 4.074 1.49 5.593 3.01a11.014 11.014 0 0 1 3.081 5.908c.19 1.09.128 3.366-.118 4.339-1.046 4.137-3.987 7.113-8.101 8.197-.688.181-1.034.217-2.326.242-1.085.02-1.71-.006-2.192-.095z" clip-path="url(#a)" transform="matrix(.11276 0 0 .1129 250.96 -50.449)"/>
	<path d="M2.734 1.169c-.426 0-.79.152-1.094.457-.305.305-.457.67-.457 1.095v14.572c0 .426.152.79.457 1.095a1.49 1.49 0 0 0 1.094.458h14.553c.425 0 .789-.153 1.094-.458.304-.305.457-.67.457-1.095V2.721c0-.426-.153-.79-.457-1.095a1.49 1.49 0 0 0-1.094-.457zm0 .518h14.553c.287 0 .53.1.732.301a.997.997 0 0 1 .301.733v14.572c0 .288-.1.531-.301.733a.994.994 0 0 1-.732.301H2.734a.995.995 0 0 1-.732-.301.997.997 0 0 1-.302-.733V2.721c0-.287.1-.531.302-.733a.995.995 0 0 1 .732-.3Z" font-family="icomoon" font-size="17.008" font-weight="400"/>
	<path d="M1.61.015C1.168.015.795.17.49.475.185.78.03 1.154.03 1.596v16.822c0 .443.155.816.46 1.121.305.306.678.46 1.12.46h16.8c.442 0 .814-.154 1.12-.46.305-.305.459-.678.459-1.12V1.595c0-.442-.154-.815-.46-1.121a1.522 1.522 0 0 0-1.12-.46Zm0 .527h16.8c.286 0 .533.104.74.312.208.209.312.456.312.742v16.822c0 .287-.104.534-.311.742a1.011 1.011 0 0 1-.741.312H1.61a1.01 1.01 0 0 1-.741-.312 1.014 1.014 0 0 1-.312-.742V1.596c0-.286.104-.533.312-.742.208-.208.455-.312.74-.312Z" font-family="icomoon" font-size="19.843" font-weight="400"/>
	<path fill="red" d="M1.014 19.615a.559.559 0 0 1-.234-.047.933.934 0 0 1-.197-.122.93.93 0 0 1-.122-.197.561.561 0 0 1-.046-.235c0-.087.015-.165.046-.234a.933.935 0 0 1 .122-.197L18.575.568a.93.932 0 0 1 .197-.122.559.559 0 0 1 .234-.047c.163 0 .303.06.422.179s.178.26.178.422a.56.56 0 0 1-.047.235.933.935 0 0 1-.122.197L1.445 19.446a.93.93 0 0 1-.196.122.56.56 0 0 1-.235.047" font-family="icomoon" font-size="18.709" font-weight="400"/>
</svg>