<svg xmlns="http://www.w3.org/2000/svg" width="20" height="20" version="1.2">
    <g font-weight="400" style="fill:none;fill-rule:evenodd;stroke:#000;stroke-width:1;stroke-linecap:square;stroke-linejoin:bevel">
        <g style="font-style:normal;font-weight:400;font-size:19.84250069px;font-family:icomoon;fill:#fff;fill-opacity:1;stroke:none">
            <path d="M2.285-21.125h21.43a2.2 2.2 0 0 1 1.612.673A2.2 2.2 0 0 1 26-18.84V2.59a2.2 2.2 0 0 1-.673 1.612 2.2 2.2 0 0 1-1.612.673H2.285a2.2 2.2 0 0 1-1.612-.673A2.2 2.2 0 0 1 0 2.59v-21.43a2.2 2.2 0 0 1 .673-1.612 2.2 2.2 0 0 1 1.612-.673" font-size="19.843" style="vector-effect:none;fill-rule:nonzero" transform="matrix(.6923 0 0 .6923 1 15.625)"/>
        </g>
        <g style="font-style:normal;font-weight:400;font-size:17.00779915px;font-family:icomoon;fill:#000;fill-opacity:1;stroke:none">
            <path d="M20.979-18.014a1.3 1.3 0 0 1 .954.393 1.3 1.3 0 0 1 .393.955V2.291a1.3 1.3 0 0 1-.393.955 1.3 1.3 0 0 1-.955.393H2.021a1.3 1.3 0 0 1-.954-.393 1.3 1.3 0 0 1-.393-.955v-18.957a1.3 1.3 0 0 1 .393-.955 1.3 1.3 0 0 1 .954-.393h18.957m0-.674H2.021c-.554 0-1.029.199-1.426.596A1.946 1.946 0 0 0 0-16.666V2.291c0 .554.198 1.03.595 1.426.397.397.872.595 1.426.595h18.957c.555 0 1.03-.198 1.427-.595.397-.397.595-.872.595-1.426v-18.957c0-.554-.198-1.03-.595-1.426a1.946 1.946 0 0 0-1.426-.596m-16.33 4.246.787-.023c.539 0 1.164.075 1.875.225.711.15 1.426.419 2.145.808.704.39 1.22.989 1.55 1.797v9.816A10.018 10.018 0 0 0 8.12-3.65a9.746 9.746 0 0 0-3.448-.753l-.023-.023v-10.017M3.91-3.504v-10.444H2.604v11.77h1.303c.689.014 1.363.074 2.022.179a13.92 13.92 0 0 1 1.931.45c.63.194 1.236.433 1.82.718.584.27 1.145.584 1.684.943L11.32.067v-.673c-.509-.435-1.04-.824-1.594-1.168a12.014 12.014 0 0 0-1.786-.888 12.715 12.715 0 0 0-1.943-.595 13.434 13.434 0 0 0-2.066-.247h-.023m14.443-10.938-.786-.023c-.54 0-1.165.075-1.876.225-.711.15-1.426.419-2.145.808-.704.39-1.22.989-1.55 1.797v9.816c.839-.764 1.8-1.374 2.886-1.83a9.745 9.745 0 0 1 3.448-.753l.023-.023v-10.017m.74 10.938v-10.444h1.303v11.77h-1.302c-.689.014-1.363.074-2.022.179a13.92 13.92 0 0 0-1.931.45c-.63.194-1.236.433-1.82.718-.584.27-1.145.584-1.684.943l.045-.045v-.673c.509-.435 1.04-.824 1.594-1.168a12.01 12.01 0 0 1 1.786-.888 12.714 12.714 0 0 1 1.943-.595 13.436 13.436 0 0 1 2.066-.247h.023" font-size="17.008" style="vector-effect:none;fill-rule:nonzero" transform="matrix(.6923 0 0 .6923 2.038 14.976)"/>
        </g>
        <g style="font-style:normal;font-weight:400;font-size:19.84250069px;font-family:icomoon;fill:#000;fill-opacity:1;stroke:none">
            <path d="M23.943-20.44c.373 0 .694.136.965.407.271.27.406.592.406.965V2.818c0 .373-.135.694-.406.965-.27.271-.592.406-.965.406H2.057c-.373 0-.694-.135-.965-.406a1.318 1.318 0 0 1-.406-.965v-21.886c0-.373.135-.694.406-.965.27-.271.592-.407.965-.407h21.886m0-.685H2.057c-.576 0-1.063.199-1.46.597A1.986 1.986 0 0 0 0-19.068V2.818c0 .576.199 1.063.597 1.46.397.398.884.597 1.46.597h21.886c.576 0 1.063-.199 1.46-.597.398-.397.597-.884.597-1.46v-21.886c0-.576-.199-1.063-.597-1.46a1.986 1.986 0 0 0-1.46-.597" font-size="19.843" style="vector-effect:none;fill-rule:nonzero" transform="matrix(.6923 0 0 .6923 1 15.625)"/>
        </g>
    </g>
</svg>
