<svg
	xmlns="http://www.w3.org/2000/svg" width="20" height="20">
	<defs>
		<clipPath id="a" clipPathUnits="userSpaceOnUse">
			<path fill="red" stroke-width=".265" d="M32.017 225.513v.183a.807.807 0 0 1 .079-.032c.08-.028.179-.047.261-.005.046.023.077.068.115.103.014.05.04.1.041.152.003.13-.063.23-.147.323a1.166 1.166 0 0 1-.163.14l-.01.008a1.287 1.287 0 0 1-.176.588v1.469h3.554v-2.929zm.201.404a.395.395 0 0 0-.116.03c.016.038.03.077.048.114l.002.012c.107-.118.011-.02.068-.114.003-.005.01-.007.015-.01.01-.002.023.002.03-.005.005-.005.003-.02-.004-.022a.117.117 0 0 0-.043-.005z"/>
		</clipPath>
	</defs>
	<path fill="#fdfd00" d="M1.758 0h16.484c.482 0 .895.173 1.24.518.345.345.518.758.518 1.24v16.484c0 .482-.173.895-.518 1.24a1.692 1.692 0 0 1-1.24.518H1.758c-.482 0-.895-.173-1.24-.518A1.692 1.692 0 0 1 0 18.242V1.758C0 1.276.173.863.518.518A1.692 1.692 0 0 1 1.758 0" font-family="icomoon" font-size="22.677" font-weight="400"/>
	<path d="M3.754 2.333c-.37 0-.686.133-.95.397a1.297 1.297 0 0 0-.397.951v12.638c0 .37.132.686.396.95.265.265.582.398.951.398h12.638c.37 0 .687-.133.951-.397.265-.265.397-.582.397-.95V3.68c0-.37-.132-.686-.397-.95a1.297 1.297 0 0 0-.95-.398zm0 .45h12.638c.25 0 .462.087.637.262a.867.867 0 0 1 .262.636v12.638c0 .25-.088.462-.262.636a.866.866 0 0 1-.637.262H3.754a.867.867 0 0 1-.636-.262.866.866 0 0 1-.262-.636V3.681c0-.25.087-.462.262-.636a.867.867 0 0 1 .636-.262Zm2.264 3.06c-.004.02-.01.035-.016.053l.029.002z" font-family="icomoon" font-size="17.008" font-weight="400"/>
	<path d="M17.617 1.426a.92.92 0 0 1 .674.283.92.92 0 0 1 .283.674v15.234a.92.92 0 0 1-.283.674.92.92 0 0 1-.674.283H2.383a.92.92 0 0 1-.674-.283.92.92 0 0 1-.283-.674V2.383a.92.92 0 0 1 .283-.674.92.92 0 0 1 .674-.283h15.234m0-.469H2.383c-.39 0-.726.14-1.006.42-.28.28-.42.615-.42 1.006v15.234c0 .39.14.726.42 1.006.28.28.615.42 1.006.42h15.234c.39 0 .726-.14 1.006-.42.28-.28.42-.615.42-1.006V2.383c0-.39-.14-.726-.42-1.006-.28-.28-.615-.42-1.006-.42m.957-.488a.92.92 0 0 1 .674.283.92.92 0 0 1 .283.674v17.148a.92.92 0 0 1-.283.674.92.92 0 0 1-.674.283H1.426a.92.92 0 0 1-.674-.283.92.92 0 0 1-.283-.674V1.426A.92.92 0 0 1 .752.752a.92.92 0 0 1 .674-.283h17.148m0-.469H1.426C1.036 0 .7.14.42.42.14.7 0 1.035 0 1.426v17.148c0 .39.14.726.42 1.006.28.28.615.42 1.006.42h17.148c.39 0 .726-.14 1.006-.42.28-.28.42-.615.42-1.006V1.426c0-.39-.14-.726-.42-1.006C19.3.14 18.965 0 18.574 0" font-family="icomoon" font-size="22.677" font-weight="400"/>
	<path d="M6.868 13.98c.107-1.656.698-5.125 3.497-6.663.623-.343 1.613-.78 2.362-1.268 1.021-.665 2.72-2.039 2.886-2.245.208-.257.367 4.27-1.466 7.027-1.904 2.865-7.279 3.15-7.279 3.15z"/>
	<path fill="#ff0" d="M7.566 13.335c.568-1.17 1.329-2.34 2.37-3.275 1.008-.905 2.51-1.498 3.441-2.475.584-.611 1.05-1.416 1.401-2.195-.17.844-.488 1.66-1.066 2.402-.877 1.128-2.234 1.698-3.334 2.608-1.11.918-1.89 1.914-2.812 2.935z"/>
	<path fill="#020202" d="M32.59 228.18c-.198.002-.363 0-.57 0 .136-.11 0 .001.061-.051l3.102-2.561a.263.263 0 0 1 .322 0 .165.165 0 0 1 0 .265l-2.8 2.254a.895.895 0 0 1-.115.093z" clip-path="url(#a)" transform="translate(-28.077 -211.968)"/>
</svg>