<svg
	xmlns="http://www.w3.org/2000/svg" width="20" height="20">
	<defs>
		<clipPath id="a" clipPathUnits="userSpaceOnUse">
			<path fill="red" stroke-width=".265" d="M32.017 225.513v.183a.807.807 0 0 1 .079-.032c.08-.028.179-.047.261-.005.046.023.077.068.115.103.014.05.04.1.041.152.003.13-.063.23-.147.323a1.166 1.166 0 0 1-.163.14l-.01.008a1.287 1.287 0 0 1-.176.588v1.469h3.554v-2.929zm.201.404a.395.395 0 0 0-.116.03c.016.038.03.077.048.114l.002.012c.107-.118.011-.02.068-.114.003-.005.01-.007.015-.01.01-.002.023.002.03-.005.005-.005.003-.02-.004-.022a.117.117 0 0 0-.043-.005z"/>
		</clipPath>
	</defs>
	<path fill="#fff" d="M1.758 0h16.484c.482 0 .895.173 1.24.517.345.346.518.759.518 1.24v16.486c0 .482-.173.895-.517 1.24a1.692 1.692 0 0 1-1.24.518H1.757a1.692 1.692 0 0 1-1.24-.518A1.692 1.692 0 0 1 0 18.243V1.758C0 1.276.173.863.517.518A1.692 1.692 0 0 1 1.757 0" font-family="icomoon" font-size="22.677" font-weight="400"/>
	<path d="M3.754 2.333c-.37 0-.686.133-.95.398a1.297 1.297 0 0 0-.398.95V16.32c0 .369.133.686.397.95.265.265.582.397.951.397h12.638c.37 0 .686-.132.95-.397.265-.264.398-.581.398-.95V3.682c0-.37-.133-.687-.397-.951a1.297 1.297 0 0 0-.95-.397zm0 .45h12.638c.25 0 .462.087.636.262a.866.866 0 0 1 .263.637V16.32c0 .25-.088.461-.263.636a.866.866 0 0 1-.636.262H3.754a.867.867 0 0 1-.636-.262.866.866 0 0 1-.262-.636V3.682c0-.25.087-.462.262-.637a.867.867 0 0 1 .636-.262Zm2.264 3.061c-.004.02-.011.035-.016.052l.029.002z" font-family="icomoon" font-size="17.008" font-weight="400"/>
	<path d="M17.617 1.426a.92.92 0 0 1 .674.283c.19.189.283.414.283.674v15.234a.92.92 0 0 1-.283.674.92.92 0 0 1-.674.283H2.383a.92.92 0 0 1-.674-.283.92.92 0 0 1-.283-.674V2.383a.92.92 0 0 1 .283-.674.92.92 0 0 1 .674-.283h15.234m0-.469H2.383c-.391 0-.726.14-1.006.42-.28.28-.42.615-.42 1.006v15.234c0 .391.14.726.42 1.006.28.28.615.42 1.006.42h15.234c.391 0 .726-.14 1.006-.42.28-.28.42-.615.42-1.006V2.383c0-.391-.14-.726-.42-1.006-.28-.28-.615-.42-1.006-.42m.957-.488a.92.92 0 0 1 .674.283.92.92 0 0 1 .283.673v17.15a.92.92 0 0 1-.283.674.92.92 0 0 1-.673.283H1.425a.92.92 0 0 1-.674-.283.92.92 0 0 1-.283-.674V1.427A.92.92 0 0 1 .751.753a.92.92 0 0 1 .674-.284h17.148m0-.468H1.427A1.37 1.37 0 0 0 .42.42C.14.7 0 1.036 0 1.427v17.147c0 .39.14.727.42 1.007.28.279.616.419 1.007.419h17.146c.391 0 .727-.14 1.007-.42.28-.28.42-.615.42-1.006V1.426c0-.39-.14-.727-.42-1.007A1.38 1.38 0 0 0 18.572 0" font-family="icomoon" font-size="22.677" font-weight="400"/>
	<path d="M6.926 13.981c.106-1.657.698-5.126 3.497-6.665.623-.342 1.613-.78 2.361-1.268 1.022-.664 2.72-2.038 2.886-2.244.209-.258.367 4.27-1.466 7.027-1.904 2.865-7.278 3.15-7.278 3.15z"/>
	<path fill="#fff" d="M7.624 13.335c.567-1.17 1.328-2.34 2.37-3.275 1.007-.905 2.509-1.499 3.441-2.475.584-.611 1.049-1.416 1.4-2.195-.169.844-.488 1.66-1.065 2.402-.878 1.127-2.235 1.698-3.335 2.608-1.11.918-1.89 1.913-2.811 2.935z"/>
	<path fill="#020202" d="M32.59 228.18c-.198.002-.363 0-.57 0 .136-.11 0 .001.061-.051l3.102-2.561a.263.263 0 0 1 .322 0 .165.165 0 0 1 0 .265l-2.8 2.254a.895.895 0 0 1-.115.093z" clip-path="url(#a)" transform="translate(-28.02 -211.968)"/>
</svg>