<svg
	xmlns="http://www.w3.org/2000/svg" width="20" height="20">
	<defs>
		<clipPath id="a" clipPathUnits="userSpaceOnUse">
			<path fill="red" stroke-width=".265" d="M32.017 225.513v.183a.807.807 0 0 1 .079-.032c.08-.028.179-.047.261-.005.046.023.077.068.115.103.014.05.04.1.041.152.003.13-.063.23-.147.323a1.166 1.166 0 0 1-.163.14l-.01.008a1.287 1.287 0 0 1-.176.588v1.469h3.554v-2.929zm.201.404a.395.395 0 0 0-.116.03c.016.038.03.077.048.114l.002.012c.107-.118.011-.02.068-.114.003-.005.01-.007.015-.01.01-.002.023.002.03-.005.005-.005.003-.02-.004-.022a.117.117 0 0 0-.043-.005z"/>
		</clipPath>
	</defs>
	<path fill="#ff0" d="M1.943.13h16.148c.473 0 .878.17 1.215.508.34.337.507.741.507 1.214V17.98c0 .47-.168.875-.507 1.214a1.661 1.661 0 0 1-1.213.505H1.94c-.471 0-.877-.169-1.214-.507A1.654 1.654 0 0 1 .22 17.98V1.852C.22 1.38.388.977.727.639A1.657 1.657 0 0 1 1.94.132" font-family="icomoon" font-size="19.843" font-weight="400"/>
	<path d="M1.758 0C1.276 0 .863.173.518.518A1.692 1.693 0 0 0 0 1.758v16.494c0 .482.173.895.518 1.24.345.346.758.518 1.24.518h16.49a1.7 1.7 0 0 0 1.24-.517c.345-.346.517-.76.517-1.241V1.758c0-.481-.173-.895-.517-1.24A1.692 1.693 0 0 0 18.248 0Zm0 .587h16.49c.325 0 .6.113.829.342.228.226.343.504.343.83v16.493a1.131 1.131 0 0 1-.343.83 1.13 1.13 0 0 1-.83.343H1.757a1.13 1.13 0 0 1-.829-.343 1.131 1.131 0 0 1-.342-.83V1.758c0-.325.114-.601.342-.83a1.131 1.131 0 0 1 .83-.342Z" font-family="icomoon" font-size="17.008" font-weight="400"/>
	<path d="M5.826 15.054c.142-2.21.93-6.838 4.663-8.89.831-.457 2.152-1.041 3.15-1.692 1.362-.886 3.628-2.72 3.85-2.994.277-.344.489 5.696-1.956 9.374-2.539 3.822-9.707 4.202-9.707 4.202z"/>
	<path fill="#ff0" d="M6.756 14.194c.758-1.562 1.773-3.123 3.161-4.372 1.345-1.206 3.348-1.998 4.59-3.3.778-.815 1.4-1.889 1.868-2.928-.227 1.126-.65 2.214-1.422 3.204-1.17 1.504-2.98 2.265-4.446 3.48-1.48 1.224-2.52 2.551-3.75 3.915z"/>
	<path fill="#020202" d="M32.59 228.18c-.198.002-.363 0-.57 0 .136-.11 0 .001.061-.051l3.102-2.561a.263.263 0 0 1 .322 0 .165.165 0 0 1 0 .265l-2.8 2.254a.895.895 0 0 1-.115.093z" clip-path="url(#a)" transform="matrix(1.33368 0 0 1.33401 -40.78 -286.365)"/>
</svg>