<svg xmlns="http://www.w3.org/2000/svg" width="20" height="20" version="1.2">
    <g font-weight="400" style="fill:none;fill-rule:evenodd;stroke:#000;stroke-width:1;stroke-linecap:square;stroke-linejoin:bevel">
        <g style="font-style:normal;font-weight:400;font-size:17.00779915px;font-family:icomoon;fill:#fff;fill-opacity:1;stroke:none">
            <path d="M2.021-18.688h18.957c.555 0 1.03.199 1.427.596.397.396.595.872.595 1.426V2.291c0 .554-.198 1.03-.595 1.426a1.946 1.946 0 0 1-1.427.595H2.021c-.554 0-1.029-.198-1.426-.595A1.946 1.946 0 0 1 0 2.291v-18.957c0-.554.198-1.03.595-1.426a1.946 1.946 0 0 1 1.426-.596" font-size="17.008" style="vector-effect:none;fill-rule:nonzero" transform="matrix(.65217 0 0 .65217 2.5 14.687)"/>
        </g>
        <g style="font-style:normal;font-weight:400;font-size:17.00779915px;font-family:icomoon;fill:#000;fill-opacity:1;stroke:none">
            <path d="M20.979-18.014a1.3 1.3 0 0 1 .954.393 1.3 1.3 0 0 1 .393.955V2.291a1.3 1.3 0 0 1-.393.955 1.3 1.3 0 0 1-.955.393H2.021a1.3 1.3 0 0 1-.954-.393 1.3 1.3 0 0 1-.393-.955v-18.957a1.3 1.3 0 0 1 .393-.955 1.3 1.3 0 0 1 .954-.393h18.957m0-.674H2.021c-.554 0-1.029.199-1.426.596A1.946 1.946 0 0 0 0-16.666V2.291c0 .554.198 1.03.595 1.426.397.397.872.595 1.426.595h18.957c.555 0 1.03-.198 1.427-.595.397-.397.595-.872.595-1.426v-18.957c0-.554-.198-1.03-.595-1.426a1.946 1.946 0 0 0-1.426-.596M17.9-2.224a7.77 7.77 0 0 0 1.258-2.28c.3-.845.45-1.74.45-2.684 0-.943-.15-1.838-.45-2.684a8.087 8.087 0 0 0-1.258-2.302v.023l.045-.045-.606-.607-.225-.224-.606-.607-.045.045a7.771 7.771 0 0 0-2.28-1.258c-.846-.3-1.74-.449-2.684-.449-.943 0-1.838.15-2.684.45-.846.299-1.614.718-2.302 1.257h.022l-.045-.045-.606.607-.225.224-.606.607.045.045a7.77 7.77 0 0 0-1.258 2.28c-.3.845-.45 1.74-.45 2.683 0 .944.15 1.839.45 2.685.3.846.719 1.613 1.258 2.302v-.023l-.045.045.606.607.225.224.606.607.045-.045C7.21-.247 7.97.172 8.816.472c.846.3 1.74.449 2.684.449.943 0 1.838-.15 2.684-.45a8.085 8.085 0 0 0 2.302-1.257h-.022l.045.045.606-.607a.808.808 0 0 0 .225-.224l.606-.607-.045-.045m-.314-4.963c0 .658-.101 1.287-.303 1.886a6.434 6.434 0 0 1-.843 1.662l.023-.022-3.526-3.526 3.526-3.527c.344.494.618 1.04.82 1.64.202.599.303 1.228.303 1.886M11.5-13.274a5.86 5.86 0 0 1 1.887.303 6.433 6.433 0 0 1 1.662.842l-.023-.022L11.5-8.625l-3.526-3.526a6.467 6.467 0 0 1 1.64-.82 5.861 5.861 0 0 1 1.886-.303M5.413-7.188c0-.658.101-1.287.303-1.886a6.433 6.433 0 0 1 .843-1.662l-.023.022 3.527 3.526L6.535-3.66a6.465 6.465 0 0 1-.82-1.64 5.86 5.86 0 0 1-.303-1.886M11.5-1.101a5.86 5.86 0 0 1-1.887-.303 6.433 6.433 0 0 1-1.662-.842l.023.022L11.5-5.75l3.526 3.526a6.466 6.466 0 0 1-1.64.82A5.86 5.86 0 0 1 11.5-1.1" font-size="17.008" style="vector-effect:none;fill-rule:nonzero" transform="matrix(.65217 0 0 .65217 2.5 14.687)"/>
        </g>
    </g>
</svg>
