<svg xmlns="http://www.w3.org/2000/svg" width="20" height="20" version="1.2">
    <g font-weight="400" style="fill:none;fill-rule:evenodd;stroke:#000;stroke-width:1;stroke-linecap:square;stroke-linejoin:bevel">
        <g style="font-style:normal;font-weight:400;font-size:17.00779915px;font-family:icomoon;fill:#fff;fill-opacity:1;stroke:none">
            <path d="M2.021-18.688h18.957c.555 0 1.03.199 1.427.596.397.396.595.872.595 1.426V2.291c0 .554-.198 1.03-.595 1.426a1.946 1.946 0 0 1-1.427.595H2.021c-.554 0-1.029-.198-1.426-.595A1.946 1.946 0 0 1 0 2.291v-18.957c0-.554.198-1.03.595-1.426a1.946 1.946 0 0 1 1.426-.596" font-size="17.008" style="vector-effect:none;fill-rule:nonzero" transform="matrix(.65217 0 0 .65217 2.5 14.687)"/>
        </g>
        <g style="font-style:normal;font-weight:400;font-size:17.00779915px;font-family:icomoon;fill:#000;fill-opacity:1;stroke:none">
            <path d="M20.979-18.014a1.3 1.3 0 0 1 .954.393 1.3 1.3 0 0 1 .393.955V2.291a1.3 1.3 0 0 1-.393.955 1.3 1.3 0 0 1-.955.393H2.021a1.3 1.3 0 0 1-.954-.393 1.3 1.3 0 0 1-.393-.955v-18.957a1.3 1.3 0 0 1 .393-.955 1.3 1.3 0 0 1 .954-.393h18.957m0-.674H2.021c-.554 0-1.029.199-1.426.596A1.946 1.946 0 0 0 0-16.666V2.291c0 .554.198 1.03.595 1.426.397.397.872.595 1.426.595h18.957c.555 0 1.03-.198 1.427-.595.397-.397.595-.872.595-1.426v-18.957c0-.554-.198-1.03-.595-1.426a1.946 1.946 0 0 0-1.426-.596M16.396-2.134H6.604v-4.38h1.01v3.37h7.772v-3.37h1.01v4.38M11.5-16.014l-6.424 3.189h12.848l-6.424-3.19m-4.784 9.86h-.09a2.637 2.637 0 0 1-1.92-.785 2.58 2.58 0 0 1-.798-1.91v-.089c0-.974.356-1.685 1.067-2.134.711-.45 1.322-.711 1.83-.786h.046c.09 0 .168.033.235.1a.323.323 0 0 1 .101.237c0 .09-.026.164-.078.224a.35.35 0 0 1-.213.112c-.045 0-.442.143-1.19.427-.75.285-1.124.899-1.124 1.842v.067c0 .57.198 1.052.595 1.45.397.396.88.594 1.449.594h.09a3.86 3.86 0 0 0 1.493-.303c.487-.202.73-.618.73-1.246-.03-.3-.153-.558-.37-.775a1.242 1.242 0 0 0-.775-.371 1.517 1.517 0 0 0-.382-.045c-.24 0-.464.06-.674.18-.21.12-.367.284-.471.494a.5.5 0 0 1-.124.157.283.283 0 0 1-.19.068.323.323 0 0 1-.237-.102.35.35 0 0 1-.1-.258v-.056a.18.18 0 0 1 .022-.079v.023c.164-.33.404-.595.718-.797a1.91 1.91 0 0 1 1.056-.304c.09 0 .18.004.27.012.09.007.18.026.27.056h-.023c.464.06.853.258 1.168.595.314.337.486.73.516 1.18v.022c0 .703-.254 1.246-.763 1.628-.51.382-1.22.573-2.134.573m9.568 0c-.913 0-1.625-.191-2.134-.573-.509-.382-.763-.932-.763-1.65.03-.465.202-.866.516-1.203a1.78 1.78 0 0 1 1.168-.572v-.023c.075-.015.157-.03.247-.045s.18-.022.27-.022c.39 0 .741.1 1.056.303.314.202.554.468.718.797a.18.18 0 0 1 .023.079v.056c0 .09-.034.169-.101.236a.323.323 0 0 1-.236.101.32.32 0 0 1-.191-.056.39.39 0 0 1-.124-.146 1.224 1.224 0 0 0-.471-.505 1.276 1.276 0 0 0-.674-.191.836.836 0 0 0-.202.022l-.18.045c-.3.03-.558.15-.775.36-.217.209-.34.464-.37.763 0 .644.243 1.063.73 1.258a3.99 3.99 0 0 0 1.493.292h.09c.569 0 1.052-.199 1.449-.595.397-.397.595-.873.595-1.427v-.045c0-.015-.008-.03-.023-.044h.023c0-.944-.386-1.554-1.157-1.831l-1.157-.415a.328.328 0 0 1-.213-.124.342.342 0 0 1-.079-.213.35.35 0 0 1 .102-.259.323.323 0 0 1 .235-.1c.015 0 .027.003.034.01l.011.012c.51.075 1.12.333 1.83.775.712.441 1.068 1.156 1.068 2.145v.089a2.58 2.58 0 0 1-.798 1.91 2.636 2.636 0 0 1-1.92.786h-.09M6.851-11.86h9.388v.673H6.851v-.673M4.065-1.146h14.87V1.55H4.065v-2.696" font-size="17.008" style="vector-effect:none;fill-rule:nonzero" transform="matrix(.65217 0 0 .65217 2.5 14.687)"/>
        </g>
    </g>
</svg>
