<svg xmlns="http://www.w3.org/2000/svg" width="20" height="20" version="1.2">
    <g font-weight="400" style="fill:none;fill-rule:evenodd;stroke:#000;stroke-width:1;stroke-linecap:square;stroke-linejoin:bevel">
        <g style="font-style:normal;font-weight:400;font-size:17.00779915px;font-family:icomoon;fill:#fff;fill-opacity:1;stroke:none">
            <path d="M2.021-18.688h18.957c.555 0 1.03.199 1.427.596.397.396.595.872.595 1.426V2.291c0 .554-.198 1.03-.595 1.426a1.946 1.946 0 0 1-1.427.595H2.021c-.554 0-1.029-.198-1.426-.595A1.946 1.946 0 0 1 0 2.291v-18.957c0-.554.198-1.03.595-1.426a1.946 1.946 0 0 1 1.426-.596" font-size="17.008" style="vector-effect:none;fill-rule:nonzero" transform="matrix(.65217 0 0 .65217 2.5 14.687)"/>
        </g>
        <g style="font-style:normal;font-weight:400;font-size:17.00779915px;font-family:icomoon;fill:#000;fill-opacity:1;stroke:none">
            <path d="M20.979-18.014a1.3 1.3 0 0 1 .954.393 1.3 1.3 0 0 1 .393.955V2.291a1.3 1.3 0 0 1-.393.955 1.3 1.3 0 0 1-.955.393H2.021a1.3 1.3 0 0 1-.954-.393 1.3 1.3 0 0 1-.393-.955v-18.957a1.3 1.3 0 0 1 .393-.955 1.3 1.3 0 0 1 .954-.393h18.957m0-.674H2.021c-.554 0-1.029.199-1.426.596A1.946 1.946 0 0 0 0-16.666V2.291c0 .554.198 1.03.595 1.426.397.397.872.595 1.426.595h18.957c.555 0 1.03-.198 1.427-.595.397-.397.595-.872.595-1.426v-18.957c0-.554-.198-1.03-.595-1.426a1.946 1.946 0 0 0-1.426-.596M18.71-6.153a3.36 3.36 0 0 0-.629-.259 2.49 2.49 0 0 0-.719-.1 2.59 2.59 0 0 0-1.213.291 2.608 2.608 0 0 0-.92.786h-.023l-3.032-1.751 3.032-1.752c.255.329.57.591.943.786a2.59 2.59 0 0 0 1.213.292c.749 0 1.39-.266 1.92-.798a2.618 2.618 0 0 0 .798-1.92 2.58 2.58 0 0 0-.797-1.91 2.636 2.636 0 0 0-1.92-.785 2.61 2.61 0 0 0-1.899.786 2.58 2.58 0 0 0-.797 1.909c0 .195.019.382.056.561.038.18.094.352.169.517l-.023-.022-3.032 1.752v-3.482a2.665 2.665 0 0 0 1.684-.887c.45-.502.674-1.097.674-1.786 0-.748-.262-1.389-.786-1.92a2.58 2.58 0 0 0-1.909-.798 2.58 2.58 0 0 0-1.91.798 2.637 2.637 0 0 0-.785 1.92c0 .689.224 1.284.674 1.786.449.502 1.003.797 1.662.887h.022v3.504L8.108-9.523c.075-.15.131-.315.169-.495.037-.18.056-.366.056-.561a2.58 2.58 0 0 0-.797-1.91 2.636 2.636 0 0 0-1.92-.785 2.6 2.6 0 0 0-1.91.786 2.6 2.6 0 0 0-.786 1.909c0 .749.262 1.389.786 1.92a2.58 2.58 0 0 0 1.91.798A2.637 2.637 0 0 0 7.77-8.94l3.055 1.752-3.032 1.751a2.823 2.823 0 0 0-.943-.786 2.59 2.59 0 0 0-1.213-.292c-.749 0-1.39.266-1.92.798a2.618 2.618 0 0 0-.798 1.92c0 .749.266 1.385.797 1.91a2.637 2.637 0 0 0 1.92.785 2.61 2.61 0 0 0 1.899-.786 2.58 2.58 0 0 0 .797-1.909c0-.195-.019-.382-.056-.561a2.454 2.454 0 0 0-.169-.517l.023.022 3.032-1.752V-3.1c-.674.09-1.235.39-1.684.899a2.629 2.629 0 0 0-.674 1.797 2.6 2.6 0 0 0 .786 1.909 2.6 2.6 0 0 0 1.909.786 2.6 2.6 0 0 0 1.91-.786 2.6 2.6 0 0 0 .785-1.91c0-.688-.224-1.287-.674-1.796A2.628 2.628 0 0 0 11.86-3.1h-.022v-3.504l3.055 1.752a2.506 2.506 0 0 0-.225 1.056c0 .749.266 1.385.797 1.91a2.636 2.636 0 0 0 1.92.785c.75 0 1.386-.262 1.91-.786a2.6 2.6 0 0 0 .786-1.909c0-.494-.124-.95-.37-1.37a2.574 2.574 0 0 0-.978-.966l-.022-.022" font-size="17.008" style="vector-effect:none;fill-rule:nonzero" transform="matrix(.65217 0 0 .65217 2.5 14.687)"/>
        </g>
    </g>
</svg>
