<?xml version="1.0" encoding="UTF-8" standalone="no"?>
<svg
   width="20"
   height="20"
   version="1.2"
   id="svg4"
   sodipodi:docname="60401010111.svg"
   inkscape:version="1.3 (0e150ed6c4, 2023-07-21)"
   xmlns:inkscape="http://www.inkscape.org/namespaces/inkscape"
   xmlns:sodipodi="http://sodipodi.sourceforge.net/DTD/sodipodi-0.dtd"
   xmlns="http://www.w3.org/2000/svg"
   xmlns:svg="http://www.w3.org/2000/svg">
  <defs
     id="defs4" />
  <sodipodi:namedview
     id="namedview4"
     pagecolor="#505050"
     bordercolor="#eeeeee"
     borderopacity="1"
     inkscape:showpageshadow="0"
     inkscape:pageopacity="0"
     inkscape:pagecheckerboard="0"
     inkscape:deskcolor="#505050"
     inkscape:zoom="59.05"
     inkscape:cx="10.008467"
     inkscape:cy="10"
     inkscape:window-width="2560"
     inkscape:window-height="1377"
     inkscape:window-x="2552"
     inkscape:window-y="-8"
     inkscape:window-maximized="1"
     inkscape:current-layer="svg4" />
  <g
     font-weight="400"
     id="g4">
    <g
       style="font-style:normal;font-weight:400;font-size:22.67709923px;font-family:icomoon;fill:#fff;fill-opacity:1;fill-rule:evenodd;stroke:none;stroke-width:1;stroke-linecap:square;stroke-linejoin:bevel"
       id="g1">
      <path
         d="M2.637-24.375h24.726c.723 0 1.343.259 1.86.776.518.518.777 1.138.777 1.86V2.989c0 .723-.259 1.343-.776 1.86a2.538 2.538 0 0 1-1.86.777H2.636a2.538 2.538 0 0 1-1.86-.776A2.538 2.538 0 0 1 0 2.989v-24.727c0-.723.259-1.343.776-1.86a2.538 2.538 0 0 1 1.86-.777"
         font-size="22.677"
         style="vector-effect:none;fill-rule:nonzero"
         transform="matrix(.66667 0 0 .66667 0 16.25)"
         id="path1" />
    </g>
    <g
       style="font-style:normal;font-weight:400;font-size:17.00779915px;font-family:icomoon;fill:#000;fill-opacity:1;fill-rule:evenodd;stroke:none;stroke-width:1;stroke-linecap:square;stroke-linejoin:bevel"
       id="g2">
      <path
         d="m 20.979,-18.014 c 0.358597,-0.0062 0.703826,0.136011 0.954,0.393 0.257244,0.250413 0.399483,0.596058 0.393,0.955 V 2.291 c 0.0065,0.3589421 -0.135756,0.7045865 -0.393,0.955 -0.250413,0.2572442 -0.596058,0.3994832 -0.955,0.393 H 2.021 C 1.6624032,3.6452057 1.317174,3.5029886 1.067,3.246 0.80975579,2.9955865 0.66751679,2.6499421 0.674,2.291 v -18.957 c -0.006483,-0.358942 0.13575579,-0.704587 0.393,-0.955 0.250174,-0.256989 0.5954032,-0.399206 0.954,-0.393 h 18.957 m 0,-0.674 H 2.021 c -0.554,0 -1.029,0.199 -1.426,0.596 -0.38663199,0.37285 -0.6019638,0.888922 -0.595,1.426 V 2.291 c 0,0.554 0.198,1.03 0.595,1.426 0.397,0.397 0.872,0.595 1.426,0.595 h 18.957 c 0.555,0 1.03,-0.198 1.427,-0.595 C 22.802,3.32 23,2.845 23,2.291 v -18.957 c 0,-0.554 -0.198,-1.03 -0.595,-1.426 -0.372678,-0.387 -0.888773,-0.602703 -1.426,-0.596"
         font-size="17.008px"
         style="vector-effect:none;fill-rule:nonzero"
         transform="matrix(0.66667,0,0,0.66667,2.333,14.792)"
         id="path2"
         sodipodi:nodetypes="ccccccccccccccsccscssssscc" />
    </g>
    <g
       style="font-style:normal;font-weight:400;font-size:22.67709923px;font-family:icomoon;fill:#000;fill-opacity:1;fill-rule:evenodd;stroke:none;stroke-width:1;stroke-linecap:square;stroke-linejoin:bevel"
       id="g3">
      <path
         d="M26.426-22.236c.39 0 .727.141 1.01.425.284.283.425.62.425 1.01V2.051c0 .39-.141.727-.425 1.01a1.38 1.38 0 0 1-1.01.425H3.574a1.38 1.38 0 0 1-1.01-.424 1.38 1.38 0 0 1-.425-1.011v-22.852c0-.39.141-.727.424-1.01a1.38 1.38 0 0 1 1.011-.425h22.852m0-.703H3.574c-.586 0-1.089.21-1.509.63-.42.42-.63.922-.63 1.508V2.051c0 .586.21 1.089.63 1.509.42.42.923.63 1.51.63h22.85c.587 0 1.09-.21 1.51-.63.42-.42.63-.923.63-1.51V-20.8c0-.587-.21-1.09-.63-1.51-.42-.42-.923-.63-1.51-.63m1.436-.732c.391 0 .728.142 1.011.425.283.283.425.62.425 1.01V3.487c0 .39-.142.728-.425 1.011a1.38 1.38 0 0 1-1.01.425H2.138a1.38 1.38 0 0 1-1.011-.425 1.38 1.38 0 0 1-.425-1.01v-25.723c0-.391.142-.728.425-1.011a1.38 1.38 0 0 1 1.01-.425h25.723m0-.703H2.14c-.586 0-1.09.21-1.51.63-.419.42-.629.923-.629 1.509V3.486c0 .586.21 1.09.63 1.51.42.419.923.629 1.509.629H27.86c.586 0 1.09-.21 1.51-.63.419-.42.629-.923.629-1.509v-25.722c0-.586-.21-1.09-.63-1.51-.42-.419-.923-.629-1.509-.629"
         font-size="22.677"
         style="vector-effect:none;fill-rule:nonzero"
         transform="matrix(.66667 0 0 .66667 0 16.25)"
         id="path3" />
    </g>
  </g>
  <path
     d="M 13.192543,13.294772 H 6.8064943 V 10.438268 H 7.465186 v 2.197813 h 5.068666 v -2.197813 h 0.658691 v 2.856504 M 9.9995183,4.2426522 5.8099785,6.3224223 H 14.189059 L 9.9995183,4.242 m -3.119981,6.430397 H 6.8208423 C 6.3510429,10.679997 5.898604,10.494982 5.5686759,10.160443 5.2289328,9.836073 5.0402459,9.384454 5.0482443,8.914798 v -0.05804 c 0,-0.635213 0.2321725,-1.098906 0.6958654,-1.391731 C 6.2078025,7.1715507 6.6062784,7.0013343 6.9375808,6.9524216 h 0.03 c 0.058695,0 0.1095645,0.021522 0.1532599,0.065217 0.042442,0.040157 0.066299,0.096137 0.065869,0.1545643 0,0.058695 -0.016956,0.1069561 -0.050869,0.1460861 -0.036215,0.04 -0.08543,0.06588 -0.1389122,0.07304 -0.029348,0 -0.2882591,0.09326 -0.7760823,0.278477 -0.4891278,0.185868 -0.7330394,0.5863 -0.7330394,1.201297 v 0.04369 c 0,0.371737 0.1291297,0.686083 0.3880412,0.945646 0.2589115,0.25826 0.5739096,0.38739 0.9449943,0.38739 h 0.058695 c 0.334468,-5.31e-4 0.665477,-0.06771 0.9736901,-0.197608 C 8.1708342,9.918483 8.3293115,9.64718 8.3293115,9.237617 8.3097465,9.041966 8.2295295,8.873706 8.0880086,8.732186 7.9536832,8.59397 7.7744747,8.508181 7.5825769,8.49023 7.5011159,8.46992 7.4173997,8.46006 7.3334479,8.46088 7.1769271,8.46088 7.0308411,8.50001 6.8938854,8.57827 6.7569297,8.65653 6.654539,8.763487 6.5867133,8.900442 c -0.019783,0.03923 -0.04729,0.07406 -0.080869,0.102391 -0.034451,0.02951 -0.078562,0.04529 -0.1239124,0.04435 -0.058525,2.6e-4 -0.1145209,-0.02384 -0.1545643,-0.06652 -0.043928,-0.04475 -0.067512,-0.105596 -0.065217,-0.16826 v -0.03652 c 7.548e-4,-0.01805 0.00566,-0.03568 0.014348,-0.05152 v 0.015 C 6.2834542,8.524146 6.439975,8.351321 6.6447564,8.219583 6.8499423,8.08746 7.0894192,8.018519 7.3334479,8.021323 c 0.058695,0 0.1173906,0.0026 0.1760859,0.0078 0.058695,0.0046 0.1173906,0.01696 0.1760859,0.03652 h -0.015 c 0.3026069,0.03913 0.556301,0.16826 0.7617346,0.388041 0.2047814,0.219782 0.3169546,0.476084 0.3365197,0.769561 v 0.01435 c 0,0.458476 -0.1656512,0.812604 -0.4976057,1.061733 -0.3326067,0.249129 -0.7956474,0.373694 -1.3917308,0.373694 m 6.2399625,0 c -0.595431,0 -1.059776,-0.124565 -1.39173,-0.373694 -0.331955,-0.249134 -0.497606,-0.607827 -0.497606,-1.076085 0.01957,-0.303259 0.131738,-0.56478 0.33652,-0.784561 0.19777,-0.215975 0.469859,-0.349225 0.761734,-0.373041 v -0.015 c 0.04891,-0.0098 0.102391,-0.01957 0.161086,-0.02935 0.0587,-0.0098 0.117391,-0.01435 0.176086,-0.01435 0.254346,0 0.483258,0.06522 0.688691,0.197607 0.204782,0.131739 0.361303,0.305216 0.468259,0.51978 0.0089,0.01578 0.01404,0.03342 0.015,0.05152 v 0.03652 c 0,0.0587 -0.02217,0.110217 -0.06587,0.153912 -0.04,0.04228 -0.09571,0.06612 -0.153912,0.06587 -0.04435,0.0014 -0.08798,-0.01141 -0.124564,-0.03652 C 13.458744,8.97111 13.430944,8.93838 13.412324,8.90041 13.343664,8.763421 13.237031,8.649089 13.105152,8.571064 12.973122,8.489344 12.820862,8.446199 12.665589,8.4465 12.621259,8.445908 12.577019,8.4507 12.533851,8.46085 L 12.41646,8.4902 c -0.195651,0.01957 -0.363911,0.09783 -0.505432,0.234781 -0.141521,0.136303 -0.221738,0.302607 -0.241303,0.497605 0,0.419998 0.158478,0.693257 0.476084,0.820431 0.309346,0.125337 0.639917,0.189989 0.97369,0.190433 h 0.0587 c 0.371084,0 0.686082,-0.129782 0.944994,-0.388041 0.258911,-0.258912 0.388041,-0.569345 0.388041,-0.930647 v -0.02935 c 0,-0.0098 -0.0052,-0.01957 -0.015,-0.0287 h 0.015 c 0,-0.615648 -0.251738,-1.013472 -0.754561,-1.194123 L 13.002113,7.39198 C 12.947053,7.38411 12.897231,7.355101 12.8632,7.311111 12.8307,7.27203 12.81252,7.223021 12.81168,7.1721991 12.80958,7.1091201 12.83363,7.047973 12.8782,7.003287 c 0.03996,-0.04187 0.09538,-0.065455 0.15326,-0.065217 0.0098,0 0.01761,0.00196 0.02217,0.00652 l 0.0072,0.00783 c 0.332607,0.048913 0.73043,0.2171726 1.193471,0.505432 0.464345,0.287607 0.696518,0.753908 0.696518,1.398904 v 0.05804 c 0.008,0.469656 -0.180689,0.921275 -0.520432,1.245645 -0.329775,0.334843 -0.782256,0.520078 -1.252166,0.512606 h -0.0587 M 6.9675803,6.9517664 H 13.090153 V 7.390677 H 6.9675803 V 6.9517664 M 5.1506347,13.939116 h 9.6977683 v 1.758251 H 5.1506347 v -1.758251"
     font-size="17.008px"
     style="font-style:normal;font-weight:400;font-family:icomoon;vector-effect:none;fill:#000000;fill-opacity:1;fill-rule:nonzero;stroke:none;stroke-width:0.65217;stroke-linecap:square;stroke-linejoin:bevel;font-variation-settings:normal;opacity:1;stroke-miterlimit:4;stroke-dasharray:none;stroke-dashoffset:0;stroke-opacity:1;-inkscape-stroke:none;stop-color:#000000;stop-opacity:1"
     id="path2-0"
     sodipodi:nodetypes="cccccccccccccccccsccscccccsscsccccccscccccccccccccccscccccccccscccsccccccccccccscsscccccccccccscccccccccccccc" />
</svg>
