<?xml version="1.0" encoding="UTF-8" standalone="no"?>
<svg
   width="20"
   height="20"
   version="1.2"
   id="svg3"
   sodipodi:docname="60401010131.svg"
   inkscape:version="1.3 (0e150ed6c4, 2023-07-21)"
   xmlns:inkscape="http://www.inkscape.org/namespaces/inkscape"
   xmlns:sodipodi="http://sodipodi.sourceforge.net/DTD/sodipodi-0.dtd"
   xmlns="http://www.w3.org/2000/svg"
   xmlns:svg="http://www.w3.org/2000/svg">
  <defs
     id="defs3" />
  <sodipodi:namedview
     id="namedview3"
     pagecolor="#505050"
     bordercolor="#eeeeee"
     borderopacity="1"
     inkscape:showpageshadow="0"
     inkscape:pageopacity="0"
     inkscape:pagecheckerboard="0"
     inkscape:deskcolor="#505050"
     inkscape:zoom="59.05"
     inkscape:cx="10.008467"
     inkscape:cy="10"
     inkscape:window-width="2560"
     inkscape:window-height="1377"
     inkscape:window-x="2552"
     inkscape:window-y="-8"
     inkscape:window-maximized="1"
     inkscape:current-layer="svg3" />
  <g
     font-weight="400"
     style="fill:none;fill-rule:evenodd;stroke:#000;stroke-width:1;stroke-linecap:square;stroke-linejoin:bevel"
     id="g3">
    <g
       style="font-style:normal;font-weight:400;font-size:17.00779915px;font-family:icomoon;fill:#fff;fill-opacity:1;stroke:none"
       id="g1">
      <path
         d="M2.021-18.688h18.957c.555 0 1.03.199 1.427.596.397.396.595.872.595 1.426V2.291c0 .554-.198 1.03-.595 1.426a1.946 1.946 0 0 1-1.427.595H2.021c-.554 0-1.029-.198-1.426-.595A1.946 1.946 0 0 1 0 2.291v-18.957c0-.554.198-1.03.595-1.426a1.946 1.946 0 0 1 1.426-.596"
         font-size="17.008"
         style="vector-effect:none;fill-rule:nonzero"
         transform="matrix(.65217 0 0 .65217 2.5 14.687)"
         id="path1" />
    </g>
    <g
       style="font-style:normal;font-weight:400;font-size:17.00779915px;font-family:icomoon;fill:#000;fill-opacity:1;stroke:none"
       id="g2">
      <path
         d="m 20.979,-18.014 c 0.358597,-0.0062 0.703826,0.136011 0.954,0.393 0.257244,0.250413 0.399483,0.596058 0.393,0.955 V 2.291 c 0.0065,0.3589421 -0.135756,0.7045865 -0.393,0.955 -0.250413,0.2572442 -0.596058,0.3994832 -0.955,0.393 H 2.021 C 1.6624032,3.6452057 1.317174,3.5029886 1.067,3.246 0.80975579,2.9955865 0.66751679,2.6499421 0.674,2.291 v -18.957 c -0.006483,-0.358942 0.13575579,-0.704587 0.393,-0.955 0.250174,-0.256989 0.5954032,-0.399206 0.954,-0.393 h 18.957 m 0,-0.674 H 2.021 c -0.554,0 -1.029,0.199 -1.426,0.596 -0.38663199,0.37285 -0.6019638,0.888922 -0.595,1.426 V 2.291 c 0,0.554 0.198,1.03 0.595,1.426 0.397,0.397 0.872,0.595 1.426,0.595 h 18.957 c 0.555,0 1.03,-0.198 1.427,-0.595 C 22.802,3.32 23,2.845 23,2.291 v -18.957 c 0,-0.554 -0.198,-1.03 -0.595,-1.426 -0.372678,-0.387 -0.888773,-0.602703 -1.426,-0.596"
         font-size="17.008px"
         style="vector-effect:none;fill-rule:nonzero"
         transform="matrix(0.65217,0,0,0.65217,2.5,14.687)"
         id="path2"
         sodipodi:nodetypes="ccccccccccccccsccscssssscc" />
    </g>
  </g>
  <path
     d="M 13.316431,13.477836 H 6.9303828 v -2.856504 h 0.6586914 v 2.197813 H 12.65774 v -2.197813 h 0.658691 v 2.856504 M 10.123407,4.4257157 5.933867,6.5054858 h 8.37908 L 10.123407,4.4250635 M 7.0034258,10.855461 H 6.9447305 C 6.4749311,10.863028 6.0224922,10.678046 5.6925641,10.343507 5.352821,10.019137 5.1641341,9.5675175 5.1721325,9.0978615 v -0.05804 c 0,-0.6352135 0.2321725,-1.0989064 0.6958654,-1.3917307 C 6.3316907,7.3546142 6.7301666,7.1843978 7.061469,7.1354851 h 0.03 c 0.058695,0 0.1095642,0.021522 0.1532602,0.065217 0.04244,0.040157 0.0663,0.096137 0.06587,0.1545643 0,0.058695 -0.01696,0.1069558 -0.05087,0.146086 -0.03621,0.040001 -0.08543,0.06588 -0.1389125,0.073043 -0.029348,0 -0.2882591,0.09326 -0.7760823,0.2784766 C 5.8556066,8.0387375 5.611695,8.4391695 5.611695,9.0541665 v 0.04369 c 0,0.371737 0.1291297,0.686083 0.3880412,0.9456465 0.2589115,0.25826 0.5739096,0.38739 0.9449943,0.38739 h 0.058695 c 0.3344677,-5.31e-4 0.6654767,-0.06771 0.9736897,-0.197608 0.317607,-0.131738 0.476084,-0.4030415 0.476084,-0.8126045 -0.01957,-0.195651 -0.09978,-0.363911 -0.241302,-0.505431 -0.134326,-0.138216 -0.313534,-0.224005 -0.505432,-0.241956 -0.08146,-0.02031 -0.165177,-0.03017 -0.249129,-0.02935 -0.156521,0 -0.3026069,0.03913 -0.4395626,0.11739 -0.1369557,0.07826 -0.2393464,0.185217 -0.3071721,0.322172 -0.019783,0.03923 -0.04729,0.07406 -0.080869,0.102391 -0.034451,0.02951 -0.078562,0.04529 -0.1239124,0.04435 -0.058525,2.6e-4 -0.1145209,-0.02384 -0.1545643,-0.06652 -0.043928,-0.04475 -0.067512,-0.105596 -0.065217,-0.16826 v -0.03652 c 7.548e-4,-0.01805 0.00566,-0.03568 0.014348,-0.05152 v 0.015 C 6.4073424,8.7072115 6.5638632,8.5343865 6.7686446,8.4026484 6.9738305,8.270525 7.2133072,8.2015847 7.4573362,8.2043887 c 0.0587,0 0.117391,0.00261 0.176086,0.00783 0.0587,0.00457 0.11739,0.016957 0.176086,0.036522 h -0.015 c 0.302607,0.03913 0.556301,0.1682598 0.761734,0.3880408 0.204782,0.219782 0.316955,0.476084 0.33652,0.769561 v 0.01435 c 0,0.458476 -0.165651,0.8126045 -0.497606,1.0617335 -0.332606,0.249129 -0.795647,0.373694 -1.3917305,0.373694 m 6.2399623,0 c -0.595431,0 -1.059776,-0.124565 -1.39173,-0.373694 -0.331955,-0.249134 -0.497606,-0.6078275 -0.497606,-1.0760855 0.01957,-0.303259 0.131738,-0.56478 0.33652,-0.784561 0.19777,-0.2159753 0.469859,-0.3492247 0.761734,-0.3730412 v -0.015 c 0.04891,-0.00978 0.102391,-0.019565 0.161086,-0.029348 0.0587,-0.00978 0.117391,-0.014348 0.176086,-0.014348 0.254346,0 0.483258,0.065217 0.688691,0.1976075 0.204782,0.1317387 0.361303,0.3052157 0.468259,0.5197797 0.0089,0.01578 0.01404,0.03342 0.015,0.05152 v 0.03652 c 0,0.0587 -0.02217,0.110217 -0.06587,0.153912 -0.04,0.04228 -0.09571,0.06612 -0.153912,0.06587 -0.04435,0.0014 -0.08798,-0.01141 -0.124564,-0.03652 -0.03445,-0.02452 -0.06225,-0.05725 -0.08087,-0.09522 -0.06866,-0.136989 -0.175293,-0.251321 -0.307172,-0.329346 -0.13203,-0.08172 -0.28429,-0.124865 -0.439563,-0.124564 -0.04433,-5.92e-4 -0.08857,0.0042 -0.131738,0.01435 l -0.117391,0.02935 c -0.195651,0.01957 -0.363911,0.09783 -0.505432,0.234781 -0.141521,0.136303 -0.221738,0.302607 -0.241303,0.497605 0,0.419998 0.158478,0.6932575 0.476084,0.8204315 0.309346,0.125337 0.639917,0.189989 0.97369,0.190433 h 0.0587 c 0.371084,0 0.686082,-0.129782 0.944994,-0.388041 0.258911,-0.2589125 0.388041,-0.5693455 0.388041,-0.9306475 v -0.02935 c 0,-0.0098 -0.0052,-0.01957 -0.015,-0.0287 h 0.015 c 0,-0.6156483 -0.251738,-1.013472 -0.754561,-1.1941231 l -0.75456,-0.2706506 c -0.05506,-0.00787 -0.104882,-0.036879 -0.138913,-0.080869 -0.0325,-0.039081 -0.05068,-0.08809 -0.05152,-0.1389122 -0.0021,-0.063079 0.02195,-0.1242261 0.06652,-0.1689121 0.03996,-0.04187 0.09538,-0.065455 0.15326,-0.065217 0.0098,0 0.01761,0.00196 0.02217,0.00652 l 0.0072,0.00783 c 0.332607,0.048913 0.73043,0.2171726 1.193471,0.5054317 0.464345,0.287607 0.696518,0.7539085 0.696518,1.3989043 v 0.05804 c 0.008,0.469656 -0.180689,0.9212755 -0.520432,1.2456455 -0.329775,0.334843 -0.782256,0.520078 -1.252166,0.512606 h -0.0587 M 7.0914688,7.1348299 H 13.214041 V 7.5737403 H 7.0914688 V 7.1348299 M 5.2745232,14.12218 h 9.6977678 v 1.758251 H 5.2745232 V 14.12218"
     font-size="17.008px"
     style="font-style:normal;font-weight:400;font-family:icomoon;vector-effect:none;fill:#000000;fill-opacity:1;fill-rule:nonzero;stroke:none;stroke-width:0.65217;stroke-linecap:square;stroke-linejoin:bevel"
     id="path2-3"
     sodipodi:nodetypes="cccccccccccccccccsccscccccsscsccccccscccccccccccccccscccccccccscccsccccccccccccscsscccccccccccscccccccccccccc" />
</svg>
