<svg xmlns="http://www.w3.org/2000/svg" width="20" height="20" version="1.2">
    <g font-weight="400" style="fill:none;fill-rule:evenodd;stroke:#000;stroke-width:1;stroke-linecap:square;stroke-linejoin:bevel">
        <g style="font-style:normal;font-weight:400;font-size:19.84250069px;font-family:icomoon;fill:#fff;fill-opacity:1;stroke:none">
            <path d="M2.285-21.125h21.43a2.2 2.2 0 0 1 1.612.673A2.2 2.2 0 0 1 26-18.84V2.59a2.2 2.2 0 0 1-.673 1.612 2.2 2.2 0 0 1-1.612.673H2.285a2.2 2.2 0 0 1-1.612-.673A2.2 2.2 0 0 1 0 2.59v-21.43a2.2 2.2 0 0 1 .673-1.612 2.2 2.2 0 0 1 1.612-.673" font-size="19.843" style="vector-effect:none;fill-rule:nonzero" transform="matrix(.6923 0 0 .6923 1 15.625)"/>
        </g>
        <g style="font-style:normal;font-weight:400;font-size:17.00779915px;font-family:icomoon;fill:#000;fill-opacity:1;stroke:none">
            <path d="M20.979-18.014a1.3 1.3 0 0 1 .954.393 1.3 1.3 0 0 1 .393.955V2.291a1.3 1.3 0 0 1-.393.955 1.3 1.3 0 0 1-.955.393H2.021a1.3 1.3 0 0 1-.954-.393 1.3 1.3 0 0 1-.393-.955v-18.957a1.3 1.3 0 0 1 .393-.955 1.3 1.3 0 0 1 .954-.393h18.957m0-.674H2.021c-.554 0-1.029.199-1.426.596A1.946 1.946 0 0 0 0-16.666V2.291c0 .554.198 1.03.595 1.426.397.397.872.595 1.426.595h18.957c.555 0 1.03-.198 1.427-.595.397-.397.595-.872.595-1.426v-18.957c0-.554-.198-1.03-.595-1.426a1.946 1.946 0 0 0-1.426-.596m-.854 8.962h-2.246a2.19 2.19 0 0 0 .034-.247c.007-.09.01-.18.01-.27 0-.703-.246-1.302-.74-1.796a2.447 2.447 0 0 0-1.797-.741 2.26 2.26 0 0 0-.719.112c-.225.075-.434.18-.629.314v-.022a2.442 2.442 0 0 0-.775-1.696 2.414 2.414 0 0 0-1.74-.707c-.66 0-1.228.22-1.708.662-.479.442-.748.985-.808 1.629a2.994 2.994 0 0 0-.562-.214 2.412 2.412 0 0 0-.629-.078c-.688 0-1.28.247-1.774.74a2.421 2.421 0 0 0-.741 1.775v.045c0 .09.004.176.011.259.007.082.019.16.034.235H3.1L6.424-2.74h10.152l3.549-6.986M9.411-12.219h4.403c-.3.24-.536.528-.708.865a2.407 2.407 0 0 0-.258 1.112c0 .09.007.18.022.27.015.09.03.172.045.246H10.31c.015-.074.026-.157.033-.247.008-.09.012-.18.012-.27 0-.388-.087-.755-.259-1.1a2.722 2.722 0 0 0-.685-.876M10.826-1.01c0 .464-.168.865-.505 1.202a1.667 1.667 0 0 1-1.224.505c-.465 0-.865-.168-1.202-.505a1.641 1.641 0 0 1-.505-1.202c0-.479.168-.887.505-1.224a1.641 1.641 0 0 1 1.202-.505c.479 0 .887.168 1.224.505.337.337.505.745.505 1.224m5.458 0c0 .464-.168.865-.505 1.202a1.641 1.641 0 0 1-1.202.505c-.479 0-.887-.168-1.224-.505a1.641 1.641 0 0 1-.505-1.202c0-.479.168-.887.505-1.224a1.667 1.667 0 0 1 1.224-.505c.464 0 .865.168 1.202.505.337.337.505.745.505 1.224" font-size="17.008" style="vector-effect:none;fill-rule:nonzero" transform="matrix(.6923 0 0 .6923 2.038 14.976)"/>
        </g>
        <g style="font-style:normal;font-weight:400;font-size:19.84250069px;font-family:icomoon;fill:#000;fill-opacity:1;stroke:none">
            <path d="M23.943-20.44c.373 0 .694.136.965.407.271.27.406.592.406.965V2.818c0 .373-.135.694-.406.965-.27.271-.592.406-.965.406H2.057c-.373 0-.694-.135-.965-.406a1.318 1.318 0 0 1-.406-.965v-21.886c0-.373.135-.694.406-.965.27-.271.592-.407.965-.407h21.886m0-.685H2.057c-.576 0-1.063.199-1.46.597A1.986 1.986 0 0 0 0-19.068V2.818c0 .576.199 1.063.597 1.46.397.398.884.597 1.46.597h21.886c.576 0 1.063-.199 1.46-.597.398-.397.597-.884.597-1.46v-21.886c0-.576-.199-1.063-.597-1.46a1.986 1.986 0 0 0-1.46-.597" font-size="19.843" style="vector-effect:none;fill-rule:nonzero" transform="matrix(.6923 0 0 .6923 1 15.625)"/>
        </g>
        <g style="font-style:normal;font-weight:400;font-size:18.70859909px;font-family:icomoon;fill:red;fill-opacity:1;stroke:none">
            <path d="M.781 4.688a.73.73 0 0 1-.305-.062 1.214 1.214 0 0 1-.256-.158A1.214 1.214 0 0 1 .06 4.21.73.73 0 0 1 0 3.906a.73.73 0 0 1 .061-.305c.04-.09.094-.175.159-.256l23.437-23.438c.082-.065.167-.118.257-.159a.73.73 0 0 1 .305-.06c.211 0 .394.077.55.231a.751.751 0 0 1 .231.55.73.73 0 0 1-.061.305c-.04.09-.094.175-.159.256L1.343 4.468a1.214 1.214 0 0 1-.257.158.73.73 0 0 1-.305.061" font-size="18.709" style="vector-effect:none;fill-rule:nonzero" transform="matrix(.6923 0 0 .6923 1.346 15.409)"/>
        </g>
    </g>
</svg>
