<svg xmlns="http://www.w3.org/2000/svg" width="20" height="20" version="1.2">
    <g font-weight="400" style="fill:none;fill-rule:evenodd;stroke:#000;stroke-width:1;stroke-linecap:square;stroke-linejoin:bevel">
        <g style="font-style:normal;font-weight:400;font-size:17.00779915px;font-family:icomoon;fill:#fff;fill-opacity:1;stroke:none">
            <path d="M2.021-18.688h18.957c.555 0 1.03.199 1.427.596.397.396.595.872.595 1.426V2.291c0 .554-.198 1.03-.595 1.426a1.946 1.946 0 0 1-1.427.595H2.021c-.554 0-1.029-.198-1.426-.595A1.946 1.946 0 0 1 0 2.291v-18.957c0-.554.198-1.03.595-1.426a1.946 1.946 0 0 1 1.426-.596" font-size="17.008" style="vector-effect:none;fill-rule:nonzero" transform="matrix(.65217 0 0 .65217 2.5 14.687)"/>
        </g>
        <g style="font-style:normal;font-weight:400;font-size:17.00779915px;font-family:icomoon;fill:#000;fill-opacity:1;stroke:none">
            <path d="M20.979-18.014a1.3 1.3 0 0 1 .954.393 1.3 1.3 0 0 1 .393.955V2.291a1.3 1.3 0 0 1-.393.955 1.3 1.3 0 0 1-.955.393H2.021a1.3 1.3 0 0 1-.954-.393 1.3 1.3 0 0 1-.393-.955v-18.957a1.3 1.3 0 0 1 .393-.955 1.3 1.3 0 0 1 .954-.393h18.957m0-.674H2.021c-.554 0-1.029.199-1.426.596A1.946 1.946 0 0 0 0-16.666V2.291c0 .554.198 1.03.595 1.426.397.397.872.595 1.426.595h18.957c.555 0 1.03-.198 1.427-.595.397-.397.595-.872.595-1.426v-18.957c0-.554-.198-1.03-.595-1.426a1.946 1.946 0 0 0-1.426-.596M18.598-1.1v-11.297h-.966c0-.944-.337-1.752-1.01-2.426-.675-.674-1.483-1.011-2.427-1.011a3.368 3.368 0 0 0-2.83 1.482h-.022a3.509 3.509 0 0 0-1.213-1.078 3.323 3.323 0 0 0-1.617-.404c-.944 0-1.752.337-2.426 1.01-.674.675-1.01 1.483-1.01 2.427v11.297h-2.27v2.583h17.385V-1.1h-1.594m-4.403-13.386c.584 0 1.082.202 1.494.606.412.404.618.899.618 1.483h-1.1v11.297h-2.112v-11.297h-1.011c0-.584.206-1.079.618-1.483.411-.404.91-.606 1.493-.606h.023-.023m-7.771 2.089c0-.57.206-1.06.617-1.472a2.009 2.009 0 0 1 1.472-.617c.584 0 1.078.206 1.482.617.404.412.607.903.607 1.472H9.479v11.297H6.424v-11.297" font-size="17.008" style="vector-effect:none;fill-rule:nonzero" transform="matrix(.65217 0 0 .65217 2.5 14.687)"/>
        </g>
    </g>
</svg>
