<svg xmlns="http://www.w3.org/2000/svg" width="20" height="20" version="1.2">
    <g font-weight="400" style="fill:none;fill-rule:evenodd;stroke:#000;stroke-width:1;stroke-linecap:square;stroke-linejoin:bevel">
        <g style="font-style:normal;font-weight:400;font-size:19.84250069px;font-family:icomoon;fill:#fff;fill-opacity:1;stroke:none">
            <path d="M2.285-21.125h21.43a2.2 2.2 0 0 1 1.612.673A2.2 2.2 0 0 1 26-18.84V2.59a2.2 2.2 0 0 1-.673 1.612 2.2 2.2 0 0 1-1.612.673H2.285a2.2 2.2 0 0 1-1.612-.673A2.2 2.2 0 0 1 0 2.59v-21.43a2.2 2.2 0 0 1 .673-1.612 2.2 2.2 0 0 1 1.612-.673" font-size="19.843" style="vector-effect:none;fill-rule:nonzero" transform="matrix(.6923 0 0 .6923 1 15.625)"/>
        </g>
        <g style="font-style:normal;font-weight:400;font-size:17.00779915px;font-family:icomoon;fill:#000;fill-opacity:1;stroke:none">
            <path d="M20.979-18.014a1.3 1.3 0 0 1 .954.393 1.3 1.3 0 0 1 .393.955V2.291a1.3 1.3 0 0 1-.393.955 1.3 1.3 0 0 1-.955.393H2.021a1.3 1.3 0 0 1-.954-.393 1.3 1.3 0 0 1-.393-.955v-18.957a1.3 1.3 0 0 1 .393-.955 1.3 1.3 0 0 1 .954-.393h18.957m0-.674H2.021c-.554 0-1.029.199-1.426.596A1.946 1.946 0 0 0 0-16.666V2.291c0 .554.198 1.03.595 1.426.397.397.872.595 1.426.595h18.957c.555 0 1.03-.198 1.427-.595.397-.397.595-.872.595-1.426v-18.957c0-.554-.198-1.03-.595-1.426a1.946 1.946 0 0 0-1.426-.596m-.674 14.982h-.697a.805.805 0 0 0-.415.112 1.276 1.276 0 0 0-.326.27v.022H17.52V-4.2h3.302v-5.615h-2.65c-.33 0-.61.116-.842.348a1.147 1.147 0 0 0-.349.842v.292h-1.145v-2.426H12.78v1.954l-2.021-1.684 2.268-1.64-.988-1.37-2.628 1.932-3.526-3.055-1.078 1.303 3.19 2.74-3.01 2.201h-.832L2.09-5.21h3.84l.27-1.976L9.344-9.48l2.762 2.359v2.897h2.022v.899h-1.146a1.102 1.102 0 0 0-.325-.292.847.847 0 0 0-.438-.113h-.674a.925.925 0 0 0-.663.27.895.895 0 0 0-.28.674v.674c0 .254.093.475.28.662.188.187.408.281.663.281h.674a.89.89 0 0 0 .64-.247.983.983 0 0 0 .303-.606v-.023h5.503c0 .27.094.494.28.674.188.18.409.27.663.27h.697a.87.87 0 0 0 .651-.281.925.925 0 0 0 .27-.663V-2.763c0-.27-.09-.494-.27-.674a.888.888 0 0 0-.651-.269m-6.85-4.627v-1.752h1.706v1.752h-1.707" font-size="17.008" style="vector-effect:none;fill-rule:nonzero" transform="matrix(.6923 0 0 .6923 2.038 14.976)"/>
        </g>
        <g style="font-style:normal;font-weight:400;font-size:19.84250069px;font-family:icomoon;fill:#000;fill-opacity:1;stroke:none">
            <path d="M23.943-20.44c.373 0 .694.136.965.407.271.27.406.592.406.965V2.818c0 .373-.135.694-.406.965-.27.271-.592.406-.965.406H2.057c-.373 0-.694-.135-.965-.406a1.318 1.318 0 0 1-.406-.965v-21.886c0-.373.135-.694.406-.965.27-.271.592-.407.965-.407h21.886m0-.685H2.057c-.576 0-1.063.199-1.46.597A1.986 1.986 0 0 0 0-19.068V2.818c0 .576.199 1.063.597 1.46.397.398.884.597 1.46.597h21.886c.576 0 1.063-.199 1.46-.597.398-.397.597-.884.597-1.46v-21.886c0-.576-.199-1.063-.597-1.46a1.986 1.986 0 0 0-1.46-.597" font-size="19.843" style="vector-effect:none;fill-rule:nonzero" transform="matrix(.6923 0 0 .6923 1 15.625)"/>
        </g>
    </g>
</svg>
