<svg xmlns="http://www.w3.org/2000/svg" width="20" height="20" version="1.2">
    <g font-weight="400" style="fill:none;fill-rule:evenodd;stroke:#000;stroke-width:1;stroke-linecap:square;stroke-linejoin:bevel">
        <g style="font-style:normal;font-weight:400;font-size:19.84250069px;font-family:icomoon;fill:#ff0;fill-opacity:1;stroke:none">
            <path d="M2.285-21.125h21.43a2.2 2.2 0 0 1 1.612.673A2.2 2.2 0 0 1 26-18.84V2.59a2.2 2.2 0 0 1-.673 1.612 2.2 2.2 0 0 1-1.612.673H2.285a2.2 2.2 0 0 1-1.612-.673A2.2 2.2 0 0 1 0 2.59v-21.43a2.2 2.2 0 0 1 .673-1.612 2.2 2.2 0 0 1 1.612-.673" font-size="19.843" style="vector-effect:none;fill-rule:nonzero" transform="matrix(.6923 0 0 .6923 1 15.625)"/>
        </g>
        <g style="font-style:normal;font-weight:400;font-size:17.00779915px;font-family:icomoon;fill:#000;fill-opacity:1;stroke:none">
            <path d="M20.979-18.014a1.3 1.3 0 0 1 .954.393 1.3 1.3 0 0 1 .393.955V2.291a1.3 1.3 0 0 1-.393.955 1.3 1.3 0 0 1-.955.393H2.021a1.3 1.3 0 0 1-.954-.393 1.3 1.3 0 0 1-.393-.955v-18.957a1.3 1.3 0 0 1 .393-.955 1.3 1.3 0 0 1 .954-.393h18.957m0-.674H2.021c-.554 0-1.029.199-1.426.596A1.946 1.946 0 0 0 0-16.666V2.291c0 .554.198 1.03.595 1.426.397.397.872.595 1.426.595h18.957c.555 0 1.03-.198 1.427-.595.397-.397.595-.872.595-1.426v-18.957c0-.554-.198-1.03-.595-1.426a1.946 1.946 0 0 0-1.426-.596M6.222-7.569a.71.71 0 0 0 .28.235.814.814 0 0 0 .349.08h.067a.172.172 0 0 0 .067-.023 7.25 7.25 0 0 0 1.629-.36c.516-.18 1-.412 1.448-.696l-.044.022c0 1.004.123 1.865.37 2.583.247.72.543 1.079.887 1.079.345 0 .637-.36.876-1.079.24-.718.36-1.58.36-2.583a7.249 7.249 0 0 0 3.01 1.034h.044c.18 0 .334-.023.46-.068a.5.5 0 0 0 .282-.224c.164-.285-.004-.712-.506-1.28-.501-.57-1.186-1.109-2.055-1.618.869-.509 1.554-1.048 2.055-1.617.502-.569.67-1.003.506-1.303a.538.538 0 0 0-.281-.202 1.39 1.39 0 0 0-.46-.067 7.08 7.08 0 0 0-1.64.36c-.51.179-.989.418-1.438.718l.023-.023c0-1.018-.124-1.883-.37-2.594-.248-.711-.536-1.067-.866-1.067-.344 0-.636.356-.876 1.067s-.366 1.576-.381 2.594a6.547 6.547 0 0 0-1.415-.696 6.299 6.299 0 0 0-1.595-.337h-.023c-.194 0-.355.023-.483.068a.539.539 0 0 0-.28.202c-.165.3.003.734.505 1.303s1.187 1.108 2.055 1.617C7.914-9.95 7.23-9.42 6.727-8.85c-.502.57-.67.996-.505 1.28m4.739-2.897.045-.157.112-.112.18-.068.157.068a.26.26 0 0 1 .067.045l.068.067v.067c0 .03.007.06.022.09l-.022.157-.135.135-.157.023-.18-.023-.112-.135-.045-.157m.337 5.054a6.044 6.044 0 0 1-.584-2.583v-.202c0-.06.007-.12.022-.18v.023-.383l.27-.201a.498.498 0 0 0 .427.067.567.567 0 0 0 .134-.067l.27.202v.382a.458.458 0 0 1 .022.146v.168a6.104 6.104 0 0 1-.606 2.673l.022-.045h.023m4.38-2.538h-.113a6.69 6.69 0 0 1-1.482-.337 5.889 5.889 0 0 1-1.303-.651l.023.022-.337-.202v-.36a.399.399 0 0 0 .123-.067.49.49 0 0 0 .101-.112.4.4 0 0 0 .034-.101.63.63 0 0 0 .011-.124v-.067l.315-.135c.06.03.116.06.168.09.053.03.109.06.169.09.464.24.883.52 1.258.842.374.322.703.685.988 1.09v.022h.045m-.113-5.031h.068c-.3.404-.637.77-1.01 1.1-.375.33-.787.607-1.236.831l-.023.023a2.525 2.525 0 0 1-.314.18h-.023l-.314-.158v-.045a.637.637 0 0 0-.011-.123.196.196 0 0 0-.056-.101h.022a.494.494 0 0 0-.101-.113.399.399 0 0 0-.124-.067v-.36l.337-.202c.39-.254.816-.464 1.28-.628a6.69 6.69 0 0 1 1.46-.337h.045m-4.29-2.538a6.144 6.144 0 0 1 .562 2.605V-12.196l-.292.202a.279.279 0 0 0-.124-.067.533.533 0 0 0-.146-.023.533.533 0 0 0-.146.023.279.279 0 0 0-.123.067l-.292-.202v-.36c0-.06-.004-.123-.011-.19a1.931 1.931 0 0 1-.012-.214c0-.464.053-.913.158-1.348.105-.434.247-.846.426-1.235v.023m-4.38 2.538h.09c.51.06.996.172 1.46.337.465.164.899.381 1.303.65l-.022-.022.337.203v.359a.4.4 0 0 0-.124.067.492.492 0 0 0-.101.113.401.401 0 0 0-.034.1.63.63 0 0 0-.011.124v.068-.023l-.314.157-.337-.18a6.17 6.17 0 0 1-1.247-.842 6.158 6.158 0 0 1-.977-1.089l-.022-.022m2.268 3.1.337-.203.314.157v.045a.63.63 0 0 0 .012.124c.007.037.018.078.033.123a1.747 1.747 0 0 0 .225.18v.337l-.314.202a7.153 7.153 0 0 1-1.292.64c-.457.172-.94.288-1.449.348h-.134c.299-.419.636-.793 1.01-1.123.375-.33.786-.606 1.236-.83h.022m6.806 5.704c-.644 0-1.206.225-1.685.674-.479.45-.936.936-1.37 1.46l-.786.887c-.3.337-.532.506-.696.506-.165 0-.405-.173-.72-.517a72.27 72.27 0 0 1-.808-.898A13.759 13.759 0 0 0 8.524-3.55a2.423 2.423 0 0 0-1.696-.674c-.494 0-1.01.158-1.55.472-.554.33-1.082.711-1.583 1.146a14.81 14.81 0 0 0-1.337 1.302c-.404.435-.703.764-.898.989L3.01.988C3.729.15 4.47-.592 5.233-1.235c.764-.644 1.296-.966 1.595-.966.165 0 .404.172.719.516.314.345.584.652.808.921C8.79-.24 9.25.247 9.737.696c.486.45 1.052.674 1.696.674.644 0 1.201-.224 1.673-.674.472-.449.932-.936 1.381-1.46.21-.254.468-.546.775-.876.307-.33.543-.494.708-.494.36 0 .954.36 1.785 1.078a19.32 19.32 0 0 1 2.235 2.269L21.54-.09c-.195-.24-.502-.591-.92-1.056-.42-.449-.892-.898-1.416-1.347-.524-.45-1.07-.839-1.64-1.168-.569-.345-1.1-.517-1.594-.517" font-size="17.008" style="vector-effect:none;fill-rule:nonzero" transform="matrix(.6923 0 0 .6923 2.038 14.976)"/>
        </g>
        <g style="font-style:normal;font-weight:400;font-size:19.84250069px;font-family:icomoon;fill:#000;fill-opacity:1;stroke:none">
            <path d="M23.943-20.44c.373 0 .694.136.965.407.271.27.406.592.406.965V2.818c0 .373-.135.694-.406.965-.27.271-.592.406-.965.406H2.057c-.373 0-.694-.135-.965-.406a1.318 1.318 0 0 1-.406-.965v-21.886c0-.373.135-.694.406-.965.27-.271.592-.407.965-.407h21.886m0-.685H2.057c-.576 0-1.063.199-1.46.597A1.986 1.986 0 0 0 0-19.068V2.818c0 .576.199 1.063.597 1.46.397.398.884.597 1.46.597h21.886c.576 0 1.063-.199 1.46-.597.398-.397.597-.884.597-1.46v-21.886c0-.576-.199-1.063-.597-1.46a1.986 1.986 0 0 0-1.46-.597" font-size="19.843" style="vector-effect:none;fill-rule:nonzero" transform="matrix(.6923 0 0 .6923 1 15.625)"/>
        </g>
    </g>
</svg>
