<svg xmlns="http://www.w3.org/2000/svg" width="26.667" height="26.667">
    <defs>
        <clipPath id="a" clipPathUnits="userSpaceOnUse">
            <path d="M0 20h20V0H0Z"/>
        </clipPath>
    </defs>
    <g clip-path="url(#a)" transform="matrix(1.33333 0 0 -1.33333 0 26.667)">
        <path d="M0 0c0-.3-.1-.4-.3-.6-.2-.2-.4-.3-.6-.3h-12.4c-.3 0-.5.1-.6.3-.2.1-.3.3-.3.6v12.4c0 .3.1.4.3.6.2.2.4.3.6.3H-.9c.3 0 .5-.1.6-.3.2-.2.3-.4.3-.6Zm0 13.3c-.3.3-.6.4-.9.4h-12.4c-.4 0-.7-.1-.9-.4-.3-.3-.4-.6-.4-.9V0c0-.4.1-.7.4-1 .3-.3.6-.4.9-.4H-.9c.4 0 .7.1.9.4.3.3.4.6.4 1v12.4c0 .3-.1.6-.4.9" style="fill:#000;fill-opacity:1;fill-rule:nonzero;stroke:none" transform="translate(17.1 3.813)"/>
        <path d="M0 0h-.2c0 .1-.1.1-.1.1 0 .1-.1.1-.1.1 0 .1-.1.1-.1.2v.2c0 .1.1.1.1.1L13 14.1c.1 0 .1.1.1.1h.2c.1 0 .2-.1.3-.1.1 0 .1-.2.1-.3v-.2c0-.1-.1-.1-.1-.1L.3.1H.2C.1 0 .1 0 0 0" style="fill:red;fill-opacity:1;fill-rule:nonzero;stroke:none" transform="translate(3.3 2.837)"/>
        <path d="M0 0a.88.88 0 0 1-.875-.875c0-.452.339-.818.79-.875 0 .028 0 .057-.028.057 0 .056-.028.112-.028.169 0 .056-.028.113-.028.169v.17c0 .056.028.112.028.141.028.056.028.113.056.141.029.084.057.169.113.226.057.084.113.141.17.197.056.085.141.141.225.198.029.028.057.028.085.056A.61.61 0 0 1 0 0" style="fill:#000;fill-opacity:1;fill-rule:nonzero;stroke:none" transform="translate(6.451 14.517)"/>
        <path d="M0 0c.546 0 .988-.43.988-.96S.546-1.919 0-1.919s-.988.429-.988.959S-.546 0 0 0" style="fill:#000;fill-opacity:1;fill-rule:nonzero;stroke:none" transform="translate(10.064 14.574)"/>
        <path d="M0 0c-.282 0-.875 0-1.157-.028-.282 0-.282-.028-.339-.508-.028-.48-.113-1.383-.141-1.863-.028-.452 0-.452.141-.452s.395.029.536 0c.142-.028.113-.084.17-.875.056-.79.113-2.342.169-3.104.057-.762.113-.762.311-.762h.733c.198 0 .198.028.226.818.028.79.113 2.371.17 3.133.056.79.084.79.197.79s.311 0 .395.057c.085.056.057.141-.141.593C1.073-1.75.706-.931.508-.508.31-.085.282-.056.282-.056.282 0 .282 0 0 0" style="fill:#000;fill-opacity:1;fill-rule:nonzero;stroke:none" transform="translate(6.507 12.175)"/>
        <path d="M0 0h-1.524c-.395.028-.452.085-.565.31-.113.226-.367.65-.536.847-.169.198-.282.198-.451.113-.17-.085-.367-.226-.452-.339-.056-.141 0-.254.282-.705.282-.48.79-1.299 1.044-1.807.255-.479.255-.649.339-1.608.085-.96.254-2.738.367-3.641.113-.903.169-.903.367-.875.226 0 .593 0 .79.056.198.057.254.141.283.875.028.734.084 2.117.141 2.823.056.705.113.705.254.705.141 0 .367 0 .451.057.113.028.113.113 0 .649C.706-2.004.508-1.044.423-.536.31-.028.31 0 .282.028.367 0 .367 0 0 0" style="fill:#000;fill-opacity:1;fill-rule:nonzero;stroke:none" transform="translate(10.826 12.344)"/>
        <path d="M0 0a.931.931 0 1 0 0-1.862A.931.931 0 0 0 0 0" style="fill:#000;fill-opacity:1;fill-rule:nonzero;stroke:none" transform="translate(13.676 14.489)"/>
        <path d="M0 0c-.423.028-1.242 0-1.637-.028-.395-.057-.395-.113-.31-.649.084-.537.254-1.524.31-2.033.056-.508-.028-.536-.056-.592-.029-.057-.029-.113 0-.819.028-.705.112-2.088.169-2.794.056-.706.113-.706.31-.706.198 0 .508.029.706.057.198.028.226.141.282.875.057.734.113 2.088.17 2.794.056.706.112.677.254.706.141 0 .366.028.479.084.113.057.113.113.057.621-.057.508-.141 1.44-.198 1.948C.423-.085.423-.028 0 0" style="fill:#000;fill-opacity:1;fill-rule:nonzero;stroke:none" transform="translate(14.58 12.287)"/>
        <path d="M0 0c-.169.141-.254.113-.31.028-.057-.056-.142-.141 0-.338.112-.198.395-.565.592-.706.17-.141.254-.085.311-.028.056.056.141.113.028.31C.48-.508.198-.141 0 0" style="fill:#000;fill-opacity:1;fill-rule:nonzero;stroke:none" transform="translate(8.511 16.041)"/>
        <path d="M0 0c.169.141.254.113.31.028.057-.056.142-.141 0-.338-.112-.198-.395-.565-.592-.706-.198-.141-.254-.085-.311-.028-.056.056-.141.113-.028.31.141.198.423.565.621.734" style="fill:#000;fill-opacity:1;fill-rule:nonzero;stroke:none" transform="translate(11.814 15.985)"/>
        <path d="M0 0c-.028.226-.113.226-.198.226-.084 0-.197-.028-.225-.254C-.48-.254-.48-.706-.452-.931c.029-.226.113-.226.198-.226s.169 0 .226.226C.028-.706.028-.254 0 0" style="fill:#000;fill-opacity:1;fill-rule:nonzero;stroke:none" transform="translate(10.374 16.38)"/>
        <path d="M0 0a.83.83 0 0 0-.254-.621.83.83 0 0 0-.621-.254h-12.419a.832.832 0 0 0-.621.254.83.83 0 0 0-.254.621v12.419c0 .254.085.451.254.621.17.169.367.254.621.254H-.875a.83.83 0 0 0 .621-.254.832.832 0 0 0 .254-.621Zm.056 13.378a1.279 1.279 0 0 1-.931.395h-12.419c-.367 0-.677-.141-.931-.395a1.279 1.279 0 0 1-.395-.931V.028c-.028-.367.113-.677.367-.959a1.28 1.28 0 0 1 .931-.396H-.903c.367 0 .677.142.931.396S.423-.367.423 0v12.419c0 .395-.113.705-.367.959" style="fill:#000;fill-opacity:1;fill-rule:nonzero;stroke:none" transform="translate(17.035 3.739)"/>
        <path d="M0 0c-.056 0-.113 0-.169.028A.599.599 0 0 0-.31.113c-.029.056-.057.085-.085.141a.525.525 0 0 0-.057.198c0 .056 0 .112.029.169.028.056.056.113.084.141l13.35 13.35c.057.028.085.057.142.085.056.028.112.028.169.028a.45.45 0 0 0 .31-.141.453.453 0 0 0 .141-.311c0-.056 0-.112-.028-.169-.028-.056-.056-.113-.084-.141L.31.113C.254.085.226.056.169.028.113 0 .056 0 0 0" style="fill:red;fill-opacity:1;fill-rule:nonzero;stroke:none" transform="translate(3.233 2.815)"/>
    </g>
</svg>
