<svg xmlns="http://www.w3.org/2000/svg" xml:space="preserve" width="20" height="20" style="enable-background:new 0 0 20 20">
    <switch>
        <g>
            <path d="M6.5 5.9c-.5 0-.8.4-.8.8s.3.8.7.8V6.7c0-.1 0-.1.1-.1 0-.1.1-.2.1-.2l.2-.2L7 6s.1 0 .1-.1h-.6z"/>
            <circle cx="9.9" cy="6.7" r=".9"/>
            <path d="M6.5 8.1H5.4c-.3 0-.3 0-.3.5S5 9.9 5 10.4c0 .4 0 .4.1.4h.5c.1 0 .1.1.2.8 0 .7.1 2.2.2 2.9.1.7.1.7.3.7H7c.2 0 .2 0 .2-.8 0-.7.1-2.2.2-3 .1-.7.1-.7.2-.7s.3 0 .4-.1c.1-.1.1-.1-.1-.6-.3-.2-.7-1-.9-1.4l-.2-.4c0-.1 0-.1-.3-.1z"/>
            <path d="M10.7 7.9H9.3c-.4 0-.4-.1-.5-.3-.2-.2-.5-.6-.6-.8-.2-.1-.3-.1-.4-.1-.2.1-.4.3-.5.4-.1.1 0 .2.3.7.3.5.7 1.2 1 1.7.3.5.3.6.3 1.5.1.9.2 2.6.3 3.5.1.9.2.8.4.8s.6 0 .7-.1c.2-.1.2-.1.3-.8 0-.7.1-2 .1-2.7.2-.7.2-.7.3-.7s.3 0 .4-.1c.1 0 .1-.1 0-.6s-.3-1.4-.3-1.9c-.1-.4-.1-.5-.1-.5h-.3z"/>
            <circle cx="13.4" cy="6.8" r=".9"/>
            <path d="M14.2 8h-1.6c-.4.1-.4.1-.3.6.1.5.2 1.4.3 1.9.1.5 0 .5-.1.6v.8c0 .7.1 2 .2 2.7.1.7.1.7.3.7s.5 0 .7-.1c.2 0 .2-.1.3-.8.1-.7.1-2 .2-2.7.1-.7.1-.6.2-.7.1 0 .3 0 .5-.1.1-.1.1-.1.1-.6-.1-.5-.1-1.4-.2-1.8-.2-.5-.2-.5-.6-.5zM8.5 4.4c-.2-.1-.2-.1-.3 0-.1.1-.2.1 0 .3.1.2.4.5.6.7.1.1.2.1.2 0 .1-.1.1-.1 0-.3-.1-.2-.3-.5-.5-.7zM11.6 4.5c.2-.1.2-.1.3 0 .1.1.1.1 0 .3-.1.2-.4.5-.6.7-.2.1-.2.1-.3 0-.1-.1-.1-.1 0-.3.1-.2.4-.6.6-.7zM10.2 4.1c0-.2-.1-.2-.2-.2s-.2 0-.2.2V5c0 .2.1.2.2.2s.2 0 .2-.2.1-.6 0-.9z"/>
            <path d="M17.1 2.887c-.3-.3-.6-.4-.9-.4H3.8c-.3 0-.7.1-.9.4-.3.3-.4.6-.4 1v12.3c0 .3.1.7.4.9.3.3.6.4.9.4h12.3c.3 0 .7-.1.9-.4.4-.3.5-.6.5-.9v-12.3c0-.4-.1-.7-.4-1zm-.1 13.3c0 .2-.1.5-.3.6-.2.2-.4.3-.6.3H3.8c-.2 0-.5-.1-.6-.3-.1-.2-.2-.4-.2-.6v-12.3c0-.2.1-.5.3-.6.2-.2.4-.3.6-.3h12.3c.2 0 .5.1.6.3.2.2.3.4.3.6v12.3z"/>
        </g>
    </switch>
</svg>
