<svg xmlns="http://www.w3.org/2000/svg" width="26.667" height="26.667">
    <defs>
        <clipPath id="a" clipPathUnits="userSpaceOnUse">
            <path d="M0 20h20V0H0Z"/>
        </clipPath>
    </defs>
    <g clip-path="url(#a)" transform="matrix(1.33333 0 0 -1.33333 0 26.667)">
        <path d="M0 0h-.2c0 .1-.1.1-.1.1 0 .1-.1.1-.1.1 0 .1-.1.1-.1.2v.2c0 .1.1.1.1.1L13 14.1c.1 0 .1.1.1.1h.2c.1 0 .2-.1.3-.1.1 0 .1-.2.1-.3v-.2c0-.1-.1-.1-.1-.1L.3.1H.2C.1 0 .1 0 0 0" style="fill:red;fill-opacity:1;fill-rule:nonzero;stroke:none" transform="translate(3.3 2.837)"/>
        <path d="M2.77 17.114h14.281V2.833H2.77Z" style="fill:#ff0;fill-opacity:1;fill-rule:nonzero;stroke:none"/>
        <path d="M0 0a.638.638 0 0 1-.649-.649c0-.339.254-.621.593-.649v.056c0 .028-.029.085-.029.113v.282c0 .028.029.085.029.113 0 .028.028.085.028.113l.084.169c.029.057.085.113.113.142.057.056.113.112.17.141.028 0 .028.028.056.028A.672.672 0 0 1 0 0" style="fill:#000;fill-opacity:1;fill-rule:nonzero;stroke:none" transform="translate(7.06 13.275)"/>
        <path d="M0 0c.421 0 .762-.329.762-.734 0-.405-.341-.734-.762-.734s-.762.329-.762.734C-.762-.329-.421 0 0 0" style="fill:#000;fill-opacity:1;fill-rule:nonzero;stroke:none" transform="translate(9.827 13.304)"/>
        <path d="M0 0c-.226 0-.649 0-.875-.028-.226 0-.226-.028-.254-.367-.028-.367-.085-1.044-.113-1.411-.028-.339 0-.339.113-.339s.31.028.395 0c.085-.028.085-.057.113-.677.028-.593.085-1.779.141-2.343.057-.593.085-.593.226-.593h.536c.113 0 .141.028.17.621.028.593.084 1.778.141 2.371.028.593.056.593.169.593.085 0 .254 0 .311.028.056.028.056.113-.113.452A28.12 28.12 0 0 1 .367-.395c-.169.339-.169.339-.169.367C.198.028.198.028 0 0" style="fill:#000;fill-opacity:1;fill-rule:nonzero;stroke:none" transform="translate(7.117 11.469)"/>
        <path d="M0 0h-1.157c-.311.028-.339.056-.452.226-.113.169-.282.48-.395.649-.113.169-.226.141-.339.085-.113-.057-.282-.17-.338-.254-.057-.085 0-.198.225-.537.226-.367.593-.987.791-1.354.197-.367.197-.48.254-1.214.056-.734.197-2.089.282-2.766.085-.677.113-.677.282-.677.17 0 .452 0 .621.056.17.028.17.113.226.677.028.565.085 1.609.113 2.145.028.537.085.537.197.537.113 0 .283 0 .339.028.085.028.085.085 0 .48A28.084 28.084 0 0 1 .367-.395C.282-.028.282 0 .282.028.282 0 .282 0 0 0" style="fill:#000;fill-opacity:1;fill-rule:nonzero;stroke:none" transform="translate(10.391 11.61)"/>
        <path d="M0 0a.706.706 0 1 0 0-1.412A.706.706 0 0 0 0 0" style="fill:#000;fill-opacity:1;fill-rule:nonzero;stroke:none" transform="translate(12.564 13.247)"/>
        <path d="M0 0c-.31 0-.931 0-1.242-.028-.31-.028-.31-.085-.254-.48.057-.395.198-1.157.226-1.552.028-.396-.028-.424-.057-.452-.028-.028-.028-.085 0-.621.029-.536.085-1.609.142-2.117.056-.536.084-.536.225-.536.142 0 .396 0 .537.056.141.029.169.113.197.65.028.536.085 1.58.141 2.116.057.508.085.537.198.537s.282.028.367.056c.084.028.084.085.028.48C.48-1.496.395-.79.367-.423.339-.028.31 0 0 0" style="fill:#000;fill-opacity:1;fill-rule:nonzero;stroke:none" transform="translate(13.242 11.554)"/>
        <path d="M0 0c-.141.113-.198.085-.226.028-.056-.056-.084-.113 0-.254.085-.169.311-.423.452-.536.141-.113.197-.057.226-.028.056.028.112.084 0 .226A2.227 2.227 0 0 1 0 0" style="fill:#000;fill-opacity:1;fill-rule:nonzero;stroke:none" transform="translate(8.641 14.432)"/>
        <path d="M0 0c.141.113.198.085.226.028.028-.056.084-.113 0-.254a2.091 2.091 0 0 0-.452-.536C-.367-.875-.423-.818-.452-.79c-.056.028-.112.084 0 .226.113.169.339.451.452.564" style="fill:#000;fill-opacity:1;fill-rule:nonzero;stroke:none" transform="translate(11.125 14.376)"/>
        <path d="M0 0c-.028.169-.085.169-.169.169-.057 0-.141 0-.17-.197a2.747 2.747 0 0 1 0-.678c.029-.169.085-.169.17-.169.056 0 .113 0 .169.169C0-.536.028-.169 0 0" style="fill:#000;fill-opacity:1;fill-rule:nonzero;stroke:none" transform="translate(10.052 14.658)"/>
        <path d="M0 0a.83.83 0 0 0-.254-.621.83.83 0 0 0-.621-.254h-12.419a.832.832 0 0 0-.621.254.83.83 0 0 0-.254.621v12.419c0 .254.085.451.254.621.17.169.367.254.621.254H-.875a.83.83 0 0 0 .621-.254.832.832 0 0 0 .254-.621Zm.056 13.378a1.279 1.279 0 0 1-.931.395h-12.419c-.367 0-.677-.141-.931-.395a1.279 1.279 0 0 1-.395-.931V.028c-.028-.367.113-.677.367-.959a1.28 1.28 0 0 1 .931-.396H-.903c.367 0 .677.142.931.396S.423-.367.423 0v12.419c0 .395-.113.705-.367.959" style="fill:#000;fill-opacity:1;fill-rule:nonzero;stroke:none" transform="translate(17.024 3.739)"/>
    </g>
</svg>
