<svg xmlns="http://www.w3.org/2000/svg" width="26.667" height="26.667">
    <defs>
        <clipPath id="a" clipPathUnits="userSpaceOnUse">
            <path d="M0 20h20V0H0Z"/>
        </clipPath>
    </defs>
    <g clip-path="url(#a)" transform="matrix(1.33333 0 0 -1.33333 0 26.667)">
        <path d="M0 0a.853.853 0 0 1-.849-.849.86.86 0 0 1 .767-.849c0 .028 0 .055-.028.055 0 .055-.027.11-.027.164 0 .055-.027.11-.027.165v.164c0 .055.027.11.027.137.027.055.027.109.055.137a.557.557 0 0 0 .109.219c.055.082.11.137.165.192.054.082.137.136.219.191.027.028.054.028.082.055A.631.631 0 0 1 0 0" style="fill:#000;fill-opacity:1;fill-rule:nonzero;stroke:none" transform="translate(6.38 14.176)"/>
        <path d="M0 0a.945.945 0 0 0 .958-.931A.945.945 0 0 0 0-1.862a.945.945 0 0 0-.958.931C-.958-.417-.529 0 0 0" style="fill:#000;fill-opacity:1;fill-rule:nonzero;stroke:none" transform="translate(9.884 14.231)"/>
        <path d="M0 0c-.274 0-.849 0-1.123-.027-.273 0-.273-.028-.328-.493-.028-.466-.11-1.342-.137-1.807-.027-.438 0-.438.137-.438s.383.027.52 0c.11-.028.11-.083.164-.849.028-.767.11-2.273.165-3.012.054-.739.109-.739.301-.739h.712c.191 0 .191.027.219.794.027.766.109 2.3.164 3.039.055.767.082.767.192.767.109 0 .301 0 .383.054.082.055.055.137-.137.575A97.672 97.672 0 0 1 .493-.493c-.192.411-.219.438-.219.438C.274 0 .274 0 0 0" style="fill:#000;fill-opacity:1;fill-rule:nonzero;stroke:none" transform="translate(6.407 11.904)"/>
        <path d="M0 0h-1.479c-.383.027-.438.082-.547.301-.11.219-.356.63-.52.822-.165.191-.274.191-.438.109-.165-.082-.356-.219-.439-.328-.054-.137 0-.247.274-.685.274-.465.767-1.259 1.013-1.752.274-.466.274-.63.356-1.561.082-.931.247-2.656.356-3.532.11-.876.164-.849.384-.849.219 0 .575 0 .766.055.192.055.247.137.274.849.027.712.082 2.053.137 2.738.055.684.109.684.246.684s.356 0 .438.055c.11.027.11.11 0 .63C.739-1.944.548-1.013.465-.52.356-.027.356 0 .329.027.356 0 .356 0 0 0" style="fill:#000;fill-opacity:1;fill-rule:nonzero;stroke:none" transform="translate(10.624 12.068)"/>
        <path d="M0 0a.904.904 0 1 0 0-1.809A.904.904 0 0 0 0 0" style="fill:#000;fill-opacity:1;fill-rule:nonzero;stroke:none" transform="translate(13.39 14.176)"/>
        <path d="M0 0c-.411.027-1.205 0-1.588-.027-.383-.055-.383-.11-.301-.63.082-.52.246-1.479.301-1.972.055-.492-.027-.52-.055-.575-.027-.054-.027-.109 0-.794.028-.684.11-2.026.164-2.71.055-.685.11-.685.302-.685.191 0 .492.028.684.055.192.027.219.137.274.849.055.712.109 2.026.164 2.71.055.685.11.658.247.685.137 0 .356.027.465.082.11.055.11.11.055.603C.657-1.917.575-1.013.52-.52.411-.055.383-.027 0 0" style="fill:#000;fill-opacity:1;fill-rule:nonzero;stroke:none" transform="translate(14.265 12.013)"/>
        <path d="M0 0c-.164.137-.246.11-.301.027-.055-.054-.137-.137 0-.328.109-.192.383-.548.575-.685.164-.137.246-.082.301-.027.055.055.137.109.027.301C.465-.493.192-.137 0 0" style="fill:#000;fill-opacity:1;fill-rule:nonzero;stroke:none" transform="translate(8.378 15.655)"/>
        <path d="M0 0c.164.137.246.11.301.027.055-.054.137-.137 0-.328-.109-.192-.383-.548-.575-.685-.164-.137-.246-.082-.301-.027-.055.055-.137.109-.027.301.137.219.438.575.602.712" style="fill:#000;fill-opacity:1;fill-rule:nonzero;stroke:none" transform="translate(11.555 15.6)"/>
        <path d="M0 0c-.027.219-.11.219-.192.219S-.383.192-.411-.027c-.054-.219-.054-.658-.027-.877.027-.219.109-.219.192-.219.082 0 .164 0 .219.219C0-.685.027-.246 0 0" style="fill:#000;fill-opacity:1;fill-rule:nonzero;stroke:none" transform="translate(10.186 15.983)"/>
        <path d="M0 0a.794.794 0 0 0-.274-.63.892.892 0 0 0-.63-.274h-12.595a.794.794 0 0 0-.629.274.891.891 0 0 0-.274.63v12.595c0 .246.082.466.274.63a.891.891 0 0 0 .629.274H-.904a.794.794 0 0 0 .63-.274.893.893 0 0 0 .274-.63Zm.055 13.553c-.274.274-.575.384-.959.384h-12.595c-.356 0-.684-.137-.958-.384-.274-.273-.383-.575-.383-.958V0c0-.356.137-.685.383-.958.274-.274.575-.384.958-.384H-.904c.356 0 .685.137.959.384.274.273.383.575.383.958v12.595c0 .356-.109.685-.383.958" style="fill:#000;fill-opacity:1;fill-rule:nonzero;stroke:none" transform="translate(17.14 3.666)"/>
        <path d="M0 0h-17.058c-.383 0-.712-.137-1.013-.411a1.361 1.361 0 0 1-.411-1.013v-17.085c0-.384.137-.712.411-1.013a1.361 1.361 0 0 1 1.013-.411H.027c.384 0 .712.137 1.013.411.274.273.411.602.411 1.013v17.085c0 .384-.137.712-.411 1.013A1.467 1.467 0 0 1 0 0m0-.465a.956.956 0 0 0 .685-.274.911.911 0 0 0 .273-.685v-17.085a.953.953 0 0 0-.273-.685.912.912 0 0 0-.685-.274h-17.058a.954.954 0 0 0-.685.274.911.911 0 0 0-.273.685v17.085c0 .247.082.493.273.685a.912.912 0 0 0 .685.274H0m-.931-.493H-16.1c-.383 0-.712-.137-1.013-.411a1.361 1.361 0 0 1-.411-1.013v-15.169c0-.383.137-.712.411-1.013a1.363 1.363 0 0 1 1.013-.411H-.931c.383 0 .712.137 1.013.411.274.274.411.602.411 1.013v15.169c0 .383-.137.712-.411 1.013-.301.274-.63.411-1.013.411m0-.466a.952.952 0 0 0 .685-.274.908.908 0 0 0 .273-.684v-15.169a.95.95 0 0 0-.273-.684.908.908 0 0 0-.685-.274H-16.1a.948.948 0 0 0-.684.274.905.905 0 0 0-.274.684v15.169c0 .246.082.493.274.684.191.192.41.274.684.274z" style="fill:#000;fill-opacity:1;fill-rule:nonzero;stroke:none" transform="translate(18.482 19.933)"/>
    </g>
</svg>
