<?xml version="1.0" encoding="UTF-8" standalone="no"?>
<svg
   xmlns:dc="http://purl.org/dc/elements/1.1/"
   xmlns:cc="http://creativecommons.org/ns#"
   xmlns:rdf="http://www.w3.org/1999/02/22-rdf-syntax-ns#"
   xmlns:svg="http://www.w3.org/2000/svg"
   xmlns="http://www.w3.org/2000/svg"
   xmlns:sodipodi="http://sodipodi.sourceforge.net/DTD/sodipodi-0.dtd"
   xmlns:inkscape="http://www.inkscape.org/namespaces/inkscape"
   width="20"
   height="20"
   viewBox="0 0 20 20"
   version="1.2"
   id="svg66"
   sodipodi:docname="60204110224.svg"
   inkscape:version="0.92.4 (5da689c313, 2019-01-14)">
  <metadata
     id="metadata70">
    <rdf:RDF>
      <cc:Work
         rdf:about="">
        <dc:format>image/svg+xml</dc:format>
        <dc:type
           rdf:resource="http://purl.org/dc/dcmitype/StillImage" />
      </cc:Work>
    </rdf:RDF>
  </metadata>
  <sodipodi:namedview
     pagecolor="#ffffff"
     bordercolor="#666666"
     borderopacity="1"
     objecttolerance="10"
     gridtolerance="10"
     guidetolerance="10"
     inkscape:pageopacity="0"
     inkscape:pageshadow="2"
     inkscape:window-width="751"
     inkscape:window-height="480"
     id="namedview68"
     showgrid="false"
     inkscape:zoom="11.8"
     inkscape:cx="10"
     inkscape:cy="10"
     inkscape:window-x="0"
     inkscape:window-y="0"
     inkscape:window-maximized="0"
     inkscape:current-layer="svg66" />
  <title
     id="title2">Qt SVG Document</title>
  <desc
     id="desc4">Generated with Qt</desc>
  <defs
     id="defs6" />
  <g
     id="g64"
     transform="matrix(0.69230769,0,0,0.69230769,-1.076923,-1.076923)"
     style="fill:none;fill-rule:evenodd;stroke:#000000;stroke-width:1;stroke-linecap:square;stroke-linejoin:bevel">
    <g
       transform="translate(16,16)"
       font-size="8.25"
       font-weight="400"
       font-style="normal"
       id="g8"
       style="font-style:normal;font-weight:400;font-size:8.25px;font-family:'MS Shell Dlg 2';fill:none;stroke:#000000;stroke-width:1;stroke-linecap:square;stroke-linejoin:bevel;stroke-opacity:1" />
    <g
       transform="matrix(1.33333,0,0,1.33333,16,16)"
       font-size="8.25"
       font-weight="400"
       font-style="normal"
       id="g10"
       style="font-style:normal;font-weight:400;font-size:8.25px;font-family:'MS Shell Dlg 2';fill:none;stroke:#000000;stroke-width:1;stroke-linecap:square;stroke-linejoin:bevel;stroke-opacity:1" />
    <g
       transform="translate(3,24.125)"
       font-size="19.8425"
       font-weight="400"
       font-style="normal"
       id="g14"
       style="font-style:normal;font-weight:400;font-size:19.84250069px;font-family:icomoon;fill:#ffffff;fill-opacity:1;stroke:none">
      <path
         d="M 2.28516,-21.125 H 23.7148 c 0.6263,0 1.1638,0.2243 1.6123,0.6729 0.4486,0.4485 0.6729,0.986 0.6729,1.6123 V 2.58984 C 26,3.21615 25.7757,3.75358 25.3271,4.20215 24.8786,4.65072 24.3411,4.875 23.7148,4.875 H 2.28516 C 1.65885,4.875 1.12142,4.65072 0.672852,4.20215 0.224284,3.75358 0,3.21615 0,2.58984 V -18.8398 c 0,-0.6263 0.224284,-1.1638 0.672852,-1.6123 0.448568,-0.4486 0.985998,-0.6729 1.612308,-0.6729"
         id="path12"
         inkscape:connector-curvature="0"
         style="vector-effect:none;fill-rule:nonzero" />
    </g>
    <g
       transform="matrix(1.33333,0,0,1.33333,16,16)"
       font-size="8.25"
       font-weight="400"
       font-style="normal"
       id="g16"
       style="font-style:normal;font-weight:400;font-size:8.25px;font-family:'MS Shell Dlg 2';fill:none;stroke:#000000;stroke-width:1;stroke-linecap:square;stroke-linejoin:bevel;stroke-opacity:1" />
    <g
       transform="translate(16,16)"
       font-size="8.25"
       font-weight="400"
       font-style="normal"
       id="g18"
       style="font-style:normal;font-weight:400;font-size:8.25px;font-family:'MS Shell Dlg 2';fill:none;stroke:#000000;stroke-width:1;stroke-linecap:square;stroke-linejoin:bevel;stroke-opacity:1" />
    <g
       font-size="8.25"
       font-weight="400"
       font-style="normal"
       id="g20"
       style="font-style:normal;font-weight:400;font-size:8.25px;font-family:'MS Shell Dlg 2';fill:none;stroke:#000000;stroke-width:1;stroke-linecap:square;stroke-linejoin:bevel;stroke-opacity:1" />
    <g
       transform="translate(16,16)"
       font-size="8.25"
       font-weight="400"
       font-style="normal"
       id="g22"
       style="font-style:normal;font-weight:400;font-size:8.25px;font-family:'MS Shell Dlg 2';fill:none;stroke:#000000;stroke-width:1;stroke-linecap:square;stroke-linejoin:bevel;stroke-opacity:1" />
    <g
       transform="matrix(1.33333,0,0,1.33333,16,16)"
       font-size="8.25"
       font-weight="400"
       font-style="normal"
       id="g24"
       style="font-style:normal;font-weight:400;font-size:8.25px;font-family:'MS Shell Dlg 2';fill:none;stroke:#000000;stroke-width:1;stroke-linecap:square;stroke-linejoin:bevel;stroke-opacity:1" />
    <g
       transform="translate(4.5,23.1875)"
       font-size="17.0078"
       font-weight="400"
       font-style="normal"
       id="g28"
       style="font-style:normal;font-weight:400;font-size:17.00779915px;font-family:icomoon;fill:#000000;fill-opacity:1;stroke:none">
      <path
         d="m 20.9785,-18.0137 c 0.3744,0 0.6926,0.1311 0.9546,0.3931 0.262,0.262 0.3931,0.5802 0.3931,0.9546 V 2.29102 c 0,0.37434 -0.1311,0.69254 -0.3931,0.95459 -0.262,0.26204 -0.5802,0.39306 -0.9546,0.39306 H 2.02148 C 1.64714,3.63867 1.32894,3.50765 1.06689,3.24561 0.80485,2.98356 0.673828,2.66536 0.673828,2.29102 V -16.666 c 0,-0.3744 0.131022,-0.6926 0.393062,-0.9546 0.26205,-0.262 0.58025,-0.3931 0.95459,-0.3931 H 20.9785 m 0,-0.6738 H 2.02148 c -0.55403,0 -1.029455,0.1984 -1.426265,0.5952 C 0.198405,-17.6955 0,-17.2201 0,-16.666 V 2.29102 C 0,2.84505 0.198405,3.32048 0.595215,3.71729 0.992025,4.1141 1.46745,4.3125 2.02148,4.3125 H 20.9785 c 0.5541,0 1.0295,-0.1984 1.4263,-0.59521 C 22.8016,3.32048 23,2.84505 23,2.29102 V -16.666 c 0,-0.5541 -0.1984,-1.0295 -0.5952,-1.4263 -0.3968,-0.3968 -0.8722,-0.5952 -1.4263,-0.5952 M 11.5,-16.666 c -1.3027,0 -2.5306,0.2471 -3.68359,0.7412 -1.153,0.5091 -2.15625,1.1904 -3.00977,2.0439 -0.85351,0.8536 -1.53483,1.8568 -2.04394,3.0098 -0.49415,1.153 -0.74122,2.38087 -0.74122,3.6836 0,1.30273 0.24707,2.5306 0.74122,3.68359 0.50911,1.153 1.19043,2.15625 2.04394,3.009769 C 5.66016,0.359375 6.66341,1.04069 7.81641,1.5498 8.9694,2.04395 10.1973,2.29102 11.5,2.29102 c 1.3027,0 2.5306,-0.24707 3.6836,-0.74122 1.153,-0.50911 2.1562,-1.190425 3.0098,-2.043941 0.8535,-0.853519 1.5348,-1.856769 2.0439,-3.009769 0.4941,-1.15299 0.7412,-2.38086 0.7412,-3.68359 0,-1.30273 -0.2471,-2.5306 -0.7412,-3.6836 -0.5091,-1.153 -1.1904,-2.1562 -2.0439,-3.0098 -0.8536,-0.8535 -1.8568,-1.5348 -3.0098,-2.0439 -1.153,-0.4941 -2.3809,-0.7412 -3.6836,-0.7412 m 8.0859,8.73729 H 16.5088 C 16.4489,-8.3929 16.3291,-8.82715 16.1494,-9.23145 15.9697,-9.63574 15.7376,-10.0101 15.4531,-10.3545 h 0.0225 l 2.1562,-2.1338 c 0.5391,0.614 0.9771,1.3065 1.314,2.0777 0.3369,0.77111 0.5503,1.59094 0.6401,2.45943 v 0.02246 m -5.0986,-3.36919 c -0.3294,-0.2545 -0.6963,-0.4641 -1.1006,-0.6289 -0.4043,-0.1647 -0.8235,-0.2695 -1.2578,-0.3144 h -0.0225 v -3.0547 c 0.8685,0.0599 1.6884,0.2508 2.4595,0.5728 0.7712,0.3219 1.4712,0.7374 2.1001,1.2465 l -2.1787,2.1787 m -3.751,-0.8984 c -0.4342,0.0599 -0.84974,0.176 -1.24655,0.3482 -0.39681,0.1722 -0.75993,0.3855 -1.08936,0.6401 H 8.42285 L 6.2666,-13.3643 c 0.59896,-0.524 1.27653,-0.9508 2.03272,-1.2802 0.75618,-0.3295 1.56103,-0.5316 2.41458,-0.6065 l 0.0224,-0.0224 v 3.0771 m -3.30173,1.9541 c -0.23958,0.31447 -0.44547,0.66635 -0.61768,1.05568 -0.1722,0.38932 -0.28824,0.8011 -0.34814,1.23535 v 0.02246 H 3.41406 c 0.08985,-0.86849 0.29574,-1.68083 0.61768,-2.43699 0.32194,-0.7562 0.74495,-1.4413 1.26904,-2.0552 l 2.13379,2.1787 m -0.96582,3.66115 c 0.0599,0.46419 0.17594,0.89469 0.34814,1.2915 0.17221,0.39681 0.38558,0.76741 0.64014,1.11182 L 7.43457,-4.2002 5.2334,-2.02148 C 4.72428,-2.65039 4.3125,-3.34668 3.99805,-4.11035 3.68359,-4.87402 3.48893,-5.68262 3.41406,-6.53613 v -0.04492 h 3.05469 m 1.86426,3.3916 c 0.3444,0.26953 0.715,0.49414 1.11181,0.67382 0.39681,0.17969 0.81978,0.29948 1.26908,0.35938 h 0.0224 V 0.920898 C 9.86784,0.831055 9.04427,0.617676 8.26563,0.280762 7.48698,-0.0561523 6.79069,-0.501628 6.17676,-1.05566 l 0.02246,0.02246 2.13379,-2.15625 m 3.77339,1.05566 c 0.4642,-0.05989 0.906,-0.17594 1.3252,-0.34814 0.4193,-0.1722 0.8011,-0.39307 1.1455,-0.6626 l -0.0224,0.02246 2.1787,2.15625 C 16.1045,-0.426758 15.397,0.00748698 14.6108,0.336914 13.8247,0.666341 12.9974,0.861003 12.1289,0.920898 H 12.1064 V -2.13379 M 11.5,-3.45898 c -1.0332,0 -1.91292,-0.36312 -2.63916,-1.08936 C 8.1346,-5.27458 7.77148,-6.1543 7.77148,-7.1875 c 0,-1.0332 0.36312,-1.91292 1.08936,-2.63916 C 9.58708,-10.5529 10.4668,-10.916 11.5,-10.916 c 1.0332,0 1.9129,0.3631 2.6392,1.08934 0.7262,0.72624 1.0893,1.60596 1.0893,2.63916 0,1.0332 -0.3631,1.91292 -1.0893,2.63916 -0.7263,0.72624 -1.606,1.08936 -2.6392,1.08936 m 6.1768,1.50488 -2.1114,-2.15625 c 0.2546,-0.3444 0.4717,-0.7225 0.6514,-1.13428 0.1797,-0.41178 0.292,-0.84228 0.3369,-1.2915 l 0.0225,-0.04492 h 3.0322 c -0.0599,0.89843 -0.262,1.74072 -0.6064,2.52685 -0.3444,0.78613 -0.7862,1.49365 -1.3252,2.12256 V -1.9541"
         id="path26"
         inkscape:connector-curvature="0"
         style="vector-effect:none;fill-rule:nonzero" />
    </g>
    <g
       transform="matrix(1.33333,0,0,1.33333,16,16)"
       font-size="8.25"
       font-weight="400"
       font-style="normal"
       id="g30"
       style="font-style:normal;font-weight:400;font-size:8.25px;font-family:'MS Shell Dlg 2';fill:none;stroke:#000000;stroke-width:1;stroke-linecap:square;stroke-linejoin:bevel;stroke-opacity:1" />
    <g
       transform="translate(16,16)"
       font-size="8.25"
       font-weight="400"
       font-style="normal"
       id="g32"
       style="font-style:normal;font-weight:400;font-size:8.25px;font-family:'MS Shell Dlg 2';fill:none;stroke:#000000;stroke-width:1;stroke-linecap:square;stroke-linejoin:bevel;stroke-opacity:1" />
    <g
       font-size="8.25"
       font-weight="400"
       font-style="normal"
       id="g34"
       style="font-style:normal;font-weight:400;font-size:8.25px;font-family:'MS Shell Dlg 2';fill:none;stroke:#000000;stroke-width:1;stroke-linecap:square;stroke-linejoin:bevel;stroke-opacity:1" />
    <g
       transform="translate(16,16)"
       font-size="8.25"
       font-weight="400"
       font-style="normal"
       id="g36"
       style="font-style:normal;font-weight:400;font-size:8.25px;font-family:'MS Shell Dlg 2';fill:none;stroke:#000000;stroke-width:1;stroke-linecap:square;stroke-linejoin:bevel;stroke-opacity:1" />
    <g
       transform="matrix(1.33333,0,0,1.33333,16,16)"
       font-size="8.25"
       font-weight="400"
       font-style="normal"
       id="g38"
       style="font-style:normal;font-weight:400;font-size:8.25px;font-family:'MS Shell Dlg 2';fill:none;stroke:#000000;stroke-width:1;stroke-linecap:square;stroke-linejoin:bevel;stroke-opacity:1" />
    <g
       transform="translate(3,24.125)"
       font-size="19.8425"
       font-weight="400"
       font-style="normal"
       id="g42"
       style="font-style:normal;font-weight:400;font-size:19.84250069px;font-family:icomoon;fill:#000000;fill-opacity:1;stroke:none">
      <path
         d="m 23.9434,-20.4395 c 0.3724,0 0.694,0.1355 0.9648,0.4063 0.2708,0.2708 0.4063,0.5924 0.4063,0.9648 V 2.81836 c 0,0.3724 -0.1355,0.69401 -0.4063,0.96484 -0.2708,0.27084 -0.5924,0.40625 -0.9648,0.40625 H 2.05664 C 1.68424,4.18945 1.36263,4.05404 1.0918,3.7832 0.820964,3.51237 0.685547,3.19076 0.685547,2.81836 V -19.0684 c 0,-0.3724 0.135417,-0.694 0.406253,-0.9648 0.27083,-0.2708 0.59244,-0.4063 0.96484,-0.4063 H 23.9434 m 0,-0.6855 H 2.05664 c -0.57552,0 -1.062174,0.1989 -1.45996,0.5967 C 0.198893,-20.1305 0,-19.6439 0,-19.0684 V 2.81836 C 0,3.39388 0.198893,3.88053 0.59668,4.27832 0.994466,4.67611 1.48112,4.875 2.05664,4.875 H 23.9434 c 0.5755,0 1.0621,-0.19889 1.4599,-0.59668 C 25.8011,3.88053 26,3.39388 26,2.81836 V -19.0684 c 0,-0.5755 -0.1989,-1.0621 -0.5967,-1.4599 -0.3978,-0.3978 -0.8844,-0.5967 -1.4599,-0.5967"
         id="path40"
         inkscape:connector-curvature="0"
         style="vector-effect:none;fill-rule:nonzero" />
    </g>
    <g
       transform="matrix(1.33333,0,0,1.33333,16,16)"
       font-size="8.25"
       font-weight="400"
       font-style="normal"
       id="g44"
       style="font-style:normal;font-weight:400;font-size:8.25px;font-family:'MS Shell Dlg 2';fill:none;stroke:#000000;stroke-width:1;stroke-linecap:square;stroke-linejoin:bevel;stroke-opacity:1" />
    <g
       transform="translate(16,16)"
       font-size="8.25"
       font-weight="400"
       font-style="normal"
       id="g46"
       style="font-style:normal;font-weight:400;font-size:8.25px;font-family:'MS Shell Dlg 2';fill:none;stroke:#000000;stroke-width:1;stroke-linecap:square;stroke-linejoin:bevel;stroke-opacity:1" />
    <g
       font-size="8.25"
       font-weight="400"
       font-style="normal"
       id="g48"
       style="font-style:normal;font-weight:400;font-size:8.25px;font-family:'MS Shell Dlg 2';fill:none;stroke:#000000;stroke-width:1;stroke-linecap:square;stroke-linejoin:bevel;stroke-opacity:1" />
    <g
       transform="translate(16,16)"
       font-size="8.25"
       font-weight="400"
       font-style="normal"
       id="g50"
       style="font-style:normal;font-weight:400;font-size:8.25px;font-family:'MS Shell Dlg 2';fill:none;stroke:#000000;stroke-width:1;stroke-linecap:square;stroke-linejoin:bevel;stroke-opacity:1" />
    <g
       transform="matrix(1.33333,0,0,1.33333,16,16)"
       font-size="8.25"
       font-weight="400"
       font-style="normal"
       id="g52"
       style="font-style:normal;font-weight:400;font-size:8.25px;font-family:'MS Shell Dlg 2';fill:none;stroke:#000000;stroke-width:1;stroke-linecap:square;stroke-linejoin:bevel;stroke-opacity:1" />
    <g
       transform="translate(3.5,23.8125)"
       font-size="18.7086"
       font-weight="400"
       font-style="normal"
       id="g56"
       style="font-style:normal;font-weight:400;font-size:18.70859909px;font-family:icomoon;fill:#ff0000;fill-opacity:1;stroke:none">
      <path
         d="M 0.78125,4.6875 C 0.667318,4.6875 0.565592,4.66715 0.476074,4.62646 0.386556,4.58577 0.301107,4.53288 0.219727,4.46777 0.154622,4.38639 0.101725,4.30094 0.0610352,4.21143 0.0203451,4.12191 0,4.02018 0,3.90625 0,3.79232 0.0203451,3.69059 0.0610352,3.60107 0.101725,3.51156 0.154622,3.42611 0.219727,3.34473 L 23.6572,-20.0928 c 0.0814,-0.0651 0.1669,-0.118 0.2564,-0.1587 0.0895,-0.0407 0.1912,-0.061 0.3052,-0.061 0.2115,0 0.3946,0.0773 0.5493,0.2319 0.1546,0.1547 0.2319,0.3378 0.2319,0.5493 0,0.114 -0.0203,0.2157 -0.061,0.3052 -0.0407,0.0895 -0.0936,0.175 -0.1587,0.2564 L 1.34277,4.46777 C 1.26139,4.53288 1.17594,4.58577 1.08643,4.62646 0.996908,4.66715 0.895182,4.6875 0.78125,4.6875"
         id="path54"
         inkscape:connector-curvature="0"
         style="vector-effect:none;fill-rule:nonzero" />
    </g>
    <g
       transform="matrix(1.33333,0,0,1.33333,16,16)"
       font-size="8.25"
       font-weight="400"
       font-style="normal"
       id="g58"
       style="font-style:normal;font-weight:400;font-size:8.25px;font-family:'MS Shell Dlg 2';fill:none;stroke:#000000;stroke-width:1;stroke-linecap:square;stroke-linejoin:bevel;stroke-opacity:1" />
    <g
       transform="translate(16,16)"
       font-size="8.25"
       font-weight="400"
       font-style="normal"
       id="g60"
       style="font-style:normal;font-weight:400;font-size:8.25px;font-family:'MS Shell Dlg 2';fill:none;stroke:#000000;stroke-width:1;stroke-linecap:square;stroke-linejoin:bevel;stroke-opacity:1" />
    <g
       font-size="8.25"
       font-weight="400"
       font-style="normal"
       id="g62"
       style="font-style:normal;font-weight:400;font-size:8.25px;font-family:'MS Shell Dlg 2';fill:none;stroke:#000000;stroke-width:1;stroke-linecap:square;stroke-linejoin:bevel;stroke-opacity:1" />
  </g>
</svg>
