<svg xmlns="http://www.w3.org/2000/svg" width="20" height="20" version="1.2">
    <g font-weight="400" style="fill:none;fill-rule:evenodd;stroke:#000;stroke-width:1;stroke-linecap:square;stroke-linejoin:bevel">
        <g style="font-style:normal;font-weight:400;font-size:17.00779915px;font-family:icomoon;fill:#ff0;fill-opacity:1;stroke:none">
            <path d="M2.021-18.688h18.957c.555 0 1.03.199 1.427.596.397.396.595.872.595 1.426V2.291c0 .554-.198 1.03-.595 1.426a1.946 1.946 0 0 1-1.427.595H2.021c-.554 0-1.029-.198-1.426-.595A1.946 1.946 0 0 1 0 2.291v-18.957c0-.554.198-1.03.595-1.426a1.946 1.946 0 0 1 1.426-.596" font-size="17.008" style="vector-effect:none;fill-rule:nonzero" transform="matrix(.65217 0 0 .65217 2.5 14.687)"/>
        </g>
        <g style="font-style:normal;font-weight:400;font-size:17.00779915px;font-family:icomoon;fill:#000;fill-opacity:1;stroke:none">
            <path d="M20.979-18.688H2.02c-.554 0-1.029.199-1.426.596A1.946 1.946 0 0 0 0-16.666V2.291c0 .554.198 1.03.595 1.426.397.397.872.595 1.426.595h18.957c.555 0 1.03-.198 1.427-.595.397-.397.595-.872.595-1.426v-18.957c0-.554-.198-1.03-.595-1.426a1.946 1.946 0 0 0-1.426-.596m1.347 20.979a1.3 1.3 0 0 1-.393.955 1.3 1.3 0 0 1-.955.393H2.021a1.3 1.3 0 0 1-.954-.393 1.3 1.3 0 0 1-.393-.955v-18.957a1.3 1.3 0 0 1 .393-.955 1.3 1.3 0 0 1 .954-.393h18.957a1.3 1.3 0 0 1 .955.393 1.3 1.3 0 0 1 .393.955V2.291m-3.391-9.77a7.034 7.034 0 0 0-.652-2.786 7.603 7.603 0 0 0-1.617-2.28 7.265 7.265 0 0 0-2.336-1.515 7.177 7.177 0 0 0-2.83-.562h.674v-2.044h-1.348v2.044h.674a7.177 7.177 0 0 0-2.83.562 7.363 7.363 0 0 0-2.336 1.504 7.46 7.46 0 0 0-1.617 2.269 7.08 7.08 0 0 0-.652 2.808v-.382H2.021v1.347h2.044v-.382c.03.959.233 1.85.607 2.673.36.839.846 1.576 1.46 2.213A7.654 7.654 0 0 0 8.288-.45c.824.39 1.7.622 2.628.697h.022-.112v2.044h1.348V.247h-.112a7.544 7.544 0 0 0 2.65-.696 7.655 7.655 0 0 0 2.156-1.561 7.292 7.292 0 0 0 1.46-2.213 6.914 6.914 0 0 0 .607-2.673v.382h2.044V-7.86h-2.044v.382M11.5-1.774a5.268 5.268 0 0 1-2.111-.427A5.47 5.47 0 0 1 7.67-3.358a5.47 5.47 0 0 1-1.156-1.718 5.268 5.268 0 0 1-.427-2.112c0-.748.142-1.452.427-2.11a5.47 5.47 0 0 1 1.156-1.72 5.47 5.47 0 0 1 1.719-1.156A5.268 5.268 0 0 1 11.5-12.6c.749 0 1.452.143 2.111.427a5.47 5.47 0 0 1 1.719 1.157A5.47 5.47 0 0 1 16.486-9.3c.285.659.427 1.363.427 2.111 0 .75-.142 1.453-.427 2.112a5.47 5.47 0 0 1-1.156 1.718A5.47 5.47 0 0 1 13.61-2.2a5.268 5.268 0 0 1-2.111.427" font-size="17.008" style="vector-effect:none;fill-rule:nonzero" transform="matrix(.65217 0 0 .65217 2.5 14.687)"/>
        </g>
    </g>
</svg>
