<svg xmlns="http://www.w3.org/2000/svg" xml:space="preserve" baseProfile="tiny" overflow="visible" version="1.2" viewBox="0 0 20 20">
    <path d="M17.27 2.73a1.297 1.297 0 0 0-.951-.397H3.681c-.37 0-.686.133-.95.397a1.297 1.297 0 0 0-.398.951v12.638c0 .37.133.686.397.95.265.265.582.398.951.398h12.638c.37 0 .686-.133.95-.397.265-.265.398-.582.398-.951V3.681c0-.37-.133-.686-.397-.95zm-.053 13.589c0 .25-.087.462-.262.636a.866.866 0 0 1-.636.262H3.681a.866.866 0 0 1-.636-.262.866.866 0 0 1-.262-.636V3.681c0-.25.087-.462.262-.636a.866.866 0 0 1 .636-.262h12.638c.25 0 .462.087.636.262a.866.866 0 0 1 .262.636v12.638z"/>
    <path d="M7.547 8.501c-.238.733-.354 1.333-.617 1.863-.24.485-1.78.754-2.12.345-.138-.166-.167-.488-.12-.714.026-.13.31-.285.462-.296.683-.048.893-.331 1.054-.88.259-.876.547-1.744.86-2.602.088-.242.197-.652.464-.652.352-.028.402.385.485.62.515 1.453.995 2.92 1.493 4.38.047.14.148.347.26.396.166-.018.216-.209.27-.343.327-.826.615-1.667.954-2.488.087-.212.207-.547.467-.551.255.014.348.292.446.479.25.476.448.98.688 1.461.066.134.198.304.318.32.1.014.257-.155.336-.277.32-.496 1.644-.838 2.105-.483.149.114.249.414.218.605-.028.181-.267.474-.396.47-1.183-.032-1.322.934-1.76 1.627-.097.154-.148.348-.26.51-.11.16-.231.369-.39.376-.144.007-.359-.19-.437-.35-.226-.46-.399-.947-.594-1.422-.049-.117-.095-.35-.252-.37-.157.025-.174.16-.222.268a38.456 38.456 0 0 0-.724 1.744c-.187.48-.295.974-.538 1.447-.132.258-.226.388-.38.388-.161-.001-.303-.249-.363-.392-.45-1.066-.66-2.206-.96-3.34-.18-.672-.457-1.316-.747-2.139z"/>
</svg>
