<svg xmlns="http://www.w3.org/2000/svg" width="20" height="20" version="1.2">
    <g font-weight="400" style="fill:none;fill-rule:evenodd;stroke:#000;stroke-width:1;stroke-linecap:square;stroke-linejoin:bevel">
        <g style="font-style:normal;font-weight:400;font-size:17.00779915px;font-family:icomoon;fill:#fff;fill-opacity:1;stroke:none">
            <path d="M2.021-18.688h18.957c.555 0 1.03.199 1.427.596.397.396.595.872.595 1.426V2.291c0 .554-.198 1.03-.595 1.426a1.946 1.946 0 0 1-1.427.595H2.021c-.554 0-1.029-.198-1.426-.595A1.946 1.946 0 0 1 0 2.291v-18.957c0-.554.198-1.03.595-1.426a1.946 1.946 0 0 1 1.426-.596" font-size="17.008" style="vector-effect:none;fill-rule:nonzero" transform="matrix(.65217 0 0 .65217 2.5 14.687)"/>
        </g>
        <g style="font-style:normal;font-weight:400;font-size:17.00779915px;font-family:icomoon;fill:#000;fill-opacity:1;stroke:none">
            <path d="M20.979-18.014a1.3 1.3 0 0 1 .954.393 1.3 1.3 0 0 1 .393.955V2.291a1.3 1.3 0 0 1-.393.955 1.3 1.3 0 0 1-.955.393H2.021a1.3 1.3 0 0 1-.954-.393 1.3 1.3 0 0 1-.393-.955v-18.957a1.3 1.3 0 0 1 .393-.955 1.3 1.3 0 0 1 .954-.393h18.957m0-.674H2.021c-.554 0-1.029.199-1.426.596A1.946 1.946 0 0 0 0-16.666V2.291c0 .554.198 1.03.595 1.426.397.397.872.595 1.426.595h18.957c.555 0 1.03-.198 1.427-.595.397-.397.595-.872.595-1.426v-18.957c0-.554-.198-1.03-.595-1.426a1.946 1.946 0 0 0-1.426-.596m-1.011 15.79-3.324-1.909 2.717-1.46-.494-.876-3.234 1.752-3.122-1.797 3.1-1.774 3.234 1.774.471-.898-2.695-1.46 3.324-1.887-.516-.898-3.324 1.91.134-3.078h-1.01l-.113 3.684-3.1 1.752v-3.504l3.145-1.932-.539-.854-2.605 1.595v-3.908h-1.011v3.908L8.4-14.353l-.539.854h-1.01l.09 3.055-3.37-1.954-.516.898 3.391 1.954L3.73-8.108l.494.92 3.256-1.751 3.01 1.751-3.054 1.752L4.2-7.188l-.471.899 2.695 1.46-3.37 1.954.495.876L6.94-3.953 6.85-.898l1.011.044.113-3.706 3.032-1.752v3.572L7.884-.786 8.4.067l2.606-1.617v3.841h1.01v-3.84L14.646.066l.539-.853-3.167-1.954v-3.572l3.1 1.797.112 3.684h1.01l-.09-3.077 3.325 1.931.494-.92M7.884-13.477l3.122 1.91v3.504L7.974-9.815l-.09-3.662" font-size="17.008" style="vector-effect:none;fill-rule:nonzero" transform="matrix(.65217 0 0 .65217 2.5 14.687)"/>
        </g>
    </g>
</svg>
