<svg xmlns="http://www.w3.org/2000/svg" width="20" height="20" version="1.2">
    <g font-weight="400" style="fill:none;fill-rule:evenodd;stroke:#000;stroke-width:1;stroke-linecap:square;stroke-linejoin:bevel">
        <g style="font-style:normal;font-weight:400;font-size:17.00779915px;font-family:icomoon;fill:#ff0;fill-opacity:1;stroke:none">
            <path d="M2.021-18.688h18.957c.555 0 1.03.199 1.427.596.397.396.595.872.595 1.426V2.291c0 .554-.198 1.03-.595 1.426a1.946 1.946 0 0 1-1.427.595H2.021c-.554 0-1.029-.198-1.426-.595A1.946 1.946 0 0 1 0 2.291v-18.957c0-.554.198-1.03.595-1.426a1.946 1.946 0 0 1 1.426-.596" font-size="17.008" style="vector-effect:none;fill-rule:nonzero" transform="matrix(.65217 0 0 .65217 2.5 14.687)"/>
        </g>
        <g style="font-style:normal;font-weight:400;font-size:17.00779915px;font-family:icomoon;fill:#000;fill-opacity:1;stroke:none">
            <path d="M20.979-18.014a1.3 1.3 0 0 1 .954.393 1.3 1.3 0 0 1 .393.955V2.291a1.3 1.3 0 0 1-.393.955 1.3 1.3 0 0 1-.955.393H2.021a1.3 1.3 0 0 1-.954-.393 1.3 1.3 0 0 1-.393-.955v-18.957a1.3 1.3 0 0 1 .393-.955 1.3 1.3 0 0 1 .954-.393h18.957m0-.674H2.021c-.554 0-1.029.199-1.426.596A1.946 1.946 0 0 0 0-16.666V2.291c0 .554.198 1.03.595 1.426.397.397.872.595 1.426.595h18.957c.555 0 1.03-.198 1.427-.595.397-.397.595-.872.595-1.426v-18.957c0-.554-.198-1.03-.595-1.426a1.946 1.946 0 0 0-1.426-.596M11.5-16.756a9.23 9.23 0 0 0-3.729.764 9.584 9.584 0 0 0-3.032 2.044 9.582 9.582 0 0 0-2.044 3.032 9.229 9.229 0 0 0-.763 3.728c0 1.318.254 2.561.763 3.729A9.583 9.583 0 0 0 4.74-.427a9.583 9.583 0 0 0 3.032 2.044 9.23 9.23 0 0 0 3.729.764 9.23 9.23 0 0 0 3.728-.764 9.582 9.582 0 0 0 3.033-2.044 9.584 9.584 0 0 0 2.044-3.032 9.23 9.23 0 0 0 .763-3.728 9.23 9.23 0 0 0-.763-3.729 9.583 9.583 0 0 0-2.044-3.032 9.583 9.583 0 0 0-3.032-2.044 9.23 9.23 0 0 0-3.729-.764m0 1.37h.023a8.08 8.08 0 0 1 3.189.63 8.349 8.349 0 0 1 2.617 1.762 8.109 8.109 0 0 1 1.74 2.595 7.942 7.942 0 0 1 .652 3.189 7.97 7.97 0 0 1-.393 2.516 8.247 8.247 0 0 1-1.09 2.178l.023-.022-6.334-5.144a.879.879 0 0 0-.202-.112.6.6 0 0 0-.46 0 .983.983 0 0 0-.192.112L4.74-2.583a8.066 8.066 0 0 1-1.437-4.604 7.84 7.84 0 0 1 .651-3.19 8.352 8.352 0 0 1 1.763-2.617 8.423 8.423 0 0 1 2.595-1.763 8.08 8.08 0 0 1 3.189-.629m0 16.397A7.92 7.92 0 0 1 8.22.326a8.15 8.15 0 0 1-2.627-1.853H5.57l5.93-4.785 5.93 4.785A8.412 8.412 0 0 1 14.78.326a7.92 7.92 0 0 1-3.28.685" font-size="17.008" style="vector-effect:none;fill-rule:nonzero" transform="matrix(.65217 0 0 .65217 2.5 14.687)"/>
        </g>
    </g>
</svg>
