<svg xmlns="http://www.w3.org/2000/svg" width="20" height="20" version="1.2">
    <g font-weight="400" style="fill:none;fill-rule:evenodd;stroke:#000;stroke-width:1;stroke-linecap:square;stroke-linejoin:bevel">
        <g style="font-style:normal;font-weight:400;font-size:17.00779915px;font-family:icomoon;fill:red;fill-opacity:1;stroke:none">
            <path d="M2.021-18.688h18.957c.555 0 1.03.199 1.427.596.397.396.595.872.595 1.426V2.291c0 .554-.198 1.03-.595 1.426a1.946 1.946 0 0 1-1.427.595H2.021c-.554 0-1.029-.198-1.426-.595A1.946 1.946 0 0 1 0 2.291v-18.957c0-.554.198-1.03.595-1.426a1.946 1.946 0 0 1 1.426-.596" font-size="17.008" style="vector-effect:none;fill-rule:nonzero" transform="matrix(.65217 0 0 .65217 2.5 14.687)"/>
        </g>
        <g style="font-style:normal;font-weight:400;font-size:14.17319965px;font-family:icomoon;fill:#ffbabd;fill-opacity:1;stroke:none">
            <path d="M19-5.938a9.245 9.245 0 0 1-.742 3.693A9.506 9.506 0 0 1 16.226.789a9.506 9.506 0 0 1-3.034 2.031 9.245 9.245 0 0 1-3.692.743 9.245 9.245 0 0 1-3.692-.743A9.506 9.506 0 0 1 2.774.79 9.506 9.506 0 0 1 .742-2.245 9.245 9.245 0 0 1 0-5.937C0-7.25.247-8.48.742-9.63a9.506 9.506 0 0 1 2.032-3.034 9.506 9.506 0 0 1 3.034-2.031 9.245 9.245 0 0 1 3.692-.742c1.311 0 2.542.247 3.692.742a9.506 9.506 0 0 1 3.034 2.031 9.506 9.506 0 0 1 2.032 3.034A9.245 9.245 0 0 1 19-5.937" font-size="14.173" style="vector-effect:none;fill-rule:nonzero" transform="matrix(.65217 0 0 .65217 3.804 13.872)"/>
        </g>
        <g style="font-style:normal;font-weight:400;font-size:17.00779915px;font-family:icomoon;fill:#000;fill-opacity:1;stroke:none">
            <path d="M20.979-18.014a1.3 1.3 0 0 1 .954.393 1.3 1.3 0 0 1 .393.955V2.291a1.3 1.3 0 0 1-.393.955 1.3 1.3 0 0 1-.955.393H2.021a1.3 1.3 0 0 1-.954-.393 1.3 1.3 0 0 1-.393-.955v-18.957a1.3 1.3 0 0 1 .393-.955 1.3 1.3 0 0 1 .954-.393h18.957m0-.674H2.021c-.554 0-1.029.199-1.426.596A1.946 1.946 0 0 0 0-16.666V2.291c0 .554.198 1.03.595 1.426.397.397.872.595 1.426.595h18.957c.555 0 1.03-.198 1.427-.595.397-.397.595-.872.595-1.426v-18.957c0-.554-.198-1.03-.595-1.426a1.946 1.946 0 0 0-1.426-.596M11.5 2.291a9.252 9.252 0 0 1-3.684-.741 9.82 9.82 0 0 1-3.01-2.044 9.82 9.82 0 0 1-2.043-3.01 9.252 9.252 0 0 1-.742-3.683c0-1.303.248-2.531.742-3.684a9.821 9.821 0 0 1 2.044-3.01 9.82 9.82 0 0 1 3.01-2.044 9.253 9.253 0 0 1 3.683-.741c1.303 0 2.53.247 3.684.741a9.821 9.821 0 0 1 3.01 2.044 9.821 9.821 0 0 1 2.043 3.01 9.253 9.253 0 0 1 .742 3.684c0 1.302-.248 2.53-.742 3.683a9.82 9.82 0 0 1-2.044 3.01 9.821 9.821 0 0 1-3.01 2.044 9.252 9.252 0 0 1-3.683.741m0-18.283c-1.213 0-2.35.232-3.414.696a8.907 8.907 0 0 0-2.808 1.887 8.907 8.907 0 0 0-1.886 2.807 8.438 8.438 0 0 0-.697 3.414c0 1.213.232 2.351.697 3.415A8.907 8.907 0 0 0 5.278-.966 8.907 8.907 0 0 0 8.086.921a8.438 8.438 0 0 0 3.414.696c1.213 0 2.35-.232 3.414-.696a8.907 8.907 0 0 0 2.808-1.887 8.907 8.907 0 0 0 1.886-2.807 8.438 8.438 0 0 0 .697-3.414c0-1.213-.232-2.351-.697-3.415a8.907 8.907 0 0 0-1.886-2.807 8.907 8.907 0 0 0-2.808-1.887 8.438 8.438 0 0 0-3.414-.696" font-size="17.008" style="vector-effect:none;fill-rule:nonzero" transform="matrix(.65217 0 0 .65217 2.5 14.687)"/>
        </g>
    </g>
</svg>
