<svg xmlns="http://www.w3.org/2000/svg" width="20" height="20" version="1.2">
    <g font-weight="400" style="fill:none;fill-rule:evenodd;stroke:#000;stroke-width:1;stroke-linecap:square;stroke-linejoin:bevel">
        <g style="font-style:normal;font-weight:400;font-size:22.67709923px;font-family:icomoon;fill:#fff;fill-opacity:1;stroke:none">
            <path d="M2.637-24.375h24.726c.723 0 1.343.259 1.86.776.518.518.777 1.138.777 1.86V2.989c0 .723-.259 1.343-.776 1.86a2.538 2.538 0 0 1-1.86.777H2.636a2.538 2.538 0 0 1-1.86-.776A2.538 2.538 0 0 1 0 2.989v-24.727c0-.723.259-1.343.776-1.86a2.538 2.538 0 0 1 1.86-.777" font-size="22.677" style="vector-effect:none;fill-rule:nonzero" transform="matrix(.66667 0 0 .66667 0 16.25)"/>
        </g>
        <g style="font-style:normal;font-weight:400;font-size:17.00779915px;font-family:icomoon;fill:#000;fill-opacity:1;stroke:none">
            <path d="M20.979-18.014a1.3 1.3 0 0 1 .954.393 1.3 1.3 0 0 1 .393.955V2.291a1.3 1.3 0 0 1-.393.955 1.3 1.3 0 0 1-.955.393H2.021a1.3 1.3 0 0 1-.954-.393 1.3 1.3 0 0 1-.393-.955v-18.957a1.3 1.3 0 0 1 .393-.955 1.3 1.3 0 0 1 .954-.393h18.957m0-.674H2.021c-.554 0-1.029.199-1.426.596A1.946 1.946 0 0 0 0-16.666V2.291c0 .554.198 1.03.595 1.426.397.397.872.595 1.426.595h18.957c.555 0 1.03-.198 1.427-.595.397-.397.595-.872.595-1.426v-18.957c0-.554-.198-1.03-.595-1.426a1.946 1.946 0 0 0-1.426-.596m-.742 8.805a3.078 3.078 0 0 0-.83-1.898 2.994 2.994 0 0 0-1.798-.954h-.022a2.74 2.74 0 0 0-.932-.989 2.384 2.384 0 0 0-1.314-.381h-.079a.18.18 0 0 0-.078.022l.022-.022c-.988 0-1.733.322-2.235.965-.501.644-.76.981-.775 1.011l-.022.135v1.482a4.948 4.948 0 0 0-.921-.325 4.242 4.242 0 0 0-1.033-.124c-1.183 0-2.194.352-3.032 1.056A9.976 9.976 0 0 0 5.12-7.558c-.539.86-.936 1.666-1.19 2.414-.255.734-.39 1.131-.405 1.19v5.167H7.93v-3.796H12.6v3.796h7.704V-9.883h-.068m-.988 0h-3.504c.105-.838.356-1.359.753-1.56.396-.203.647-.304.752-.304.51.03.95.22 1.325.573.375.352.592.775.652 1.269l.022.022m-4.02-3.167c.015-.015.03-.022.044-.022h.068a1.596 1.596 0 0 1 1.145.471c-.3.12-.565.289-.797.506-.232.217-.416.46-.55.73l-.023.022h-1.931v-.404c.21-.374.49-.678.842-.91a2.404 2.404 0 0 1 1.18-.393h.022m-2.044 2.696h1.617c0 .06-.008.127-.023.202a1.14 1.14 0 0 0-.022.224v1.595a7.072 7.072 0 0 0-.73-.831 10.635 10.635 0 0 0-.82-.719h-.022v-.472M15.678.158h-2.09v-3.75H6.874V.201H4.515v-3.93c.045-.18.194-.6.449-1.258.24-.674.591-1.378 1.056-2.112a8.64 8.64 0 0 1 1.729-1.976 3.72 3.72 0 0 1 2.448-.876c.824 0 1.565.254 2.224.763a9.015 9.015 0 0 1 1.662 1.764c.464.651.831 1.276 1.1 1.875.27.6.435.98.495 1.146v4.56m3.616 0h-2.605V-4.65a15.926 15.926 0 0 0-.966-2.134l.022.067v-2.179h3.527l.022 9.052" font-size="17.008" style="vector-effect:none;fill-rule:nonzero" transform="matrix(.66667 0 0 .66667 2.333 14.792)"/>
        </g>
        <g style="font-style:normal;font-weight:400;font-size:22.67709923px;font-family:icomoon;fill:#000;fill-opacity:1;stroke:none">
            <path d="M26.426-22.236c.39 0 .727.141 1.01.425.284.283.425.62.425 1.01V2.051c0 .39-.141.727-.425 1.01a1.38 1.38 0 0 1-1.01.425H3.574a1.38 1.38 0 0 1-1.01-.424 1.38 1.38 0 0 1-.425-1.011v-22.852c0-.39.141-.727.424-1.01a1.38 1.38 0 0 1 1.011-.425h22.852m0-.703H3.574c-.586 0-1.089.21-1.509.63-.42.42-.63.922-.63 1.508V2.051c0 .586.21 1.089.63 1.509.42.42.923.63 1.51.63h22.85c.587 0 1.09-.21 1.51-.63.42-.42.63-.923.63-1.51V-20.8c0-.587-.21-1.09-.63-1.51-.42-.42-.923-.63-1.51-.63m1.436-.732c.391 0 .728.142 1.011.425.283.283.425.62.425 1.01V3.487c0 .39-.142.728-.425 1.011a1.38 1.38 0 0 1-1.01.425H2.138a1.38 1.38 0 0 1-1.011-.425 1.38 1.38 0 0 1-.425-1.01v-25.723c0-.391.142-.728.425-1.011a1.38 1.38 0 0 1 1.01-.425h25.723m0-.703H2.14c-.586 0-1.09.21-1.51.63-.419.42-.629.923-.629 1.509V3.486c0 .586.21 1.09.63 1.51.42.419.923.629 1.509.629H27.86c.586 0 1.09-.21 1.51-.63.419-.42.629-.923.629-1.509v-25.722c0-.586-.21-1.09-.63-1.51-.42-.419-.923-.629-1.509-.629" font-size="22.677" style="vector-effect:none;fill-rule:nonzero" transform="matrix(.66667 0 0 .66667 0 16.25)"/>
        </g>
    </g>
</svg>
