<svg xmlns="http://www.w3.org/2000/svg" width="20" height="20" version="1.2">
    <g font-weight="400" style="fill:none;fill-rule:evenodd;stroke:#000;stroke-width:1;stroke-linecap:square;stroke-linejoin:bevel">
        <g style="font-style:normal;font-weight:400;font-size:17.00779915px;font-family:icomoon;fill:#fff;fill-opacity:1;stroke:none">
            <path d="M2.021-18.688h18.957c.555 0 1.03.199 1.427.596.397.396.595.872.595 1.426V2.291c0 .554-.198 1.03-.595 1.426a1.946 1.946 0 0 1-1.427.595H2.021c-.554 0-1.029-.198-1.426-.595A1.946 1.946 0 0 1 0 2.291v-18.957c0-.554.198-1.03.595-1.426a1.946 1.946 0 0 1 1.426-.596" font-size="17.008" style="vector-effect:none;fill-rule:nonzero" transform="matrix(.65217 0 0 .65217 2.5 14.687)"/>
        </g>
        <g style="font-style:normal;font-weight:400;font-size:17.00779915px;font-family:icomoon;fill:#000;fill-opacity:1;stroke:none">
            <path d="M20.979-18.014a1.3 1.3 0 0 1 .954.393 1.3 1.3 0 0 1 .393.955V2.291a1.3 1.3 0 0 1-.393.955 1.3 1.3 0 0 1-.955.393H2.021a1.3 1.3 0 0 1-.954-.393 1.3 1.3 0 0 1-.393-.955v-18.957a1.3 1.3 0 0 1 .393-.955 1.3 1.3 0 0 1 .954-.393h18.957m0-.674H2.021c-.554 0-1.029.199-1.426.596A1.946 1.946 0 0 0 0-16.666V2.291c0 .554.198 1.03.595 1.426.397.397.872.595 1.426.595h18.957c.555 0 1.03-.198 1.427-.595.397-.397.595-.872.595-1.426v-18.957c0-.554-.198-1.03-.595-1.426a1.946 1.946 0 0 0-1.426-.596M3.616-5.12H15.61V1.46H3.616v-6.581m12.69-4.088h2.876V1.46h-2.875V-9.209m-8.67-1.595c.194-.18.352-.4.471-.662.12-.262.18-.536.18-.82 0-.12-.011-.232-.034-.337a2.731 2.731 0 0 0-.078-.292c-.12-.719-.36-1.19-.719-1.415-.36-.225-.711-.097-1.056.382-.33.464-.614.599-.853.404-.24-.195-.577-.33-1.01-.404-.435-.09-.78.108-1.034.595-.255.487-.217 1.03.112 1.628.345.584.543 1.138.595 1.663.053.524.304.808.753.853.464.03 1.026-.228 1.684-.775l.989-.82m2.65-4.357-.337.36c-.224.239-.337.755-.337 1.549 0 .809.15 1.228.45 1.258.299.03.554.344.763.943.21.6.453 1 .73 1.202.277.202.685.123 1.224-.236.54-.36.835-.356.888.011.052.367.325.476.82.326.493-.15.838-.337 1.033-.562.194-.224.456-.27.786-.134.344.12.71.333 1.1.64.39.307.644.213.764-.281.135-.48.004-1.097-.393-1.853s-.887-1.202-1.471-1.336c-.6-.15-1.078-.158-1.438-.023-.36.135-.681.06-.966-.225-.284-.299-.426-.7-.426-1.201 0-.502-.24-.648-.72-.438-.179.075-.373.135-.583.18-.21.044-.427.067-.651.067-.225 0-.442-.023-.652-.067a2.895 2.895 0 0 1-.606-.203l.022.023" font-size="17.008" style="vector-effect:none;fill-rule:nonzero" transform="matrix(.65217 0 0 .65217 2.5 14.687)"/>
        </g>
    </g>
</svg>
