<svg xmlns="http://www.w3.org/2000/svg" width="20" height="20" version="1.2">
    <g font-weight="400" style="fill:none;fill-rule:evenodd;stroke:#000;stroke-width:1;stroke-linecap:square;stroke-linejoin:bevel">
        <g style="font-style:normal;font-weight:400;font-size:17.00779915px;font-family:icomoon;fill:#fff;fill-opacity:1;stroke:none">
            <path d="M2.021-18.688h18.957c.555 0 1.03.199 1.427.596.397.396.595.872.595 1.426V2.291c0 .554-.198 1.03-.595 1.426a1.946 1.946 0 0 1-1.427.595H2.021c-.554 0-1.029-.198-1.426-.595A1.946 1.946 0 0 1 0 2.291v-18.957c0-.554.198-1.03.595-1.426a1.946 1.946 0 0 1 1.426-.596" font-size="17.008" style="vector-effect:none;fill-rule:nonzero" transform="matrix(.65217 0 0 .65217 2.5 14.687)"/>
        </g>
        <g style="font-style:normal;font-weight:400;font-size:17.00779915px;font-family:icomoon;fill:#000;fill-opacity:1;stroke:none">
            <path d="M20.979-18.014a1.3 1.3 0 0 1 .954.393 1.3 1.3 0 0 1 .393.955V2.291a1.3 1.3 0 0 1-.393.955 1.3 1.3 0 0 1-.955.393H2.021a1.3 1.3 0 0 1-.954-.393 1.3 1.3 0 0 1-.393-.955v-18.957a1.3 1.3 0 0 1 .393-.955 1.3 1.3 0 0 1 .954-.393h18.957m0-.674H2.021c-.554 0-1.029.199-1.426.596A1.946 1.946 0 0 0 0-16.666V2.291c0 .554.198 1.03.595 1.426.397.397.872.595 1.426.595h18.957c.555 0 1.03-.198 1.427-.595.397-.397.595-.872.595-1.426v-18.957c0-.554-.198-1.03-.595-1.426a1.946 1.946 0 0 0-1.426-.596m-2.943 8.109v-1.033l-.528-.697c-.352-.464-.662-.74-.932-.83-.284-.09-.445-.54-.483-1.348-.037-.809-.483-1.213-1.336-1.213-.839 0-1.325.217-1.46.651-.135.434-.51.666-1.123.696-.63.045-.917-.138-.865-.55.053-.412-.243-.61-.887-.595-.644.03-1.037.213-1.18.55-.142.337-.37.506-.684.506a.763.763 0 0 1-.685-.371c-.158-.247-.416-.37-.775-.37a1.895 1.895 0 0 0-1.168.662 1.922 1.922 0 0 0-.472 1.292v.089c.06.54.18.989.36 1.348.18.36.494.54.943.54.449 0 .73-.154.842-.461.112-.307.326-.46.64-.46.3 0 .457.164.472.493.015.33.27.472.764.427.479-.03.782-.24.91-.629.127-.39.497-.569 1.111-.539.614.015.898.221.854.618-.045.397.217.58.786.55.554-.03.902-.206 1.044-.528.142-.322.408-.445.797-.37.405.075.66.078.764.01.105-.066.225.08.36.439.074.15.134.322.18.517l.134.583v.023h-.651v4.874l-.158.09L9.48-7.816 9.434-5.75l2.538 1.123-.27.629-2.29-1.01-5.144-2.18v1.348l2.717 1.19-.27.63-2.447-1.056V1.37H18.71v-11.95h-.674" font-size="17.008" style="vector-effect:none;fill-rule:nonzero" transform="matrix(.65217 0 0 .65217 2.5 14.687)"/>
        </g>
    </g>
</svg>
