<svg xmlns="http://www.w3.org/2000/svg" width="20" height="20" version="1.2">
    <g font-weight="400" style="fill:none;fill-rule:evenodd;stroke:#000;stroke-width:1;stroke-linecap:square;stroke-linejoin:bevel">
        <g style="font-style:normal;font-weight:400;font-size:22.67709923px;font-family:icomoon;fill:#fff;fill-opacity:1;stroke:none">
            <path d="M2.637-24.375h24.726c.723 0 1.343.259 1.86.776.518.518.777 1.138.777 1.86V2.989c0 .723-.259 1.343-.776 1.86a2.538 2.538 0 0 1-1.86.777H2.636a2.538 2.538 0 0 1-1.86-.776A2.538 2.538 0 0 1 0 2.989v-24.727c0-.723.259-1.343.776-1.86a2.538 2.538 0 0 1 1.86-.777" font-size="22.677" style="vector-effect:none;fill-rule:nonzero" transform="matrix(.66667 0 0 .66667 0 16.25)"/>
        </g>
        <g style="font-style:normal;font-weight:400;font-size:17.00779915px;font-family:icomoon;fill:#000;fill-opacity:1;stroke:none">
            <path d="M20.979-18.014a1.3 1.3 0 0 1 .954.393 1.3 1.3 0 0 1 .393.955V2.291a1.3 1.3 0 0 1-.393.955 1.3 1.3 0 0 1-.955.393H2.021a1.3 1.3 0 0 1-.954-.393 1.3 1.3 0 0 1-.393-.955v-18.957a1.3 1.3 0 0 1 .393-.955 1.3 1.3 0 0 1 .954-.393h18.957m0-.674H2.021c-.554 0-1.029.199-1.426.596A1.946 1.946 0 0 0 0-16.666V2.291c0 .554.198 1.03.595 1.426.397.397.872.595 1.426.595h18.957c.555 0 1.03-.198 1.427-.595.397-.397.595-.872.595-1.426v-18.957c0-.554-.198-1.03-.595-1.426a1.946 1.946 0 0 0-1.426-.596m-.854 8.962h-2.246a2.19 2.19 0 0 0 .034-.247c.007-.09.01-.18.01-.27 0-.703-.246-1.302-.74-1.796a2.447 2.447 0 0 0-1.797-.741 2.26 2.26 0 0 0-.719.112c-.225.075-.434.18-.629.314v-.022a2.442 2.442 0 0 0-.775-1.696 2.414 2.414 0 0 0-1.74-.707c-.66 0-1.228.22-1.708.662-.479.442-.748.985-.808 1.629a2.994 2.994 0 0 0-.562-.214 2.412 2.412 0 0 0-.629-.078c-.688 0-1.28.247-1.774.74a2.421 2.421 0 0 0-.741 1.775v.045c0 .09.004.176.011.259.007.082.019.16.034.235H3.1L6.424-2.74h10.152l3.549-6.986M9.411-12.219h4.403c-.3.24-.536.528-.708.865a2.407 2.407 0 0 0-.258 1.112c0 .09.007.18.022.27.015.09.03.172.045.246H10.31c.015-.074.026-.157.033-.247.008-.09.012-.18.012-.27 0-.388-.087-.755-.259-1.1a2.722 2.722 0 0 0-.685-.876M10.826-1.01c0 .464-.168.865-.505 1.202a1.667 1.667 0 0 1-1.224.505c-.465 0-.865-.168-1.202-.505a1.641 1.641 0 0 1-.505-1.202c0-.479.168-.887.505-1.224a1.641 1.641 0 0 1 1.202-.505c.479 0 .887.168 1.224.505.337.337.505.745.505 1.224m5.458 0c0 .464-.168.865-.505 1.202a1.641 1.641 0 0 1-1.202.505c-.479 0-.887-.168-1.224-.505a1.641 1.641 0 0 1-.505-1.202c0-.479.168-.887.505-1.224a1.667 1.667 0 0 1 1.224-.505c.464 0 .865.168 1.202.505.337.337.505.745.505 1.224" font-size="17.008" style="vector-effect:none;fill-rule:nonzero" transform="matrix(.66667 0 0 .66667 2.333 14.792)"/>
        </g>
        <g style="font-style:normal;font-weight:400;font-size:22.67709923px;font-family:icomoon;fill:#000;fill-opacity:1;stroke:none">
            <path d="M26.426-22.236c.39 0 .727.141 1.01.425.284.283.425.62.425 1.01V2.051c0 .39-.141.727-.425 1.01a1.38 1.38 0 0 1-1.01.425H3.574a1.38 1.38 0 0 1-1.01-.424 1.38 1.38 0 0 1-.425-1.011v-22.852c0-.39.141-.727.424-1.01a1.38 1.38 0 0 1 1.011-.425h22.852m0-.703H3.574c-.586 0-1.089.21-1.509.63-.42.42-.63.922-.63 1.508V2.051c0 .586.21 1.089.63 1.509.42.42.923.63 1.51.63h22.85c.587 0 1.09-.21 1.51-.63.42-.42.63-.923.63-1.51V-20.8c0-.587-.21-1.09-.63-1.51-.42-.42-.923-.63-1.51-.63m1.436-.732c.391 0 .728.142 1.011.425.283.283.425.62.425 1.01V3.487c0 .39-.142.728-.425 1.011a1.38 1.38 0 0 1-1.01.425H2.138a1.38 1.38 0 0 1-1.011-.425 1.38 1.38 0 0 1-.425-1.01v-25.723c0-.391.142-.728.425-1.011a1.38 1.38 0 0 1 1.01-.425h25.723m0-.703H2.14c-.586 0-1.09.21-1.51.63-.419.42-.629.923-.629 1.509V3.486c0 .586.21 1.09.63 1.51.42.419.923.629 1.509.629H27.86c.586 0 1.09-.21 1.51-.63.419-.42.629-.923.629-1.509v-25.722c0-.586-.21-1.09-.63-1.51-.42-.419-.923-.629-1.509-.629" font-size="22.677" style="vector-effect:none;fill-rule:nonzero" transform="matrix(.66667 0 0 .66667 0 16.25)"/>
        </g>
        <g style="font-style:normal;font-weight:400;font-size:21.54330063px;font-family:icomoon;fill:red;fill-opacity:1;stroke:none">
            <path d="M.906 5.438a.847.847 0 0 1-.354-.071 1.409 1.409 0 0 1-.297-.184 1.408 1.408 0 0 1-.184-.298A.847.847 0 0 1 0 4.531c0-.132.024-.25.07-.354.048-.104.11-.203.185-.297l27.187-27.188a1.41 1.41 0 0 1 .298-.184.847.847 0 0 1 .354-.07c.245 0 .458.09.637.269.18.179.269.391.269.637 0 .132-.024.25-.07.354a1.41 1.41 0 0 1-.185.297L1.558 5.183a1.408 1.408 0 0 1-.298.184.847.847 0 0 1-.354.07" font-size="21.543" style="vector-effect:none;fill-rule:nonzero" transform="matrix(.66667 0 0 .66667 .333 16.042)"/>
        </g>
    </g>
</svg>
