<svg xmlns="http://www.w3.org/2000/svg" width="20" height="20" version="1.2">
    <path d="M-.715-3h21.43a2.2 2.2 0 0 1 1.612.673A2.2 2.2 0 0 1 23-.715v21.43a2.2 2.2 0 0 1-.673 1.612 2.2 2.2 0 0 1-1.612.673H-.715a2.2 2.2 0 0 1-1.612-.673A2.2 2.2 0 0 1-3 20.715V-.715a2.2 2.2 0 0 1 .673-1.612A2.2 2.2 0 0 1-.715-3" style="font-style:normal;font-weight:400;font-size:19.84250069px;font-family:icomoon;vector-effect:none;fill:red;fill-opacity:1;fill-rule:nonzero;stroke:none;stroke-width:1;stroke-linecap:square;stroke-linejoin:bevel" transform="matrix(.6923 0 0 .6923 3.077 3.077)"/>
    <path d="M20.943-2.314c.373 0 .694.135.965.406.271.27.406.592.406.965v21.886c0 .373-.135.694-.406.965-.27.271-.592.406-.965.406H-.943c-.373 0-.694-.135-.965-.406a1.318 1.318 0 0 1-.406-.965V-.943c0-.373.135-.694.406-.965.27-.271.592-.407.965-.407h21.886m0-.685H-.943c-.576 0-1.063.199-1.46.597A1.986 1.986 0 0 0-3-.943v21.886c0 .576.199 1.063.597 1.46.397.398.884.597 1.46.597h21.886c.576 0 1.062-.199 1.46-.597.398-.397.597-.884.597-1.46V-.943c0-.576-.199-1.063-.597-1.46A1.986 1.986 0 0 0 20.943-3" style="font-style:normal;font-weight:400;font-size:19.84250069px;font-family:icomoon;vector-effect:none;fill:#000;fill-opacity:1;fill-rule:nonzero;stroke:none;stroke-width:1;stroke-linecap:square;stroke-linejoin:bevel" transform="matrix(.6923 0 0 .6923 3.077 3.077)"/>
    <path d="M19.479-.826a1.3 1.3 0 0 1 .954.393 1.3 1.3 0 0 1 .393.954V19.48a1.3 1.3 0 0 1-.393.954 1.3 1.3 0 0 1-.955.393H.521a1.3 1.3 0 0 1-.954-.393 1.3 1.3 0 0 1-.393-.954V.52a1.3 1.3 0 0 1 .393-.954A1.3 1.3 0 0 1 .52-.826h18.957m0-.674H.521c-.554 0-1.029.198-1.426.595A1.946 1.946 0 0 0-1.5.521V19.48c0 .554.198 1.029.595 1.426.397.397.872.595 1.426.595h18.957c.555 0 1.03-.198 1.427-.595.397-.397.595-.872.595-1.426V.52c0-.554-.198-1.029-.595-1.426a1.946 1.946 0 0 0-1.427-.595M16.94 13.93c.36-.359.652-.778.876-1.257.225-.48.36-.988.405-1.527v-.023h1.258v-.674h-1.236a4.82 4.82 0 0 0-.629-2.055 4.823 4.823 0 0 0-1.392-1.539l-.023-.022V4.587H9.753v2.29a4.607 4.607 0 0 0-.842.776c-.247.292-.46.603-.64.932l-.023.045-.27-.112h-1.37V3.53h6.784v1.056h.673v-1.73h-8.13v5.66H3.082v1.73a3.936 3.936 0 0 0-.92 1.123 3.54 3.54 0 0 0-.428 1.415h-.539v.696h.54c.074.54.254 1.037.538 1.494a3.47 3.47 0 0 0 1.101 1.112H.521v.674h18.957v-.674h-1.751l-.787-2.156m-6.783-6.559.27-.202V5.26h5.12v1.955l.27.202c.525.374.948.85 1.27 1.426.321.577.482 1.21.482 1.898-.045 1.183-.494 2.186-1.347 3.01-.854.824-1.88 1.235-3.077 1.235h-.315c-1.198 0-2.224-.411-3.077-1.235-.854-.824-1.303-1.82-1.348-2.987v-.023c0-.689.158-1.325.472-1.909a4.166 4.166 0 0 1 1.258-1.437l.022-.023m-7.771 5.705c0-.494.112-.95.337-1.37.224-.42.524-.764.898-1.033h.023l.134-.09V9.191h4.043l.158.023c-.06.18-.113.374-.158.584-.045.21-.075.42-.09.629v.022H6.496v.674h1.258a4.471 4.471 0 0 0 1.28 2.808l-.337.943-.067.067c-.39.33-.824.596-1.303.798-.479.202-.988.318-1.527.348h-.27a3.055 3.055 0 0 1-2.178-.876 2.99 2.99 0 0 1-.966-2.134" style="font-style:normal;font-weight:400;font-size:17.00779915px;font-family:icomoon;vector-effect:none;fill:#000;fill-opacity:1;fill-rule:nonzero;stroke:none;stroke-width:1;stroke-linecap:square;stroke-linejoin:bevel" transform="matrix(.6923 0 0 .6923 3.077 3.077)"/>
</svg>
