<svg xmlns="http://www.w3.org/2000/svg" xml:space="preserve" width="210mm" height="297mm" viewBox="0 0 210 297">
    <g style="font-style:normal;font-weight:400;font-size:22.6771px;font-family:icomoon;display:inline;fill:#fff;fill-opacity:1;fill-rule:evenodd;stroke:none;stroke-width:1;stroke-linecap:square;stroke-linejoin:bevel">
        <path d="M2.637-24.375h24.726c.723 0 1.343.259 1.86.776.518.518.777 1.138.777 1.86V2.989c0 .723-.259 1.343-.776 1.86a2.538 2.538 0 0 1-1.86.777H2.636a2.538 2.538 0 0 1-1.86-.776A2.538 2.538 0 0 1 0 2.989v-24.727c0-.723.259-1.343.776-1.86a2.538 2.538 0 0 1 1.86-.777" font-size="22.677" font-weight="400" style="vector-effect:none;fill:#fff;fill-opacity:1;fill-rule:nonzero" transform="translate(.256 14.6) scale(.58805)"/>
    </g>
    <path d="M140.085 229.137c-.383 0-.711.137-.986.412a1.345 1.345 0 0 0-.412.986v13.125c0 .384.137.712.412.986.275.275.603.412.986.412h13.125c.384 0 .712-.137.987-.412.274-.274.412-.602.412-.986v-13.125c0-.384-.138-.712-.412-.986a1.345 1.345 0 0 0-.987-.412zm0 .466h13.125c.26 0 .479.09.66.272a.898.898 0 0 1 .272.66v13.125c0 .26-.09.479-.272.66a.897.897 0 0 1-.66.272h-13.125a.898.898 0 0 1-.66-.272.898.898 0 0 1-.271-.66v-13.125c0-.26.09-.479.271-.66a.898.898 0 0 1 .66-.272z" style="font-style:normal;font-weight:400;font-size:17.0078px;font-family:icomoon;vector-effect:none;fill:#000;fill-opacity:1;fill-rule:nonzero;stroke:none;stroke-width:.692313;stroke-linecap:square;stroke-linejoin:bevel" transform="translate(-137.648 -228.098)"/>
    <path d="M139.072 228.097c-.399 0-.735.14-1.01.415a1.373 1.373 0 0 0-.414 1.01v15.152c0 .398.138.734.414 1.01.275.275.611.414 1.01.414h15.152c.398 0 .734-.14 1.01-.415.275-.275.414-.61.414-1.01v-15.152c0-.398-.139-.734-.414-1.01a1.373 1.373 0 0 0-1.01-.413zm0 .475h15.152c.258 0 .48.094.668.281.187.188.281.41.281.668v15.153c0 .257-.094.48-.281.668a.912.912 0 0 1-.668.28h-15.152a.912.912 0 0 1-.668-.28.913.913 0 0 1-.282-.668V229.52c0-.257.094-.48.282-.668a.913.913 0 0 1 .668-.28z" style="font-style:normal;font-weight:400;font-size:19.8425px;font-family:icomoon;vector-effect:none;fill:#000;fill-opacity:1;fill-rule:nonzero;stroke:none;stroke-width:.692313;stroke-linecap:square;stroke-linejoin:bevel" transform="translate(-137.648 -228.098)"/>
    <path d="m-96.28-52.62-.016 6.531" style="fill:#000;stroke:#000;stroke-width:.23307;stroke-linecap:round;stroke-linejoin:round;stroke-dasharray:none;stroke-opacity:1;paint-order:stroke markers fill" transform="matrix(.87822 0 0 .87822 96.9 54.787)"/>
    <path d="M-100.068-46.084c-.021-1.49-.02-2.98.005-4.47l.006-.45v-2.178c0-.5.205-.998.558-1.352.353-.354.85-.56 1.35-.558a1.9 1.9 0 0 1 1.317.55c.345.345.547.829.55 1.317v.249c0 .254-.002.508 0 .762 0 .083.002.167 0 .251v.017-1.085a1301.333 1301.333 0 0 0 0-.156v-.112a1.75 1.75 0 0 0-.508-1.21 1.77 1.77 0 0 0-1.212-.51H-98.143v-.001h-.002a.002.002 0 0 0 0 .002v0l.002.002h0l.002.002V-46.081l.001.003v.002H-100.068v-.007z" style="fill:#000;stroke:#000;stroke-width:.234468;stroke-linecap:round;stroke-linejoin:round;stroke-dasharray:none;stroke-opacity:1;paint-order:stroke markers fill" transform="matrix(.87822 0 0 .87822 96.9 54.787)"/>
    <path d="M-104.982-46.002c-.032-2.16-.03-4.321.007-6.482.004-.217.008-.434.009-.651V-56.295a2.82 2.82 0 0 1 .81-1.959 2.775 2.775 0 0 1 1.958-.809 2.754 2.754 0 0 1 1.908.798c.5.5.793 1.201.798 1.908V-55.995c0 .368-.004.736 0 1.104 0 .122.003.243 0 .365a.12.12 0 0 0 0 .009v.012l-.001.003v-.006l.001-.004.001-.008-.001-.009c-.003-.022 0-.044 0-.066V-54.697c.002-.46 0-.919 0-1.378v-.388a2.538 2.538 0 0 0-.738-1.756 2.565 2.565 0 0 0-1.757-.739H-102.19l-.001-.001h-.002l-.001.002v.003h.005l.002.003V-45.99h-.001l-.002.001H-104.983a.109.109 0 0 0 0-.011z" style="fill:#000;stroke:#000;stroke-width:.339952;stroke-linecap:round;stroke-linejoin:round;stroke-dasharray:none;stroke-opacity:1;paint-order:stroke markers fill" transform="matrix(.87822 0 0 .87822 96.9 54.787)"/>
    <path d="M-105.817-46.007H-96.376v.001l1.995-.008v.152h-11.436z" style="fill:#000;fill-opacity:1;stroke:#000;stroke-width:.144458;stroke-linecap:round;stroke-linejoin:round;stroke-dasharray:none;stroke-opacity:1;paint-order:stroke markers fill" transform="matrix(.87822 0 0 .87822 96.9 54.787)"/>
    <path d="M138.535 245.751a.505.505 0 0 1-.211-.042.841.841 0 0 1-.178-.11.838.838 0 0 1-.11-.177.505.505 0 0 1-.042-.212c0-.078.014-.149.042-.21a.842.842 0 0 1 .11-.178l16.226-16.226a.84.84 0 0 1 .177-.11.505.505 0 0 1 .212-.042.52.52 0 0 1 .38.16.52.52 0 0 1 .16.38c0 .08-.013.15-.042.212a.842.842 0 0 1-.11.177L138.925 245.6a.838.838 0 0 1-.178.11.505.505 0 0 1-.211.042" style="font-style:normal;font-weight:400;font-size:18.7086px;font-family:icomoon;display:inline;vector-effect:none;fill:red;fill-opacity:1;fill-rule:nonzero;stroke:none;stroke-width:.692313;stroke-linecap:square;stroke-linejoin:bevel" transform="translate(-137.648 -228.098)"/>
</svg>
