<svg xmlns="http://www.w3.org/2000/svg" width="20" height="20" version="1.2">
    <g font-size="19.843" font-weight="400" style="font-style:normal;font-weight:400;font-size:19.84250069px;font-family:icomoon;fill:#ff0;fill-opacity:1;fill-rule:evenodd;stroke:none;stroke-width:1;stroke-linecap:square;stroke-linejoin:bevel">
        <path d="M2.285-21.125h21.43a2.2 2.2 0 0 1 1.612.673A2.2 2.2 0 0 1 26-18.84V2.59a2.2 2.2 0 0 1-.673 1.612 2.2 2.2 0 0 1-1.612.673H2.285a2.2 2.2 0 0 1-1.612-.673A2.2 2.2 0 0 1 0 2.59v-21.43a2.2 2.2 0 0 1 .673-1.612 2.2 2.2 0 0 1 1.612-.673" style="vector-effect:none;fill-rule:nonzero" transform="matrix(.6923 0 0 .6923 1 15.625)"/>
    </g>
    <g font-size="19.843" font-weight="400" style="font-style:normal;font-weight:400;font-size:19.84250069px;font-family:icomoon;fill:#000;fill-opacity:1;fill-rule:evenodd;stroke:none;stroke-width:1;stroke-linecap:square;stroke-linejoin:bevel">
        <path d="M23.943-20.44c.373 0 .694.136.965.407.271.27.406.592.406.965V2.818c0 .373-.135.694-.406.965-.27.271-.592.406-.965.406H2.057c-.373 0-.694-.135-.965-.406a1.318 1.318 0 0 1-.406-.965v-21.886c0-.373.135-.694.406-.965.27-.271.592-.407.965-.407h21.886m0-.685H2.057c-.576 0-1.063.199-1.46.597A1.986 1.986 0 0 0 0-19.068V2.818c0 .576.199 1.063.597 1.46.397.398.884.597 1.46.597h21.886c.576 0 1.063-.199 1.46-.597.398-.397.597-.884.597-1.46v-21.886c0-.576-.199-1.063-.597-1.46a1.986 1.986 0 0 0-1.46-.597" style="vector-effect:none;fill-rule:nonzero" transform="matrix(.6923 0 0 .6923 1 15.625)"/>
    </g>
    <g font-size="17.008" font-weight="400" style="font-style:normal;font-weight:400;font-size:17.00779915px;font-family:icomoon;fill:#000;fill-opacity:1;fill-rule:evenodd;stroke:none;stroke-width:1;stroke-linecap:square;stroke-linejoin:bevel">
        <path d="M20.979-18.014a1.3 1.3 0 0 1 .954.393 1.3 1.3 0 0 1 .393.955V2.291a1.3 1.3 0 0 1-.393.955 1.3 1.3 0 0 1-.955.393H2.021a1.3 1.3 0 0 1-.954-.393 1.3 1.3 0 0 1-.393-.955v-18.957a1.3 1.3 0 0 1 .393-.955 1.3 1.3 0 0 1 .954-.393h18.957m0-.674H2.021c-.554 0-1.029.199-1.426.596A1.946 1.946 0 0 0 0-16.666V2.291c0 .554.198 1.03.595 1.426.397.397.872.595 1.426.595h18.957c.555 0 1.03-.198 1.427-.595.397-.397.595-.872.595-1.426v-18.957c0-.554-.198-1.03-.595-1.426a1.946 1.946 0 0 0-1.426-.596M18.44-3.257c.36-.36.652-.778.876-1.258.225-.479.36-.988.405-1.527v-.022h1.258v-.674h-1.236a4.82 4.82 0 0 0-.629-2.055 4.823 4.823 0 0 0-1.392-1.539l-.023-.022v-2.247h-6.446v2.291a4.607 4.607 0 0 0-.842.775c-.247.292-.46.603-.64.932l-.023.045-.27-.112h-1.37v-4.986h6.784v1.055h.673v-1.73h-8.13v5.661H4.582v1.73a3.936 3.936 0 0 0-.92 1.123 3.54 3.54 0 0 0-.428 1.415h-.539v.696h.54c.074.539.254 1.037.538 1.494a3.47 3.47 0 0 0 1.101 1.111H2.021v.674h18.957V-1.1h-1.751l-.787-2.156m-6.783-6.558.27-.203v-1.909h5.12v1.954l.27.202c.524.375.947.85 1.27 1.427.321.576.482 1.209.482 1.898-.045 1.183-.494 2.186-1.347 3.01-.854.823-1.88 1.235-3.078 1.235h-.314c-1.198 0-2.224-.412-3.077-1.236-.854-.823-1.303-1.819-1.348-2.987v-.022c0-.69.158-1.325.472-1.91a4.166 4.166 0 0 1 1.258-1.437l.022-.022M3.886-4.11c0-.494.112-.951.337-1.37.224-.42.524-.764.898-1.034h.023l.134-.09v-1.392h4.043l.158.022c-.06.18-.113.375-.158.584-.045.21-.075.42-.09.63v.022H7.996v.674h1.258a4.471 4.471 0 0 0 1.28 2.807l-.337.944-.067.067c-.39.33-.824.595-1.303.797-.479.202-.988.318-1.527.348h-.27a3.055 3.055 0 0 1-2.178-.876 2.99 2.99 0 0 1-.966-2.133" style="vector-effect:none;fill-rule:nonzero" transform="matrix(.6923 0 0 .6923 2.038 14.976)"/>
    </g>
</svg>
