<svg xmlns="http://www.w3.org/2000/svg" xml:space="preserve" width="210mm" height="297mm" viewBox="0 0 210 297">
    <path d="M79.23 228.097h14.836c.433 0 .805.156 1.116.466.31.31.466.683.466 1.117v14.835c0 .434-.156.806-.466 1.117-.31.31-.683.465-1.116.465H79.23c-.434 0-.806-.155-1.116-.465a1.523 1.523 0 0 1-.466-1.117V229.68c0-.434.155-.806.466-1.117.31-.31.682-.466 1.116-.466" style="font-style:normal;font-weight:400;font-size:19.8425px;font-family:icomoon;display:inline;vector-effect:none;fill:red;fill-opacity:1;fill-rule:nonzero;stroke:none;stroke-width:.692308;stroke-linecap:square;stroke-linejoin:bevel" transform="translate(-77.648 -228.098)"/>
    <path d="M80.086 229.136c-.384 0-.713.137-.988.412a1.347 1.347 0 0 0-.412.987v13.125c0 .383.138.712.412.987.275.275.604.412.988.412H93.21c.383 0 .713-.137.987-.412.275-.275.412-.604.412-.987v-13.125c0-.383-.137-.712-.412-.987a1.347 1.347 0 0 0-.987-.412zm0 .466H93.21a.9.9 0 0 1 .66.273.9.9 0 0 1 .273.66v13.125a.9.9 0 0 1-.272.66.9.9 0 0 1-.661.272H80.086a.9.9 0 0 1-.661-.272.9.9 0 0 1-.272-.66v-13.125a.9.9 0 0 1 .272-.66.9.9 0 0 1 .66-.273z" style="font-style:normal;font-weight:400;font-size:17.0078px;font-family:icomoon;vector-effect:none;fill:#000;fill-opacity:1;fill-rule:nonzero;stroke:none;stroke-width:.692308;stroke-linecap:square;stroke-linejoin:bevel" transform="translate(-77.648 -228.098)"/>
    <path d="M79.072 228.098c-.399 0-.736.137-1.011.413a1.375 1.375 0 0 0-.413 1.01v15.153c0 .398.137.735.413 1.01.275.276.612.413 1.01.413h15.153c.398 0 .735-.137 1.01-.413.276-.275.414-.612.414-1.01V229.52c0-.398-.138-.735-.413-1.01a1.375 1.375 0 0 0-1.011-.413zm0 .474h15.152c.258 0 .48.094.668.281.187.188.281.41.281.668v15.153c0 .257-.094.48-.281.668a.912.912 0 0 1-.668.28H79.072a.913.913 0 0 1-.668-.28.913.913 0 0 1-.282-.668V229.52c0-.258.094-.48.282-.668a.913.913 0 0 1 .668-.28z" style="font-style:normal;font-weight:400;font-size:19.8425px;font-family:icomoon;vector-effect:none;fill:#000;fill-opacity:1;fill-rule:nonzero;stroke:none;stroke-width:.692308;stroke-linecap:square;stroke-linejoin:bevel" transform="translate(-77.648 -228.098)"/>
    <path d="m132.982 217.287-28.973-.268-8.698-27.637 23.597-16.813 23.282 17.246z" style="fill:#000;stroke:#000;stroke-width:4.34401;stroke-linecap:square;paint-order:stroke markers fill" transform="matrix(.21804 0 0 .19186 -16.84 -28.433)"/>
</svg>
