<?xml version="1.0" encoding="UTF-8" standalone="no"?>
<svg
   xmlns:dc="http://purl.org/dc/elements/1.1/"
   xmlns:cc="http://creativecommons.org/ns#"
   xmlns:rdf="http://www.w3.org/1999/02/22-rdf-syntax-ns#"
   xmlns:svg="http://www.w3.org/2000/svg"
   xmlns="http://www.w3.org/2000/svg"
   xmlns:sodipodi="http://sodipodi.sourceforge.net/DTD/sodipodi-0.dtd"
   xmlns:inkscape="http://www.inkscape.org/namespaces/inkscape"
   width="20"
   height="20"
   viewBox="0 0 20 20"
   version="1.2"
   id="svg38"
   sodipodi:docname="60202040633.svg"
   inkscape:version="0.92.4 (5da689c313, 2019-01-14)">
  <metadata
     id="metadata42">
    <rdf:RDF>
      <cc:Work
         rdf:about="">
        <dc:format>image/svg+xml</dc:format>
        <dc:type
           rdf:resource="http://purl.org/dc/dcmitype/StillImage" />
      </cc:Work>
    </rdf:RDF>
  </metadata>
  <sodipodi:namedview
     pagecolor="#ffffff"
     bordercolor="#666666"
     borderopacity="1"
     objecttolerance="10"
     gridtolerance="10"
     guidetolerance="10"
     inkscape:pageopacity="0"
     inkscape:pageshadow="2"
     inkscape:window-width="1920"
     inkscape:window-height="1017"
     id="namedview40"
     showgrid="false"
     inkscape:zoom="11.8"
     inkscape:cx="-5.2542373"
     inkscape:cy="10"
     inkscape:window-x="-8"
     inkscape:window-y="-8"
     inkscape:window-maximized="1"
     inkscape:current-layer="svg38" />
  <title
     id="title2">Qt SVG Document</title>
  <desc
     id="desc4">Generated with Qt</desc>
  <defs
     id="defs6" />
  <g
     id="g36"
     transform="matrix(0.65217391,0,0,0.65217391,-0.43478256,-0.43478256)"
     style="fill:none;fill-rule:evenodd;stroke:#000000;stroke-width:1;stroke-linecap:square;stroke-linejoin:bevel">
    <g
       transform="translate(16,16)"
       font-size="8.25"
       font-weight="400"
       font-style="normal"
       id="g8"
       style="font-style:normal;font-weight:400;font-size:8.25px;font-family:'MS Shell Dlg 2';fill:none;stroke:#000000;stroke-width:1;stroke-linecap:square;stroke-linejoin:bevel;stroke-opacity:1" />
    <g
       transform="matrix(1.33333,0,0,1.33333,16,16)"
       font-size="8.25"
       font-weight="400"
       font-style="normal"
       id="g10"
       style="font-style:normal;font-weight:400;font-size:8.25px;font-family:'MS Shell Dlg 2';fill:none;stroke:#000000;stroke-width:1;stroke-linecap:square;stroke-linejoin:bevel;stroke-opacity:1" />
    <g
       transform="translate(4.5,23.1875)"
       font-size="17.0078"
       font-weight="400"
       font-style="normal"
       id="g14"
       style="font-style:normal;font-weight:400;font-size:17.00779915px;font-family:icomoon;fill:#ffff00;fill-opacity:1;stroke:none">
      <path
         d="M 2.02148,-18.6875 H 20.9785 c 0.5541,0 1.0295,0.1984 1.4263,0.5952 C 22.8016,-17.6955 23,-17.2201 23,-16.666 V 2.29102 C 23,2.84505 22.8016,3.32048 22.4048,3.71729 22.008,4.1141 21.5326,4.3125 20.9785,4.3125 H 2.02148 C 1.46745,4.3125 0.992025,4.1141 0.595215,3.71729 0.198405,3.32048 0,2.84505 0,2.29102 V -16.666 c 0,-0.5541 0.198405,-1.0295 0.595215,-1.4263 0.39681,-0.3968 0.872235,-0.5952 1.426265,-0.5952"
         id="path12"
         inkscape:connector-curvature="0"
         style="vector-effect:none;fill-rule:nonzero" />
    </g>
    <g
       transform="matrix(1.33333,0,0,1.33333,16,16)"
       font-size="8.25"
       font-weight="400"
       font-style="normal"
       id="g16"
       style="font-style:normal;font-weight:400;font-size:8.25px;font-family:'MS Shell Dlg 2';fill:none;stroke:#000000;stroke-width:1;stroke-linecap:square;stroke-linejoin:bevel;stroke-opacity:1" />
    <g
       transform="translate(16,16)"
       font-size="8.25"
       font-weight="400"
       font-style="normal"
       id="g18"
       style="font-style:normal;font-weight:400;font-size:8.25px;font-family:'MS Shell Dlg 2';fill:none;stroke:#000000;stroke-width:1;stroke-linecap:square;stroke-linejoin:bevel;stroke-opacity:1" />
    <g
       font-size="8.25"
       font-weight="400"
       font-style="normal"
       id="g20"
       style="font-style:normal;font-weight:400;font-size:8.25px;font-family:'MS Shell Dlg 2';fill:none;stroke:#000000;stroke-width:1;stroke-linecap:square;stroke-linejoin:bevel;stroke-opacity:1" />
    <g
       transform="translate(16,16)"
       font-size="8.25"
       font-weight="400"
       font-style="normal"
       id="g22"
       style="font-style:normal;font-weight:400;font-size:8.25px;font-family:'MS Shell Dlg 2';fill:none;stroke:#000000;stroke-width:1;stroke-linecap:square;stroke-linejoin:bevel;stroke-opacity:1" />
    <g
       transform="matrix(1.33333,0,0,1.33333,16,16)"
       font-size="8.25"
       font-weight="400"
       font-style="normal"
       id="g24"
       style="font-style:normal;font-weight:400;font-size:8.25px;font-family:'MS Shell Dlg 2';fill:none;stroke:#000000;stroke-width:1;stroke-linecap:square;stroke-linejoin:bevel;stroke-opacity:1" />
    <g
       transform="translate(4.5,23.1875)"
       font-size="17.0078"
       font-weight="400"
       font-style="normal"
       id="g28"
       style="font-style:normal;font-weight:400;font-size:17.00779915px;font-family:icomoon;fill:#000000;fill-opacity:1;stroke:none">
      <path
         d="m 20.9785,-18.0137 c 0.3744,0 0.6926,0.1311 0.9546,0.3931 0.262,0.262 0.3931,0.5802 0.3931,0.9546 V 2.29102 c 0,0.37434 -0.1311,0.69254 -0.3931,0.95459 -0.262,0.26204 -0.5802,0.39306 -0.9546,0.39306 H 2.02148 C 1.64714,3.63867 1.32894,3.50765 1.06689,3.24561 0.80485,2.98356 0.673828,2.66536 0.673828,2.29102 V -16.666 c 0,-0.3744 0.131022,-0.6926 0.393062,-0.9546 0.26205,-0.262 0.58025,-0.3931 0.95459,-0.3931 H 20.9785 m 0,-0.6738 H 2.02148 c -0.55403,0 -1.029455,0.1984 -1.426265,0.5952 C 0.198405,-17.6955 0,-17.2201 0,-16.666 V 2.29102 C 0,2.84505 0.198405,3.32048 0.595215,3.71729 0.992025,4.1141 1.46745,4.3125 2.02148,4.3125 H 20.9785 c 0.5541,0 1.0295,-0.1984 1.4263,-0.59521 C 22.8016,3.32048 23,2.84505 23,2.29102 V -16.666 c 0,-0.5541 -0.1984,-1.0295 -0.5952,-1.4263 -0.3968,-0.3968 -0.8722,-0.5952 -1.4263,-0.5952 M 7.61426,-6.33398 8.44531,-5.83984 c 0.07487,0 0.13102,-0.01498 0.16846,-0.04493 0.03743,-0.02994 0.05615,-0.07487 0.05615,-0.13476 0,-0.0599 -0.01123,-0.11605 -0.03369,-0.16846 C 8.61377,-6.2404 8.59505,-6.28906 8.58008,-6.33398 L 6.69336,-9.83789 2.51563,-9.74805 c 0,0 -0.00749,0 -0.02247,0 -0.05989,0 -0.11604,0.02621 -0.16845,0.07862 -0.05241,0.05241 -0.07862,0.11604 -0.07862,0.19091 0,0.01498 0,0.02247 0,0.02247 0,0.02994 0.01498,0.05989 0.04493,0.08984 0.02994,0.02995 0.07487,0.06738 0.13476,0.1123 L 3.2793,-8.7373 2.3584,-7.32227 C 2.26855,-7.1875 2.18994,-7.03402 2.12256,-6.86182 2.05518,-6.68962 2.014,-6.51367 1.99902,-6.33398 v 0.02246 c 0,0.14974 0.02246,0.29199 0.06739,0.42675 0.04492,0.13477 0.10481,0.26205 0.17968,0.38184 v -0.02246 l 2.83008,4.963867 C 5.04622,-0.696289 5.02002,-0.842285 4.99756,-0.999512 4.9751,-1.15674 4.96387,-1.31022 4.96387,-1.45996 4.97884,-1.74447 5.02751,-2.01025 5.10986,-2.25732 5.19222,-2.50439 5.30827,-2.73275 5.45801,-2.94238 H 5.43555 l 2.17871,-3.3916 m 1.07812,-2.875 2.33592,-3.61622 c -0.8685,-2.0065 -1.79685,-3.0098 -2.78514,-3.0098 -0.01497,0 -0.03369,0 -0.05615,0 -0.02246,0 -0.04866,0 -0.07861,0 -0.20964,0 -0.40804,0.0487 -0.59522,0.146 -0.18717,0.0974 -0.34065,0.2209 -0.46045,0.3706 v 0.0225 l -2.20117,3.5039 3.84082,2.58302 M 6.76074,0.606445 H 11.2754 V -4.08789 H 6.96289 C 6.79818,-3.87826 6.63346,-3.64616 6.46875,-3.3916 6.30404,-3.13704 6.14681,-2.88249 5.99707,-2.62793 l -0.04492,0.08984 c -0.10482,0.19467 -0.18718,0.40056 -0.24707,0.61768 -0.0599,0.21712 -0.08985,0.45296 -0.08985,0.70752 0,0.598958 0.09734,1.05192 0.292,1.358886 0.19466,0.306966 0.47916,0.460449 0.85351,0.460449 M 16.082,-10.085 l 2.0215,-3.3691 c 0.03,-0.0599 0.0562,-0.1198 0.0786,-0.1797 0.0225,-0.0599 0.0337,-0.1273 0.0337,-0.2021 0,-0.0749 -0.0112,-0.1311 -0.0337,-0.1685 -0.0224,-0.0374 -0.0636,-0.0561 -0.1235,-0.0561 l -0.2022,0.0898 -0.9433,0.4043 -0.8311,-1.6621 c -0.1946,-0.3744 -0.4754,-0.6551 -0.8423,-0.8423 -0.3668,-0.1872 -0.8273,-0.2808 -1.3813,-0.2808 H 8.625 c 0.23958,0.0599 0.46794,0.1385 0.68506,0.2359 0.21712,0.0973 0.42301,0.2134 0.61767,0.3481 0.34437,0.3294 0.65137,0.6888 0.92087,1.0781 0.2696,0.3894 0.5017,0.8086 0.6963,1.2579 v 0.0449 l 1.0557,2.1787 -0.7861,0.3818 c -0.03,0.015 -0.0562,0.0375 -0.0787,0.0674 -0.0224,0.03 -0.0337,0.0674 -0.0337,0.1123 0,0 0,0.0038 0,0.0112 0,0.0075 0,0.0113 0,0.0113 0,0.0599 0.0225,0.1085 0.0674,0.146 0.045,0.0374 0.1048,0.0636 0.1797,0.0786 l 4.1328,0.3144 m 1.9991,9.9951562 2.9199,-5.3232462 c -0.1797,0.22461 -0.3856,0.41927 -0.6177,0.58399 -0.2321,0.16471 -0.4829,0.29948 -0.7524,0.4043 h -0.0225 c -0.2246,0.07487 -0.4679,0.12727 -0.73,0.15722 -0.262,0.02995 -0.5278,0.04492 -0.7973,0.04492 -0.03,0 -0.0637,0 -0.1011,0 -0.0375,0 -0.0786,0 -0.1236,0 h 0.0225 -3.2793 v -0.67382 c 0,-0.13477 -0.015,-0.2321 -0.0449,-0.292 -0.03,-0.05989 -0.0749,-0.08984 -0.1348,-0.08984 0,0 -0.0037,0 -0.0112,0 -0.0075,0 -0.0112,0 -0.0112,0 -0.045,0 -0.0824,0.01123 -0.1123,0.03369 -0.03,0.02246 -0.0599,0.04867 -0.0899,0.07861 l -2.0215,3.57129 2.1338,3.2793 c 0.0749,0.13477 0.1498,0.22461 0.2246,0.26953 0.0749,0.04492 0.1423,0.05241 0.2022,0.02246 0.0599,-0.01497 0.1048,-0.03743 0.1347,-0.06738 0.03,-0.02995 0.045,-0.06738 0.045,-0.1123 V 0.651367 h 1.7968 c 0.015,0 0.03,0 0.045,0 0.0149,0 0.0374,0 0.0673,0 0.2696,0 0.5166,-0.067383 0.7413,-0.202148 0.2246,-0.134766 0.3968,-0.314453 0.5166,-0.5390628 M 16.8232,-4.89648 h 1.9317 c 0.2845,-0.01498 0.5503,-0.07487 0.7973,-0.17969 0.2471,-0.10482 0.468,-0.24707 0.6626,-0.42676 0.2247,-0.14974 0.4081,-0.34066 0.5503,-0.57275 0.1423,-0.2321 0.2209,-0.4904 0.2359,-0.77491 0,0 0,-0.00374 0,-0.01123 0,-0.00748 0,-0.01123 0,-0.01123 0,-0.11979 -0.0187,-0.23584 -0.0562,-0.34814 -0.0374,-0.11231 -0.0861,-0.21338 -0.146,-0.30322 l -2.3134,-3.54879 -3.9756,2.31343 2.3134,3.86329"
         id="path26"
         inkscape:connector-curvature="0"
         style="vector-effect:none;fill-rule:nonzero" />
    </g>
    <g
       transform="matrix(1.33333,0,0,1.33333,16,16)"
       font-size="8.25"
       font-weight="400"
       font-style="normal"
       id="g30"
       style="font-style:normal;font-weight:400;font-size:8.25px;font-family:'MS Shell Dlg 2';fill:none;stroke:#000000;stroke-width:1;stroke-linecap:square;stroke-linejoin:bevel;stroke-opacity:1" />
    <g
       transform="translate(16,16)"
       font-size="8.25"
       font-weight="400"
       font-style="normal"
       id="g32"
       style="font-style:normal;font-weight:400;font-size:8.25px;font-family:'MS Shell Dlg 2';fill:none;stroke:#000000;stroke-width:1;stroke-linecap:square;stroke-linejoin:bevel;stroke-opacity:1" />
    <g
       font-size="8.25"
       font-weight="400"
       font-style="normal"
       id="g34"
       style="font-style:normal;font-weight:400;font-size:8.25px;font-family:'MS Shell Dlg 2';fill:none;stroke:#000000;stroke-width:1;stroke-linecap:square;stroke-linejoin:bevel;stroke-opacity:1" />
  </g>
</svg>
