<?xml version="1.0" encoding="UTF-8" standalone="no"?>
<svg
   xmlns:dc="http://purl.org/dc/elements/1.1/"
   xmlns:cc="http://creativecommons.org/ns#"
   xmlns:rdf="http://www.w3.org/1999/02/22-rdf-syntax-ns#"
   xmlns:svg="http://www.w3.org/2000/svg"
   xmlns="http://www.w3.org/2000/svg"
   xmlns:sodipodi="http://sodipodi.sourceforge.net/DTD/sodipodi-0.dtd"
   xmlns:inkscape="http://www.inkscape.org/namespaces/inkscape"
   width="20"
   height="20"
   viewBox="0 0 20 20"
   version="1.2"
   id="svg52"
   sodipodi:docname="60202040413.svg"
   inkscape:version="0.92.4 (5da689c313, 2019-01-14)">
  <metadata
     id="metadata56">
    <rdf:RDF>
      <cc:Work
         rdf:about="">
        <dc:format>image/svg+xml</dc:format>
        <dc:type
           rdf:resource="http://purl.org/dc/dcmitype/StillImage" />
      </cc:Work>
    </rdf:RDF>
  </metadata>
  <sodipodi:namedview
     pagecolor="#ffffff"
     bordercolor="#666666"
     borderopacity="1"
     objecttolerance="10"
     gridtolerance="10"
     guidetolerance="10"
     inkscape:pageopacity="0"
     inkscape:pageshadow="2"
     inkscape:window-width="1920"
     inkscape:window-height="1017"
     id="namedview54"
     showgrid="false"
     inkscape:zoom="11.8"
     inkscape:cx="-5.2542373"
     inkscape:cy="10"
     inkscape:window-x="-8"
     inkscape:window-y="-8"
     inkscape:window-maximized="1"
     inkscape:current-layer="svg52" />
  <title
     id="title2">Qt SVG Document</title>
  <desc
     id="desc4">Generated with Qt</desc>
  <defs
     id="defs6" />
  <g
     id="g50"
     transform="matrix(0.66666667,0,0,0.66666667,-0.66666672,-0.66666672)"
     style="fill:none;fill-rule:evenodd;stroke:#000000;stroke-width:1;stroke-linecap:square;stroke-linejoin:bevel">
    <g
       transform="translate(16,16)"
       font-size="8.25"
       font-weight="400"
       font-style="normal"
       id="g8"
       style="font-style:normal;font-weight:400;font-size:8.25px;font-family:'MS Shell Dlg 2';fill:none;stroke:#000000;stroke-width:1;stroke-linecap:square;stroke-linejoin:bevel;stroke-opacity:1" />
    <g
       transform="matrix(1.33333,0,0,1.33333,16,16)"
       font-size="8.25"
       font-weight="400"
       font-style="normal"
       id="g10"
       style="font-style:normal;font-weight:400;font-size:8.25px;font-family:'MS Shell Dlg 2';fill:none;stroke:#000000;stroke-width:1;stroke-linecap:square;stroke-linejoin:bevel;stroke-opacity:1" />
    <g
       transform="translate(1,25.375)"
       font-size="22.6771"
       font-weight="400"
       font-style="normal"
       id="g14"
       style="font-style:normal;font-weight:400;font-size:22.67709923px;font-family:icomoon;fill:#ffff00;fill-opacity:1;stroke:none">
      <path
         d="M 2.63672,-24.375 H 27.3633 c 0.7226,0 1.3428,0.2588 1.8603,0.7764 0.5176,0.5175 0.7764,1.1377 0.7764,1.8603 V 2.98828 C 30,3.71094 29.7412,4.33105 29.2236,4.84863 28.7061,5.36621 28.0859,5.625 27.3633,5.625 H 2.63672 C 1.91406,5.625 1.29395,5.36621 0.776367,4.84863 0.258789,4.33105 0,3.71094 0,2.98828 V -21.7383 c 0,-0.7226 0.258789,-1.3428 0.776367,-1.8603 0.517583,-0.5176 1.137693,-0.7764 1.860353,-0.7764"
         id="path12"
         inkscape:connector-curvature="0"
         style="vector-effect:none;fill-rule:nonzero" />
    </g>
    <g
       transform="matrix(1.33333,0,0,1.33333,16,16)"
       font-size="8.25"
       font-weight="400"
       font-style="normal"
       id="g16"
       style="font-style:normal;font-weight:400;font-size:8.25px;font-family:'MS Shell Dlg 2';fill:none;stroke:#000000;stroke-width:1;stroke-linecap:square;stroke-linejoin:bevel;stroke-opacity:1" />
    <g
       transform="translate(16,16)"
       font-size="8.25"
       font-weight="400"
       font-style="normal"
       id="g18"
       style="font-style:normal;font-weight:400;font-size:8.25px;font-family:'MS Shell Dlg 2';fill:none;stroke:#000000;stroke-width:1;stroke-linecap:square;stroke-linejoin:bevel;stroke-opacity:1" />
    <g
       font-size="8.25"
       font-weight="400"
       font-style="normal"
       id="g20"
       style="font-style:normal;font-weight:400;font-size:8.25px;font-family:'MS Shell Dlg 2';fill:none;stroke:#000000;stroke-width:1;stroke-linecap:square;stroke-linejoin:bevel;stroke-opacity:1" />
    <g
       transform="translate(16,16)"
       font-size="8.25"
       font-weight="400"
       font-style="normal"
       id="g22"
       style="font-style:normal;font-weight:400;font-size:8.25px;font-family:'MS Shell Dlg 2';fill:none;stroke:#000000;stroke-width:1;stroke-linecap:square;stroke-linejoin:bevel;stroke-opacity:1" />
    <g
       transform="matrix(1.33333,0,0,1.33333,16,16)"
       font-size="8.25"
       font-weight="400"
       font-style="normal"
       id="g24"
       style="font-style:normal;font-weight:400;font-size:8.25px;font-family:'MS Shell Dlg 2';fill:none;stroke:#000000;stroke-width:1;stroke-linecap:square;stroke-linejoin:bevel;stroke-opacity:1" />
    <g
       transform="translate(4.5,23.1875)"
       font-size="17.0078"
       font-weight="400"
       font-style="normal"
       id="g28"
       style="font-style:normal;font-weight:400;font-size:17.00779915px;font-family:icomoon;fill:#000000;fill-opacity:1;stroke:none">
      <path
         d="m 20.9785,-18.0137 c 0.3744,0 0.6926,0.1311 0.9546,0.3931 0.262,0.262 0.3931,0.5802 0.3931,0.9546 V 2.29102 c 0,0.37434 -0.1311,0.69254 -0.3931,0.95459 -0.262,0.26204 -0.5802,0.39306 -0.9546,0.39306 H 2.02148 C 1.64714,3.63867 1.32894,3.50765 1.06689,3.24561 0.80485,2.98356 0.673828,2.66536 0.673828,2.29102 V -16.666 c 0,-0.3744 0.131022,-0.6926 0.393062,-0.9546 0.26205,-0.262 0.58025,-0.3931 0.95459,-0.3931 H 20.9785 m 0,-0.6738 H 2.02148 c -0.55403,0 -1.029455,0.1984 -1.426265,0.5952 C 0.198405,-17.6955 0,-17.2201 0,-16.666 V 2.29102 C 0,2.84505 0.198405,3.32048 0.595215,3.71729 0.992025,4.1141 1.46745,4.3125 2.02148,4.3125 H 20.9785 c 0.5541,0 1.0295,-0.1984 1.4263,-0.59521 C 22.8016,3.32048 23,2.84505 23,2.29102 V -16.666 c 0,-0.5541 -0.1984,-1.0295 -0.5952,-1.4263 -0.3968,-0.3968 -0.8722,-0.5952 -1.4263,-0.5952 m -0.8984,13.74609 c 0.1048,-0.3444 0.1834,-0.715 0.2358,-1.11181 0.0524,-0.39681 0.0786,-0.79737 0.0786,-1.20166 0,-0.82357 -0.1123,-1.61345 -0.3369,-2.36963 -0.2246,-0.75619 -0.5316,-1.46369 -0.9209,-2.12259 l 0.0225,0.045 c -0.584,-1.0183 -1.3402,-1.8793 -2.2686,-2.5831 -0.9284,-0.7037 -1.9616,-1.1979 -3.0996,-1.4824 h -0.0449 c -0.3294,-0.0898 -0.6813,-0.1609 -1.0557,-0.2134 -0.3743,-0.0524 -0.7562,-0.0786 -1.1455,-0.0786 -0.8385,0 -1.64337,0.1123 -2.41453,0.3369 -0.77116,0.2247 -1.48616,0.5391 -2.14502,0.9434 l 0.02246,-0.0225 c -1.00325,0.584 -1.86426,1.3327 -2.58301,2.2461 -0.71875,0.9134 -1.22786,1.9317 -1.52734,3.05472 v 0.04493 c -0.08984,0.3444 -0.16097,0.70377 -0.21338,1.07812 -0.05241,0.37435 -0.07861,0.76367 -0.07861,1.16797 0,0.82357 0.10856,1.61344 0.32568,2.36963 0.21712,0.75618 0.52783,1.45622 0.93213,2.1001 L 3.84082,-2.7627 C 4.4248,-1.75944 5.1735,-0.894694 6.08691,-0.168457 7.00033,0.55778 8.01855,1.07813 9.1416,1.39258 h 0.06738 c 0.35938,0.10482 0.73747,0.18717 1.13432,0.24707 0.3968,0.05989 0.7973,0.08984 1.2016,0.08984 0.8086,0 1.5873,-0.10856 2.336,-0.32568 0.7487,-0.21712 1.4449,-0.520346 2.0888,-0.909669 h -0.0449 c 1.0332,-0.5690108 1.9092,-1.321452 2.6279,-2.257321 0.7188,-0.93588 1.2204,-1.98031 1.5049,-3.1333 l 0.0225,-0.04493 m -0.7188,-2.29101 -5.1211,0.17969 c -0.0299,0.17968 -0.0748,0.35188 -0.1347,0.5166 -0.0599,0.16471 -0.1348,0.32194 -0.2246,0.47168 l 0.0224,-0.02246 c 0,0.02994 -0.015,0.05615 -0.0449,0.07861 -0.0299,0.02246 -0.0524,0.04118 -0.0674,0.05615 0.0599,-0.08984 0.1161,-0.19466 0.1685,-0.31445 0.0524,-0.11979 0.101,-0.23958 0.146,-0.35938 v -0.02246 c 0.0299,-0.10482 0.0524,-0.20963 0.0674,-0.31445 0.0149,-0.10482 0.0224,-0.21712 0.0224,-0.33691 0,-0.22461 -0.0299,-0.44174 -0.0898,-0.65137 -0.0599,-0.20964 -0.1498,-0.41179 -0.2696,-0.60645 l 0.0225,0.02246 c -0.1348,-0.23958 -0.2995,-0.44547 -0.4941,-0.61767 -0.1947,-0.1722 -0.4118,-0.30322 -0.6514,-0.39307 v -0.02246 l 2.6953,-4.46974 c 0.599,0.3444 1.138,0.7525 1.6172,1.2241 0.4792,0.4717 0.8835,0.9995 1.2129,1.5835 l 0.0224,0.0225 c 0.3444,0.569 0.614,1.1904 0.8086,1.86425 0.1947,0.67383 0.292,1.37012 0.292,2.08887 0,0 0,0.00374 0,0.01123 0,0.00748 0,0.01123 0,0.01123 m -8.9619,0.67383 c -0.0749,-0.10482 -0.131,-0.22087 -0.1684,-0.34815 -0.0375,-0.12728 -0.0562,-0.2583 -0.0562,-0.39306 0,-0.07487 0.0075,-0.14226 0.0225,-0.20215 0.0149,-0.0599 0.0299,-0.11979 0.0449,-0.17969 0.0449,-0.19466 0.1273,-0.36686 0.2471,-0.5166 0.1197,-0.14974 0.2545,-0.27702 0.4043,-0.38184 h 0.0224 c 0.1048,-0.05989 0.2209,-0.10856 0.3482,-0.14599 0.1272,-0.03744 0.2657,-0.05616 0.4155,-0.05616 0.0599,0 0.1235,0.00375 0.1909,0.01123 0.0674,0.00749 0.131,0.01872 0.1909,0.0337 h -0.0224 c 0.1946,0.04492 0.3706,0.12727 0.5278,0.24707 0.1572,0.11979 0.2808,0.26204 0.3706,0.42675 0.0749,0.10482 0.1273,0.22087 0.1572,0.34815 0.03,0.12728 0.0449,0.2583 0.0449,0.39306 0,0.26954 -0.0673,0.51661 -0.2021,0.74122 -0.1348,0.2246 -0.307,0.40429 -0.5166,0.53906 h -0.0225 c -0.1048,0.05989 -0.2171,0.10856 -0.3369,0.14599 -0.1198,0.03744 -0.247,0.05616 -0.3818,0.05616 -0.0749,0 -0.146,-0.00375 -0.2134,-0.01123 -0.0674,-0.00749 -0.131,-0.01872 -0.1909,-0.0337 -0.1797,-0.05989 -0.3444,-0.14599 -0.4941,-0.2583 -0.1498,-0.1123 -0.2771,-0.24332 -0.3819,-0.39306 v -0.02246 m 1.8194,-3.18946 c -0.045,0 -0.1011,-0.00748 -0.1685,-0.02246 -0.0674,-0.01497 -0.131,-0.02246 -0.1909,-0.02246 0.0599,0 0.1235,0.00749 0.1909,0.02246 0.0674,0.01498 0.131,0.02995 0.1909,0.04492 h -0.0224 v -0.02246 m -4.67192,-4.20015 0.40429,-0.2247 2.67283,4.55962 c 0.1348,-0.0599 0.2845,-0.10856 0.4492,-0.146 0.1648,-0.03743 0.337,-0.05615 0.5166,-0.05615 h 0.0225 c 0.015,-0.01497 0.03,-0.02246 0.0449,-0.02246 0.015,0 0.03,0 0.0449,0 0.015,0 0.0337,0 0.0562,0 0.0225,0 0.0412,0.00749 0.0562,0.02246 -0.015,-0.01497 -0.0337,-0.02246 -0.0562,-0.02246 -0.0225,0 -0.0487,0 -0.0786,0 -0.2396,0 -0.4642,0.03369 -0.6738,0.10107 -0.2097,0.06739 -0.4118,0.15349 -0.6065,0.2583 h 0.0225 C 10.1374,-9.3138 9.89404,-9.10417 9.69189,-8.84961 9.48975,-8.59505 9.34375,-8.30306 9.25391,-7.97363 9.22396,-7.86882 9.2015,-7.764 9.18652,-7.65918 c -0.01497,0.10482 -0.02246,0.20964 -0.02246,0.31445 0,0.0599 0.00375,0.11605 0.01123,0.16846 0.00749,0.05241 0.01123,0.10856 0.01123,0.16846 V -7.03027 L 3.61621,-7.1875 C 3.63118,-7.54688 3.66113,-7.90251 3.70605,-8.25439 3.75098,-8.60628 3.81836,-8.94694 3.9082,-9.27637 l -0.02246,0.06739 c 0.26953,-1.03322 0.71875,-1.95782 1.34766,-2.77392 0.6289,-0.8161 1.38509,-1.4637 2.26855,-1.9429 l 0.04493,-0.0224 M 9.47852,0.381836 C 9.13411,0.291992 8.81217,0.183431 8.5127,0.0561523 8.21322,-0.0711263 7.92122,-0.209635 7.63672,-0.359375 L 7.68164,-0.336914 10.2871,-5.16602 C 10.1973,-5.22591 10.1149,-5.28955 10.04,-5.35693 9.96517,-5.42432 9.89779,-5.49544 9.83789,-5.57031 v -0.02246 c 0.14974,0.17968 0.32571,0.33317 0.52781,0.46045 0.2022,0.12727 0.4156,0.22086 0.6402,0.28076 l 0.0224,0.02246 c 0.1048,0.01497 0.2134,0.03369 0.3257,0.05615 0.1123,0.02246 0.2284,0.03369 0.3481,0.03369 0.2247,0 0.4418,-0.02995 0.6514,-0.08984 0.2097,-0.0599 0.4043,-0.14974 0.584,-0.26953 l 0.0898,-0.06739 2.7178,4.604497 c -0.0599,0.029947 -0.1123,0.063639 -0.1572,0.101074 -0.0449,0.037435 -0.0899,0.071126 -0.1348,0.101074 -0.554,0.3294271 -1.153,0.591471 -1.7968,0.786133 -0.6439,0.194661 -1.3252,0.291992 -2.044,0.291992 -0.3743,0 -0.7449,-0.029948 -1.1118,-0.089844 C 10.1336,0.56901 9.77051,0.486654 9.41113,0.381836 h 0.06739"
         id="path26"
         inkscape:connector-curvature="0"
         style="vector-effect:none;fill-rule:nonzero" />
    </g>
    <g
       transform="matrix(1.33333,0,0,1.33333,16,16)"
       font-size="8.25"
       font-weight="400"
       font-style="normal"
       id="g30"
       style="font-style:normal;font-weight:400;font-size:8.25px;font-family:'MS Shell Dlg 2';fill:none;stroke:#000000;stroke-width:1;stroke-linecap:square;stroke-linejoin:bevel;stroke-opacity:1" />
    <g
       transform="translate(16,16)"
       font-size="8.25"
       font-weight="400"
       font-style="normal"
       id="g32"
       style="font-style:normal;font-weight:400;font-size:8.25px;font-family:'MS Shell Dlg 2';fill:none;stroke:#000000;stroke-width:1;stroke-linecap:square;stroke-linejoin:bevel;stroke-opacity:1" />
    <g
       font-size="8.25"
       font-weight="400"
       font-style="normal"
       id="g34"
       style="font-style:normal;font-weight:400;font-size:8.25px;font-family:'MS Shell Dlg 2';fill:none;stroke:#000000;stroke-width:1;stroke-linecap:square;stroke-linejoin:bevel;stroke-opacity:1" />
    <g
       transform="translate(16,16)"
       font-size="8.25"
       font-weight="400"
       font-style="normal"
       id="g36"
       style="font-style:normal;font-weight:400;font-size:8.25px;font-family:'MS Shell Dlg 2';fill:none;stroke:#000000;stroke-width:1;stroke-linecap:square;stroke-linejoin:bevel;stroke-opacity:1" />
    <g
       transform="matrix(1.33333,0,0,1.33333,16,16)"
       font-size="8.25"
       font-weight="400"
       font-style="normal"
       id="g38"
       style="font-style:normal;font-weight:400;font-size:8.25px;font-family:'MS Shell Dlg 2';fill:none;stroke:#000000;stroke-width:1;stroke-linecap:square;stroke-linejoin:bevel;stroke-opacity:1" />
    <g
       transform="translate(1,25.375)"
       font-size="22.6771"
       font-weight="400"
       font-style="normal"
       id="g42"
       style="font-style:normal;font-weight:400;font-size:22.67709923px;font-family:icomoon;fill:#000000;fill-opacity:1;stroke:none">
      <path
         d="m 26.4258,-22.2363 c 0.3906,0 0.7275,0.1416 1.0107,0.4248 0.2832,0.2832 0.4248,0.6201 0.4248,1.0107 V 2.05078 c 0,0.39063 -0.1416,0.72754 -0.4248,1.01074 -0.2832,0.28321 -0.6201,0.42481 -1.0107,0.42481 H 3.57422 C 3.18359,3.48633 2.84668,3.34473 2.56348,3.06152 2.28027,2.77832 2.13867,2.44141 2.13867,2.05078 V -20.8008 c 0,-0.3906 0.1416,-0.7275 0.42481,-1.0107 0.2832,-0.2832 0.62011,-0.4248 1.01074,-0.4248 H 26.4258 m 0,-0.7032 H 3.57422 c -0.58594,0 -1.08887,0.21 -1.50879,0.6299 -0.41992,0.42 -0.62988,0.9229 -0.62988,1.5088 V 2.05078 c 0,0.58594 0.20996,1.08887 0.62988,1.50879 0.41992,0.41992 0.92285,0.62988 1.50879,0.62988 H 26.4258 c 0.5859,0 1.0888,-0.20996 1.5088,-0.62988 0.4199,-0.41992 0.6299,-0.92285 0.6299,-1.50879 V -20.8008 c 0,-0.5859 -0.21,-1.0888 -0.6299,-1.5088 -0.42,-0.4199 -0.9229,-0.6299 -1.5088,-0.6299 m 1.4355,-0.7324 c 0.3907,0 0.7276,0.1416 1.0108,0.4248 0.2832,0.2832 0.4248,0.6201 0.4248,1.0108 V 3.48633 c 0,0.39062 -0.1416,0.72754 -0.4248,1.01074 -0.2832,0.2832 -0.6201,0.42481 -1.0108,0.42481 H 2.13867 C 1.74805,4.92188 1.41113,4.78027 1.12793,4.49707 0.844727,4.21387 0.703125,3.87695 0.703125,3.48633 V -22.2363 c 0,-0.3907 0.141602,-0.7276 0.424805,-1.0108 0.2832,-0.2832 0.62012,-0.4248 1.01074,-0.4248 H 27.8613 m 0,-0.7031 H 2.13867 c -0.58594,0 -1.08887,0.21 -1.508787,0.6299 C 0.209961,-23.3252 0,-22.8223 0,-22.2363 V 3.48633 C 0,4.07227 0.209961,4.5752 0.629883,4.99512 1.0498,5.41504 1.55273,5.625 2.13867,5.625 H 27.8613 c 0.586,0 1.0889,-0.20996 1.5088,-0.62988 C 29.79,4.5752 30,4.07227 30,3.48633 V -22.2363 c 0,-0.586 -0.21,-1.0889 -0.6299,-1.5088 -0.4199,-0.4199 -0.9228,-0.6299 -1.5088,-0.6299"
         id="path40"
         inkscape:connector-curvature="0"
         style="vector-effect:none;fill-rule:nonzero" />
    </g>
    <g
       transform="matrix(1.33333,0,0,1.33333,16,16)"
       font-size="8.25"
       font-weight="400"
       font-style="normal"
       id="g44"
       style="font-style:normal;font-weight:400;font-size:8.25px;font-family:'MS Shell Dlg 2';fill:none;stroke:#000000;stroke-width:1;stroke-linecap:square;stroke-linejoin:bevel;stroke-opacity:1" />
    <g
       transform="translate(16,16)"
       font-size="8.25"
       font-weight="400"
       font-style="normal"
       id="g46"
       style="font-style:normal;font-weight:400;font-size:8.25px;font-family:'MS Shell Dlg 2';fill:none;stroke:#000000;stroke-width:1;stroke-linecap:square;stroke-linejoin:bevel;stroke-opacity:1" />
    <g
       font-size="8.25"
       font-weight="400"
       font-style="normal"
       id="g48"
       style="font-style:normal;font-weight:400;font-size:8.25px;font-family:'MS Shell Dlg 2';fill:none;stroke:#000000;stroke-width:1;stroke-linecap:square;stroke-linejoin:bevel;stroke-opacity:1" />
  </g>
</svg>
