<svg xmlns="http://www.w3.org/2000/svg" width="20" height="20" version="1.2">
    <g fill="none" fill-rule="evenodd" stroke="#000" stroke-linecap="square" stroke-linejoin="bevel" font-weight="400">
        <g style="font-style:normal;font-weight:400;font-size:22.67709923px;font-family:icomoon;fill:#fff;fill-opacity:1;stroke:none">
            <path d="M2.637-24.375h24.726c.723 0 1.343.259 1.86.776.518.518.777 1.138.777 1.86V2.989c0 .723-.259 1.343-.776 1.86a2.538 2.538 0 0 1-1.86.777H2.636a2.538 2.538 0 0 1-1.86-.776A2.538 2.538 0 0 1 0 2.989v-24.727c0-.723.259-1.343.776-1.86a2.538 2.538 0 0 1 1.86-.777" font-size="22.677" style="vector-effect:none;fill-rule:nonzero" transform="matrix(.66667 0 0 .66667 0 16.25)"/>
        </g>
        <g style="font-style:normal;font-weight:400;font-size:17.00779915px;font-family:icomoon;fill:#000;fill-opacity:1;stroke:none">
            <path d="M20.979-18.014a1.3 1.3 0 0 1 .954.393 1.3 1.3 0 0 1 .393.955V2.291a1.3 1.3 0 0 1-.393.955 1.3 1.3 0 0 1-.955.393H2.021a1.3 1.3 0 0 1-.954-.393 1.3 1.3 0 0 1-.393-.955v-18.957a1.3 1.3 0 0 1 .393-.955 1.3 1.3 0 0 1 .954-.393h18.957m0-.674H2.021c-.554 0-1.029.199-1.426.596A1.946 1.946 0 0 0 0-16.666V2.291c0 .554.198 1.03.595 1.426.397.397.872.595 1.426.595h18.957c.555 0 1.03-.198 1.427-.595.397-.397.595-.872.595-1.426v-18.957c0-.554-.198-1.03-.595-1.426a1.946 1.946 0 0 0-1.426-.596m-5.75 4.56c0-.33-.116-.606-.349-.831a1.167 1.167 0 0 0-.842-.337H8.962c-.33 0-.61.112-.842.337a1.11 1.11 0 0 0-.349.831v2.201h7.457v-2.2m-.673 1.526h-6.11v-1.527a.46.46 0 0 1 .158-.348.513.513 0 0 1 .359-.146h5.076c.135 0 .255.049.36.146a.46.46 0 0 1 .157.348v1.527m2.965 1.348H5.48c-.494 0-.91.172-1.246.517a1.704 1.704 0 0 0-.505 1.235v8.67c0 .494.168.91.505 1.247.337.336.752.505 1.246.505h12.04c.494 0 .91-.169 1.246-.505.337-.337.506-.753.506-1.247v-8.67c0-.48-.169-.89-.506-1.235a1.675 1.675 0 0 0-1.246-.517m-2.494 4.941a1.96 1.96 0 0 1-.27.438 2.968 2.968 0 0 1-.336.349 4.281 4.281 0 0 1-.427.292 1.87 1.87 0 0 1-.472.202l-.022.022c-.15.06-.314.105-.494.135-.18.03-.36.045-.54.045H9.884v.898h3.414v1.123H9.883v1.797H8.647v-1.797H7.3V-3.93h1.347v-.898H7.3v-1.123h1.347v-3.819h3.64c1.002 0 1.751.206 2.245.618.494.412.741 1.022.741 1.83v.023c0 .18-.022.356-.067.528a2.48 2.48 0 0 1-.18.483v-.023M13.5-8.4a2.489 2.489 0 0 0-.595-.247 2.48 2.48 0 0 0-.663-.09H9.883v2.785h2.628c.194 0 .385-.034.572-.101.188-.068.349-.161.483-.281.12-.12.217-.262.292-.427.075-.164.113-.337.113-.516V-7.435c0-.21-.045-.396-.135-.561-.09-.165-.202-.3-.337-.404" font-size="17.008" style="vector-effect:none;fill-rule:nonzero" transform="matrix(.66667 0 0 .66667 2.333 14.792)"/>
        </g>
        <g style="font-style:normal;font-weight:400;font-size:22.67709923px;font-family:icomoon;fill:#000;fill-opacity:1;stroke:none">
            <path d="M26.426-22.236c.39 0 .727.141 1.01.425.284.283.425.62.425 1.01V2.051c0 .39-.141.727-.425 1.01a1.38 1.38 0 0 1-1.01.425H3.574a1.38 1.38 0 0 1-1.01-.424 1.38 1.38 0 0 1-.425-1.011v-22.852c0-.39.141-.727.424-1.01a1.38 1.38 0 0 1 1.011-.425h22.852m0-.703H3.574c-.586 0-1.089.21-1.509.63-.42.42-.63.922-.63 1.508V2.051c0 .586.21 1.089.63 1.509.42.42.923.63 1.51.63h22.85c.587 0 1.09-.21 1.51-.63.42-.42.63-.923.63-1.51V-20.8c0-.587-.21-1.09-.63-1.51-.42-.42-.923-.63-1.51-.63m1.436-.732c.391 0 .728.142 1.011.425.283.283.425.62.425 1.01V3.487c0 .39-.142.728-.425 1.011a1.38 1.38 0 0 1-1.01.425H2.138a1.38 1.38 0 0 1-1.011-.425 1.38 1.38 0 0 1-.425-1.01v-25.723c0-.391.142-.728.425-1.011a1.38 1.38 0 0 1 1.01-.425h25.723m0-.703H2.14c-.586 0-1.09.21-1.51.63-.419.42-.629.923-.629 1.509V3.486c0 .586.21 1.09.63 1.51.42.419.923.629 1.509.629H27.86c.586 0 1.09-.21 1.51-.63.419-.42.629-.923.629-1.509v-25.722c0-.586-.21-1.09-.63-1.51-.42-.419-.923-.629-1.509-.629" font-size="22.677" style="vector-effect:none;fill-rule:nonzero" transform="matrix(.66667 0 0 .66667 0 16.25)"/>
        </g>
    </g>
</svg>
