<svg xmlns="http://www.w3.org/2000/svg" width="20" height="20" version="1.2">
    <g fill="none" fill-rule="evenodd" stroke="#000" stroke-linecap="square" stroke-linejoin="bevel" font-weight="400">
        <g style="font-style:normal;font-weight:400;font-size:19.84250069px;font-family:icomoon;fill:red;fill-opacity:1;stroke:none">
            <path d="M2.285-21.125h21.43a2.2 2.2 0 0 1 1.612.673A2.2 2.2 0 0 1 26-18.84V2.59a2.2 2.2 0 0 1-.673 1.612 2.2 2.2 0 0 1-1.612.673H2.285a2.2 2.2 0 0 1-1.612-.673A2.2 2.2 0 0 1 0 2.59v-21.43a2.2 2.2 0 0 1 .673-1.612 2.2 2.2 0 0 1 1.612-.673" font-size="19.843" style="vector-effect:none;fill-rule:nonzero" transform="matrix(.6923 0 0 .6923 1 15.625)"/>
        </g>
        <g style="font-style:normal;font-weight:400;font-size:17.00779915px;font-family:icomoon;fill:#000;fill-opacity:1;stroke:none">
            <path d="M20.979-18.014a1.3 1.3 0 0 1 .954.393 1.3 1.3 0 0 1 .393.955V2.291a1.3 1.3 0 0 1-.393.955 1.3 1.3 0 0 1-.955.393H2.021a1.3 1.3 0 0 1-.954-.393 1.3 1.3 0 0 1-.393-.955v-18.957a1.3 1.3 0 0 1 .393-.955 1.3 1.3 0 0 1 .954-.393h18.957m0-.674H2.021c-.554 0-1.029.199-1.426.596A1.946 1.946 0 0 0 0-16.666V2.291c0 .554.198 1.03.595 1.426.397.397.872.595 1.426.595h18.957c.555 0 1.03-.198 1.427-.595.397-.397.595-.872.595-1.426v-18.957c0-.554-.198-1.03-.595-1.426a1.946 1.946 0 0 0-1.426-.596m-5.75 4.56c0-.33-.116-.606-.349-.831a1.167 1.167 0 0 0-.842-.337H8.962c-.33 0-.61.112-.842.337a1.11 1.11 0 0 0-.349.831v2.201h7.457v-2.2m-.673 1.526h-6.11v-1.527a.46.46 0 0 1 .158-.348.513.513 0 0 1 .359-.146h5.076c.135 0 .255.049.36.146a.46.46 0 0 1 .157.348v1.527m2.965 1.348H5.48c-.494 0-.91.172-1.246.517a1.704 1.704 0 0 0-.505 1.235v8.67c0 .494.168.91.505 1.247.337.336.752.505 1.246.505h12.04c.494 0 .91-.169 1.246-.505.337-.337.506-.753.506-1.247v-8.67c0-.48-.169-.89-.506-1.235a1.675 1.675 0 0 0-1.246-.517m-2.494 4.941a1.96 1.96 0 0 1-.27.438 2.968 2.968 0 0 1-.336.349 4.281 4.281 0 0 1-.427.292 1.87 1.87 0 0 1-.472.202l-.022.022c-.15.06-.314.105-.494.135-.18.03-.36.045-.54.045H9.884v.898h3.414v1.123H9.883v1.797H8.647v-1.797H7.3V-3.93h1.347v-.898H7.3v-1.123h1.347v-3.819h3.64c1.002 0 1.751.206 2.245.618.494.412.741 1.022.741 1.83v.023c0 .18-.022.356-.067.528a2.48 2.48 0 0 1-.18.483v-.023M13.5-8.4a2.489 2.489 0 0 0-.595-.247 2.48 2.48 0 0 0-.663-.09H9.883v2.785h2.628c.194 0 .385-.034.572-.101.188-.068.349-.161.483-.281.12-.12.217-.262.292-.427.075-.164.113-.337.113-.516V-7.435c0-.21-.045-.396-.135-.561-.09-.165-.202-.3-.337-.404" font-size="17.008" style="vector-effect:none;fill-rule:nonzero" transform="matrix(.6923 0 0 .6923 2.038 14.976)"/>
        </g>
        <g style="font-style:normal;font-weight:400;font-size:19.84250069px;font-family:icomoon;fill:#000;fill-opacity:1;stroke:none">
            <path d="M23.943-20.44c.373 0 .694.136.965.407.271.27.406.592.406.965V2.818c0 .373-.135.694-.406.965-.27.271-.592.406-.965.406H2.057c-.373 0-.694-.135-.965-.406a1.318 1.318 0 0 1-.406-.965v-21.886c0-.373.135-.694.406-.965.27-.271.592-.407.965-.407h21.886m0-.685H2.057c-.576 0-1.063.199-1.46.597A1.986 1.986 0 0 0 0-19.068V2.818c0 .576.199 1.063.597 1.46.397.398.884.597 1.46.597h21.886c.576 0 1.063-.199 1.46-.597.398-.397.597-.884.597-1.46v-21.886c0-.576-.199-1.063-.597-1.46a1.986 1.986 0 0 0-1.46-.597" font-size="19.843" style="vector-effect:none;fill-rule:nonzero" transform="matrix(.6923 0 0 .6923 1 15.625)"/>
        </g>
    </g>
</svg>
