<svg xmlns="http://www.w3.org/2000/svg" width="20" height="20" version="1.2">
    <g font-weight="400" style="fill:none;fill-rule:evenodd;stroke:#000;stroke-width:1;stroke-linecap:square;stroke-linejoin:bevel">
        <g style="font-style:normal;font-weight:400;font-size:17.00779915px;font-family:icomoon;fill:#fff;fill-opacity:1;stroke:none">
            <path d="M2.021-18.688h18.957c.555 0 1.03.199 1.427.596.397.396.595.872.595 1.426V2.291c0 .554-.198 1.03-.595 1.426a1.946 1.946 0 0 1-1.427.595H2.021c-.554 0-1.029-.198-1.426-.595A1.946 1.946 0 0 1 0 2.291v-18.957c0-.554.198-1.03.595-1.426a1.946 1.946 0 0 1 1.426-.596" font-size="17.008" style="vector-effect:none;fill-rule:nonzero" transform="matrix(.65217 0 0 .65217 2.5 14.687)"/>
        </g>
        <g style="font-style:normal;font-weight:400;font-size:17.00779915px;font-family:icomoon;fill:#000;fill-opacity:1;stroke:none">
            <path d="M20.979-18.014a1.3 1.3 0 0 1 .954.393 1.3 1.3 0 0 1 .393.955V2.291a1.3 1.3 0 0 1-.393.955 1.3 1.3 0 0 1-.955.393H2.021a1.3 1.3 0 0 1-.954-.393 1.3 1.3 0 0 1-.393-.955v-18.957a1.3 1.3 0 0 1 .393-.955 1.3 1.3 0 0 1 .954-.393h18.957m0-.674H2.021c-.554 0-1.029.199-1.426.596A1.946 1.946 0 0 0 0-16.666V2.291c0 .554.198 1.03.595 1.426.397.397.872.595 1.426.595h18.957c.555 0 1.03-.198 1.427-.595.397-.397.595-.872.595-1.426v-18.957c0-.554-.198-1.03-.595-1.426a1.946 1.946 0 0 0-1.426-.596M5.638-2.717H3.953v-6.379a6.559 6.559 0 0 1-1.01.753c-.36.217-.742.385-1.146.505l-.045.023v-1.528c.284-.105.547-.228.786-.37.24-.143.464-.296.674-.46h-.023a3.206 3.206 0 0 0 1.056-1.393l.023-.023h1.347l.023 8.872m6.176 0h-1.662v-6.379c-.3.285-.632.536-1 .753a5.118 5.118 0 0 1-1.156.505l-.045.023v-1.528c.285-.105.547-.228.786-.37a6.27 6.27 0 0 0 .674-.46 3.205 3.205 0 0 0 1.056-1.393v-.023h1.347v8.872M20.08-4.29v1.572h-5.952c.045-.314.116-.614.213-.898.098-.285.229-.554.393-.809l-.022.023c.284-.405.584-.779.898-1.123.315-.345.644-.667.989-.966l.022-.023c.255-.224.498-.453.73-.685.232-.232.453-.475.663-.73v-.022c.105-.15.19-.31.258-.483.067-.172.101-.356.101-.55v-.113c0-.15-.026-.292-.079-.426a1.289 1.289 0 0 0-.235-.382v.022a1.014 1.014 0 0 0-.371-.236 1.322 1.322 0 0 0-.46-.078 1.252 1.252 0 0 0-.854.314c-.105.135-.19.292-.258.472s-.101.367-.101.561v.022l-1.685-.179a2.816 2.816 0 0 1 .943-2.021c.27-.195.562-.345.876-.45a3.175 3.175 0 0 1 1.011-.157H17.452a2.844 2.844 0 0 1 1.842.674c.24.21.423.46.55.752.127.292.191.61.191.955v.045c0 .21-.019.412-.056.606a2.384 2.384 0 0 1-.169.54h.023c-.09.21-.195.408-.314.595-.12.187-.247.363-.382.528h.022c-.18.194-.36.385-.539.572-.18.187-.367.37-.561.55h-.023c-.524.495-.86.824-1.01.989-.06.06-.12.127-.18.202-.06.075-.113.157-.158.247l3.392.09" font-size="17.008" style="vector-effect:none;fill-rule:nonzero" transform="matrix(.65217 0 0 .65217 2.5 14.687)"/>
        </g>
        <g style="font-style:normal;font-weight:400;font-size:15.8739996px;font-family:icomoon;fill:red;fill-opacity:1;stroke:none">
            <path d="M.656 3.938A.613.613 0 0 1 .4 3.885a1.02 1.02 0 0 1-.215-.133 1.02 1.02 0 0 1-.134-.215A.613.613 0 0 1 0 3.28c0-.095.017-.18.051-.256a1.02 1.02 0 0 1 .134-.215l19.687-19.688c.068-.055.14-.1.215-.133a.613.613 0 0 1 .257-.051.63.63 0 0 1 .461.194.63.63 0 0 1 .195.462.613.613 0 0 1-.051.256 1.014 1.014 0 0 1-.134.215L1.128 3.753c-.068.055-.14.1-.215.133a.613.613 0 0 1-.257.051" font-size="15.874" style="vector-effect:none;fill-rule:nonzero" transform="matrix(.65217 0 0 .65217 3.152 14.28)"/>
        </g>
    </g>
</svg>
