<svg xmlns="http://www.w3.org/2000/svg" width="20" height="20" version="1.2">
    <g font-weight="400" style="fill:none;fill-rule:evenodd;stroke:#000;stroke-width:1;stroke-linecap:square;stroke-linejoin:bevel">
        <g style="font-style:normal;font-weight:400;font-size:17.00779915px;font-family:icomoon;fill:red;fill-opacity:1;stroke:none">
            <path d="M2.021-18.688h18.957c.555 0 1.03.199 1.427.596.397.396.595.872.595 1.426V2.291c0 .554-.198 1.03-.595 1.426a1.946 1.946 0 0 1-1.427.595H2.021c-.554 0-1.029-.198-1.426-.595A1.946 1.946 0 0 1 0 2.291v-18.957c0-.554.198-1.03.595-1.426a1.946 1.946 0 0 1 1.426-.596" font-size="17.008" style="vector-effect:none;fill-rule:nonzero" transform="matrix(.65217 0 0 .65217 2.5 14.687)"/>
        </g>
        <g style="font-style:normal;font-weight:400;font-size:17.00779915px;font-family:icomoon;fill:#000;fill-opacity:1;stroke:none">
            <path d="M20.979-18.014a1.3 1.3 0 0 1 .954.393 1.3 1.3 0 0 1 .393.955V2.291a1.3 1.3 0 0 1-.393.955 1.3 1.3 0 0 1-.955.393H2.021a1.3 1.3 0 0 1-.954-.393 1.3 1.3 0 0 1-.393-.955v-18.957a1.3 1.3 0 0 1 .393-.955 1.3 1.3 0 0 1 .954-.393h18.957m0-.674H2.021c-.554 0-1.029.199-1.426.596A1.946 1.946 0 0 0 0-16.666V2.291c0 .554.198 1.03.595 1.426.397.397.872.595 1.426.595h18.957c.555 0 1.03-.198 1.427-.595.397-.397.595-.872.595-1.426v-18.957c0-.554-.198-1.03-.595-1.426a1.946 1.946 0 0 0-1.426-.596m-10.827 2.696h2.696v17.61h-2.696v-17.61M2.695-8.535h17.61v2.695H2.695v-2.695M11.5 2.29a9.252 9.252 0 0 1-3.684-.741 9.82 9.82 0 0 1-3.01-2.044 9.82 9.82 0 0 1-2.043-3.01 9.252 9.252 0 0 1-.742-3.683c0-1.303.248-2.531.742-3.684a9.821 9.821 0 0 1 2.044-3.01 9.82 9.82 0 0 1 3.01-2.044 9.253 9.253 0 0 1 3.683-.741c1.303 0 2.53.247 3.684.741a9.821 9.821 0 0 1 3.01 2.044 9.821 9.821 0 0 1 2.043 3.01 9.253 9.253 0 0 1 .742 3.684c0 1.302-.248 2.53-.742 3.683a9.82 9.82 0 0 1-2.044 3.01 9.821 9.821 0 0 1-3.01 2.044 9.252 9.252 0 0 1-3.683.741m0-17.587c-1.123 0-2.179.21-3.167.629a8.07 8.07 0 0 0-2.583 1.73 8.069 8.069 0 0 0-1.73 2.582 8.024 8.024 0 0 0-.628 3.168c0 1.123.21 2.178.629 3.166A8.07 8.07 0 0 0 5.75-1.438 8.07 8.07 0 0 0 8.333.292c.988.42 2.044.629 3.167.629 1.123 0 2.179-.21 3.167-.629a8.069 8.069 0 0 0 2.583-1.73 8.07 8.07 0 0 0 1.73-2.583c.419-.988.628-2.043.628-3.167 0-1.123-.21-2.178-.628-3.167a8.07 8.07 0 0 0-1.73-2.582 8.07 8.07 0 0 0-2.583-1.73 8.024 8.024 0 0 0-3.167-.629" font-size="17.008" style="vector-effect:none;fill-rule:nonzero" transform="matrix(.65217 0 0 .65217 2.5 14.687)"/>
        </g>
    </g>
</svg>
