<svg xmlns="http://www.w3.org/2000/svg" width="20" height="20" baseProfile="tiny" version="1.2">
    <g fill="none" fill-rule="evenodd" stroke="#000" stroke-linecap="square" stroke-linejoin="bevel" font-weight="400">
        <path fill="#fff" fill-rule="nonzero" stroke="none" d="M6.521 4.5h18.957c.555 0 1.03.198 1.427.595.397.397.595.872.595 1.426V25.48c0 .554-.198 1.029-.595 1.426a1.946 1.946 0 0 1-1.427.595H6.521c-.554 0-1.029-.198-1.426-.595a1.946 1.946 0 0 1-.595-1.426V6.522c0-.555.198-1.03.595-1.427A1.946 1.946 0 0 1 6.521 4.5" font-family="icomoon" font-size="17.008"/>
        <path fill="#000" fill-rule="nonzero" stroke="none" d="M25.479 5.174a1.3 1.3 0 0 1 .954.393 1.3 1.3 0 0 1 .393.954V25.48a1.3 1.3 0 0 1-.393.954 1.3 1.3 0 0 1-.954.393H6.52a1.3 1.3 0 0 1-.954-.393 1.3 1.3 0 0 1-.393-.954V6.522a1.3 1.3 0 0 1 .393-.955 1.3 1.3 0 0 1 .954-.393h18.957m0-.674H6.521c-.554 0-1.029.198-1.426.595A1.946 1.946 0 0 0 4.5 6.521V25.48c0 .554.198 1.029.595 1.426.397.397.872.595 1.426.595h18.957c.555 0 1.03-.198 1.427-.595.397-.397.595-.872.595-1.426V6.522c0-.555-.198-1.03-.595-1.427a1.946 1.946 0 0 0-1.427-.595M12.946 16.562c0-.09.004-.176.012-.259.007-.082.018-.16.033-.236v.023H7.15v.764a8.13 8.13 0 0 0 .685 3.324 8.886 8.886 0 0 0 1.853 2.718c.27.269.558.52.865.752.307.232.633.445.977.64l.045.023 3.077-5.01a3.098 3.098 0 0 1-1.235-1.111 2.937 2.937 0 0 1-.472-1.628M16 13.484c.315 0 .618.045.91.135.292.09.557.217.797.382l2.74-5.121a8.625 8.625 0 0 0-4.402-1.19h-.135.023a.249.249 0 0 1-.079-.012.249.249 0 0 0-.079-.011c-.793 0-1.553.105-2.28.314a8.645 8.645 0 0 0-2.032.876l.045-.022 2.785 5.166c.24-.165.505-.292.797-.382.292-.09.595-.135.91-.135m8.85 2.74h-5.818c0 .046.004.098.012.158.007.06.01.112.01.157v.023c0 .584-.145 1.111-.437 1.583a3.167 3.167 0 0 1-1.157 1.112l3.055 4.986c.33-.194.64-.404.932-.629.292-.224.565-.464.82-.718a8.372 8.372 0 0 0 1.909-2.707c.464-1.04.696-2.16.696-3.358v-.202c0-.075-.004-.142-.011-.202a1.66 1.66 0 0 1-.011-.202m-6.649.292v-.023c0-.599-.213-1.115-.64-1.55A2.106 2.106 0 0 0 16 14.293c-.614 0-1.134.217-1.561.651-.427.435-.64.951-.64 1.55 0 .614.213 1.134.64 1.561.427.427.947.64 1.561.64.599 0 1.116-.21 1.55-.629.434-.419.651-.928.651-1.527v-.022" font-family="icomoon" font-size="17.008"/>
    </g>
</svg>
