<svg xmlns="http://www.w3.org/2000/svg" width="20" height="20" baseProfile="tiny" version="1.2">
    <g fill="none" fill-rule="evenodd" stroke="#000" stroke-linecap="square" stroke-linejoin="bevel" font-weight="400">
        <path fill="#fff" fill-rule="nonzero" stroke="none" d="M6.521 4.5h18.957c.555 0 1.03.198 1.427.595.397.397.595.872.595 1.426V25.48c0 .554-.198 1.029-.595 1.426a1.946 1.946 0 0 1-1.427.595H6.521c-.554 0-1.029-.198-1.426-.595a1.946 1.946 0 0 1-.595-1.426V6.522c0-.555.198-1.03.595-1.427A1.946 1.946 0 0 1 6.521 4.5" font-family="icomoon" font-size="17.008"/>
        <path fill="#000" fill-rule="nonzero" stroke="none" d="M25.479 5.174a1.3 1.3 0 0 1 .954.393 1.3 1.3 0 0 1 .393.954V25.48a1.3 1.3 0 0 1-.393.954 1.3 1.3 0 0 1-.954.393H6.52a1.3 1.3 0 0 1-.954-.393 1.3 1.3 0 0 1-.393-.954V6.522a1.3 1.3 0 0 1 .393-.955 1.3 1.3 0 0 1 .954-.393h18.957m0-.674H6.521c-.554 0-1.029.198-1.426.595A1.946 1.946 0 0 0 4.5 6.521V25.48c0 .554.198 1.029.595 1.426.397.397.872.595 1.426.595h18.957c.555 0 1.03-.198 1.427-.595.397-.397.595-.872.595-1.426V6.522c0-.555-.198-1.03-.595-1.427a1.946 1.946 0 0 0-1.427-.595m-4.918 6.985v-.134h-.113L16 6.903l-4.402 4.425h-.135v.112L6.903 16 16 25.097 25.097 16l-4.537-4.515m3.234 4.178h-1.19v-1.19l1.19 1.19m-2.156-2.156h-.068v2.156h-1.01V12.43l1.078 1.078m-2.09-2.089v4.245h-1.01v-5.256l1.01 1.011m-2.02-2.021v6.266h-1.011V8.386l1.033 1.033-.023-.023m-2.044-1.055v7.322h-1.01V9.42l1.01-1.078m-2.021 7.3h-1.01v-4.223l1.01-1.01v5.233m-2.022 0h-1.01v-2.134h-.068l1.078-1.078v3.212m-3.234 0 1.19-1.213v1.235l-1.19-.022m0 .673h15.566L16 24.108l-7.794-7.794" font-family="icomoon" font-size="17.008"/>
    </g>
</svg>
