<?xml version="1.0" encoding="UTF-8" standalone="no"?>
<svg
   xmlns:dc="http://purl.org/dc/elements/1.1/"
   xmlns:cc="http://creativecommons.org/ns#"
   xmlns:rdf="http://www.w3.org/1999/02/22-rdf-syntax-ns#"
   xmlns:svg="http://www.w3.org/2000/svg"
   xmlns="http://www.w3.org/2000/svg"
   xmlns:sodipodi="http://sodipodi.sourceforge.net/DTD/sodipodi-0.dtd"
   xmlns:inkscape="http://www.inkscape.org/namespaces/inkscape"
   width="20"
   height="20"
   viewBox="0 0 20 20"
   version="1.2"
   id="svg38"
   sodipodi:docname="60201030131.svg"
   inkscape:version="0.92.4 (5da689c313, 2019-01-14)">
  <metadata
     id="metadata42">
    <rdf:RDF>
      <cc:Work
         rdf:about="">
        <dc:format>image/svg+xml</dc:format>
        <dc:type
           rdf:resource="http://purl.org/dc/dcmitype/StillImage" />
      </cc:Work>
    </rdf:RDF>
  </metadata>
  <sodipodi:namedview
     pagecolor="#ffffff"
     bordercolor="#666666"
     borderopacity="1"
     objecttolerance="10"
     gridtolerance="10"
     guidetolerance="10"
     inkscape:pageopacity="0"
     inkscape:pageshadow="2"
     inkscape:window-width="1920"
     inkscape:window-height="1017"
     id="namedview40"
     showgrid="false"
     inkscape:zoom="11.8"
     inkscape:cx="-5.2542373"
     inkscape:cy="10"
     inkscape:window-x="-8"
     inkscape:window-y="-8"
     inkscape:window-maximized="1"
     inkscape:current-layer="svg38" />
  <title
     id="title2">Qt SVG Document</title>
  <desc
     id="desc4">Generated with Qt</desc>
  <defs
     id="defs6" />
  <g
     id="g36"
     transform="matrix(0.65217391,0,0,0.65217391,-0.43478256,-0.43478256)"
     style="fill:none;fill-rule:evenodd;stroke:#000000;stroke-width:1;stroke-linecap:square;stroke-linejoin:bevel">
    <g
       transform="translate(16,16)"
       font-size="8.25"
       font-weight="400"
       font-style="normal"
       id="g8"
       style="font-style:normal;font-weight:400;font-size:8.25px;font-family:'MS Shell Dlg 2';fill:none;stroke:#000000;stroke-width:1;stroke-linecap:square;stroke-linejoin:bevel;stroke-opacity:1" />
    <g
       transform="matrix(1.33333,0,0,1.33333,16,16)"
       font-size="8.25"
       font-weight="400"
       font-style="normal"
       id="g10"
       style="font-style:normal;font-weight:400;font-size:8.25px;font-family:'MS Shell Dlg 2';fill:none;stroke:#000000;stroke-width:1;stroke-linecap:square;stroke-linejoin:bevel;stroke-opacity:1" />
    <g
       transform="translate(4.5,23.1875)"
       font-size="17.0078"
       font-weight="400"
       font-style="normal"
       id="g14"
       style="font-style:normal;font-weight:400;font-size:17.00779915px;font-family:icomoon;fill:#ffffff;fill-opacity:1;stroke:none">
      <path
         d="M 2.02148,-18.6875 H 20.9785 c 0.5541,0 1.0295,0.1984 1.4263,0.5952 C 22.8016,-17.6955 23,-17.2201 23,-16.666 V 2.29102 C 23,2.84505 22.8016,3.32048 22.4048,3.71729 22.008,4.1141 21.5326,4.3125 20.9785,4.3125 H 2.02148 C 1.46745,4.3125 0.992025,4.1141 0.595215,3.71729 0.198405,3.32048 0,2.84505 0,2.29102 V -16.666 c 0,-0.5541 0.198405,-1.0295 0.595215,-1.4263 0.39681,-0.3968 0.872235,-0.5952 1.426265,-0.5952"
         id="path12"
         inkscape:connector-curvature="0"
         style="vector-effect:none;fill-rule:nonzero" />
    </g>
    <g
       transform="matrix(1.33333,0,0,1.33333,16,16)"
       font-size="8.25"
       font-weight="400"
       font-style="normal"
       id="g16"
       style="font-style:normal;font-weight:400;font-size:8.25px;font-family:'MS Shell Dlg 2';fill:none;stroke:#000000;stroke-width:1;stroke-linecap:square;stroke-linejoin:bevel;stroke-opacity:1" />
    <g
       transform="translate(16,16)"
       font-size="8.25"
       font-weight="400"
       font-style="normal"
       id="g18"
       style="font-style:normal;font-weight:400;font-size:8.25px;font-family:'MS Shell Dlg 2';fill:none;stroke:#000000;stroke-width:1;stroke-linecap:square;stroke-linejoin:bevel;stroke-opacity:1" />
    <g
       font-size="8.25"
       font-weight="400"
       font-style="normal"
       id="g20"
       style="font-style:normal;font-weight:400;font-size:8.25px;font-family:'MS Shell Dlg 2';fill:none;stroke:#000000;stroke-width:1;stroke-linecap:square;stroke-linejoin:bevel;stroke-opacity:1" />
    <g
       transform="translate(16,16)"
       font-size="8.25"
       font-weight="400"
       font-style="normal"
       id="g22"
       style="font-style:normal;font-weight:400;font-size:8.25px;font-family:'MS Shell Dlg 2';fill:none;stroke:#000000;stroke-width:1;stroke-linecap:square;stroke-linejoin:bevel;stroke-opacity:1" />
    <g
       transform="matrix(1.33333,0,0,1.33333,16,16)"
       font-size="8.25"
       font-weight="400"
       font-style="normal"
       id="g24"
       style="font-style:normal;font-weight:400;font-size:8.25px;font-family:'MS Shell Dlg 2';fill:none;stroke:#000000;stroke-width:1;stroke-linecap:square;stroke-linejoin:bevel;stroke-opacity:1" />
    <g
       transform="translate(4.5,23.1875)"
       font-size="17.0078"
       font-weight="400"
       font-style="normal"
       id="g28"
       style="font-style:normal;font-weight:400;font-size:17.00779915px;font-family:icomoon;fill:#000000;fill-opacity:1;stroke:none">
      <path
         d="M 20.9785,-18.6875 H 2.02148 c -0.55403,0 -1.029455,0.1984 -1.426265,0.5952 C 0.198405,-17.6955 0,-17.2201 0,-16.666 V 2.29102 C 0,2.84505 0.198405,3.32048 0.595215,3.71729 0.992025,4.1141 1.46745,4.3125 2.02148,4.3125 H 20.9785 c 0.5541,0 1.0295,-0.1984 1.4263,-0.59521 C 22.8016,3.32048 23,2.84505 23,2.29102 V -16.666 c 0,-0.5541 -0.1984,-1.0295 -0.5952,-1.4263 -0.3968,-0.3968 -0.8722,-0.5952 -1.4263,-0.5952 m 1.3477,20.97852 c 0,0.37434 -0.1311,0.69254 -0.3931,0.95459 -0.262,0.26204 -0.5802,0.39306 -0.9546,0.39306 H 2.02148 C 1.64714,3.63867 1.32894,3.50765 1.06689,3.24561 0.80485,2.98356 0.673828,2.66536 0.673828,2.29102 V -16.666 c 0,-0.3744 0.131022,-0.6926 0.393062,-0.9546 0.26205,-0.262 0.58025,-0.3931 0.95459,-0.3931 H 20.9785 c 0.3744,0 0.6926,0.1311 0.9546,0.3931 0.262,0.262 0.3931,0.5802 0.3931,0.9546 V 2.29102 M 11.7695,-16.0596 c -0.3593,0 -0.715,0.0187 -1.0669,0.0562 -0.3519,0.0374 -0.6925,0.0861 -1.02194,0.146 h 0.06739 c -4.74675,1.4824 -7.12012,4.4023 -7.12012,8.75974 v 1.12305 c 1.4375,5.10612 4.30501,7.65918 8.60257,7.65918 h 0.539 c 0.3295,0 0.6551,-0.01872 0.9771,-0.05615 0.3219,-0.03744 0.6401,-0.0861 0.9546,-0.146 l -0.0674,0.02246 c 4.4922,-1.6022107 6.7383,-4.40234 6.7383,-8.40039 v -1.12304 c -0.045,-0.41928 -0.1161,-0.81983 -0.2134,-1.20166 -0.0973,-0.38184 -0.2209,-0.74496 -0.3706,-1.08939 l 0.0224,0.045 c -1.7819,-3.8633 -4.4622,-5.795 -8.041,-5.795 m 7.5244,8.19827 c -0.3743,0.3444 -0.7337,0.70378 -1.0781,1.07813 -0.3444,0.37435 -0.6738,0.75618 -0.9883,1.1455 l -0.0449,0.02247 -2.6055,-0.98829 h -0.0898 c -0.0898,-0.53906 -0.2021,-1.04443 -0.3369,-1.51611 -0.1348,-0.47168 -0.292,-0.93213 -0.4717,-1.38135 l 0.0225,0.08985 c 0.3144,-0.25456 0.5914,-0.54655 0.831,-0.87597 0.2396,-0.3294 0.4418,-0.6888 0.6065,-1.0781 v -0.0225 l 2.4482,0.1348 c 0.584,1.81182 1.153,2.94235 1.707,3.39157 m -6.9404,6.08692 c 0,0 -0.0599,-0.3182 -0.1797,-0.95459 -0.1198,-0.6364 -0.2096,-1.1792 -0.2695,-1.62842 0.599,-0.43425 1.0968,-0.78613 1.4936,-1.05567 0.3969,-0.26953 0.6926,-0.46419 0.8873,-0.58398 0.3294,0.23958 0.685,0.47917 1.0669,0.71875 0.3818,0.23958 0.7749,0.47168 1.1792,0.69629 l 0.0898,0.04492 v 2.62793 c -0.3444,0.28451 -0.7075,0.55404 -1.0894,0.80859 -0.3818,0.254561 -0.7824,0.486658 -1.2016,0.696293 l -0.0674,0.022461 C 13.9033,-0.591471 13.5664,-0.812337 13.252,-1.04443 12.9375,-1.27653 12.638,-1.52734 12.3535,-1.79688 v 0.02247 m 5.7725,-10.15239 -0.0674,0.1348 -2.7178,-0.4941 -1.6172,-2.2686 c 0.045,-0.0749 0.0936,-0.161 0.146,-0.2583 0.0524,-0.0973 0.1011,-0.1909 0.146,-0.2808 v -0.0224 c 1.0332,0.4193 1.8905,0.8947 2.5718,1.4263 0.6813,0.5315 1.1942,1.1193 1.5386,1.7631 m -4.9639,-2.2461 c 0.1647,0.3145 0.3931,0.7263 0.6851,1.2354 0.292,0.5091 0.5353,0.9059 0.7299,1.1904 l -1.4824,1.86429 H 9.79297 C 9.6582,-10.2422 9.47477,-10.5604 9.24268,-10.8374 c -0.2321,-0.277 -0.49789,-0.5129 -0.79737,-0.7075 v -0.0225 c 0.19466,-0.4941 0.40804,-0.9621 0.64014,-1.4038 0.2321,-0.4417 0.47542,-0.8647 0.72998,-1.269 l -0.02246,0.0673 h 3.36913 m -4.17772,-0.9433 c 0.01497,0.1048 0.03743,0.2096 0.06738,0.3144 0.02995,0.1049 0.06738,0.2097 0.1123,0.3145 l -0.02246,-0.0225 -1.45996,2.2012 -2.4707,0.7412 c -0.04492,-0.0449 -0.09359,-0.0861 -0.146,-0.1235 -0.05241,-0.0375 -0.11605,-0.0562 -0.19092,-0.0562 0.01498,-0.8834 1.38509,-2.0065 4.11036,-3.3691 m -3.6836,4.2676 2.56055,-0.5391 c 0,0.2396 0.1722,0.5503 0.5166,0.9321 0.3444,0.3819 0.67383,0.68509 0.98828,0.9097 -0.16471,0.37435 -0.31445,0.78239 -0.44922,1.22412 -0.13476,0.44173 -0.24707,0.8947 -0.33691,1.35889 v 0.06738 c -0.52409,0.25456 -1.007,0.51286 -1.44873,0.7749 -0.44173,0.26205 -0.87224,0.54281 -1.29151,0.84229 L 5.90723,-5.32324 C 5.71257,-5.5778 5.51416,-5.82113 5.31201,-6.05322 5.10986,-6.28532 4.90397,-6.50618 4.69434,-6.71582 l -0.98829,-1.0332 c 0.32943,-0.44922 0.62891,-0.92839 0.89844,-1.4375 0.26953,-0.50912 0.49414,-1.04068 0.67383,-1.59478 l 0.02246,-0.0673 M 5.05371,-1.86426 C 4.4847,-2.6429 4.03923,-3.50765 3.71729,-4.4585 3.39535,-5.40934 3.2194,-6.40885 3.18945,-7.45703 h 0.04493 c 0.38932,0.49414 0.76367,1.01448 1.12304,1.56103 0.35938,0.54655 0.69629,1.11182 1.01074,1.6958 L 5.43555,-4.06543 5.75,-1.97656 5.05371,-1.86426 M 6.35645,-1.9541 c 0,0 0,-0.00375 0,-0.01123 0,-0.00749 0,-0.01872 0,-0.03369 0,-0.4043 -0.01498,-0.80485 -0.04493,-1.20166 C 6.28158,-3.59749 6.22917,-3.99056 6.1543,-4.37988 l 0.02246,0.08984 c 0,-0.11979 0.28825,-0.3444 0.86474,-0.67383 0.5765,-0.32942 1.09685,-0.68131 1.56104,-1.05566 l 2.53806,1.66211 0.0899,2.29101 C 10.8861,-1.75195 10.4556,-1.38883 9.93896,-0.977051 9.42236,-0.565267 9.04427,-0.24707 8.80469,-0.0224609 8.44531,-0.411784 8.06722,-0.763672 7.67041,-1.07813 7.2736,-1.39258 6.85059,-1.6696 6.40137,-1.90918 L 6.35645,-1.9541 M 12.3311,1.12305 H 11.4102 C 11.0059,1.10807 10.609,1.06689 10.2197,0.999512 9.8304,0.932129 9.45605,0.846029 9.09668,0.741211 H 9.16406 C 9.16406,0.681315 9.15658,0.621419 9.1416,0.561523 9.12663,0.501628 9.10417,0.441732 9.07422,0.381836 v 0.022461 c 0.29948,-0.14974 0.71875,-0.389323 1.25778,-0.71875 0.5391,-0.329427 0.9584,-0.598958 1.2578,-0.808597 0.3594,0.25456 0.7413,0.494144 1.1456,0.718753 0.4042,0.224609 0.8235,0.4342449 1.2578,0.628906 L 14.083,0.24707 C 13.9632,0.546549 13.7573,0.767415 13.4653,0.909668 13.1733,1.05192 12.7952,1.12305 12.3311,1.12305 m 5.6152,-2.98731 -0.7412,-0.15722 c 0.0599,-0.29948 0.1048,-0.61768 0.1347,-0.95459 0.03,-0.33692 0.045,-0.67758 0.045,-1.02198 0,-0.05989 0,-0.1123 0,-0.15722 0,-0.04493 0,-0.08985 0,-0.13477 0.2994,-0.62891 0.6513,-1.21289 1.0556,-1.75195 0.4043,-0.53906 0.8535,-1.02572 1.3477,-1.45996 l 0.0224,-0.02246 v 0.24707 c 0,0 0,0.00748 0,0.02246 0,0.01497 0,0.02246 0,0.02246 0,1.01823 -0.1684,1.98405 -0.5053,2.89746 -0.3369,0.91341 -0.7974,1.74447 -1.3814,2.49316 l 0.0225,-0.02246"
         id="path26"
         inkscape:connector-curvature="0"
         style="vector-effect:none;fill-rule:nonzero" />
    </g>
    <g
       transform="matrix(1.33333,0,0,1.33333,16,16)"
       font-size="8.25"
       font-weight="400"
       font-style="normal"
       id="g30"
       style="font-style:normal;font-weight:400;font-size:8.25px;font-family:'MS Shell Dlg 2';fill:none;stroke:#000000;stroke-width:1;stroke-linecap:square;stroke-linejoin:bevel;stroke-opacity:1" />
    <g
       transform="translate(16,16)"
       font-size="8.25"
       font-weight="400"
       font-style="normal"
       id="g32"
       style="font-style:normal;font-weight:400;font-size:8.25px;font-family:'MS Shell Dlg 2';fill:none;stroke:#000000;stroke-width:1;stroke-linecap:square;stroke-linejoin:bevel;stroke-opacity:1" />
    <g
       font-size="8.25"
       font-weight="400"
       font-style="normal"
       id="g34"
       style="font-style:normal;font-weight:400;font-size:8.25px;font-family:'MS Shell Dlg 2';fill:none;stroke:#000000;stroke-width:1;stroke-linecap:square;stroke-linejoin:bevel;stroke-opacity:1" />
  </g>
</svg>
