<?xml version="1.0" encoding="UTF-8" standalone="no"?>
<svg
   xmlns:dc="http://purl.org/dc/elements/1.1/"
   xmlns:cc="http://creativecommons.org/ns#"
   xmlns:rdf="http://www.w3.org/1999/02/22-rdf-syntax-ns#"
   xmlns:svg="http://www.w3.org/2000/svg"
   xmlns="http://www.w3.org/2000/svg"
   xmlns:sodipodi="http://sodipodi.sourceforge.net/DTD/sodipodi-0.dtd"
   xmlns:inkscape="http://www.inkscape.org/namespaces/inkscape"
   width="20"
   height="20"
   viewBox="0 0 20 20"
   version="1.2"
   id="svg52"
   sodipodi:docname="60201070121.svg"
   inkscape:version="0.92.4 (5da689c313, 2019-01-14)">
  <metadata
     id="metadata56">
    <rdf:RDF>
      <cc:Work
         rdf:about="">
        <dc:format>image/svg+xml</dc:format>
        <dc:type
           rdf:resource="http://purl.org/dc/dcmitype/StillImage" />
      </cc:Work>
    </rdf:RDF>
  </metadata>
  <sodipodi:namedview
     pagecolor="#ffffff"
     bordercolor="#666666"
     borderopacity="1"
     objecttolerance="10"
     gridtolerance="10"
     guidetolerance="10"
     inkscape:pageopacity="0"
     inkscape:pageshadow="2"
     inkscape:window-width="1920"
     inkscape:window-height="1017"
     id="namedview54"
     showgrid="false"
     inkscape:zoom="11.8"
     inkscape:cx="-5.2542373"
     inkscape:cy="10"
     inkscape:window-x="-8"
     inkscape:window-y="-8"
     inkscape:window-maximized="1"
     inkscape:current-layer="g50" />
  <title
     id="title2">Qt SVG Document</title>
  <desc
     id="desc4">Generated with Qt</desc>
  <defs
     id="defs6" />
  <g
     id="g50"
     transform="matrix(0.69230769,0,0,0.69230769,-1.0260756,-0.05997393)"
     style="fill:none;fill-rule:evenodd;stroke:#000000;stroke-width:1;stroke-linecap:square;stroke-linejoin:bevel">
    <g
       transform="translate(16,16)"
       font-size="8.25"
       font-weight="400"
       font-style="normal"
       id="g8"
       style="font-style:normal;font-weight:400;font-size:8.25px;font-family:'MS Shell Dlg 2';fill:none;stroke:#000000;stroke-width:1;stroke-linecap:square;stroke-linejoin:bevel;stroke-opacity:1" />
    <g
       transform="matrix(1.33333,0,0,1.33333,16,16)"
       font-size="8.25"
       font-weight="400"
       font-style="normal"
       id="g10"
       style="font-style:normal;font-weight:400;font-size:8.25px;font-family:'MS Shell Dlg 2';fill:none;stroke:#000000;stroke-width:1;stroke-linecap:square;stroke-linejoin:bevel;stroke-opacity:1" />
    <g
       transform="matrix(1.33333,0,0,1.33333,16,16)"
       font-size="8.25"
       font-weight="400"
       font-style="normal"
       id="g16"
       style="font-style:normal;font-weight:400;font-size:8.25px;font-family:'MS Shell Dlg 2';fill:none;stroke:#000000;stroke-width:1;stroke-linecap:square;stroke-linejoin:bevel;stroke-opacity:1" />
    <g
       transform="translate(16,16)"
       font-size="8.25"
       font-weight="400"
       font-style="normal"
       id="g18"
       style="font-style:normal;font-weight:400;font-size:8.25px;font-family:'MS Shell Dlg 2';fill:none;stroke:#000000;stroke-width:1;stroke-linecap:square;stroke-linejoin:bevel;stroke-opacity:1" />
    <g
       font-size="8.25"
       font-weight="400"
       font-style="normal"
       id="g20"
       style="font-style:normal;font-weight:400;font-size:8.25px;font-family:'MS Shell Dlg 2';fill:none;stroke:#000000;stroke-width:1;stroke-linecap:square;stroke-linejoin:bevel;stroke-opacity:1" />
    <g
       transform="translate(16,16)"
       font-size="8.25"
       font-weight="400"
       font-style="normal"
       id="g22"
       style="font-style:normal;font-weight:400;font-size:8.25px;font-family:'MS Shell Dlg 2';fill:none;stroke:#000000;stroke-width:1;stroke-linecap:square;stroke-linejoin:bevel;stroke-opacity:1" />
    <g
       transform="matrix(1.33333,0,0,1.33333,16,16)"
       font-size="8.25"
       font-weight="400"
       font-style="normal"
       id="g24"
       style="font-style:normal;font-weight:400;font-size:8.25px;font-family:'MS Shell Dlg 2';fill:none;stroke:#000000;stroke-width:1;stroke-linecap:square;stroke-linejoin:bevel;stroke-opacity:1" />
    <g
       transform="matrix(1.33333,0,0,1.33333,16,16)"
       font-size="8.25"
       font-weight="400"
       font-style="normal"
       id="g30"
       style="font-style:normal;font-weight:400;font-size:8.25px;font-family:'MS Shell Dlg 2';fill:none;stroke:#000000;stroke-width:1;stroke-linecap:square;stroke-linejoin:bevel;stroke-opacity:1" />
    <g
       transform="translate(16,16)"
       font-size="8.25"
       font-weight="400"
       font-style="normal"
       id="g32"
       style="font-style:normal;font-weight:400;font-size:8.25px;font-family:'MS Shell Dlg 2';fill:none;stroke:#000000;stroke-width:1;stroke-linecap:square;stroke-linejoin:bevel;stroke-opacity:1" />
    <g
       font-size="8.25"
       font-weight="400"
       font-style="normal"
       id="g34"
       style="font-style:normal;font-weight:400;font-size:8.25px;font-family:'MS Shell Dlg 2';fill:none;stroke:#000000;stroke-width:1;stroke-linecap:square;stroke-linejoin:bevel;stroke-opacity:1" />
    <g
       transform="translate(16,16)"
       font-size="8.25"
       font-weight="400"
       font-style="normal"
       id="g36"
       style="font-style:normal;font-weight:400;font-size:8.25px;font-family:'MS Shell Dlg 2';fill:none;stroke:#000000;stroke-width:1;stroke-linecap:square;stroke-linejoin:bevel;stroke-opacity:1" />
    <g
       transform="matrix(1.33333,0,0,1.33333,16,16)"
       font-size="8.25"
       font-weight="400"
       font-style="normal"
       id="g38"
       style="font-style:normal;font-weight:400;font-size:8.25px;font-family:'MS Shell Dlg 2';fill:none;stroke:#000000;stroke-width:1;stroke-linecap:square;stroke-linejoin:bevel;stroke-opacity:1" />
    <g
       id="g37"
       transform="translate(-0.0734463,-0.1224105)">
      <g
         style="font-style:normal;font-weight:400;font-size:19.84250069px;font-family:icomoon;fill:#ffffff;fill-opacity:1;stroke:none"
         id="g14"
         font-style="normal"
         font-weight="400"
         font-size="19.8425"
         transform="translate(3,22.778484)">
        <path
           style="vector-effect:none;fill-rule:nonzero"
           inkscape:connector-curvature="0"
           id="path12"
           d="M 2.28516,-21.125 H 23.7148 c 0.6263,0 1.1638,0.2243 1.6123,0.6729 0.4486,0.4485 0.6729,0.986 0.6729,1.6123 V 2.58984 C 26,3.21615 25.7757,3.75358 25.3271,4.20215 24.8786,4.65072 24.3411,4.875 23.7148,4.875 H 2.28516 C 1.65885,4.875 1.12142,4.65072 0.672852,4.20215 0.224284,3.75358 0,3.21615 0,2.58984 V -18.8398 c 0,-0.6263 0.224284,-1.1638 0.672852,-1.6123 0.448568,-0.4486 0.985998,-0.6729 1.612308,-0.6729" />
      </g>
      <g
         style="font-style:normal;font-weight:400;font-size:17.00779915px;font-family:icomoon;fill:#000000;fill-opacity:1;stroke:none"
         id="g28"
         font-style="normal"
         font-weight="400"
         font-size="17.0078"
         transform="translate(4.5,21.840984)">
        <path
           style="vector-effect:none;fill-rule:nonzero"
           inkscape:connector-curvature="0"
           id="path26"
           d="m 20.9785,-18.0137 c 0.3744,0 0.6926,0.1311 0.9546,0.3931 0.262,0.262 0.3931,0.5802 0.3931,0.9546 V 2.29102 c 0,0.37434 -0.1311,0.69254 -0.3931,0.95459 -0.262,0.26204 -0.5802,0.39306 -0.9546,0.39306 H 2.02148 C 1.64714,3.63867 1.32894,3.50765 1.06689,3.24561 0.80485,2.98356 0.673828,2.66536 0.673828,2.29102 V -16.666 c 0,-0.3744 0.131022,-0.6926 0.393062,-0.9546 0.26205,-0.262 0.58025,-0.3931 0.95459,-0.3931 H 20.9785 m 0,-0.6738 H 2.02148 c -0.55403,0 -1.029455,0.1984 -1.426265,0.5952 C 0.198405,-17.6955 0,-17.2201 0,-16.666 V 2.29102 C 0,2.84505 0.198405,3.32048 0.595215,3.71729 0.992025,4.1141 1.46745,4.3125 2.02148,4.3125 H 20.9785 c 0.5541,0 1.0295,-0.1984 1.4263,-0.59521 C 22.8016,3.32048 23,2.84505 23,2.29102 V -16.666 c 0,-0.5541 -0.1984,-1.0295 -0.5952,-1.4263 -0.3968,-0.3968 -0.8722,-0.5952 -1.4263,-0.5952 m -6.7832,6.1318 c 0.1048,-0.1946 0.1872,-0.408 0.2471,-0.6401 0.0599,-0.2321 0.0898,-0.4679 0.0898,-0.7075 0,-0.8386 -0.2957,-1.5573 -0.8872,-2.1563 -0.5915,-0.5989 -1.3139,-0.8984 -2.1675,-0.8984 -0.8385,0 -1.55351,0.2995 -2.14498,0.8984 -0.59147,0.599 -0.88721,1.3177 -0.88721,2.1563 0,0.2396 0.02995,0.4754 0.08985,0.7075 0.05989,0.2321 0.14225,0.453 0.24707,0.6626 l -0.02246,-0.0225 c 0.05989,0.1348 0.12727,0.2583 0.20214,0.3706 0.07487,0.1123 0.15723,0.2134 0.24707,0.3033 L 11.5,-8.60254 13.7461,-11.8594 c 0.0898,-0.1048 0.1722,-0.2096 0.2471,-0.3144 0.0748,-0.1048 0.1422,-0.2172 0.2021,-0.3369 v -0.0225 -0.0225 M 8.80469,-1.81934 c -0.10482,0.19467 -0.18718,0.40804 -0.24707,0.64014 -0.0599,0.232097 -0.08985,0.467937 -0.08985,0.70752 0,0.838542 0.29574,1.55729 0.88721,2.15625 0.59147,0.59896 1.31392,0.89844 2.16752,0.89844 0.8385,0 1.5535,-0.29948 2.145,-0.89844 0.5915,-0.59896 0.8872,-1.317708 0.8872,-2.15625 0,-0.239583 -0.03,-0.475423 -0.0899,-0.70752 -0.0599,-0.2321 -0.1422,-0.45296 -0.247,-0.6626 l 0.0224,0.02246 v -0.04492 c -0.0748,-0.11979 -0.146,-0.23209 -0.2133,-0.33691 -0.0674,-0.10482 -0.146,-0.20215 -0.2359,-0.29199 L 11.5,-5.77246 9.25391,-2.51563 c -0.08985,0.10482 -0.1722,0.20964 -0.24707,0.31446 -0.07487,0.10482 -0.14226,0.21712 -0.20215,0.33691 v 0.02246 0.02246 M 8.2207,-12.2412 C 8.08594,-12.4359 7.9362,-12.6118 7.77148,-12.769 7.60677,-12.9263 7.42708,-13.0648 7.23242,-13.1846 H 7.20996 c -0.22461,-0.1347 -0.46419,-0.2358 -0.71875,-0.3032 -0.25456,-0.0674 -0.52409,-0.1011 -0.80859,-0.1011 -0.83854,0 -1.55355,0.2958 -2.14502,0.8872 -0.59147,0.5915 -0.88721,1.3065 -0.88721,2.1451 0,0.56897 0.13851,1.08557 0.41553,1.54976 0.27702,0.4642 0.64013,0.82357 1.08935,1.07813 l 0.02246,0.02246 c 0.19467,0.10482 0.4043,0.19092 0.62891,0.2583 0.22461,0.06738 0.45671,0.10856 0.69629,0.12354 h 0.02246 0.02246 c 0.02995,0 0.05615,0 0.07861,0 0.02247,0 0.04118,0 0.05616,0 0.11979,0 0.23584,-0.00375 0.34814,-0.01123 0.11231,-0.00749 0.22087,-0.02621 0.32569,-0.05616 H 6.33398 L 10.2871,-7.86133 8.58008,-11.4551 C 8.53516,-11.5898 8.48275,-11.7171 8.42285,-11.8369 8.36296,-11.9567 8.29557,-12.069 8.2207,-12.1738 H 8.24316 L 8.2207,-12.2412 m 6.5586,10.10741 c 0.1348,0.19466 0.2845,0.37061 0.4492,0.52783 0.1647,0.15723 0.3444,0.29574 0.5391,0.41553 H 15.79 c 0.2246,0.13477 0.4642,0.23584 0.7188,0.303223 0.2545,0.067383 0.5241,0.101074 0.8086,0.101074 0.8385,0 1.5535,-0.295737 2.145,-0.887207 0.5915,-0.59147 0.8872,-1.30648 0.8872,-2.14502 0,-0.56901 -0.1385,-1.08561 -0.4155,-1.5498 -0.277,-0.4642 -0.6402,-0.82357 -1.0894,-1.07813 l -0.0224,-0.02246 c -0.1947,-0.10482 -0.4043,-0.19092 -0.6289,-0.2583 -0.2246,-0.06738 -0.4567,-0.10856 -0.6963,-0.12354 h -0.0225 -0.0225 c -0.0299,0 -0.0561,0 -0.0786,0 -0.0224,0 -0.0411,0 -0.0561,0 -0.1198,0 -0.2359,0.00375 -0.3482,0.01123 -0.1123,0.00749 -0.2208,0.02621 -0.3256,0.05616 h 0.0224 l -3.9531,0.26953 1.707,3.59375 c 0.0449,0.13476 0.0974,0.26204 0.1572,0.38183 0.0599,0.1198 0.1273,0.2321 0.2022,0.33692 h -0.0225 l 0.0225,0.06738 M 5.50293,-6.87305 c -0.25456,0.01498 -0.49788,0.05616 -0.72998,0.12354 -0.2321,0.06738 -0.44548,0.16097 -0.64014,0.28076 -0.44922,0.26953 -0.81233,0.63639 -1.08935,1.10059 -0.27702,0.46419 -0.41553,0.9733 -0.41553,1.52734 0,0.83854 0.29574,1.55355 0.88721,2.14502 0.59147,0.59147 1.30647,0.887206 2.14502,0.887206 0.52408,0 1.00699,-0.119791 1.44873,-0.359376 0.44173,-0.23958 0.80485,-0.56152 1.08935,-0.96582 v -0.02246 -0.02246 c 0.0599,-0.10482 0.11979,-0.21712 0.17969,-0.33692 0.0599,-0.11979 0.1123,-0.23958 0.15723,-0.35937 V -2.89746 L 10.2871,-6.51367 6.33398,-6.82813 C 6.22917,-6.8431 6.12435,-6.85807 6.01953,-6.87305 5.91471,-6.88802 5.8099,-6.89551 5.70508,-6.89551 c -0.02995,0 -0.0599,0 -0.08985,0 -0.02994,0 -0.05989,0 -0.08984,0 l -0.02246,0.02246 m 11.99417,-0.6289 c 0.2545,-0.01498 0.4979,-0.05616 0.73,-0.12354 0.232,-0.06738 0.4454,-0.16097 0.6401,-0.28076 0.4492,-0.26953 0.8123,-0.63639 1.0893,-1.10059 0.2771,-0.46419 0.4156,-0.9733 0.4156,-1.52736 0,-0.8385 -0.2958,-1.5535 -0.8872,-2.145 -0.5915,-0.5915 -1.3065,-0.8872 -2.1451,-0.8872 -0.524,0 -1.007,0.1198 -1.4487,0.3594 -0.4417,0.2396 -0.8048,0.5615 -1.0893,0.9658 v 0.0224 0.0225 c -0.0599,0.1048 -0.1198,0.2171 -0.1797,0.3369 -0.0599,0.1198 -0.1123,0.2396 -0.1573,0.3594 v 0.0225 l -1.7519,3.61617 3.9531,0.31445 c 0.1048,0.01498 0.2097,0.02995 0.3145,0.04493 0.1048,0.01497 0.2096,0.02246 0.3144,0.02246 0.03,0 0.0599,0 0.0899,0 0.0299,0 0.0599,0 0.0898,0 l 0.0225,-0.02246" />
      </g>
      <g
         style="font-style:normal;font-weight:400;font-size:19.84250069px;font-family:icomoon;fill:#000000;fill-opacity:1;stroke:none"
         id="g42"
         font-style="normal"
         font-weight="400"
         font-size="19.8425"
         transform="translate(3,22.778484)">
        <path
           style="vector-effect:none;fill-rule:nonzero"
           inkscape:connector-curvature="0"
           id="path40"
           d="m 23.9434,-20.4395 c 0.3724,0 0.694,0.1355 0.9648,0.4063 0.2708,0.2708 0.4063,0.5924 0.4063,0.9648 V 2.81836 c 0,0.3724 -0.1355,0.69401 -0.4063,0.96484 -0.2708,0.27084 -0.5924,0.40625 -0.9648,0.40625 H 2.05664 C 1.68424,4.18945 1.36263,4.05404 1.0918,3.7832 0.820964,3.51237 0.685547,3.19076 0.685547,2.81836 V -19.0684 c 0,-0.3724 0.135417,-0.694 0.406253,-0.9648 0.27083,-0.2708 0.59244,-0.4063 0.96484,-0.4063 H 23.9434 m 0,-0.6855 H 2.05664 c -0.57552,0 -1.062174,0.1989 -1.45996,0.5967 C 0.198893,-20.1305 0,-19.6439 0,-19.0684 V 2.81836 C 0,3.39388 0.198893,3.88053 0.59668,4.27832 0.994466,4.67611 1.48112,4.875 2.05664,4.875 H 23.9434 c 0.5755,0 1.0621,-0.19889 1.4599,-0.59668 C 25.8011,3.88053 26,3.39388 26,2.81836 V -19.0684 c 0,-0.5755 -0.1989,-1.0621 -0.5967,-1.4599 -0.3978,-0.3978 -0.8844,-0.5967 -1.4599,-0.5967" />
      </g>
    </g>
    <g
       transform="matrix(1.33333,0,0,1.33333,16,16)"
       font-size="8.25"
       font-weight="400"
       font-style="normal"
       id="g44"
       style="font-style:normal;font-weight:400;font-size:8.25px;font-family:'MS Shell Dlg 2';fill:none;stroke:#000000;stroke-width:1;stroke-linecap:square;stroke-linejoin:bevel;stroke-opacity:1" />
    <g
       transform="translate(16,16)"
       font-size="8.25"
       font-weight="400"
       font-style="normal"
       id="g46"
       style="font-style:normal;font-weight:400;font-size:8.25px;font-family:'MS Shell Dlg 2';fill:none;stroke:#000000;stroke-width:1;stroke-linecap:square;stroke-linejoin:bevel;stroke-opacity:1" />
    <g
       font-size="8.25"
       font-weight="400"
       font-style="normal"
       id="g48"
       style="font-style:normal;font-weight:400;font-size:8.25px;font-family:'MS Shell Dlg 2';fill:none;stroke:#000000;stroke-width:1;stroke-linecap:square;stroke-linejoin:bevel;stroke-opacity:1" />
  </g>
</svg>
