<svg xmlns="http://www.w3.org/2000/svg" width="20" height="20" version="1.2">
    <g font-weight="400" style="fill:none;fill-rule:evenodd;stroke:#000;stroke-width:1;stroke-linecap:square;stroke-linejoin:bevel">
        <g style="font-style:normal;font-weight:400;font-size:17.00779915px;font-family:icomoon;fill:#fff;fill-opacity:1;stroke:none">
            <path d="M2.021-18.688h18.957c.555 0 1.03.199 1.427.596.397.396.595.872.595 1.426V2.291c0 .554-.198 1.03-.595 1.426a1.946 1.946 0 0 1-1.427.595H2.021c-.554 0-1.029-.198-1.426-.595A1.946 1.946 0 0 1 0 2.291v-18.957c0-.554.198-1.03.595-1.426a1.946 1.946 0 0 1 1.426-.596" font-size="17.008" style="vector-effect:none;fill-rule:nonzero" transform="matrix(.65217 0 0 .65217 2.5 14.687)"/>
        </g>
        <g style="font-style:normal;font-weight:400;font-size:17.00779915px;font-family:icomoon;fill:#000;fill-opacity:1;stroke:none">
            <path d="M20.979-18.014a1.3 1.3 0 0 1 .954.393 1.3 1.3 0 0 1 .393.955V2.291a1.3 1.3 0 0 1-.393.955 1.3 1.3 0 0 1-.955.393H2.021a1.3 1.3 0 0 1-.954-.393 1.3 1.3 0 0 1-.393-.955v-18.957a1.3 1.3 0 0 1 .393-.955 1.3 1.3 0 0 1 .954-.393h18.957m0-.674H2.021c-.554 0-1.029.199-1.426.596A1.946 1.946 0 0 0 0-16.666V2.291c0 .554.198 1.03.595 1.426.397.397.872.595 1.426.595h18.957c.555 0 1.03-.198 1.427-.595.397-.397.595-.872.595-1.426v-18.957c0-.554-.198-1.03-.595-1.426a1.946 1.946 0 0 0-1.426-.596m-7.48 6.38v4.334H9.501v-4.335H7.547v10.243H9.5v-4.335h3.998v4.335h1.954V-12.31H13.5M11.5-15.296c1.123 0 2.179.21 3.167.629a8.07 8.07 0 0 1 2.583 1.73 8.07 8.07 0 0 1 1.73 2.582c.419.989.628 2.044.628 3.168 0 1.123-.21 2.178-.628 3.166a8.07 8.07 0 0 1-1.73 2.583 8.069 8.069 0 0 1-2.583 1.73A8.025 8.025 0 0 1 11.5.921 8.024 8.024 0 0 1 8.333.292a8.07 8.07 0 0 1-2.583-1.73A8.07 8.07 0 0 1 4.02-4.02a8.024 8.024 0 0 1-.628-3.167c0-1.123.21-2.178.629-3.167.419-.988.995-1.849 1.729-2.582a8.07 8.07 0 0 1 2.583-1.73 8.024 8.024 0 0 1 3.167-.629m0-1.37c-1.303 0-2.53.247-3.684.741a9.82 9.82 0 0 0-3.01 2.044 9.821 9.821 0 0 0-2.043 3.01 9.252 9.252 0 0 0-.742 3.684c0 1.302.248 2.53.742 3.683a9.82 9.82 0 0 0 2.044 3.01 9.82 9.82 0 0 0 3.01 2.044 9.252 9.252 0 0 0 3.683.741c1.303 0 2.53-.247 3.684-.741a9.821 9.821 0 0 0 3.01-2.044 9.82 9.82 0 0 0 2.043-3.01 9.253 9.253 0 0 0 .742-3.683c0-1.303-.248-2.531-.742-3.684a9.821 9.821 0 0 0-2.044-3.01 9.821 9.821 0 0 0-3.01-2.044 9.253 9.253 0 0 0-3.683-.741" font-size="17.008" style="vector-effect:none;fill-rule:nonzero" transform="matrix(.65217 0 0 .65217 2.5 14.687)"/>
        </g>
    </g>
</svg>
