<svg xmlns="http://www.w3.org/2000/svg" xml:space="preserve" width="547" height="546">
    <defs>
        <filter id="d" width="1.015" height="1.011" x="-.007" y="-.006" style="color-interpolation-filters:sRGB">
            <feGaussianBlur stdDeviation=".264"/>
        </filter>
        <filter id="a" width="1.015" height="1.011" x="-.007" y="-.006" style="color-interpolation-filters:sRGB">
            <feGaussianBlur stdDeviation=".264"/>
        </filter>
        <filter id="b" width="1.984" height="1.984" x="-.492" y="-.492" style="color-interpolation-filters:sRGB">
            <feGaussianBlur stdDeviation=".04"/>
        </filter>
        <filter id="c" width="1.984" height="1.984" x="-.492" y="-.492" style="color-interpolation-filters:sRGB">
            <feGaussianBlur stdDeviation=".033"/>
        </filter>
    </defs>
    <g style="display:inline">
        <g style="font-style:normal;font-weight:400;font-size:22.6771px;font-family:icomoon;display:inline;opacity:1;fill:#fdfd00;fill-opacity:1;fill-rule:evenodd;stroke:none;stroke-width:1;stroke-linecap:square;stroke-linejoin:bevel">
            <path d="M2.637-24.375h24.726c.723 0 1.343.259 1.86.776.518.518.777 1.138.777 1.86V2.989c0 .723-.259 1.343-.776 1.86a2.538 2.538 0 0 1-1.86.777H2.636a2.538 2.538 0 0 1-1.86-.776A2.538 2.538 0 0 1 0 2.989v-24.727c0-.723.259-1.343.776-1.86a2.538 2.538 0 0 1 1.86-.777" font-size="22.677" font-weight="400" style="vector-effect:none;fill:#fdfd00;fill-opacity:1;fill-rule:nonzero" transform="matrix(.66667 0 0 .66667 0 16.25)"/>
        </g>
        <path d="M102.884 63.104c-10.08 0-18.732 3.61-25.951 10.83-7.22 7.219-10.83 15.87-10.83 25.95v344.92c0 10.08 3.61 18.73 10.83 25.95 7.22 7.22 15.871 10.83 25.951 10.83h344.92c10.081 0 18.732-3.61 25.951-10.83 7.22-7.22 10.828-15.87 10.828-25.95V99.885c0-10.08-3.609-18.731-10.828-25.95-7.219-7.22-15.87-10.83-25.951-10.83zm0 12.26h344.92c6.811 0 12.603 2.385 17.37 7.152 4.766 4.766 7.152 10.557 7.152 17.369v344.92c0 6.81-2.386 12.6-7.153 17.367-4.766 4.768-10.558 7.152-17.369 7.152h-344.92c-6.81 0-12.602-2.384-17.369-7.152-4.768-4.767-7.15-10.557-7.15-17.367V99.885c0-6.812 2.382-12.603 7.15-17.37 4.767-4.766 10.558-7.152 17.37-7.152zm61.781 83.54c-.11.522-.295.943-.431 1.43.263.014.523.044.785.063-.11-.502-.207-1.009-.354-1.493z" style="font-style:normal;font-weight:400;font-size:17.0078px;font-family:icomoon;display:inline;opacity:1;vector-effect:none;fill:#000;fill-opacity:1;fill-rule:nonzero;stroke:none;stroke-width:18.1948;stroke-linecap:square;stroke-linejoin:bevel" transform="translate(-.015 .021) scale(.03664)"/>
        <g style="font-style:normal;font-weight:400;font-size:22.6771px;font-family:icomoon;display:inline;opacity:1;fill:#000;fill-opacity:1;fill-rule:evenodd;stroke:none;stroke-width:1;stroke-linecap:square;stroke-linejoin:bevel">
            <path d="M26.426-22.236c.39 0 .727.141 1.01.425.284.283.425.62.425 1.01V2.051c0 .39-.141.727-.425 1.01a1.38 1.38 0 0 1-1.01.425H3.574a1.38 1.38 0 0 1-1.01-.424 1.38 1.38 0 0 1-.425-1.011v-22.852c0-.39.141-.727.424-1.01a1.38 1.38 0 0 1 1.011-.425h22.852m0-.703H3.574c-.586 0-1.089.21-1.509.63-.42.42-.63.922-.63 1.508V2.051c0 .586.21 1.089.63 1.509.42.42.923.63 1.51.63h22.85c.587 0 1.09-.21 1.51-.63.42-.42.63-.923.63-1.51V-20.8c0-.587-.21-1.09-.63-1.51-.42-.42-.923-.63-1.51-.63m1.436-.732c.391 0 .728.142 1.011.425.283.283.425.62.425 1.01V3.487c0 .39-.142.728-.425 1.011a1.38 1.38 0 0 1-1.01.425H2.138a1.38 1.38 0 0 1-1.011-.425 1.38 1.38 0 0 1-.425-1.01v-25.723c0-.391.142-.728.425-1.011a1.38 1.38 0 0 1 1.01-.425h25.723m0-.703H2.14c-.586 0-1.09.21-1.51.63-.419.42-.629.923-.629 1.509V3.486c0 .586.21 1.09.63 1.51.42.419.923.629 1.509.629H27.86c.586 0 1.09-.21 1.51-.63.419-.42.629-.923.629-1.509v-25.722c0-.586-.21-1.09-.63-1.51-.42-.419-.923-.629-1.509-.629" font-size="22.677" font-weight="400" style="vector-effect:none;fill-rule:nonzero" transform="matrix(.66667 0 0 .66667 0 16.25)"/>
        </g>
        <g style="display:inline;opacity:1">
            <g transform="matrix(.02923 0 0 .02923 1.77 1.88)">
                <path d="M362.751 151.5c-1.31 3.808-3.93 11.422-6.462 17.45-2.531 6.03-4.973 10.472-7.894 13.771-2.921 3.3-6.32 5.456-10.703 7.263-4.383 1.808-9.748 3.267-10.849 1.422-1.101-1.844 2.062-6.992 1.71-10.373-.354-3.38-4.224-4.994-8.352-6.94-4.127-1.947-8.508-4.225-12.657-3.244-4.15.98-8.063 5.22-11.923 9.787-3.86 4.566-7.665 9.458-10.655 15.167-2.99 5.708-5.164 12.231-8.045 15.005-2.88 2.774-6.468 1.8-8.694 2.327-2.227.528-3.09 2.557-4.504 5-1.413 2.445-3.376 5.304-4.466 9.561-1.09 4.257-1.308 9.91 2.009 14.857 3.316 4.947 10.166 9.187 17.94 11.198 7.773 2.011 16.47 1.794 23.102 1.305 6.632-.49 11.199-1.25 13.318 2.174 2.12 3.426 1.794 11.036 0 20.604-1.794 9.567-5.056 21.091-9.079 31.202-4.022 10.112-8.806 18.81-14.35 28.05-5.546 9.242-11.851 19.027-15.004 25.768-3.153 6.74-3.153 10.437-2.61 13.047.545 2.61 1.632 4.131 3.372 5.218 1.74 1.087 4.131 1.74 6.414 1.848 2.283.108 4.458-.327 6.958-2.61s5.327-6.414 8.697-11.524c3.37-5.11 7.285-11.198 10.655-16.743 3.37-5.545 6.197-10.546 8.915-15.33 2.718-4.784 5.327-9.35 7.828-13.264 2.5-3.914 4.893-7.176 6.85-10.546 1.956-3.37 3.478-6.85 6.632-8.806 3.154-1.958 7.937-2.393 10.764-2.283 2.827.109 3.697.761 5.436 1.848 1.74 1.087 4.35 2.61 6.197 5.437 1.848 2.827 2.935 6.958 3.479 12.503.543 5.545.543 12.503.543 19.352 0 6.85 0 13.59-.109 19.57-.108 5.98-.326 11.198.544 16.09.87 4.894 2.827 9.46 5.654 11.851s6.524 2.609 9.567 1.739c3.044-.87 5.436-2.827 7.121-6.034 1.685-3.207 2.664-7.664 3.262-13.372.598-5.708.815-12.666.76-20.874-.053-8.21-.38-17.667-.869-25.06-.489-7.394-1.141-12.721-2.88-17.94-1.74-5.218-4.567-10.328-7.067-14.297-2.5-3.968-4.675-6.795-7.502-9.296-2.826-2.5-6.305-4.675-7.937-7.719-1.631-3.044-1.414-6.958-1.305-14.351.109-7.393.109-18.265.217-24.462.109-6.198.326-7.72 1.523-7.61 1.197.108 3.371 1.847 7.285 5s9.567 7.72 17.178 10.111c7.61 2.391 17.178 2.609 22.505 2.609 5.327 0 6.415-.218 7.067.11.652.326.87 1.196-.816 23.375-1.686 22.18-5.273 65.667-6.74 87.738-1.468 22.07-.815 22.723.109 22.994.924.271 2.12.163 3.207-.272 1.086-.435 2.065-1.196 4.565-23.865 2.5-22.668 6.523-67.242 8.427-89.585 1.903-22.343 1.686-22.452 3.86-23.213 2.174-.761 6.74-2.175 8.48-5.599 1.739-3.424.652-8.86-.87-11.796s-3.479-3.37-5.436-2.719c-1.958.653-3.915 2.392-9.242 3.044-5.327.653-14.024.218-24.19-6.06-10.165-6.279-21.798-18.4-27.56-26.446-5.764-8.046-5.655-12.014-2.285-16.5 3.371-4.485 10.003-9.486 11.308-13.943 1.305-4.457-2.718-8.37-7.12-11.035-4.404-2.664-9.188-4.077-11.58-4.784-2.393-.707-2.393-.707-3.703 3.1z" style="mix-blend-mode:normal;fill:#000;fill-opacity:1;stroke:#000;stroke-width:1.5;stroke-linecap:round;stroke-linejoin:bevel;stroke-dasharray:none;stroke-opacity:.502146;paint-order:markers stroke fill;filter:url(#a)" transform="translate(-61 -33.698) scale(1.25559)"/>
                <circle cx="411.763" cy="161.641" r="15.85" style="fill:#000;fill-opacity:1;stroke:#000;stroke-width:31.009;stroke-linecap:round;stroke-linejoin:bevel;stroke-dasharray:none;stroke-opacity:1;paint-order:stroke markers fill;filter:url(#b)"/>
            </g>
            <g transform="matrix(.02923 0 0 .02923 1.884 1.88)">
                <circle cx="194.583" cy="214.48" r="13.047" style="fill:#000;fill-opacity:1;stroke:#000;stroke-width:25.525;stroke-linecap:round;stroke-linejoin:bevel;stroke-dasharray:none;stroke-opacity:1;paint-order:normal;filter:url(#c)"/>
                <path d="M179.574 211.764c-1.31 3.807-3.93 11.421-6.461 17.45-2.532 6.029-4.974 10.471-8.144 13.9-3.17 3.43-7.067 5.846-9.893 7.412-2.825 1.567-4.579 2.284-4.999.859-.42-1.425.495-4.993-1.135-7.713-1.63-2.72-5.806-4.593-10.366-7.088-4.559-2.495-9.5-5.613-13.93-5.052-4.428.56-8.342 4.8-12.202 9.367-3.86 4.566-7.665 9.459-10.655 15.167-2.99 5.708-5.164 12.231-7.664 14.569-2.5 2.337-5.326.49-7.773.978-2.447.49-4.513 3.316-6.307 6.197-1.794 2.881-3.316 5.817-4.186 10.112-.87 4.295-1.087 9.948 2.23 14.895 3.317 4.946 10.166 9.186 17.94 11.197 7.773 2.012 16.47 1.794 23.103 1.305 6.632-.49 11.198-1.25 13.317 2.175 2.12 3.425 1.794 11.035 0 20.603-1.794 9.567-5.056 21.092-9.078 31.203-4.023 10.11-8.807 18.808-14.352 28.05-5.545 9.241-11.85 19.026-15.003 25.767-3.153 6.741-3.153 10.438-2.609 13.047.544 2.61 1.631 4.131 3.371 5.218 1.74 1.087 4.132 1.74 6.415 1.848 2.283.108 4.457-.326 6.957-2.61 2.5-2.283 5.327-6.414 8.697-11.524 3.37-5.11 7.285-11.198 10.655-16.743 3.37-5.545 6.197-10.546 8.915-15.33 2.718-4.783 5.328-9.35 7.828-13.264 2.5-3.914 4.893-7.175 6.85-10.546 1.957-3.37 3.479-6.849 6.632-8.806 3.154-1.957 7.937-2.392 10.764-2.283 2.827.11 3.697.761 5.437 1.849 1.74 1.087 4.348 2.609 6.196 5.436 1.848 2.827 2.935 6.958 3.479 12.503.543 5.545.543 12.503.543 19.352 0 6.85 0 13.59-.109 19.57-.108 5.98-.326 11.198.544 16.091.87 4.893 2.827 9.459 5.654 11.85 2.828 2.392 6.524 2.609 9.568 1.74 3.044-.87 5.435-2.828 7.12-6.035 1.685-3.207 2.664-7.664 3.262-13.372.598-5.708.815-12.666.761-20.874-.054-8.209-.38-17.667-.87-25.06-.489-7.394-1.141-12.72-2.88-17.94-1.74-5.218-4.566-10.328-7.067-14.296-2.5-3.969-4.675-6.795-7.501-9.296-2.827-2.501-6.306-4.675-7.938-7.72-1.631-3.044-1.414-6.958-1.305-14.35.109-7.394.109-18.266.218-24.463.108-6.197.326-7.72 1.522-7.61 1.197.108 3.371 1.848 7.285 5 3.914 3.154 9.568 7.72 17.178 10.111 7.61 2.392 17.178 2.61 22.505 2.609 5.328 0 6.415-.218 7.067.11.652.326.87 1.196-.816 23.375-1.685 22.18-5.273 65.667-6.74 87.738-1.468 22.07-.815 22.723.109 22.994.924.272 2.12.163 3.207-.272 1.087-.435 2.065-1.196 4.566-23.864 2.5-22.669 6.523-67.243 8.426-89.586 1.903-22.343 1.686-22.451 3.86-23.213 2.174-.761 6.74-2.175 8.48-5.599 1.74-3.424.652-8.86-.87-11.796-1.521-2.936-3.478-3.37-5.436-2.718-1.957.652-3.914 2.391-9.241 3.044-5.327.652-14.025.217-24.19-6.061-10.166-6.278-21.799-18.4-27.562-26.446-5.763-8.046-5.654-12.014-2.283-16.5 3.37-4.485 10.002-9.486 11.307-13.943 1.305-4.457-2.717-8.37-7.12-11.035-4.404-2.664-9.187-4.077-11.58-4.784-2.392-.707-2.392-.707-3.703 3.1z" style="mix-blend-mode:normal;fill:#000;fill-opacity:1;stroke:#000;stroke-width:1.5;stroke-linecap:round;stroke-linejoin:bevel;stroke-dasharray:none;stroke-opacity:.502146;paint-order:markers stroke fill;filter:url(#d)"/>
            </g>
        </g>
    </g>
</svg>
