<svg xmlns="http://www.w3.org/2000/svg" width="20" height="20" version="1.2">
    <g font-weight="400" style="fill:none;fill-rule:evenodd;stroke:#000;stroke-width:1;stroke-linecap:square;stroke-linejoin:bevel">
        <g style="font-style:normal;font-weight:400;font-size:22.67709923px;font-family:icomoon;fill:#fff;fill-opacity:1;stroke:none">
            <path d="M2.637-24.375h24.726c.723 0 1.343.259 1.86.776.518.518.777 1.138.777 1.86V2.989c0 .723-.259 1.343-.776 1.86a2.538 2.538 0 0 1-1.86.777H2.636a2.538 2.538 0 0 1-1.86-.776A2.538 2.538 0 0 1 0 2.989v-24.727c0-.723.259-1.343.776-1.86a2.538 2.538 0 0 1 1.86-.777" font-size="22.677" style="vector-effect:none;fill-rule:nonzero" transform="matrix(.66667 0 0 .66667 0 16.25)"/>
        </g>
        <g style="font-style:normal;font-weight:400;font-size:17.00779915px;font-family:icomoon;fill:#000;fill-opacity:1;stroke:none">
            <path d="M20.979-18.014a1.3 1.3 0 0 1 .954.393 1.3 1.3 0 0 1 .393.955V2.291a1.3 1.3 0 0 1-.393.955 1.3 1.3 0 0 1-.955.393H2.021a1.3 1.3 0 0 1-.954-.393 1.3 1.3 0 0 1-.393-.955v-18.957a1.3 1.3 0 0 1 .393-.955 1.3 1.3 0 0 1 .954-.393h18.957m0-.674H2.021c-.554 0-1.029.199-1.426.596A1.946 1.946 0 0 0 0-16.666V2.291c0 .554.198 1.03.595 1.426.397.397.872.595 1.426.595h18.957c.555 0 1.03-.198 1.427-.595.397-.397.595-.872.595-1.426v-18.957c0-.554-.198-1.03-.595-1.426a1.946 1.946 0 0 0-1.426-.596m-2.381 11.5v-.022c0-.853-.146-1.67-.438-2.448a7.213 7.213 0 0 0-1.202-2.09v.023l.966-.965-.966-.966-.966.966a7.215 7.215 0 0 0-2.055-1.18 6.887 6.887 0 0 0-2.46-.438c-.853 0-1.67.146-2.448.438a7.21 7.21 0 0 0-2.089 1.202l.023-.022-.988-.966-.966.966.988 1.01A7.016 7.016 0 0 0 4.83-9.625a6.984 6.984 0 0 0-.427 2.438A7.05 7.05 0 0 0 6.02-2.672l-.022-.023-.988 1.01.966.966.988-1.01A7.25 7.25 0 0 0 9.04-.528 6.887 6.887 0 0 0 11.5-.09a7.05 7.05 0 0 0 4.515-1.617l-.023.022.966.966.966-.966-.966-.965a7.25 7.25 0 0 0 1.202-2.078 6.824 6.824 0 0 0 .438-2.437v-.022m-12.848 0c0-.794.15-1.543.45-2.247a5.843 5.843 0 0 1 3.054-3.054c.704-.3 1.452-.45 2.246-.45s1.542.15 2.246.45a5.844 5.844 0 0 1 3.055 3.054c.3.704.449 1.453.449 2.247 0 .793-.15 1.542-.45 2.246a5.844 5.844 0 0 1-3.054 3.054c-.704.3-1.452.45-2.246.45s-1.542-.15-2.246-.45A5.843 5.843 0 0 1 6.199-4.94a5.676 5.676 0 0 1-.449-2.247" font-size="17.008" style="vector-effect:none;fill-rule:nonzero" transform="matrix(.66667 0 0 .66667 2.333 14.792)"/>
        </g>
        <g style="font-style:normal;font-weight:400;font-size:22.67709923px;font-family:icomoon;fill:#000;fill-opacity:1;stroke:none">
            <path d="M26.426-22.236c.39 0 .727.141 1.01.425.284.283.425.62.425 1.01V2.051c0 .39-.141.727-.425 1.01a1.38 1.38 0 0 1-1.01.425H3.574a1.38 1.38 0 0 1-1.01-.424 1.38 1.38 0 0 1-.425-1.011v-22.852c0-.39.141-.727.424-1.01a1.38 1.38 0 0 1 1.011-.425h22.852m0-.703H3.574c-.586 0-1.089.21-1.509.63-.42.42-.63.922-.63 1.508V2.051c0 .586.21 1.089.63 1.509.42.42.923.63 1.51.63h22.85c.587 0 1.09-.21 1.51-.63.42-.42.63-.923.63-1.51V-20.8c0-.587-.21-1.09-.63-1.51-.42-.42-.923-.63-1.51-.63m1.436-.732c.391 0 .728.142 1.011.425.283.283.425.62.425 1.01V3.487c0 .39-.142.728-.425 1.011a1.38 1.38 0 0 1-1.01.425H2.138a1.38 1.38 0 0 1-1.011-.425 1.38 1.38 0 0 1-.425-1.01v-25.723c0-.391.142-.728.425-1.011a1.38 1.38 0 0 1 1.01-.425h25.723m0-.703H2.14c-.586 0-1.09.21-1.51.63-.419.42-.629.923-.629 1.509V3.486c0 .586.21 1.09.63 1.51.42.419.923.629 1.509.629H27.86c.586 0 1.09-.21 1.51-.63.419-.42.629-.923.629-1.509v-25.722c0-.586-.21-1.09-.63-1.51-.42-.419-.923-.629-1.509-.629" font-size="22.677" style="vector-effect:none;fill-rule:nonzero" transform="matrix(.66667 0 0 .66667 0 16.25)"/>
        </g>
    </g>
</svg>
