<svg xmlns="http://www.w3.org/2000/svg" width="20" height="20" version="1.2">
    <g font-weight="400" style="fill:none;fill-rule:evenodd;stroke:#000;stroke-width:1;stroke-linecap:square;stroke-linejoin:bevel">
        <g style="font-style:normal;font-weight:400;font-size:19.84250069px;font-family:icomoon;fill:red;fill-opacity:1;stroke:none">
            <path d="M2.285-21.125h21.43a2.2 2.2 0 0 1 1.612.673A2.2 2.2 0 0 1 26-18.84V2.59a2.2 2.2 0 0 1-.673 1.612 2.2 2.2 0 0 1-1.612.673H2.285a2.2 2.2 0 0 1-1.612-.673A2.2 2.2 0 0 1 0 2.59v-21.43a2.2 2.2 0 0 1 .673-1.612 2.2 2.2 0 0 1 1.612-.673" font-size="19.843" style="vector-effect:none;fill-rule:nonzero" transform="matrix(.6923 0 0 .6923 1 15.625)"/>
        </g>
        <g style="font-style:normal;font-weight:400;font-size:17.00779915px;font-family:icomoon;fill:#000;fill-opacity:1;stroke:none">
            <path d="M20.979-18.014a1.3 1.3 0 0 1 .954.393 1.3 1.3 0 0 1 .393.955V2.291a1.3 1.3 0 0 1-.393.955 1.3 1.3 0 0 1-.955.393H2.021a1.3 1.3 0 0 1-.954-.393 1.3 1.3 0 0 1-.393-.955v-18.957a1.3 1.3 0 0 1 .393-.955 1.3 1.3 0 0 1 .954-.393h18.957m0-.674H2.021c-.554 0-1.029.199-1.426.596A1.946 1.946 0 0 0 0-16.666V2.291c0 .554.198 1.03.595 1.426.397.397.872.595 1.426.595h18.957c.555 0 1.03-.198 1.427-.595.397-.397.595-.872.595-1.426v-18.957c0-.554-.198-1.03-.595-1.426a1.946 1.946 0 0 0-1.426-.596m-1.011 5.593c-.24-.21-.54-.284-.899-.224a8.93 8.93 0 0 1-.92.112 1.735 1.735 0 0 1-.394-.562c-.112-.24-.378-.374-.797-.404-.24 0-.502.127-.786.382a1.806 1.806 0 0 0-.562.966c-.134.524-.142.95-.022 1.28.12.33-.082.681-.607 1.056-.224 0-.43-.131-.617-.393a5.98 5.98 0 0 0-.64-.753c-.15-.15-.27-.33-.36-.539a1.637 1.637 0 0 1-.135-.651c0-.03.004-.056.012-.079a.249.249 0 0 0 .011-.078c-.03-.33-.161-.61-.393-.843a1.326 1.326 0 0 0-.842-.393c-.524 0-.88.146-1.067.438a3.804 3.804 0 0 0-.416.842c-.09.27-.176.46-.258.573-.082.113-.221.169-.416.169a.582.582 0 0 1-.46-.191c-.112-.127-.221-.34-.326-.64a3.953 3.953 0 0 0-.393-.82c-.157-.247-.445-.37-.865-.37-.479 0-.816.198-1.01.594a6.041 6.041 0 0 0-.45 1.247c-.06.285-.142.55-.247.797a3.576 3.576 0 0 1-.381.685v-.022c-.135.15-.3.337-.495.562-.194.224-.389.344-.584.359-.359.03-.662.176-.91.438-.246.262-.37.565-.37.91 0 .03.004.052.011.067a.1.1 0 0 1 .012.045c0 .39.045.749.134 1.078.09.33.083.629-.022.898-.12.27-.262.67-.427 1.202-.165.532-.06.947.315 1.247v.584c0 .374.018.793.056 1.257.037.465.093.891.168 1.28.06.39.157.592.292.607.57.015.97.023 1.202.023h.348l.09-.191c.06-.128-.045-.289-.315-.483-.284-.195-.43-.565-.438-1.112a7.316 7.316 0 0 1 .169-1.65c.03 0 .052.003.067.01a.156.156 0 0 0 .068.012.185.185 0 0 0 .056-.012.249.249 0 0 1 .078-.01h.045c.18.853.442 1.639.786 2.357.345.72.577 1.079.697 1.079H8.4c.224 0 .336-.06.336-.18 0-.18-.123-.31-.37-.393a6.728 6.728 0 0 1-.573-.214c-.225-.134-.412-.348-.562-.64-.15-.292-.292-.775-.426-1.448a1.327 1.327 0 0 1-.023-.259v-.28c0-.36.019-.72.056-1.079.038-.359.094-.71.169-1.055l-.023.067.09-.18a.802.802 0 0 0 .068-.202 6.558 6.558 0 0 0 3.414.944h.471-.022c.165.883.21 1.785.135 2.706-.075.921-.038 1.576.112 1.966.06.194.588.28 1.583.258.996-.023 1.494-.094 1.494-.214 0-.18-.13-.306-.393-.381-.262-.075-.445-.15-.55-.225a1.193 1.193 0 0 1-.45-.752c-.044-.292-.052-.783-.022-1.472.03-.389.086-.77.169-1.145.082-.374.19-.726.325-1.056l-.022.045c.3-.06.557-.18.775-.36.217-.179.385-.396.505-.65l.022-.023c.48 0 .929-.075 1.348-.225.42-.15.809-.352 1.168-.606h-.022c.599-.39.995-.917 1.19-1.584a5.358 5.358 0 0 0 .18-2.077c.105-.404.423-.648.954-.73.532-.083.798-.31.798-.685 0-.15-.027-.262-.079-.337a1.635 1.635 0 0 0-.258-.27" font-size="17.008" style="vector-effect:none;fill-rule:nonzero" transform="matrix(.6923 0 0 .6923 2.038 14.976)"/>
        </g>
        <g style="font-style:normal;font-weight:400;font-size:19.84250069px;font-family:icomoon;fill:#000;fill-opacity:1;stroke:none">
            <path d="M23.943-20.44c.373 0 .694.136.965.407.271.27.406.592.406.965V2.818c0 .373-.135.694-.406.965-.27.271-.592.406-.965.406H2.057c-.373 0-.694-.135-.965-.406a1.318 1.318 0 0 1-.406-.965v-21.886c0-.373.135-.694.406-.965.27-.271.592-.407.965-.407h21.886m0-.685H2.057c-.576 0-1.063.199-1.46.597A1.986 1.986 0 0 0 0-19.068V2.818c0 .576.199 1.063.597 1.46.397.398.884.597 1.46.597h21.886c.576 0 1.063-.199 1.46-.597.398-.397.597-.884.597-1.46v-21.886c0-.576-.199-1.063-.597-1.46a1.986 1.986 0 0 0-1.46-.597" font-size="19.843" style="vector-effect:none;fill-rule:nonzero" transform="matrix(.6923 0 0 .6923 1 15.625)"/>
        </g>
    </g>
</svg>
