<svg xmlns="http://www.w3.org/2000/svg" width="20" height="20" version="1.2">
    <g font-weight="400" style="fill:none;fill-rule:evenodd;stroke:#000;stroke-width:1;stroke-linecap:square;stroke-linejoin:bevel">
        <g style="font-style:normal;font-weight:400;font-size:17.00779915px;font-family:icomoon;fill:#ff0;fill-opacity:1;stroke:none">
            <path d="M2.021-18.688h18.957c.555 0 1.03.199 1.427.596.397.396.595.872.595 1.426V2.291c0 .554-.198 1.03-.595 1.426a1.946 1.946 0 0 1-1.427.595H2.021c-.554 0-1.029-.198-1.426-.595A1.946 1.946 0 0 1 0 2.291v-18.957c0-.554.198-1.03.595-1.426a1.946 1.946 0 0 1 1.426-.596" font-size="17.008" style="vector-effect:none;fill-rule:nonzero" transform="matrix(.65217 0 0 .65217 2.5 14.687)"/>
        </g>
        <g style="font-style:normal;font-weight:400;font-size:17.00779915px;font-family:icomoon;fill:#000;fill-opacity:1;stroke:none">
            <path d="M20.979-18.014a1.3 1.3 0 0 1 .954.393 1.3 1.3 0 0 1 .393.955V2.291a1.3 1.3 0 0 1-.393.955 1.3 1.3 0 0 1-.955.393H2.021a1.3 1.3 0 0 1-.954-.393 1.3 1.3 0 0 1-.393-.955v-18.957a1.3 1.3 0 0 1 .393-.955 1.3 1.3 0 0 1 .954-.393h18.957m0-.674H2.021c-.554 0-1.029.199-1.426.596A1.946 1.946 0 0 0 0-16.666V2.291c0 .554.198 1.03.595 1.426.397.397.872.595 1.426.595h18.957c.555 0 1.03-.198 1.427-.595.397-.397.595-.872.595-1.426v-18.957c0-.554-.198-1.03-.595-1.426a1.946 1.946 0 0 0-1.426-.596M16.98-13.05c.12-.015.246-.026.381-.034a7.275 7.275 0 0 1 .831 0c.135.008.27.02.405.034h-.023.045a.502.502 0 0 0 .517-.516.469.469 0 0 0-.135-.326.505.505 0 0 0-.315-.169 2.297 2.297 0 0 0-.325-.022h-.696c-.113 0-.229.007-.349.022h.045c0-.18-.018-.355-.056-.527a3.918 3.918 0 0 0-.146-.506v.023a.432.432 0 0 0-.18-.169.544.544 0 0 0-.247-.056.475.475 0 0 0-.348.146.475.475 0 0 0-.146.348v.09c.03.09.056.187.079.292a1.5 1.5 0 0 1 .034.314v.113c-.21.03-.408.075-.596.135a3.03 3.03 0 0 0-.527.224l.022-.022a6.123 6.123 0 0 1-.561-.157 3.164 3.164 0 0 1-.517-.225l.022.022c.225-.569.464-.928.72-1.078.254-.15.448-.21.583-.18.03.015.056.023.079.023h.078a.513.513 0 0 0 .36-.146.459.459 0 0 0 .157-.348.51.51 0 0 0-.36-.494l-.91.022c-.606.015-1.133.57-1.583 1.662h-.045a7.407 7.407 0 0 0-2.179-1.056l-.044-.022a.569.569 0 0 0-.348.169.476.476 0 0 0-.146.348c0 .09.022.176.067.258a.454.454 0 0 0 .202.191c.315.09.61.198.887.326.277.127.536.28.775.46l-.022-.022a1.7 1.7 0 0 0-.146.337c-.038.12-.056.247-.056.381.015.33.082.64.202.933.12.292.277.557.471.797v-.023.27c0 .48.087.928.259 1.348.172.419.408.786.707 1.1-.06.09-.127.18-.202.27a1.16 1.16 0 0 1-.247.224c-.45-.24-1.228-.475-2.336-.707-1.108-.232-2.523-.056-4.245.528a2.862 2.862 0 0 0-1.258.674h.023a2.676 2.676 0 0 1-.202-.09 1.18 1.18 0 0 1-.18-.113c-.36-.344-.48-.677-.36-1 .12-.321.09-.52-.09-.594-.194-.09-.479.157-.853.74-.374.585-.112 1.476.786 2.674.045.075.098.142.157.202l.18.18c.03.419.124.827.28 1.224.158.396.446.647.866.752a.398.398 0 0 0 .067.124c.03.037.06.07.09.1l.561.562-.539.494a.577.577 0 0 0-.168.214.672.672 0 0 0-.056.28c0 .135.037.259.112.371a.747.747 0 0 0 .292.258L7.84-.83a1.346 1.346 0 0 1 .247.786 1.643 1.643 0 0 1-.045.382l-.247.337c-.03.06-.056.123-.079.19a.67.67 0 0 0-.033.214c0 .105.026.206.078.303a.648.648 0 0 0 .214.236.423.423 0 0 0 .168.101.67.67 0 0 0 .213.034c.12 0 .229-.026.326-.079a.648.648 0 0 0 .236-.213L9.86.067l1.011.45-.202.426a3.69 3.69 0 0 0-.045.146.532.532 0 0 0-.022.146c0 .135.037.259.112.371.075.112.165.19.27.236a.35.35 0 0 0 .145.056c.053.007.102.011.146.011a.707.707 0 0 0 .371-.1.541.541 0 0 0 .236-.282l.247-.494h.089a.654.654 0 0 0 .371-.112.747.747 0 0 0 .259-.292.399.399 0 0 0 .033-.112.817.817 0 0 0 .012-.135V.326A.076.076 0 0 0 12.87.27c.524-.12 1.06-.289 1.606-.506.547-.217.955-.498 1.224-.842l.045-.045c.3-.21.54-.475.719-.797a2.152 2.152 0 0 0 .247-1.36 1.77 1.77 0 0 0-.067-.269c.015 0 .022-.004.022-.011v-.011a1.918 1.918 0 0 0-.517-1.325v-.045h-.022a1.521 1.521 0 0 1-.28-.46 2.628 2.628 0 0 1-.147-.529l-.022-.022a3.205 3.205 0 0 1 .19-1.786c.233-.561.61-.865 1.135-.91.764-.06 1.232-.138 1.404-.235.172-.098.243-.289.213-.573-.015-.27-.31-.46-.887-.573a3.308 3.308 0 0 1-1.561-.775c-.315-.224-.446-.513-.393-.864.052-.352.138-.663.258-.933.18-.015.352-.063.517-.146.164-.082.307-.183.427-.303M10.51-1.1a.545.545 0 0 0-.055-.248.775.775 0 0 0-.146-.202l-.831-.83a.834.834 0 0 1-.034-.147 1.312 1.312 0 0 1 .101-.696c.075-.172.172-.318.292-.438l1.887-.045c.104.15.19.322.258.517.067.194.101.396.101.606 0 .135-.011.266-.034.393a1.071 1.071 0 0 1-.123.348h.022L11.5-.786h-.18l-.808-.315m3.346-.314c.105-.21.184-.434.236-.674a3.46 3.46 0 0 0 .079-.741 3.948 3.948 0 0 0-.045-.584v.022H14.847h-.023c.015.03.023.064.023.101v.124c0 .225-.019.445-.057.663a3.26 3.26 0 0 1-.168.617l.022-.022a1.613 1.613 0 0 1-.359.27 3.738 3.738 0 0 1-.427.202v.022" font-size="17.008" style="vector-effect:none;fill-rule:nonzero" transform="matrix(.65217 0 0 .65217 2.5 14.687)"/>
        </g>
    </g>
</svg>
