<svg xmlns="http://www.w3.org/2000/svg" width="20" height="20" version="1.2">
    <g font-weight="400" style="fill:none;fill-rule:evenodd;stroke:#000;stroke-width:1;stroke-linecap:square;stroke-linejoin:bevel">
        <g style="font-style:normal;font-weight:400;font-size:22.67709923px;font-family:icomoon;fill:#fff;fill-opacity:1;stroke:none">
            <path d="M2.637-24.375h24.726c.723 0 1.343.259 1.86.776.518.518.777 1.138.777 1.86V2.989c0 .723-.259 1.343-.776 1.86a2.538 2.538 0 0 1-1.86.777H2.636a2.538 2.538 0 0 1-1.86-.776A2.538 2.538 0 0 1 0 2.989v-24.727c0-.723.259-1.343.776-1.86a2.538 2.538 0 0 1 1.86-.777" font-size="22.677" style="vector-effect:none;fill-rule:nonzero" transform="matrix(.66667 0 0 .66667 0 16.25)"/>
        </g>
        <g style="font-style:normal;font-weight:400;font-size:17.00779915px;font-family:icomoon;fill:#000;fill-opacity:1;stroke:none">
            <path d="M20.979-18.014a1.3 1.3 0 0 1 .954.393 1.3 1.3 0 0 1 .393.955V2.291a1.3 1.3 0 0 1-.393.955 1.3 1.3 0 0 1-.955.393H2.021a1.3 1.3 0 0 1-.954-.393 1.3 1.3 0 0 1-.393-.955v-18.957a1.3 1.3 0 0 1 .393-.955 1.3 1.3 0 0 1 .954-.393h18.957m0-.674H2.021c-.554 0-1.029.199-1.426.596A1.946 1.946 0 0 0 0-16.666V2.291c0 .554.198 1.03.595 1.426.397.397.872.595 1.426.595h18.957c.555 0 1.03-.198 1.427-.595.397-.397.595-.872.595-1.426v-18.957c0-.554-.198-1.03-.595-1.426a1.946 1.946 0 0 0-1.426-.596m-1.46 10.153c-.15-.958-.307-1.4-.472-1.325-.165.075-.09-.203.225-.831.314-.614.4-1.011.258-1.19-.143-.18-.333-.083-.573.291-.15.24-.43.4-.842.483a5.167 5.167 0 0 1-1.337.079 9.175 9.175 0 0 0-2.448-1.236 8.89 8.89 0 0 0-2.83-.449c-.659 0-1.295.09-1.91.27a9.9 9.9 0 0 0-1.706.64c-.54.262-1.056.543-1.55.842-.48.315-.92.607-1.325.876-.24.15-.513.225-.82.225-.307 0-.438-.15-.393-.45.045-.284.15-.497.314-.64.165-.142.36-.318.584-.527l-1.1.224c-.734.15-1.1.674-1.1 1.572 0 .375.153.678.46.91.307.232.632.416.977.55 0 .06.04.566.123 1.516.083.951.528 1.644 1.337 2.078.045.03.108.116.19.258.083.143.147.221.191.236-.03.434.03.914.18 1.438.15.524.404.786.764.786H8.49v-.023a.502.502 0 0 0-.146-.37.568.568 0 0 0-.348-.169c-.165-.03-.247-.243-.247-.64s.112-.715.337-.954a.82.82 0 0 1 .472-.158h.056c.022 0 .04.008.056.023a7.735 7.735 0 0 1 1.583.213c.532.127 1.075.191 1.629.191h.022c.27 0 .54-.011.809-.034a8.66 8.66 0 0 0 .786-.1l-.045.022c0 .33.049.745.146 1.246.097.502.288.753.573.753h2.201l.011-.27c.008-.18-.146-.277-.46-.292-.24 0-.382-.28-.427-.842-.045-.562.12-1.022.494-1.381a2.878 2.878 0 0 1 .966-.562l.023-.022.325-.045a2.81 2.81 0 0 1 1.46.202c.352.15.663.352.932.606.195.21.554-.022 1.078-.696l.786-1.01a2.776 2.776 0 0 1-1.38-.843 2.557 2.557 0 0 1-.641-1.471h-.022" font-size="17.008" style="vector-effect:none;fill-rule:nonzero" transform="matrix(.66667 0 0 .66667 2.333 14.792)"/>
        </g>
        <g style="font-style:normal;font-weight:400;font-size:22.67709923px;font-family:icomoon;fill:#000;fill-opacity:1;stroke:none">
            <path d="M26.426-22.236c.39 0 .727.141 1.01.425.284.283.425.62.425 1.01V2.051c0 .39-.141.727-.425 1.01a1.38 1.38 0 0 1-1.01.425H3.574a1.38 1.38 0 0 1-1.01-.424 1.38 1.38 0 0 1-.425-1.011v-22.852c0-.39.141-.727.424-1.01a1.38 1.38 0 0 1 1.011-.425h22.852m0-.703H3.574c-.586 0-1.089.21-1.509.63-.42.42-.63.922-.63 1.508V2.051c0 .586.21 1.089.63 1.509.42.42.923.63 1.51.63h22.85c.587 0 1.09-.21 1.51-.63.42-.42.63-.923.63-1.51V-20.8c0-.587-.21-1.09-.63-1.51-.42-.42-.923-.63-1.51-.63m1.436-.732c.391 0 .728.142 1.011.425.283.283.425.62.425 1.01V3.487c0 .39-.142.728-.425 1.011a1.38 1.38 0 0 1-1.01.425H2.138a1.38 1.38 0 0 1-1.011-.425 1.38 1.38 0 0 1-.425-1.01v-25.723c0-.391.142-.728.425-1.011a1.38 1.38 0 0 1 1.01-.425h25.723m0-.703H2.14c-.586 0-1.09.21-1.51.63-.419.42-.629.923-.629 1.509V3.486c0 .586.21 1.09.63 1.51.42.419.923.629 1.509.629H27.86c.586 0 1.09-.21 1.51-.63.419-.42.629-.923.629-1.509v-25.722c0-.586-.21-1.09-.63-1.51-.42-.419-.923-.629-1.509-.629" font-size="22.677" style="vector-effect:none;fill-rule:nonzero" transform="matrix(.66667 0 0 .66667 0 16.25)"/>
        </g>
    </g>
</svg>
