<svg xmlns="http://www.w3.org/2000/svg" width="20" height="20" version="1.2">
    <g font-weight="400" style="fill:none;fill-rule:evenodd;stroke:#000;stroke-width:1;stroke-linecap:square;stroke-linejoin:bevel">
        <g style="font-style:normal;font-weight:400;font-size:22.67709923px;font-family:icomoon;fill:#ff0;fill-opacity:1;stroke:none">
            <path d="M2.637-24.375h24.726c.723 0 1.343.259 1.86.776.518.518.777 1.138.777 1.86V2.989c0 .723-.259 1.343-.776 1.86a2.538 2.538 0 0 1-1.86.777H2.636a2.538 2.538 0 0 1-1.86-.776A2.538 2.538 0 0 1 0 2.989v-24.727c0-.723.259-1.343.776-1.86a2.538 2.538 0 0 1 1.86-.777" font-size="22.677" style="vector-effect:none;fill-rule:nonzero" transform="matrix(.66667 0 0 .66667 0 16.25)"/>
        </g>
        <g style="font-style:normal;font-weight:400;font-size:17.00779915px;font-family:icomoon;fill:#000;fill-opacity:1;stroke:none">
            <path d="M20.979-18.014a1.3 1.3 0 0 1 .954.393 1.3 1.3 0 0 1 .393.955V2.291a1.3 1.3 0 0 1-.393.955 1.3 1.3 0 0 1-.955.393H2.021a1.3 1.3 0 0 1-.954-.393 1.3 1.3 0 0 1-.393-.955v-18.957a1.3 1.3 0 0 1 .393-.955 1.3 1.3 0 0 1 .954-.393h18.957m0-.674H2.021c-.554 0-1.029.199-1.426.596A1.946 1.946 0 0 0 0-16.666V2.291c0 .554.198 1.03.595 1.426.397.397.872.595 1.426.595h18.957c.555 0 1.03-.198 1.427-.595.397-.397.595-.872.595-1.426v-18.957c0-.554-.198-1.03-.595-1.426a1.946 1.946 0 0 0-1.426-.596M13.521-1.863a13.44 13.44 0 0 0 1.168-1.438l.044-.067a6.112 6.112 0 0 0 1-2.1c.202-.771.176-1.254-.079-1.449l-.157-.09h-.157a.51.51 0 0 0-.303.236c-.083.127-.206.333-.371.618-.18.374-.367.718-.561 1.033a19.52 19.52 0 0 1-.607.92l.022-.044a49.683 49.683 0 0 0-.584.853 2.282 2.282 0 0 0-.472-.876l1.281-3.773h.068c.344 0 .625-.202.842-.606.217-.405.325-.914.325-1.528s-.108-1.123-.325-1.527c-.217-.404-.498-.607-.842-.607a.738.738 0 0 0-.416.146c-.142.098-.243.311-.303.64-.015.15-.03.311-.045.483a6.082 6.082 0 0 0-.023.528v.629c0 .18.008.36.023.54l.045.538v-.045l-1.46 4.313a.976.976 0 0 0-.191.056 3.181 3.181 0 0 0-.169.079l-.247-6.222c.27-.195.48-.442.63-.741.149-.3.224-.63.224-.988v-.158c0-.569-.127-1.048-.382-1.437-.255-.39-.561-.584-.92-.584-.36 0-.667.194-.922.584-.254.39-.382.868-.382 1.437a.222.222 0 0 0-.022.101v.101c0 .36.082.69.247.989.165.3.374.546.629.74h.022l.27 6.582c-.105-.09-.21-.183-.315-.28-.104-.098-.21-.192-.314-.282-.434-.404-.869-.707-1.303-.91-.434-.201-.83-.1-1.19.304a.576.576 0 0 0-.135.213.75.75 0 0 0-.045.259v.09c.03.254.21.535.54.842.329.307.853.7 1.571 1.179.195.135.379.262.55.382.173.12.334.247.484.382l-.023-.023H4.065V.202h14.87v-2.044l-5.413-.022" font-size="17.008" style="vector-effect:none;fill-rule:nonzero" transform="matrix(.66667 0 0 .66667 2.333 14.792)"/>
        </g>
        <g style="font-style:normal;font-weight:400;font-size:22.67709923px;font-family:icomoon;fill:#000;fill-opacity:1;stroke:none">
            <path d="M26.426-22.236c.39 0 .727.141 1.01.425.284.283.425.62.425 1.01V2.051c0 .39-.141.727-.425 1.01a1.38 1.38 0 0 1-1.01.425H3.574a1.38 1.38 0 0 1-1.01-.424 1.38 1.38 0 0 1-.425-1.011v-22.852c0-.39.141-.727.424-1.01a1.38 1.38 0 0 1 1.011-.425h22.852m0-.703H3.574c-.586 0-1.089.21-1.509.63-.42.42-.63.922-.63 1.508V2.051c0 .586.21 1.089.63 1.509.42.42.923.63 1.51.63h22.85c.587 0 1.09-.21 1.51-.63.42-.42.63-.923.63-1.51V-20.8c0-.587-.21-1.09-.63-1.51-.42-.42-.923-.63-1.51-.63m1.436-.732c.391 0 .728.142 1.011.425.283.283.425.62.425 1.01V3.487c0 .39-.142.728-.425 1.011a1.38 1.38 0 0 1-1.01.425H2.138a1.38 1.38 0 0 1-1.011-.425 1.38 1.38 0 0 1-.425-1.01v-25.723c0-.391.142-.728.425-1.011a1.38 1.38 0 0 1 1.01-.425h25.723m0-.703H2.14c-.586 0-1.09.21-1.51.63-.419.42-.629.923-.629 1.509V3.486c0 .586.21 1.09.63 1.51.42.419.923.629 1.509.629H27.86c.586 0 1.09-.21 1.51-.63.419-.42.629-.923.629-1.509v-25.722c0-.586-.21-1.09-.63-1.51-.42-.419-.923-.629-1.509-.629" font-size="22.677" style="vector-effect:none;fill-rule:nonzero" transform="matrix(.66667 0 0 .66667 0 16.25)"/>
        </g>
    </g>
</svg>
