<svg xmlns="http://www.w3.org/2000/svg" width="20" height="20" version="1.2">
    <g font-weight="400" style="fill:none;fill-rule:evenodd;stroke:#000;stroke-width:1;stroke-linecap:square;stroke-linejoin:bevel">
        <g style="font-style:normal;font-weight:400;font-size:19.84250069px;font-family:icomoon;fill:#ff0;fill-opacity:1;stroke:none">
            <path d="M2.285-21.125h21.43a2.2 2.2 0 0 1 1.612.673A2.2 2.2 0 0 1 26-18.84V2.59a2.2 2.2 0 0 1-.673 1.612 2.2 2.2 0 0 1-1.612.673H2.285a2.2 2.2 0 0 1-1.612-.673A2.2 2.2 0 0 1 0 2.59v-21.43a2.2 2.2 0 0 1 .673-1.612 2.2 2.2 0 0 1 1.612-.673" font-size="19.843" style="vector-effect:none;fill-rule:nonzero" transform="matrix(.6923 0 0 .6923 1 15.625)"/>
        </g>
        <g style="font-style:normal;font-weight:400;font-size:17.00779915px;font-family:icomoon;fill:#000;fill-opacity:1;stroke:none">
            <path d="M20.979-18.014a1.3 1.3 0 0 1 .954.393 1.3 1.3 0 0 1 .393.955V2.291a1.3 1.3 0 0 1-.393.955 1.3 1.3 0 0 1-.955.393H2.021a1.3 1.3 0 0 1-.954-.393 1.3 1.3 0 0 1-.393-.955v-18.957a1.3 1.3 0 0 1 .393-.955 1.3 1.3 0 0 1 .954-.393h18.957m0-.674H2.021c-.554 0-1.029.199-1.426.596A1.946 1.946 0 0 0 0-16.666V2.291c0 .554.198 1.03.595 1.426.397.397.872.595 1.426.595h18.957c.555 0 1.03-.198 1.427-.595.397-.397.595-.872.595-1.426v-18.957c0-.554-.198-1.03-.595-1.426a1.946 1.946 0 0 0-1.426-.596m-.831 9.412a2.41 2.41 0 0 1-.337-.55 2.978 2.978 0 0 1-.203-.663 1.865 1.865 0 0 0-.348-.854 1.896 1.896 0 0 0-.685-.584h-.022a1.233 1.233 0 0 0-.292-.786c-.165-.225-.52-.378-1.067-.46-.547-.083-.97-.101-1.27-.057-.463.12-.898.289-1.302.506a5.04 5.04 0 0 0-1.1.797 3.537 3.537 0 0 0-.921-.55 3.551 3.551 0 0 0-1.079-.258H11.5c-.24 0-.464.04-.674.123-.21.082-.404.191-.584.326a3.196 3.196 0 0 0-.64-.169 4.44 4.44 0 0 0-.707-.056H8.85c-.914 0-1.599.184-2.056.55-.456.367-.722.708-.797 1.022-.27.105-.513.248-.73.427-.217.18-.408.382-.573.607v.022a1.71 1.71 0 0 0-.292.562H4.38c-.374.12-.719.3-1.033.539-.315.24-.472.576-.472 1.01v.18c0 .434.12.824.36 1.168.239.345.546.6.92.764.12.284.289.539.506.764.217.224.46.404.73.539h.022a2.385 2.385 0 0 0-.022.336v.36a9.625 9.625 0 0 0 .09 1.303v-.045c.014.104.086.27.213.494.127.224.266.337.415.337h1.505c.045-.105.083-.21.113-.315.03-.105.044-.217.044-.337a.37.37 0 0 0-.01-.09.37.37 0 0 1-.012-.09 3.778 3.778 0 0 0-.146-.303 10.46 10.46 0 0 1-.146-.28v.022-.112a1.036 1.036 0 0 1 .045-.292c.344-.06.666-.131.966-.214.3-.082.584-.175.853-.28l-.09.022c.42.105.865.187 1.337.247s.954.098 1.449.113c.12 0 .303-.004.55-.012.247-.007.415-.018.505-.033.015.314.075.614.18.898.105.285.24.547.404.786.075.09.142.157.202.202.06.045.15.068.27.068h.741c.18-.06.337-.236.472-.528a9.13 9.13 0 0 0 .427-1.202 7.698 7.698 0 0 1 1.64-2.605c.164-.225.302-.468.415-.73.112-.262.198-.536.258-.82v-.022h.18a1.777 1.777 0 0 1 .561.09c.06.03.124.052.191.067a1.14 1.14 0 0 0 .55-.022c.105-.03.203-.076.293-.135.18-.12.321-.274.426-.46.105-.188.158-.394.158-.619v-.045a1.179 1.179 0 0 0-.102-.37 1.39 1.39 0 0 0-.19-.303" font-size="17.008" style="vector-effect:none;fill-rule:nonzero" transform="matrix(.6923 0 0 .6923 2.038 14.976)"/>
        </g>
        <g style="font-style:normal;font-weight:400;font-size:19.84250069px;font-family:icomoon;fill:#000;fill-opacity:1;stroke:none">
            <path d="M23.943-20.44c.373 0 .694.136.965.407.271.27.406.592.406.965V2.818c0 .373-.135.694-.406.965-.27.271-.592.406-.965.406H2.057c-.373 0-.694-.135-.965-.406a1.318 1.318 0 0 1-.406-.965v-21.886c0-.373.135-.694.406-.965.27-.271.592-.407.965-.407h21.886m0-.685H2.057c-.576 0-1.063.199-1.46.597A1.986 1.986 0 0 0 0-19.068V2.818c0 .576.199 1.063.597 1.46.397.398.884.597 1.46.597h21.886c.576 0 1.063-.199 1.46-.597.398-.397.597-.884.597-1.46v-21.886c0-.576-.199-1.063-.597-1.46a1.986 1.986 0 0 0-1.46-.597" font-size="19.843" style="vector-effect:none;fill-rule:nonzero" transform="matrix(.6923 0 0 .6923 1 15.625)"/>
        </g>
    </g>
</svg>
