<svg xmlns="http://www.w3.org/2000/svg" width="20" height="20" version="1.2">
    <g font-weight="400" style="fill:none;fill-rule:evenodd;stroke:#000;stroke-width:1;stroke-linecap:square;stroke-linejoin:bevel">
        <g style="font-style:normal;font-weight:400;font-size:19.84250069px;font-family:icomoon;fill:#fff;fill-opacity:1;stroke:none">
            <path d="M2.285-21.125h21.43a2.2 2.2 0 0 1 1.612.673A2.2 2.2 0 0 1 26-18.84V2.59a2.2 2.2 0 0 1-.673 1.612 2.2 2.2 0 0 1-1.612.673H2.285a2.2 2.2 0 0 1-1.612-.673A2.2 2.2 0 0 1 0 2.59v-21.43a2.2 2.2 0 0 1 .673-1.612 2.2 2.2 0 0 1 1.612-.673" font-size="19.843" style="vector-effect:none;fill-rule:nonzero" transform="matrix(.6923 0 0 .6923 1 15.625)"/>
        </g>
        <g style="font-style:normal;font-weight:400;font-size:17.00779915px;font-family:icomoon;fill:#000;fill-opacity:1;stroke:none">
            <path d="M20.979-18.014a1.3 1.3 0 0 1 .954.393 1.3 1.3 0 0 1 .393.955V2.291a1.3 1.3 0 0 1-.393.955 1.3 1.3 0 0 1-.955.393H2.021a1.3 1.3 0 0 1-.954-.393 1.3 1.3 0 0 1-.393-.955v-18.957a1.3 1.3 0 0 1 .393-.955 1.3 1.3 0 0 1 .954-.393h18.957m0-.674H2.021c-.554 0-1.029.199-1.426.596A1.946 1.946 0 0 0 0-16.666V2.291c0 .554.198 1.03.595 1.426.397.397.872.595 1.426.595h18.957c.555 0 1.03-.198 1.427-.595.397-.397.595-.872.595-1.426v-18.957c0-.554-.198-1.03-.595-1.426a1.946 1.946 0 0 0-1.426-.596M19.36-5.3a2.048 2.048 0 0 1-.292-.494 1.447 1.447 0 0 1-.112-.561v-.023c0-.434-.142-.726-.427-.876a4.407 4.407 0 0 0-.943-.36l-.18-.044c-.33-.105-.509-.352-.539-.741l-.045-.584V-11.006c0-.135.045-.24.135-.314a.196.196 0 0 1 .101-.056.63.63 0 0 1 .124-.012h.056c.022 0 .048.008.078.023.3.075.588.277.865.606.277.33.543.524.797.584a.79.79 0 0 0 .517-.292.893.893 0 0 0 .202-.584v-.112.022a31.213 31.213 0 0 0-.707-2.1 25.154 25.154 0 0 0-.798-1.875l.068.157a.776.776 0 0 1-.146-.202.545.545 0 0 1-.056-.247.63.63 0 0 1 .01-.124c.008-.037.02-.078.034-.123v.022-.157c-.104-.09-.389-.011-.853.236-.464.247-.801.453-1.01.618-.585.479-1.128.988-1.63 1.527-.5.539-.961 1.115-1.38 1.73l-.045.044c-.69.914-1.43 1.228-2.224.944-.794-.285-1.505-.465-2.134-.54-.958-.12-1.894.057-2.807.528-.914.472-1.49 1.045-1.73 1.719-.12.33-.236.756-.348 1.28a17.57 17.57 0 0 1-.28 1.168c-.136.464-.274.872-.416 1.224-.143.352-.094 1.097.146 2.235.074.404.24.588.494.55.254-.037.284.071.09.326v.09a3.388 3.388 0 0 0 .36 1.55l-.024-.023c.135.045.274.082.416.112a2.12 2.12 0 0 0 .876 0c.142-.03.28-.067.416-.112h-.023c.03-.03.052-.06.067-.09a.25.25 0 0 0 .023-.112v-.011c0-.008-.008-.02-.023-.034a.948.948 0 0 0-.134-.258.614.614 0 0 0-.225-.191 2.233 2.233 0 0 1-.36-.247c-.149-.12-.097-.54.158-1.258.075-.24.31-.659.707-1.258.397-.599.948-.868 1.651-.809.105 0 .184.057.236.169.053.112.064.258.034.438-.075.539.176.977.752 1.314.577.337.873.513.888.528.224.09.28.318.168.685l-.168.55.078.101c.053.067.273.101.663.101h.022c.21 0 .393-.07.55-.213a.761.761 0 0 0 .259-.528 2.248 2.248 0 0 0-.292-.943 2.92 2.92 0 0 0-.607-.742h-.022c-.39-.344-.584-.606-.584-.786v-.382c.135-.074.262-.164.382-.27.12-.104.232-.209.337-.314v-.022a2.046 2.046 0 0 1 1.617-.809.223.223 0 0 1 .1-.022h.102c.3 0 .584.06.854.18.269.12.509.277.718.471.12.285.214.592.281.921.067.33.101.674.101 1.033 0 .195-.011.393-.034.596a4.345 4.345 0 0 1-.1.572v-.022c-.03.12-.057.243-.08.37a2.59 2.59 0 0 0 0 .82c.023.135.057.262.102.382l-.023-.022c.21.03.43.056.663.078.232.023.475.034.73.034h.022c.105 0 .199-.004.281-.011.083-.008.131-.026.146-.056.045-.21-.004-.375-.146-.495a1.596 1.596 0 0 1-.37-.471 4.397 4.397 0 0 1-.102-.562 5.33 5.33 0 0 1 .056-1.561 5.57 5.57 0 0 1 .248-.91v.023c.12-.27.27-.517.449-.741.18-.225.382-.427.606-.607a3.317 3.317 0 0 1 .54-.045.184.184 0 0 0 .056-.01.25.25 0 0 1 .078-.012c.12 0 .232.022.337.067.105.045.202.105.292.18.105.15.184.315.236.494.052.18.079.367.079.562v.157c-.03.195-.124.27-.281.225a2.59 2.59 0 0 0-.259-.068l.36 1.348c.165 0 .33-.008.494-.023.165-.015.322-.037.472-.067h-.023c.345-.135.49-.48.438-1.033-.052-.554-.13-.921-.236-1.1M4.964-5.549a2.608 2.608 0 0 1-.045-.472c0-.254.037-.49.112-.707.075-.217.187-.408.337-.573l.191.169c.127.112.146.393.056.842-.09.45-.21.681-.36.696-.149.015-.246.03-.291.045" font-size="17.008" style="vector-effect:none;fill-rule:nonzero" transform="matrix(.6923 0 0 .6923 2.038 14.976)"/>
        </g>
        <g style="font-style:normal;font-weight:400;font-size:19.84250069px;font-family:icomoon;fill:#000;fill-opacity:1;stroke:none">
            <path d="M23.943-20.44c.373 0 .694.136.965.407.271.27.406.592.406.965V2.818c0 .373-.135.694-.406.965-.27.271-.592.406-.965.406H2.057c-.373 0-.694-.135-.965-.406a1.318 1.318 0 0 1-.406-.965v-21.886c0-.373.135-.694.406-.965.27-.271.592-.407.965-.407h21.886m0-.685H2.057c-.576 0-1.063.199-1.46.597A1.986 1.986 0 0 0 0-19.068V2.818c0 .576.199 1.063.597 1.46.397.398.884.597 1.46.597h21.886c.576 0 1.063-.199 1.46-.597.398-.397.597-.884.597-1.46v-21.886c0-.576-.199-1.063-.597-1.46a1.986 1.986 0 0 0-1.46-.597" font-size="19.843" style="vector-effect:none;fill-rule:nonzero" transform="matrix(.6923 0 0 .6923 1 15.625)"/>
        </g>
    </g>
</svg>
