<?xml version="1.0" encoding="UTF-8" standalone="no"?>
<svg
   xmlns:dc="http://purl.org/dc/elements/1.1/"
   xmlns:cc="http://creativecommons.org/ns#"
   xmlns:rdf="http://www.w3.org/1999/02/22-rdf-syntax-ns#"
   xmlns:svg="http://www.w3.org/2000/svg"
   xmlns="http://www.w3.org/2000/svg"
   xmlns:sodipodi="http://sodipodi.sourceforge.net/DTD/sodipodi-0.dtd"
   xmlns:inkscape="http://www.inkscape.org/namespaces/inkscape"
   width="20"
   height="20"
   viewBox="0 0 20 20"
   version="1.2"
   id="svg52"
   sodipodi:docname="60203120234.svg"
   inkscape:version="0.92.4 (5da689c313, 2019-01-14)">
  <metadata
     id="metadata56">
    <rdf:RDF>
      <cc:Work
         rdf:about="">
        <dc:format>image/svg+xml</dc:format>
        <dc:type
           rdf:resource="http://purl.org/dc/dcmitype/StillImage" />
      </cc:Work>
    </rdf:RDF>
  </metadata>
  <sodipodi:namedview
     pagecolor="#ffffff"
     bordercolor="#666666"
     borderopacity="1"
     objecttolerance="10"
     gridtolerance="10"
     guidetolerance="10"
     inkscape:pageopacity="0"
     inkscape:pageshadow="2"
     inkscape:window-width="1920"
     inkscape:window-height="1017"
     id="namedview54"
     showgrid="false"
     inkscape:zoom="11.8"
     inkscape:cx="-5.2542373"
     inkscape:cy="10"
     inkscape:window-x="-8"
     inkscape:window-y="-8"
     inkscape:window-maximized="1"
     inkscape:current-layer="svg52" />
  <title
     id="title2">Qt SVG Document</title>
  <desc
     id="desc4">Generated with Qt</desc>
  <defs
     id="defs6" />
  <g
     id="g50"
     transform="matrix(0.65217391,0,0,0.65217391,-0.43478256,-0.43478256)"
     style="fill:none;fill-rule:evenodd;stroke:#000000;stroke-width:1;stroke-linecap:square;stroke-linejoin:bevel">
    <g
       transform="translate(16,16)"
       font-size="8.25"
       font-weight="400"
       font-style="normal"
       id="g8"
       style="font-style:normal;font-weight:400;font-size:8.25px;font-family:'MS Shell Dlg 2';fill:none;stroke:#000000;stroke-width:1;stroke-linecap:square;stroke-linejoin:bevel;stroke-opacity:1" />
    <g
       transform="matrix(1.33333,0,0,1.33333,16,16)"
       font-size="8.25"
       font-weight="400"
       font-style="normal"
       id="g10"
       style="font-style:normal;font-weight:400;font-size:8.25px;font-family:'MS Shell Dlg 2';fill:none;stroke:#000000;stroke-width:1;stroke-linecap:square;stroke-linejoin:bevel;stroke-opacity:1" />
    <g
       transform="translate(4.5,23.1875)"
       font-size="17.0078"
       font-weight="400"
       font-style="normal"
       id="g14"
       style="font-style:normal;font-weight:400;font-size:17.00779915px;font-family:icomoon;fill:#ffffff;fill-opacity:1;stroke:none">
      <path
         d="M 2.02148,-18.6875 H 20.9785 c 0.5541,0 1.0295,0.1984 1.4263,0.5952 C 22.8016,-17.6955 23,-17.2201 23,-16.666 V 2.29102 C 23,2.84505 22.8016,3.32048 22.4048,3.71729 22.008,4.1141 21.5326,4.3125 20.9785,4.3125 H 2.02148 C 1.46745,4.3125 0.992025,4.1141 0.595215,3.71729 0.198405,3.32048 0,2.84505 0,2.29102 V -16.666 c 0,-0.5541 0.198405,-1.0295 0.595215,-1.4263 0.39681,-0.3968 0.872235,-0.5952 1.426265,-0.5952"
         id="path12"
         inkscape:connector-curvature="0"
         style="vector-effect:none;fill-rule:nonzero" />
    </g>
    <g
       transform="matrix(1.33333,0,0,1.33333,16,16)"
       font-size="8.25"
       font-weight="400"
       font-style="normal"
       id="g16"
       style="font-style:normal;font-weight:400;font-size:8.25px;font-family:'MS Shell Dlg 2';fill:none;stroke:#000000;stroke-width:1;stroke-linecap:square;stroke-linejoin:bevel;stroke-opacity:1" />
    <g
       transform="translate(16,16)"
       font-size="8.25"
       font-weight="400"
       font-style="normal"
       id="g18"
       style="font-style:normal;font-weight:400;font-size:8.25px;font-family:'MS Shell Dlg 2';fill:none;stroke:#000000;stroke-width:1;stroke-linecap:square;stroke-linejoin:bevel;stroke-opacity:1" />
    <g
       font-size="8.25"
       font-weight="400"
       font-style="normal"
       id="g20"
       style="font-style:normal;font-weight:400;font-size:8.25px;font-family:'MS Shell Dlg 2';fill:none;stroke:#000000;stroke-width:1;stroke-linecap:square;stroke-linejoin:bevel;stroke-opacity:1" />
    <g
       transform="translate(16,16)"
       font-size="8.25"
       font-weight="400"
       font-style="normal"
       id="g22"
       style="font-style:normal;font-weight:400;font-size:8.25px;font-family:'MS Shell Dlg 2';fill:none;stroke:#000000;stroke-width:1;stroke-linecap:square;stroke-linejoin:bevel;stroke-opacity:1" />
    <g
       transform="matrix(1.33333,0,0,1.33333,16,16)"
       font-size="8.25"
       font-weight="400"
       font-style="normal"
       id="g24"
       style="font-style:normal;font-weight:400;font-size:8.25px;font-family:'MS Shell Dlg 2';fill:none;stroke:#000000;stroke-width:1;stroke-linecap:square;stroke-linejoin:bevel;stroke-opacity:1" />
    <g
       transform="translate(4.5,23.1875)"
       font-size="17.0078"
       font-weight="400"
       font-style="normal"
       id="g28"
       style="font-style:normal;font-weight:400;font-size:17.00779915px;font-family:icomoon;fill:#000000;fill-opacity:1;stroke:none">
      <path
         d="m 20.9785,-18.0137 c 0.3744,0 0.6926,0.1311 0.9546,0.3931 0.262,0.262 0.3931,0.5802 0.3931,0.9546 V 2.29102 c 0,0.37434 -0.1311,0.69254 -0.3931,0.95459 -0.262,0.26204 -0.5802,0.39306 -0.9546,0.39306 H 2.02148 C 1.64714,3.63867 1.32894,3.50765 1.06689,3.24561 0.80485,2.98356 0.673828,2.66536 0.673828,2.29102 V -16.666 c 0,-0.3744 0.131022,-0.6926 0.393062,-0.9546 0.26205,-0.262 0.58025,-0.3931 0.95459,-0.3931 H 20.9785 m 0,-0.6738 H 2.02148 c -0.55403,0 -1.029455,0.1984 -1.426265,0.5952 C 0.198405,-17.6955 0,-17.2201 0,-16.666 V 2.29102 C 0,2.84505 0.198405,3.32048 0.595215,3.71729 0.992025,4.1141 1.46745,4.3125 2.02148,4.3125 H 20.9785 c 0.5541,0 1.0295,-0.1984 1.4263,-0.59521 C 22.8016,3.32048 23,2.84505 23,2.29102 V -16.666 c 0,-0.5541 -0.1984,-1.0295 -0.5952,-1.4263 -0.3968,-0.3968 -0.8722,-0.5952 -1.4263,-0.5952 M 20.2373,-2.44824 V -4.8291 l -6.8955,-4.37988 v -5.07622 c 0,-0.0149 0,-0.0262 0,-0.0336 0,-0.0075 0,-0.0188 0,-0.0337 0,-0.4343 -0.1497,-0.8086 -0.4492,-1.1231 -0.2995,-0.3144 -0.6664,-0.4866 -1.1006,-0.5166 -0.4343,0.03 -0.8049,0.2022 -1.1118,0.5166 -0.307,0.3145 -0.4605,0.6888 -0.4605,1.1231 0,0.0149 0,0.0262 0,0.0337 0,0.0074 0,0.0187 0,0.0336 v 5.07622 L 3.32422,-4.8291 v 2.38086 L 10.2197,-4.49219 V -1.0332 L 8.87207,-0.202148 V 2.11133 L 11.792,0.24707 14.6895,2.08887 V -0.202148 L 13.3418,-1.05566 v -3.43653 l 6.8955,2.04395"
         id="path26"
         inkscape:connector-curvature="0"
         style="vector-effect:none;fill-rule:nonzero" />
    </g>
    <g
       transform="matrix(1.33333,0,0,1.33333,16,16)"
       font-size="8.25"
       font-weight="400"
       font-style="normal"
       id="g30"
       style="font-style:normal;font-weight:400;font-size:8.25px;font-family:'MS Shell Dlg 2';fill:none;stroke:#000000;stroke-width:1;stroke-linecap:square;stroke-linejoin:bevel;stroke-opacity:1" />
    <g
       transform="translate(16,16)"
       font-size="8.25"
       font-weight="400"
       font-style="normal"
       id="g32"
       style="font-style:normal;font-weight:400;font-size:8.25px;font-family:'MS Shell Dlg 2';fill:none;stroke:#000000;stroke-width:1;stroke-linecap:square;stroke-linejoin:bevel;stroke-opacity:1" />
    <g
       font-size="8.25"
       font-weight="400"
       font-style="normal"
       id="g34"
       style="font-style:normal;font-weight:400;font-size:8.25px;font-family:'MS Shell Dlg 2';fill:none;stroke:#000000;stroke-width:1;stroke-linecap:square;stroke-linejoin:bevel;stroke-opacity:1" />
    <g
       transform="translate(16,16)"
       font-size="8.25"
       font-weight="400"
       font-style="normal"
       id="g36"
       style="font-style:normal;font-weight:400;font-size:8.25px;font-family:'MS Shell Dlg 2';fill:none;stroke:#000000;stroke-width:1;stroke-linecap:square;stroke-linejoin:bevel;stroke-opacity:1" />
    <g
       transform="matrix(1.33333,0,0,1.33333,16,16)"
       font-size="8.25"
       font-weight="400"
       font-style="normal"
       id="g38"
       style="font-style:normal;font-weight:400;font-size:8.25px;font-family:'MS Shell Dlg 2';fill:none;stroke:#000000;stroke-width:1;stroke-linecap:square;stroke-linejoin:bevel;stroke-opacity:1" />
    <g
       transform="translate(5.5,22.5625)"
       font-size="15.874"
       font-weight="400"
       font-style="normal"
       id="g42"
       style="font-style:normal;font-weight:400;font-size:15.8739996px;font-family:icomoon;fill:#ff0000;fill-opacity:1;stroke:none">
      <path
         d="M 0.65625,3.9375 C 0.560547,3.9375 0.475098,3.92041 0.399902,3.88623 0.324707,3.85205 0.25293,3.80762 0.18457,3.75293 0.129883,3.68457 0.0854492,3.61279 0.0512695,3.5376 0.0170898,3.4624 0,3.37695 0,3.28125 0,3.18555 0.0170898,3.1001 0.0512695,3.0249 0.0854492,2.94971 0.129883,2.87793 0.18457,2.80957 L 19.8721,-16.8779 c 0.0683,-0.0547 0.1401,-0.0992 0.2153,-0.1333 0.0752,-0.0342 0.1606,-0.0513 0.2564,-0.0513 0.1777,0 0.3315,0.0649 0.4614,0.1948 0.1299,0.1299 0.1948,0.2837 0.1948,0.4614 0,0.0958 -0.0171,0.1812 -0.0513,0.2564 -0.0341,0.0752 -0.0786,0.147 -0.1333,0.2153 L 1.12793,3.75293 C 1.05957,3.80762 0.987793,3.85205 0.912598,3.88623 0.837402,3.92041 0.751953,3.9375 0.65625,3.9375"
         id="path40"
         inkscape:connector-curvature="0"
         style="vector-effect:none;fill-rule:nonzero" />
    </g>
    <g
       transform="matrix(1.33333,0,0,1.33333,16,16)"
       font-size="8.25"
       font-weight="400"
       font-style="normal"
       id="g44"
       style="font-style:normal;font-weight:400;font-size:8.25px;font-family:'MS Shell Dlg 2';fill:none;stroke:#000000;stroke-width:1;stroke-linecap:square;stroke-linejoin:bevel;stroke-opacity:1" />
    <g
       transform="translate(16,16)"
       font-size="8.25"
       font-weight="400"
       font-style="normal"
       id="g46"
       style="font-style:normal;font-weight:400;font-size:8.25px;font-family:'MS Shell Dlg 2';fill:none;stroke:#000000;stroke-width:1;stroke-linecap:square;stroke-linejoin:bevel;stroke-opacity:1" />
    <g
       font-size="8.25"
       font-weight="400"
       font-style="normal"
       id="g48"
       style="font-style:normal;font-weight:400;font-size:8.25px;font-family:'MS Shell Dlg 2';fill:none;stroke:#000000;stroke-width:1;stroke-linecap:square;stroke-linejoin:bevel;stroke-opacity:1" />
  </g>
</svg>
