<svg xmlns="http://www.w3.org/2000/svg" width="20" height="20" version="1.2">
    <g font-weight="400" style="fill:none;fill-rule:evenodd;stroke:#000;stroke-width:1;stroke-linecap:square;stroke-linejoin:bevel">
        <g style="font-style:normal;font-weight:400;font-size:17.00779915px;font-family:icomoon;fill:#fff;fill-opacity:1;stroke:none">
            <path d="M2.021-18.688h18.957c.555 0 1.03.199 1.427.596.397.396.595.872.595 1.426V2.291c0 .554-.198 1.03-.595 1.426a1.946 1.946 0 0 1-1.427.595H2.021c-.554 0-1.029-.198-1.426-.595A1.946 1.946 0 0 1 0 2.291v-18.957c0-.554.198-1.03.595-1.426a1.946 1.946 0 0 1 1.426-.596" font-size="17.008" style="vector-effect:none;fill-rule:nonzero" transform="matrix(.65217 0 0 .65217 2.5 14.687)"/>
        </g>
        <g style="font-style:normal;font-weight:400;font-size:17.00779915px;font-family:icomoon;fill:#000;fill-opacity:1;stroke:none">
            <path d="M20.979-18.014a1.3 1.3 0 0 1 .954.393 1.3 1.3 0 0 1 .393.955V2.291a1.3 1.3 0 0 1-.393.955 1.3 1.3 0 0 1-.955.393H2.021a1.3 1.3 0 0 1-.954-.393 1.3 1.3 0 0 1-.393-.955v-18.957a1.3 1.3 0 0 1 .393-.955 1.3 1.3 0 0 1 .954-.393h18.957m0-.674H2.021c-.554 0-1.029.199-1.426.596A1.946 1.946 0 0 0 0-16.666V2.291c0 .554.198 1.03.595 1.426.397.397.872.595 1.426.595h18.957c.555 0 1.03-.198 1.427-.595.397-.397.595-.872.595-1.426v-18.957c0-.554-.198-1.03-.595-1.426a1.946 1.946 0 0 0-1.426-.596m.494 15.903v-.292h-.09l-4.2-8.131v-2.403H12.51v-2.291h-2.022v2.29H5.817v2.36L2.021-3.078h-.067l-.022.292a.25.25 0 0 0-.023.112V-2.38c0 .045.008.09.023.135v-.023a.2.2 0 0 0-.023.09v.09c0 .629.12 1.213.36 1.752a4.58 4.58 0 0 0 .965 1.438 4.58 4.58 0 0 0 1.438.965c.539.24 1.123.36 1.752.36s1.213-.12 1.752-.36a4.58 4.58 0 0 0 1.437-.965 4.58 4.58 0 0 0 .966-1.438c.24-.539.36-1.123.36-1.752 0-.03-.004-.06-.012-.09a.373.373 0 0 1-.011-.09v-.516l-.09-.292h-.09l-4.245-8.22v-1.64h9.973v1.594l-3.818 8.266h-.068l-.045.292c0 .03-.004.067-.011.112a.965.965 0 0 0 0 .292c.007.045.011.09.011.135v-.023.18c0 .629.112 1.213.337 1.752.24.554.565 1.033.977 1.438a4.8 4.8 0 0 0 1.426.965c.554.24 1.138.36 1.752.36.63 0 1.213-.12 1.752-.36a4.58 4.58 0 0 0 1.438-.965 4.58 4.58 0 0 0 .966-1.438c.24-.539.359-1.123.359-1.752v-.18a3.236 3.236 0 0 1-.034-.28 2.182 2.182 0 0 0-.033-.259v.023M2.785-3.077l3.392-7.367 3.796 7.367H2.785m13.993-7.367 3.796 7.367h-7.187l3.391-7.367" font-size="17.008" style="vector-effect:none;fill-rule:nonzero" transform="matrix(.65217 0 0 .65217 2.5 14.687)"/>
        </g>
        <g style="font-style:normal;font-weight:400;font-size:15.8739996px;font-family:icomoon;fill:red;fill-opacity:1;stroke:none">
            <path d="M.656 3.938A.613.613 0 0 1 .4 3.885a1.02 1.02 0 0 1-.215-.133 1.02 1.02 0 0 1-.134-.215A.613.613 0 0 1 0 3.28c0-.095.017-.18.051-.256a1.02 1.02 0 0 1 .134-.215l19.687-19.688c.068-.055.14-.1.215-.133a.613.613 0 0 1 .257-.051.63.63 0 0 1 .461.194.63.63 0 0 1 .195.462.613.613 0 0 1-.051.256 1.014 1.014 0 0 1-.134.215L1.128 3.753c-.068.055-.14.1-.215.133a.613.613 0 0 1-.257.051" font-size="15.874" style="vector-effect:none;fill-rule:nonzero" transform="matrix(.65217 0 0 .65217 3.152 14.28)"/>
        </g>
    </g>
</svg>
