<svg xmlns="http://www.w3.org/2000/svg" width="20" height="20" version="1.2">
    <g font-weight="400" style="fill:none;fill-rule:evenodd;stroke:#000;stroke-width:1;stroke-linecap:square;stroke-linejoin:bevel">
        <g style="font-style:normal;font-weight:400;font-size:19.84250069px;font-family:icomoon;fill:#ff0;fill-opacity:1;stroke:none">
            <path d="M2.285-21.125h21.43a2.2 2.2 0 0 1 1.612.673A2.2 2.2 0 0 1 26-18.84V2.59a2.2 2.2 0 0 1-.673 1.612 2.2 2.2 0 0 1-1.612.673H2.285a2.2 2.2 0 0 1-1.612-.673A2.2 2.2 0 0 1 0 2.59v-21.43a2.2 2.2 0 0 1 .673-1.612 2.2 2.2 0 0 1 1.612-.673" font-size="19.843" style="vector-effect:none;fill-rule:nonzero" transform="matrix(.6923 0 0 .6923 1 15.625)"/>
        </g>
        <g style="font-style:normal;font-weight:400;font-size:17.00779915px;font-family:icomoon;fill:#000;fill-opacity:1;stroke:none">
            <path d="M20.979-18.014a1.3 1.3 0 0 1 .954.393 1.3 1.3 0 0 1 .393.955V2.291a1.3 1.3 0 0 1-.393.955 1.3 1.3 0 0 1-.955.393H2.021a1.3 1.3 0 0 1-.954-.393 1.3 1.3 0 0 1-.393-.955v-18.957a1.3 1.3 0 0 1 .393-.955 1.3 1.3 0 0 1 .954-.393h18.957m0-.674H2.021c-.554 0-1.029.199-1.426.596A1.946 1.946 0 0 0 0-16.666V2.291c0 .554.198 1.03.595 1.426.397.397.872.595 1.426.595h18.957c.555 0 1.03-.198 1.427-.595.397-.397.595-.872.595-1.426v-18.957c0-.554-.198-1.03-.595-1.426a1.946 1.946 0 0 0-1.426-.596M13.207-6.94v-.495a8.837 8.837 0 0 0 2.415-.82 9.042 9.042 0 0 0 2.01-1.403 7.118 7.118 0 0 0 1.37-1.954c.344-.704.595-1.363.752-1.977.158-.614.251-1.13.281-1.55l.068-.606-.63.045c-.419.03-.935.127-1.55.292a12.1 12.1 0 0 0-1.976.741 6.598 6.598 0 0 0-1.931 1.393 9.151 9.151 0 0 0-1.404 1.999 9.309 9.309 0 0 0-.842 2.358v.045h-.472a9.185 9.185 0 0 0-.854-2.392 9.34 9.34 0 0 0-1.415-2.01 6.895 6.895 0 0 0-1.954-1.393 12.101 12.101 0 0 0-1.976-.741c-.614-.165-1.13-.262-1.55-.292l-.607-.045.045.606c.03.42.124.936.281 1.55.157.614.4 1.273.73 1.977a7.297 7.297 0 0 0 1.415 1.954 9.149 9.149 0 0 0 2 1.404c.733.381 1.519.655 2.358.82h.044v.494a8.859 8.859 0 0 0-2.392.82 9.043 9.043 0 0 0-2.01 1.403 6.896 6.896 0 0 0-1.392 1.954c-.33.719-.577 1.385-.742 2-.164.613-.262 1.13-.292 1.55l-.045.628.607-.067c.42-.03.94-.124 1.56-.281A10.322 10.322 0 0 0 7.099.314a6.696 6.696 0 0 0 1.954-1.37 9.045 9.045 0 0 0 1.404-2.01 9.548 9.548 0 0 0 .842-2.347v-.067h.471a8.61 8.61 0 0 0 .832 2.414c.389.741.86 1.411 1.415 2.01A6.697 6.697 0 0 0 15.97.314c.703.345 1.366.596 1.987.753.622.157 1.142.25 1.562.28l.606.068-.045-.629c-.03-.42-.127-.936-.292-1.55a12.101 12.101 0 0 0-.741-1.976 6.6 6.6 0 0 0-1.393-1.932 8.936 8.936 0 0 0-2.01-1.437 8.653 8.653 0 0 0-2.37-.831h-.067" font-size="17.008" style="vector-effect:none;fill-rule:nonzero" transform="matrix(.6923 0 0 .6923 2.038 14.976)"/>
        </g>
        <g style="font-style:normal;font-weight:400;font-size:19.84250069px;font-family:icomoon;fill:#000;fill-opacity:1;stroke:none">
            <path d="M23.943-20.44c.373 0 .694.136.965.407.271.27.406.592.406.965V2.818c0 .373-.135.694-.406.965-.27.271-.592.406-.965.406H2.057c-.373 0-.694-.135-.965-.406a1.318 1.318 0 0 1-.406-.965v-21.886c0-.373.135-.694.406-.965.27-.271.592-.407.965-.407h21.886m0-.685H2.057c-.576 0-1.063.199-1.46.597A1.986 1.986 0 0 0 0-19.068V2.818c0 .576.199 1.063.597 1.46.397.398.884.597 1.46.597h21.886c.576 0 1.063-.199 1.46-.597.398-.397.597-.884.597-1.46v-21.886c0-.576-.199-1.063-.597-1.46a1.986 1.986 0 0 0-1.46-.597" font-size="19.843" style="vector-effect:none;fill-rule:nonzero" transform="matrix(.6923 0 0 .6923 1 15.625)"/>
        </g>
    </g>
</svg>
