<svg xmlns="http://www.w3.org/2000/svg" width="20" height="20" version="1.2">
    <g font-weight="400" style="fill:none;fill-rule:evenodd;stroke:#000;stroke-width:1;stroke-linecap:square;stroke-linejoin:bevel">
        <g style="font-style:normal;font-weight:400;font-size:19.84250069px;font-family:icomoon;fill:red;fill-opacity:1;stroke:none">
            <path d="M2.285-21.125h21.43a2.2 2.2 0 0 1 1.612.673A2.2 2.2 0 0 1 26-18.84V2.59a2.2 2.2 0 0 1-.673 1.612 2.2 2.2 0 0 1-1.612.673H2.285a2.2 2.2 0 0 1-1.612-.673A2.2 2.2 0 0 1 0 2.59v-21.43a2.2 2.2 0 0 1 .673-1.612 2.2 2.2 0 0 1 1.612-.673" font-size="19.843" style="vector-effect:none;fill-rule:nonzero" transform="matrix(.6923 0 0 .6923 1 15.625)"/>
        </g>
        <g style="font-style:normal;font-weight:400;font-size:17.00779915px;font-family:icomoon;fill:#000;fill-opacity:1;stroke:none">
            <path d="M20.979-18.014a1.3 1.3 0 0 1 .954.393 1.3 1.3 0 0 1 .393.955V2.291a1.3 1.3 0 0 1-.393.955 1.3 1.3 0 0 1-.955.393H2.021a1.3 1.3 0 0 1-.954-.393 1.3 1.3 0 0 1-.393-.955v-18.957a1.3 1.3 0 0 1 .393-.955 1.3 1.3 0 0 1 .954-.393h18.957m0-.674H2.021c-.554 0-1.029.199-1.426.596A1.946 1.946 0 0 0 0-16.666V2.291c0 .554.198 1.03.595 1.426.397.397.872.595 1.426.595h18.957c.555 0 1.03-.198 1.427-.595.397-.397.595-.872.595-1.426v-18.957c0-.554-.198-1.03-.595-1.426a1.946 1.946 0 0 0-1.426-.596m-3.55 2.875v1.64l3.078 3.01-1.617 1.73a.28.28 0 0 1-.124.067.534.534 0 0 1-.303 0 .567.567 0 0 1-.135-.068c-.15-.12-.33-.254-.539-.404-.21-.15-.307-.225-.292-.225.03 0-.116.154-.438.461l-.483.46-2.92-2.74 3.774-3.93m-4.492 4.716 3.054 2.808.09 8.535h-2.224v-5.143H8.445L6.222-2.448V.359H4.29l-.135-5.413.517-.674-.068-3.414-1.729-1.527v-.045c0-.105.019-.202.056-.292.038-.09.079-.172.124-.247a.577.577 0 0 1 .213-.135.751.751 0 0 1 .258-.045h.045l1.73 1.55 6.401-.202a1.932 1.932 0 0 0 1.213-.988l.022-.023" font-size="17.008" style="vector-effect:none;fill-rule:nonzero" transform="matrix(.6923 0 0 .6923 2.038 14.976)"/>
        </g>
        <g style="font-style:normal;font-weight:400;font-size:19.84250069px;font-family:icomoon;fill:#000;fill-opacity:1;stroke:none">
            <path d="M23.943-20.44c.373 0 .694.136.965.407.271.27.406.592.406.965V2.818c0 .373-.135.694-.406.965-.27.271-.592.406-.965.406H2.057c-.373 0-.694-.135-.965-.406a1.318 1.318 0 0 1-.406-.965v-21.886c0-.373.135-.694.406-.965.27-.271.592-.407.965-.407h21.886m0-.685H2.057c-.576 0-1.063.199-1.46.597A1.986 1.986 0 0 0 0-19.068V2.818c0 .576.199 1.063.597 1.46.397.398.884.597 1.46.597h21.886c.576 0 1.063-.199 1.46-.597.398-.397.597-.884.597-1.46v-21.886c0-.576-.199-1.063-.597-1.46a1.986 1.986 0 0 0-1.46-.597" font-size="19.843" style="vector-effect:none;fill-rule:nonzero" transform="matrix(.6923 0 0 .6923 1 15.625)"/>
        </g>
    </g>
</svg>
