<?xml version="1.0" encoding="UTF-8" standalone="no"?>
<svg
   xmlns:dc="http://purl.org/dc/elements/1.1/"
   xmlns:cc="http://creativecommons.org/ns#"
   xmlns:rdf="http://www.w3.org/1999/02/22-rdf-syntax-ns#"
   xmlns:svg="http://www.w3.org/2000/svg"
   xmlns="http://www.w3.org/2000/svg"
   xmlns:sodipodi="http://sodipodi.sourceforge.net/DTD/sodipodi-0.dtd"
   xmlns:inkscape="http://www.inkscape.org/namespaces/inkscape"
   width="20"
   height="20"
   viewBox="0 0 20 20"
   version="1.2"
   id="svg52"
   sodipodi:docname="60201010423.svg"
   inkscape:version="0.92.4 (5da689c313, 2019-01-14)">
  <metadata
     id="metadata56">
    <rdf:RDF>
      <cc:Work
         rdf:about="">
        <dc:format>image/svg+xml</dc:format>
        <dc:type
           rdf:resource="http://purl.org/dc/dcmitype/StillImage" />
      </cc:Work>
    </rdf:RDF>
  </metadata>
  <sodipodi:namedview
     pagecolor="#ffffff"
     bordercolor="#666666"
     borderopacity="1"
     objecttolerance="10"
     gridtolerance="10"
     guidetolerance="10"
     inkscape:pageopacity="0"
     inkscape:pageshadow="2"
     inkscape:window-width="1920"
     inkscape:window-height="1017"
     id="namedview54"
     showgrid="false"
     inkscape:zoom="23.6"
     inkscape:cx="-0.81157214"
     inkscape:cy="10.721764"
     inkscape:window-x="-8"
     inkscape:window-y="-8"
     inkscape:window-maximized="1"
     inkscape:current-layer="g50" />
  <title
     id="title2">Qt SVG Document</title>
  <desc
     id="desc4">Generated with Qt</desc>
  <defs
     id="defs6" />
  <g
     id="g50"
     transform="matrix(1.4230769,0,0,1.4230769,-1.2692308,-12.269231)"
     style="fill:none;fill-rule:evenodd;stroke:#000000;stroke-width:1;stroke-linecap:square;stroke-linejoin:bevel">
    <g
       transform="translate(16,16)"
       font-size="8.25"
       font-weight="400"
       font-style="normal"
       id="g8"
       style="font-style:normal;font-weight:400;font-size:8.25px;font-family:'MS Shell Dlg 2';fill:none;stroke:#000000;stroke-width:1;stroke-linecap:square;stroke-linejoin:bevel;stroke-opacity:1" />
    <g
       transform="matrix(1.33333,0,0,1.33333,16,16)"
       font-size="8.25"
       font-weight="400"
       font-style="normal"
       id="g10"
       style="font-style:normal;font-weight:400;font-size:8.25px;font-family:'MS Shell Dlg 2';fill:none;stroke:#000000;stroke-width:1;stroke-linecap:square;stroke-linejoin:bevel;stroke-opacity:1" />
    <g
       transform="matrix(1.33333,0,0,1.33333,16,16)"
       font-size="8.25"
       font-weight="400"
       font-style="normal"
       id="g16"
       style="font-style:normal;font-weight:400;font-size:8.25px;font-family:'MS Shell Dlg 2';fill:none;stroke:#000000;stroke-width:1;stroke-linecap:square;stroke-linejoin:bevel;stroke-opacity:1" />
    <g
       transform="translate(16,16)"
       font-size="8.25"
       font-weight="400"
       font-style="normal"
       id="g18"
       style="font-style:normal;font-weight:400;font-size:8.25px;font-family:'MS Shell Dlg 2';fill:none;stroke:#000000;stroke-width:1;stroke-linecap:square;stroke-linejoin:bevel;stroke-opacity:1" />
    <g
       font-size="8.25"
       font-weight="400"
       font-style="normal"
       id="g20"
       style="font-style:normal;font-weight:400;font-size:8.25px;font-family:'MS Shell Dlg 2';fill:none;stroke:#000000;stroke-width:1;stroke-linecap:square;stroke-linejoin:bevel;stroke-opacity:1" />
    <g
       transform="translate(16,16)"
       font-size="8.25"
       font-weight="400"
       font-style="normal"
       id="g22"
       style="font-style:normal;font-weight:400;font-size:8.25px;font-family:'MS Shell Dlg 2';fill:none;stroke:#000000;stroke-width:1;stroke-linecap:square;stroke-linejoin:bevel;stroke-opacity:1" />
    <g
       transform="matrix(1.33333,0,0,1.33333,16,16)"
       font-size="8.25"
       font-weight="400"
       font-style="normal"
       id="g24"
       style="font-style:normal;font-weight:400;font-size:8.25px;font-family:'MS Shell Dlg 2';fill:none;stroke:#000000;stroke-width:1;stroke-linecap:square;stroke-linejoin:bevel;stroke-opacity:1" />
    <g
       transform="matrix(1.33333,0,0,1.33333,16,16)"
       font-size="8.25"
       font-weight="400"
       font-style="normal"
       id="g30"
       style="font-style:normal;font-weight:400;font-size:8.25px;font-family:'MS Shell Dlg 2';fill:none;stroke:#000000;stroke-width:1;stroke-linecap:square;stroke-linejoin:bevel;stroke-opacity:1" />
    <g
       transform="translate(16,16)"
       font-size="8.25"
       font-weight="400"
       font-style="normal"
       id="g32"
       style="font-style:normal;font-weight:400;font-size:8.25px;font-family:'MS Shell Dlg 2';fill:none;stroke:#000000;stroke-width:1;stroke-linecap:square;stroke-linejoin:bevel;stroke-opacity:1" />
    <g
       font-size="8.25"
       font-weight="400"
       font-style="normal"
       id="g34"
       style="font-style:normal;font-weight:400;font-size:8.25px;font-family:'MS Shell Dlg 2';fill:none;stroke:#000000;stroke-width:1;stroke-linecap:square;stroke-linejoin:bevel;stroke-opacity:1" />
    <g
       transform="translate(16,16)"
       font-size="8.25"
       font-weight="400"
       font-style="normal"
       id="g36"
       style="font-style:normal;font-weight:400;font-size:8.25px;font-family:'MS Shell Dlg 2';fill:none;stroke:#000000;stroke-width:1;stroke-linecap:square;stroke-linejoin:bevel;stroke-opacity:1" />
    <g
       transform="matrix(1.33333,0,0,1.33333,16,16)"
       font-size="8.25"
       font-weight="400"
       font-style="normal"
       id="g38"
       style="font-style:normal;font-weight:400;font-size:8.25px;font-family:'MS Shell Dlg 2';fill:none;stroke:#000000;stroke-width:1;stroke-linecap:square;stroke-linejoin:bevel;stroke-opacity:1" />
    <g
       id="g841"
       transform="translate(-0.03573053,-0.02977439)">
      <path
         d="M 2.7420247,9.3540989 H 13.167255 c 0.304687,0 0.566173,0.1091189 0.784362,0.3273568 0.218238,0.2181891 0.327357,0.4796753 0.327357,0.7843623 v 10.42523 c 0,0.304692 -0.109119,0.566144 -0.327357,0.784367 -0.218189,0.218223 -0.479675,0.327333 -0.784362,0.327333 H 2.7420247 c -0.3046914,0 -0.5661438,-0.10911 -0.7843661,-0.327333 C 1.7394363,21.457192 1.6303252,21.19574 1.6303252,20.891048 v -10.42523 c 0,-0.304687 0.1091111,-0.5661732 0.3273334,-0.7843623 C 2.1758809,9.4632178 2.4373333,9.3540989 2.7420247,9.3540989"
         id="path12"
         inkscape:connector-curvature="0"
         style="font-style:normal;font-weight:400;font-size:19.84250069px;font-family:icomoon;vector-effect:none;fill:#ffff00;fill-opacity:1;fill-rule:nonzero;stroke:none;stroke-width:0.48648649" />
      <path
         d="m 12.565812,10.411623 c 0.18214,0 0.33694,0.06378 0.4644,0.191238 0.127459,0.12746 0.191238,0.28226 0.191238,0.4644 v 9.222334 c 0,0.182112 -0.06378,0.336912 -0.191238,0.464395 -0.12746,0.127479 -0.28226,0.191219 -0.4644,0.191219 H 3.3434776 c -0.1821113,0 -0.3369113,-0.06374 -0.4643951,-0.191219 C 2.7516036,20.626507 2.6878631,20.471707 2.6878631,20.289595 v -9.222334 c 0,-0.18214 0.063741,-0.33694 0.1912194,-0.4644 0.1274838,-0.127459 0.2822838,-0.191238 0.4643951,-0.191238 h 9.2223344 m 0,-0.327794 H 3.3434776 c -0.2695281,0 -0.5008159,0.09652 -0.6938586,0.289556 -0.1930427,0.193038 -0.2895641,0.424314 -0.2895641,0.693876 v 9.222334 c 0,0.269528 0.096521,0.500819 0.2895641,0.693861 0.1930427,0.193043 0.4243305,0.289562 0.6938586,0.289562 h 9.2223344 c 0.269562,0 0.500838,-0.09652 0.693875,-0.289562 0.193038,-0.193042 0.289557,-0.424333 0.289557,-0.693861 v -9.222334 c 0,-0.269562 -0.09652,-0.500838 -0.289557,-0.693876 -0.193037,-0.193037 -0.424313,-0.289556 -0.693875,-0.289556 M 7.9546495,17.536004 7.7907522,17.448587 5.0043765,15.896963 H 4.8951068 v 1.977777 h 5.5945752 v -1.748311 l -2.5350325,1.409575 m -0.065578,-2.371145 c -0.014546,0 -0.029141,0 -0.043686,0 -0.014595,0 -0.029141,0 -0.043735,0 -0.1966378,0 -0.369681,-0.06374 -0.5189838,-0.191223 -0.1493562,-0.127479 -0.2349535,-0.289567 -0.2568064,-0.486248 0.021853,-0.196667 0.1074502,-0.358765 0.2568064,-0.486273 0.1493028,-0.127459 0.322346,-0.191189 0.5189838,-0.191189 0.014595,0 0.029141,0 0.043735,0 0.014546,0 0.02914,0 0.043686,0 0.0073,0 0.014595,0 0.021892,0 0.00725,0 0.018195,0 0.032741,0 0.1748432,0 0.3314919,0.04733 0.4698973,0.142054 0.1384054,0.09467 0.240373,0.21853 0.3059513,0.371501 v 0.01093 c 0.00725,-0.0073 0.014546,-0.01093 0.021843,-0.01093 0.0073,0 0.014546,0 0.021843,0 0.0073,0 0.014595,0 0.021843,0 0.0073,0 0.014595,0.0036 0.021892,0.01093 l 2.4476109,0.983428 1.420492,-0.797668 -4.7204273,-2.622473 -4.7204368,2.6334 4.7204368,2.633395 2.9284053,-1.649968 -2.1635026,-0.874158 c -0.065578,0.152976 -0.1675459,0.278635 -0.3059513,0.376979 -0.1384054,0.09834 -0.2987027,0.147517 -0.4807946,0.147517 -0.0073,0 -0.014595,0 -0.021843,0 -0.0073,0 -0.018243,0 -0.032789,0 h 0.010897 m 3.5512535,0.983423 v -0.633761 c 0,-0.0073 0,-0.01275 0,-0.01639 0,-0.0036 0,-0.0091 0,-0.01639 0,0 0,-0.0036 0,-0.01093 0,-0.0073 0,-0.01093 0,-0.01093 -0.0072,-0.02185 -0.01999,-0.04189 -0.03824,-0.0601 -0.01819,-0.01821 -0.03824,-0.03096 -0.06008,-0.03825 l -0.09837,-0.04371 -0.371481,0.207613 0.229475,0.09834 v 0.524491 c -0.05103,0.02914 -0.09107,0.06738 -0.12021,0.114733 -0.02914,0.04735 -0.04374,0.103806 -0.04374,0.169365 v 2.698957 c 0,0.08742 0.03279,0.163904 0.09837,0.229466 0.06558,0.06556 0.142054,0.09834 0.229476,0.09834 0.08742,0 0.163897,-0.03278 0.229427,-0.09834 0.06558,-0.06556 0.09837,-0.14205 0.09837,-0.229466 V 16.43238 c 0,-0.05828 -0.01459,-0.112909 -0.04373,-0.163902 -0.02909,-0.05099 -0.06553,-0.09106 -0.109265,-0.120196"
         id="path26"
         inkscape:connector-curvature="0"
         style="font-style:normal;font-weight:400;font-size:17.00779915px;font-family:icomoon;vector-effect:none;fill:#000000;fill-opacity:1;fill-rule:nonzero;stroke:none;stroke-width:0.48648649" />
      <path
         d="m 13.278466,9.6875854 c 0.181167,0 0.337621,0.065919 0.469362,0.1976594 0.131741,0.1317402 0.197659,0.2881942 0.197659,0.4693622 V 21.00222 c 0,0.181168 -0.06592,0.337627 -0.197659,0.469382 -0.131741,0.13176 -0.288195,0.197635 -0.469362,0.197635 H 2.6308528 c -0.1811676,0 -0.3376265,-0.06587 -0.4693817,-0.197635 C 2.0297131,21.339847 1.9638346,21.183388 1.9638346,21.00222 V 10.354607 c 0,-0.181168 0.065878,-0.337622 0.1976365,-0.4693622 C 2.2932263,9.7535043 2.4496852,9.6875854 2.6308528,9.6875854 H 13.278466 m 0,-0.3334865 H 2.6308528 c -0.2799827,0 -0.5167333,0.096762 -0.7102508,0.2902865 C 1.727084,9.8379097 1.6303252,10.074634 1.6303252,10.354607 V 21.00222 c 0,0.279983 0.096759,0.516731 0.2902768,0.710251 0.1935175,0.193519 0.4302681,0.290277 0.7102508,0.290277 H 13.278466 c 0.279973,0 0.516697,-0.09676 0.710221,-0.290277 0.193525,-0.19352 0.290287,-0.430268 0.290287,-0.710251 V 10.354607 c 0,-0.279973 -0.09676,-0.5166973 -0.290287,-0.7102216 C 13.795163,9.4508611 13.558439,9.3540989 13.278466,9.3540989"
         id="path40"
         inkscape:connector-curvature="0"
         style="font-style:normal;font-weight:400;font-size:19.84250069px;font-family:icomoon;vector-effect:none;fill:#000000;fill-opacity:1;fill-rule:nonzero;stroke:none;stroke-width:0.48648649" />
    </g>
    <g
       transform="matrix(1.33333,0,0,1.33333,16,16)"
       font-size="8.25"
       font-weight="400"
       font-style="normal"
       id="g44"
       style="font-style:normal;font-weight:400;font-size:8.25px;font-family:'MS Shell Dlg 2';fill:none;stroke:#000000;stroke-width:1;stroke-linecap:square;stroke-linejoin:bevel;stroke-opacity:1" />
    <g
       transform="translate(16,16)"
       font-size="8.25"
       font-weight="400"
       font-style="normal"
       id="g46"
       style="font-style:normal;font-weight:400;font-size:8.25px;font-family:'MS Shell Dlg 2';fill:none;stroke:#000000;stroke-width:1;stroke-linecap:square;stroke-linejoin:bevel;stroke-opacity:1" />
    <g
       font-size="8.25"
       font-weight="400"
       font-style="normal"
       id="g48"
       style="font-style:normal;font-weight:400;font-size:8.25px;font-family:'MS Shell Dlg 2';fill:none;stroke:#000000;stroke-width:1;stroke-linecap:square;stroke-linejoin:bevel;stroke-opacity:1" />
  </g>
</svg>
