<?xml version="1.0" encoding="UTF-8" standalone="no"?>
<svg
   xmlns:dc="http://purl.org/dc/elements/1.1/"
   xmlns:cc="http://creativecommons.org/ns#"
   xmlns:rdf="http://www.w3.org/1999/02/22-rdf-syntax-ns#"
   xmlns:svg="http://www.w3.org/2000/svg"
   xmlns="http://www.w3.org/2000/svg"
   xmlns:sodipodi="http://sodipodi.sourceforge.net/DTD/sodipodi-0.dtd"
   xmlns:inkscape="http://www.inkscape.org/namespaces/inkscape"
   width="20"
   height="20"
   viewBox="0 0 20 20"
   version="1.2"
   id="svg52"
   sodipodi:docname="60201010122.svg"
   inkscape:version="0.92.4 (5da689c313, 2019-01-14)">
  <metadata
     id="metadata56">
    <rdf:RDF>
      <cc:Work
         rdf:about="">
        <dc:format>image/svg+xml</dc:format>
        <dc:type
           rdf:resource="http://purl.org/dc/dcmitype/StillImage" />
      </cc:Work>
    </rdf:RDF>
  </metadata>
  <sodipodi:namedview
     pagecolor="#ffffff"
     bordercolor="#666666"
     borderopacity="1"
     objecttolerance="10"
     gridtolerance="10"
     guidetolerance="10"
     inkscape:pageopacity="0"
     inkscape:pageshadow="2"
     inkscape:window-width="1920"
     inkscape:window-height="1017"
     id="namedview54"
     showgrid="false"
     inkscape:zoom="11.8"
     inkscape:cx="-8.2433826"
     inkscape:cy="5.7528961"
     inkscape:window-x="-8"
     inkscape:window-y="-8"
     inkscape:window-maximized="1"
     inkscape:current-layer="svg52">
    <inkscape:grid
       type="xygrid"
       id="grid866" />
  </sodipodi:namedview>
  <title
     id="title2">Qt SVG Document</title>
  <desc
     id="desc4">Generated with Qt</desc>
  <defs
     id="defs6" />
  <g
     id="g50"
     transform="matrix(0.69230769,0,0,0.71101874,-1.076923,-1.3762998)"
     style="fill:none;fill-rule:evenodd;stroke:#000000;stroke-width:1;stroke-linecap:square;stroke-linejoin:bevel">
    <g
       transform="translate(16,16)"
       font-size="8.25"
       font-weight="400"
       font-style="normal"
       id="g8"
       style="font-style:normal;font-weight:400;font-size:8.25px;font-family:'MS Shell Dlg 2';fill:none;stroke:#000000;stroke-width:1;stroke-linecap:square;stroke-linejoin:bevel;stroke-opacity:1" />
    <g
       transform="matrix(1.33333,0,0,1.33333,16,16)"
       font-size="8.25"
       font-weight="400"
       font-style="normal"
       id="g10"
       style="font-style:normal;font-weight:400;font-size:8.25px;font-family:'MS Shell Dlg 2';fill:none;stroke:#000000;stroke-width:1;stroke-linecap:square;stroke-linejoin:bevel;stroke-opacity:1" />
    <g
       transform="translate(3,24.125)"
       font-size="19.8425"
       font-weight="400"
       font-style="normal"
       id="g14"
       style="font-style:normal;font-weight:400;font-size:19.84250069px;font-family:icomoon;fill:#ff0000;fill-opacity:1;stroke:none">
      <path
         d="M 2.28516,-21.125 H 23.7148 c 0.6263,0 1.1638,0.2243 1.6123,0.6729 0.4486,0.4485 0.6729,0.986 0.6729,1.6123 V 2.58984 C 26,3.21615 25.7757,3.75358 25.3271,4.20215 24.8786,4.65072 24.3411,4.875 23.7148,4.875 H 2.28516 C 1.65885,4.875 1.12142,4.65072 0.672852,4.20215 0.224284,3.75358 0,3.21615 0,2.58984 V -18.8398 c 0,-0.6263 0.224284,-1.1638 0.672852,-1.6123 0.448568,-0.4486 0.985998,-0.6729 1.612308,-0.6729"
         id="path12"
         inkscape:connector-curvature="0"
         style="vector-effect:none;fill-rule:nonzero" />
    </g>
    <g
       transform="matrix(1.33333,0,0,1.33333,16,16)"
       font-size="8.25"
       font-weight="400"
       font-style="normal"
       id="g16"
       style="font-style:normal;font-weight:400;font-size:8.25px;font-family:'MS Shell Dlg 2';fill:none;stroke:#000000;stroke-width:1;stroke-linecap:square;stroke-linejoin:bevel;stroke-opacity:1" />
    <g
       transform="translate(16,16)"
       font-size="8.25"
       font-weight="400"
       font-style="normal"
       id="g18"
       style="font-style:normal;font-weight:400;font-size:8.25px;font-family:'MS Shell Dlg 2';fill:none;stroke:#000000;stroke-width:1;stroke-linecap:square;stroke-linejoin:bevel;stroke-opacity:1" />
    <g
       font-size="8.25"
       font-weight="400"
       font-style="normal"
       id="g20"
       style="font-style:normal;font-weight:400;font-size:8.25px;font-family:'MS Shell Dlg 2';fill:none;stroke:#000000;stroke-width:1;stroke-linecap:square;stroke-linejoin:bevel;stroke-opacity:1" />
    <g
       transform="translate(16,16)"
       font-size="8.25"
       font-weight="400"
       font-style="normal"
       id="g22"
       style="font-style:normal;font-weight:400;font-size:8.25px;font-family:'MS Shell Dlg 2';fill:none;stroke:#000000;stroke-width:1;stroke-linecap:square;stroke-linejoin:bevel;stroke-opacity:1" />
    <g
       transform="matrix(1.33333,0,0,1.33333,16,16)"
       font-size="8.25"
       font-weight="400"
       font-style="normal"
       id="g24"
       style="font-style:normal;font-weight:400;font-size:8.25px;font-family:'MS Shell Dlg 2';fill:none;stroke:#000000;stroke-width:1;stroke-linecap:square;stroke-linejoin:bevel;stroke-opacity:1" />
    <g
       transform="translate(4.5,23.1875)"
       font-size="17.0078"
       font-weight="400"
       font-style="normal"
       id="g28"
       style="font-style:normal;font-weight:400;font-size:17.00779915px;font-family:icomoon;fill:#000000;fill-opacity:1;stroke:none">
      <path
         d="m 20.9785,-18.0137 c 0.3744,0 0.6926,0.1311 0.9546,0.3931 0.262,0.262 0.3931,0.5802 0.3931,0.9546 V 2.29102 c 0,0.37434 -0.1311,0.69254 -0.3931,0.95459 -0.262,0.26204 -0.5802,0.39306 -0.9546,0.39306 H 2.02148 C 1.64714,3.63867 1.32894,3.50765 1.06689,3.24561 0.80485,2.98356 0.673828,2.66536 0.673828,2.29102 V -16.666 c 0,-0.3744 0.131022,-0.6926 0.393062,-0.9546 0.26205,-0.262 0.58025,-0.3931 0.95459,-0.3931 H 20.9785 m 0,-0.6738 H 2.02148 c -0.55403,0 -1.029455,0.1984 -1.426265,0.5952 C 0.198405,-17.6955 0,-17.2201 0,-16.666 V 2.29102 C 0,2.84505 0.198405,3.32048 0.595215,3.71729 0.992025,4.1141 1.46745,4.3125 2.02148,4.3125 H 20.9785 c 0.5541,0 1.0295,-0.1984 1.4263,-0.59521 C 22.8016,3.32048 23,2.84505 23,2.29102 V -16.666 c 0,-0.5541 -0.1984,-1.0295 -0.5952,-1.4263 -0.3968,-0.3968 -0.8722,-0.5952 -1.4263,-0.5952 m -6.7607,4.8066 c 0,0.7487 -0.2658,1.3889 -0.7974,1.9205 -0.5316,0.5315 -1.1717,0.7973 -1.9204,0.7973 -0.7487,0 -1.3851,-0.2658 -1.90918,-0.7973 -0.52409,-0.5316 -0.78613,-1.1718 -0.78613,-1.9205 0,-0.7487 0.26204,-1.3851 0.78613,-1.9091 0.52408,-0.5241 1.16048,-0.7862 1.90918,-0.7862 0.7487,0 1.3888,0.2621 1.9204,0.7862 0.5316,0.524 0.7974,1.1604 0.7974,1.9091 m -4.2676,12.66801 0.5615,-0.44922 c 0.1647,-0.13477 0.292,-0.29199 0.3819,-0.47168 0.0898,-0.17969 0.1347,-0.38184 0.1347,-0.60644 0,-0.37435 -0.131,-0.69255 -0.393,-0.95459 -0.2621,-0.26205 -0.5803,-0.39307 -0.95464,-0.39307 -0.16471,0 -0.31819,0.0262 -0.46045,0.07861 -0.14225,0.05241 -0.27327,0.12354 -0.39306,0.21338 l -1.66211,1.34766 c -0.13477,0.10482 -0.24707,0.23958 -0.33691,0.40429 -0.08985,0.16472 -0.14226,0.33692 -0.15723,0.51661 0,0.02994 -0.00375,0.05241 -0.01123,0.06738 -0.00749,0.01497 -0.01123,0.03743 -0.01123,0.06738 0,0.16472 0.02995,0.32194 0.08984,0.471682 0.0599,0.149739 0.14225,0.284505 0.24707,0.404296 L 8.91699,1.75195 c 0.13477,0.13477 0.28825,0.24707 0.46045,0.33692 0.1722,0.08984 0.36312,0.13476 0.57276,0.13476 0.3743,0 0.6925,-0.13476 0.9546,-0.40429 0.262,-0.26954 0.3931,-0.59148 0.3931,-0.965824 0,-0.164714 -0.0263,-0.32194 -0.0787,-0.47168 -0.0524,-0.14974 -0.131,-0.2845053 -0.2358,-0.4042969 L 9.9502,-1.21289 m 7.749,-5.05371 -3.3242,-4.0205 c -0.0449,-0.0449 -0.0898,-0.0861 -0.1348,-0.1235 -0.0449,-0.0375 -0.0973,-0.0712 -0.1572,-0.1011 -0.0599,-0.0899 -0.1385,-0.1647 -0.2358,-0.2246 -0.0974,-0.0599 -0.1984,-0.0899 -0.3033,-0.0899 H 9.47852 c -0.1198,0 -0.22461,0.0262 -0.31446,0.0786 -0.08984,0.0525 -0.16471,0.1161 -0.22461,0.191 -0.05989,0.0449 -0.11605,0.0898 -0.16845,0.1347 -0.05241,0.0449 -0.10108,0.0899 -0.146,0.1348 l -3.32422,4.0205 c -0.08984,0.10482 -0.16471,0.23209 -0.22461,0.38183 -0.05989,0.14974 -0.08984,0.30697 -0.08984,0.47168 0,0.20964 0.04492,0.4043 0.13476,0.58399 0.08985,0.17969 0.20964,0.33691 0.35938,0.47168 0.11979,0.08984 0.25456,0.16097 0.4043,0.21338 0.14974,0.05241 0.30696,0.07861 0.47168,0.07861 0.20963,0 0.40429,-0.04118 0.58398,-0.12353 0.17969,-0.08236 0.32943,-0.19841 0.44922,-0.34815 l 1.41504,-1.70703 v 0.83105 c 0,0.19467 0.06364,0.35564 0.19092,0.48291 0.12727,0.12728 0.28824,0.19092 0.48291,0.19092 h 4.04298 c 0.1946,0 0.3556,-0.06364 0.4829,-0.19092 0.1273,-0.12727 0.1909,-0.28824 0.1909,-0.48291 v -0.80859 l 1.4151,1.68457 c 0.1197,0.14974 0.2732,0.27328 0.4604,0.37061 0.1872,0.09733 0.3856,0.14599 0.5952,0.14599 0.3744,0 0.6963,-0.13102 0.9658,-0.39306 0.2696,-0.26205 0.4043,-0.58025 0.4043,-0.95459 0,-0.17969 -0.0337,-0.34441 -0.101,-0.49414 -0.0674,-0.14974 -0.1535,-0.28451 -0.2583,-0.4043 h 0.0224 M 15.835,-2.44824 14.1729,-3.7959 c -0.1198,-0.08984 -0.2509,-0.16097 -0.3931,-0.21338 -0.1423,-0.05241 -0.2883,-0.07861 -0.438,-0.07861 -0.3744,0 -0.6925,0.13102 -0.9546,0.39307 -0.262,0.26204 -0.3931,0.58024 -0.3931,0.95459 0,0.20963 0.0412,0.40429 0.1236,0.58398 0.0823,0.17969 0.2059,0.33691 0.3706,0.47168 l 0.5615,0.44922 -1.0332,1.1904281 C 11.9417,0.0598958 11.8856,0.175944 11.8481,0.303223 11.8107,0.430501 11.792,0.56901 11.792,0.71875 c 0,0.37435 0.131,0.69255 0.3931,0.95459 0.262,0.26204 0.5802,0.39307 0.9545,0.39307 0.1797,0 0.3482,-0.02995 0.5054,-0.08985 0.1572,-0.05989 0.2958,-0.14974 0.4155,-0.26953 l 1.9317,-2.246093 c 0.1048,-0.119791 0.1834,-0.254557 0.2358,-0.404296 0.0524,-0.149741 0.0786,-0.306971 0.0786,-0.471681 0,-0.02995 0,-0.05615 0,-0.07861 0,-0.02246 0,-0.04118 0,-0.05615 -0.0149,-0.17969 -0.0636,-0.34815 -0.146,-0.50538 -0.0823,-0.15722 -0.1909,-0.28824 -0.3256,-0.39306"
         id="path26"
         inkscape:connector-curvature="0"
         style="vector-effect:none;fill-rule:nonzero" />
    </g>
    <g
       transform="matrix(1.33333,0,0,1.33333,16,16)"
       font-size="8.25"
       font-weight="400"
       font-style="normal"
       id="g30"
       style="font-style:normal;font-weight:400;font-size:8.25px;font-family:'MS Shell Dlg 2';fill:none;stroke:#000000;stroke-width:1;stroke-linecap:square;stroke-linejoin:bevel;stroke-opacity:1" />
    <g
       transform="translate(16,16)"
       font-size="8.25"
       font-weight="400"
       font-style="normal"
       id="g32"
       style="font-style:normal;font-weight:400;font-size:8.25px;font-family:'MS Shell Dlg 2';fill:none;stroke:#000000;stroke-width:1;stroke-linecap:square;stroke-linejoin:bevel;stroke-opacity:1" />
    <g
       font-size="8.25"
       font-weight="400"
       font-style="normal"
       id="g34"
       style="font-style:normal;font-weight:400;font-size:8.25px;font-family:'MS Shell Dlg 2';fill:none;stroke:#000000;stroke-width:1;stroke-linecap:square;stroke-linejoin:bevel;stroke-opacity:1" />
    <g
       transform="translate(16,16)"
       font-size="8.25"
       font-weight="400"
       font-style="normal"
       id="g36"
       style="font-style:normal;font-weight:400;font-size:8.25px;font-family:'MS Shell Dlg 2';fill:none;stroke:#000000;stroke-width:1;stroke-linecap:square;stroke-linejoin:bevel;stroke-opacity:1" />
    <g
       transform="matrix(1.33333,0,0,1.33333,16,16)"
       font-size="8.25"
       font-weight="400"
       font-style="normal"
       id="g38"
       style="font-style:normal;font-weight:400;font-size:8.25px;font-family:'MS Shell Dlg 2';fill:none;stroke:#000000;stroke-width:1;stroke-linecap:square;stroke-linejoin:bevel;stroke-opacity:1" />
    <g
       transform="translate(3,24.125)"
       font-size="19.8425"
       font-weight="400"
       font-style="normal"
       id="g42"
       style="font-style:normal;font-weight:400;font-size:19.84250069px;font-family:icomoon;fill:#000000;fill-opacity:1;stroke:none">
      <path
         d="m 23.9434,-20.4395 c 0.3724,0 0.694,0.1355 0.9648,0.4063 0.2708,0.2708 0.4063,0.5924 0.4063,0.9648 V 2.81836 c 0,0.3724 -0.1355,0.69401 -0.4063,0.96484 -0.2708,0.27084 -0.5924,0.40625 -0.9648,0.40625 H 2.05664 C 1.68424,4.18945 1.36263,4.05404 1.0918,3.7832 0.820964,3.51237 0.685547,3.19076 0.685547,2.81836 V -19.0684 c 0,-0.3724 0.135417,-0.694 0.406253,-0.9648 0.27083,-0.2708 0.59244,-0.4063 0.96484,-0.4063 H 23.9434 m 0,-0.6855 H 2.05664 c -0.57552,0 -1.062174,0.1989 -1.45996,0.5967 C 0.198893,-20.1305 0,-19.6439 0,-19.0684 V 2.81836 C 0,3.39388 0.198893,3.88053 0.59668,4.27832 0.994466,4.67611 1.48112,4.875 2.05664,4.875 H 23.9434 c 0.5755,0 1.0621,-0.19889 1.4599,-0.59668 C 25.8011,3.88053 26,3.39388 26,2.81836 V -19.0684 c 0,-0.5755 -0.1989,-1.0621 -0.5967,-1.4599 -0.3978,-0.3978 -0.8844,-0.5967 -1.4599,-0.5967"
         id="path40"
         inkscape:connector-curvature="0"
         style="vector-effect:none;fill-rule:nonzero" />
    </g>
    <g
       transform="matrix(1.33333,0,0,1.33333,16,16)"
       font-size="8.25"
       font-weight="400"
       font-style="normal"
       id="g44"
       style="font-style:normal;font-weight:400;font-size:8.25px;font-family:'MS Shell Dlg 2';fill:none;stroke:#000000;stroke-width:1;stroke-linecap:square;stroke-linejoin:bevel;stroke-opacity:1" />
    <g
       transform="translate(16,16)"
       font-size="8.25"
       font-weight="400"
       font-style="normal"
       id="g46"
       style="font-style:normal;font-weight:400;font-size:8.25px;font-family:'MS Shell Dlg 2';fill:none;stroke:#000000;stroke-width:1;stroke-linecap:square;stroke-linejoin:bevel;stroke-opacity:1" />
    <g
       font-size="8.25"
       font-weight="400"
       font-style="normal"
       id="g48"
       style="font-style:normal;font-weight:400;font-size:8.25px;font-family:'MS Shell Dlg 2';fill:none;stroke:#000000;stroke-width:1;stroke-linecap:square;stroke-linejoin:bevel;stroke-opacity:1" />
  </g>
</svg>
