<?xml version="1.0" encoding="UTF-8" standalone="no"?>
<svg
   xmlns:dc="http://purl.org/dc/elements/1.1/"
   xmlns:cc="http://creativecommons.org/ns#"
   xmlns:rdf="http://www.w3.org/1999/02/22-rdf-syntax-ns#"
   xmlns:svg="http://www.w3.org/2000/svg"
   xmlns="http://www.w3.org/2000/svg"
   xmlns:sodipodi="http://sodipodi.sourceforge.net/DTD/sodipodi-0.dtd"
   xmlns:inkscape="http://www.inkscape.org/namespaces/inkscape"
   width="20"
   height="20"
   viewBox="0 0 20 20"
   version="1.2"
   id="svg38"
   sodipodi:docname="60205040132.svg"
   inkscape:version="0.92.4 (5da689c313, 2019-01-14)">
  <metadata
     id="metadata42">
    <rdf:RDF>
      <cc:Work
         rdf:about="">
        <dc:format>image/svg+xml</dc:format>
        <dc:type
           rdf:resource="http://purl.org/dc/dcmitype/StillImage" />
      </cc:Work>
    </rdf:RDF>
  </metadata>
  <sodipodi:namedview
     pagecolor="#ffffff"
     bordercolor="#666666"
     borderopacity="1"
     objecttolerance="10"
     gridtolerance="10"
     guidetolerance="10"
     inkscape:pageopacity="0"
     inkscape:pageshadow="2"
     inkscape:window-width="751"
     inkscape:window-height="480"
     id="namedview40"
     showgrid="false"
     inkscape:zoom="11.8"
     inkscape:cx="10"
     inkscape:cy="10"
     inkscape:window-x="0"
     inkscape:window-y="0"
     inkscape:window-maximized="0"
     inkscape:current-layer="svg38" />
  <title
     id="title2">Qt SVG Document</title>
  <desc
     id="desc4">Generated with Qt</desc>
  <defs
     id="defs6" />
  <g
     id="g36"
     transform="matrix(0.65217391,0,0,0.65217391,-0.43478256,-0.43478256)"
     style="fill:none;fill-rule:evenodd;stroke:#000000;stroke-width:1;stroke-linecap:square;stroke-linejoin:bevel">
    <g
       transform="translate(16,16)"
       font-size="8.25"
       font-weight="400"
       font-style="normal"
       id="g8"
       style="font-style:normal;font-weight:400;font-size:8.25px;font-family:'MS Shell Dlg 2';fill:none;stroke:#000000;stroke-width:1;stroke-linecap:square;stroke-linejoin:bevel;stroke-opacity:1" />
    <g
       transform="matrix(1.33333,0,0,1.33333,16,16)"
       font-size="8.25"
       font-weight="400"
       font-style="normal"
       id="g10"
       style="font-style:normal;font-weight:400;font-size:8.25px;font-family:'MS Shell Dlg 2';fill:none;stroke:#000000;stroke-width:1;stroke-linecap:square;stroke-linejoin:bevel;stroke-opacity:1" />
    <g
       transform="translate(4.5,23.1875)"
       font-size="17.0078"
       font-weight="400"
       font-style="normal"
       id="g14"
       style="font-style:normal;font-weight:400;font-size:17.00779915px;font-family:icomoon;fill:#ff0000;fill-opacity:1;stroke:none">
      <path
         d="M 2.02148,-18.6875 H 20.9785 c 0.5541,0 1.0295,0.1984 1.4263,0.5952 C 22.8016,-17.6955 23,-17.2201 23,-16.666 V 2.29102 C 23,2.84505 22.8016,3.32048 22.4048,3.71729 22.008,4.1141 21.5326,4.3125 20.9785,4.3125 H 2.02148 C 1.46745,4.3125 0.992025,4.1141 0.595215,3.71729 0.198405,3.32048 0,2.84505 0,2.29102 V -16.666 c 0,-0.5541 0.198405,-1.0295 0.595215,-1.4263 0.39681,-0.3968 0.872235,-0.5952 1.426265,-0.5952"
         id="path12"
         inkscape:connector-curvature="0"
         style="vector-effect:none;fill-rule:nonzero" />
    </g>
    <g
       transform="matrix(1.33333,0,0,1.33333,16,16)"
       font-size="8.25"
       font-weight="400"
       font-style="normal"
       id="g16"
       style="font-style:normal;font-weight:400;font-size:8.25px;font-family:'MS Shell Dlg 2';fill:none;stroke:#000000;stroke-width:1;stroke-linecap:square;stroke-linejoin:bevel;stroke-opacity:1" />
    <g
       transform="translate(16,16)"
       font-size="8.25"
       font-weight="400"
       font-style="normal"
       id="g18"
       style="font-style:normal;font-weight:400;font-size:8.25px;font-family:'MS Shell Dlg 2';fill:none;stroke:#000000;stroke-width:1;stroke-linecap:square;stroke-linejoin:bevel;stroke-opacity:1" />
    <g
       font-size="8.25"
       font-weight="400"
       font-style="normal"
       id="g20"
       style="font-style:normal;font-weight:400;font-size:8.25px;font-family:'MS Shell Dlg 2';fill:none;stroke:#000000;stroke-width:1;stroke-linecap:square;stroke-linejoin:bevel;stroke-opacity:1" />
    <g
       transform="translate(16,16)"
       font-size="8.25"
       font-weight="400"
       font-style="normal"
       id="g22"
       style="font-style:normal;font-weight:400;font-size:8.25px;font-family:'MS Shell Dlg 2';fill:none;stroke:#000000;stroke-width:1;stroke-linecap:square;stroke-linejoin:bevel;stroke-opacity:1" />
    <g
       transform="matrix(1.33333,0,0,1.33333,16,16)"
       font-size="8.25"
       font-weight="400"
       font-style="normal"
       id="g24"
       style="font-style:normal;font-weight:400;font-size:8.25px;font-family:'MS Shell Dlg 2';fill:none;stroke:#000000;stroke-width:1;stroke-linecap:square;stroke-linejoin:bevel;stroke-opacity:1" />
    <g
       transform="translate(4.5,23.1875)"
       font-size="17.0078"
       font-weight="400"
       font-style="normal"
       id="g28"
       style="font-style:normal;font-weight:400;font-size:17.00779915px;font-family:icomoon;fill:#000000;fill-opacity:1;stroke:none">
      <path
         d="M 20.9785,-18.6875 H 2.02148 c -0.55403,0 -1.029455,0.1984 -1.426265,0.5952 C 0.198405,-17.6955 0,-17.2201 0,-16.666 V 2.29102 C 0,2.84505 0.198405,3.32048 0.595215,3.71729 0.992025,4.1141 1.46745,4.3125 2.02148,4.3125 H 20.9785 c 0.5541,0 1.0295,-0.1984 1.4263,-0.59521 C 22.8016,3.32048 23,2.84505 23,2.29102 V -16.666 c 0,-0.5541 -0.1984,-1.0295 -0.5952,-1.4263 -0.3968,-0.3968 -0.8722,-0.5952 -1.4263,-0.5952 m 1.3477,20.97852 c 0,0.37434 -0.1311,0.69254 -0.3931,0.95459 -0.262,0.26204 -0.5802,0.39306 -0.9546,0.39306 H 2.02148 C 1.64714,3.63867 1.32894,3.50765 1.06689,3.24561 0.80485,2.98356 0.673828,2.66536 0.673828,2.29102 V -16.666 c 0,-0.3744 0.131022,-0.6926 0.393062,-0.9546 0.26205,-0.262 0.58025,-0.3931 0.95459,-0.3931 H 20.9785 c 0.3744,0 0.6926,0.1311 0.9546,0.3931 0.262,0.262 0.3931,0.5802 0.3931,0.9546 V 2.29102 M 19.8105,-9.56836 c -0.0898,-0.04492 -0.1871,-0.07861 -0.2919,-0.10107 -0.1049,-0.02246 -0.2172,-0.04118 -0.337,-0.05616 L 7.32227,-13.6787 c 0,-0.015 0,-0.0262 0,-0.0337 0,-0.0075 0,-0.0187 0,-0.0337 0,-0.015 0,-0.0262 0,-0.0337 0,-0.0075 0,-0.0187 0,-0.0337 v -1.7744 c 0,-0.1348 -0.05241,-0.2545 -0.15723,-0.3594 -0.10482,-0.1048 -0.22461,-0.1572 -0.35938,-0.1572 -0.13476,0 -0.25455,0.0524 -0.35937,0.1572 -0.10482,0.1049 -0.15723,0.2246 -0.15723,0.3594 v 1.7744 c 0,0 0,0.0038 0,0.0113 0,0.0074 0,0.0187 0,0.0336 -0.89843,0.1198 -1.65088,0.5241 -2.25732,1.2129 -0.60645,0.6888 -0.90967,1.4899 -0.90967,2.4034 0,0.94332 0.31071,1.75565 0.93213,2.43697 0.62142,0.68131 1.38135,1.08187 2.27978,1.20166 h 0.02247 c -0.01498,0.01497 -0.02247,0.0262 -0.02247,0.03369 0,0.00749 0,0.01123 0,0.01123 0,0.01497 0,0.0262 0,0.03369 0,0.00749 0.00749,0.01123 0.02247,0.01123 v 5.929689 c 0,0.14974 0.04866,0.273275 0.14599,0.370606 0.09733,0.0973306 0.21338,0.1459959 0.34815,0.1459959 0.13476,0 0.25455,-0.0486653 0.35937,-0.1459959 0.10482,-0.097331 0.15723,-0.220866 0.15723,-0.370606 V -6.44629 c 0,0 0,-0.00374 0,-0.01123 0,-0.00749 0,-0.01872 0,-0.03369 H 19.1367 c 0.2097,0 0.4043,-0.03744 0.584,-0.11231 0.1797,-0.07487 0.3444,-0.1722 0.4941,-0.29199 0.1947,-0.13476 0.3557,-0.30696 0.483,-0.5166 0.1272,-0.20963 0.1909,-0.44173 0.1909,-0.69629 0,-0.01497 0,-0.02995 0,-0.04492 0,-0.01497 0,-0.02246 0,-0.02246 -0.015,-0.38932 -0.1273,-0.71875 -0.3369,-0.98828 -0.2097,-0.26953 -0.4567,-0.4043 -0.7413,-0.4043 M 6.85059,-7.12012 c -0.4642,0 -0.8947,-0.09733 -1.29151,-0.29199 C 5.16227,-7.60677 4.8291,-7.86882 4.55957,-8.19824 H 4.53711 C 4.46224,-8.40788 4.40234,-8.625 4.35742,-8.84961 4.3125,-9.07422 4.29004,-9.3138 4.29004,-9.56836 c 0.01497,-0.70374 0.18343,-1.35884 0.50537,-1.96534 0.32194,-0.6064 0.75244,-1.1118 1.2915,-1.5161 v -0.0225 c 0.10482,-0.0299 0.21713,-0.0524 0.33692,-0.0673 0.11979,-0.015 0.24707,-0.03 0.38183,-0.045 l 1.61719,0.5616 c -0.76367,0.3444 -1.3776,0.7823 -1.8418,1.3139 -0.46419,0.5316 -0.69628,1.1043 -0.69628,1.71828 0.04492,0.52409 0.20589,1.00325 0.48291,1.4375 0.27701,0.43424 0.63265,0.77865 1.06689,1.0332 H 6.85059 m 4.42481,0 H 8.80469 C 8.625,-7.4196 8.48275,-7.74154 8.37793,-8.08594 8.27311,-8.43034 8.2207,-8.7972 8.2207,-9.18652 c 0.01498,-0.59896 0.14226,-1.16418 0.38184,-1.69578 0.23958,-0.5316 0.56152,-0.992 0.96582,-1.3814 l 2.17874,0.7188 c -0.4642,0.2096 -0.8423,0.5241 -1.1343,0.9433 -0.292,0.4193 -0.453,0.89099 -0.4829,1.41508 0.015,0.43424 0.1235,0.83105 0.3257,1.19043 0.2021,0.35937 0.4679,0.65136 0.7973,0.87597 h 0.0225 m 3.706,0 h -1.999 c -0.0449,-0.16471 -0.0786,-0.3444 -0.1011,-0.53906 -0.0224,-0.19466 -0.0336,-0.38932 -0.0336,-0.58398 0,0 0,-0.00375 0,-0.01123 0,-0.00749 0,-0.01872 0,-0.0337 v 0.02246 c 0.0149,-0.49414 0.0898,-0.96582 0.2246,-1.41503 0.1347,-0.44924 0.3294,-0.86104 0.584,-1.23534 l -0.0225,0.0224 1.8867,0.629 c -0.2246,0.26948 -0.408,0.57645 -0.5503,0.92085 -0.1422,0.3444 -0.2134,0.71126 -0.2134,1.10059 0,0.20963 0.0188,0.40804 0.0562,0.59521 0.0374,0.18718 0.0936,0.37061 0.1684,0.55029 v -0.02246 m 2.4483,-2.4707 v -0.04492 h 0.0449 l -0.0449,0.04492 m 1.707,2.4707 h -1.3926 c -0.0748,-0.17968 -0.131,-0.3706 -0.1684,-0.57275 -0.0375,-0.20215 -0.0562,-0.40804 -0.0562,-0.61768 0,-0.22461 0.0187,-0.43799 0.0562,-0.64013 0.0374,-0.20215 0.0936,-0.40056 0.1684,-0.59522 v 0.02246 l 1.2579,0.42676 c -0.0749,0.13477 -0.1348,0.27702 -0.1797,0.42676 -0.045,0.14974 -0.0674,0.30696 -0.0674,0.47168 0,0 0,0.00374 0,0.01123 0,0.00749 0,0.01123 0,0.01123 0,0 0,0.00374 0,0.01123 0,0.00749 0,0.01123 0,0.01123 0,0.19466 0.0337,0.38184 0.1011,0.56152 0.0673,0.17969 0.1609,0.33692 0.2807,0.47168 h -0.0224 0.0224 m 0.7188,-0.33691 h -0.045 c -0.0898,0 -0.1796,-0.06738 -0.2695,-0.20215 -0.0898,-0.13477 -0.1347,-0.31445 -0.1347,-0.53906 0,-0.01498 0,-0.02621 0,-0.03369 0,-0.00749 0,-0.01123 0,-0.01123 0,-0.13477 0.0262,-0.25456 0.0786,-0.35938 0.0524,-0.10482 0.131,-0.19466 0.2358,-0.26953 0.1198,0.08984 0.2134,0.20215 0.2808,0.33691 0.0673,0.13477 0.101,0.28451 0.101,0.44922 0,0.11979 -0.0224,0.2321 -0.0673,0.33692 -0.045,0.10481 -0.1049,0.20214 -0.1797,0.29199"
         id="path26"
         inkscape:connector-curvature="0"
         style="vector-effect:none;fill-rule:nonzero" />
    </g>
    <g
       transform="matrix(1.33333,0,0,1.33333,16,16)"
       font-size="8.25"
       font-weight="400"
       font-style="normal"
       id="g30"
       style="font-style:normal;font-weight:400;font-size:8.25px;font-family:'MS Shell Dlg 2';fill:none;stroke:#000000;stroke-width:1;stroke-linecap:square;stroke-linejoin:bevel;stroke-opacity:1" />
    <g
       transform="translate(16,16)"
       font-size="8.25"
       font-weight="400"
       font-style="normal"
       id="g32"
       style="font-style:normal;font-weight:400;font-size:8.25px;font-family:'MS Shell Dlg 2';fill:none;stroke:#000000;stroke-width:1;stroke-linecap:square;stroke-linejoin:bevel;stroke-opacity:1" />
    <g
       font-size="8.25"
       font-weight="400"
       font-style="normal"
       id="g34"
       style="font-style:normal;font-weight:400;font-size:8.25px;font-family:'MS Shell Dlg 2';fill:none;stroke:#000000;stroke-width:1;stroke-linecap:square;stroke-linejoin:bevel;stroke-opacity:1" />
  </g>
</svg>
