<?xml version="1.0" encoding="UTF-8" standalone="no"?>
<svg
   xmlns:dc="http://purl.org/dc/elements/1.1/"
   xmlns:cc="http://creativecommons.org/ns#"
   xmlns:rdf="http://www.w3.org/1999/02/22-rdf-syntax-ns#"
   xmlns:svg="http://www.w3.org/2000/svg"
   xmlns="http://www.w3.org/2000/svg"
   xmlns:sodipodi="http://sodipodi.sourceforge.net/DTD/sodipodi-0.dtd"
   xmlns:inkscape="http://www.inkscape.org/namespaces/inkscape"
   width="20"
   height="20"
   viewBox="0 0 20 20"
   version="1.2"
   id="svg38"
   sodipodi:docname="60204150531.svg"
   inkscape:version="0.92.4 (5da689c313, 2019-01-14)">
  <metadata
     id="metadata42">
    <rdf:RDF>
      <cc:Work
         rdf:about="">
        <dc:format>image/svg+xml</dc:format>
        <dc:type
           rdf:resource="http://purl.org/dc/dcmitype/StillImage" />
      </cc:Work>
    </rdf:RDF>
  </metadata>
  <sodipodi:namedview
     pagecolor="#ffffff"
     bordercolor="#666666"
     borderopacity="1"
     objecttolerance="10"
     gridtolerance="10"
     guidetolerance="10"
     inkscape:pageopacity="0"
     inkscape:pageshadow="2"
     inkscape:window-width="751"
     inkscape:window-height="480"
     id="namedview40"
     showgrid="false"
     inkscape:zoom="11.8"
     inkscape:cx="10"
     inkscape:cy="10"
     inkscape:window-x="0"
     inkscape:window-y="0"
     inkscape:window-maximized="0"
     inkscape:current-layer="svg38" />
  <title
     id="title2">Qt SVG Document</title>
  <desc
     id="desc4">Generated with Qt</desc>
  <defs
     id="defs6" />
  <g
     id="g36"
     transform="matrix(0.65217391,0,0,0.65217391,-0.43478256,-0.43478256)"
     style="fill:none;fill-rule:evenodd;stroke:#000000;stroke-width:1;stroke-linecap:square;stroke-linejoin:bevel">
    <g
       transform="translate(16,16)"
       font-size="8.25"
       font-weight="400"
       font-style="normal"
       id="g8"
       style="font-style:normal;font-weight:400;font-size:8.25px;font-family:'MS Shell Dlg 2';fill:none;stroke:#000000;stroke-width:1;stroke-linecap:square;stroke-linejoin:bevel;stroke-opacity:1" />
    <g
       transform="matrix(1.33333,0,0,1.33333,16,16)"
       font-size="8.25"
       font-weight="400"
       font-style="normal"
       id="g10"
       style="font-style:normal;font-weight:400;font-size:8.25px;font-family:'MS Shell Dlg 2';fill:none;stroke:#000000;stroke-width:1;stroke-linecap:square;stroke-linejoin:bevel;stroke-opacity:1" />
    <g
       transform="translate(4.5,23.1875)"
       font-size="17.0078"
       font-weight="400"
       font-style="normal"
       id="g14"
       style="font-style:normal;font-weight:400;font-size:17.00779915px;font-family:icomoon;fill:#ffffff;fill-opacity:1;stroke:none">
      <path
         d="M 2.02148,-18.6875 H 20.9785 c 0.5541,0 1.0295,0.1984 1.4263,0.5952 C 22.8016,-17.6955 23,-17.2201 23,-16.666 V 2.29102 C 23,2.84505 22.8016,3.32048 22.4048,3.71729 22.008,4.1141 21.5326,4.3125 20.9785,4.3125 H 2.02148 C 1.46745,4.3125 0.992025,4.1141 0.595215,3.71729 0.198405,3.32048 0,2.84505 0,2.29102 V -16.666 c 0,-0.5541 0.198405,-1.0295 0.595215,-1.4263 0.39681,-0.3968 0.872235,-0.5952 1.426265,-0.5952"
         id="path12"
         inkscape:connector-curvature="0"
         style="vector-effect:none;fill-rule:nonzero" />
    </g>
    <g
       transform="matrix(1.33333,0,0,1.33333,16,16)"
       font-size="8.25"
       font-weight="400"
       font-style="normal"
       id="g16"
       style="font-style:normal;font-weight:400;font-size:8.25px;font-family:'MS Shell Dlg 2';fill:none;stroke:#000000;stroke-width:1;stroke-linecap:square;stroke-linejoin:bevel;stroke-opacity:1" />
    <g
       transform="translate(16,16)"
       font-size="8.25"
       font-weight="400"
       font-style="normal"
       id="g18"
       style="font-style:normal;font-weight:400;font-size:8.25px;font-family:'MS Shell Dlg 2';fill:none;stroke:#000000;stroke-width:1;stroke-linecap:square;stroke-linejoin:bevel;stroke-opacity:1" />
    <g
       font-size="8.25"
       font-weight="400"
       font-style="normal"
       id="g20"
       style="font-style:normal;font-weight:400;font-size:8.25px;font-family:'MS Shell Dlg 2';fill:none;stroke:#000000;stroke-width:1;stroke-linecap:square;stroke-linejoin:bevel;stroke-opacity:1" />
    <g
       transform="translate(16,16)"
       font-size="8.25"
       font-weight="400"
       font-style="normal"
       id="g22"
       style="font-style:normal;font-weight:400;font-size:8.25px;font-family:'MS Shell Dlg 2';fill:none;stroke:#000000;stroke-width:1;stroke-linecap:square;stroke-linejoin:bevel;stroke-opacity:1" />
    <g
       transform="matrix(1.33333,0,0,1.33333,16,16)"
       font-size="8.25"
       font-weight="400"
       font-style="normal"
       id="g24"
       style="font-style:normal;font-weight:400;font-size:8.25px;font-family:'MS Shell Dlg 2';fill:none;stroke:#000000;stroke-width:1;stroke-linecap:square;stroke-linejoin:bevel;stroke-opacity:1" />
    <g
       transform="translate(4.5,23.1875)"
       font-size="17.0078"
       font-weight="400"
       font-style="normal"
       id="g28"
       style="font-style:normal;font-weight:400;font-size:17.00779915px;font-family:icomoon;fill:#000000;fill-opacity:1;stroke:none">
      <path
         d="m 20.9785,-18.0137 c 0.3744,0 0.6926,0.1311 0.9546,0.3931 0.262,0.262 0.3931,0.5802 0.3931,0.9546 V 2.29102 c 0,0.37434 -0.1311,0.69254 -0.3931,0.95459 -0.262,0.26204 -0.5802,0.39306 -0.9546,0.39306 H 2.02148 C 1.64714,3.63867 1.32894,3.50765 1.06689,3.24561 0.80485,2.98356 0.673828,2.66536 0.673828,2.29102 V -16.666 c 0,-0.3744 0.131022,-0.6926 0.393062,-0.9546 0.26205,-0.262 0.58025,-0.3931 0.95459,-0.3931 H 20.9785 m 0,-0.6738 H 2.02148 c -0.55403,0 -1.029455,0.1984 -1.426265,0.5952 C 0.198405,-17.6955 0,-17.2201 0,-16.666 V 2.29102 C 0,2.84505 0.198405,3.32048 0.595215,3.71729 0.992025,4.1141 1.46745,4.3125 2.02148,4.3125 H 20.9785 c 0.5541,0 1.0295,-0.1984 1.4263,-0.59521 C 22.8016,3.32048 23,2.84505 23,2.29102 V -16.666 c 0,-0.5541 -0.1984,-1.0295 -0.5952,-1.4263 -0.3968,-0.3968 -0.8722,-0.5952 -1.4263,-0.5952 m -3.5713,10.64648 v -0.08984 c 0,0 0,-0.00749 0,-0.02246 0,-0.01497 0,-0.02246 0,-0.02246 -0.2396,-1.12305 -0.554,-2.14132 -0.9433,-3.05472 -0.3894,-0.9284 -0.8348,-1.7145 -1.3365,-2.3584 -0.5016,-0.6438 -1.0519,-1.153 -1.6508,-1.5273 -0.599,-0.3594 -1.2204,-0.5466 -1.8643,-0.5615 H 11.5 c -0.6439,0 -1.2728,0.1797 -1.88672,0.539 -0.59896,0.3444 -1.15674,0.8423 -1.67334,1.4937 -0.5166,0.6513 -0.96956,1.4412 -1.35889,2.3696 -0.40429,0.9134 -0.73372,1.93914 -0.98828,3.07716 0,0 0,0.00374 0,0.01123 0,0.00749 0,0.01123 0,0.01123 0,0 0,0.00374 0,0.01123 0,0.00749 0,0.01123 0,0.01123 0,0 0,0.00374 0,0.01123 0,0.00749 0,0.01872 0,0.03369 0,0.01498 0,0.02621 0,0.03369 0,0.00749 0,0.01123 0,0.01123 v 0.11231 c 0,0 0,0.00374 0,0.01123 0,0.00749 0,0.01123 0,0.01123 0,0.01497 0,0.0262 0,0.03369 0,0.00749 0,0.01123 0,0.01123 v 0.04492 l 0.04493,0.04492 0.06738,0.06739 h 0.02246 l 0.06738,0.04492 c 0,0 0.01498,0.00749 0.04492,0.02246 h 0.24707 c 0.01498,0 0.02621,0 0.0337,0 0.00748,0 0.01871,0 0.03369,0 0.01497,0 0.02994,0 0.04492,0 0.01497,0 0.02995,0 0.04492,0 H 6.22168 c 0.01497,0 0.02246,0 0.02246,0 0.01497,0 0.02246,0 0.02246,0 0,0 0.00749,0 0.02246,0 H 6.2666 L 6.35645,-7.7041 v -0.02246 c 0.01497,-0.01498 0.0262,-0.02621 0.03369,-0.03369 0.00748,-0.00749 0.01123,-0.01872 0.01123,-0.0337 h 0.02246 c 0,0 0,-0.00374 0,-0.01123 0,-0.00748 0,-0.01123 0,-0.01123 0,0 0,-0.00374 0,-0.01123 0,-0.00748 0,-0.01123 0,-0.01123 0.37435,-0.91341 0.96207,-1.66585 1.76318,-2.25733 0.80111,-0.5915 1.70329,-0.9321 2.70659,-1.022 h 0.0224 v 5.34574 H 8.87207 V 1.68457 H 14.2627 V -5.77246 H 12.084 v -5.36814 c 0.9883,0.1198 1.868,0.4717 2.6391,1.0556 0.7712,0.58402 1.344,1.31026 1.7183,2.17875 v 0.04492 c 0,0 0.0037,0.00749 0.0112,0.02246 0.0075,0.01498 0.0188,0.02246 0.0337,0.02246 v 0.08985 c 0.015,0.01497 0.03,0.0262 0.045,0.03369 0.0149,0.00749 0.0299,0.01872 0.0449,0.03369 h 0.0224 c 0.015,0.01497 0.0337,0.0262 0.0562,0.03369 0.0224,0.00749 0.0412,0.01123 0.0561,0.01123 h 0.0225 0.292 c 0,0 0.0075,0 0.0225,0 0.0149,0 0.0224,-0.01497 0.0224,-0.04492 h 0.0449 c 0,0 0,-0.00749 0,-0.02246 0.015,-0.01497 0.03,-0.02995 0.045,-0.04492 0.0149,-0.01498 0.0224,-0.02995 0.0224,-0.04492 l 0.0449,-0.02247 v -0.04492 c 0,0 0,-0.00374 0,-0.01123 0,-0.00748 0,-0.01872 0,-0.03369 0,0 0,-0.00374 0,-0.01123 0,-0.00749 0,-0.01872 0,-0.03369 v -0.06738 l 0.1797,-0.04493 m -3.2119,-5.00878 c -0.2995,-0.2246 -0.6289,-0.408 -0.9883,-0.5503 -0.3593,-0.1423 -0.7337,-0.2433 -1.123,-0.3032 h -0.0449 v -0.6738 c 0.4492,0.1347 0.8572,0.3331 1.2241,0.5952 0.3668,0.262 0.6776,0.5652 0.9321,0.9096 v 0.0225 m -3.1445,-1.5723 v 0.6739 c -0.4193,0.0449 -0.8198,0.146 -1.20168,0.3032 -0.38183,0.1572 -0.73747,0.3556 -1.06689,0.5952 h 0.02246 c 0.26953,-0.3893 0.59521,-0.7188 0.97705,-0.9883 0.38186,-0.2695 0.79736,-0.4642 1.24656,-0.584 h 0.0225 m -2.69533,3.2569 c 0.32943,-0.4043 0.72624,-0.7375 1.19043,-0.9995 0.4642,-0.2621 0.9583,-0.438 1.4824,-0.5279 h 0.0225 v 0.7188 c -0.4942,0.0449 -0.9696,0.1385 -1.42629,0.2807 -0.4567,0.1423 -0.88721,0.3257 -1.2915,0.5503 l 0.04492,-0.0224 H 8.35547 m 3.72853,-1.5049 c 0.5091,0.1048 0.9808,0.2882 1.415,0.5503 0.4343,0.262 0.8161,0.5802 1.1455,0.9546 -0.3743,-0.2097 -0.7749,-0.3819 -1.2016,-0.5166 -0.4268,-0.1348 -0.8723,-0.2246 -1.3365,-0.2696 H 12.084 v -0.7187"
         id="path26"
         inkscape:connector-curvature="0"
         style="vector-effect:none;fill-rule:nonzero" />
    </g>
    <g
       transform="matrix(1.33333,0,0,1.33333,16,16)"
       font-size="8.25"
       font-weight="400"
       font-style="normal"
       id="g30"
       style="font-style:normal;font-weight:400;font-size:8.25px;font-family:'MS Shell Dlg 2';fill:none;stroke:#000000;stroke-width:1;stroke-linecap:square;stroke-linejoin:bevel;stroke-opacity:1" />
    <g
       transform="translate(16,16)"
       font-size="8.25"
       font-weight="400"
       font-style="normal"
       id="g32"
       style="font-style:normal;font-weight:400;font-size:8.25px;font-family:'MS Shell Dlg 2';fill:none;stroke:#000000;stroke-width:1;stroke-linecap:square;stroke-linejoin:bevel;stroke-opacity:1" />
    <g
       font-size="8.25"
       font-weight="400"
       font-style="normal"
       id="g34"
       style="font-style:normal;font-weight:400;font-size:8.25px;font-family:'MS Shell Dlg 2';fill:none;stroke:#000000;stroke-width:1;stroke-linecap:square;stroke-linejoin:bevel;stroke-opacity:1" />
  </g>
</svg>
