<?xml version="1.0" encoding="UTF-8" standalone="no"?>
<svg
   xmlns:dc="http://purl.org/dc/elements/1.1/"
   xmlns:cc="http://creativecommons.org/ns#"
   xmlns:rdf="http://www.w3.org/1999/02/22-rdf-syntax-ns#"
   xmlns:svg="http://www.w3.org/2000/svg"
   xmlns="http://www.w3.org/2000/svg"
   xmlns:sodipodi="http://sodipodi.sourceforge.net/DTD/sodipodi-0.dtd"
   xmlns:inkscape="http://www.inkscape.org/namespaces/inkscape"
   width="20"
   height="20"
   viewBox="0 0 20 20"
   version="1.2"
   id="svg52"
   sodipodi:docname="60204150812.svg"
   inkscape:version="0.92.4 (5da689c313, 2019-01-14)">
  <metadata
     id="metadata56">
    <rdf:RDF>
      <cc:Work
         rdf:about="">
        <dc:format>image/svg+xml</dc:format>
        <dc:type
           rdf:resource="http://purl.org/dc/dcmitype/StillImage" />
      </cc:Work>
    </rdf:RDF>
  </metadata>
  <sodipodi:namedview
     pagecolor="#ffffff"
     bordercolor="#666666"
     borderopacity="1"
     objecttolerance="10"
     gridtolerance="10"
     guidetolerance="10"
     inkscape:pageopacity="0"
     inkscape:pageshadow="2"
     inkscape:window-width="751"
     inkscape:window-height="480"
     id="namedview54"
     showgrid="false"
     inkscape:zoom="11.8"
     inkscape:cx="10"
     inkscape:cy="10"
     inkscape:window-x="0"
     inkscape:window-y="0"
     inkscape:window-maximized="0"
     inkscape:current-layer="svg52" />
  <title
     id="title2">Qt SVG Document</title>
  <desc
     id="desc4">Generated with Qt</desc>
  <defs
     id="defs6" />
  <g
     id="g50"
     transform="matrix(0.66666667,0,0,0.66666667,-0.66666672,-0.66666672)"
     style="fill:none;fill-rule:evenodd;stroke:#000000;stroke-width:1;stroke-linecap:square;stroke-linejoin:bevel">
    <g
       transform="translate(16,16)"
       font-size="8.25"
       font-weight="400"
       font-style="normal"
       id="g8"
       style="font-style:normal;font-weight:400;font-size:8.25px;font-family:'MS Shell Dlg 2';fill:none;stroke:#000000;stroke-width:1;stroke-linecap:square;stroke-linejoin:bevel;stroke-opacity:1" />
    <g
       transform="matrix(1.33333,0,0,1.33333,16,16)"
       font-size="8.25"
       font-weight="400"
       font-style="normal"
       id="g10"
       style="font-style:normal;font-weight:400;font-size:8.25px;font-family:'MS Shell Dlg 2';fill:none;stroke:#000000;stroke-width:1;stroke-linecap:square;stroke-linejoin:bevel;stroke-opacity:1" />
    <g
       transform="translate(1,25.375)"
       font-size="22.6771"
       font-weight="400"
       font-style="normal"
       id="g14"
       style="font-style:normal;font-weight:400;font-size:22.67709923px;font-family:icomoon;fill:#ff0000;fill-opacity:1;stroke:none">
      <path
         d="M 2.63672,-24.375 H 27.3633 c 0.7226,0 1.3428,0.2588 1.8603,0.7764 0.5176,0.5175 0.7764,1.1377 0.7764,1.8603 V 2.98828 C 30,3.71094 29.7412,4.33105 29.2236,4.84863 28.7061,5.36621 28.0859,5.625 27.3633,5.625 H 2.63672 C 1.91406,5.625 1.29395,5.36621 0.776367,4.84863 0.258789,4.33105 0,3.71094 0,2.98828 V -21.7383 c 0,-0.7226 0.258789,-1.3428 0.776367,-1.8603 0.517583,-0.5176 1.137693,-0.7764 1.860353,-0.7764"
         id="path12"
         inkscape:connector-curvature="0"
         style="vector-effect:none;fill-rule:nonzero" />
    </g>
    <g
       transform="matrix(1.33333,0,0,1.33333,16,16)"
       font-size="8.25"
       font-weight="400"
       font-style="normal"
       id="g16"
       style="font-style:normal;font-weight:400;font-size:8.25px;font-family:'MS Shell Dlg 2';fill:none;stroke:#000000;stroke-width:1;stroke-linecap:square;stroke-linejoin:bevel;stroke-opacity:1" />
    <g
       transform="translate(16,16)"
       font-size="8.25"
       font-weight="400"
       font-style="normal"
       id="g18"
       style="font-style:normal;font-weight:400;font-size:8.25px;font-family:'MS Shell Dlg 2';fill:none;stroke:#000000;stroke-width:1;stroke-linecap:square;stroke-linejoin:bevel;stroke-opacity:1" />
    <g
       font-size="8.25"
       font-weight="400"
       font-style="normal"
       id="g20"
       style="font-style:normal;font-weight:400;font-size:8.25px;font-family:'MS Shell Dlg 2';fill:none;stroke:#000000;stroke-width:1;stroke-linecap:square;stroke-linejoin:bevel;stroke-opacity:1" />
    <g
       transform="translate(16,16)"
       font-size="8.25"
       font-weight="400"
       font-style="normal"
       id="g22"
       style="font-style:normal;font-weight:400;font-size:8.25px;font-family:'MS Shell Dlg 2';fill:none;stroke:#000000;stroke-width:1;stroke-linecap:square;stroke-linejoin:bevel;stroke-opacity:1" />
    <g
       transform="matrix(1.33333,0,0,1.33333,16,16)"
       font-size="8.25"
       font-weight="400"
       font-style="normal"
       id="g24"
       style="font-style:normal;font-weight:400;font-size:8.25px;font-family:'MS Shell Dlg 2';fill:none;stroke:#000000;stroke-width:1;stroke-linecap:square;stroke-linejoin:bevel;stroke-opacity:1" />
    <g
       transform="translate(4.5,23.1875)"
       font-size="17.0078"
       font-weight="400"
       font-style="normal"
       id="g28"
       style="font-style:normal;font-weight:400;font-size:17.00779915px;font-family:icomoon;fill:#000000;fill-opacity:1;stroke:none">
      <path
         d="m 20.9785,-18.0137 c 0.3744,0 0.6926,0.1311 0.9546,0.3931 0.262,0.262 0.3931,0.5802 0.3931,0.9546 V 2.29102 c 0,0.37434 -0.1311,0.69254 -0.3931,0.95459 -0.262,0.26204 -0.5802,0.39306 -0.9546,0.39306 H 2.02148 C 1.64714,3.63867 1.32894,3.50765 1.06689,3.24561 0.80485,2.98356 0.673828,2.66536 0.673828,2.29102 V -16.666 c 0,-0.3744 0.131022,-0.6926 0.393062,-0.9546 0.26205,-0.262 0.58025,-0.3931 0.95459,-0.3931 H 20.9785 m 0,-0.6738 H 2.02148 c -0.55403,0 -1.029455,0.1984 -1.426265,0.5952 C 0.198405,-17.6955 0,-17.2201 0,-16.666 V 2.29102 C 0,2.84505 0.198405,3.32048 0.595215,3.71729 0.992025,4.1141 1.46745,4.3125 2.02148,4.3125 H 20.9785 c 0.5541,0 1.0295,-0.1984 1.4263,-0.59521 C 22.8016,3.32048 23,2.84505 23,2.29102 V -16.666 c 0,-0.5541 -0.1984,-1.0295 -0.5952,-1.4263 -0.3968,-0.3968 -0.8722,-0.5952 -1.4263,-0.5952 m -6.7832,12.84766 1.6846,-5.18846 h -1.5723 l -0.4043,1.21287 c -0.1647,-0.46417 -0.4492,-0.84607 -0.8535,-1.14547 -0.4043,-0.2995 -0.8685,-0.4493 -1.3926,-0.4493 0,0 -0.0075,0 -0.0224,0 h -0.0225 c -0.6588,0.015 -1.2728,0.1573 -1.84179,0.4268 -0.56901,0.2695 -1.05567,0.6289 -1.45996,1.07813 v 0.02246 c -0.44922,0.44922 -0.80485,0.98079 -1.0669,1.59472 -0.26204,0.61394 -0.39306,1.27279 -0.39306,1.97657 0,0.01497 0,0.02994 0,0.04492 0,0.01497 0,0.02995 0,0.04492 0,0.37435 0.05615,0.73372 0.16845,1.07813 0.11231,0.3444 0.26579,0.65885 0.46045,0.94335 0.25456,0.37435 0.58399,0.68132 0.98828,0.9209 0.4043,0.23959 0.84603,0.35938 1.3252,0.35938 0.01497,0 0.02995,0 0.04492,0 0.01497,0 0.02995,0 0.04492,0 0.52409,-0.02995 1.01079,-0.16472 1.45999,-0.4043 0.4492,-0.23958 0.831,-0.55404 1.1455,-0.94336 0.0898,0.46419 0.3069,0.81608 0.6513,1.05567 0.3444,0.23958 0.8086,0.35937 1.3926,0.35937 0,0 0.0075,0 0.0225,0 0.015,0 0.0299,0 0.0449,0 0.6888,0 1.3289,-0.146 1.9204,-0.43799 0.5915,-0.29199 1.0894,-0.68506 1.4937,-1.1792 v -0.02246 c 0.0149,0 0.0262,-0.00374 0.0337,-0.01123 0.0075,-0.00748 0.0112,-0.01872 0.0112,-0.03369 0.4792,-0.53906 0.8573,-1.15674 1.1343,-1.85303 0.277,-0.69629 0.4155,-1.43375 0.4155,-2.2124 0,-0.13476 -0.0037,-0.26953 -0.0112,-0.4043 -0.0075,-0.13476 -0.0187,-0.26204 -0.0337,-0.38183 v 0.02246 c -0.1198,-0.86849 -0.3968,-1.66589 -0.8311,-2.39209 -0.4342,-0.7262 -0.9808,-1.3439 -1.6396,-1.853 h -0.0225 c -0.7038,-0.599 -1.5011,-1.0632 -2.3921,-1.3926 -0.8909,-0.3294 -1.838,-0.4941 -2.8413,-0.4941 -0.0299,0 -0.0561,0 -0.0786,0 -0.0225,0 -0.0487,0 -0.0786,0 h 0.0224 c -0.2395,0 -0.4791,0.0112 -0.7187,0.0336 -0.2396,0.0225 -0.4717,0.0487 -0.6963,0.0787 h 0.0674 c -0.94337,0.1347 -1.82309,0.4005 -2.63917,0.7973 -0.81608,0.3968 -1.55355,0.8872 -2.2124,1.4712 l -0.08984,0.0674 c -0.10482,0.1048 -0.20215,0.2059 -0.292,0.3032 -0.08984,0.0973 -0.17968,0.1909 -0.26953,0.2808 v 0.0449 l -0.04492,0.0225 c -0.07487,0.0898 -0.14974,0.1834 -0.22461,0.2807 -0.07487,0.0974 -0.14974,0.1984 -0.22461,0.3032 -0.55403,0.7188 -0.99202,1.5311 -1.31396,2.43706 -0.32194,0.90592 -0.48291,1.85303 -0.48291,2.84131 0,0.01497 0,0.02246 0,0.02246 l 0.06738,0.85351 c 0.13477,0.94336 0.4305,1.80062 0.88721,2.57178 0.4567,0.77116 1.02946,1.43376 1.71826,1.98779 h 0.02246 c 0.7487,0.62891 1.60596,1.1230509 2.57178,1.482426 0.96582,0.359375 1.98779,0.539062 3.06596,0.539062 0.0299,0 0.0561,0 0.0786,0 0.0224,0 0.0486,0 0.0786,0 h -0.0225 c 0.7637,0 1.5049,-0.067382 2.2237,-0.202148 0.7187,-0.134766 1.4075,-0.336914 2.0664,-0.606445 l -0.0899,0.022461 c 0.7188,-0.344401 1.3889,-0.741211 2.0103,-1.190426 0.6214,-0.44922 1.1941,-0.95085 1.7182,-1.50489 l -0.4716,-0.56152 c -0.5241,0.46419 -1.0969,0.86849 -1.7183,1.21289 -0.6214,0.3444 -1.284,0.61393 -1.9878,0.80859 h -0.0674 c -0.539,0.179692 -1.1081,0.321944 -1.707,0.426762 -0.599,0.104818 -1.2204,0.164713 -1.8643,0.179687 h -0.0224 c -0.03,0 -0.0599,0 -0.0899,0 -0.0299,0 -0.0674,0 -0.1123,0 -0.92837,0 -1.80809,-0.168457 -2.63914,-0.505371 C 7.4458,-1.33643 6.71582,-1.80436 6.08691,-2.40332 v 0.02246 C 5.48796,-2.91992 5.01253,-3.5638 4.66064,-4.3125 4.30876,-5.0612 4.13281,-5.8623 4.13281,-6.71582 c 0,-0.01497 0,-0.03369 0,-0.05615 0,-0.02246 0,-0.04118 0,-0.05616 v 0.02247 c 0,-0.01498 0,-0.02247 0,-0.02247 0,-0.92838 0.1722,-1.80061 0.5166,-2.61669 0.34441,-0.81608 0.8086,-1.53858 1.39258,-2.16748 v 0.0225 l 0.56153,-0.584 c 0.6289,-0.584 1.3514,-1.0445 2.16748,-1.3814 0.81608,-0.3369 1.6883,-0.5053 2.6167,-0.5053 0.015,0 0.0262,0 0.0337,0 0.0075,0 0.0187,0 0.0337,0 h 0.292 c 0.8535,0.0149 1.6621,0.1834 2.4258,0.5053 0.7636,0.322 1.4375,0.7525 2.0214,1.2915 0.5541,0.4792 0.9921,1.0519 1.314,1.7183 0.3219,0.66633 0.4829,1.38882 0.4829,2.16747 0,0 0,0.00374 0,0.01123 0,0.00749 0,0.01123 0,0.01123 0,0.53906 -0.0823,1.05567 -0.2471,1.54981 -0.1647,0.49414 -0.3968,0.95084 -0.6962,1.37011 v -0.02246 c -0.2247,0.38933 -0.5279,0.70378 -0.9097,0.94336 -0.3819,0.23958 -0.7974,0.37435 -1.2466,0.4043 h -0.0225 c 0,0 -0.0074,0 -0.0224,0 -0.0599,0 -0.1198,-0.00375 -0.1797,-0.01123 -0.0599,-0.00749 -0.1198,-0.02621 -0.1797,-0.05615 h 0.0225 c -0.1647,-0.04493 -0.2958,-0.13477 -0.3931,-0.26954 -0.0973,-0.13476 -0.146,-0.29199 -0.146,-0.47168 0.015,-0.16471 0.0449,-0.32568 0.0898,-0.48291 0.045,-0.15722 0.0974,-0.31071 0.1573,-0.46044 l -0.0225,0.02246 M 13.207,-7.72656 c -0.0748,0.46419 -0.1909,0.90218 -0.3481,1.31396 -0.1572,0.41179 -0.3482,0.79737 -0.5728,1.15674 v -0.02246 c -0.1797,0.3444 -0.438,0.62516 -0.7749,0.84228 -0.3369,0.21713 -0.7075,0.34066 -1.1118,0.37061 -0.1797,0 -0.3481,-0.02995 -0.50536,-0.08984 C 9.73682,-4.21517 9.59082,-4.29004 9.45605,-4.37988 9.18652,-4.58952 8.97314,-4.84408 8.81592,-5.14355 8.65869,-5.44303 8.58008,-5.77246 8.58008,-6.13184 c 0,-0.01497 0,-0.03369 0,-0.05615 0,-0.02246 0.00749,-0.04866 0.02246,-0.07861 H 8.58008 c 0,0 0,-0.00375 0,-0.01123 0,-0.00749 0,-0.01872 0,-0.03369 0,-0.49414 0.07487,-0.95834 0.22461,-1.39258 0.14974,-0.43425 0.35937,-0.83854 0.6289,-1.21289 v 0.02246 c 0.20964,-0.37435 0.49414,-0.68506 0.85351,-0.93213 0.3594,-0.24704 0.7637,-0.38554 1.2129,-0.41554 0,0 0.0075,0 0.0225,0 0.1647,0 0.3256,0.0225 0.4829,0.0674 0.1572,0.0449 0.3107,0.1048 0.4604,0.17968 h -0.0224 c 0.2395,0.13477 0.4342,0.32194 0.5839,0.56153 0.1498,0.23958 0.2247,0.50911 0.2247,0.80859 0,0.02995 0,0.05615 0,0.07861 0,0.02246 0,0.04867 0,0.07862 l -0.045,0.74121"
         id="path26"
         inkscape:connector-curvature="0"
         style="vector-effect:none;fill-rule:nonzero" />
    </g>
    <g
       transform="matrix(1.33333,0,0,1.33333,16,16)"
       font-size="8.25"
       font-weight="400"
       font-style="normal"
       id="g30"
       style="font-style:normal;font-weight:400;font-size:8.25px;font-family:'MS Shell Dlg 2';fill:none;stroke:#000000;stroke-width:1;stroke-linecap:square;stroke-linejoin:bevel;stroke-opacity:1" />
    <g
       transform="translate(16,16)"
       font-size="8.25"
       font-weight="400"
       font-style="normal"
       id="g32"
       style="font-style:normal;font-weight:400;font-size:8.25px;font-family:'MS Shell Dlg 2';fill:none;stroke:#000000;stroke-width:1;stroke-linecap:square;stroke-linejoin:bevel;stroke-opacity:1" />
    <g
       font-size="8.25"
       font-weight="400"
       font-style="normal"
       id="g34"
       style="font-style:normal;font-weight:400;font-size:8.25px;font-family:'MS Shell Dlg 2';fill:none;stroke:#000000;stroke-width:1;stroke-linecap:square;stroke-linejoin:bevel;stroke-opacity:1" />
    <g
       transform="translate(16,16)"
       font-size="8.25"
       font-weight="400"
       font-style="normal"
       id="g36"
       style="font-style:normal;font-weight:400;font-size:8.25px;font-family:'MS Shell Dlg 2';fill:none;stroke:#000000;stroke-width:1;stroke-linecap:square;stroke-linejoin:bevel;stroke-opacity:1" />
    <g
       transform="matrix(1.33333,0,0,1.33333,16,16)"
       font-size="8.25"
       font-weight="400"
       font-style="normal"
       id="g38"
       style="font-style:normal;font-weight:400;font-size:8.25px;font-family:'MS Shell Dlg 2';fill:none;stroke:#000000;stroke-width:1;stroke-linecap:square;stroke-linejoin:bevel;stroke-opacity:1" />
    <g
       transform="translate(1,25.375)"
       font-size="22.6771"
       font-weight="400"
       font-style="normal"
       id="g42"
       style="font-style:normal;font-weight:400;font-size:22.67709923px;font-family:icomoon;fill:#000000;fill-opacity:1;stroke:none">
      <path
         d="m 26.4258,-22.2363 c 0.3906,0 0.7275,0.1416 1.0107,0.4248 0.2832,0.2832 0.4248,0.6201 0.4248,1.0107 V 2.05078 c 0,0.39063 -0.1416,0.72754 -0.4248,1.01074 -0.2832,0.28321 -0.6201,0.42481 -1.0107,0.42481 H 3.57422 C 3.18359,3.48633 2.84668,3.34473 2.56348,3.06152 2.28027,2.77832 2.13867,2.44141 2.13867,2.05078 V -20.8008 c 0,-0.3906 0.1416,-0.7275 0.42481,-1.0107 0.2832,-0.2832 0.62011,-0.4248 1.01074,-0.4248 H 26.4258 m 0,-0.7032 H 3.57422 c -0.58594,0 -1.08887,0.21 -1.50879,0.6299 -0.41992,0.42 -0.62988,0.9229 -0.62988,1.5088 V 2.05078 c 0,0.58594 0.20996,1.08887 0.62988,1.50879 0.41992,0.41992 0.92285,0.62988 1.50879,0.62988 H 26.4258 c 0.5859,0 1.0888,-0.20996 1.5088,-0.62988 0.4199,-0.41992 0.6299,-0.92285 0.6299,-1.50879 V -20.8008 c 0,-0.5859 -0.21,-1.0888 -0.6299,-1.5088 -0.42,-0.4199 -0.9229,-0.6299 -1.5088,-0.6299 m 1.4355,-0.7324 c 0.3907,0 0.7276,0.1416 1.0108,0.4248 0.2832,0.2832 0.4248,0.6201 0.4248,1.0108 V 3.48633 c 0,0.39062 -0.1416,0.72754 -0.4248,1.01074 -0.2832,0.2832 -0.6201,0.42481 -1.0108,0.42481 H 2.13867 C 1.74805,4.92188 1.41113,4.78027 1.12793,4.49707 0.844727,4.21387 0.703125,3.87695 0.703125,3.48633 V -22.2363 c 0,-0.3907 0.141602,-0.7276 0.424805,-1.0108 0.2832,-0.2832 0.62012,-0.4248 1.01074,-0.4248 H 27.8613 m 0,-0.7031 H 2.13867 c -0.58594,0 -1.08887,0.21 -1.508787,0.6299 C 0.209961,-23.3252 0,-22.8223 0,-22.2363 V 3.48633 C 0,4.07227 0.209961,4.5752 0.629883,4.99512 1.0498,5.41504 1.55273,5.625 2.13867,5.625 H 27.8613 c 0.586,0 1.0889,-0.20996 1.5088,-0.62988 C 29.79,4.5752 30,4.07227 30,3.48633 V -22.2363 c 0,-0.586 -0.21,-1.0889 -0.6299,-1.5088 -0.4199,-0.4199 -0.9228,-0.6299 -1.5088,-0.6299"
         id="path40"
         inkscape:connector-curvature="0"
         style="vector-effect:none;fill-rule:nonzero" />
    </g>
    <g
       transform="matrix(1.33333,0,0,1.33333,16,16)"
       font-size="8.25"
       font-weight="400"
       font-style="normal"
       id="g44"
       style="font-style:normal;font-weight:400;font-size:8.25px;font-family:'MS Shell Dlg 2';fill:none;stroke:#000000;stroke-width:1;stroke-linecap:square;stroke-linejoin:bevel;stroke-opacity:1" />
    <g
       transform="translate(16,16)"
       font-size="8.25"
       font-weight="400"
       font-style="normal"
       id="g46"
       style="font-style:normal;font-weight:400;font-size:8.25px;font-family:'MS Shell Dlg 2';fill:none;stroke:#000000;stroke-width:1;stroke-linecap:square;stroke-linejoin:bevel;stroke-opacity:1" />
    <g
       font-size="8.25"
       font-weight="400"
       font-style="normal"
       id="g48"
       style="font-style:normal;font-weight:400;font-size:8.25px;font-family:'MS Shell Dlg 2';fill:none;stroke:#000000;stroke-width:1;stroke-linecap:square;stroke-linejoin:bevel;stroke-opacity:1" />
  </g>
</svg>
