<?xml version="1.0" encoding="UTF-8" standalone="no"?>
<svg
   xmlns:dc="http://purl.org/dc/elements/1.1/"
   xmlns:cc="http://creativecommons.org/ns#"
   xmlns:rdf="http://www.w3.org/1999/02/22-rdf-syntax-ns#"
   xmlns:svg="http://www.w3.org/2000/svg"
   xmlns="http://www.w3.org/2000/svg"
   xmlns:sodipodi="http://sodipodi.sourceforge.net/DTD/sodipodi-0.dtd"
   xmlns:inkscape="http://www.inkscape.org/namespaces/inkscape"
   width="20"
   height="20"
   viewBox="0 0 20 20"
   version="1.2"
   id="svg66"
   sodipodi:docname="60204150324.svg"
   inkscape:version="0.92.4 (5da689c313, 2019-01-14)">
  <metadata
     id="metadata70">
    <rdf:RDF>
      <cc:Work
         rdf:about="">
        <dc:format>image/svg+xml</dc:format>
        <dc:type
           rdf:resource="http://purl.org/dc/dcmitype/StillImage" />
      </cc:Work>
    </rdf:RDF>
  </metadata>
  <sodipodi:namedview
     pagecolor="#ffffff"
     bordercolor="#666666"
     borderopacity="1"
     objecttolerance="10"
     gridtolerance="10"
     guidetolerance="10"
     inkscape:pageopacity="0"
     inkscape:pageshadow="2"
     inkscape:window-width="751"
     inkscape:window-height="480"
     id="namedview68"
     showgrid="false"
     inkscape:zoom="11.8"
     inkscape:cx="10"
     inkscape:cy="10"
     inkscape:window-x="0"
     inkscape:window-y="0"
     inkscape:window-maximized="0"
     inkscape:current-layer="svg66" />
  <title
     id="title2">Qt SVG Document</title>
  <desc
     id="desc4">Generated with Qt</desc>
  <defs
     id="defs6" />
  <g
     id="g64"
     transform="matrix(0.69230769,0,0,0.69230769,-1.076923,-1.076923)"
     style="fill:none;fill-rule:evenodd;stroke:#000000;stroke-width:1;stroke-linecap:square;stroke-linejoin:bevel">
    <g
       transform="translate(16,16)"
       font-size="8.25"
       font-weight="400"
       font-style="normal"
       id="g8"
       style="font-style:normal;font-weight:400;font-size:8.25px;font-family:'MS Shell Dlg 2';fill:none;stroke:#000000;stroke-width:1;stroke-linecap:square;stroke-linejoin:bevel;stroke-opacity:1" />
    <g
       transform="matrix(1.33333,0,0,1.33333,16,16)"
       font-size="8.25"
       font-weight="400"
       font-style="normal"
       id="g10"
       style="font-style:normal;font-weight:400;font-size:8.25px;font-family:'MS Shell Dlg 2';fill:none;stroke:#000000;stroke-width:1;stroke-linecap:square;stroke-linejoin:bevel;stroke-opacity:1" />
    <g
       transform="translate(3,24.125)"
       font-size="19.8425"
       font-weight="400"
       font-style="normal"
       id="g14"
       style="font-style:normal;font-weight:400;font-size:19.84250069px;font-family:icomoon;fill:#ffffff;fill-opacity:1;stroke:none">
      <path
         d="M 2.28516,-21.125 H 23.7148 c 0.6263,0 1.1638,0.2243 1.6123,0.6729 0.4486,0.4485 0.6729,0.986 0.6729,1.6123 V 2.58984 C 26,3.21615 25.7757,3.75358 25.3271,4.20215 24.8786,4.65072 24.3411,4.875 23.7148,4.875 H 2.28516 C 1.65885,4.875 1.12142,4.65072 0.672852,4.20215 0.224284,3.75358 0,3.21615 0,2.58984 V -18.8398 c 0,-0.6263 0.224284,-1.1638 0.672852,-1.6123 0.448568,-0.4486 0.985998,-0.6729 1.612308,-0.6729"
         id="path12"
         inkscape:connector-curvature="0"
         style="vector-effect:none;fill-rule:nonzero" />
    </g>
    <g
       transform="matrix(1.33333,0,0,1.33333,16,16)"
       font-size="8.25"
       font-weight="400"
       font-style="normal"
       id="g16"
       style="font-style:normal;font-weight:400;font-size:8.25px;font-family:'MS Shell Dlg 2';fill:none;stroke:#000000;stroke-width:1;stroke-linecap:square;stroke-linejoin:bevel;stroke-opacity:1" />
    <g
       transform="translate(16,16)"
       font-size="8.25"
       font-weight="400"
       font-style="normal"
       id="g18"
       style="font-style:normal;font-weight:400;font-size:8.25px;font-family:'MS Shell Dlg 2';fill:none;stroke:#000000;stroke-width:1;stroke-linecap:square;stroke-linejoin:bevel;stroke-opacity:1" />
    <g
       font-size="8.25"
       font-weight="400"
       font-style="normal"
       id="g20"
       style="font-style:normal;font-weight:400;font-size:8.25px;font-family:'MS Shell Dlg 2';fill:none;stroke:#000000;stroke-width:1;stroke-linecap:square;stroke-linejoin:bevel;stroke-opacity:1" />
    <g
       transform="translate(16,16)"
       font-size="8.25"
       font-weight="400"
       font-style="normal"
       id="g22"
       style="font-style:normal;font-weight:400;font-size:8.25px;font-family:'MS Shell Dlg 2';fill:none;stroke:#000000;stroke-width:1;stroke-linecap:square;stroke-linejoin:bevel;stroke-opacity:1" />
    <g
       transform="matrix(1.33333,0,0,1.33333,16,16)"
       font-size="8.25"
       font-weight="400"
       font-style="normal"
       id="g24"
       style="font-style:normal;font-weight:400;font-size:8.25px;font-family:'MS Shell Dlg 2';fill:none;stroke:#000000;stroke-width:1;stroke-linecap:square;stroke-linejoin:bevel;stroke-opacity:1" />
    <g
       transform="translate(4.5,23.1875)"
       font-size="17.0078"
       font-weight="400"
       font-style="normal"
       id="g28"
       style="font-style:normal;font-weight:400;font-size:17.00779915px;font-family:icomoon;fill:#000000;fill-opacity:1;stroke:none">
      <path
         d="m 20.9785,-18.0137 c 0.3744,0 0.6926,0.1311 0.9546,0.3931 0.262,0.262 0.3931,0.5802 0.3931,0.9546 V 2.29102 c 0,0.37434 -0.1311,0.69254 -0.3931,0.95459 -0.262,0.26204 -0.5802,0.39306 -0.9546,0.39306 H 2.02148 C 1.64714,3.63867 1.32894,3.50765 1.06689,3.24561 0.80485,2.98356 0.673828,2.66536 0.673828,2.29102 V -16.666 c 0,-0.3744 0.131022,-0.6926 0.393062,-0.9546 0.26205,-0.262 0.58025,-0.3931 0.95459,-0.3931 H 20.9785 m 0,-0.6738 H 2.02148 c -0.55403,0 -1.029455,0.1984 -1.426265,0.5952 C 0.198405,-17.6955 0,-17.2201 0,-16.666 V 2.29102 C 0,2.84505 0.198405,3.32048 0.595215,3.71729 0.992025,4.1141 1.46745,4.3125 2.02148,4.3125 H 20.9785 c 0.5541,0 1.0295,-0.1984 1.4263,-0.59521 C 22.8016,3.32048 23,2.84505 23,2.29102 V -16.666 c 0,-0.5541 -0.1984,-1.0295 -0.5952,-1.4263 -0.3968,-0.3968 -0.8722,-0.5952 -1.4263,-0.5952 M 15.8799,-0.426758 14.2627,-5.05371 c 0.8385,-0.44922 1.5199,-1.07813 2.0439,-1.88672 0.5241,-0.80859 0.7937,-1.70703 0.8086,-2.69531 -0.0149,-0.64386 -0.1422,-1.25036 -0.3818,-1.81936 -0.2246,-0.569 -0.5316,-1.0818 -0.9209,-1.5386 -0.3893,-0.4567 -0.846,-0.8348 -1.3701,-1.1342 -0.5091,-0.3145 -1.0707,-0.5316 -1.6846,-0.6514 h -0.0224 c -0.015,0 -0.03,-0.0037 -0.045,-0.0112 -0.0149,-0.0075 -0.0224,-0.0113 -0.0224,-0.0113 -0.1048,0 -0.1909,0.0337 -0.2583,0.1011 -0.0674,0.0674 -0.1011,0.1535 -0.1011,0.2583 0,0.0749 0.0262,0.146 0.0786,0.2134 0.0524,0.0674 0.1161,0.1086 0.1909,0.1235 1.0782,0.2097 1.9803,0.73 2.7066,1.5611 0.7262,0.831 1.1118,1.8006 1.1567,2.90866 -0.015,0.85351 -0.2396,1.62467 -0.6738,2.31347 -0.4343,0.68881 -1.0033,1.22038 -1.7071,1.59473 l -0.0224,0.02246 c 0,-0.05989 -0.0112,-0.11979 -0.0337,-0.17969 -0.0225,-0.05989 -0.0562,-0.1123 -0.1011,-0.15722 h 0.0225 L 13.6563,-6.7832 c 0.4941,-0.28451 0.8909,-0.67757 1.1904,-1.1792 0.2995,-0.50163 0.4492,-1.05941 0.4492,-1.67334 -0.015,-0.73376 -0.2358,-1.38886 -0.6626,-1.96536 -0.4268,-0.5765 -0.977,-0.9845 -1.6509,-1.2241 H 12.96 c -0.015,-0.015 -0.0337,-0.0262 -0.0562,-0.0337 -0.0225,-0.0075 -0.0412,-0.0112 -0.0561,-0.0112 -0.0749,0 -0.1386,0.0224 -0.191,0.0674 -0.0524,0.0449 -0.0935,0.0973 -0.1235,0.1572 0,0.015 -0.0037,0.0337 -0.0112,0.0561 -0.0075,0.0225 -0.0113,0.0487 -0.0113,0.0787 0,0.0599 0.0188,0.1197 0.0562,0.1796 0.0374,0.0599 0.0861,0.0974 0.146,0.1123 l 0.0225,0.0225 c 0.539,0.1797 0.9845,0.5016 1.3364,0.9658 0.3519,0.4642 0.5353,0.9958 0.5503,1.59476 0,0.32942 -0.0562,0.63639 -0.1685,0.9209 -0.1123,0.2845 -0.2658,0.53906 -0.4604,0.76367 -0.045,-0.07487 -0.1049,-0.13477 -0.1797,-0.17969 -0.0749,-0.04492 -0.1572,-0.06738 -0.2471,-0.06738 h -1.3926 v -0.5166 h 0.7188 c 0.0898,0 0.1684,-0.0337 0.2358,-0.10108 0.0674,-0.06738 0.1011,-0.14599 0.1011,-0.23584 0,-0.08984 -0.0337,-0.16845 -0.1011,-0.23584 -0.0674,-0.06738 -0.146,-0.10107 -0.2358,-0.10107 h -0.7188 v -0.67383 h 0.7188 c 0.0898,0 0.1684,-0.0337 0.2358,-0.1011 0.0674,-0.0674 0.1011,-0.146 0.1011,-0.2358 0,-0.0899 -0.0337,-0.1685 -0.1011,-0.2359 -0.0674,-0.0673 -0.146,-0.101 -0.2358,-0.101 h -0.7188 v -1.3477 c 0,-0.1946 -0.0674,-0.3556 -0.2021,-0.4829 -0.1348,-0.1273 -0.292,-0.1909 -0.4717,-0.1909 -0.1797,0 -0.3369,0.0636 -0.4717,0.1909 -0.1347,0.1273 -0.2021,0.2883 -0.2021,0.4829 v 1.3477 h -0.6514 c -0.0898,0 -0.1685,0.0337 -0.23584,0.101 -0.06738,0.0674 -0.10107,0.146 -0.10107,0.2359 0,0.0898 0.03369,0.1684 0.10107,0.2358 0.06734,0.0674 0.14604,0.1011 0.23584,0.1011 h 0.6514 v 0.67383 h -0.6514 c -0.0898,0 -0.1685,0.03369 -0.23584,0.10107 -0.06738,0.06739 -0.10107,0.146 -0.10107,0.23584 0,0.08985 0.03369,0.16846 0.10107,0.23584 0.06734,0.06738 0.14604,0.10108 0.23584,0.10108 h 0.6514 v 0.5166 H 9.52344 c -0.10482,0 -0.19841,0.0262 -0.28076,0.07861 -0.08236,0.05241 -0.146,0.13102 -0.19092,0.23584 C 8.84212,-8.12337 8.67741,-8.38916 8.55762,-8.68115 8.43783,-8.97314 8.37793,-9.29134 8.37793,-9.63574 c 0.01497,-0.59896 0.1984,-1.13056 0.55029,-1.59476 0.35189,-0.4642 0.78988,-0.7861 1.31398,-0.9658 h 0.0224 c 0.0599,-0.0299 0.1124,-0.0749 0.1573,-0.1348 0.0449,-0.0599 0.0674,-0.1197 0.0674,-0.1796 0,-0.03 -0.0038,-0.0562 -0.0113,-0.0787 -0.0075,-0.0224 -0.0112,-0.0411 -0.0112,-0.0561 -0.03,-0.0599 -0.0711,-0.1086 -0.1235,-0.146 -0.0524,-0.0374 -0.1161,-0.0562 -0.191,-0.0562 -0.0299,0 -0.0524,0 -0.0673,0 -0.015,0 -0.03,0.0075 -0.045,0.0225 -0.67379,0.2246 -1.22783,0.6289 -1.66207,1.2129 -0.43425,0.584 -0.65885,1.2428 -0.67383,1.97656 0,0.6289 0.15723,1.19791 0.47168,1.70703 0.31445,0.50911 0.72624,0.90592 1.23535,1.19043 l 0.02246,0.02246 -0.38183,1.05566 C 8.31803,-6.03451 7.72282,-6.57357 7.26611,-7.27734 6.80941,-7.98112 6.57357,-8.75977 6.55859,-9.61328 v -0.02246 c 0.04493,-1.10806 0.42676,-2.07766 1.14551,-2.90866 0.71875,-0.8311 1.6097,-1.3514 2.6729,-1.5611 h 0.0449 c 0.0748,-0.0149 0.1385,-0.0561 0.1909,-0.1235 0.0524,-0.0674 0.0786,-0.1385 0.0786,-0.2134 0,-0.1048 -0.0337,-0.1909 -0.1011,-0.2583 -0.0674,-0.0674 -0.1535,-0.1011 -0.2583,-0.1011 0,0 -0.0075,0.0038 -0.0224,0.0113 -0.015,0.0075 -0.03,0.0112 -0.045,0.0112 -0.61388,0.1198 -1.18289,0.3369 -1.70698,0.6514 -0.52409,0.2994 -0.9808,0.6775 -1.37012,1.1342 -0.38932,0.4568 -0.69629,0.9696 -0.9209,1.5386 -0.23958,0.569 -0.36686,1.168 -0.38183,1.7969 v 0.02246 c 0.01497,1.00325 0.28824,1.91666 0.81982,2.74023 0.53158,0.82357 1.21663,1.45248 2.05518,1.88672 h 0.04492 l -1.66211,4.739259 c 0,0 0,0.003743 0,0.01123 0,0.007487 0,0.011231 0,0.011231 0,0 0,0.007487 0,0.022461 0,0.014974 0,0.029948 0,0.044921 0,0.014974 0,0.029948 0,0.044922 v 0.0898441 c 0,0.014974 0,0.0262045 0,0.0336914 0,0.00748701 0,0.0112305 0,0.0112305 0,0.014974 0,0.0262044 0,0.0336914 0,0.007487 0,0.0187175 0,0.0336914 0.01497,0.014974 0.0262,0.0299479 0.03369,0.0449222 0.00749,0.014974 0.01123,0.029948 0.01123,0.044922 0,0 0.00374,0 0.01123,0 0.00749,0 0.01872,0.007487 0.03369,0.022461 0.01498,0.029947 0.03369,0.052408 0.05615,0.067382 0.02247,0.014974 0.04118,0.029948 0.05616,0.044922 l 0.06738,0.044922 c 0,0 0.01497,0 0.04492,0 0,0 0.00749,0 0.02246,0 0.01498,0 0.02995,0 0.04492,0 0.01498,0 0.02995,0 0.04493,0 0.01497,0 0.02994,0 0.04492,0 0.01497,0 0.02995,0 0.04492,0 0.01497,0 0.02246,0 0.02246,0 0.01497,0 0.02995,0 0.04492,0 0.01498,0 0.02995,0 0.04492,0 h 0.11231 l 3.63871,-2.403324 3.5488,2.31348 c 0.0449,0.059896 0.0973,0.101075 0.1572,0.123535 0.0599,0.022461 0.1273,0.041179 0.2022,0.056153 h 0.0449 c 0,0 0.0037,0 0.0112,0 0.0075,0 0.0112,0 0.0112,0 0.015,0 0.0263,0 0.0337,0 0.0075,0 0.0113,0 0.0113,0 h 0.0674 c 0.0598,-0.029948 0.116,-0.059896 0.1684,-0.089844 0.0524,-0.029948 0.0936,-0.067383 0.1235,-0.112305 0.03,-0.044921 0.0525,-0.093587 0.0674,-0.1459957 0.015,-0.0524089 0.0225,-0.1085612 0.0225,-0.1684571 0,-0.0598962 -0.0112,-0.1197912 -0.0337,-0.1796872 -0.0225,-0.059896 -0.0487,-0.112305 -0.0786,-0.157227 m -5.4131,-6.199222 0.1797,-0.53906 h 0.4267 c 0.0599,0.04492 0.1273,0.08236 0.2022,0.11231 0.0749,0.02994 0.1497,0.04492 0.2246,0.04492 0.0898,0 0.1722,-0.01498 0.2471,-0.04492 0.0748,-0.02995 0.1422,-0.06739 0.2021,-0.11231 h 0.4942 l 0.0898,0.29199 c 0,0.02995 -0.0037,0.05616 -0.0112,0.07862 -0.0075,0.02246 -0.0113,0.04117 -0.0113,0.05615 0,0.02995 0.0038,0.05615 0.0113,0.07861 0.0075,0.02246 0.0112,0.04867 0.0112,0.07862 0.015,0.02994 0.0374,0.05989 0.0674,0.08984 0.0299,0.02995 0.0674,0.05241 0.1123,0.06738 l 0.0674,0.22461 h -2.4707 l 0.1572,-0.42676 m -0.0449,1.45996 -0.1797,-0.04492 h 2.5156 l -0.1797,0.04492 c -0.0748,0.01498 -0.1422,0.05616 -0.2021,0.12354 -0.0599,0.06738 -0.0899,0.13851 -0.0899,0.21338 0,0.10482 0.0337,0.19092 0.1011,0.2583 0.0674,0.06738 0.146,0.10107 0.2358,0.10107 0,0 0.0038,0 0.0113,0 0.0075,0 0.0187,-0.00748 0.0337,-0.02246 h 0.0674 c 0.1197,-0.01497 0.2283,-0.03743 0.3256,-0.06738 0.0974,-0.02995 0.1984,-0.0599 0.3033,-0.08984 h -0.045 l 0.045,0.15722 -1.7969,1.19043 -1.84181,-1.21289 v -0.1123 c 0.07487,0.02994 0.15348,0.05615 0.23584,0.07861 0.08237,0.02246 0.16847,0.04118 0.25827,0.05615 h 0.0225 0.0674 c 0,0 0.0037,0 0.0112,0 0.0075,0 0.0187,0 0.0337,0 0.0898,0 0.1684,-0.03369 0.2358,-0.10107 0.0674,-0.06738 0.1011,-0.146 0.1011,-0.23584 0,-0.08985 -0.0299,-0.16472 -0.0898,-0.22461 -0.0599,-0.0599 -0.1348,-0.09733 -0.2246,-0.11231 h 0.0449 m -1.7969,3.7959 0.76367,-2.15625 1.25783,0.83106 -2.0215,1.32519 m 5.0986,-2.15625 0.7412,2.13379 -1.9765,-1.30273 1.2353,-0.83106"
         id="path26"
         inkscape:connector-curvature="0"
         style="vector-effect:none;fill-rule:nonzero" />
    </g>
    <g
       transform="matrix(1.33333,0,0,1.33333,16,16)"
       font-size="8.25"
       font-weight="400"
       font-style="normal"
       id="g30"
       style="font-style:normal;font-weight:400;font-size:8.25px;font-family:'MS Shell Dlg 2';fill:none;stroke:#000000;stroke-width:1;stroke-linecap:square;stroke-linejoin:bevel;stroke-opacity:1" />
    <g
       transform="translate(16,16)"
       font-size="8.25"
       font-weight="400"
       font-style="normal"
       id="g32"
       style="font-style:normal;font-weight:400;font-size:8.25px;font-family:'MS Shell Dlg 2';fill:none;stroke:#000000;stroke-width:1;stroke-linecap:square;stroke-linejoin:bevel;stroke-opacity:1" />
    <g
       font-size="8.25"
       font-weight="400"
       font-style="normal"
       id="g34"
       style="font-style:normal;font-weight:400;font-size:8.25px;font-family:'MS Shell Dlg 2';fill:none;stroke:#000000;stroke-width:1;stroke-linecap:square;stroke-linejoin:bevel;stroke-opacity:1" />
    <g
       transform="translate(16,16)"
       font-size="8.25"
       font-weight="400"
       font-style="normal"
       id="g36"
       style="font-style:normal;font-weight:400;font-size:8.25px;font-family:'MS Shell Dlg 2';fill:none;stroke:#000000;stroke-width:1;stroke-linecap:square;stroke-linejoin:bevel;stroke-opacity:1" />
    <g
       transform="matrix(1.33333,0,0,1.33333,16,16)"
       font-size="8.25"
       font-weight="400"
       font-style="normal"
       id="g38"
       style="font-style:normal;font-weight:400;font-size:8.25px;font-family:'MS Shell Dlg 2';fill:none;stroke:#000000;stroke-width:1;stroke-linecap:square;stroke-linejoin:bevel;stroke-opacity:1" />
    <g
       transform="translate(3,24.125)"
       font-size="19.8425"
       font-weight="400"
       font-style="normal"
       id="g42"
       style="font-style:normal;font-weight:400;font-size:19.84250069px;font-family:icomoon;fill:#000000;fill-opacity:1;stroke:none">
      <path
         d="m 23.9434,-20.4395 c 0.3724,0 0.694,0.1355 0.9648,0.4063 0.2708,0.2708 0.4063,0.5924 0.4063,0.9648 V 2.81836 c 0,0.3724 -0.1355,0.69401 -0.4063,0.96484 -0.2708,0.27084 -0.5924,0.40625 -0.9648,0.40625 H 2.05664 C 1.68424,4.18945 1.36263,4.05404 1.0918,3.7832 0.820964,3.51237 0.685547,3.19076 0.685547,2.81836 V -19.0684 c 0,-0.3724 0.135417,-0.694 0.406253,-0.9648 0.27083,-0.2708 0.59244,-0.4063 0.96484,-0.4063 H 23.9434 m 0,-0.6855 H 2.05664 c -0.57552,0 -1.062174,0.1989 -1.45996,0.5967 C 0.198893,-20.1305 0,-19.6439 0,-19.0684 V 2.81836 C 0,3.39388 0.198893,3.88053 0.59668,4.27832 0.994466,4.67611 1.48112,4.875 2.05664,4.875 H 23.9434 c 0.5755,0 1.0621,-0.19889 1.4599,-0.59668 C 25.8011,3.88053 26,3.39388 26,2.81836 V -19.0684 c 0,-0.5755 -0.1989,-1.0621 -0.5967,-1.4599 -0.3978,-0.3978 -0.8844,-0.5967 -1.4599,-0.5967"
         id="path40"
         inkscape:connector-curvature="0"
         style="vector-effect:none;fill-rule:nonzero" />
    </g>
    <g
       transform="matrix(1.33333,0,0,1.33333,16,16)"
       font-size="8.25"
       font-weight="400"
       font-style="normal"
       id="g44"
       style="font-style:normal;font-weight:400;font-size:8.25px;font-family:'MS Shell Dlg 2';fill:none;stroke:#000000;stroke-width:1;stroke-linecap:square;stroke-linejoin:bevel;stroke-opacity:1" />
    <g
       transform="translate(16,16)"
       font-size="8.25"
       font-weight="400"
       font-style="normal"
       id="g46"
       style="font-style:normal;font-weight:400;font-size:8.25px;font-family:'MS Shell Dlg 2';fill:none;stroke:#000000;stroke-width:1;stroke-linecap:square;stroke-linejoin:bevel;stroke-opacity:1" />
    <g
       font-size="8.25"
       font-weight="400"
       font-style="normal"
       id="g48"
       style="font-style:normal;font-weight:400;font-size:8.25px;font-family:'MS Shell Dlg 2';fill:none;stroke:#000000;stroke-width:1;stroke-linecap:square;stroke-linejoin:bevel;stroke-opacity:1" />
    <g
       transform="translate(16,16)"
       font-size="8.25"
       font-weight="400"
       font-style="normal"
       id="g50"
       style="font-style:normal;font-weight:400;font-size:8.25px;font-family:'MS Shell Dlg 2';fill:none;stroke:#000000;stroke-width:1;stroke-linecap:square;stroke-linejoin:bevel;stroke-opacity:1" />
    <g
       transform="matrix(1.33333,0,0,1.33333,16,16)"
       font-size="8.25"
       font-weight="400"
       font-style="normal"
       id="g52"
       style="font-style:normal;font-weight:400;font-size:8.25px;font-family:'MS Shell Dlg 2';fill:none;stroke:#000000;stroke-width:1;stroke-linecap:square;stroke-linejoin:bevel;stroke-opacity:1" />
    <g
       transform="translate(3.5,23.8125)"
       font-size="18.7086"
       font-weight="400"
       font-style="normal"
       id="g56"
       style="font-style:normal;font-weight:400;font-size:18.70859909px;font-family:icomoon;fill:#ff0000;fill-opacity:1;stroke:none">
      <path
         d="M 0.78125,4.6875 C 0.667318,4.6875 0.565592,4.66715 0.476074,4.62646 0.386556,4.58577 0.301107,4.53288 0.219727,4.46777 0.154622,4.38639 0.101725,4.30094 0.0610352,4.21143 0.0203451,4.12191 0,4.02018 0,3.90625 0,3.79232 0.0203451,3.69059 0.0610352,3.60107 0.101725,3.51156 0.154622,3.42611 0.219727,3.34473 L 23.6572,-20.0928 c 0.0814,-0.0651 0.1669,-0.118 0.2564,-0.1587 0.0895,-0.0407 0.1912,-0.061 0.3052,-0.061 0.2115,0 0.3946,0.0773 0.5493,0.2319 0.1546,0.1547 0.2319,0.3378 0.2319,0.5493 0,0.114 -0.0203,0.2157 -0.061,0.3052 -0.0407,0.0895 -0.0936,0.175 -0.1587,0.2564 L 1.34277,4.46777 C 1.26139,4.53288 1.17594,4.58577 1.08643,4.62646 0.996908,4.66715 0.895182,4.6875 0.78125,4.6875"
         id="path54"
         inkscape:connector-curvature="0"
         style="vector-effect:none;fill-rule:nonzero" />
    </g>
    <g
       transform="matrix(1.33333,0,0,1.33333,16,16)"
       font-size="8.25"
       font-weight="400"
       font-style="normal"
       id="g58"
       style="font-style:normal;font-weight:400;font-size:8.25px;font-family:'MS Shell Dlg 2';fill:none;stroke:#000000;stroke-width:1;stroke-linecap:square;stroke-linejoin:bevel;stroke-opacity:1" />
    <g
       transform="translate(16,16)"
       font-size="8.25"
       font-weight="400"
       font-style="normal"
       id="g60"
       style="font-style:normal;font-weight:400;font-size:8.25px;font-family:'MS Shell Dlg 2';fill:none;stroke:#000000;stroke-width:1;stroke-linecap:square;stroke-linejoin:bevel;stroke-opacity:1" />
    <g
       font-size="8.25"
       font-weight="400"
       font-style="normal"
       id="g62"
       style="font-style:normal;font-weight:400;font-size:8.25px;font-family:'MS Shell Dlg 2';fill:none;stroke:#000000;stroke-width:1;stroke-linecap:square;stroke-linejoin:bevel;stroke-opacity:1" />
  </g>
</svg>
