<?xml version="1.0" encoding="UTF-8" standalone="no"?>
<svg
   xmlns:dc="http://purl.org/dc/elements/1.1/"
   xmlns:cc="http://creativecommons.org/ns#"
   xmlns:rdf="http://www.w3.org/1999/02/22-rdf-syntax-ns#"
   xmlns:svg="http://www.w3.org/2000/svg"
   xmlns="http://www.w3.org/2000/svg"
   xmlns:sodipodi="http://sodipodi.sourceforge.net/DTD/sodipodi-0.dtd"
   xmlns:inkscape="http://www.inkscape.org/namespaces/inkscape"
   width="20"
   height="20"
   viewBox="0 0 20 20"
   version="1.2"
   id="svg52"
   sodipodi:docname="60204150423.svg"
   inkscape:version="0.92.4 (5da689c313, 2019-01-14)">
  <metadata
     id="metadata56">
    <rdf:RDF>
      <cc:Work
         rdf:about="">
        <dc:format>image/svg+xml</dc:format>
        <dc:type
           rdf:resource="http://purl.org/dc/dcmitype/StillImage" />
      </cc:Work>
    </rdf:RDF>
  </metadata>
  <sodipodi:namedview
     pagecolor="#ffffff"
     bordercolor="#666666"
     borderopacity="1"
     objecttolerance="10"
     gridtolerance="10"
     guidetolerance="10"
     inkscape:pageopacity="0"
     inkscape:pageshadow="2"
     inkscape:window-width="751"
     inkscape:window-height="480"
     id="namedview54"
     showgrid="false"
     inkscape:zoom="11.8"
     inkscape:cx="10"
     inkscape:cy="10"
     inkscape:window-x="0"
     inkscape:window-y="0"
     inkscape:window-maximized="0"
     inkscape:current-layer="svg52" />
  <title
     id="title2">Qt SVG Document</title>
  <desc
     id="desc4">Generated with Qt</desc>
  <defs
     id="defs6" />
  <g
     id="g50"
     transform="matrix(0.69230769,0,0,0.69230769,-1.076923,-1.076923)"
     style="fill:none;fill-rule:evenodd;stroke:#000000;stroke-width:1;stroke-linecap:square;stroke-linejoin:bevel">
    <g
       transform="translate(16,16)"
       font-size="8.25"
       font-weight="400"
       font-style="normal"
       id="g8"
       style="font-style:normal;font-weight:400;font-size:8.25px;font-family:'MS Shell Dlg 2';fill:none;stroke:#000000;stroke-width:1;stroke-linecap:square;stroke-linejoin:bevel;stroke-opacity:1" />
    <g
       transform="matrix(1.33333,0,0,1.33333,16,16)"
       font-size="8.25"
       font-weight="400"
       font-style="normal"
       id="g10"
       style="font-style:normal;font-weight:400;font-size:8.25px;font-family:'MS Shell Dlg 2';fill:none;stroke:#000000;stroke-width:1;stroke-linecap:square;stroke-linejoin:bevel;stroke-opacity:1" />
    <g
       transform="translate(3,24.125)"
       font-size="19.8425"
       font-weight="400"
       font-style="normal"
       id="g14"
       style="font-style:normal;font-weight:400;font-size:19.84250069px;font-family:icomoon;fill:#ffff00;fill-opacity:1;stroke:none">
      <path
         d="M 2.28516,-21.125 H 23.7148 c 0.6263,0 1.1638,0.2243 1.6123,0.6729 0.4486,0.4485 0.6729,0.986 0.6729,1.6123 V 2.58984 C 26,3.21615 25.7757,3.75358 25.3271,4.20215 24.8786,4.65072 24.3411,4.875 23.7148,4.875 H 2.28516 C 1.65885,4.875 1.12142,4.65072 0.672852,4.20215 0.224284,3.75358 0,3.21615 0,2.58984 V -18.8398 c 0,-0.6263 0.224284,-1.1638 0.672852,-1.6123 0.448568,-0.4486 0.985998,-0.6729 1.612308,-0.6729"
         id="path12"
         inkscape:connector-curvature="0"
         style="vector-effect:none;fill-rule:nonzero" />
    </g>
    <g
       transform="matrix(1.33333,0,0,1.33333,16,16)"
       font-size="8.25"
       font-weight="400"
       font-style="normal"
       id="g16"
       style="font-style:normal;font-weight:400;font-size:8.25px;font-family:'MS Shell Dlg 2';fill:none;stroke:#000000;stroke-width:1;stroke-linecap:square;stroke-linejoin:bevel;stroke-opacity:1" />
    <g
       transform="translate(16,16)"
       font-size="8.25"
       font-weight="400"
       font-style="normal"
       id="g18"
       style="font-style:normal;font-weight:400;font-size:8.25px;font-family:'MS Shell Dlg 2';fill:none;stroke:#000000;stroke-width:1;stroke-linecap:square;stroke-linejoin:bevel;stroke-opacity:1" />
    <g
       font-size="8.25"
       font-weight="400"
       font-style="normal"
       id="g20"
       style="font-style:normal;font-weight:400;font-size:8.25px;font-family:'MS Shell Dlg 2';fill:none;stroke:#000000;stroke-width:1;stroke-linecap:square;stroke-linejoin:bevel;stroke-opacity:1" />
    <g
       transform="translate(16,16)"
       font-size="8.25"
       font-weight="400"
       font-style="normal"
       id="g22"
       style="font-style:normal;font-weight:400;font-size:8.25px;font-family:'MS Shell Dlg 2';fill:none;stroke:#000000;stroke-width:1;stroke-linecap:square;stroke-linejoin:bevel;stroke-opacity:1" />
    <g
       transform="matrix(1.33333,0,0,1.33333,16,16)"
       font-size="8.25"
       font-weight="400"
       font-style="normal"
       id="g24"
       style="font-style:normal;font-weight:400;font-size:8.25px;font-family:'MS Shell Dlg 2';fill:none;stroke:#000000;stroke-width:1;stroke-linecap:square;stroke-linejoin:bevel;stroke-opacity:1" />
    <g
       transform="translate(4.5,23.1875)"
       font-size="17.0078"
       font-weight="400"
       font-style="normal"
       id="g28"
       style="font-style:normal;font-weight:400;font-size:17.00779915px;font-family:icomoon;fill:#000000;fill-opacity:1;stroke:none">
      <path
         d="m 20.9785,-18.0137 c 0.3744,0 0.6926,0.1311 0.9546,0.3931 0.262,0.262 0.3931,0.5802 0.3931,0.9546 V 2.29102 c 0,0.37434 -0.1311,0.69254 -0.3931,0.95459 -0.262,0.26204 -0.5802,0.39306 -0.9546,0.39306 H 2.02148 C 1.64714,3.63867 1.32894,3.50765 1.06689,3.24561 0.80485,2.98356 0.673828,2.66536 0.673828,2.29102 V -16.666 c 0,-0.3744 0.131022,-0.6926 0.393062,-0.9546 0.26205,-0.262 0.58025,-0.3931 0.95459,-0.3931 H 20.9785 m 0,-0.6738 H 2.02148 c -0.55403,0 -1.029455,0.1984 -1.426265,0.5952 C 0.198405,-17.6955 0,-17.2201 0,-16.666 V 2.29102 C 0,2.84505 0.198405,3.32048 0.595215,3.71729 0.992025,4.1141 1.46745,4.3125 2.02148,4.3125 H 20.9785 c 0.5541,0 1.0295,-0.1984 1.4263,-0.59521 C 22.8016,3.32048 23,2.84505 23,2.29102 V -16.666 c 0,-0.5541 -0.1984,-1.0295 -0.5952,-1.4263 -0.3968,-0.3968 -0.8722,-0.5952 -1.4263,-0.5952 m -14.53221,7.9961 c -0.4043,-0.2396 -0.72998,-0.5653 -0.97705,-0.9771 -0.24707,-0.4117 -0.37061,-0.8647 -0.37061,-1.3588 0,-0.015 0,-0.0337 0,-0.0562 0,-0.0225 0,-0.0412 0,-0.0561 v 0.0224 c 0,-0.015 0,-0.0299 0,-0.0449 0,-0.015 0,-0.03 0,-0.0449 0,-0.5091 0.12354,-0.9696 0.37061,-1.3814 0.24707,-0.4118 0.57275,-0.7374 0.97705,-0.977 0.08984,-0.045 0.16097,-0.1086 0.21338,-0.1909 0.05241,-0.0824 0.07861,-0.1685 0.07861,-0.2583 0,-0.045 -0.00374,-0.0861 -0.01123,-0.1236 -0.00749,-0.0374 -0.01872,-0.0711 -0.03369,-0.1011 -0.04492,-0.0748 -0.10856,-0.1385 -0.19092,-0.1909 -0.08236,-0.0524 -0.17594,-0.0786 -0.28076,-0.0786 -0.02995,0 -0.06364,0.0038 -0.10107,0.0112 -0.03744,0.0075 -0.07862,0.0188 -0.12354,0.0337 -0.56901,0.3145 -1.02946,0.76 -1.38135,1.3365 -0.35189,0.5765 -0.52783,1.2091 -0.52783,1.8979 0,0.015 0,0.0337 0,0.0562 0,0.0224 0,0.0411 0,0.0561 0,0.015 0,0.03 0,0.0449 0,0.015 0,0.0375 0,0.0674 0,0.6888 0.17594,1.3177 0.52783,1.8867 0.35189,0.569 0.80485,1.0108 1.35889,1.32523 l 0.02246,0.02246 c 0.02995,0.01498 0.06364,0.02621 0.10107,0.03369 0.03744,0.00749 0.07862,0.01123 0.12354,0.01123 0.14974,0 0.27327,-0.04866 0.37061,-0.14599 0.09733,-0.09733 0.14599,-0.22082 0.14599,-0.37062 0,-0.0898 -0.0262,-0.1759 -0.07861,-0.2583 -0.05241,-0.0823 -0.12354,-0.146 -0.21338,-0.1909 m 2.26855,0.92089 c 0.02995,0.01498 0.06364,0.02621 0.10108,0.03369 0.03743,0.00749 0.07861,0.01123 0.12353,0.01123 0.13477,0 0.25082,-0.04866 0.34815,-0.14599 0.09733,-0.09733 0.14599,-0.22082 0.14599,-0.37062 0,-0.0898 -0.0262,-0.1759 -0.07861,-0.2583 -0.05241,-0.0823 -0.11605,-0.146 -0.19092,-0.1909 -0.40429,-0.2396 -0.73372,-0.5653 -0.98828,-0.9771 -0.25456,-0.4117 -0.38183,-0.8647 -0.38183,-1.3588 0,-0.015 0.00374,-0.0337 0.01123,-0.0562 0.00748,-0.0225 0.01123,-0.0412 0.01123,-0.0561 v 0.0224 c 0,-0.015 -0.00375,-0.0299 -0.01123,-0.0449 -0.00749,-0.015 -0.01123,-0.03 -0.01123,-0.0449 0,-0.5091 0.12353,-0.9696 0.3706,-1.3814 0.24707,-0.4118 0.57275,-0.7374 0.97705,-0.977 h 0.02246 c 0.07487,-0.045 0.13851,-0.1086 0.19092,-0.1909 0.05241,-0.0824 0.07861,-0.1685 0.07861,-0.2583 0,-0.045 -0.00374,-0.0861 -0.01123,-0.1236 -0.00748,-0.0374 -0.01871,-0.0711 -0.03369,-0.1011 -0.04492,-0.0748 -0.10856,-0.1385 -0.19092,-0.1909 -0.08235,-0.0524 -0.16845,-0.0786 -0.2583,-0.0786 -0.04492,0 -0.0861,0.0038 -0.12353,0.0112 -0.03744,0.0075 -0.07113,0.0188 -0.10108,0.0337 -0.56901,0.3295 -1.02946,0.7787 -1.38134,1.3477 -0.35189,0.569 -0.52784,1.1979 -0.52784,1.8867 0,0.015 0,0.0337 0,0.0562 0,0.0224 0,0.0411 0,0.0561 0,0.015 0,0.0337 0,0.0562 0,0.0224 0,0.0411 0,0.0561 0,0.6888 0.1722,1.3177 0.51661,1.8867 0.3444,0.569 0.8011,1.0108 1.37011,1.32523 l 0.02246,0.02246 m 8.28806,-6.69339 c -0.0299,-0.0149 -0.0636,-0.0262 -0.101,-0.0337 -0.0375,-0.0074 -0.0787,-0.0112 -0.1236,-0.0112 -0.1048,0 -0.1946,0.0225 -0.2695,0.0674 -0.0749,0.0449 -0.1348,0.1123 -0.1797,0.2021 -0.015,0.03 -0.0299,0.0637 -0.0449,0.1011 -0.015,0.0375 -0.0225,0.0786 -0.0225,0.1236 0,0.1048 0.0262,0.1946 0.0786,0.2695 0.0524,0.0749 0.1236,0.1347 0.2134,0.1797 0.4043,0.2396 0.73,0.5652 0.9771,0.977 0.247,0.4118 0.3706,0.8723 0.3706,1.3814 0,0.0149 0,0.0299 0,0.0449 0,0.015 0,0.0299 0,0.0449 0,0.015 0,0.03 0,0.0449 0,0.015 0,0.03 0,0.045 0,0.4941 -0.1236,0.9471 -0.3706,1.3588 -0.2471,0.4118 -0.5728,0.7375 -0.9771,0.9771 -0.0898,0.0449 -0.161,0.1086 -0.2134,0.1909 -0.0524,0.0824 -0.0786,0.176 -0.0786,0.2808 0,0.0299 0.0038,0.0636 0.0112,0.101 0.0075,0.0375 0.0188,0.0787 0.0337,0.12358 v -0.02248 c 0.045,0.08987 0.1086,0.16099 0.191,0.2134 0.0823,0.05241 0.1759,0.07861 0.2807,0.07861 0.03,0 0.0674,-0.00748 0.1123,-0.02246 0.0449,-0.01497 0.0824,-0.02994 0.1123,-0.04492 0.584,-0.31443 1.052,-0.75993 1.4038,-1.33643 0.3519,-0.5765 0.5279,-1.2091 0.5279,-1.8979 0,-0.015 0,-0.03 0,-0.045 0,-0.0149 0,-0.0299 0,-0.0449 0,-0.015 0,-0.0299 0,-0.0449 0,-0.015 0,-0.03 0,-0.0449 0,-0.7038 -0.176,-1.3439 -0.5279,-1.9204 -0.3518,-0.5765 -0.8123,-1.022 -1.3813,-1.3365 h -0.0225 m -2.7177,0 c -0.03,-0.0149 -0.0637,-0.0262 -0.1011,-0.0337 -0.0375,-0.0074 -0.0786,-0.0112 -0.1236,-0.0112 -0.0898,0 -0.1759,0.0225 -0.2583,0.0674 -0.0823,0.0449 -0.1459,0.1123 -0.1909,0.2021 -0.0149,0.03 -0.0262,0.0637 -0.0337,0.1011 -0.0075,0.0375 -0.0112,0.0786 -0.0112,0.1236 0,0.1048 0.0262,0.1946 0.0786,0.2695 0.0524,0.0749 0.1161,0.1347 0.1909,0.1797 0.4043,0.2396 0.7338,0.5652 0.9883,0.977 0.2546,0.4118 0.3819,0.8723 0.3819,1.3814 0,0.0149 -0.0038,0.0299 -0.0113,0.0449 -0.0075,0.015 -0.0112,0.0299 -0.0112,0.0449 0,0.015 0.0037,0.03 0.0112,0.0449 0.0075,0.015 0.0113,0.03 0.0113,0.045 0,0.4941 -0.1236,0.9471 -0.3707,1.3588 -0.247,0.4118 -0.5727,0.7375 -0.977,0.9771 h -0.0225 c -0.0748,0.0449 -0.1385,0.1086 -0.1909,0.1909 -0.0524,0.0824 -0.0786,0.176 -0.0786,0.2808 0,0.0299 0.0037,0.0636 0.0112,0.101 0.0075,0.0375 0.0188,0.0787 0.0337,0.12358 v -0.02248 c 0.045,0.08987 0.1086,0.16099 0.1909,0.2134 0.0824,0.05241 0.1685,0.07861 0.2583,0.07861 0.045,0 0.0861,-0.00748 0.1236,-0.02246 0.0374,-0.01497 0.0786,-0.02994 0.1235,-0.04492 h -0.0224 c 0.5839,-0.31443 1.0556,-0.75993 1.415,-1.33643 0.3594,-0.5765 0.5391,-1.2091 0.5391,-1.8979 0,-0.015 0,-0.03 0,-0.045 0,-0.0149 0,-0.0299 0,-0.0449 0,-0.015 0,-0.0299 0,-0.0449 0,-0.015 0,-0.03 0,-0.0449 0,-0.7038 -0.176,-1.3439 -0.5279,-1.9204 -0.3519,-0.5765 -0.8198,-1.022 -1.4038,-1.3365 h -0.0224 m -0.876,5.3907 c 0.0299,-0.0599 0.0561,-0.1236 0.0786,-0.191 0.0225,-0.0673 0.0337,-0.1385 0.0337,-0.2133 v -2.5157 c 0,-0.2096 -0.0749,-0.3893 -0.2246,-0.539 -0.1498,-0.1498 -0.3295,-0.2246 -0.5391,-0.2246 h -2.5156 c -0.2096,0 -0.38934,0.0748 -0.53907,0.2246 -0.14974,0.1497 -0.22461,0.3294 -0.22461,0.539 v 2.5157 c 0,0.0748 0.01123,0.146 0.03369,0.2133 0.02246,0.0674 0.04866,0.1311 0.07861,0.191 L 7.83887,1.61719 c 0,0 0,0.00748 0,0.02246 0,0.01497 0,0.02246 0,0.02246 0,0.01497 0,0.0262 0,0.03369 0,0.00749 0,0.01872 0,0.03369 0,0 0,0.00375 0,0.01123 0,0.00749 0,0.01872 0,0.03369 0,0 0,0.00375 0,0.01123 0,0.00749 0,0.01872 0,0.0337 0,0 0,0.00748 0,0.02246 0,0.01497 0.01497,0.02994 0.04492,0.04492 0,0.01497 0.00749,0.02995 0.02246,0.04492 0.01497,0.01497 0.02246,0.02995 0.02246,0.04492 0,0 0.00374,0 0.01123,0 0.00749,0 0.01872,0 0.03369,0 0.01498,0.02995 0.03369,0.04867 0.05616,0.05615 0.02246,0.00749 0.04117,0.01872 0.05615,0.0337 h 0.08984 c 0,0 0.00374,0 0.01123,0 0.00749,0 0.01872,0 0.03369,0 0,0 0.00375,0 0.01123,0 0.00749,0 0.01872,0 0.0337,0 H 8.24316 8.33301 c 0.02995,0 0.05989,-0.00375 0.08984,-0.01123 C 8.4528,2.04769 8.47526,2.04395 8.49023,2.04395 8.50521,2.02897 8.52018,2.01774 8.53516,2.01025 8.55013,2.00277 8.5651,1.99902 8.58008,1.99902 c 0.01497,0 0.0262,-0.00374 0.03369,-0.01123 C 8.62126,1.98031 8.63249,1.96908 8.64746,1.9541 L 11.5,-0.359375 14.2852,1.97656 c 0.0449,0.0599 0.0973,0.10482 0.1572,0.13477 0.0599,0.02995 0.1273,0.04492 0.2021,0.04492 h 0.1123 c 0.0599,-0.01497 0.1161,-0.03743 0.1685,-0.06738 0.0524,-0.02995 0.0936,-0.06739 0.1235,-0.11231 0.045,-0.02995 0.0786,-0.07487 0.1011,-0.13476 0.0225,-0.0599 0.0337,-0.11979 0.0337,-0.17969 0,-0.02995 -0.0037,-0.0599 -0.0112,-0.08984 C 15.1649,1.54232 15.1536,1.51237 15.1387,1.48242 L 13.4092,-11.0732 m -0.5166,3.68355 -0.6738,-0.71875 0.5166,-0.53906 0.1572,1.25781 M 12.8477,-5.99707 11.5,-5.18848 10.1523,-5.99707 11.5,-7.34473 12.8477,-5.99707 M 12.5332,-9.88281 11.5,-8.82715 10.4443,-9.9502 l 0.1123,-0.7637 h 1.8643 l 0.1123,0.83109 m -2.2461,1.23535 0.5166,0.53906 -0.6963,0.74121 0.1797,-1.28027 m -0.49413,3.59375 0.74123,0.44922 -0.89846,0.53906 0.15723,-0.98828 M 11.5,-4.02051 13.1172,-3.03223 11.5,-1.68457 9.88281,-3.03223 11.5,-4.02051 m 0.9883,-0.58398 0.7187,-0.44922 0.1348,0.96582 -0.8535,-0.5166 M 9.00684,0.404297 9.36621,-2.13379 10.7139,-1.01074 9.00684,0.404297 m 4.60446,-2.538087 0.3594,2.515626 -1.6846,-1.392576 1.3252,-1.12305"
         id="path26"
         inkscape:connector-curvature="0"
         style="vector-effect:none;fill-rule:nonzero" />
    </g>
    <g
       transform="matrix(1.33333,0,0,1.33333,16,16)"
       font-size="8.25"
       font-weight="400"
       font-style="normal"
       id="g30"
       style="font-style:normal;font-weight:400;font-size:8.25px;font-family:'MS Shell Dlg 2';fill:none;stroke:#000000;stroke-width:1;stroke-linecap:square;stroke-linejoin:bevel;stroke-opacity:1" />
    <g
       transform="translate(16,16)"
       font-size="8.25"
       font-weight="400"
       font-style="normal"
       id="g32"
       style="font-style:normal;font-weight:400;font-size:8.25px;font-family:'MS Shell Dlg 2';fill:none;stroke:#000000;stroke-width:1;stroke-linecap:square;stroke-linejoin:bevel;stroke-opacity:1" />
    <g
       font-size="8.25"
       font-weight="400"
       font-style="normal"
       id="g34"
       style="font-style:normal;font-weight:400;font-size:8.25px;font-family:'MS Shell Dlg 2';fill:none;stroke:#000000;stroke-width:1;stroke-linecap:square;stroke-linejoin:bevel;stroke-opacity:1" />
    <g
       transform="translate(16,16)"
       font-size="8.25"
       font-weight="400"
       font-style="normal"
       id="g36"
       style="font-style:normal;font-weight:400;font-size:8.25px;font-family:'MS Shell Dlg 2';fill:none;stroke:#000000;stroke-width:1;stroke-linecap:square;stroke-linejoin:bevel;stroke-opacity:1" />
    <g
       transform="matrix(1.33333,0,0,1.33333,16,16)"
       font-size="8.25"
       font-weight="400"
       font-style="normal"
       id="g38"
       style="font-style:normal;font-weight:400;font-size:8.25px;font-family:'MS Shell Dlg 2';fill:none;stroke:#000000;stroke-width:1;stroke-linecap:square;stroke-linejoin:bevel;stroke-opacity:1" />
    <g
       transform="translate(3,24.125)"
       font-size="19.8425"
       font-weight="400"
       font-style="normal"
       id="g42"
       style="font-style:normal;font-weight:400;font-size:19.84250069px;font-family:icomoon;fill:#000000;fill-opacity:1;stroke:none">
      <path
         d="m 23.9434,-20.4395 c 0.3724,0 0.694,0.1355 0.9648,0.4063 0.2708,0.2708 0.4063,0.5924 0.4063,0.9648 V 2.81836 c 0,0.3724 -0.1355,0.69401 -0.4063,0.96484 -0.2708,0.27084 -0.5924,0.40625 -0.9648,0.40625 H 2.05664 C 1.68424,4.18945 1.36263,4.05404 1.0918,3.7832 0.820964,3.51237 0.685547,3.19076 0.685547,2.81836 V -19.0684 c 0,-0.3724 0.135417,-0.694 0.406253,-0.9648 0.27083,-0.2708 0.59244,-0.4063 0.96484,-0.4063 H 23.9434 m 0,-0.6855 H 2.05664 c -0.57552,0 -1.062174,0.1989 -1.45996,0.5967 C 0.198893,-20.1305 0,-19.6439 0,-19.0684 V 2.81836 C 0,3.39388 0.198893,3.88053 0.59668,4.27832 0.994466,4.67611 1.48112,4.875 2.05664,4.875 H 23.9434 c 0.5755,0 1.0621,-0.19889 1.4599,-0.59668 C 25.8011,3.88053 26,3.39388 26,2.81836 V -19.0684 c 0,-0.5755 -0.1989,-1.0621 -0.5967,-1.4599 -0.3978,-0.3978 -0.8844,-0.5967 -1.4599,-0.5967"
         id="path40"
         inkscape:connector-curvature="0"
         style="vector-effect:none;fill-rule:nonzero" />
    </g>
    <g
       transform="matrix(1.33333,0,0,1.33333,16,16)"
       font-size="8.25"
       font-weight="400"
       font-style="normal"
       id="g44"
       style="font-style:normal;font-weight:400;font-size:8.25px;font-family:'MS Shell Dlg 2';fill:none;stroke:#000000;stroke-width:1;stroke-linecap:square;stroke-linejoin:bevel;stroke-opacity:1" />
    <g
       transform="translate(16,16)"
       font-size="8.25"
       font-weight="400"
       font-style="normal"
       id="g46"
       style="font-style:normal;font-weight:400;font-size:8.25px;font-family:'MS Shell Dlg 2';fill:none;stroke:#000000;stroke-width:1;stroke-linecap:square;stroke-linejoin:bevel;stroke-opacity:1" />
    <g
       font-size="8.25"
       font-weight="400"
       font-style="normal"
       id="g48"
       style="font-style:normal;font-weight:400;font-size:8.25px;font-family:'MS Shell Dlg 2';fill:none;stroke:#000000;stroke-width:1;stroke-linecap:square;stroke-linejoin:bevel;stroke-opacity:1" />
  </g>
</svg>
