<?xml version="1.0" encoding="UTF-8" standalone="no"?>
<svg
   xmlns:dc="http://purl.org/dc/elements/1.1/"
   xmlns:cc="http://creativecommons.org/ns#"
   xmlns:rdf="http://www.w3.org/1999/02/22-rdf-syntax-ns#"
   xmlns:svg="http://www.w3.org/2000/svg"
   xmlns="http://www.w3.org/2000/svg"
   xmlns:sodipodi="http://sodipodi.sourceforge.net/DTD/sodipodi-0.dtd"
   xmlns:inkscape="http://www.inkscape.org/namespaces/inkscape"
   width="20"
   height="20"
   viewBox="0 0 20 20"
   version="1.2"
   id="svg38"
   sodipodi:docname="60201060531.svg"
   inkscape:version="0.92.4 (5da689c313, 2019-01-14)">
  <metadata
     id="metadata42">
    <rdf:RDF>
      <cc:Work
         rdf:about="">
        <dc:format>image/svg+xml</dc:format>
        <dc:type
           rdf:resource="http://purl.org/dc/dcmitype/StillImage" />
      </cc:Work>
    </rdf:RDF>
  </metadata>
  <sodipodi:namedview
     pagecolor="#ffffff"
     bordercolor="#666666"
     borderopacity="1"
     objecttolerance="10"
     gridtolerance="10"
     guidetolerance="10"
     inkscape:pageopacity="0"
     inkscape:pageshadow="2"
     inkscape:window-width="1920"
     inkscape:window-height="1017"
     id="namedview40"
     showgrid="false"
     inkscape:zoom="11.8"
     inkscape:cx="-5.2542373"
     inkscape:cy="10"
     inkscape:window-x="-8"
     inkscape:window-y="-8"
     inkscape:window-maximized="1"
     inkscape:current-layer="svg38" />
  <title
     id="title2">Qt SVG Document</title>
  <desc
     id="desc4">Generated with Qt</desc>
  <defs
     id="defs6" />
  <g
     id="g36"
     transform="matrix(0.65217391,0,0,0.65217391,-0.43478256,-0.43478256)"
     style="fill:none;fill-rule:evenodd;stroke:#000000;stroke-width:1;stroke-linecap:square;stroke-linejoin:bevel">
    <g
       transform="translate(16,16)"
       font-size="8.25"
       font-weight="400"
       font-style="normal"
       id="g8"
       style="font-style:normal;font-weight:400;font-size:8.25px;font-family:'MS Shell Dlg 2';fill:none;stroke:#000000;stroke-width:1;stroke-linecap:square;stroke-linejoin:bevel;stroke-opacity:1" />
    <g
       transform="matrix(1.33333,0,0,1.33333,16,16)"
       font-size="8.25"
       font-weight="400"
       font-style="normal"
       id="g10"
       style="font-style:normal;font-weight:400;font-size:8.25px;font-family:'MS Shell Dlg 2';fill:none;stroke:#000000;stroke-width:1;stroke-linecap:square;stroke-linejoin:bevel;stroke-opacity:1" />
    <g
       transform="translate(4.5,23.1875)"
       font-size="17.0078"
       font-weight="400"
       font-style="normal"
       id="g14"
       style="font-style:normal;font-weight:400;font-size:17.00779915px;font-family:icomoon;fill:#ffffff;fill-opacity:1;stroke:none">
      <path
         d="M 2.02148,-18.6875 H 20.9785 c 0.5541,0 1.0295,0.1984 1.4263,0.5952 C 22.8016,-17.6955 23,-17.2201 23,-16.666 V 2.29102 C 23,2.84505 22.8016,3.32048 22.4048,3.71729 22.008,4.1141 21.5326,4.3125 20.9785,4.3125 H 2.02148 C 1.46745,4.3125 0.992025,4.1141 0.595215,3.71729 0.198405,3.32048 0,2.84505 0,2.29102 V -16.666 c 0,-0.5541 0.198405,-1.0295 0.595215,-1.4263 0.39681,-0.3968 0.872235,-0.5952 1.426265,-0.5952"
         id="path12"
         inkscape:connector-curvature="0"
         style="vector-effect:none;fill-rule:nonzero" />
    </g>
    <g
       transform="matrix(1.33333,0,0,1.33333,16,16)"
       font-size="8.25"
       font-weight="400"
       font-style="normal"
       id="g16"
       style="font-style:normal;font-weight:400;font-size:8.25px;font-family:'MS Shell Dlg 2';fill:none;stroke:#000000;stroke-width:1;stroke-linecap:square;stroke-linejoin:bevel;stroke-opacity:1" />
    <g
       transform="translate(16,16)"
       font-size="8.25"
       font-weight="400"
       font-style="normal"
       id="g18"
       style="font-style:normal;font-weight:400;font-size:8.25px;font-family:'MS Shell Dlg 2';fill:none;stroke:#000000;stroke-width:1;stroke-linecap:square;stroke-linejoin:bevel;stroke-opacity:1" />
    <g
       font-size="8.25"
       font-weight="400"
       font-style="normal"
       id="g20"
       style="font-style:normal;font-weight:400;font-size:8.25px;font-family:'MS Shell Dlg 2';fill:none;stroke:#000000;stroke-width:1;stroke-linecap:square;stroke-linejoin:bevel;stroke-opacity:1" />
    <g
       transform="translate(16,16)"
       font-size="8.25"
       font-weight="400"
       font-style="normal"
       id="g22"
       style="font-style:normal;font-weight:400;font-size:8.25px;font-family:'MS Shell Dlg 2';fill:none;stroke:#000000;stroke-width:1;stroke-linecap:square;stroke-linejoin:bevel;stroke-opacity:1" />
    <g
       transform="matrix(1.33333,0,0,1.33333,16,16)"
       font-size="8.25"
       font-weight="400"
       font-style="normal"
       id="g24"
       style="font-style:normal;font-weight:400;font-size:8.25px;font-family:'MS Shell Dlg 2';fill:none;stroke:#000000;stroke-width:1;stroke-linecap:square;stroke-linejoin:bevel;stroke-opacity:1" />
    <g
       transform="translate(4.5,23.1875)"
       font-size="17.0078"
       font-weight="400"
       font-style="normal"
       id="g28"
       style="font-style:normal;font-weight:400;font-size:17.00779915px;font-family:icomoon;fill:#000000;fill-opacity:1;stroke:none">
      <path
         d="m 20.9785,-18.0137 c 0.3744,0 0.6926,0.1311 0.9546,0.3931 0.262,0.262 0.3931,0.5802 0.3931,0.9546 V 2.29102 c 0,0.37434 -0.1311,0.69254 -0.3931,0.95459 -0.262,0.26204 -0.5802,0.39306 -0.9546,0.39306 H 2.02148 C 1.64714,3.63867 1.32894,3.50765 1.06689,3.24561 0.80485,2.98356 0.673828,2.66536 0.673828,2.29102 V -16.666 c 0,-0.3744 0.131022,-0.6926 0.393062,-0.9546 0.26205,-0.262 0.58025,-0.3931 0.95459,-0.3931 H 20.9785 m 0,-0.6738 H 2.02148 c -0.55403,0 -1.029455,0.1984 -1.426265,0.5952 C 0.198405,-17.6955 0,-17.2201 0,-16.666 V 2.29102 C 0,2.84505 0.198405,3.32048 0.595215,3.71729 0.992025,4.1141 1.46745,4.3125 2.02148,4.3125 H 20.9785 c 0.5541,0 1.0295,-0.1984 1.4263,-0.59521 C 22.8016,3.32048 23,2.84505 23,2.29102 V -16.666 c 0,-0.5541 -0.1984,-1.0295 -0.5952,-1.4263 -0.3968,-0.3968 -0.8722,-0.5952 -1.4263,-0.5952 M 7.56934,-8.84961 c 0.04492,0.02995 0.09733,0.05241 0.15722,0.06738 0.0599,0.01498 0.11979,0.02246 0.17969,0.02246 0,0 0.00374,0 0.01123,0 0.00749,0 0.01123,0 0.01123,0 0.11979,0 0.2321,-0.0262 0.33692,-0.07861 C 8.37044,-8.89079 8.4528,-8.9694 8.5127,-9.07422 l 2.8076,-4.73928 c 0.0449,-0.0599 0.0786,-0.1235 0.1011,-0.1909 0.0224,-0.0674 0.0337,-0.1385 0.0337,-0.2134 0,-0.1946 -0.0637,-0.3593 -0.1909,-0.4941 -0.1273,-0.1348 -0.2883,-0.2022 -0.4829,-0.2022 -0.1348,0 -0.2584,0.0412 -0.3707,0.1236 -0.1123,0.0823 -0.1984,0.1834 -0.2583,0.3032 l -2.80757,4.73925 c -0.02995,0.04492 -0.05241,0.09359 -0.06739,0.146 -0.01497,0.05241 -0.02246,0.11605 -0.02246,0.19092 0,0.11979 0.02995,0.22835 0.08985,0.32568 0.05989,0.09733 0.13476,0.17594 0.22461,0.23584 m 9.43356,1.14551 -2.9873,-2.15625 -0.2695,-2.13375 0.4043,-0.876 c 0.5241,0 0.9733,-0.1909 1.3476,-0.5728 0.3744,-0.3818 0.5616,-0.8348 0.5616,-1.3589 0,-0.539 -0.1909,-0.9995 -0.5728,-1.3813 -0.3818,-0.3818 -0.8348,-0.5728 -1.3589,-0.5728 -0.539,0 -0.9995,0.191 -1.3813,0.5728 -0.3819,0.3818 -0.5728,0.8423 -0.5728,1.3813 0,0.1049 0.0113,0.2059 0.0337,0.3033 0.0225,0.0973 0.0487,0.1909 0.0786,0.2807 L 8.89453,-7.99609 C 8.83464,-7.96615 8.75228,-7.74154 8.64746,-7.32227 8.55762,-6.91797 8.46403,-6.47624 8.3667,-5.99707 8.26937,-5.5179 8.19076,-5.08366 8.13086,-4.69434 8.05599,-4.30501 8.01855,-4.11035 8.01855,-4.11035 L 5.8623,-0.336914 c -0.04492,0.07487 -0.07861,0.153483 -0.10107,0.23584 -0.02246,0.0823566 -0.03369,0.1684568 -0.03369,0.258301 0,0.134765 0.02246,0.262044 0.06738,0.381836 0.04492,0.119791 0.11231,0.224609 0.20215,0.314453 L 6.89551,1.81934 c 0.08984,0.10481 0.1984,0.18717 0.32568,0.24707 0.12728,0.05989 0.26579,0.08984 0.41553,0.08984 0.13476,0 0.2583,-0.0262 0.3706,-0.07861 C 8.11963,2.02523 8.2207,1.96159 8.31055,1.88672 8.41536,1.79688 8.49772,1.68457 8.55762,1.5498 8.61751,1.41504 8.64746,1.28027 8.64746,1.14551 8.64746,1.01074 8.62126,0.883464 8.56885,0.763672 8.51644,0.64388 8.4528,0.539063 8.37793,0.449219 L 7.97363,0.0224609 9.86035,-3.2793 C 9.8903,-3.33919 9.9165,-3.39909 9.93896,-3.45898 9.96143,-3.51888 9.98014,-3.58626 9.99512,-3.66113 l 0.22458,-1.90918 2.1338,3.52636 V -1.4375 L 10.624,1.16797 c -0.0299,0.02995 -0.0486,0.05989 -0.0561,0.08984 -0.0075,0.02995 -0.0113,0.0599 -0.0113,0.08985 0,0.05989 0.015,0.11604 0.045,0.16845 0.0299,0.05241 0.0673,0.09359 0.1123,0.12354 0.0149,0.01497 0.0374,0.0262 0.0674,0.03369 0.0299,0.00749 0.0598,0.01123 0.0898,0.01123 0.015,0 0.0225,0 0.0225,0 0.0599,0 0.116,-0.01123 0.1684,-0.03369 0.0524,-0.02246 0.0936,-0.05615 0.1235,-0.10108 l 1.168,-1.774409 V 1.34766 c 0,0.2845 0.1011,0.52408 0.3032,0.71875 0.2022,0.19466 0.438,0.29199 0.7076,0.29199 h 1.4599 c 0.2696,0 0.5054,-0.09733 0.7075,-0.29199 C 15.7339,1.87174 15.835,1.63216 15.835,1.34766 15.835,1.06315 15.7339,0.823568 15.5317,0.628906 15.3296,0.434245 15.0938,0.336914 14.8242,0.336914 H 14.3975 V -2.31348 c 0,-0.01497 0,-0.02246 0,-0.02246 0,-0.08984 -0.015,-0.17969 -0.045,-0.26953 -0.0299,-0.08984 -0.0673,-0.1722 -0.1123,-0.24707 l -0.0673,-0.08984 2.3808,-3.57129 h 0.0449 c 0.1198,0 0.2246,-0.02621 0.3145,-0.07862 0.0898,-0.0524 0.1647,-0.11604 0.2246,-0.19091 0.0449,-0.0599 0.0786,-0.11979 0.1011,-0.17969 0.0224,-0.0599 0.0337,-0.12728 0.0337,-0.20215 0,-0.10482 -0.0262,-0.20589 -0.0787,-0.30322 -0.0524,-0.09733 -0.116,-0.17595 -0.1909,-0.23584 m -5.2334,0.74121 c -0.0299,-0.04492 -0.0636,-0.09359 -0.101,-0.146 -0.0375,-0.05241 -0.0787,-0.09358 -0.1236,-0.12353 l 1.1231,-2.47071 0.0449,0.31446 c 0.015,0.08984 0.0449,0.17594 0.0898,0.2583 0.045,0.08236 0.1049,0.14599 0.1797,0.19092 l 2.9649,2.15625 -2.1338,3.18945 -2.044,-3.36914"
         id="path26"
         inkscape:connector-curvature="0"
         style="vector-effect:none;fill-rule:nonzero" />
    </g>
    <g
       transform="matrix(1.33333,0,0,1.33333,16,16)"
       font-size="8.25"
       font-weight="400"
       font-style="normal"
       id="g30"
       style="font-style:normal;font-weight:400;font-size:8.25px;font-family:'MS Shell Dlg 2';fill:none;stroke:#000000;stroke-width:1;stroke-linecap:square;stroke-linejoin:bevel;stroke-opacity:1" />
    <g
       transform="translate(16,16)"
       font-size="8.25"
       font-weight="400"
       font-style="normal"
       id="g32"
       style="font-style:normal;font-weight:400;font-size:8.25px;font-family:'MS Shell Dlg 2';fill:none;stroke:#000000;stroke-width:1;stroke-linecap:square;stroke-linejoin:bevel;stroke-opacity:1" />
    <g
       font-size="8.25"
       font-weight="400"
       font-style="normal"
       id="g34"
       style="font-style:normal;font-weight:400;font-size:8.25px;font-family:'MS Shell Dlg 2';fill:none;stroke:#000000;stroke-width:1;stroke-linecap:square;stroke-linejoin:bevel;stroke-opacity:1" />
  </g>
</svg>
