<?xml version="1.0" encoding="UTF-8" standalone="no"?>
<svg
   xmlns:dc="http://purl.org/dc/elements/1.1/"
   xmlns:cc="http://creativecommons.org/ns#"
   xmlns:rdf="http://www.w3.org/1999/02/22-rdf-syntax-ns#"
   xmlns:svg="http://www.w3.org/2000/svg"
   xmlns="http://www.w3.org/2000/svg"
   xmlns:sodipodi="http://sodipodi.sourceforge.net/DTD/sodipodi-0.dtd"
   xmlns:inkscape="http://www.inkscape.org/namespaces/inkscape"
   width="20"
   height="20"
   viewBox="0 0 20 20"
   version="1.2"
   id="svg38"
   sodipodi:docname="60201060333.svg"
   inkscape:version="0.92.4 (5da689c313, 2019-01-14)">
  <metadata
     id="metadata42">
    <rdf:RDF>
      <cc:Work
         rdf:about="">
        <dc:format>image/svg+xml</dc:format>
        <dc:type
           rdf:resource="http://purl.org/dc/dcmitype/StillImage" />
      </cc:Work>
    </rdf:RDF>
  </metadata>
  <sodipodi:namedview
     pagecolor="#ffffff"
     bordercolor="#666666"
     borderopacity="1"
     objecttolerance="10"
     gridtolerance="10"
     guidetolerance="10"
     inkscape:pageopacity="0"
     inkscape:pageshadow="2"
     inkscape:window-width="1920"
     inkscape:window-height="1017"
     id="namedview40"
     showgrid="false"
     inkscape:zoom="11.8"
     inkscape:cx="-5.2542373"
     inkscape:cy="10"
     inkscape:window-x="-8"
     inkscape:window-y="-8"
     inkscape:window-maximized="1"
     inkscape:current-layer="svg38" />
  <title
     id="title2">Qt SVG Document</title>
  <desc
     id="desc4">Generated with Qt</desc>
  <defs
     id="defs6" />
  <g
     id="g36"
     transform="matrix(0.65217391,0,0,0.65217391,-0.43478256,-0.43478256)"
     style="fill:none;fill-rule:evenodd;stroke:#000000;stroke-width:1;stroke-linecap:square;stroke-linejoin:bevel">
    <g
       transform="translate(16,16)"
       font-size="8.25"
       font-weight="400"
       font-style="normal"
       id="g8"
       style="font-style:normal;font-weight:400;font-size:8.25px;font-family:'MS Shell Dlg 2';fill:none;stroke:#000000;stroke-width:1;stroke-linecap:square;stroke-linejoin:bevel;stroke-opacity:1" />
    <g
       transform="matrix(1.33333,0,0,1.33333,16,16)"
       font-size="8.25"
       font-weight="400"
       font-style="normal"
       id="g10"
       style="font-style:normal;font-weight:400;font-size:8.25px;font-family:'MS Shell Dlg 2';fill:none;stroke:#000000;stroke-width:1;stroke-linecap:square;stroke-linejoin:bevel;stroke-opacity:1" />
    <g
       transform="translate(4.5,23.1875)"
       font-size="17.0078"
       font-weight="400"
       font-style="normal"
       id="g14"
       style="font-style:normal;font-weight:400;font-size:17.00779915px;font-family:icomoon;fill:#ffff00;fill-opacity:1;stroke:none">
      <path
         d="M 2.02148,-18.6875 H 20.9785 c 0.5541,0 1.0295,0.1984 1.4263,0.5952 C 22.8016,-17.6955 23,-17.2201 23,-16.666 V 2.29102 C 23,2.84505 22.8016,3.32048 22.4048,3.71729 22.008,4.1141 21.5326,4.3125 20.9785,4.3125 H 2.02148 C 1.46745,4.3125 0.992025,4.1141 0.595215,3.71729 0.198405,3.32048 0,2.84505 0,2.29102 V -16.666 c 0,-0.5541 0.198405,-1.0295 0.595215,-1.4263 0.39681,-0.3968 0.872235,-0.5952 1.426265,-0.5952"
         id="path12"
         inkscape:connector-curvature="0"
         style="vector-effect:none;fill-rule:nonzero" />
    </g>
    <g
       transform="matrix(1.33333,0,0,1.33333,16,16)"
       font-size="8.25"
       font-weight="400"
       font-style="normal"
       id="g16"
       style="font-style:normal;font-weight:400;font-size:8.25px;font-family:'MS Shell Dlg 2';fill:none;stroke:#000000;stroke-width:1;stroke-linecap:square;stroke-linejoin:bevel;stroke-opacity:1" />
    <g
       transform="translate(16,16)"
       font-size="8.25"
       font-weight="400"
       font-style="normal"
       id="g18"
       style="font-style:normal;font-weight:400;font-size:8.25px;font-family:'MS Shell Dlg 2';fill:none;stroke:#000000;stroke-width:1;stroke-linecap:square;stroke-linejoin:bevel;stroke-opacity:1" />
    <g
       font-size="8.25"
       font-weight="400"
       font-style="normal"
       id="g20"
       style="font-style:normal;font-weight:400;font-size:8.25px;font-family:'MS Shell Dlg 2';fill:none;stroke:#000000;stroke-width:1;stroke-linecap:square;stroke-linejoin:bevel;stroke-opacity:1" />
    <g
       transform="translate(16,16)"
       font-size="8.25"
       font-weight="400"
       font-style="normal"
       id="g22"
       style="font-style:normal;font-weight:400;font-size:8.25px;font-family:'MS Shell Dlg 2';fill:none;stroke:#000000;stroke-width:1;stroke-linecap:square;stroke-linejoin:bevel;stroke-opacity:1" />
    <g
       transform="matrix(1.33333,0,0,1.33333,16,16)"
       font-size="8.25"
       font-weight="400"
       font-style="normal"
       id="g24"
       style="font-style:normal;font-weight:400;font-size:8.25px;font-family:'MS Shell Dlg 2';fill:none;stroke:#000000;stroke-width:1;stroke-linecap:square;stroke-linejoin:bevel;stroke-opacity:1" />
    <g
       transform="translate(4.5,23.1875)"
       font-size="17.0078"
       font-weight="400"
       font-style="normal"
       id="g28"
       style="font-style:normal;font-weight:400;font-size:17.00779915px;font-family:icomoon;fill:#000000;fill-opacity:1;stroke:none">
      <path
         d="m 20.9785,-18.0137 c 0.3744,0 0.6926,0.1311 0.9546,0.3931 0.262,0.262 0.3931,0.5802 0.3931,0.9546 V 2.29102 c 0,0.37434 -0.1311,0.69254 -0.3931,0.95459 -0.262,0.26204 -0.5802,0.39306 -0.9546,0.39306 H 2.02148 C 1.64714,3.63867 1.32894,3.50765 1.06689,3.24561 0.80485,2.98356 0.673828,2.66536 0.673828,2.29102 V -16.666 c 0,-0.3744 0.131022,-0.6926 0.393062,-0.9546 0.26205,-0.262 0.58025,-0.3931 0.95459,-0.3931 H 20.9785 m 0,-0.6738 H 2.02148 c -0.55403,0 -1.029455,0.1984 -1.426265,0.5952 C 0.198405,-17.6955 0,-17.2201 0,-16.666 V 2.29102 C 0,2.84505 0.198405,3.32048 0.595215,3.71729 0.992025,4.1141 1.46745,4.3125 2.02148,4.3125 H 20.9785 c 0.5541,0 1.0295,-0.1984 1.4263,-0.59521 C 22.8016,3.32048 23,2.84505 23,2.29102 V -16.666 c 0,-0.5541 -0.1984,-1.0295 -0.5952,-1.4263 -0.3968,-0.3968 -0.8722,-0.5952 -1.4263,-0.5952 M 18.2607,0.0224609 13.252,-1.8418 17.6543,-3.75098 c 0.0599,-0.01497 0.1086,-0.05241 0.146,-0.1123 0.0374,-0.0599 0.0561,-0.12728 0.0561,-0.20215 v -0.83105 c 0,-0.0599 -0.0112,-0.11231 -0.0336,-0.15723 -0.0225,-0.04492 -0.0562,-0.08236 -0.1011,-0.11231 -0.03,-0.01497 -0.0599,-0.0262 -0.0899,-0.03369 -0.0299,-0.00748 -0.0673,-0.01123 -0.1123,-0.01123 -0.0149,0 -0.0337,0 -0.0561,0 -0.0225,0 -0.0412,0.00749 -0.0562,0.02246 L 10.8262,-2.7627 5.57031,-4.7168 C 5.55534,-4.73177 5.54036,-4.73926 5.52539,-4.73926 c -0.01497,0 -0.03743,0 -0.06738,0 -0.02995,0 -0.06364,0.00375 -0.10108,0.01123 -0.03743,0.00749 -0.06364,0.02621 -0.07861,0.05615 -0.04492,0.02995 -0.08236,0.06739 -0.1123,0.11231 -0.02995,0.04492 -0.04493,0.09733 -0.04493,0.15723 v 0.85351 c 0,0.0599 0.01872,0.11979 0.05616,0.17969 0.03743,0.0599 0.0861,0.10482 0.14599,0.13476 l 3.16699,1.34766 -3.75097,1.392579 c -0.0599,0.029948 -0.11231,0.07487 -0.15723,0.134766 -0.04492,0.059896 -0.06738,0.127279 -0.06738,0.202148 0,0.014974 0.00374,0.033692 0.01123,0.056153 0.00749,0.0224607 0.01123,0.0411782 0.01123,0.0561521 L 5.00879,1.30273 c 0.01497,0.04493 0.04118,0.08236 0.07861,0.11231 0.03744,0.02995 0.07113,0.05989 0.10108,0.08984 0.01497,0 0.02994,0 0.04492,0 0.01497,0 0.02246,0 0.02246,0 0.01497,0 0.02995,0 0.04492,0 0.01498,0 0.02246,0 0.02246,0 0.01498,0 0.02995,0 0.04492,0 0.01498,0 0.02247,0 0.02247,0 0.01497,0 0.02994,0 0.04492,0 0.01497,0 0.02246,0 0.02246,0 L 10.916,-0.853516 17.542,1.99902 c 0.0299,0.01498 0.0561,0.02246 0.0786,0.02246 0.0225,0 0.0412,0 0.0562,0 0.0299,0 0.0561,0 0.0786,0 0.0224,0 0.0411,-0.00748 0.0561,-0.02246 0.0449,-0.01497 0.0824,-0.04117 0.1123,-0.07861 0.03,-0.03743 0.0524,-0.07861 0.0674,-0.12353 l 0.4942,-1.347661 c 0,-0.014974 0,-0.033692 0,-0.056153 0,-0.022461 0,-0.041178 0,-0.056152 0,-0.07487 -0.0188,-0.142253 -0.0562,-0.202148 C 18.3918,0.0748698 18.3356,0.0374349 18.2607,0.0224609 M 10.8936,-4.89648 c 0.1347,0 0.2657,0.01123 0.393,0.03369 0.1273,0.02246 0.2508,0.05615 0.3706,0.10107 h -0.0224 c 0.1347,-0.13476 0.3668,-0.41927 0.6963,-0.85351 0.3144,-0.41928 0.6289,-0.98454 0.9433,-1.69581 0.3145,-0.71126 0.5765,-1.56852 0.7861,-2.57177 0.1947,-0.98829 0.2321,-2.10389 0.1124,-3.34669 -0.5092,-0.569 -1.0183,-1.1118 -1.5274,-1.6284 -0.5091,-0.5166 -1.0407,-1.022 -1.5947,-1.5161 l -0.0225,-0.0225 c 0,0 0.1086,0.4155 0.3257,1.2466 0.2171,0.8311 -0.4604,1.9578 -2.03271,3.3804 l -0.67383,0.6289 c -0.05989,0.2396 -0.10856,0.4979 -0.146,0.7749 -0.03743,0.277 -0.05615,0.56524 -0.05615,0.86472 0,0.91341 0.17969,1.77067 0.53907,2.57178 0.35937,0.80111 0.84602,1.48617 1.45992,2.05518 l 0.0225,0.02246 c 0.0599,-0.01498 0.1273,-0.02621 0.2021,-0.03369 0.0749,-0.00749 0.1498,-0.01123 0.2247,-0.01123 m -4.02055,0 c 0.46419,0.35937 0.9209,0.52034 1.37011,0.48291 0.44922,-0.03744 0.89095,-0.10857 1.3252,-0.21338 C 8.99935,-5.25586 8.54639,-5.9821 8.20947,-6.80566 7.87256,-7.62923 7.7041,-8.49772 7.7041,-9.41113 c 0,-0.14974 0.00375,-0.292 0.01123,-0.42676 0.00749,-0.13477 0.01872,-0.26951 0.03369,-0.40431 v 0.0225 c -1.0332,1.06312 -1.68831,2.0252 -1.96533,2.8862 -0.27702,0.86101 0.0861,1.67334 1.08936,2.43702 m 9.77055,-1.12305 c 0.3743,-0.3444 0.5839,-0.75619 0.6289,-1.23535 0.0449,-0.47917 -0.0262,-0.99203 -0.2134,-1.53858 -0.1872,-0.54655 -0.4605,-1.10433 -0.8198,-1.67334 -0.3594,-0.584 -0.7562,-1.153 -1.1905,-1.707 0,0.0748 0,0.1572 0,0.247 0,0.0899 0,0.1797 0,0.2696 0,0.6738 -0.0524,1.3401 -0.1572,1.999 -0.1198,0.64388 -0.292,1.26904 -0.5166,1.87549 -0.2246,0.60644 -0.4941,1.19417 -0.8086,1.76318 -0.3144,0.55404 -0.6738,1.07064 -1.0781,1.5498 l 0.0224,-0.02246 c 0.5092,0.13477 1.0931,0.13851 1.752,0.01123 0.6588,-0.12728 1.4525,-0.64013 2.3809,-1.53857"
         id="path26"
         inkscape:connector-curvature="0"
         style="vector-effect:none;fill-rule:nonzero" />
    </g>
    <g
       transform="matrix(1.33333,0,0,1.33333,16,16)"
       font-size="8.25"
       font-weight="400"
       font-style="normal"
       id="g30"
       style="font-style:normal;font-weight:400;font-size:8.25px;font-family:'MS Shell Dlg 2';fill:none;stroke:#000000;stroke-width:1;stroke-linecap:square;stroke-linejoin:bevel;stroke-opacity:1" />
    <g
       transform="translate(16,16)"
       font-size="8.25"
       font-weight="400"
       font-style="normal"
       id="g32"
       style="font-style:normal;font-weight:400;font-size:8.25px;font-family:'MS Shell Dlg 2';fill:none;stroke:#000000;stroke-width:1;stroke-linecap:square;stroke-linejoin:bevel;stroke-opacity:1" />
    <g
       font-size="8.25"
       font-weight="400"
       font-style="normal"
       id="g34"
       style="font-style:normal;font-weight:400;font-size:8.25px;font-family:'MS Shell Dlg 2';fill:none;stroke:#000000;stroke-width:1;stroke-linecap:square;stroke-linejoin:bevel;stroke-opacity:1" />
  </g>
</svg>
