<?xml version="1.0" encoding="UTF-8" standalone="no"?>
<svg
   xmlns:dc="http://purl.org/dc/elements/1.1/"
   xmlns:cc="http://creativecommons.org/ns#"
   xmlns:rdf="http://www.w3.org/1999/02/22-rdf-syntax-ns#"
   xmlns:svg="http://www.w3.org/2000/svg"
   xmlns="http://www.w3.org/2000/svg"
   xmlns:sodipodi="http://sodipodi.sourceforge.net/DTD/sodipodi-0.dtd"
   xmlns:inkscape="http://www.inkscape.org/namespaces/inkscape"
   width="20"
   height="20"
   viewBox="0 0 20 20"
   version="1.2"
   id="svg38"
   sodipodi:docname="60201060232.svg"
   inkscape:version="0.92.4 (5da689c313, 2019-01-14)">
  <metadata
     id="metadata42">
    <rdf:RDF>
      <cc:Work
         rdf:about="">
        <dc:format>image/svg+xml</dc:format>
        <dc:type
           rdf:resource="http://purl.org/dc/dcmitype/StillImage" />
      </cc:Work>
    </rdf:RDF>
  </metadata>
  <sodipodi:namedview
     pagecolor="#ffffff"
     bordercolor="#666666"
     borderopacity="1"
     objecttolerance="10"
     gridtolerance="10"
     guidetolerance="10"
     inkscape:pageopacity="0"
     inkscape:pageshadow="2"
     inkscape:window-width="1920"
     inkscape:window-height="1017"
     id="namedview40"
     showgrid="false"
     inkscape:zoom="11.8"
     inkscape:cx="-5.2542373"
     inkscape:cy="10"
     inkscape:window-x="-8"
     inkscape:window-y="-8"
     inkscape:window-maximized="1"
     inkscape:current-layer="svg38" />
  <title
     id="title2">Qt SVG Document</title>
  <desc
     id="desc4">Generated with Qt</desc>
  <defs
     id="defs6" />
  <g
     id="g36"
     transform="matrix(0.65217391,0,0,0.65217391,-0.43478256,-0.43478256)"
     style="fill:none;fill-rule:evenodd;stroke:#000000;stroke-width:1;stroke-linecap:square;stroke-linejoin:bevel">
    <g
       transform="translate(16,16)"
       font-size="8.25"
       font-weight="400"
       font-style="normal"
       id="g8"
       style="font-style:normal;font-weight:400;font-size:8.25px;font-family:'MS Shell Dlg 2';fill:none;stroke:#000000;stroke-width:1;stroke-linecap:square;stroke-linejoin:bevel;stroke-opacity:1" />
    <g
       transform="matrix(1.33333,0,0,1.33333,16,16)"
       font-size="8.25"
       font-weight="400"
       font-style="normal"
       id="g10"
       style="font-style:normal;font-weight:400;font-size:8.25px;font-family:'MS Shell Dlg 2';fill:none;stroke:#000000;stroke-width:1;stroke-linecap:square;stroke-linejoin:bevel;stroke-opacity:1" />
    <g
       transform="translate(4.5,23.1875)"
       font-size="17.0078"
       font-weight="400"
       font-style="normal"
       id="g14"
       style="font-style:normal;font-weight:400;font-size:17.00779915px;font-family:icomoon;fill:#ff0000;fill-opacity:1;stroke:none">
      <path
         d="M 2.02148,-18.6875 H 20.9785 c 0.5541,0 1.0295,0.1984 1.4263,0.5952 C 22.8016,-17.6955 23,-17.2201 23,-16.666 V 2.29102 C 23,2.84505 22.8016,3.32048 22.4048,3.71729 22.008,4.1141 21.5326,4.3125 20.9785,4.3125 H 2.02148 C 1.46745,4.3125 0.992025,4.1141 0.595215,3.71729 0.198405,3.32048 0,2.84505 0,2.29102 V -16.666 c 0,-0.5541 0.198405,-1.0295 0.595215,-1.4263 0.39681,-0.3968 0.872235,-0.5952 1.426265,-0.5952"
         id="path12"
         inkscape:connector-curvature="0"
         style="vector-effect:none;fill-rule:nonzero" />
    </g>
    <g
       transform="matrix(1.33333,0,0,1.33333,16,16)"
       font-size="8.25"
       font-weight="400"
       font-style="normal"
       id="g16"
       style="font-style:normal;font-weight:400;font-size:8.25px;font-family:'MS Shell Dlg 2';fill:none;stroke:#000000;stroke-width:1;stroke-linecap:square;stroke-linejoin:bevel;stroke-opacity:1" />
    <g
       transform="translate(16,16)"
       font-size="8.25"
       font-weight="400"
       font-style="normal"
       id="g18"
       style="font-style:normal;font-weight:400;font-size:8.25px;font-family:'MS Shell Dlg 2';fill:none;stroke:#000000;stroke-width:1;stroke-linecap:square;stroke-linejoin:bevel;stroke-opacity:1" />
    <g
       font-size="8.25"
       font-weight="400"
       font-style="normal"
       id="g20"
       style="font-style:normal;font-weight:400;font-size:8.25px;font-family:'MS Shell Dlg 2';fill:none;stroke:#000000;stroke-width:1;stroke-linecap:square;stroke-linejoin:bevel;stroke-opacity:1" />
    <g
       transform="translate(16,16)"
       font-size="8.25"
       font-weight="400"
       font-style="normal"
       id="g22"
       style="font-style:normal;font-weight:400;font-size:8.25px;font-family:'MS Shell Dlg 2';fill:none;stroke:#000000;stroke-width:1;stroke-linecap:square;stroke-linejoin:bevel;stroke-opacity:1" />
    <g
       transform="matrix(1.33333,0,0,1.33333,16,16)"
       font-size="8.25"
       font-weight="400"
       font-style="normal"
       id="g24"
       style="font-style:normal;font-weight:400;font-size:8.25px;font-family:'MS Shell Dlg 2';fill:none;stroke:#000000;stroke-width:1;stroke-linecap:square;stroke-linejoin:bevel;stroke-opacity:1" />
    <g
       transform="translate(4.5,23.1875)"
       font-size="17.0078"
       font-weight="400"
       font-style="normal"
       id="g28"
       style="font-style:normal;font-weight:400;font-size:17.00779915px;font-family:icomoon;fill:#000000;fill-opacity:1;stroke:none">
      <path
         d="m 20.9785,-18.0137 c 0.3744,0 0.6926,0.1311 0.9546,0.3931 0.262,0.262 0.3931,0.5802 0.3931,0.9546 V 2.29102 c 0,0.37434 -0.1311,0.69254 -0.3931,0.95459 -0.262,0.26204 -0.5802,0.39306 -0.9546,0.39306 H 2.02148 C 1.64714,3.63867 1.32894,3.50765 1.06689,3.24561 0.80485,2.98356 0.673828,2.66536 0.673828,2.29102 V -16.666 c 0,-0.3744 0.131022,-0.6926 0.393062,-0.9546 0.26205,-0.262 0.58025,-0.3931 0.95459,-0.3931 H 20.9785 m 0,-0.6738 H 2.02148 c -0.55403,0 -1.029455,0.1984 -1.426265,0.5952 C 0.198405,-17.6955 0,-17.2201 0,-16.666 V 2.29102 C 0,2.84505 0.198405,3.32048 0.595215,3.71729 0.992025,4.1141 1.46745,4.3125 2.02148,4.3125 H 20.9785 c 0.5541,0 1.0295,-0.1984 1.4263,-0.59521 C 22.8016,3.32048 23,2.84505 23,2.29102 V -16.666 c 0,-0.5541 -0.1984,-1.0295 -0.5952,-1.4263 -0.3968,-0.3968 -0.8722,-0.5952 -1.4263,-0.5952 m -7.4795,6.3789 v 4.33497 H 9.50098 v -4.33497 h -1.9541 v 10.24219 h 1.9541 V -6.40137 H 13.499 v 4.33496 h 1.9541 V -12.3086 H 13.499 M 11.5,-15.2959 c 1.123,0 2.1787,0.2096 3.167,0.6289 0.9883,0.4193 1.8493,0.9958 2.583,1.7295 0.7337,0.7337 1.3102,1.5947 1.7295,2.583 0.4193,0.98829 0.6289,2.04395 0.6289,3.167 0,1.12305 -0.2096,2.17871 -0.6289,3.16699 -0.4193,0.98828 -0.9958,1.84929 -1.7295,2.58301 -0.7337,0.733724 -1.5947,1.310221 -2.583,1.729492 -0.9883,0.419271 -2.044,0.628906 -3.167,0.628906 -1.123,0 -2.17871,-0.209635 -3.16699,-0.628906 C 7.34473,-0.127279 6.48372,-0.703776 5.75,-1.4375 5.01628,-2.17122 4.43978,-3.03223 4.02051,-4.02051 3.60124,-5.00879 3.3916,-6.06445 3.3916,-7.1875 c 0,-1.12305 0.20964,-2.17871 0.62891,-3.167 0.41927,-0.9883 0.99577,-1.8493 1.72949,-2.583 0.73372,-0.7337 1.59473,-1.3102 2.58301,-1.7295 0.98828,-0.4193 2.04399,-0.6289 3.16699,-0.6289 m 0,-1.3701 c -1.3027,0 -2.5306,0.2471 -3.68359,0.7412 -1.153,0.5091 -2.15625,1.1904 -3.00977,2.0439 -0.85351,0.8536 -1.53483,1.8568 -2.04394,3.0098 -0.49415,1.153 -0.74122,2.38087 -0.74122,3.6836 0,1.30273 0.24707,2.5306 0.74122,3.68359 0.50911,1.153 1.19043,2.15625 2.04394,3.009769 C 5.66016,0.359375 6.66341,1.04069 7.81641,1.5498 8.9694,2.04395 10.1973,2.29102 11.5,2.29102 c 1.3027,0 2.5306,-0.24707 3.6836,-0.74122 1.153,-0.50911 2.1562,-1.190425 3.0098,-2.043941 0.8535,-0.853519 1.5348,-1.856769 2.0439,-3.009769 0.4941,-1.15299 0.7412,-2.38086 0.7412,-3.68359 0,-1.30273 -0.2471,-2.5306 -0.7412,-3.6836 -0.5091,-1.153 -1.1904,-2.1562 -2.0439,-3.0098 -0.8536,-0.8535 -1.8568,-1.5348 -3.0098,-2.0439 -1.153,-0.4941 -2.3809,-0.7412 -3.6836,-0.7412"
         id="path26"
         inkscape:connector-curvature="0"
         style="vector-effect:none;fill-rule:nonzero" />
    </g>
    <g
       transform="matrix(1.33333,0,0,1.33333,16,16)"
       font-size="8.25"
       font-weight="400"
       font-style="normal"
       id="g30"
       style="font-style:normal;font-weight:400;font-size:8.25px;font-family:'MS Shell Dlg 2';fill:none;stroke:#000000;stroke-width:1;stroke-linecap:square;stroke-linejoin:bevel;stroke-opacity:1" />
    <g
       transform="translate(16,16)"
       font-size="8.25"
       font-weight="400"
       font-style="normal"
       id="g32"
       style="font-style:normal;font-weight:400;font-size:8.25px;font-family:'MS Shell Dlg 2';fill:none;stroke:#000000;stroke-width:1;stroke-linecap:square;stroke-linejoin:bevel;stroke-opacity:1" />
    <g
       font-size="8.25"
       font-weight="400"
       font-style="normal"
       id="g34"
       style="font-style:normal;font-weight:400;font-size:8.25px;font-family:'MS Shell Dlg 2';fill:none;stroke:#000000;stroke-width:1;stroke-linecap:square;stroke-linejoin:bevel;stroke-opacity:1" />
  </g>
</svg>
