<svg xmlns="http://www.w3.org/2000/svg" width="20" height="20" version="1.2">
    <g font-weight="400" style="fill:none;fill-rule:evenodd;stroke:#000;stroke-width:1;stroke-linecap:square;stroke-linejoin:bevel">
        <g style="font-style:normal;font-weight:400;font-size:22.67709923px;font-family:icomoon;fill:red;fill-opacity:1;stroke:none">
            <path d="M2.637-24.375h24.726c.723 0 1.343.259 1.86.776.518.518.777 1.138.777 1.86V2.989c0 .723-.259 1.343-.776 1.86a2.538 2.538 0 0 1-1.86.777H2.636a2.538 2.538 0 0 1-1.86-.776A2.538 2.538 0 0 1 0 2.989v-24.727c0-.723.259-1.343.776-1.86a2.538 2.538 0 0 1 1.86-.777" font-size="22.677" style="vector-effect:none;fill-rule:nonzero" transform="matrix(.66667 0 0 .66667 0 16.25)"/>
        </g>
        <g style="font-style:normal;font-weight:400;font-size:17.00779915px;font-family:icomoon;fill:#000;fill-opacity:1;stroke:none">
            <path d="M20.979-18.014a1.3 1.3 0 0 1 .954.393 1.3 1.3 0 0 1 .393.955V2.291a1.3 1.3 0 0 1-.393.955 1.3 1.3 0 0 1-.955.393H2.021a1.3 1.3 0 0 1-.954-.393 1.3 1.3 0 0 1-.393-.955v-18.957a1.3 1.3 0 0 1 .393-.955 1.3 1.3 0 0 1 .954-.393h18.957m0-.674H2.021c-.554 0-1.029.199-1.426.596A1.946 1.946 0 0 0 0-16.666V2.291c0 .554.198 1.03.595 1.426.397.397.872.595 1.426.595h18.957c.555 0 1.03-.198 1.427-.595.397-.397.595-.872.595-1.426v-18.957c0-.554-.198-1.03-.595-1.426a1.946 1.946 0 0 0-1.426-.596M17.407-8.04V-8.176a16.645 16.645 0 0 0-.943-3.055c-.39-.928-.835-1.714-1.337-2.358-.501-.644-1.052-1.153-1.65-1.527a3.749 3.749 0 0 0-1.865-.562H11.5c-.644 0-1.273.18-1.887.54-.599.344-1.156.842-1.673 1.493-.517.651-.97 1.441-1.359 2.37-.404.913-.734 1.939-.988 3.077V-7.84l.045.045.067.067h.023l.067.045.045.023h.404-.022.067-.022l.09-.045v-.023l.033-.033c.008-.008.011-.019.011-.034h.023V-7.838a5.217 5.217 0 0 1 1.763-2.258 5.262 5.262 0 0 1 2.707-1.022h.022v5.346H8.872v7.457h5.39v-7.457h-2.178v-5.369a5.36 5.36 0 0 1 2.64 1.056 5.353 5.353 0 0 1 1.717 2.179v.045l.012.022c.007.015.018.023.033.023v.09c.015.014.03.026.045.033.015.008.03.019.045.034h.023a.184.184 0 0 0 .112.045h.337c.015 0 .022-.015.022-.045h.045v-.023l.045-.045c.015-.015.023-.03.023-.044l.045-.023v-.202l.18-.045m-3.213-5.009a4.24 4.24 0 0 0-.988-.55 5.178 5.178 0 0 0-1.123-.303h-.045v-.674c.45.135.857.333 1.224.595.367.262.678.565.932.91v.022m-3.144-1.572v.674a4.36 4.36 0 0 0-1.202.303 5.121 5.121 0 0 0-1.067.595h.023a3.954 3.954 0 0 1 2.223-1.572h.023m-2.696 3.257c.33-.405.727-.738 1.19-1a4.561 4.561 0 0 1 1.483-.528h.023v.72a6.876 6.876 0 0 0-2.718.83l.045-.022h-.023m3.729-1.505c.51.105.98.288 1.415.55.434.262.816.58 1.145.955a6.51 6.51 0 0 0-2.538-.786h-.022v-.72" font-size="17.008" style="vector-effect:none;fill-rule:nonzero" transform="matrix(.66667 0 0 .66667 2.333 14.792)"/>
        </g>
        <g style="font-style:normal;font-weight:400;font-size:22.67709923px;font-family:icomoon;fill:#000;fill-opacity:1;stroke:none">
            <path d="M26.426-22.236c.39 0 .727.141 1.01.425.284.283.425.62.425 1.01V2.051c0 .39-.141.727-.425 1.01a1.38 1.38 0 0 1-1.01.425H3.574a1.38 1.38 0 0 1-1.01-.424 1.38 1.38 0 0 1-.425-1.011v-22.852c0-.39.141-.727.424-1.01a1.38 1.38 0 0 1 1.011-.425h22.852m0-.703H3.574c-.586 0-1.089.21-1.509.63-.42.42-.63.922-.63 1.508V2.051c0 .586.21 1.089.63 1.509.42.42.923.63 1.51.63h22.85c.587 0 1.09-.21 1.51-.63.42-.42.63-.923.63-1.51V-20.8c0-.587-.21-1.09-.63-1.51-.42-.42-.923-.63-1.51-.63m1.436-.732c.391 0 .728.142 1.011.425.283.283.425.62.425 1.01V3.487c0 .39-.142.728-.425 1.011a1.38 1.38 0 0 1-1.01.425H2.138a1.38 1.38 0 0 1-1.011-.425 1.38 1.38 0 0 1-.425-1.01v-25.723c0-.391.142-.728.425-1.011a1.38 1.38 0 0 1 1.01-.425h25.723m0-.703H2.14c-.586 0-1.09.21-1.51.63-.419.42-.629.923-.629 1.509V3.486c0 .586.21 1.09.63 1.51.42.419.923.629 1.509.629H27.86c.586 0 1.09-.21 1.51-.63.419-.42.629-.923.629-1.509v-25.722c0-.586-.21-1.09-.63-1.51-.42-.419-.923-.629-1.509-.629" font-size="22.677" style="vector-effect:none;fill-rule:nonzero" transform="matrix(.66667 0 0 .66667 0 16.25)"/>
        </g>
    </g>
</svg>
