<svg xmlns="http://www.w3.org/2000/svg" width="20" height="20" version="1.2">
    <g font-weight="400" style="fill:none;fill-rule:evenodd;stroke:#000;stroke-width:1;stroke-linecap:square;stroke-linejoin:bevel">
        <g style="font-style:normal;font-weight:400;font-size:19.84250069px;font-family:icomoon;fill:#ff0;fill-opacity:1;stroke:none">
            <path d="M2.285-21.125h21.43a2.2 2.2 0 0 1 1.612.673A2.2 2.2 0 0 1 26-18.84V2.59a2.2 2.2 0 0 1-.673 1.612 2.2 2.2 0 0 1-1.612.673H2.285a2.2 2.2 0 0 1-1.612-.673A2.2 2.2 0 0 1 0 2.59v-21.43a2.2 2.2 0 0 1 .673-1.612 2.2 2.2 0 0 1 1.612-.673" font-size="19.843" style="vector-effect:none;fill-rule:nonzero" transform="matrix(.6923 0 0 .6923 1 15.625)"/>
        </g>
        <g style="font-style:normal;font-weight:400;font-size:17.00779915px;font-family:icomoon;fill:#000;fill-opacity:1;stroke:none">
            <path d="M20.979-18.014a1.3 1.3 0 0 1 .954.393 1.3 1.3 0 0 1 .393.955V2.291a1.3 1.3 0 0 1-.393.955 1.3 1.3 0 0 1-.955.393H2.021a1.3 1.3 0 0 1-.954-.393 1.3 1.3 0 0 1-.393-.955v-18.957a1.3 1.3 0 0 1 .393-.955 1.3 1.3 0 0 1 .954-.393h18.957m0-.674H2.021c-.554 0-1.029.199-1.426.596A1.946 1.946 0 0 0 0-16.666V2.291c0 .554.198 1.03.595 1.426.397.397.872.595 1.426.595h18.957c.555 0 1.03-.198 1.427-.595.397-.397.595-.872.595-1.426v-18.957c0-.554-.198-1.03-.595-1.426a1.946 1.946 0 0 0-1.426-.596M14.195-5.84l1.685-5.188h-1.572l-.405 1.213a2.395 2.395 0 0 0-.853-1.146c-.405-.3-.869-.45-1.393-.45h-.045A4.574 4.574 0 0 0 8.31-9.905v.023c-.449.45-.804.981-1.066 1.595a4.982 4.982 0 0 0-.393 1.976v.09c0 .375.056.734.168 1.078.112.345.266.66.46.944.255.374.584.681.989.92.404.24.846.36 1.325.36h.09a3.487 3.487 0 0 0 1.46-.404c.449-.24.83-.554 1.145-.944.09.465.307.817.652 1.056.344.24.808.36 1.392.36h.068c.688 0 1.328-.147 1.92-.439a4.446 4.446 0 0 0 1.494-1.179v-.022c.015 0 .026-.004.033-.011.008-.008.012-.02.012-.034.479-.54.857-1.157 1.134-1.853a5.93 5.93 0 0 0 .415-2.213 7.275 7.275 0 0 0-.044-.786v.023a6.282 6.282 0 0 0-.832-2.392 6.597 6.597 0 0 0-1.64-1.853h-.022a7.867 7.867 0 0 0-2.392-1.393 8.127 8.127 0 0 0-2.841-.494h-.157.022c-.24 0-.479.011-.719.034-.24.022-.471.048-.696.078h.067c-.943.135-1.823.4-2.639.798a9.73 9.73 0 0 0-2.212 1.47l-.09.068c-.105.105-.202.206-.292.303-.09.098-.18.191-.27.281v.045l-.044.023a9.193 9.193 0 0 0-.45.584 8.77 8.77 0 0 0-1.314 2.437 8.422 8.422 0 0 0-.482 2.84v.023l.067.854c.135.943.43 1.8.887 2.572a7.306 7.306 0 0 0 1.718 1.987h.023A8.652 8.652 0 0 0 7.828.382a8.72 8.72 0 0 0 3.066.539h.157-.023c.764 0 1.505-.067 2.224-.202a10.605 10.605 0 0 0 2.066-.607l-.09.023a13.038 13.038 0 0 0 2.01-1.19 12.19 12.19 0 0 0 1.719-1.506l-.472-.561a9.605 9.605 0 0 1-1.718 1.213 9.074 9.074 0 0 1-1.988.808h-.067c-.54.18-1.108.322-1.707.427a12.49 12.49 0 0 1-1.864.18H10.916A6.957 6.957 0 0 1 8.276-1a6.902 6.902 0 0 1-2.19-1.403v.022a6.005 6.005 0 0 1-1.425-1.932 5.58 5.58 0 0 1-.528-2.403v-.112.022-.022c0-.929.172-1.8.516-2.617a7.364 7.364 0 0 1 1.393-2.167v.022l.562-.584a7.185 7.185 0 0 1 2.167-1.381 6.79 6.79 0 0 1 2.617-.505h.359a6.478 6.478 0 0 1 2.426.505 6.911 6.911 0 0 1 2.021 1.291c.554.48.992 1.052 1.314 1.719.322.666.483 1.388.483 2.167v.023c0 .539-.082 1.055-.247 1.55-.165.493-.397.95-.696 1.37v-.023c-.225.39-.528.704-.91.943-.382.24-.797.375-1.246.405h-.045c-.06 0-.12-.004-.18-.012a.555.555 0 0 1-.18-.056h.023a.696.696 0 0 1-.393-.27.785.785 0 0 1-.146-.47 2.62 2.62 0 0 1 .09-.484 4.78 4.78 0 0 1 .157-.46l-.023.022m-.988-1.887a6.633 6.633 0 0 1-.92 2.471v-.022a2.2 2.2 0 0 1-.776.842 2.34 2.34 0 0 1-1.112.37c-.18 0-.348-.03-.505-.09a2.196 2.196 0 0 1-.438-.224 2.329 2.329 0 0 1-.64-.764 2.093 2.093 0 0 1-.236-.988v-.056c0-.022.008-.049.023-.079H8.58V-6.312c0-.494.075-.958.225-1.392.15-.434.36-.839.629-1.213v.022c.21-.374.494-.685.853-.932.36-.247.764-.385 1.213-.415h.022c.165 0 .326.022.483.067.158.045.311.105.46.18h-.022c.24.135.435.322.584.561.15.24.225.51.225.809v.157l-.045.741" font-size="17.008" style="vector-effect:none;fill-rule:nonzero" transform="matrix(.6923 0 0 .6923 2.038 14.976)"/>
        </g>
        <g style="font-style:normal;font-weight:400;font-size:19.84250069px;font-family:icomoon;fill:#000;fill-opacity:1;stroke:none">
            <path d="M23.943-20.44c.373 0 .694.136.965.407.271.27.406.592.406.965V2.818c0 .373-.135.694-.406.965-.27.271-.592.406-.965.406H2.057c-.373 0-.694-.135-.965-.406a1.318 1.318 0 0 1-.406-.965v-21.886c0-.373.135-.694.406-.965.27-.271.592-.407.965-.407h21.886m0-.685H2.057c-.576 0-1.063.199-1.46.597A1.986 1.986 0 0 0 0-19.068V2.818c0 .576.199 1.063.597 1.46.397.398.884.597 1.46.597h21.886c.576 0 1.063-.199 1.46-.597.398-.397.597-.884.597-1.46v-21.886c0-.576-.199-1.063-.597-1.46a1.986 1.986 0 0 0-1.46-.597" font-size="19.843" style="vector-effect:none;fill-rule:nonzero" transform="matrix(.6923 0 0 .6923 1 15.625)"/>
        </g>
    </g>
</svg>
