<svg xmlns="http://www.w3.org/2000/svg" width="20" height="20" baseProfile="tiny" version="1.2">
    <g fill="none" fill-rule="evenodd" stroke="#000" stroke-linecap="square" stroke-linejoin="bevel" font-weight="400">
        <path fill="#fff" fill-rule="nonzero" stroke="none" d="M6.521 4.5h18.957c.555 0 1.03.198 1.427.595.397.397.595.872.595 1.426V25.48c0 .554-.198 1.029-.595 1.426a1.946 1.946 0 0 1-1.427.595H6.521c-.554 0-1.029-.198-1.426-.595a1.946 1.946 0 0 1-.595-1.426V6.522c0-.555.198-1.03.595-1.427A1.946 1.946 0 0 1 6.521 4.5" font-family="icomoon" font-size="17.008"/>
        <path fill="#000" fill-rule="nonzero" stroke="none" d="M25.479 5.174a1.3 1.3 0 0 1 .954.393 1.3 1.3 0 0 1 .393.954V25.48a1.3 1.3 0 0 1-.393.954 1.3 1.3 0 0 1-.954.393H6.52a1.3 1.3 0 0 1-.954-.393 1.3 1.3 0 0 1-.393-.954V6.522a1.3 1.3 0 0 1 .393-.955 1.3 1.3 0 0 1 .954-.393h18.957m0-.674H6.521c-.554 0-1.029.198-1.426.595A1.946 1.946 0 0 0 4.5 6.521V25.48c0 .554.198 1.029.595 1.426.397.397.872.595 1.426.595h18.957c.555 0 1.03-.198 1.427-.595.397-.397.595-.872.595-1.426V6.522c0-.555-.198-1.03-.595-1.427a1.946 1.946 0 0 0-1.427-.595m-1.235 12.893a.517.517 0 0 0-.18-.18.471.471 0 0 0-.247-.067.1.1 0 0 0-.044.01.1.1 0 0 1-.045.012h.022l-1.932.27 2.471-5.728a.519.519 0 0 0 .045-.202.545.545 0 0 0-.056-.247.432.432 0 0 0-.169-.18.738.738 0 0 0-.27-.067.519.519 0 0 0-.213.045.636.636 0 0 0-.19.134l-3.819 4.425-.426-1.415a.538.538 0 0 0-.158-.258.498.498 0 0 0-.27-.124h-.044a.458.458 0 0 0-.27.079.623.623 0 0 0-.18.19l-1.19 2.157-.18-4.155a.522.522 0 0 0-.965-.225v.023l-1.258 2.38-3.46-6.49a.58.58 0 0 0-.19-.192.474.474 0 0 0-.258-.078.513.513 0 0 0-.36.146.484.484 0 0 0-.157.37v.045c0 .015.007.03.022.045l1.19 7.21-1.28-.741a.354.354 0 0 0-.123-.056.77.77 0 0 0-.27 0 .354.354 0 0 0-.123.056.516.516 0 0 0-.18.18.471.471 0 0 0-.067.247v2.246l-2.403-1.483a.4.4 0 0 0-.113-.033.818.818 0 0 0-.134-.012.475.475 0 0 0-.349.146.475.475 0 0 0-.123.483l.045.135 3.19 4.694c.044.06.1.113.168.158a.378.378 0 0 0 .213.067h11.725c.09 0 .172-.019.247-.056a.433.433 0 0 0 .18-.169l2.178-3.256a.201.201 0 0 0 .056-.113.966.966 0 0 0 0-.292.347.347 0 0 0-.056-.134m-2.83 3.01H10.205l-1.707-2.516 1.168.718.135.045a.424.424 0 0 0 .27 0 .872.872 0 0 0 .112-.045.581.581 0 0 0 .19-.19.474.474 0 0 0 .08-.259v-2.268l1.437.83a.28.28 0 0 0 .123.068.533.533 0 0 0 .146.023c.045 0 .09-.008.135-.023a.567.567 0 0 0 .135-.067.618.618 0 0 0 .157-.18.471.471 0 0 0 .067-.247v-.067l-.898-5.256 2.493 4.627c.045.09.105.157.18.202a.514.514 0 0 0 .528-.011.408.408 0 0 0 .168-.191l.831-1.573.202 4.088c0 .12.038.221.113.304a.57.57 0 0 0 .27.168c.029 0 .052.004.066.011a.1.1 0 0 0 .045.011.458.458 0 0 0 .27-.078.622.622 0 0 0 .18-.191l1.46-2.718.337 1.146a.51.51 0 0 0 .146.224c.067.06.146.098.235.113.015.015.03.022.045.022h.045a.52.52 0 0 0 .213-.045.421.421 0 0 0 .169-.135l2.336-2.628-1.55 3.572a.438.438 0 0 0-.045.18c0 .134.053.25.157.348a.513.513 0 0 0 .36.146h.067l1.685-.225-1.348 2.066" font-family="icomoon" font-size="17.008"/>
    </g>
</svg>
