<svg xmlns="http://www.w3.org/2000/svg" width="20" height="20" baseProfile="tiny" version="1.2">
    <g fill="none" fill-rule="evenodd" stroke="#000" stroke-linecap="square" stroke-linejoin="bevel" font-weight="400">
        <path fill="#fff" fill-rule="nonzero" stroke="none" d="M6.521 4.5h18.957c.555 0 1.03.198 1.427.595.397.397.595.872.595 1.426V25.48c0 .554-.198 1.029-.595 1.426a1.946 1.946 0 0 1-1.427.595H6.521c-.554 0-1.029-.198-1.426-.595a1.946 1.946 0 0 1-.595-1.426V6.522c0-.555.198-1.03.595-1.427A1.946 1.946 0 0 1 6.521 4.5" font-family="icomoon" font-size="17.008"/>
        <path fill="#000" fill-rule="nonzero" stroke="none" d="M25.479 5.174a1.3 1.3 0 0 1 .954.393 1.3 1.3 0 0 1 .393.954V25.48a1.3 1.3 0 0 1-.393.954 1.3 1.3 0 0 1-.954.393H6.52a1.3 1.3 0 0 1-.954-.393 1.3 1.3 0 0 1-.393-.954V6.522a1.3 1.3 0 0 1 .393-.955 1.3 1.3 0 0 1 .954-.393h18.957m0-.674H6.521c-.554 0-1.029.198-1.426.595A1.946 1.946 0 0 0 4.5 6.521V25.48c0 .554.198 1.029.595 1.426.397.397.872.595 1.426.595h18.957c.555 0 1.03-.198 1.427-.595.397-.397.595-.872.595-1.426V6.522c0-.555-.198-1.03-.595-1.427a1.946 1.946 0 0 0-1.427-.595m-15.026 5.93c.659 0 1.344.337 2.055 1.01.712.674 1.434 1.011 2.168 1.011.374 0 .741-.165 1.1-.494a8.24 8.24 0 0 0 .932-1.112c.277-.397.506-.767.686-1.112l.247-.494-.899.674c-.599.45-1.243.674-1.931.674-.69 0-1.39-.367-2.1-1.1-.712-.734-1.42-1.101-2.123-1.101-.704 0-1.292.539-1.763 1.617l-.708 1.617c.285-.314.625-.58 1.022-.797a3.328 3.328 0 0 1 1.292-.393h.022m-.292 9.119c-.719 0-1.31.535-1.774 1.606l-.697 1.606c.3-.33.652-.6 1.056-.809.404-.21.839-.337 1.303-.382h.022c.644 0 1.326.337 2.044 1.011.719.674 1.445 1.01 2.179 1.01.374 0 .741-.171 1.1-.516.345-.33.656-.696.933-1.1.277-.405.505-.779.685-1.123l.247-.495-.899.674c-.599.45-1.243.674-1.931.674-.674 0-1.37-.36-2.09-1.078-.718-.719-1.444-1.078-2.178-1.078m11.32-3.077c-.673 0-1.37-.363-2.088-1.09-.72-.726-1.445-1.089-2.18-1.089-.718 0-1.31.539-1.774 1.617l-.696 1.617c.3-.33.652-.599 1.056-.808.404-.21.838-.337 1.303-.382h.022c.644 0 1.325.337 2.044 1.01.719.674 1.445 1.011 2.179 1.011.374 0 .733-.164 1.078-.494.36-.344.677-.718.954-1.123.277-.404.498-.77.663-1.1l.27-.517-.899.674c-.599.45-1.243.674-1.931.674" font-family="icomoon" font-size="17.008"/>
    </g>
</svg>
