<svg xmlns="http://www.w3.org/2000/svg" xml:space="preserve" width="210mm" height="297mm" viewBox="0 0 210 297">
    <path d="M51.152 212.308h12.127c.354 0 .658.127.912.38.254.255.38.559.38.913v12.127c0 .355-.126.659-.38.913s-.558.38-.912.38H51.152c-.355 0-.659-.126-.913-.38a1.245 1.245 0 0 1-.38-.913v-12.127c0-.354.126-.658.38-.912s.558-.38.913-.38" style="font-style:normal;font-weight:400;font-size:19.8425px;font-family:icomoon;display:inline;vector-effect:none;fill:#fff;fill-opacity:1;fill-rule:nonzero;stroke:none;stroke-width:.565899;stroke-linecap:square;stroke-linejoin:bevel" transform="translate(-49.648 -212.098)"/>
    <path d="M50.966 212.097c-.361 0-.671.13-.93.389a1.269 1.269 0 0 0-.388.93v12.363c0 .361.13.672.388.93.259.26.569.389.93.389H63.33c.362 0 .672-.13.93-.389.26-.258.389-.569.389-.93v-12.363c0-.361-.13-.672-.388-.93a1.269 1.269 0 0 0-.93-.388zm0 .44H63.33c.245 0 .452.085.623.256.17.171.256.379.256.623v12.363a.848.848 0 0 1-.256.623.847.847 0 0 1-.623.256H50.966a.847.847 0 0 1-.622-.256.848.848 0 0 1-.257-.623v-12.363c0-.244.086-.452.257-.623a.848.848 0 0 1 .622-.256z" style="font-style:normal;font-weight:400;font-size:17.0078px;font-family:icomoon;vector-effect:none;fill:#000;fill-opacity:1;fill-rule:nonzero;stroke:none;stroke-width:.652176;stroke-linecap:square;stroke-linejoin:bevel" transform="translate(-49.648 -212.098)"/>
    <path d="M37.448 83.929v21.453l6.963 6.962v-35.44ZM69.376 51.844l-6.664 6.665v72.026l6.656 6.657zM94.365 26.901l-6.997 6.997v121.366l7.277 7.246zM111.552 9.802l4.037-4.036 4.125 4.125v169.391l-4.159 4.159-3.814-3.815zM193.797 83.929v21.453l-6.963 6.962v-35.44ZM161.869 51.844l6.665 6.665v72.026l-6.657 6.657zM136.88 26.901l6.997 6.997v121.366l-7.277 7.246z" style="opacity:1;fill:#000;fill-opacity:1;stroke:#000;stroke-width:4.344;stroke-linecap:square;stroke-linejoin:miter;stroke-dasharray:none;stroke-opacity:1;paint-order:stroke markers fill" transform="matrix(.07404 0 0 .07404 -.934 .445)"/>
</svg>
