<svg xmlns="http://www.w3.org/2000/svg" width="20" height="20" version="1.2">
    <g font-weight="400" style="fill:none;fill-rule:evenodd;stroke:#000;stroke-width:1;stroke-linecap:square;stroke-linejoin:bevel">
        <g style="font-style:normal;font-weight:400;font-size:17.00779915px;font-family:icomoon;fill:#fff;fill-opacity:1;stroke:none">
            <path d="M2.021-18.688h18.957c.555 0 1.03.199 1.427.596.397.396.595.872.595 1.426V2.291c0 .554-.198 1.03-.595 1.426a1.946 1.946 0 0 1-1.427.595H2.021c-.554 0-1.029-.198-1.426-.595A1.946 1.946 0 0 1 0 2.291v-18.957c0-.554.198-1.03.595-1.426a1.946 1.946 0 0 1 1.426-.596" font-size="17.008" style="vector-effect:none;fill-rule:nonzero" transform="matrix(.65217 0 0 .65217 2.5 14.687)"/>
        </g>
        <g style="font-style:normal;font-weight:400;font-size:17.00779915px;font-family:icomoon;fill:#000;fill-opacity:1;stroke:none">
            <path d="M20.979-18.014a1.3 1.3 0 0 1 .954.393 1.3 1.3 0 0 1 .393.955V2.291a1.3 1.3 0 0 1-.393.955 1.3 1.3 0 0 1-.955.393H2.021a1.3 1.3 0 0 1-.954-.393 1.3 1.3 0 0 1-.393-.955v-18.957a1.3 1.3 0 0 1 .393-.955 1.3 1.3 0 0 1 .954-.393h18.957m0-.674H2.021c-.554 0-1.029.199-1.426.596A1.946 1.946 0 0 0 0-16.666V2.291c0 .554.198 1.03.595 1.426.397.397.872.595 1.426.595h18.957c.555 0 1.03-.198 1.427-.595.397-.397.595-.872.595-1.426v-18.957c0-.554-.198-1.03-.595-1.426a1.946 1.946 0 0 0-1.426-.596m-6.155 14.96-2.65-11.568a.615.615 0 0 0-.236-.393.67.67 0 0 0-.415-.146h-.046a.67.67 0 0 0-.415.146.604.604 0 0 0-.236.37L7.951-3.48V-3.415a4.074 4.074 0 0 0-.202 1.259c0 1.018.363 1.89 1.09 2.616.726.727 1.598 1.09 2.616 1.09 1.033 0 1.913-.363 2.64-1.09.726-.726 1.089-1.598 1.089-2.616v-.023c0-.284-.03-.557-.09-.82a3.341 3.341 0 0 0-.27-.752v.022M11.455.202c-.659 0-1.22-.232-1.684-.696a2.269 2.269 0 0 1-.697-1.662c0-.66.232-1.22.697-1.685a2.295 2.295 0 0 1 1.684-.696c.659 0 1.217.232 1.673.696.457.464.685 1.026.685 1.685 0 .644-.228 1.198-.685 1.662a2.258 2.258 0 0 1-1.673.696" font-size="17.008" style="vector-effect:none;fill-rule:nonzero" transform="matrix(.65217 0 0 .65217 2.5 14.687)"/>
        </g>
    </g>
</svg>
