<svg xmlns="http://www.w3.org/2000/svg" width="20" height="20" version="1.2">
    <g font-weight="400" style="fill:none;fill-rule:evenodd;stroke:#000;stroke-width:1;stroke-linecap:square;stroke-linejoin:bevel">
        <g style="font-style:normal;font-weight:400;font-size:19.84250069px;font-family:icomoon;fill:#fff;fill-opacity:1;stroke:none">
            <path d="M2.285-21.125h21.43a2.2 2.2 0 0 1 1.612.673A2.2 2.2 0 0 1 26-18.84V2.59a2.2 2.2 0 0 1-.673 1.612 2.2 2.2 0 0 1-1.612.673H2.285a2.2 2.2 0 0 1-1.612-.673A2.2 2.2 0 0 1 0 2.59v-21.43a2.2 2.2 0 0 1 .673-1.612 2.2 2.2 0 0 1 1.612-.673" font-size="19.843" style="vector-effect:none;fill-rule:nonzero" transform="matrix(.6923 0 0 .6923 1 15.625)"/>
        </g>
        <g style="font-style:normal;font-weight:400;font-size:17.00779915px;font-family:icomoon;fill:#000;fill-opacity:1;stroke:none">
            <path d="M20.979-18.014a1.3 1.3 0 0 1 .954.393 1.3 1.3 0 0 1 .393.955V2.291a1.3 1.3 0 0 1-.393.955 1.3 1.3 0 0 1-.955.393H2.021a1.3 1.3 0 0 1-.954-.393 1.3 1.3 0 0 1-.393-.955v-18.957a1.3 1.3 0 0 1 .393-.955 1.3 1.3 0 0 1 .954-.393h18.957m0-.674H2.021c-.554 0-1.029.199-1.426.596A1.946 1.946 0 0 0 0-16.666V2.291c0 .554.198 1.03.595 1.426.397.397.872.595 1.426.595h18.957c.555 0 1.03-.198 1.427-.595.397-.397.595-.872.595-1.426v-18.957c0-.554-.198-1.03-.595-1.426a1.946 1.946 0 0 0-1.426-.596M11.5-9.973a2.68 2.68 0 0 1 1.965.82 2.68 2.68 0 0 1 .82 1.966 2.68 2.68 0 0 1-.82 1.965 2.68 2.68 0 0 1-1.965.82 2.68 2.68 0 0 1-1.965-.82 2.68 2.68 0 0 1-.82-1.965c0-.764.273-1.42.82-1.966a2.68 2.68 0 0 1 1.965-.82m0-6.76a9.47 9.47 0 0 0-3.729.74 9.86 9.86 0 0 0-3.02 2.056 9.861 9.861 0 0 0-2.056 3.021 9.47 9.47 0 0 0-.74 3.728c0 1.318.246 2.561.74 3.729A9.861 9.861 0 0 0 4.75-.438a9.861 9.861 0 0 0 3.021 2.055 9.47 9.47 0 0 0 3.729.741 9.47 9.47 0 0 0 3.728-.74A9.861 9.861 0 0 0 18.25-.439a9.86 9.86 0 0 0 2.055-3.021 9.47 9.47 0 0 0 .74-3.729 9.47 9.47 0 0 0-.74-3.728 9.86 9.86 0 0 0-2.055-3.021 9.86 9.86 0 0 0-3.021-2.055 9.47 9.47 0 0 0-3.729-.741m0 7.86c-.464 0-.861.166-1.19.495-.33.33-.495.726-.495 1.19 0 .465.165.861.495 1.19.329.33.726.495 1.19.495.464 0 .861-.165 1.19-.494.33-.33.495-.726.495-1.19 0-.465-.165-.862-.495-1.19a1.622 1.622 0 0 0-1.19-.495" font-size="17.008" style="vector-effect:none;fill-rule:nonzero" transform="matrix(.6923 0 0 .6923 2.038 14.976)"/>
        </g>
        <g style="font-style:normal;font-weight:400;font-size:19.84250069px;font-family:icomoon;fill:#000;fill-opacity:1;stroke:none">
            <path d="M23.943-20.44c.373 0 .694.136.965.407.271.27.406.592.406.965V2.818c0 .373-.135.694-.406.965-.27.271-.592.406-.965.406H2.057c-.373 0-.694-.135-.965-.406a1.318 1.318 0 0 1-.406-.965v-21.886c0-.373.135-.694.406-.965.27-.271.592-.407.965-.407h21.886m0-.685H2.057c-.576 0-1.063.199-1.46.597A1.986 1.986 0 0 0 0-19.068V2.818c0 .576.199 1.063.597 1.46.397.398.884.597 1.46.597h21.886c.576 0 1.063-.199 1.46-.597.398-.397.597-.884.597-1.46v-21.886c0-.576-.199-1.063-.597-1.46a1.986 1.986 0 0 0-1.46-.597" font-size="19.843" style="vector-effect:none;fill-rule:nonzero" transform="matrix(.6923 0 0 .6923 1 15.625)"/>
        </g>
    </g>
</svg>
