<svg xmlns="http://www.w3.org/2000/svg" width="20" height="20" version="1.2">
    <g font-weight="400" style="fill:none;fill-rule:evenodd;stroke:#000;stroke-width:1;stroke-linecap:square;stroke-linejoin:bevel">
        <g style="font-style:normal;font-weight:400;font-size:19.84250069px;font-family:icomoon;fill:#fff;fill-opacity:1;stroke:none">
            <path d="M2.285-21.125h21.43a2.2 2.2 0 0 1 1.612.673A2.2 2.2 0 0 1 26-18.84V2.59a2.2 2.2 0 0 1-.673 1.612 2.2 2.2 0 0 1-1.612.673H2.285a2.2 2.2 0 0 1-1.612-.673A2.2 2.2 0 0 1 0 2.59v-21.43a2.2 2.2 0 0 1 .673-1.612 2.2 2.2 0 0 1 1.612-.673" font-size="19.843" style="vector-effect:none;fill-rule:nonzero" transform="matrix(.6923 0 0 .6923 1 15.625)"/>
        </g>
        <g style="font-style:normal;font-weight:400;font-size:17.00779915px;font-family:icomoon;fill:#000;fill-opacity:1;stroke:none">
            <path d="M20.979-18.014a1.3 1.3 0 0 1 .954.393 1.3 1.3 0 0 1 .393.955V2.291a1.3 1.3 0 0 1-.393.955 1.3 1.3 0 0 1-.955.393H2.021a1.3 1.3 0 0 1-.954-.393 1.3 1.3 0 0 1-.393-.955v-18.957a1.3 1.3 0 0 1 .393-.955 1.3 1.3 0 0 1 .954-.393h18.957m0-.674H2.021c-.554 0-1.029.199-1.426.596A1.946 1.946 0 0 0 0-16.666V2.291c0 .554.198 1.03.595 1.426.397.397.872.595 1.426.595h18.957c.555 0 1.03-.198 1.427-.595.397-.397.595-.872.595-1.426v-18.957c0-.554-.198-1.03-.595-1.426a1.946 1.946 0 0 0-1.426-.596M11.5-15.386c1.138 0 2.201.217 3.19.652 1.003.419 1.875 1 2.616 1.74a8.047 8.047 0 0 1 1.74 2.617c.435.988.652 2.051.652 3.19a7.84 7.84 0 0 1-.651 3.189 8.046 8.046 0 0 1-1.74 2.617 8.047 8.047 0 0 1-2.618 1.74 7.84 7.84 0 0 1-3.189.652A7.84 7.84 0 0 1 8.31.359a8.045 8.045 0 0 1-2.616-1.74 8.045 8.045 0 0 1-1.74-2.617 7.84 7.84 0 0 1-.652-3.19 7.84 7.84 0 0 1 .651-3.189c.42-1.003 1-1.875 1.74-2.617a8.046 8.046 0 0 1 2.618-1.74 7.84 7.84 0 0 1 3.189-.652m0-1.347a9.47 9.47 0 0 0-3.729.74 9.86 9.86 0 0 0-3.02 2.056 9.861 9.861 0 0 0-2.056 3.021 9.47 9.47 0 0 0-.74 3.728c0 1.318.246 2.561.74 3.729A9.861 9.861 0 0 0 4.75-.438a9.861 9.861 0 0 0 3.021 2.055 9.47 9.47 0 0 0 3.729.741 9.47 9.47 0 0 0 3.728-.74A9.861 9.861 0 0 0 18.25-.439a9.86 9.86 0 0 0 2.055-3.021 9.47 9.47 0 0 0 .74-3.729 9.47 9.47 0 0 0-.74-3.728 9.86 9.86 0 0 0-2.055-3.021 9.86 9.86 0 0 0-3.021-2.055 9.47 9.47 0 0 0-3.729-.741m0 4.806c.659 0 1.273.127 1.842.382.569.24 1.07.577 1.505 1.01.434.435.77.937 1.01 1.506.255.569.382 1.183.382 1.841 0 .66-.127 1.273-.382 1.842a4.673 4.673 0 0 1-1.01 1.505 4.672 4.672 0 0 1-1.505 1.01 4.458 4.458 0 0 1-1.842.383 4.458 4.458 0 0 1-1.842-.382 4.672 4.672 0 0 1-1.505-1.01 4.672 4.672 0 0 1-1.01-1.506 4.458 4.458 0 0 1-.382-1.841c0-.66.127-1.273.382-1.842.24-.57.576-1.07 1.01-1.505a4.673 4.673 0 0 1 1.505-1.01 4.457 4.457 0 0 1 1.842-.383m0-1.347c-.839 0-1.632.157-2.38.471a6.388 6.388 0 0 0-1.921 1.314 6.388 6.388 0 0 0-1.314 1.92 6.086 6.086 0 0 0-.472 2.382c0 .838.157 1.632.472 2.38.33.734.767 1.374 1.314 1.92a6.388 6.388 0 0 0 1.92 1.315 6.086 6.086 0 0 0 2.381.471c.839 0 1.632-.157 2.38-.471a6.389 6.389 0 0 0 1.921-1.314 6.388 6.388 0 0 0 1.314-1.92 6.085 6.085 0 0 0 .472-2.381c0-.839-.157-1.633-.472-2.381a6.389 6.389 0 0 0-1.314-1.92 6.39 6.39 0 0 0-1.92-1.315 6.085 6.085 0 0 0-2.381-.471" font-size="17.008" style="vector-effect:none;fill-rule:nonzero" transform="matrix(.6923 0 0 .6923 2.038 14.976)"/>
        </g>
        <g style="font-style:normal;font-weight:400;font-size:19.84250069px;font-family:icomoon;fill:#000;fill-opacity:1;stroke:none">
            <path d="M23.943-20.44c.373 0 .694.136.965.407.271.27.406.592.406.965V2.818c0 .373-.135.694-.406.965-.27.271-.592.406-.965.406H2.057c-.373 0-.694-.135-.965-.406a1.318 1.318 0 0 1-.406-.965v-21.886c0-.373.135-.694.406-.965.27-.271.592-.407.965-.407h21.886m0-.685H2.057c-.576 0-1.063.199-1.46.597A1.986 1.986 0 0 0 0-19.068V2.818c0 .576.199 1.063.597 1.46.397.398.884.597 1.46.597h21.886c.576 0 1.063-.199 1.46-.597.398-.397.597-.884.597-1.46v-21.886c0-.576-.199-1.063-.597-1.46a1.986 1.986 0 0 0-1.46-.597" font-size="19.843" style="vector-effect:none;fill-rule:nonzero" transform="matrix(.6923 0 0 .6923 1 15.625)"/>
        </g>
        <g style="font-style:normal;font-weight:400;font-size:18.70859909px;font-family:icomoon;fill:red;fill-opacity:1;stroke:none">
            <path d="M.781 4.688a.73.73 0 0 1-.305-.062 1.214 1.214 0 0 1-.256-.158A1.214 1.214 0 0 1 .06 4.21.73.73 0 0 1 0 3.906a.73.73 0 0 1 .061-.305c.04-.09.094-.175.159-.256l23.437-23.438c.082-.065.167-.118.257-.159a.73.73 0 0 1 .305-.06c.211 0 .394.077.55.231a.751.751 0 0 1 .231.55.73.73 0 0 1-.061.305c-.04.09-.094.175-.159.256L1.343 4.468a1.214 1.214 0 0 1-.257.158.73.73 0 0 1-.305.061" font-size="18.709" style="vector-effect:none;fill-rule:nonzero" transform="matrix(.6923 0 0 .6923 1.346 15.409)"/>
        </g>
    </g>
</svg>
