<svg
	xmlns="http://www.w3.org/2000/svg" width="20" height="20">
	<path fill="#ff0" d="M1.758 0h16.49c.48 0 .894.173 1.24.518a1.7 1.7 0 0 1 .518 1.241v16.488a1.7 1.7 0 0 1-.518 1.242c-.345.345-.76.517-1.24.517H1.757a1.69 1.69 0 0 1-1.24-.517A1.693 1.693 0 0 1 0 18.247V1.76C0 1.277.172.864.518.518A1.693 1.693 0 0 1 1.758 0" font-family="icomoon" font-size="19.843" font-weight="400"/>
	<path d="m9.485 4.753-.039.007c-.009.005-.019.006-.024.013-.008.008.023.003.033-.003a.146.146 0 0 0 .03-.017z" font-family="icomoon" font-size="17.008" font-weight="400"/>
	<path d="M2.71 1.155c-.427 0-.793.152-1.098.458a1.497 1.497 0 0 0-.458 1.097v14.587c0 .426.153.792.458 1.097.305.306.67.458 1.098.458h14.586c.426 0 .793-.152 1.097-.458.306-.305.458-.671.458-1.097V2.71c0-.426-.152-.792-.458-1.097a1.497 1.497 0 0 0-1.097-.458Zm0 .518h14.586a1 1 0 0 1 .734.303 1 1 0 0 1 .303.734v14.587a1 1 0 0 1-.302.734 1 1 0 0 1-.735.302H2.71a1 1 0 0 1-.735-.302 1 1 0 0 1-.302-.734V2.71a1 1 0 0 1 .302-.734 1 1 0 0 1 .734-.303Z" font-family="icomoon" font-size="17.008" font-weight="400"/>
	<path d="M1.583.001a1.52 1.52 0 0 0-1.124.46A1.528 1.528 0 0 0 0 1.582v16.841c0 .443.152.817.46 1.123.305.307.68.459 1.122.459h16.841c.442 0 .817-.152 1.123-.46.306-.305.46-.68.46-1.122V1.582c0-.443-.154-.817-.46-1.123A1.528 1.528 0 0 0 18.424 0Zm0 .527h16.84c.287 0 .534.104.743.312.207.21.312.456.312.743v16.841c0 .286-.105.534-.312.743a1.014 1.014 0 0 1-.743.31H1.583a1.015 1.015 0 0 1-.743-.31 1.015 1.015 0 0 1-.313-.743V1.582c0-.287.104-.534.313-.743a1.015 1.015 0 0 1 .743-.311Z" font-family="icomoon" font-size="19.843" font-weight="400"/>
	<path d="M7.631 13.144a.802.802 0 0 1-.233-.088.592.592 0 0 1-.296-.47l-.005-.05.01-.086a.825.825 0 0 1 .076-.278c.045-.096.104-.189.266-.42a5.82 5.82 0 0 0 .322-.491c.18-.326.278-.651.378-1.255.071-.422.077-.481.18-1.944a73.623 73.623 0 0 1 .059-.783l.007-.09-.076-.005-.077-.005-.163.009-.164.009-.114.02c-.344.058-.542.163-.769.405a3.654 3.654 0 0 0-.411.56l-.037.06H6.36l.006-.032c.013-.058.148-.456.2-.588l.051-.13.085-.17.084-.169.076-.115a3.47 3.47 0 0 1 .148-.208l.071-.092.136-.137.136-.137.078-.055c.041-.033.108-.075.145-.095l.068-.036.1-.033.102-.033.12-.025c.067-.013.163-.03.213-.035l.092-.011 2.623-.005 2.623-.004v1.051l-.867.002c-.478 0-.87.005-.871.006a32.224 32.224 0 0 0-.176 1.388 18.07 18.07 0 0 0-.1 1.47l-.01.392.01.313.011.315.03.11c.034.132.063.208.117.309a.8.8 0 0 0 .43.38c.493.202 1.02-.043 1.146-.561l.034-.137.005-.026.059-.006a1.44 1.44 0 0 1 .116-.007h.055l-.004.036c-.03.21-.09.497-.14.68-.108.384-.248.649-.46.871a1.836 1.836 0 0 1-.296.245 2.321 2.321 0 0 1-.14.077 1.04 1.04 0 0 1-1.078-.089l-.077-.055-.094-.098-.094-.098-.054-.08a1.7 1.7 0 0 1-.23-.55 4.708 4.708 0 0 1-.111-.717l-.017-.16-.002-.459-.003-.459.008-.271.008-.27.031-.345c.085-.968.137-1.46.21-2.002l.025-.192-.007-.006-.007-.007-.891.002c-.49 0-.893.004-.894.005-.002.002-.014.155-.052.697-.029.41-.073 1.011-.101 1.378-.04.513-.156 1.386-.267 1.993-.116.64-.244 1.12-.359 1.348a1.995 1.995 0 0 1-.094.159 1.058 1.058 0 0 1-.295.309.648.648 0 0 1-.11.05.597.597 0 0 1-.278.019z"/>
</svg>