<svg xmlns="http://www.w3.org/2000/svg" xml:space="preserve" width="2017" height="2017">
    <g transform="matrix(3.77953 0 0 3.77953 179.528 226.772)">
        <path d="M110.605 212.196h12.108c.354 0 .658.127.911.38.254.253.38.556.38.91v12.09c0 .353-.126.656-.38.909-.253.253-.557.38-.91.38h-12.11c-.353 0-.657-.127-.91-.38a1.24 1.24 0 0 1-.38-.91v-12.09c0-.353.126-.656.38-.91.253-.252.557-.379.91-.379" style="font-style:normal;font-weight:400;font-size:19.8425px;font-family:icomoon;display:inline;vector-effect:none;fill:#ff0;fill-opacity:1;fill-rule:nonzero;stroke:none;stroke-width:.564606;stroke-linecap:square;stroke-linejoin:bevel" transform="translate(-156.648 -272.098)"/>
        <path d="M110.466 212.097c-.361 0-.671.13-.93.389a1.269 1.269 0 0 0-.388.93v12.363c0 .361.13.672.388.93.259.26.569.389.93.389h12.363c.362 0 .672-.13.93-.389.26-.258.389-.569.389-.93v-12.363c0-.361-.13-.672-.388-.93a1.269 1.269 0 0 0-.93-.388zm0 .44h12.363c.245 0 .452.085.623.256.17.171.256.379.256.623v12.363a.848.848 0 0 1-.256.623.847.847 0 0 1-.623.256h-12.363a.847.847 0 0 1-.622-.256.848.848 0 0 1-.257-.623v-12.363c0-.244.086-.452.257-.623a.848.848 0 0 1 .622-.256z" style="font-style:normal;font-weight:400;font-size:17.0078px;font-family:icomoon;vector-effect:none;fill:#000;fill-opacity:1;fill-rule:nonzero;stroke:none;stroke-width:.652176;stroke-linecap:square;stroke-linejoin:bevel" transform="translate(-156.648 -272.098)"/>
        <g style="opacity:1" transform="matrix(.0186 0 0 .0186 -58.802 -65.019)">
            <circle cx="1019.344" cy="445.21" r="109.043" style="opacity:1;fill:#000;fill-opacity:1;stroke:#000;stroke-width:27;stroke-linecap:round;stroke-linejoin:bevel;stroke-opacity:0;paint-order:stroke markers fill"/>
            <path d="M1161.052 725.684c14.97 26.34 24.443 25.858 36.63 18.359 12.564-7.732 13.697-16.338.219-39.02l-130.735-219.837-27.71 26.555z" style="fill:#000;fill-opacity:1;stroke:#000;stroke-width:27;stroke-linecap:round;stroke-linejoin:bevel;stroke-opacity:0;paint-order:stroke markers fill"/>
        </g>
        <g style="opacity:1" transform="matrix(.0186 0 0 .0186 -58.802 -65.019)">
            <circle cx="133.021" cy="-1537.865" r="109.043" style="fill:#000;fill-opacity:1;stroke:#000;stroke-width:27;stroke-linecap:round;stroke-linejoin:bevel;stroke-opacity:0;paint-order:stroke markers fill" transform="rotate(119.81)"/>
            <path d="M954.424 863.471c-30.296-.244-34.588 8.353-34.14 22.656.463 14.746 7.367 20.007 33.748 19.588l240.627.068-10.134-40.46z" style="fill:#000;fill-opacity:1;stroke:#000;stroke-width:27;stroke-linecap:round;stroke-linejoin:bevel;stroke-opacity:0;paint-order:stroke markers fill"/>
        </g>
        <g style="opacity:1" transform="scale(-.0186) rotate(-59.736 3345.555 761.594)">
            <circle cx="133.021" cy="-1537.865" r="109.043" style="fill:#000;fill-opacity:1;stroke:#000;stroke-width:27;stroke-linecap:round;stroke-linejoin:bevel;stroke-opacity:0;paint-order:stroke markers fill" transform="rotate(119.81)"/>
            <path d="M954.424 863.471c-30.296-.244-34.588 8.353-34.14 22.656.463 14.746 7.367 20.007 33.748 19.588l240.627.068-10.134-40.46z" style="fill:#000;fill-opacity:1;stroke:#000;stroke-width:27;stroke-linecap:round;stroke-linejoin:bevel;stroke-opacity:0;paint-order:stroke markers fill"/>
        </g>
        <circle cx="-40.453" cy="-57.341" r=".952" style="fill:#ff0;fill-opacity:1;stroke:#000;stroke-width:.592795;stroke-linecap:round;stroke-linejoin:bevel;stroke-opacity:0;paint-order:stroke markers fill"/>
        <circle cx="-45.318" cy="-49.203" r=".952" style="fill:#ff0;fill-opacity:1;stroke:#000;stroke-width:.592795;stroke-linecap:round;stroke-linejoin:bevel;stroke-opacity:0;paint-order:stroke markers fill"/>
        <circle cx="-35.723" cy="-49.203" r=".952" style="fill:#ff0;fill-opacity:1;stroke:#000;stroke-width:.592795;stroke-linecap:round;stroke-linejoin:bevel;stroke-opacity:0;paint-order:stroke markers fill"/>
    </g>
</svg>
