<svg
	xmlns="http://www.w3.org/2000/svg" width="20" height="20">
	<path fill="#fdfd00" d="M1.758 0h16.484c.482 0 .895.173 1.24.517.345.346.518.759.518 1.24v16.486c0 .482-.173.895-.517 1.24a1.692 1.692 0 0 1-1.24.518H1.757a1.692 1.692 0 0 1-1.24-.518A1.692 1.692 0 0 1 0 18.243V1.758C0 1.276.173.863.517.518A1.692 1.692 0 0 1 1.757 0" font-family="icomoon" font-size="22.677" font-weight="400"/>
	<path d="M3.754 2.332c-.37 0-.686.133-.95.398a1.297 1.297 0 0 0-.398.95v12.639c0 .369.133.686.397.95.265.265.582.397.951.397h12.638c.37 0 .686-.132.95-.397.265-.264.398-.581.398-.95V3.681c0-.37-.133-.687-.397-.951a1.297 1.297 0 0 0-.95-.397zm0 .45h12.638c.25 0 .462.087.636.262a.867.867 0 0 1 .263.637v12.638c0 .25-.088.461-.263.636a.866.866 0 0 1-.636.262H3.754a.867.867 0 0 1-.636-.262.866.866 0 0 1-.262-.636V3.681c0-.25.087-.462.262-.637a.867.867 0 0 1 .636-.262Zm2.264 3.061c-.004.02-.011.035-.016.052l.029.002z" font-family="icomoon" font-size="17.008" font-weight="400"/>
	<path d="M17.617 1.426a.92.92 0 0 1 .674.283c.19.189.283.414.283.674v15.234a.92.92 0 0 1-.283.674.92.92 0 0 1-.674.283H2.383a.92.92 0 0 1-.674-.283.92.92 0 0 1-.283-.674V2.383a.92.92 0 0 1 .283-.674.92.92 0 0 1 .674-.283h15.234m0-.469H2.383c-.391 0-.726.14-1.006.42-.28.28-.42.615-.42 1.006v15.234c0 .391.14.726.42 1.006.28.28.615.42 1.006.42h15.234c.391 0 .726-.14 1.006-.42.28-.28.42-.615.42-1.006V2.383c0-.391-.14-.726-.42-1.006-.28-.28-.615-.42-1.006-.42m.957-.488a.92.92 0 0 1 .674.283.92.92 0 0 1 .283.673v17.15a.92.92 0 0 1-.283.674.92.92 0 0 1-.673.283H1.425a.92.92 0 0 1-.674-.283.92.92 0 0 1-.283-.674V1.427A.92.92 0 0 1 .751.753a.92.92 0 0 1 .674-.284h17.148m0-.468H1.427A1.37 1.37 0 0 0 .42.42C.14.7 0 1.036 0 1.427v17.147c0 .39.14.727.42 1.007.28.279.616.419 1.007.419h17.146c.391 0 .727-.14 1.007-.42.28-.28.42-.615.42-1.006V1.426c0-.39-.14-.727-.42-1.007A1.38 1.38 0 0 0 18.572 0" font-family="icomoon" font-size="22.677" font-weight="400"/>
	<path d="M7.866 13.077a.722.722 0 0 1-.21-.079.533.533 0 0 1-.266-.423l-.005-.045.009-.077a.742.742 0 0 1 .069-.25c.04-.087.093-.17.239-.378a5.31 5.31 0 0 0 .29-.442c.161-.293.25-.586.34-1.129.064-.38.069-.433.162-1.749a66.242 66.242 0 0 1 .053-.705l.006-.08-.068-.005-.069-.005-.147.008-.148.008-.102.018c-.31.053-.488.147-.692.365a3.288 3.288 0 0 0-.37.504l-.033.053h-.202l.006-.028c.011-.052.133-.41.18-.529l.046-.117.076-.153.076-.152.068-.104c.038-.058.098-.142.133-.187l.064-.083.122-.123.123-.123.07-.05c.037-.029.097-.067.13-.085l.062-.032.09-.03.091-.03.109-.022c.06-.012.146-.027.191-.032l.083-.01 2.36-.004 2.36-.004v.946l-.78.002c-.43 0-.783.004-.784.005-.01.01-.123.902-.158 1.249a16.26 16.26 0 0 0-.09 1.322l-.01.353.01.282.01.283.027.1c.03.118.056.186.105.277.09.165.214.275.387.342.443.182.918-.039 1.031-.505l.03-.123.005-.023.053-.006c.03-.003.077-.006.104-.006h.05l-.004.032c-.027.19-.08.448-.126.612-.097.346-.223.584-.414.784a1.652 1.652 0 0 1-.266.22 2.086 2.086 0 0 1-.126.07.936.936 0 0 1-.97-.08l-.069-.05-.085-.088-.084-.088-.049-.073a1.53 1.53 0 0 1-.207-.495 4.236 4.236 0 0 1-.1-.644l-.015-.144-.002-.413-.002-.413.007-.244.007-.243.028-.31c.076-.871.123-1.314.188-1.802l.023-.172-.006-.006-.006-.006-.802.002c-.441 0-.803.003-.804.004-.002.002-.013.14-.047.627-.026.37-.066.91-.091 1.24a20.84 20.84 0 0 1-.24 1.793c-.105.577-.22 1.008-.323 1.213a1.795 1.795 0 0 1-.085.143.952.952 0 0 1-.265.278.583.583 0 0 1-.099.046.537.537 0 0 1-.25.016z"/>
</svg>