<svg
	xmlns="http://www.w3.org/2000/svg" width="20" height="20">
	<path fill="red" d="M1.757-.001H18.23a1.7 1.7 0 0 1 1.24.518c.343.345.517.76.517 1.242v16.498a1.7 1.7 0 0 1-.518 1.242 1.69 1.69 0 0 1-1.24.517H1.758a1.69 1.69 0 0 1-1.24-.517A1.691 1.694 0 0 1 0 18.257V1.759C0 1.277.172.863.517.517A1.69 1.69 0 0 1 1.757 0" font-family="icomoon" font-size="19.843" font-weight="400"/>
	<path d="m9.476 4.754-.039.008c-.007.004-.018.006-.024.012-.008.01.023.004.033-.002.013-.006.02-.011.03-.018z" font-family="icomoon" font-size="17.008" font-weight="400"/>
	<path d="M2.707 1.154c-.426 0-.792.153-1.097.459a1.496 1.498 0 0 0-.457 1.097v14.596c0 .426.153.792.457 1.098.305.305.67.458 1.097.458H17.28c.426 0 .792-.153 1.096-.458.306-.306.458-.672.458-1.098V2.71c0-.426-.152-.792-.458-1.097a1.496 1.498 0 0 0-1.096-.459Zm0 .519H17.28a1 1 0 0 1 .733.303 1 1 0 0 1 .303.734v14.596a1 1 0 0 1-.302.734 1 1 0 0 1-.734.302H2.707a1 1 0 0 1-.734-.302 1 1 0 0 1-.302-.734V2.71a1 1 0 0 1 .302-.734 1 1 0 0 1 .733-.303Z" font-family="icomoon" font-size="17.008" font-weight="400"/>
	<path d="M1.581 0C1.138 0 .764.152.46.46A1.527 1.53 0 0 0 0 1.582v16.85c0 .443.152.818.459 1.124.305.307.68.46 1.121.46h16.826a1.52 1.52 0 0 0 1.122-.46c.306-.306.46-.68.46-1.123V1.58a1.53 1.53 0 0 0-.46-1.123A1.527 1.53 0 0 0 18.407 0Zm0 .527h16.825c.287 0 .533.105.742.313.208.209.312.456.312.743v16.85c0 .286-.104.534-.312.744a1.013 1.014 0 0 1-.742.31H1.581a1.014 1.015 0 0 1-.741-.31 1.014 1.015 0 0 1-.314-.743V1.58c0-.286.105-.533.314-.742a1.014 1.015 0 0 1 .74-.311Z" font-family="icomoon" font-size="19.843" font-weight="400"/>
	<g paint-order="stroke markers fill" transform="matrix(.00175 0 0 .00176 7.251 5.983)">
		<circle cx="834.952" cy="3215.937" r="228.334"/>
		<path d="M977.909 3187.721h1431.258v61.047H977.909Z"/>
		<circle cx="2542.952" cy="3215.937" r="228.334"/>
		<circle cx="1274.369" cy="3668.979" r="228.334"/>
		<path d="M1301.83 3633.336h694.254v55.592H1301.83Z"/>
		<circle cx="2104.369" cy="3668.979" r="228.334"/>
		<circle cx="490.952" cy="2687.937" r="228.334"/>
		<path d="M1339.909 2659.721h1431.258v61.047H1339.909Z"/>
		<circle cx="2904.952" cy="2687.937" r="228.334"/>
		<path d="M619.909 2659.721h1431.258v61.047H619.909Z"/>
		<circle cx="422.952" cy="2161.937" r="228.334"/>
		<path d="M1419.909 2133.721h1431.258v61.047H1419.909Z"/>
		<circle cx="2984.952" cy="2161.937" r="228.334"/>
		<path d="M551.909 2133.721h1431.258v61.047H551.909Z"/>
		<circle cx="1686.369" cy="4014.979" r="228.334"/>
		<circle cx="834.952" cy="-4804.624" r="228.334" transform="scale(1 -1)"/>
		<path d="M977.909 4832.84h1431.258v-61.047H977.909Z"/>
		<circle cx="2542.952" cy="-4804.624" r="228.334" transform="scale(1 -1)"/>
		<circle cx="1274.369" cy="-4351.583" r="228.334" transform="scale(1 -1)"/>
		<path d="M1301.83 4387.225h694.254v-55.592H1301.83Z"/>
		<circle cx="2104.369" cy="-4351.583" r="228.334" transform="scale(1 -1)"/>
		<circle cx="490.952" cy="-5332.624" r="228.334" transform="scale(1 -1)"/>
		<path d="M1339.909 5360.84h1431.258v-61.047H1339.909Z"/>
		<circle cx="2904.952" cy="-5332.624" r="228.334" transform="scale(1 -1)"/>
		<path d="M619.909 5360.84h1431.258v-61.047H619.909Z"/>
		<circle cx="422.952" cy="-5858.624" r="228.334" transform="scale(1 -1)"/>
		<path d="M1419.909 5886.84h1431.258v-61.047H1419.909Z"/>
		<circle cx="2984.952" cy="-5858.624" r="228.334" transform="scale(1 -1)"/>
		<path d="M551.909 5886.84h1431.258v-61.047H551.909Z"/>
		<circle cx="1686.369" cy="-4005.582" r="228.334" transform="scale(1 -1)"/>
		<circle cx="834.952" cy="-476.063" r="228.334"/>
		<path d="M977.909-504.279h1431.258v61.047H977.909Z"/>
		<circle cx="2542.952" cy="-476.063" r="228.334"/>
		<circle cx="1274.369" cy="-23.021" r="228.334"/>
		<path d="M1301.83-58.664h694.254v55.592H1301.83Z"/>
		<circle cx="2104.369" cy="-23.021" r="228.334"/>
		<circle cx="490.952" cy="-1004.063" r="228.334"/>
		<path d="M1339.909-1032.279h1431.258v61.047H1339.909Z"/>
		<circle cx="2904.952" cy="-1004.063" r="228.334"/>
		<path d="M619.909-1032.279h1431.258v61.047H619.909Z"/>
		<circle cx="422.952" cy="-1530.063" r="228.334"/>
		<path d="M1419.909-1558.279h1431.258v61.047H1419.909Z"/>
		<circle cx="2984.952" cy="-1530.063" r="228.334"/>
		<path d="M551.909-1558.279h1431.258v61.047H551.909Z"/>
		<circle cx="1686.369" cy="322.979" r="228.334"/>
		<circle cx="834.952" cy="-1112.624" r="228.334" transform="scale(1 -1)"/>
		<path d="M977.909 1140.84h1431.258v-61.047H977.909Z"/>
		<circle cx="2542.952" cy="-1112.624" r="228.334" transform="scale(1 -1)"/>
		<circle cx="1274.369" cy="-659.583" r="228.334" transform="scale(1 -1)"/>
		<path d="M1301.83 695.225h694.254v-55.592H1301.83Z"/>
		<circle cx="2104.369" cy="-659.583" r="228.334" transform="scale(1 -1)"/>
		<circle cx="490.952" cy="-1640.624" r="228.334" transform="scale(1 -1)"/>
		<path d="M1339.909 1668.84h1431.258v-61.047H1339.909Z"/>
		<circle cx="2904.952" cy="-1640.624" r="228.334" transform="scale(1 -1)"/>
		<path d="M619.909 1668.84h1431.258v-61.047H619.909Z"/>
		<circle cx="422.952" cy="-2166.624" r="228.334" transform="scale(1 -1)"/>
		<path d="M1419.909 2194.84h1431.258v-61.047H1419.909Z"/>
		<circle cx="2984.952" cy="-2166.624" r="228.334" transform="scale(1 -1)"/>
		<path d="M551.909 2194.84h1431.258v-61.047H551.909Z"/>
		<circle cx="1686.369" cy="-313.583" r="228.334" transform="scale(1 -1)"/>
	</g>
</svg>