<svg
	xmlns="http://www.w3.org/2000/svg" width="20" height="20">
	<path d="M13.893 18.703a.024.024 0 0 0-.007.005h.007z" font-family="icomoon" font-size="17.008" font-weight="400"/>
	<path fill="#fff" d="M1.897.22h16.164c.473 0 .878.17 1.216.508.339.338.508.744.508 1.216v16.178c0 .473-.17.879-.507 1.217a1.66 1.66 0 0 1-1.216.509H1.897A1.66 1.66 0 0 1 .68 19.34a1.66 1.66 0 0 1-.508-1.218V1.945c0-.473.17-.879.508-1.217A1.66 1.66 0 0 1 1.897.22" font-family="icomoon" font-size="22.677" font-weight="400"/>
	<path d="M1.757-.001a1.69 1.69 0 0 0-1.24.52A1.69 1.692 0 0 0 0 1.76v16.493c0 .482.173.895.517 1.24.347.346.759.518 1.24.518h16.48c.483 0 .895-.173 1.24-.517.345-.346.519-.76.519-1.241V1.759c0-.483-.174-.895-.519-1.241a1.69 1.692 0 0 0-1.24-.519Zm0 .587h16.48c.327 0 .604.113.83.342.229.226.342.505.342.83v16.494a1.13 1.131 0 0 1-.341.831 1.13 1.131 0 0 1-.83.342H1.756a1.13 1.131 0 0 1-.83-.342 1.13 1.131 0 0 1-.342-.831V1.759c0-.326.114-.603.341-.831a1.13 1.131 0 0 1 .831-.342Z" font-family="icomoon" font-size="17.008" font-weight="400"/>
	<g paint-order="stroke markers fill" transform="translate(6.788 5.345) scale(.0021)">
		<circle cx="834.952" cy="3215.937" r="228.334"/>
		<path d="M977.909 3187.721h1431.258v61.047H977.909Z"/>
		<circle cx="2542.952" cy="3215.937" r="228.334"/>
		<circle cx="1274.369" cy="3668.979" r="228.334"/>
		<path d="M1301.83 3633.336h694.254v55.592H1301.83Z"/>
		<circle cx="2104.369" cy="3668.979" r="228.334"/>
		<circle cx="490.952" cy="2687.937" r="228.334"/>
		<path d="M1339.909 2659.721h1431.258v61.047H1339.909Z"/>
		<circle cx="2904.952" cy="2687.937" r="228.334"/>
		<path d="M619.909 2659.721h1431.258v61.047H619.909Z"/>
		<circle cx="422.952" cy="2161.937" r="228.334"/>
		<path d="M1419.909 2133.721h1431.258v61.047H1419.909Z"/>
		<circle cx="2984.952" cy="2161.937" r="228.334"/>
		<path d="M551.909 2133.721h1431.258v61.047H551.909Z"/>
		<circle cx="1686.369" cy="4014.979" r="228.334"/>
		<circle cx="834.952" cy="-4804.624" r="228.334" transform="scale(1 -1)"/>
		<path d="M977.909 4832.84h1431.258v-61.047H977.909Z"/>
		<circle cx="2542.952" cy="-4804.624" r="228.334" transform="scale(1 -1)"/>
		<circle cx="1274.369" cy="-4351.583" r="228.334" transform="scale(1 -1)"/>
		<path d="M1301.83 4387.225h694.254v-55.592H1301.83Z"/>
		<circle cx="2104.369" cy="-4351.583" r="228.334" transform="scale(1 -1)"/>
		<circle cx="490.952" cy="-5332.624" r="228.334" transform="scale(1 -1)"/>
		<path d="M1339.909 5360.84h1431.258v-61.047H1339.909Z"/>
		<circle cx="2904.952" cy="-5332.624" r="228.334" transform="scale(1 -1)"/>
		<path d="M619.909 5360.84h1431.258v-61.047H619.909Z"/>
		<circle cx="422.952" cy="-5858.624" r="228.334" transform="scale(1 -1)"/>
		<path d="M1419.909 5886.84h1431.258v-61.047H1419.909Z"/>
		<circle cx="2984.952" cy="-5858.624" r="228.334" transform="scale(1 -1)"/>
		<path d="M551.909 5886.84h1431.258v-61.047H551.909Z"/>
		<circle cx="1686.369" cy="-4005.582" r="228.334" transform="scale(1 -1)"/>
		<circle cx="834.952" cy="-476.063" r="228.334"/>
		<path d="M977.909-504.279h1431.258v61.047H977.909Z"/>
		<circle cx="2542.952" cy="-476.063" r="228.334"/>
		<circle cx="1274.369" cy="-23.021" r="228.334"/>
		<path d="M1301.83-58.664h694.254v55.592H1301.83Z"/>
		<circle cx="2104.369" cy="-23.021" r="228.334"/>
		<circle cx="490.952" cy="-1004.063" r="228.334"/>
		<path d="M1339.909-1032.279h1431.258v61.047H1339.909Z"/>
		<circle cx="2904.952" cy="-1004.063" r="228.334"/>
		<path d="M619.909-1032.279h1431.258v61.047H619.909Z"/>
		<circle cx="422.952" cy="-1530.063" r="228.334"/>
		<path d="M1419.909-1558.279h1431.258v61.047H1419.909Z"/>
		<circle cx="2984.952" cy="-1530.063" r="228.334"/>
		<path d="M551.909-1558.279h1431.258v61.047H551.909Z"/>
		<circle cx="1686.369" cy="322.979" r="228.334"/>
		<circle cx="834.952" cy="-1112.624" r="228.334" transform="scale(1 -1)"/>
		<path d="M977.909 1140.84h1431.258v-61.047H977.909Z"/>
		<circle cx="2542.952" cy="-1112.624" r="228.334" transform="scale(1 -1)"/>
		<circle cx="1274.369" cy="-659.583" r="228.334" transform="scale(1 -1)"/>
		<path d="M1301.83 695.225h694.254v-55.592H1301.83Z"/>
		<circle cx="2104.369" cy="-659.583" r="228.334" transform="scale(1 -1)"/>
		<circle cx="490.952" cy="-1640.624" r="228.334" transform="scale(1 -1)"/>
		<path d="M1339.909 1668.84h1431.258v-61.047H1339.909Z"/>
		<circle cx="2904.952" cy="-1640.624" r="228.334" transform="scale(1 -1)"/>
		<path d="M619.909 1668.84h1431.258v-61.047H619.909Z"/>
		<circle cx="422.952" cy="-2166.624" r="228.334" transform="scale(1 -1)"/>
		<path d="M1419.909 2194.84h1431.258v-61.047H1419.909Z"/>
		<circle cx="2984.952" cy="-2166.624" r="228.334" transform="scale(1 -1)"/>
		<path d="M551.909 2194.84h1431.258v-61.047H551.909Z"/>
		<circle cx="1686.369" cy="-313.583" r="228.334" transform="scale(1 -1)"/>
	</g>
	<path fill="red" d="M1.44 19.14a.533.534 0 0 1-.223-.044.893.894 0 0 1-.187-.116.88.88 0 0 1-.116-.186.533.534 0 0 1-.045-.225.533.534 0 0 1 .045-.222.893.894 0 0 1 .116-.187L18.147 1.03a.878.88 0 0 1 .186-.116.533.534 0 0 1 .223-.044.54.54 0 0 1 .4.17.548.548 0 0 1 .17.4.53.531 0 0 1-.045.224.884.884 0 0 1-.115.187L1.85 18.98a.886.887 0 0 1-.186.115.533.534 0 0 1-.224.044" font-family="icomoon" font-size="15.874" font-weight="400"/>
</svg>