<svg
	xmlns="http://www.w3.org/2000/svg" width="20" height="20">
	<defs>
		<clipPath id="a" clipPathUnits="userSpaceOnUse">
			<path fill="red" stroke-width=".265" d="M32.017 225.513v.183a.807.807 0 0 1 .079-.032c.08-.028.179-.047.261-.005.046.023.077.068.115.103.014.05.04.1.041.152.003.13-.063.23-.147.323a1.166 1.166 0 0 1-.163.14l-.01.008a1.287 1.287 0 0 1-.176.588v1.469h3.554v-2.929zm.201.404a.395.395 0 0 0-.116.03c.016.038.03.077.048.114l.002.012c.107-.118.011-.02.068-.114.003-.005.01-.007.015-.01.01-.002.023.002.03-.005.005-.005.003-.02-.004-.022a.117.117 0 0 0-.043-.005z"/>
		</clipPath>
	</defs>
	<path fill="#ff0" d="M1.757 0h16.48c.482 0 .896.172 1.24.518.344.345.518.759.518 1.241v16.499c0 .482-.173.896-.518 1.24a1.69 1.69 0 0 1-1.24.519H1.757c-.482 0-.895-.172-1.24-.518A1.692 1.694 0 0 1 0 18.258V1.759C0 1.277.172.863.518.52A1.69 1.69 0 0 1 1.758 0" font-family="icomoon" font-size="19.843" font-weight="400"/>
	<path d="M2.708 1.154c-.426 0-.792.154-1.096.46a1.496 1.498 0 0 0-.459 1.097v14.595c0 .427.153.793.459 1.097.304.306.67.46 1.096.46h14.578c.427 0 .792-.154 1.097-.46.305-.304.459-.67.459-1.097V2.71c0-.427-.154-.793-.46-1.097a1.496 1.498 0 0 0-1.096-.46Zm0 .52h14.578a1 1 0 0 1 .734.302 1 1 0 0 1 .303.735v14.595a1 1 0 0 1-.302.734 1 1 0 0 1-.735.303H2.708a1 1 0 0 1-.733-.302 1 1 0 0 1-.303-.735V2.71a1 1 0 0 1 .302-.734 1 1 0 0 1 .733-.303Z" font-family="icomoon" font-size="17.008" font-weight="400"/>
	<path d="M1.582 0C1.139 0 .764.153.46.46A1.527 1.53 0 0 0 0 1.581v16.851c0 .444.153.818.459 1.124.305.306.68.46 1.122.46h16.832c.443 0 .817-.154 1.122-.46.306-.306.46-.68.46-1.123V1.582c0-.443-.154-.817-.46-1.123A1.527 1.53 0 0 0 18.415 0Zm0 .528h16.83c.287 0 .534.104.743.312.209.209.312.457.312.744v16.85c0 .286-.103.533-.311.742a1.013 1.014 0 0 1-.743.313H1.582a1.014 1.015 0 0 1-.742-.312 1.014 1.015 0 0 1-.312-.744V1.583c0-.286.103-.533.31-.742a1.014 1.015 0 0 1 .744-.313Z" font-family="icomoon" font-size="19.843" font-weight="400"/>
	<path d="M6.518 14.315c.12-1.842.776-5.7 3.885-7.411.692-.38 1.792-.868 2.624-1.41 1.134-.739 3.02-2.267 3.205-2.496.231-.287.408 4.749-1.628 7.814-2.115 3.187-8.086 3.503-8.086 3.503Z"/>
	<path fill="#ff0" d="M7.294 13.597c.63-1.301 1.476-2.602 2.632-3.643 1.12-1.005 2.788-1.666 3.823-2.751.648-.68 1.166-1.575 1.556-2.441-.19.938-.542 1.846-1.184 2.671-.975 1.253-2.482 1.888-3.704 2.9-1.233 1.021-2.1 2.128-3.123 3.264Z"/>
	<path fill="#020202" d="M32.59 228.18c-.198.002-.363 0-.57 0 .136-.11 0 .001.061-.051l3.102-2.561a.263.263 0 0 1 .322 0 .165.165 0 0 1 0 .265l-2.8 2.254a.895.895 0 0 1-.115.093z" clip-path="url(#a)" transform="matrix(1.11081 0 0 1.11205 -32.299 -236.951)"/>
</svg>