<svg
	xmlns="http://www.w3.org/2000/svg" width="20" height="20">
	<path fill="#fd0000" d="M1.758 0h16.484c.482 0 .895.173 1.24.517.345.346.518.759.518 1.24v16.486c0 .482-.173.895-.517 1.24a1.692 1.692 0 0 1-1.24.518H1.757a1.692 1.692 0 0 1-1.24-.518A1.692 1.692 0 0 1 0 18.243V1.758C0 1.276.173.863.517.518A1.692 1.692 0 0 1 1.757 0" font-family="icomoon" font-size="22.677" font-weight="400"/>
	<path d="M3.754 2.333c-.37 0-.686.133-.95.398a1.297 1.297 0 0 0-.398.95V16.32c0 .369.133.686.397.95.265.265.582.397.951.397h12.638c.37 0 .686-.132.95-.397.265-.264.398-.581.398-.95V3.682c0-.37-.133-.687-.397-.951a1.297 1.297 0 0 0-.95-.397zm0 .45h12.638c.25 0 .462.087.636.262a.866.866 0 0 1 .263.637V16.32c0 .25-.088.461-.263.636a.866.866 0 0 1-.636.262H3.754a.867.867 0 0 1-.636-.262.866.866 0 0 1-.262-.636V3.682c0-.25.087-.462.262-.637a.867.867 0 0 1 .636-.262Zm2.264 3.061c-.004.02-.011.035-.016.052l.029.002z" font-family="icomoon" font-size="17.008" font-weight="400"/>
	<path d="M17.617 1.426a.92.92 0 0 1 .674.283c.19.189.283.414.283.674v15.234a.92.92 0 0 1-.283.674.92.92 0 0 1-.674.283H2.383a.92.92 0 0 1-.674-.283.92.92 0 0 1-.283-.674V2.383a.92.92 0 0 1 .283-.674.92.92 0 0 1 .674-.283h15.234m0-.469H2.383c-.391 0-.726.14-1.006.42-.28.28-.42.615-.42 1.006v15.234c0 .391.14.726.42 1.006.28.28.615.42 1.006.42h15.234c.391 0 .726-.14 1.006-.42.28-.28.42-.615.42-1.006V2.383c0-.391-.14-.726-.42-1.006-.28-.28-.615-.42-1.006-.42m.957-.488a.92.92 0 0 1 .674.283.92.92 0 0 1 .283.673v17.15a.92.92 0 0 1-.283.674.92.92 0 0 1-.673.283H1.425a.92.92 0 0 1-.674-.283.92.92 0 0 1-.283-.674V1.427A.92.92 0 0 1 .751.753a.92.92 0 0 1 .674-.284h17.148m0-.468H1.427A1.37 1.37 0 0 0 .42.42C.14.7 0 1.036 0 1.427v17.147c0 .39.14.727.42 1.007.28.279.616.419 1.007.419h17.146c.391 0 .727-.14 1.007-.42.28-.28.42-.615.42-1.006V1.426c0-.39-.14-.727-.42-1.007A1.38 1.38 0 0 0 18.572 0" font-family="icomoon" font-size="22.677" font-weight="400"/>
	<g paint-order="stroke markers fill" transform="translate(7.53 6.632) scale(.00158)">
		<circle cx="834.952" cy="3215.937" r="228.334"/>
		<path d="M977.909 3187.721h1431.258v61.047H977.909Z"/>
		<circle cx="2542.952" cy="3215.937" r="228.334"/>
		<circle cx="1274.369" cy="3668.979" r="228.334"/>
		<path d="M1301.83 3633.336h694.254v55.592H1301.83Z"/>
		<circle cx="2104.369" cy="3668.979" r="228.334"/>
		<circle cx="490.952" cy="2687.937" r="228.334"/>
		<path d="M1339.909 2659.721h1431.258v61.047H1339.909Z"/>
		<circle cx="2904.952" cy="2687.937" r="228.334"/>
		<path d="M619.909 2659.721h1431.258v61.047H619.909Z"/>
		<circle cx="422.952" cy="2161.937" r="228.334"/>
		<path d="M1419.909 2133.721h1431.258v61.047H1419.909Z"/>
		<circle cx="2984.952" cy="2161.937" r="228.334"/>
		<path d="M551.909 2133.721h1431.258v61.047H551.909Z"/>
		<circle cx="1686.369" cy="4014.979" r="228.334"/>
		<circle cx="834.952" cy="-4804.624" r="228.334" transform="scale(1 -1)"/>
		<path d="M977.909 4832.84h1431.258v-61.047H977.909Z"/>
		<circle cx="2542.952" cy="-4804.624" r="228.334" transform="scale(1 -1)"/>
		<circle cx="1274.369" cy="-4351.583" r="228.334" transform="scale(1 -1)"/>
		<path d="M1301.83 4387.225h694.254v-55.592H1301.83Z"/>
		<circle cx="2104.369" cy="-4351.583" r="228.334" transform="scale(1 -1)"/>
		<circle cx="490.952" cy="-5332.624" r="228.334" transform="scale(1 -1)"/>
		<path d="M1339.909 5360.84h1431.258v-61.047H1339.909Z"/>
		<circle cx="2904.952" cy="-5332.624" r="228.334" transform="scale(1 -1)"/>
		<path d="M619.909 5360.84h1431.258v-61.047H619.909Z"/>
		<circle cx="422.952" cy="-5858.624" r="228.334" transform="scale(1 -1)"/>
		<path d="M1419.909 5886.84h1431.258v-61.047H1419.909Z"/>
		<circle cx="2984.952" cy="-5858.624" r="228.334" transform="scale(1 -1)"/>
		<path d="M551.909 5886.84h1431.258v-61.047H551.909Z"/>
		<circle cx="1686.369" cy="-4005.582" r="228.334" transform="scale(1 -1)"/>
		<circle cx="834.952" cy="-476.063" r="228.334"/>
		<path d="M977.909-504.279h1431.258v61.047H977.909Z"/>
		<circle cx="2542.952" cy="-476.063" r="228.334"/>
		<circle cx="1274.369" cy="-23.021" r="228.334"/>
		<path d="M1301.83-58.664h694.254v55.592H1301.83Z"/>
		<circle cx="2104.369" cy="-23.021" r="228.334"/>
		<circle cx="490.952" cy="-1004.063" r="228.334"/>
		<path d="M1339.909-1032.279h1431.258v61.047H1339.909Z"/>
		<circle cx="2904.952" cy="-1004.063" r="228.334"/>
		<path d="M619.909-1032.279h1431.258v61.047H619.909Z"/>
		<circle cx="422.952" cy="-1530.063" r="228.334"/>
		<path d="M1419.909-1558.279h1431.258v61.047H1419.909Z"/>
		<circle cx="2984.952" cy="-1530.063" r="228.334"/>
		<path d="M551.909-1558.279h1431.258v61.047H551.909Z"/>
		<circle cx="1686.369" cy="322.979" r="228.334"/>
		<circle cx="834.952" cy="-1112.624" r="228.334" transform="scale(1 -1)"/>
		<path d="M977.909 1140.84h1431.258v-61.047H977.909Z"/>
		<circle cx="2542.952" cy="-1112.624" r="228.334" transform="scale(1 -1)"/>
		<circle cx="1274.369" cy="-659.583" r="228.334" transform="scale(1 -1)"/>
		<path d="M1301.83 695.225h694.254v-55.592H1301.83Z"/>
		<circle cx="2104.369" cy="-659.583" r="228.334" transform="scale(1 -1)"/>
		<circle cx="490.952" cy="-1640.624" r="228.334" transform="scale(1 -1)"/>
		<path d="M1339.909 1668.84h1431.258v-61.047H1339.909Z"/>
		<circle cx="2904.952" cy="-1640.624" r="228.334" transform="scale(1 -1)"/>
		<path d="M619.909 1668.84h1431.258v-61.047H619.909Z"/>
		<circle cx="422.952" cy="-2166.624" r="228.334" transform="scale(1 -1)"/>
		<path d="M1419.909 2194.84h1431.258v-61.047H1419.909Z"/>
		<circle cx="2984.952" cy="-2166.624" r="228.334" transform="scale(1 -1)"/>
		<path d="M551.909 2194.84h1431.258v-61.047H551.909Z"/>
		<circle cx="1686.369" cy="-313.583" r="228.334" transform="scale(1 -1)"/>
	</g>
</svg>