<svg
	xmlns="http://www.w3.org/2000/svg" width="20" height="20">
	<defs>
		<clipPath id="a" clipPathUnits="userSpaceOnUse">
			<path fill="red" stroke-width=".265" d="M32.017 225.513v.183a.807.807 0 0 1 .079-.032c.08-.028.179-.047.261-.005.046.023.077.068.115.103.014.05.04.1.041.152.003.13-.063.23-.147.323a1.166 1.166 0 0 1-.163.14l-.01.008a1.287 1.287 0 0 1-.176.588v1.469h3.554v-2.929zm.201.404a.395.395 0 0 0-.116.03c.016.038.03.077.048.114l.002.012c.107-.118.011-.02.068-.114.003-.005.01-.007.015-.01.01-.002.023.002.03-.005.005-.005.003-.02-.004-.022a.117.117 0 0 0-.043-.005z"/>
		</clipPath>
	</defs>
	<path fill="#fff" d="M2.007.296h16.151c.473 0 .878.17 1.215.507.339.339.508.744.508 1.216V18.18c0 .473-.17.878-.507 1.216a1.658 1.659 0 0 1-1.215.508H2.006a1.658 1.659 0 0 1-1.215-.507 1.658 1.659 0 0 1-.507-1.217V2.02c0-.473.17-.878.507-1.216A1.658 1.659 0 0 1 2.006.296" font-family="icomoon" font-size="22.677" font-weight="400"/>
	<path d="M2.707 1.155c-.425 0-.79.152-1.095.458a1.494 1.495 0 0 0-.458 1.096v14.587c0 .427.152.791.458 1.096.305.306.67.458 1.095.458h14.58c.426 0 .79-.152 1.096-.458.304-.305.457-.67.457-1.096V2.71c0-.427-.153-.792-.457-1.096a1.494 1.495 0 0 0-1.097-.458Zm0 .518h14.58c.288 0 .532.1.733.302a.998.998 0 0 1 .302.734v14.587c0 .29-.1.532-.302.734a.996.997 0 0 1-.734.302H2.707a.998.998 0 0 1-.733-.302.998.998 0 0 1-.301-.734V2.71c0-.29.1-.533.3-.734a.998.998 0 0 1 .734-.302Z" font-family="icomoon" font-size="17.008" font-weight="400"/>
	<path d="M1.582-.001C1.139-.001.765.155.46.46A1.525 1.526 0 0 0 0 1.583v16.84c0 .442.153.816.46 1.123.305.305.679.46 1.122.46h16.83a1.53 1.53 0 0 0 1.123-.461c.305-.306.46-.678.46-1.123V1.582a1.53 1.53 0 0 0-.46-1.123A1.525 1.526 0 0 0 18.413 0Zm0 .528h16.83c.287 0 .534.104.743.312.208.21.312.456.312.743v16.841c0 .286-.104.534-.312.743a1.013 1.014 0 0 1-.742.31H1.582a1.013 1.014 0 0 1-.742-.31 1.014 1.015 0 0 1-.313-.743V1.581c0-.286.104-.534.313-.743a1.014 1.015 0 0 1 .742-.311Z" font-family="icomoon" font-size="19.843" font-weight="400"/>
	<path d="M6.7 14.307c.117-1.841.775-5.697 3.884-7.407.692-.38 1.792-.867 2.622-1.41 1.136-.737 3.022-2.265 3.206-2.493.232-.287.408 4.745-1.628 7.81-2.115 3.184-8.085 3.5-8.085 3.5z"/>
	<path fill="#fff" d="M7.475 13.59c.63-1.3 1.475-2.601 2.632-3.64 1.119-1.006 2.787-1.666 3.823-2.751.648-.68 1.165-1.574 1.555-2.44-.188.938-.542 1.845-1.183 2.67-.976 1.252-2.483 1.887-3.705 2.898-1.233 1.02-2.1 2.127-3.122 3.263Z"/>
	<path fill="#020202" d="M32.59 228.18c-.198.002-.363 0-.57 0 .136-.11 0 .001.061-.051l3.102-2.561a.263.263 0 0 1 .322 0 .165.165 0 0 1 0 .265l-2.8 2.254a.895.895 0 0 1-.115.093z" clip-path="url(#a)" transform="matrix(1.11081 0 0 1.11143 -32.12 -236.818)"/>
	<path fill="red" d="M.985 19.62a.561.561 0 0 1-.234-.047.934.935 0 0 1-.198-.122.93.931 0 0 1-.122-.197.561.561 0 0 1-.047-.235c0-.087.016-.166.047-.234a.935.936 0 0 1 .122-.197L18.577.554a.933.934 0 0 1 .197-.123.561.561 0 0 1 .235-.046.578.578 0 0 1 .422.177.578.578 0 0 1 .178.423.548.548 0 0 1-.046.235.935.936 0 0 1-.123.197L1.42 19.452a.93.931 0 0 1-.198.123.561.561 0 0 1-.235.046" font-family="icomoon" font-size="18.709" font-weight="400"/>
</svg>