<svg
	xmlns="http://www.w3.org/2000/svg" width="20" height="20">
	<defs>
		<clipPath id="a" clipPathUnits="userSpaceOnUse">
			<path fill="red" d="M-2203.19 469.236v131.55h130.026v-131.55z"/>
		</clipPath>
	</defs>
	<path fill="red" d="M1.759 0H18.25c.481 0 .895.174 1.24.518.345.345.518.76.518 1.243v16.504a1.7 1.7 0 0 1-.518 1.243 1.69 1.69 0 0 1-1.24.517H1.759c-.483 0-.896-.172-1.241-.517A1.693 1.694 0 0 1 0 18.265V1.761C0 1.278.172.864.518.518A1.692 1.692 0 0 1 1.758 0" font-family="icomoon" font-size="19.843" font-weight="400"/>
	<path d="m9.487 4.757-.04.008c-.007.004-.018.005-.024.012-.008.009.024.003.034-.002a.216.216 0 0 0 .03-.018z" font-family="icomoon" font-size="17.008" font-weight="400"/>
	<path d="M2.71 1.156c-.427 0-.792.152-1.098.458a1.497 1.499 0 0 0-.458 1.098v14.602c0 .426.153.792.458 1.098.306.306.671.458 1.098.458H17.3c.425 0 .792-.152 1.096-.458.306-.306.458-.672.458-1.098V2.712c0-.426-.152-.792-.458-1.098a1.497 1.499 0 0 0-1.097-.458Zm0 .518H17.3a1 1.001 0 0 1 .733.304 1 1.001 0 0 1 .303.734v14.602a1 1.001 0 0 1-.302.734 1 1.001 0 0 1-.735.303H2.71a1 1.001 0 0 1-.735-.303 1 1.001 0 0 1-.302-.734V2.712a1 1.001 0 0 1 .302-.734 1 1.001 0 0 1 .734-.304Z" font-family="icomoon" font-size="17.008" font-weight="400"/>
	<path d="M1.583.001c-.444 0-.818.153-1.124.46A1.528 1.53 0 0 0 0 1.584v16.858c0 .443.152.818.46 1.124.305.307.68.459 1.122.459h16.844a1.52 1.52 0 0 0 1.123-.46c.307-.305.46-.68.46-1.123V1.583A1.53 1.53 0 0 0 19.55.46 1.528 1.53 0 0 0 18.426 0Zm0 .527h16.843c.287 0 .534.105.743.313.208.21.312.456.312.743v16.858c0 .286-.104.534-.312.743a1.014 1.015 0 0 1-.743.312H1.583a1.015 1.016 0 0 1-.743-.312 1.015 1.016 0 0 1-.313-.743V1.583c0-.287.104-.534.313-.743a1.015 1.016 0 0 1 .743-.312Z" font-family="icomoon" font-size="19.843" font-weight="400"/>
	<path d="M-2164.071 600.669c-1.516-.243-3.06-.862-4.469-1.791-1.338-.884-2.852-2.615-3.625-4.146-1.275-2.525-1.486-5.891-.536-8.536.573-1.596 1.392-2.876 2.636-4.12 1.916-1.915 4.133-2.956 6.796-3.188a10.911 10.911 0 0 1 10.121 4.925c1.241 1.91 1.759 3.656 1.762 5.944 0 1.453-.1 2.178-.478 3.373-1.035 3.275-3.66 5.969-6.895 7.078-1.561.535-3.694.72-5.312.46zm21.584-1.561c-1.48-.109-3.283-.296-3.333-.346-.023-.023.167-.476.422-1.006.797-1.658 1.364-3.616 1.655-5.722.055-.395.098-1.477.097-2.406v-1.69l.644.063c.354.034 1.573.104 2.71.155 4.494.202 9.521-.252 14.003-1.266 9.012-2.04 17.166-6.251 24.148-12.475 1.409-1.256 4.085-4.02 5.3-5.475 7.428-8.888 11.646-19.3 12.541-30.95.13-1.683.13-5.907 0-7.589-.895-11.651-5.113-22.062-12.54-30.95-1.215-1.455-3.892-4.22-5.301-5.476-9.068-8.083-20.059-12.74-32.25-13.666-1.687-.128-5.912-.128-7.588 0-4.718.362-8.941 1.2-13.267 2.632-.827.274-1.53.498-1.562.498-.032 0-.127-.275-.212-.611-.42-1.651-1.429-3.88-2.472-5.46-.725-1.097-1.265-1.761-2.238-2.751l-.756-.77 1.122-.438c4.447-1.733 9.948-3.108 15-3.75 2.962-.376 3.902-.425 8.221-.423 4.567.002 5.946.089 9.394.59 22.948 3.342 42.482 18.808 51.06 40.427 2.76 6.955 4.308 14.497 4.497 21.905.119 4.674-.134 8.522-.84 12.787-2.461 14.882-10.174 28.588-21.677 38.523-6.338 5.474-13.976 9.814-21.904 12.447-4.786 1.589-9.336 2.537-14.797 3.082-1.594.16-8.399.234-10.075.11zm-38.955-16.34c-12.17-10.845-19.81-25.784-21.45-41.954-.237-2.324-.299-3.69-.298-6.577 0-3.863.16-6.14.678-9.687 1.385-9.484 5.024-18.814 10.47-26.841.322-.475.597-.864.61-.864.013 0 .18.263.372.585 1.537 2.587 4.333 5.244 7 6.653l.76.401-.43.67c-4.337 6.76-7.213 14.843-8.113 22.802-.342 3.024-.44 7.291-.23 10.033.94 12.247 5.597 23.227 13.68 32.25.905 1.011 3.212 3.326 4.273 4.29.247.223.436.414.422.423-.015.009-.39.325-.834.703-2.274 1.932-4.135 4.564-5.261 7.442-.172.44-.32.808-.329.817-.01.009-.602-.507-1.32-1.147zm42.074-8.916c-9.037-.32-17.246-3.431-24.211-9.178-1.406-1.16-3.806-3.546-4.956-4.928-5.4-6.487-8.439-13.868-9.201-22.347-.125-1.388-.124-4.881 0-6.366.972-11.498 6.617-21.716 15.815-28.624 9.207-6.916 21.118-9.454 32.455-6.917 2.26.506 5.127 1.435 7.007 2.273l.73.325-.83.551a18.574 18.574 0 0 0-5.279 5.244c-.682 1.019-1.59 2.747-1.927 3.673-.1.275-.215.5-.255.5-.04 0-.576-.132-1.19-.294-5.157-1.356-10.837-1.155-15.814.56-9.22 3.177-16.009 10.916-17.969 20.485-.384 1.874-.463 2.794-.464 5.386 0 2.528.062 3.303.424 5.185 1.992 10.365 9.92 18.749 20.159 21.319 5.741 1.44 11.923.972 17.31-1.313 10.102-4.284 16.691-14.18 16.694-25.073v-1.357l1.056-.14c3.825-.51 7.636-2.326 10.337-4.922l.39-.376.093.535c.48 2.757.598 7.298.268 10.273-.711 6.411-2.779 12.237-6.224 17.538-2.91 4.477-7.092 8.658-11.57 11.569-5.56 3.615-12.011 5.814-18.464 6.295-1.36.102-3.393.159-4.384.124zm-.8-26.8c-5.792-.936-10.252-5.567-10.923-11.342-.126-1.08-.063-2.98.13-3.96 1.034-5.241 5.082-9.277 10.374-10.342 1.155-.232 3.824-.21 4.987.04 5.228 1.128 9.148 5.106 10.2 10.347.213 1.066.213 3.734 0 4.8-1.047 5.22-4.98 9.224-10.157 10.337-1.088.234-3.513.297-4.611.12zm26.179-21.924a11.022 11.022 0 0 1-9.153-9.102c-.201-1.222-.127-3.147.167-4.325 1.239-4.97 5.555-8.374 10.63-8.383 1.387-.002 2.388.159 3.625.585 3.832 1.322 6.585 4.59 7.254 8.612.208 1.249.137 3.186-.16 4.354-.835 3.297-3.018 5.95-6.07 7.38-1.852.869-4.246 1.203-6.293.88zm-63.024-26.642c-4.462-.82-7.893-4.165-8.862-8.64-.195-.9-.22-3.277-.043-4.173.875-4.435 4.196-7.82 8.61-8.778.997-.216 3.377-.222 4.358-.01 2.178.47 4.074 1.49 5.593 3.01a11.014 11.014 0 0 1 3.081 5.908c.19 1.09.128 3.366-.118 4.339-1.046 4.137-3.987 7.113-8.101 8.197-.688.181-1.034.217-2.326.242-1.085.02-1.71-.006-2.192-.095z" clip-path="url(#a)" transform="matrix(.11304 0 0 .11313 251.772 -50.497)"/>
</svg>