<svg
	xmlns="http://www.w3.org/2000/svg" width="20" height="20">
	<defs>
		<clipPath id="a" clipPathUnits="userSpaceOnUse">
			<path fill="red" stroke-width=".265" d="M32.017 225.513v.183a.807.807 0 0 1 .079-.032c.08-.028.179-.047.261-.005.046.023.077.068.115.103.014.05.04.1.041.152.003.13-.063.23-.147.323a1.166 1.166 0 0 1-.163.14l-.01.008a1.287 1.287 0 0 1-.176.588v1.469h3.554v-2.929zm.201.404a.395.395 0 0 0-.116.03c.016.038.03.077.048.114l.002.012c.107-.118.011-.02.068-.114.003-.005.01-.007.015-.01.01-.002.023.002.03-.005.005-.005.003-.02-.004-.022a.117.117 0 0 0-.043-.005z"/>
		</clipPath>
	</defs>
	<path fill="#fff" d="M1.897.22h16.161c.473 0 .878.17 1.216.507.338.339.508.744.508 1.217v16.171c0 .473-.17.878-.508 1.216a1.659 1.66 0 0 1-1.215.509H1.896a1.659 1.66 0 0 1-1.216-.508 1.659 1.66 0 0 1-.507-1.217V1.945c0-.474.17-.879.507-1.217A1.659 1.66 0 0 1 1.896.22" font-family="icomoon" font-size="22.677" font-weight="400"/>
	<path d="M1.757-.001a1.69 1.69 0 0 0-1.24.52A1.69 1.69 0 0 0 0 1.758v16.487c0 .481.173.894.517 1.24.347.345.759.517 1.24.517h16.477c.483 0 .894-.173 1.24-.517.345-.346.518-.759.518-1.24V1.758a1.69 1.69 0 0 0-.518-1.24 1.69 1.69 0 0 0-1.24-.519Zm0 .587h16.477c.327 0 .604.113.83.341.228.227.342.506.342.831v16.487a1.13 1.13 0 0 1-.341.83 1.13 1.13 0 0 1-.83.342H1.756a1.13 1.13 0 0 1-.83-.342 1.13 1.13 0 0 1-.342-.83V1.758c0-.325.113-.603.341-.83a1.13 1.13 0 0 1 .83-.342Z" font-family="icomoon" font-size="17.008" font-weight="400"/>
	<path d="M6.039 15.05c.141-2.21.93-6.836 4.66-8.889.831-.456 2.15-1.04 3.148-1.69 1.362-.886 3.625-2.718 3.846-2.993.279-.344.49 5.694-1.954 9.37-2.538 3.821-9.7 4.201-9.7 4.201z"/>
	<path fill="#fff" d="M6.97 14.188c.755-1.56 1.77-3.12 3.158-4.367 1.342-1.207 3.344-2 4.586-3.3.779-.816 1.398-1.89 1.866-2.928-.225 1.125-.65 2.214-1.42 3.203-1.17 1.503-2.978 2.265-4.444 3.478-1.48 1.224-2.52 2.551-3.747 3.914z"/>
	<path fill="#020202" d="M32.59 228.18c-.198.002-.363 0-.57 0 .136-.11 0 .001.061-.051l3.102-2.561a.263.263 0 0 1 .322 0 .165.165 0 0 1 0 .265l-2.8 2.254a.895.895 0 0 1-.115.093z" clip-path="url(#a)" transform="matrix(1.3328 0 0 1.33355 -40.537 -286.265)"/>
	<path fill="red" d="M1.44 19.134a.533.533 0 0 1-.223-.045.893.893 0 0 1-.187-.115.88.88 0 0 1-.116-.187.533.533 0 0 1-.045-.224.533.533 0 0 1 .045-.222.893.893 0 0 1 .116-.187L18.144 1.031a.878.879 0 0 1 .186-.116.533.533 0 0 1 .223-.045c.154 0 .288.057.4.17a.548.548 0 0 1 .17.4.53.53 0 0 1-.045.223.884.884 0 0 1-.116.187L1.849 18.973a.886.887 0 0 1-.187.116.533.533 0 0 1-.223.045" font-family="icomoon" font-size="15.874" font-weight="400"/>
</svg>