<svg xmlns="http://www.w3.org/2000/svg" width="210mm" height="297mm" viewBox="0 0 210 297">
    <defs>
        <clipPath id="a" clipPathUnits="userSpaceOnUse">
            <path d="M32.017 225.513v.183a.807.807 0 0 1 .079-.032c.08-.028.179-.047.261-.005.046.023.077.068.115.103.014.05.04.1.041.152.003.13-.063.23-.147.323a1.166 1.166 0 0 1-.163.14l-.01.008a1.287 1.287 0 0 1-.176.588v1.469h3.554v-2.929zm.201.404a.395.395 0 0 0-.116.03c.016.038.03.077.048.114l.002.012c.107-.118.011-.02.068-.114.003-.005.01-.007.015-.01.01-.002.023.002.03-.005.005-.005.003-.02-.004-.022a.117.117 0 0 0-.043-.005z" style="fill:red;fill-opacity:1;fill-rule:nonzero;stroke:none;stroke-width:.264583"/>
        </clipPath>
    </defs>
    <g style="font-style:normal;font-weight:400;font-size:22.6771px;font-family:icomoon;display:inline;fill:#fff;fill-opacity:1;fill-rule:evenodd;stroke:none;stroke-width:1;stroke-linecap:square;stroke-linejoin:bevel">
        <path d="M2.637-24.375h24.726c.723 0 1.343.259 1.86.776.518.518.777 1.138.777 1.86V2.989c0 .723-.259 1.343-.776 1.86a2.538 2.538 0 0 1-1.86.777H2.636a2.538 2.538 0 0 1-1.86-.776A2.538 2.538 0 0 1 0 2.989v-24.727c0-.723.259-1.343.776-1.86a2.538 2.538 0 0 1 1.86-.777" font-size="22.677" font-weight="400" style="vector-effect:none;fill:#fff;fill-opacity:1;fill-rule:nonzero" transform="translate(.256 14.6) scale(.58805)"/>
    </g>
    <path d="M140.085 229.137c-.383 0-.711.137-.986.412a1.345 1.345 0 0 0-.412.986v13.125c0 .384.137.712.412.986.275.275.603.412.986.412h13.125c.384 0 .712-.137.987-.412.274-.274.412-.602.412-.986v-13.125c0-.384-.138-.712-.412-.986a1.345 1.345 0 0 0-.987-.412zm0 .466h13.125c.26 0 .479.09.66.272a.898.898 0 0 1 .272.66v13.125c0 .26-.09.479-.272.66a.897.897 0 0 1-.66.272h-13.125a.898.898 0 0 1-.66-.272.898.898 0 0 1-.271-.66v-13.125c0-.26.09-.479.271-.66a.898.898 0 0 1 .66-.272z" style="font-style:normal;font-weight:400;font-size:17.0078px;font-family:icomoon;vector-effect:none;fill:#000;fill-opacity:1;fill-rule:nonzero;stroke:none;stroke-width:.692313;stroke-linecap:square;stroke-linejoin:bevel" transform="translate(-137.648 -228.098)"/>
    <path d="M139.072 228.097c-.399 0-.735.14-1.01.415a1.373 1.373 0 0 0-.414 1.01v15.152c0 .398.138.734.414 1.01.275.275.611.414 1.01.414h15.152c.398 0 .734-.14 1.01-.415.275-.275.414-.61.414-1.01v-15.152c0-.398-.139-.734-.414-1.01a1.373 1.373 0 0 0-1.01-.413zm0 .475h15.152c.258 0 .48.094.668.281.187.188.281.41.281.668v15.153c0 .257-.094.48-.281.668a.912.912 0 0 1-.668.28h-15.152a.912.912 0 0 1-.668-.28.913.913 0 0 1-.282-.668V229.52c0-.257.094-.48.282-.668a.913.913 0 0 1 .668-.28z" style="font-style:normal;font-weight:400;font-size:19.8425px;font-family:icomoon;vector-effect:none;fill:#000;fill-opacity:1;fill-rule:nonzero;stroke:none;stroke-width:.692313;stroke-linecap:square;stroke-linejoin:bevel" transform="translate(-137.648 -228.098)"/>
    <path d="M34.946 225.949c.106-1.657.698-5.126 3.497-6.665.623-.342 1.613-.78 2.361-1.268 1.022-.664 2.72-2.038 2.886-2.244.209-.258.367 4.27-1.466 7.027-1.904 2.865-7.278 3.15-7.278 3.15z" style="stroke-width:1.13595" transform="translate(-28.915 -213.076)"/>
    <path fill="#fff" d="M35.644 225.303c.567-1.17 1.328-2.34 2.37-3.275 1.007-.905 2.509-1.499 3.441-2.475.584-.611 1.049-1.416 1.4-2.195-.169.844-.488 1.66-1.065 2.402-.878 1.127-2.235 1.698-3.335 2.608-1.11.918-1.89 1.913-2.811 2.935z" style="stroke-width:1.13595" transform="translate(-28.915 -213.076)"/>
    <path fill="#020202" d="M32.59 228.18c-.198.002-.363 0-.57 0 .136-.11 0 .001.061-.051l3.102-2.561a.263.263 0 0 1 .322 0 .165.165 0 0 1 0 .265l-2.8 2.254a.895.895 0 0 1-.115.093z" clip-path="url(#a)" style="stroke-width:1.13595" transform="translate(-28.915 -213.076)"/>
    <path d="M138.535 245.751a.505.505 0 0 1-.211-.042.841.841 0 0 1-.178-.11.838.838 0 0 1-.11-.177.505.505 0 0 1-.042-.212c0-.078.014-.149.042-.21a.842.842 0 0 1 .11-.178l16.226-16.226a.84.84 0 0 1 .177-.11.505.505 0 0 1 .212-.042.52.52 0 0 1 .38.16.52.52 0 0 1 .16.38c0 .08-.013.15-.042.212a.842.842 0 0 1-.11.177L138.925 245.6a.838.838 0 0 1-.178.11.505.505 0 0 1-.211.042" style="font-style:normal;font-weight:400;font-size:18.7086px;font-family:icomoon;display:inline;vector-effect:none;fill:red;fill-opacity:1;fill-rule:nonzero;stroke:none;stroke-width:.692313;stroke-linecap:square;stroke-linejoin:bevel" transform="translate(-137.648 -228.098)"/>
</svg>
