<svg xmlns="http://www.w3.org/2000/svg" width="210mm" height="297mm" viewBox="0 0 210 297">
    <defs>
        <clipPath id="a" clipPathUnits="userSpaceOnUse">
            <path d="M32.017 225.513v.183a.807.807 0 0 1 .079-.032c.08-.028.179-.047.261-.005.046.023.077.068.115.103.014.05.04.1.041.152.003.13-.063.23-.147.323a1.166 1.166 0 0 1-.163.14l-.01.008a1.287 1.287 0 0 1-.176.588v1.469h3.554v-2.929zm.201.404a.395.395 0 0 0-.116.03c.016.038.03.077.048.114l.002.012c.107-.118.011-.02.068-.114.003-.005.01-.007.015-.01.01-.002.023.002.03-.005.005-.005.003-.02-.004-.022a.117.117 0 0 0-.043-.005z" style="fill:red;fill-opacity:1;fill-rule:nonzero;stroke:none;stroke-width:.264583"/>
        </clipPath>
    </defs>
    <path d="M51.152 212.308h12.127c.354 0 .658.127.912.38.254.255.38.559.38.913v12.127c0 .355-.126.659-.38.913s-.558.38-.912.38H51.152c-.355 0-.659-.126-.913-.38a1.245 1.245 0 0 1-.38-.913v-12.127c0-.354.126-.658.38-.912s.558-.38.913-.38" style="font-style:normal;font-weight:400;font-size:19.8425px;font-family:icomoon;display:inline;vector-effect:none;fill:#fff;fill-opacity:1;fill-rule:nonzero;stroke:none;stroke-width:.565899;stroke-linecap:square;stroke-linejoin:bevel" transform="translate(-49.648 -212.098)"/>
    <path d="M50.966 212.097c-.361 0-.671.13-.93.389a1.269 1.269 0 0 0-.388.93v12.363c0 .361.13.672.388.93.259.26.569.389.93.389H63.33c.362 0 .672-.13.93-.389.26-.258.389-.569.389-.93v-12.363c0-.361-.13-.672-.388-.93a1.269 1.269 0 0 0-.93-.388zm0 .44H63.33c.245 0 .452.085.623.256.17.171.256.379.256.623v12.363a.848.848 0 0 1-.256.623.847.847 0 0 1-.623.256H50.966a.847.847 0 0 1-.622-.256.848.848 0 0 1-.257-.623v-12.363c0-.244.086-.452.257-.623a.848.848 0 0 1 .622-.256z" style="font-style:normal;font-weight:400;font-size:17.0078px;font-family:icomoon;vector-effect:none;fill:#000;fill-opacity:1;fill-rule:nonzero;stroke:none;stroke-width:.652176;stroke-linecap:square;stroke-linejoin:bevel" transform="translate(-49.648 -212.098)"/>
    <path d="M34.946 225.949c.106-1.657.698-5.126 3.497-6.665.623-.342 1.613-.78 2.361-1.268 1.022-.664 2.72-2.038 2.886-2.244.209-.258.367 4.27-1.466 7.027-1.904 2.865-7.278 3.15-7.278 3.15z" style="stroke-width:1.13595" transform="translate(-30.52 -214.664)"/>
    <path fill="#fff" d="M35.644 225.303c.567-1.17 1.328-2.34 2.37-3.275 1.007-.905 2.509-1.499 3.441-2.475.584-.611 1.049-1.416 1.4-2.195-.169.844-.488 1.66-1.065 2.402-.878 1.127-2.235 1.698-3.335 2.608-1.11.918-1.89 1.913-2.811 2.935z" style="stroke-width:1.13595" transform="translate(-30.52 -214.664)"/>
    <path fill="#020202" d="M32.59 228.18c-.198.002-.363 0-.57 0 .136-.11 0 .001.061-.051l3.102-2.561a.263.263 0 0 1 .322 0 .165.165 0 0 1 0 .265l-2.8 2.254a.895.895 0 0 1-.115.093z" clip-path="url(#a)" style="stroke-width:1.13595" transform="translate(-30.52 -214.664)"/>
</svg>
