<svg
	xmlns="http://www.w3.org/2000/svg" width="20" height="20">
	<defs>
		<clipPath id="a" clipPathUnits="userSpaceOnUse">
			<path fill="red" stroke-width=".265" d="M32.017 225.513v.183a.807.807 0 0 1 .079-.032c.08-.028.179-.047.261-.005.046.023.077.068.115.103.014.05.04.1.041.152.003.13-.063.23-.147.323a1.166 1.166 0 0 1-.163.14l-.01.008a1.287 1.287 0 0 1-.176.588v1.469h3.554v-2.929zm.201.404a.395.395 0 0 0-.116.03c.016.038.03.077.048.114l.002.012c.107-.118.011-.02.068-.114.003-.005.01-.007.015-.01.01-.002.023.002.03-.005.005-.005.003-.02-.004-.022a.117.117 0 0 0-.043-.005z"/>
		</clipPath>
	</defs>
	<path fill="#fff" d="M2.005.28H18.17c.472 0 .878.17 1.216.507.339.34.507.746.507 1.218v16.172c0 .473-.168.878-.507 1.217a1.657 1.657 0 0 1-1.216.507H2.005c-.473 0-.879-.168-1.217-.507a1.66 1.66 0 0 1-.507-1.217V2.005c0-.472.168-.878.507-1.217A1.658 1.658 0 0 1 2.005.282" font-family="icomoon" font-size="19.843" font-weight="400"/>
	<path d="M1.757-.001c-.481 0-.894.173-1.24.519A1.692 1.692 0 0 0 0 1.758v16.487c0 .481.173.896.517 1.24a1.69 1.69 0 0 0 1.24.518h16.481c.483 0 .896-.173 1.24-.518.347-.344.519-.759.519-1.24V1.758c0-.481-.174-.896-.518-1.24A1.692 1.692 0 0 0 18.24 0Zm0 .587h16.481c.327 0 .603.113.83.341.228.228.342.506.342.83v16.488a1.13 1.13 0 0 1-.341.83 1.13 1.13 0 0 1-.83.342H1.756a1.13 1.13 0 0 1-.83-.342 1.13 1.13 0 0 1-.342-.83V1.758c0-.325.115-.603.343-.83a1.13 1.13 0 0 1 .829-.342Z" font-family="icomoon" font-size="17.008" font-weight="400"/>
	<path d="M5.9 15.05c.141-2.21.93-6.836 4.662-8.889.83-.456 2.15-1.04 3.147-1.69 1.362-.886 3.626-2.718 3.847-2.993.279-.344.49 5.694-1.954 9.37C13.064 14.67 5.9 15.05 5.9 15.05Z"/>
	<path fill="#fff" d="M6.83 14.188c.756-1.56 1.77-3.12 3.16-4.367 1.342-1.207 3.344-2 4.587-3.301.778-.815 1.398-1.888 1.866-2.927-.225 1.125-.65 2.214-1.42 3.203-1.17 1.503-2.98 2.264-4.445 3.478-1.48 1.224-2.52 2.551-3.748 3.914Z"/>
	<path fill="#020202" d="M32.59 228.18c-.198.002-.363 0-.57 0 .136-.11 0 .001.061-.051l3.102-2.561a.263.263 0 0 1 .322 0 .165.165 0 0 1 0 .265l-2.8 2.254a.895.895 0 0 1-.115.093z" clip-path="url(#a)" transform="matrix(1.33302 0 0 1.33354 -40.684 -286.264)"/>
</svg>