<svg
	xmlns="http://www.w3.org/2000/svg" width="20" height="20">
	<defs>
		<clipPath id="a" clipPathUnits="userSpaceOnUse">
			<path fill="red" stroke-width=".265" d="M32.017 225.513v.183a.807.807 0 0 1 .079-.032c.08-.028.179-.047.261-.005.046.023.077.068.115.103.014.05.04.1.041.152.003.13-.063.23-.147.323a1.166 1.166 0 0 1-.163.14l-.01.008a1.287 1.287 0 0 1-.176.588v1.469h3.554v-2.929zm.201.404a.395.395 0 0 0-.116.03c.016.038.03.077.048.114l.002.012c.107-.118.011-.02.068-.114.003-.005.01-.007.015-.01.01-.002.023.002.03-.005.005-.005.003-.02-.004-.022a.117.117 0 0 0-.043-.005z"/>
		</clipPath>
	</defs>
	<path fill="red" d="M1.943.13h16.143c.472 0 .877.17 1.214.507.339.338.507.742.507 1.214v16.123c0 .47-.168.874-.507 1.213a1.66 1.66 0 0 1-1.213.506H1.94c-.47 0-.876-.17-1.213-.507a1.653 1.654 0 0 1-.507-1.214V1.851c0-.47.168-.875.507-1.212A1.657 1.657 0 0 1 1.94.132" font-family="icomoon" font-size="19.843" font-weight="400"/>
	<path d="M1.757 0C1.276 0 .863.173.517.517A1.692 1.692 0 0 0 0 1.757v16.489c0 .481.173.894.517 1.24a1.69 1.69 0 0 0 1.24.517h16.485c.481 0 .894-.173 1.24-.517.345-.346.517-.759.517-1.24V1.758c0-.482-.173-.895-.517-1.24A1.692 1.692 0 0 0 18.242 0Zm0 .587h16.485c.325 0 .601.113.829.341.228.227.343.504.343.83v16.488a1.13 1.13 0 0 1-.343.83 1.13 1.13 0 0 1-.83.342H1.758a1.13 1.13 0 0 1-.829-.343 1.13 1.13 0 0 1-.343-.83V1.759c0-.326.115-.602.343-.83a1.13 1.13 0 0 1 .83-.343Z" font-family="icomoon" font-size="17.008" font-weight="400"/>
	<path d="M6.12 15.05c.141-2.21.929-6.837 4.66-8.889.831-.456 2.151-1.04 3.15-1.69 1.361-.886 3.626-2.719 3.848-2.993.277-.344.489 5.694-1.955 9.37-2.538 3.821-9.705 4.201-9.705 4.201z"/>
	<path fill="red" d="M7.049 14.189c.757-1.562 1.772-3.122 3.16-4.37 1.344-1.206 3.346-1.998 4.589-3.3.777-.814 1.397-1.888 1.866-2.926-.226 1.125-.65 2.213-1.42 3.203-1.17 1.503-2.978 2.264-4.445 3.478-1.48 1.224-2.52 2.55-3.749 3.914Z"/>
	<path fill="#020202" d="M32.59 228.18c-.198.002-.363 0-.57 0 .136-.11 0 .001.061-.051l3.102-2.561a.263.263 0 0 1 .322 0 .165.165 0 0 1 0 .265l-2.8 2.254a.895.895 0 0 1-.115.093z" clip-path="url(#a)" transform="matrix(1.33326 0 0 1.33355 -40.472 -286.264)"/>
</svg>