<svg
	xmlns="http://www.w3.org/2000/svg"
	xmlns:xlink="http://www.w3.org/1999/xlink" xml:space="preserve" width="20" height="20">
	<defs>
		<path id="a" d="M954.424 863.471c-30.296-.244-34.588 8.353-34.14 22.656.463 14.746 7.367 20.007 33.748 19.588l240.627.068-10.134-40.46z"/>
	</defs>
	<g transform="matrix(1.00089 0 0 1.00102 50.044 20.02)">
		<path fill="#fdfd00" d="M-48.242-20h16.484c.482 0 .895.173 1.24.517.345.346.518.759.518 1.24v16.486c0 .482-.173.895-.517 1.24a1.692 1.692 0 0 1-1.24.518h-16.486a1.692 1.692 0 0 1-1.24-.518A1.692 1.692 0 0 1-50-1.757v-16.485c0-.482.173-.895.517-1.24a1.692 1.692 0 0 1 1.24-.518" font-family="icomoon" font-size="22.677" font-weight="400"/>
		<path d="M-46.246-17.668c-.37 0-.686.133-.95.398a1.297 1.297 0 0 0-.398.95v12.639c0 .369.133.686.397.95.265.265.582.397.951.397h12.638c.37 0 .686-.132.95-.397.265-.264.398-.581.398-.95v-12.638c0-.37-.133-.687-.397-.951a1.297 1.297 0 0 0-.95-.397zm0 .45h12.638c.25 0 .462.087.636.262a.867.867 0 0 1 .263.637v12.638c0 .25-.088.461-.263.636a.866.866 0 0 1-.636.262h-12.638a.867.867 0 0 1-.636-.262.866.866 0 0 1-.262-.636v-12.638c0-.25.087-.462.262-.637a.867.867 0 0 1 .636-.262zm2.264 3.061c-.004.02-.011.035-.016.052l.029.002z" font-family="icomoon" font-size="17.008" font-weight="400"/>
		<path d="M-32.383-18.574a.92.92 0 0 1 .674.283c.19.189.283.414.283.674v15.234a.92.92 0 0 1-.283.674.92.92 0 0 1-.674.283h-15.234a.92.92 0 0 1-.674-.283.92.92 0 0 1-.283-.674v-15.234a.92.92 0 0 1 .283-.674.92.92 0 0 1 .674-.283h15.234m0-.469h-15.234c-.391 0-.726.14-1.006.42-.28.28-.42.615-.42 1.006v15.234c0 .391.14.726.42 1.006.28.28.615.42 1.006.42h15.234c.391 0 .726-.14 1.006-.42.28-.28.42-.615.42-1.006v-15.234c0-.391-.14-.726-.42-1.006-.28-.28-.615-.42-1.006-.42m.957-.488a.92.92 0 0 1 .674.283.92.92 0 0 1 .283.673v17.15a.92.92 0 0 1-.283.674.92.92 0 0 1-.673.283h-17.15a.92.92 0 0 1-.674-.283.92.92 0 0 1-.283-.674v-17.148a.92.92 0 0 1 .283-.674.92.92 0 0 1 .674-.284h17.148m0-.468h-17.146c-.391 0-.727.14-1.007.42-.28.28-.42.615-.42 1.006v17.147c0 .39.14.727.42 1.007.28.279.616.419 1.007.419h17.146c.391 0 .727-.14 1.007-.42.28-.28.42-.615.42-1.006v-17.148c0-.39-.14-.727-.42-1.007-.28-.28-.616-.42-1.007-.42" font-family="icomoon" font-size="22.677" font-weight="400"/>
		<g paint-order="stroke markers fill" transform="translate(-58.802 -22.337) scale(.0186)">
			<circle cx="1019.344" cy="445.21" r="109.043"/>
			<path d="M1161.052 725.684c14.97 26.34 24.443 25.858 36.63 18.359 12.564-7.732 13.697-16.338.219-39.02l-130.735-219.837-27.71 26.555z"/>
		</g>
		<g paint-order="stroke markers fill" transform="translate(-58.802 -22.337) scale(.0186)">
			<circle cx="133.021" cy="-1537.865" r="109.043" transform="rotate(119.81)"/>
			<use xlink:href="#a"/>
		</g>
		<g paint-order="stroke markers fill" transform="rotate(120.264 -4.117 -14.4) scale(.0186)">
			<circle cx="133.021" cy="-1537.865" r="109.043" transform="rotate(119.81)"/>
			<use xlink:href="#a"/>
		</g>
		<circle cx="-40.453" cy="-14.659" r=".952" fill="#ff0" paint-order="stroke markers fill"/>
		<circle cx="-45.318" cy="-6.521" r=".952" fill="#ff0" paint-order="stroke markers fill"/>
		<circle cx="-35.723" cy="-6.521" r=".952" fill="#ff0" paint-order="stroke markers fill"/>
	</g>
</svg>