<svg
	xmlns="http://www.w3.org/2000/svg" width="20" height="20">
	<path fill="#fff" d="M1.758 0H18.24c.48 0 .894.173 1.24.518.344.344.517.759.517 1.241v16.488a1.7 1.7 0 0 1-.517 1.242 1.692 1.692 0 0 1-1.24.516H1.758a1.69 1.69 0 0 1-1.24-.516A1.692 1.693 0 0 1 0 18.247V1.76C0 1.277.172.864.518.518A1.692 1.692 0 0 1 1.758 0" font-family="icomoon" font-size="19.843" font-weight="400"/>
	<path d="m9.481 4.752-.039.008c-.008.005-.019.006-.024.012-.008.01.023.004.033-.002a.114.114 0 0 0 .03-.018z" font-family="icomoon" font-size="17.008" font-weight="400"/>
	<path d="M2.709 1.155c-.427 0-.793.152-1.098.458a1.496 1.497 0 0 0-.458 1.097v14.587c0 .425.154.791.458 1.097.305.305.671.458 1.098.458h14.58c.425 0 .792-.153 1.096-.458.306-.306.458-.672.458-1.097V2.71c0-.426-.152-.792-.458-1.097a1.496 1.497 0 0 0-1.096-.458Zm0 .518h14.58a1 1 0 0 1 .733.303 1 1 0 0 1 .303.734v14.587a1 1 0 0 1-.302.733 1 1 0 0 1-.734.303H2.709a1 1 0 0 1-.735-.303 1 1 0 0 1-.302-.733V2.71a1 1 0 0 1 .302-.734 1 1 0 0 1 .733-.303Z" font-family="icomoon" font-size="17.008" font-weight="400"/>
	<path d="M1.582.001c-.443 0-.818.152-1.123.46A1.528 1.528 0 0 0 0 1.582v16.84c0 .443.152.818.459 1.123.305.307.68.46 1.122.46h16.834a1.52 1.52 0 0 0 1.122-.46c.307-.305.46-.68.46-1.122V1.582a1.53 1.53 0 0 0-.458-1.123A1.528 1.528 0 0 0 18.415 0Zm0 .527h16.833c.287 0 .534.104.743.312.207.21.312.456.312.743v16.84c0 .286-.105.534-.312.743a1.013 1.014 0 0 1-.743.311H1.582a1.014 1.015 0 0 1-.742-.31 1.014 1.015 0 0 1-.313-.743V1.582c0-.287.104-.534.313-.743a1.014 1.015 0 0 1 .742-.311Z" font-family="icomoon" font-size="19.843" font-weight="400"/>
	<g paint-order="stroke markers fill" transform="translate(7.115 5.84) scale(.00176)">
		<circle cx="834.952" cy="3215.937" r="228.334"/>
		<path d="M977.909 3187.721h1431.258v61.047H977.909Z"/>
		<circle cx="2542.952" cy="3215.937" r="228.334"/>
		<circle cx="1274.369" cy="3668.979" r="228.334"/>
		<path d="M1301.83 3633.336h694.254v55.592H1301.83Z"/>
		<circle cx="2104.369" cy="3668.979" r="228.334"/>
		<circle cx="490.952" cy="2687.937" r="228.334"/>
		<path d="M1339.909 2659.721h1431.258v61.047H1339.909Z"/>
		<circle cx="2904.952" cy="2687.937" r="228.334"/>
		<path d="M619.909 2659.721h1431.258v61.047H619.909Z"/>
		<circle cx="422.952" cy="2161.937" r="228.334"/>
		<path d="M1419.909 2133.721h1431.258v61.047H1419.909Z"/>
		<circle cx="2984.952" cy="2161.937" r="228.334"/>
		<path d="M551.909 2133.721h1431.258v61.047H551.909Z"/>
		<circle cx="1686.369" cy="4014.979" r="228.334"/>
		<circle cx="834.952" cy="-4804.624" r="228.334" transform="scale(1 -1)"/>
		<path d="M977.909 4832.84h1431.258v-61.047H977.909Z"/>
		<circle cx="2542.952" cy="-4804.624" r="228.334" transform="scale(1 -1)"/>
		<circle cx="1274.369" cy="-4351.583" r="228.334" transform="scale(1 -1)"/>
		<path d="M1301.83 4387.225h694.254v-55.592H1301.83Z"/>
		<circle cx="2104.369" cy="-4351.583" r="228.334" transform="scale(1 -1)"/>
		<circle cx="490.952" cy="-5332.624" r="228.334" transform="scale(1 -1)"/>
		<path d="M1339.909 5360.84h1431.258v-61.047H1339.909Z"/>
		<circle cx="2904.952" cy="-5332.624" r="228.334" transform="scale(1 -1)"/>
		<path d="M619.909 5360.84h1431.258v-61.047H619.909Z"/>
		<circle cx="422.952" cy="-5858.624" r="228.334" transform="scale(1 -1)"/>
		<path d="M1419.909 5886.84h1431.258v-61.047H1419.909Z"/>
		<circle cx="2984.952" cy="-5858.624" r="228.334" transform="scale(1 -1)"/>
		<path d="M551.909 5886.84h1431.258v-61.047H551.909Z"/>
		<circle cx="1686.369" cy="-4005.582" r="228.334" transform="scale(1 -1)"/>
		<circle cx="834.952" cy="-476.063" r="228.334"/>
		<path d="M977.909-504.279h1431.258v61.047H977.909Z"/>
		<circle cx="2542.952" cy="-476.063" r="228.334"/>
		<circle cx="1274.369" cy="-23.021" r="228.334"/>
		<path d="M1301.83-58.664h694.254v55.592H1301.83Z"/>
		<circle cx="2104.369" cy="-23.021" r="228.334"/>
		<circle cx="490.952" cy="-1004.063" r="228.334"/>
		<path d="M1339.909-1032.279h1431.258v61.047H1339.909Z"/>
		<circle cx="2904.952" cy="-1004.063" r="228.334"/>
		<path d="M619.909-1032.279h1431.258v61.047H619.909Z"/>
		<circle cx="422.952" cy="-1530.063" r="228.334"/>
		<path d="M1419.909-1558.279h1431.258v61.047H1419.909Z"/>
		<circle cx="2984.952" cy="-1530.063" r="228.334"/>
		<path d="M551.909-1558.279h1431.258v61.047H551.909Z"/>
		<circle cx="1686.369" cy="322.979" r="228.334"/>
		<circle cx="834.952" cy="-1112.624" r="228.334" transform="scale(1 -1)"/>
		<path d="M977.909 1140.84h1431.258v-61.047H977.909Z"/>
		<circle cx="2542.952" cy="-1112.624" r="228.334" transform="scale(1 -1)"/>
		<circle cx="1274.369" cy="-659.583" r="228.334" transform="scale(1 -1)"/>
		<path d="M1301.83 695.225h694.254v-55.592H1301.83Z"/>
		<circle cx="2104.369" cy="-659.583" r="228.334" transform="scale(1 -1)"/>
		<circle cx="490.952" cy="-1640.624" r="228.334" transform="scale(1 -1)"/>
		<path d="M1339.909 1668.84h1431.258v-61.047H1339.909Z"/>
		<circle cx="2904.952" cy="-1640.624" r="228.334" transform="scale(1 -1)"/>
		<path d="M619.909 1668.84h1431.258v-61.047H619.909Z"/>
		<circle cx="422.952" cy="-2166.624" r="228.334" transform="scale(1 -1)"/>
		<path d="M1419.909 2194.84h1431.258v-61.047H1419.909Z"/>
		<circle cx="2984.952" cy="-2166.624" r="228.334" transform="scale(1 -1)"/>
		<path d="M551.909 2194.84h1431.258v-61.047H551.909Z"/>
		<circle cx="1686.369" cy="-313.583" r="228.334" transform="scale(1 -1)"/>
	</g>
</svg>