<svg xmlns="http://www.w3.org/2000/svg" width="210mm" height="297mm" viewBox="0 0 210 297">
    <g style="font-style:normal;font-weight:400;font-size:22.6771px;font-family:icomoon;display:inline;fill:#fd0000;fill-opacity:1;fill-rule:evenodd;stroke:none;stroke-width:1;stroke-linecap:square;stroke-linejoin:bevel">
        <path d="M2.637-24.375h24.726c.723 0 1.343.259 1.86.776.518.518.777 1.138.777 1.86V2.989c0 .723-.259 1.343-.776 1.86a2.538 2.538 0 0 1-1.86.777H2.636a2.538 2.538 0 0 1-1.86-.776A2.538 2.538 0 0 1 0 2.989v-24.727c0-.723.259-1.343.776-1.86a2.538 2.538 0 0 1 1.86-.777" font-size="22.677" font-weight="400" style="vector-effect:none;fill:#fd0000;fill-opacity:1;fill-rule:nonzero" transform="matrix(.66667 0 0 .66667 0 16.25)"/>
    </g>
    <path d="M80.402 249.43c-.37 0-.686.133-.95.398a1.297 1.297 0 0 0-.398.95v12.639c0 .369.133.686.397.95.265.265.582.397.951.397H93.04c.37 0 .686-.132.95-.397.265-.264.398-.581.398-.95v-12.638c0-.37-.133-.687-.397-.951a1.297 1.297 0 0 0-.95-.397zm0 .45H93.04c.25 0 .462.087.636.262a.866.866 0 0 1 .263.637v12.638c0 .25-.088.461-.263.636a.866.866 0 0 1-.636.262H80.402a.867.867 0 0 1-.636-.262.866.866 0 0 1-.262-.636v-12.638c0-.25.087-.462.262-.637a.867.867 0 0 1 .636-.262zm2.264 3.061c-.004.02-.011.035-.016.052l.029.002-.013-.054z" style="font-style:normal;font-weight:400;font-size:17.0078px;font-family:icomoon;display:inline;vector-effect:none;fill:#000;fill-opacity:1;fill-rule:nonzero;stroke:none;stroke-width:.666667;stroke-linecap:square;stroke-linejoin:bevel" transform="translate(-76.648 -247.097)"/>
    <g style="font-style:normal;font-weight:400;font-size:22.6771px;font-family:icomoon;display:inline;fill:#000;fill-opacity:1;fill-rule:evenodd;stroke:none;stroke-width:1;stroke-linecap:square;stroke-linejoin:bevel">
        <path d="M26.426-22.236c.39 0 .727.141 1.01.425.284.283.425.62.425 1.01V2.051c0 .39-.141.727-.425 1.01a1.38 1.38 0 0 1-1.01.425H3.574a1.38 1.38 0 0 1-1.01-.424 1.38 1.38 0 0 1-.425-1.011v-22.852c0-.39.141-.727.424-1.01a1.38 1.38 0 0 1 1.011-.425h22.852m0-.703H3.574c-.586 0-1.089.21-1.509.63-.42.42-.63.922-.63 1.508V2.051c0 .586.21 1.089.63 1.509.42.42.923.63 1.51.63h22.85c.587 0 1.09-.21 1.51-.63.42-.42.63-.923.63-1.51V-20.8c0-.587-.21-1.09-.63-1.51-.42-.42-.923-.63-1.51-.63m1.436-.732c.391 0 .728.142 1.011.425.283.283.425.62.425 1.01V3.487c0 .39-.142.728-.425 1.011a1.38 1.38 0 0 1-1.01.425H2.138a1.38 1.38 0 0 1-1.011-.425 1.38 1.38 0 0 1-.425-1.01v-25.723c0-.391.142-.728.425-1.011a1.38 1.38 0 0 1 1.01-.425h25.723m0-.703H2.14c-.586 0-1.09.21-1.51.63-.419.42-.629.923-.629 1.509V3.486c0 .586.21 1.09.63 1.51.42.419.923.629 1.509.629H27.86c.586 0 1.09-.21 1.51-.63.419-.42.629-.923.629-1.509v-25.722c0-.586-.21-1.09-.63-1.51-.42-.419-.923-.629-1.509-.629" font-size="22.677" font-weight="400" style="vector-effect:none;fill-rule:nonzero" transform="matrix(.66667 0 0 .66667 0 16.25)"/>
    </g>
    <g transform="matrix(.00158 0 0 .00158 7.53 6.632)">
        <circle cx="834.952" cy="3215.937" r="228.334" style="fill:#000;fill-opacity:1;stroke:#000;stroke-width:27;stroke-linecap:round;stroke-linejoin:bevel;stroke-opacity:0;paint-order:stroke markers fill"/>
        <path d="M977.909 3187.721h1431.258v61.047H977.909z" style="fill:#000;fill-opacity:1;stroke:#000;stroke-width:108.953;stroke-linecap:round;stroke-linejoin:bevel;stroke-opacity:0;paint-order:stroke markers fill"/>
        <circle cx="2542.952" cy="3215.937" r="228.334" style="fill:#000;fill-opacity:1;stroke:#000;stroke-width:27;stroke-linecap:round;stroke-linejoin:bevel;stroke-opacity:0;paint-order:stroke markers fill"/>
        <circle cx="1274.369" cy="3668.979" r="228.334" style="fill:#000;fill-opacity:1;stroke:#000;stroke-width:27;stroke-linecap:round;stroke-linejoin:bevel;stroke-opacity:0;paint-order:stroke markers fill"/>
        <path d="M1301.83 3633.336h694.254v55.592H1301.83z" style="fill:#000;fill-opacity:1;stroke:#000;stroke-width:72.4122;stroke-linecap:round;stroke-linejoin:bevel;stroke-opacity:0;paint-order:stroke markers fill"/>
        <circle cx="2104.369" cy="3668.979" r="228.334" style="fill:#000;fill-opacity:1;stroke:#000;stroke-width:27;stroke-linecap:round;stroke-linejoin:bevel;stroke-opacity:0;paint-order:stroke markers fill"/>
        <circle cx="490.952" cy="2687.937" r="228.334" style="fill:#000;fill-opacity:1;stroke:#000;stroke-width:27;stroke-linecap:round;stroke-linejoin:bevel;stroke-opacity:0;paint-order:stroke markers fill"/>
        <path d="M1339.909 2659.721h1431.258v61.047H1339.909z" style="fill:#000;fill-opacity:1;stroke:#000;stroke-width:108.953;stroke-linecap:round;stroke-linejoin:bevel;stroke-opacity:0;paint-order:stroke markers fill"/>
        <circle cx="2904.952" cy="2687.937" r="228.334" style="fill:#000;fill-opacity:1;stroke:#000;stroke-width:27;stroke-linecap:round;stroke-linejoin:bevel;stroke-opacity:0;paint-order:stroke markers fill"/>
        <path d="M619.909 2659.721h1431.258v61.047H619.909z" style="fill:#000;fill-opacity:1;stroke:#000;stroke-width:108.953;stroke-linecap:round;stroke-linejoin:bevel;stroke-opacity:0;paint-order:stroke markers fill"/>
        <circle cx="422.952" cy="2161.937" r="228.334" style="fill:#000;fill-opacity:1;stroke:#000;stroke-width:27;stroke-linecap:round;stroke-linejoin:bevel;stroke-opacity:0;paint-order:stroke markers fill"/>
        <path d="M1419.909 2133.721h1431.258v61.047H1419.909z" style="fill:#000;fill-opacity:1;stroke:#000;stroke-width:108.953;stroke-linecap:round;stroke-linejoin:bevel;stroke-opacity:0;paint-order:stroke markers fill"/>
        <circle cx="2984.952" cy="2161.937" r="228.334" style="fill:#000;fill-opacity:1;stroke:#000;stroke-width:27;stroke-linecap:round;stroke-linejoin:bevel;stroke-opacity:0;paint-order:stroke markers fill"/>
        <path d="M551.909 2133.721h1431.258v61.047H551.909z" style="fill:#000;fill-opacity:1;stroke:#000;stroke-width:108.953;stroke-linecap:round;stroke-linejoin:bevel;stroke-opacity:0;paint-order:stroke markers fill"/>
        <circle cx="1686.369" cy="4014.979" r="228.334" style="fill:#000;fill-opacity:1;stroke:#000;stroke-width:27;stroke-linecap:round;stroke-linejoin:bevel;stroke-opacity:0;paint-order:stroke markers fill"/>
        <circle cx="834.952" cy="-4804.624" r="228.334" style="fill:#000;fill-opacity:1;stroke:#000;stroke-width:27;stroke-linecap:round;stroke-linejoin:bevel;stroke-opacity:0;paint-order:stroke markers fill" transform="scale(1 -1)"/>
        <path d="M977.909-4832.84h1431.258v61.047H977.909z" style="fill:#000;fill-opacity:1;stroke:#000;stroke-width:108.953;stroke-linecap:round;stroke-linejoin:bevel;stroke-opacity:0;paint-order:stroke markers fill" transform="scale(1 -1)"/>
        <circle cx="2542.952" cy="-4804.624" r="228.334" style="fill:#000;fill-opacity:1;stroke:#000;stroke-width:27;stroke-linecap:round;stroke-linejoin:bevel;stroke-opacity:0;paint-order:stroke markers fill" transform="scale(1 -1)"/>
        <circle cx="1274.369" cy="-4351.583" r="228.334" style="fill:#000;fill-opacity:1;stroke:#000;stroke-width:27;stroke-linecap:round;stroke-linejoin:bevel;stroke-opacity:0;paint-order:stroke markers fill" transform="scale(1 -1)"/>
        <path d="M1301.83-4387.225h694.254v55.592H1301.83z" style="fill:#000;fill-opacity:1;stroke:#000;stroke-width:72.4122;stroke-linecap:round;stroke-linejoin:bevel;stroke-opacity:0;paint-order:stroke markers fill" transform="scale(1 -1)"/>
        <circle cx="2104.369" cy="-4351.583" r="228.334" style="fill:#000;fill-opacity:1;stroke:#000;stroke-width:27;stroke-linecap:round;stroke-linejoin:bevel;stroke-opacity:0;paint-order:stroke markers fill" transform="scale(1 -1)"/>
        <circle cx="490.952" cy="-5332.624" r="228.334" style="fill:#000;fill-opacity:1;stroke:#000;stroke-width:27;stroke-linecap:round;stroke-linejoin:bevel;stroke-opacity:0;paint-order:stroke markers fill" transform="scale(1 -1)"/>
        <path d="M1339.909-5360.84h1431.258v61.047H1339.909z" style="fill:#000;fill-opacity:1;stroke:#000;stroke-width:108.953;stroke-linecap:round;stroke-linejoin:bevel;stroke-opacity:0;paint-order:stroke markers fill" transform="scale(1 -1)"/>
        <circle cx="2904.952" cy="-5332.624" r="228.334" style="fill:#000;fill-opacity:1;stroke:#000;stroke-width:27;stroke-linecap:round;stroke-linejoin:bevel;stroke-opacity:0;paint-order:stroke markers fill" transform="scale(1 -1)"/>
        <path d="M619.909-5360.84h1431.258v61.047H619.909z" style="fill:#000;fill-opacity:1;stroke:#000;stroke-width:108.953;stroke-linecap:round;stroke-linejoin:bevel;stroke-opacity:0;paint-order:stroke markers fill" transform="scale(1 -1)"/>
        <circle cx="422.952" cy="-5858.624" r="228.334" style="fill:#000;fill-opacity:1;stroke:#000;stroke-width:27;stroke-linecap:round;stroke-linejoin:bevel;stroke-opacity:0;paint-order:stroke markers fill" transform="scale(1 -1)"/>
        <path d="M1419.909-5886.84h1431.258v61.047H1419.909z" style="fill:#000;fill-opacity:1;stroke:#000;stroke-width:108.953;stroke-linecap:round;stroke-linejoin:bevel;stroke-opacity:0;paint-order:stroke markers fill" transform="scale(1 -1)"/>
        <circle cx="2984.952" cy="-5858.624" r="228.334" style="fill:#000;fill-opacity:1;stroke:#000;stroke-width:27;stroke-linecap:round;stroke-linejoin:bevel;stroke-opacity:0;paint-order:stroke markers fill" transform="scale(1 -1)"/>
        <path d="M551.909-5886.84h1431.258v61.047H551.909z" style="fill:#000;fill-opacity:1;stroke:#000;stroke-width:108.953;stroke-linecap:round;stroke-linejoin:bevel;stroke-opacity:0;paint-order:stroke markers fill" transform="scale(1 -1)"/>
        <circle cx="1686.369" cy="-4005.582" r="228.334" style="fill:#000;fill-opacity:1;stroke:#000;stroke-width:27;stroke-linecap:round;stroke-linejoin:bevel;stroke-opacity:0;paint-order:stroke markers fill" transform="scale(1 -1)"/>
        <circle cx="834.952" cy="-476.063" r="228.334" style="fill:#000;fill-opacity:1;stroke:#000;stroke-width:27;stroke-linecap:round;stroke-linejoin:bevel;stroke-opacity:0;paint-order:stroke markers fill"/>
        <path d="M977.909-504.279h1431.258v61.047H977.909z" style="fill:#000;fill-opacity:1;stroke:#000;stroke-width:108.953;stroke-linecap:round;stroke-linejoin:bevel;stroke-opacity:0;paint-order:stroke markers fill"/>
        <circle cx="2542.952" cy="-476.063" r="228.334" style="fill:#000;fill-opacity:1;stroke:#000;stroke-width:27;stroke-linecap:round;stroke-linejoin:bevel;stroke-opacity:0;paint-order:stroke markers fill"/>
        <circle cx="1274.369" cy="-23.021" r="228.334" style="fill:#000;fill-opacity:1;stroke:#000;stroke-width:27;stroke-linecap:round;stroke-linejoin:bevel;stroke-opacity:0;paint-order:stroke markers fill"/>
        <path d="M1301.83-58.664h694.254v55.592H1301.83z" style="fill:#000;fill-opacity:1;stroke:#000;stroke-width:72.4122;stroke-linecap:round;stroke-linejoin:bevel;stroke-opacity:0;paint-order:stroke markers fill"/>
        <circle cx="2104.369" cy="-23.021" r="228.334" style="fill:#000;fill-opacity:1;stroke:#000;stroke-width:27;stroke-linecap:round;stroke-linejoin:bevel;stroke-opacity:0;paint-order:stroke markers fill"/>
        <circle cx="490.952" cy="-1004.063" r="228.334" style="fill:#000;fill-opacity:1;stroke:#000;stroke-width:27;stroke-linecap:round;stroke-linejoin:bevel;stroke-opacity:0;paint-order:stroke markers fill"/>
        <path d="M1339.909-1032.279h1431.258v61.047H1339.909z" style="fill:#000;fill-opacity:1;stroke:#000;stroke-width:108.953;stroke-linecap:round;stroke-linejoin:bevel;stroke-opacity:0;paint-order:stroke markers fill"/>
        <circle cx="2904.952" cy="-1004.063" r="228.334" style="fill:#000;fill-opacity:1;stroke:#000;stroke-width:27;stroke-linecap:round;stroke-linejoin:bevel;stroke-opacity:0;paint-order:stroke markers fill"/>
        <path d="M619.909-1032.279h1431.258v61.047H619.909z" style="fill:#000;fill-opacity:1;stroke:#000;stroke-width:108.953;stroke-linecap:round;stroke-linejoin:bevel;stroke-opacity:0;paint-order:stroke markers fill"/>
        <circle cx="422.952" cy="-1530.063" r="228.334" style="fill:#000;fill-opacity:1;stroke:#000;stroke-width:27;stroke-linecap:round;stroke-linejoin:bevel;stroke-opacity:0;paint-order:stroke markers fill"/>
        <path d="M1419.909-1558.279h1431.258v61.047H1419.909z" style="fill:#000;fill-opacity:1;stroke:#000;stroke-width:108.953;stroke-linecap:round;stroke-linejoin:bevel;stroke-opacity:0;paint-order:stroke markers fill"/>
        <circle cx="2984.952" cy="-1530.063" r="228.334" style="fill:#000;fill-opacity:1;stroke:#000;stroke-width:27;stroke-linecap:round;stroke-linejoin:bevel;stroke-opacity:0;paint-order:stroke markers fill"/>
        <path d="M551.909-1558.279h1431.258v61.047H551.909z" style="fill:#000;fill-opacity:1;stroke:#000;stroke-width:108.953;stroke-linecap:round;stroke-linejoin:bevel;stroke-opacity:0;paint-order:stroke markers fill"/>
        <circle cx="1686.369" cy="322.979" r="228.334" style="fill:#000;fill-opacity:1;stroke:#000;stroke-width:27;stroke-linecap:round;stroke-linejoin:bevel;stroke-opacity:0;paint-order:stroke markers fill"/>
        <circle cx="834.952" cy="-1112.624" r="228.334" style="fill:#000;fill-opacity:1;stroke:#000;stroke-width:27;stroke-linecap:round;stroke-linejoin:bevel;stroke-opacity:0;paint-order:stroke markers fill" transform="scale(1 -1)"/>
        <path d="M977.909-1140.84h1431.258v61.047H977.909z" style="fill:#000;fill-opacity:1;stroke:#000;stroke-width:108.953;stroke-linecap:round;stroke-linejoin:bevel;stroke-opacity:0;paint-order:stroke markers fill" transform="scale(1 -1)"/>
        <circle cx="2542.952" cy="-1112.624" r="228.334" style="fill:#000;fill-opacity:1;stroke:#000;stroke-width:27;stroke-linecap:round;stroke-linejoin:bevel;stroke-opacity:0;paint-order:stroke markers fill" transform="scale(1 -1)"/>
        <circle cx="1274.369" cy="-659.583" r="228.334" style="fill:#000;fill-opacity:1;stroke:#000;stroke-width:27;stroke-linecap:round;stroke-linejoin:bevel;stroke-opacity:0;paint-order:stroke markers fill" transform="scale(1 -1)"/>
        <path d="M1301.83-695.225h694.254v55.592H1301.83z" style="fill:#000;fill-opacity:1;stroke:#000;stroke-width:72.4122;stroke-linecap:round;stroke-linejoin:bevel;stroke-opacity:0;paint-order:stroke markers fill" transform="scale(1 -1)"/>
        <circle cx="2104.369" cy="-659.583" r="228.334" style="fill:#000;fill-opacity:1;stroke:#000;stroke-width:27;stroke-linecap:round;stroke-linejoin:bevel;stroke-opacity:0;paint-order:stroke markers fill" transform="scale(1 -1)"/>
        <circle cx="490.952" cy="-1640.624" r="228.334" style="fill:#000;fill-opacity:1;stroke:#000;stroke-width:27;stroke-linecap:round;stroke-linejoin:bevel;stroke-opacity:0;paint-order:stroke markers fill" transform="scale(1 -1)"/>
        <path d="M1339.909-1668.84h1431.258v61.047H1339.909z" style="fill:#000;fill-opacity:1;stroke:#000;stroke-width:108.953;stroke-linecap:round;stroke-linejoin:bevel;stroke-opacity:0;paint-order:stroke markers fill" transform="scale(1 -1)"/>
        <circle cx="2904.952" cy="-1640.624" r="228.334" style="fill:#000;fill-opacity:1;stroke:#000;stroke-width:27;stroke-linecap:round;stroke-linejoin:bevel;stroke-opacity:0;paint-order:stroke markers fill" transform="scale(1 -1)"/>
        <path d="M619.909-1668.84h1431.258v61.047H619.909z" style="fill:#000;fill-opacity:1;stroke:#000;stroke-width:108.953;stroke-linecap:round;stroke-linejoin:bevel;stroke-opacity:0;paint-order:stroke markers fill" transform="scale(1 -1)"/>
        <circle cx="422.952" cy="-2166.624" r="228.334" style="fill:#000;fill-opacity:1;stroke:#000;stroke-width:27;stroke-linecap:round;stroke-linejoin:bevel;stroke-opacity:0;paint-order:stroke markers fill" transform="scale(1 -1)"/>
        <path d="M1419.909-2194.84h1431.258v61.047H1419.909z" style="fill:#000;fill-opacity:1;stroke:#000;stroke-width:108.953;stroke-linecap:round;stroke-linejoin:bevel;stroke-opacity:0;paint-order:stroke markers fill" transform="scale(1 -1)"/>
        <circle cx="2984.952" cy="-2166.624" r="228.334" style="fill:#000;fill-opacity:1;stroke:#000;stroke-width:27;stroke-linecap:round;stroke-linejoin:bevel;stroke-opacity:0;paint-order:stroke markers fill" transform="scale(1 -1)"/>
        <path d="M551.909-2194.84h1431.258v61.047H551.909z" style="fill:#000;fill-opacity:1;stroke:#000;stroke-width:108.953;stroke-linecap:round;stroke-linejoin:bevel;stroke-opacity:0;paint-order:stroke markers fill" transform="scale(1 -1)"/>
        <circle cx="1686.369" cy="-313.583" r="228.334" style="fill:#000;fill-opacity:1;stroke:#000;stroke-width:27;stroke-linecap:round;stroke-linejoin:bevel;stroke-opacity:0;paint-order:stroke markers fill" transform="scale(1 -1)"/>
    </g>
</svg>
