<svg xmlns="http://www.w3.org/2000/svg" width="20" height="20" version="1.2">
    <g font-weight="400" style="fill:none;fill-rule:evenodd;stroke:#000;stroke-width:1;stroke-linecap:square;stroke-linejoin:bevel">
        <g style="font-style:normal;font-weight:400;font-size:19.84250069px;font-family:icomoon;fill:red;fill-opacity:1;stroke:none">
            <path d="M2.285-21.125h21.43a2.2 2.2 0 0 1 1.612.673A2.2 2.2 0 0 1 26-18.84V2.59a2.2 2.2 0 0 1-.673 1.612 2.2 2.2 0 0 1-1.612.673H2.285a2.2 2.2 0 0 1-1.612-.673A2.2 2.2 0 0 1 0 2.59v-21.43a2.2 2.2 0 0 1 .673-1.612 2.2 2.2 0 0 1 1.612-.673" font-size="19.843" style="vector-effect:none;fill-rule:nonzero" transform="matrix(.6923 0 0 .6923 1 15.625)"/>
        </g>
        <g style="font-style:normal;font-weight:400;font-size:17.00779915px;font-family:icomoon;fill:#000;fill-opacity:1;stroke:none">
            <path d="M20.979-18.014a1.3 1.3 0 0 1 .954.393 1.3 1.3 0 0 1 .393.955V2.291a1.3 1.3 0 0 1-.393.955 1.3 1.3 0 0 1-.955.393H2.021a1.3 1.3 0 0 1-.954-.393 1.3 1.3 0 0 1-.393-.955v-18.957a1.3 1.3 0 0 1 .393-.955 1.3 1.3 0 0 1 .954-.393h18.957m0-.674H2.021c-.554 0-1.029.199-1.426.596A1.946 1.946 0 0 0 0-16.666V2.291c0 .554.198 1.03.595 1.426.397.397.872.595 1.426.595h18.957c.555 0 1.03-.198 1.427-.595.397-.397.595-.872.595-1.426v-18.957c0-.554-.198-1.03-.595-1.426a1.946 1.946 0 0 0-1.426-.596M13.521-1.863a13.44 13.44 0 0 0 1.168-1.438l.044-.067a6.112 6.112 0 0 0 1-2.1c.202-.771.176-1.254-.079-1.449l-.157-.09h-.157a.51.51 0 0 0-.303.236c-.083.127-.206.333-.371.618-.18.374-.367.718-.561 1.033a19.52 19.52 0 0 1-.607.92l.022-.044a49.683 49.683 0 0 0-.584.853 2.282 2.282 0 0 0-.472-.876l1.281-3.773h.068c.344 0 .625-.202.842-.606.217-.405.325-.914.325-1.528s-.108-1.123-.325-1.527c-.217-.404-.498-.607-.842-.607a.738.738 0 0 0-.416.146c-.142.098-.243.311-.303.64-.015.15-.03.311-.045.483a6.082 6.082 0 0 0-.023.528v.629c0 .18.008.36.023.54l.045.538v-.045l-1.46 4.313a.976.976 0 0 0-.191.056 3.181 3.181 0 0 0-.169.079l-.247-6.222c.27-.195.48-.442.63-.741.149-.3.224-.63.224-.988v-.158c0-.569-.127-1.048-.382-1.437-.255-.39-.561-.584-.92-.584-.36 0-.667.194-.922.584-.254.39-.382.868-.382 1.437a.222.222 0 0 0-.022.101v.101c0 .36.082.69.247.989.165.3.374.546.629.74h.022l.27 6.582c-.105-.09-.21-.183-.315-.28-.104-.098-.21-.192-.314-.282-.434-.404-.869-.707-1.303-.91-.434-.201-.83-.1-1.19.304a.576.576 0 0 0-.135.213.75.75 0 0 0-.045.259v.09c.03.254.21.535.54.842.329.307.853.7 1.571 1.179.195.135.379.262.55.382.173.12.334.247.484.382l-.023-.023H4.065V.202h14.87v-2.044l-5.413-.022" font-size="17.008" style="vector-effect:none;fill-rule:nonzero" transform="matrix(.6923 0 0 .6923 2.038 14.976)"/>
        </g>
        <g style="font-style:normal;font-weight:400;font-size:19.84250069px;font-family:icomoon;fill:#000;fill-opacity:1;stroke:none">
            <path d="M23.943-20.44c.373 0 .694.136.965.407.271.27.406.592.406.965V2.818c0 .373-.135.694-.406.965-.27.271-.592.406-.965.406H2.057c-.373 0-.694-.135-.965-.406a1.318 1.318 0 0 1-.406-.965v-21.886c0-.373.135-.694.406-.965.27-.271.592-.407.965-.407h21.886m0-.685H2.057c-.576 0-1.063.199-1.46.597A1.986 1.986 0 0 0 0-19.068V2.818c0 .576.199 1.063.597 1.46.397.398.884.597 1.46.597h21.886c.576 0 1.063-.199 1.46-.597.398-.397.597-.884.597-1.46v-21.886c0-.576-.199-1.063-.597-1.46a1.986 1.986 0 0 0-1.46-.597" font-size="19.843" style="vector-effect:none;fill-rule:nonzero" transform="matrix(.6923 0 0 .6923 1 15.625)"/>
        </g>
    </g>
</svg>
