<svg xmlns="http://www.w3.org/2000/svg" width="20" height="20" version="1.2">
    <g font-weight="400" style="fill:none;fill-rule:evenodd;stroke:#000;stroke-width:1;stroke-linecap:square;stroke-linejoin:bevel">
        <g style="font-style:normal;font-weight:400;font-size:19.84250069px;font-family:icomoon;fill:#fff;fill-opacity:1;stroke:none">
            <path d="M2.285-21.125h21.43a2.2 2.2 0 0 1 1.612.673A2.2 2.2 0 0 1 26-18.84V2.59a2.2 2.2 0 0 1-.673 1.612 2.2 2.2 0 0 1-1.612.673H2.285a2.2 2.2 0 0 1-1.612-.673A2.2 2.2 0 0 1 0 2.59v-21.43a2.2 2.2 0 0 1 .673-1.612 2.2 2.2 0 0 1 1.612-.673" font-size="19.843" style="vector-effect:none;fill-rule:nonzero" transform="matrix(.6923 0 0 .6923 1 15.625)"/>
        </g>
        <g style="font-style:normal;font-weight:400;font-size:17.00779915px;font-family:icomoon;fill:#000;fill-opacity:1;stroke:none">
            <path d="M20.979-18.014a1.3 1.3 0 0 1 .954.393 1.3 1.3 0 0 1 .393.955V2.291a1.3 1.3 0 0 1-.393.955 1.3 1.3 0 0 1-.955.393H2.021a1.3 1.3 0 0 1-.954-.393 1.3 1.3 0 0 1-.393-.955v-18.957a1.3 1.3 0 0 1 .393-.955 1.3 1.3 0 0 1 .954-.393h18.957m0-.674H2.021c-.554 0-1.029.199-1.426.596A1.946 1.946 0 0 0 0-16.666V2.291c0 .554.198 1.03.595 1.426.397.397.872.595 1.426.595h18.957c.555 0 1.03-.198 1.427-.595.397-.397.595-.872.595-1.426v-18.957c0-.554-.198-1.03-.595-1.426a1.946 1.946 0 0 0-1.426-.596M17.047-5.255c0-.943.03-1.748.09-2.414.06-.667.03-1.314-.09-1.943a2.27 2.27 0 0 0-.079-.416 5.363 5.363 0 0 0-.123-.37v.022V-10.421a.303.303 0 0 0-.056-.08l-.08-.078c-.403-.674-1.103-1.236-2.1-1.685-.995-.449-2.13-.674-3.402-.674h-.067c-.33 0-.652.012-.966.034a50.8 50.8 0 0 0-.966.079h.09a4.51 4.51 0 0 1-.135-.663 5.704 5.704 0 0 1-.045-.73v-.09c0-.329-.13-.647-.393-.954-.262-.307-.895-.408-1.898-.303-.629.044-1.164.09-1.606.134-.442.045-.662.292-.662.741 0 .33.205.678.617 1.045.412.367.91.573 1.494.618.03.09.056.183.079.28a1.248 1.248 0 0 1 0 .584 3.08 3.08 0 0 1-.08.281 2.766 2.766 0 0 0-.92 2.067v.202c.015.404.109.786.28 1.145.173.36.394.674.663.944A4.106 4.106 0 0 1 5.01-6.38h-.045c-.464.105-.614.382-.45.831.165.45.585.674 1.258.674.809 0 1.386-.082 1.73-.247.344-.165.591-.344.741-.54.42.016.82.064 1.202.147.382.082.752.19 1.112.326h-.045l-1.146.381c-.36.12-.539.352-.539.697 0 .569.39.778 1.168.629.779-.15 1.385-.06 1.82.27.449.329 1.021.448 1.718.358.696-.09 1.149-.27 1.359-.539.314.03.629.101.943.214.314.112.524.28.629.505.18.434.157.973-.067 1.617-.225.644-1.146 1.108-2.763 1.393-.54.105-1.134.198-1.786.28-.651.083-1.314.154-1.988.214h-.112c.599.135 1.235.236 1.91.303.673.068 1.362.109 2.066.124 1.033 0 2.085-.247 3.155-.741 1.071-.495 1.629-1.318 1.674-2.471.045-1.138-.195-1.797-.719-1.977-.524-.18-.786-.621-.786-1.325" font-size="17.008" style="vector-effect:none;fill-rule:nonzero" transform="matrix(.6923 0 0 .6923 2.038 14.976)"/>
        </g>
        <g style="font-style:normal;font-weight:400;font-size:19.84250069px;font-family:icomoon;fill:#000;fill-opacity:1;stroke:none">
            <path d="M23.943-20.44c.373 0 .694.136.965.407.271.27.406.592.406.965V2.818c0 .373-.135.694-.406.965-.27.271-.592.406-.965.406H2.057c-.373 0-.694-.135-.965-.406a1.318 1.318 0 0 1-.406-.965v-21.886c0-.373.135-.694.406-.965.27-.271.592-.407.965-.407h21.886m0-.685H2.057c-.576 0-1.063.199-1.46.597A1.986 1.986 0 0 0 0-19.068V2.818c0 .576.199 1.063.597 1.46.397.398.884.597 1.46.597h21.886c.576 0 1.063-.199 1.46-.597.398-.397.597-.884.597-1.46v-21.886c0-.576-.199-1.063-.597-1.46a1.986 1.986 0 0 0-1.46-.597" font-size="19.843" style="vector-effect:none;fill-rule:nonzero" transform="matrix(.6923 0 0 .6923 1 15.625)"/>
        </g>
    </g>
</svg>
