<svg xmlns="http://www.w3.org/2000/svg" width="20" height="20" version="1.2">
    <g font-weight="400" style="fill:none;fill-rule:evenodd;stroke:#000;stroke-width:1;stroke-linecap:square;stroke-linejoin:bevel">
        <g style="font-style:normal;font-weight:400;font-size:17.00779915px;font-family:icomoon;fill:red;fill-opacity:1;stroke:none">
            <path d="M2.021-18.688h18.957c.555 0 1.03.199 1.427.596.397.396.595.872.595 1.426V2.291c0 .554-.198 1.03-.595 1.426a1.946 1.946 0 0 1-1.427.595H2.021c-.554 0-1.029-.198-1.426-.595A1.946 1.946 0 0 1 0 2.291v-18.957c0-.554.198-1.03.595-1.426a1.946 1.946 0 0 1 1.426-.596" font-size="17.008" style="vector-effect:none;fill-rule:nonzero" transform="matrix(.65217 0 0 .65217 2.5 14.687)"/>
        </g>
        <g style="font-style:normal;font-weight:400;font-size:17.00779915px;font-family:icomoon;fill:#000;fill-opacity:1;stroke:none">
            <path d="M20.979-18.014a1.3 1.3 0 0 1 .954.393 1.3 1.3 0 0 1 .393.955V2.291a1.3 1.3 0 0 1-.393.955 1.3 1.3 0 0 1-.955.393H2.021a1.3 1.3 0 0 1-.954-.393 1.3 1.3 0 0 1-.393-.955v-18.957a1.3 1.3 0 0 1 .393-.955 1.3 1.3 0 0 1 .954-.393h18.957m0-.674H2.021c-.554 0-1.029.199-1.426.596A1.946 1.946 0 0 0 0-16.666V2.291c0 .554.198 1.03.595 1.426.397.397.872.595 1.426.595h18.957c.555 0 1.03-.198 1.427-.595.397-.397.595-.872.595-1.426v-18.957c0-.554-.198-1.03-.595-1.426a1.946 1.946 0 0 0-1.426-.596m-1.46 10.153c-.15-.958-.307-1.4-.472-1.325-.165.075-.09-.203.225-.831.314-.614.4-1.011.258-1.19-.143-.18-.333-.083-.573.291-.15.24-.43.4-.842.483a5.167 5.167 0 0 1-1.337.079 9.175 9.175 0 0 0-2.448-1.236 8.89 8.89 0 0 0-2.83-.449c-.659 0-1.295.09-1.91.27a9.9 9.9 0 0 0-1.706.64c-.54.262-1.056.543-1.55.842-.48.315-.92.607-1.325.876-.24.15-.513.225-.82.225-.307 0-.438-.15-.393-.45.045-.284.15-.497.314-.64.165-.142.36-.318.584-.527l-1.1.224c-.734.15-1.1.674-1.1 1.572 0 .375.153.678.46.91.307.232.632.416.977.55 0 .06.04.566.123 1.516.083.951.528 1.644 1.337 2.078.045.03.108.116.19.258.083.143.147.221.191.236-.03.434.03.914.18 1.438.15.524.404.786.764.786H8.49v-.023a.502.502 0 0 0-.146-.37.568.568 0 0 0-.348-.169c-.165-.03-.247-.243-.247-.64s.112-.715.337-.954a.82.82 0 0 1 .472-.158h.056c.022 0 .04.008.056.023a7.735 7.735 0 0 1 1.583.213c.532.127 1.075.191 1.629.191h.022c.27 0 .54-.011.809-.034a8.66 8.66 0 0 0 .786-.1l-.045.022c0 .33.049.745.146 1.246.097.502.288.753.573.753h2.201l.011-.27c.008-.18-.146-.277-.46-.292-.24 0-.382-.28-.427-.842-.045-.562.12-1.022.494-1.381a2.878 2.878 0 0 1 .966-.562l.023-.022.325-.045a2.81 2.81 0 0 1 1.46.202c.352.15.663.352.932.606.195.21.554-.022 1.078-.696l.786-1.01a2.776 2.776 0 0 1-1.38-.843 2.557 2.557 0 0 1-.641-1.471h-.022" font-size="17.008" style="vector-effect:none;fill-rule:nonzero" transform="matrix(.65217 0 0 .65217 2.5 14.687)"/>
        </g>
    </g>
</svg>
