<svg xmlns="http://www.w3.org/2000/svg" width="20" height="20" version="1.2">
    <g font-weight="400" style="fill:none;fill-rule:evenodd;stroke:#000;stroke-width:1;stroke-linecap:square;stroke-linejoin:bevel">
        <g style="font-style:normal;font-weight:400;font-size:22.67709923px;font-family:icomoon;fill:#fff;fill-opacity:1;stroke:none">
            <path d="M2.637-24.375h24.726c.723 0 1.343.259 1.86.776.518.518.777 1.138.777 1.86V2.989c0 .723-.259 1.343-.776 1.86a2.538 2.538 0 0 1-1.86.777H2.636a2.538 2.538 0 0 1-1.86-.776A2.538 2.538 0 0 1 0 2.989v-24.727c0-.723.259-1.343.776-1.86a2.538 2.538 0 0 1 1.86-.777" font-size="22.677" style="vector-effect:none;fill-rule:nonzero" transform="matrix(.66667 0 0 .66667 0 16.25)"/>
        </g>
        <g style="font-style:normal;font-weight:400;font-size:17.00779915px;font-family:icomoon;fill:#000;fill-opacity:1;stroke:none">
            <path d="M20.979-18.014a1.3 1.3 0 0 1 .954.393 1.3 1.3 0 0 1 .393.955V2.291a1.3 1.3 0 0 1-.393.955 1.3 1.3 0 0 1-.955.393H2.021a1.3 1.3 0 0 1-.954-.393 1.3 1.3 0 0 1-.393-.955v-18.957a1.3 1.3 0 0 1 .393-.955 1.3 1.3 0 0 1 .954-.393h18.957m0-.674H2.021c-.554 0-1.029.199-1.426.596A1.946 1.946 0 0 0 0-16.666V2.291c0 .554.198 1.03.595 1.426.397.397.872.595 1.426.595h18.957c.555 0 1.03-.198 1.427-.595.397-.397.595-.872.595-1.426v-18.957c0-.554-.198-1.03-.595-1.426a1.946 1.946 0 0 0-1.426-.596M20.08-4.94c.105-.345.184-.715.236-1.112.052-.397.079-.798.079-1.202 0-.823-.113-1.613-.337-2.37a9.436 9.436 0 0 0-.921-2.122l.022.045a8.536 8.536 0 0 0-2.268-2.583 8.485 8.485 0 0 0-3.1-1.483h-.045a8.506 8.506 0 0 0-2.201-.292c-.839 0-1.643.113-2.415.337a8.77 8.77 0 0 0-2.145.944l.023-.023a9.055 9.055 0 0 0-2.583 2.246A8.382 8.382 0 0 0 2.897-9.5v.045c-.09.344-.16.704-.213 1.078a8.42 8.42 0 0 0-.079 1.168c0 .824.109 1.613.326 2.37.217.756.528 1.456.932 2.1l-.022-.023A9.2 9.2 0 0 0 6.087-.168a8.576 8.576 0 0 0 3.055 1.56h.067c.36.105.737.188 1.134.248a8.345 8.345 0 0 0 3.538-.236 8.7 8.7 0 0 0 2.089-.91h-.045a8.37 8.37 0 0 0 2.628-2.257 8.387 8.387 0 0 0 1.505-3.133l.022-.045m-.719-2.291-5.12.18c-.03.179-.076.351-.135.516-.06.165-.135.322-.225.472l.022-.023c0 .03-.015.056-.045.079a.666.666 0 0 0-.067.056c.06-.09.116-.195.168-.315.053-.12.101-.24.146-.359v-.022a2.369 2.369 0 0 0-.27-1.91l.023.023c-.134-.24-.3-.446-.494-.618a2.077 2.077 0 0 0-.651-.393v-.022l2.695-4.47a7.925 7.925 0 0 1 1.617 1.224c.48.472.884 1 1.213 1.584l.023.022a7.715 7.715 0 0 1 1.1 3.953v.023M10.4-6.56a1.153 1.153 0 0 1-.168-.348 1.384 1.384 0 0 1-.056-.393c0-.075.007-.142.022-.202l.045-.18c.045-.194.127-.366.247-.516.12-.15.255-.277.405-.382h.022c.105-.06.22-.109.348-.146.127-.038.266-.056.416-.056a1.734 1.734 0 0 1 .381.045h-.022c.195.045.37.127.528.247.157.12.28.262.37.427.075.104.128.22.158.348.03.127.045.258.045.393 0 .27-.068.516-.203.741a1.621 1.621 0 0 1-.516.539h-.023c-.104.06-.217.109-.337.146-.12.037-.247.056-.381.056-.075 0-.146-.004-.214-.011a1.444 1.444 0 0 1-.19-.034 1.728 1.728 0 0 1-.877-.651v-.023m1.82-3.189a.803.803 0 0 1-.169-.023 7.5 7.5 0 0 1 .191.045h-.022v-.022m-4.672-4.2.404-.225 2.673 4.56a2.433 2.433 0 0 1 .966-.202h.022c.015-.015.03-.023.045-.023h.101-.078c-.24 0-.465.034-.674.101-.21.068-.412.154-.607.258h.023a2.563 2.563 0 0 0-.73.63 2.412 2.412 0 0 0-.438.875 2.357 2.357 0 0 0-.09.63c0 .06.004.115.011.168.008.052.012.108.012.168v-.022l-5.57-.157c.014-.36.044-.716.089-1.067a7.48 7.48 0 0 1 .202-1.022l-.022.067a7.66 7.66 0 0 1 1.347-2.774 7.134 7.134 0 0 1 2.269-1.943l.045-.022M9.479.382a6.955 6.955 0 0 1-.966-.326c-.3-.127-.592-.266-.876-.415l.045.022 2.605-4.829a2.164 2.164 0 0 1-.247-.19 1.804 1.804 0 0 1-.202-.214v-.023a2.317 2.317 0 0 0 1.168.741l.022.023c.105.015.214.034.326.056.112.023.228.034.348.034.225 0 .442-.03.651-.09.21-.06.405-.15.585-.27l.09-.067 2.717 4.604a.81.81 0 0 0-.157.102 1.58 1.58 0 0 1-.135.1 8.07 8.07 0 0 1-1.797.787 7.026 7.026 0 0 1-2.044.292 6.89 6.89 0 0 1-1.111-.09A9.155 9.155 0 0 1 9.41.382h.068" font-size="17.008" style="vector-effect:none;fill-rule:nonzero" transform="matrix(.66667 0 0 .66667 2.333 14.792)"/>
        </g>
        <g style="font-style:normal;font-weight:400;font-size:22.67709923px;font-family:icomoon;fill:#000;fill-opacity:1;stroke:none">
            <path d="M26.426-22.236c.39 0 .727.141 1.01.425.284.283.425.62.425 1.01V2.051c0 .39-.141.727-.425 1.01a1.38 1.38 0 0 1-1.01.425H3.574a1.38 1.38 0 0 1-1.01-.424 1.38 1.38 0 0 1-.425-1.011v-22.852c0-.39.141-.727.424-1.01a1.38 1.38 0 0 1 1.011-.425h22.852m0-.703H3.574c-.586 0-1.089.21-1.509.63-.42.42-.63.922-.63 1.508V2.051c0 .586.21 1.089.63 1.509.42.42.923.63 1.51.63h22.85c.587 0 1.09-.21 1.51-.63.42-.42.63-.923.63-1.51V-20.8c0-.587-.21-1.09-.63-1.51-.42-.42-.923-.63-1.51-.63m1.436-.732c.391 0 .728.142 1.011.425.283.283.425.62.425 1.01V3.487c0 .39-.142.728-.425 1.011a1.38 1.38 0 0 1-1.01.425H2.138a1.38 1.38 0 0 1-1.011-.425 1.38 1.38 0 0 1-.425-1.01v-25.723c0-.391.142-.728.425-1.011a1.38 1.38 0 0 1 1.01-.425h25.723m0-.703H2.14c-.586 0-1.09.21-1.51.63-.419.42-.629.923-.629 1.509V3.486c0 .586.21 1.09.63 1.51.42.419.923.629 1.509.629H27.86c.586 0 1.09-.21 1.51-.63.419-.42.629-.923.629-1.509v-25.722c0-.586-.21-1.09-.63-1.51-.42-.419-.923-.629-1.509-.629" font-size="22.677" style="vector-effect:none;fill-rule:nonzero" transform="matrix(.66667 0 0 .66667 0 16.25)"/>
        </g>
    </g>
</svg>
