<svg xmlns="http://www.w3.org/2000/svg" width="20" height="20" version="1.2">
    <g font-weight="400" style="fill:none;fill-rule:evenodd;stroke:#000;stroke-width:1;stroke-linecap:square;stroke-linejoin:bevel">
        <g style="font-style:normal;font-weight:400;font-size:17.00779915px;font-family:icomoon;fill:#ff0;fill-opacity:1;stroke:none">
            <path d="M2.021-18.688h18.957c.555 0 1.03.199 1.427.596.397.396.595.872.595 1.426V2.291c0 .554-.198 1.03-.595 1.426a1.946 1.946 0 0 1-1.427.595H2.021c-.554 0-1.029-.198-1.426-.595A1.946 1.946 0 0 1 0 2.291v-18.957c0-.554.198-1.03.595-1.426a1.946 1.946 0 0 1 1.426-.596" font-size="17.008" style="vector-effect:none;fill-rule:nonzero" transform="matrix(.65217 0 0 .65217 2.5 14.687)"/>
        </g>
        <g style="font-style:normal;font-weight:400;font-size:17.00779915px;font-family:icomoon;fill:#000;fill-opacity:1;stroke:none">
            <path d="M20.979-18.014a1.3 1.3 0 0 1 .954.393 1.3 1.3 0 0 1 .393.955V2.291a1.3 1.3 0 0 1-.393.955 1.3 1.3 0 0 1-.955.393H2.021a1.3 1.3 0 0 1-.954-.393 1.3 1.3 0 0 1-.393-.955v-18.957a1.3 1.3 0 0 1 .393-.955 1.3 1.3 0 0 1 .954-.393h18.957m0-.674H2.021c-.554 0-1.029.199-1.426.596A1.946 1.946 0 0 0 0-16.666V2.291c0 .554.198 1.03.595 1.426.397.397.872.595 1.426.595h18.957c.555 0 1.03-.198 1.427-.595.397-.397.595-.872.595-1.426v-18.957c0-.554-.198-1.03-.595-1.426a1.946 1.946 0 0 0-1.426-.596m-8.85 11.343a.399.399 0 0 0 .034-.112.647.647 0 0 0-.112-.505.66.66 0 0 0-.304-.236l-.067-.034a.156.156 0 0 0-.068-.011v-.36a2.25 2.25 0 0 0 1.651-.685 2.25 2.25 0 0 0 .685-1.65 2.27 2.27 0 0 0-.572-1.55 2.329 2.329 0 0 0-1.427-.786v-.113c.824.12 1.516.498 2.078 1.135a3.271 3.271 0 0 1 .83 2.459 2.32 2.32 0 0 1-.033.225v-.023.09a3.446 3.446 0 0 1 1.573 1.235c.404.57.606 1.213.606 1.932 0 .21-.019.416-.056.618a2.822 2.822 0 0 1-.169.572v-.022l-.045.112-.09-.112a3.76 3.76 0 0 0 .08-.337c.022-.12.033-.247.033-.382 0-.659-.232-1.216-.696-1.673a2.287 2.287 0 0 0-1.662-.685c-.405 0-.78.097-1.124.292a2.4 2.4 0 0 0-.83.764l-.315-.158m.764-1.999a2.234 2.234 0 0 0-1.393-.472 2.234 2.234 0 0 0-1.393.472 1.152 1.152 0 0 1-.27-.27 3.702 3.702 0 0 1-.201-.314l-.023-.022c.255-.21.543-.37.865-.483a3.08 3.08 0 0 1 1.022-.169c.36 0 .7.057 1.022.169.322.112.61.273.865.483-.075.12-.15.232-.225.337a1.152 1.152 0 0 1-.27.27m-1.909 2.2c.06.06.135.113.225.158s.187.067.292.067c.075 0 .15-.011.225-.034a.478.478 0 0 0 .202-.123c.015 0 .03-.008.045-.023l.045-.045.292.158a3.005 3.005 0 0 0-.18.516c-.045.18-.067.367-.067.562 0 .644.228 1.198.685 1.662a2.258 2.258 0 0 0 1.673.696 2.2 2.2 0 0 0 .977-.224 2.71 2.71 0 0 0 .797-.584l.113.067a3.367 3.367 0 0 1-2.673 1.303 3.34 3.34 0 0 1-1.123-.191 3.352 3.352 0 0 1-.966-.528l.022.022-.067-.067a3.327 3.327 0 0 1-2.134.764c-.524 0-1.01-.113-1.46-.337a3.552 3.552 0 0 1-1.145-.899l-.034-.033-.034-.034.113-.067c.21.24.468.434.775.584.307.15.64.224 1 .224.643 0 1.197-.232 1.661-.696a2.269 2.269 0 0 0 .696-1.662 2.175 2.175 0 0 0-.27-1.078l.315-.158m1.348 1.64a2.21 2.21 0 0 0 1.022-.809c.262-.374.393-.8.393-1.28v-.168a.695.695 0 0 0-.022-.169v.023a1.24 1.24 0 0 1 .325-.09c.113-.015.229-.023.349-.023h.112c0 .06.004.128.011.203a2.934 2.934 0 0 1-.517 1.954c-.351.509-.804.868-1.358 1.078l-.023.022a3.553 3.553 0 0 1-.168-.337 2.068 2.068 0 0 1-.124-.381l-.022-.023h.022m-.943-2.74a.66.66 0 0 0-.405.236.67.67 0 0 0-.157.438v.112-.022c0 .03.004.056.011.078a.184.184 0 0 1 .012.056l-.292.18a2.233 2.233 0 0 0-.831-.775 2.36 2.36 0 0 0-1.146-.28 2.25 2.25 0 0 0-1.65.684 2.25 2.25 0 0 0-.686 1.651c0 .135.008.266.023.393.015.128.045.251.09.37v-.022l-.113.068a4.052 4.052 0 0 1-.18-.607 3.1 3.1 0 0 1-.067-.651c0-.704.195-1.336.584-1.898.39-.561.891-.97 1.505-1.224h.022l.113-.045a2.195 2.195 0 0 1-.034-.247 3.527 3.527 0 0 1-.011-.292c0-.824.266-1.546.797-2.167a3.37 3.37 0 0 1 1.988-1.157H11.073v.09a2.266 2.266 0 0 0-1.347.808c-.36.434-.54.936-.54 1.505 0 .629.214 1.168.64 1.617.427.45.955.689 1.584.719l-.022.382m-2.112.337c0 .045-.003.093-.01.146a2.178 2.178 0 0 0 .382 1.449 2.21 2.21 0 0 0 1.02.808h.023a1.865 1.865 0 0 1-.314.741h.022a3.04 3.04 0 0 1-1.392-1.1 2.891 2.891 0 0 1-.494-2.179v.022h.067c.135 0 .258.008.37.023.113.015.229.045.349.09h-.023M11.5 3.347.966-7.187 11.5-17.723 22.034-7.187 11.5 3.347M2.897-7.187 11.5 1.415l8.602-8.602L11.5-15.79 2.897-7.188" font-size="17.008" style="vector-effect:none;fill-rule:nonzero" transform="matrix(.65217 0 0 .65217 2.5 14.687)"/>
        </g>
    </g>
</svg>
