<svg xmlns="http://www.w3.org/2000/svg" width="20" height="20" version="1.2">
    <g font-weight="400" style="fill:none;fill-rule:evenodd;stroke:#000;stroke-width:1;stroke-linecap:square;stroke-linejoin:bevel">
        <g style="font-style:normal;font-weight:400;font-size:19.84250069px;font-family:icomoon;fill:red;fill-opacity:1;stroke:none">
            <path d="M2.285-21.125h21.43a2.2 2.2 0 0 1 1.612.673A2.2 2.2 0 0 1 26-18.84V2.59a2.2 2.2 0 0 1-.673 1.612 2.2 2.2 0 0 1-1.612.673H2.285a2.2 2.2 0 0 1-1.612-.673A2.2 2.2 0 0 1 0 2.59v-21.43a2.2 2.2 0 0 1 .673-1.612 2.2 2.2 0 0 1 1.612-.673" font-size="19.843" style="vector-effect:none;fill-rule:nonzero" transform="matrix(.6923 0 0 .6923 1 15.625)"/>
        </g>
        <g style="font-style:normal;font-weight:400;font-size:17.00779915px;font-family:icomoon;fill:#000;fill-opacity:1;stroke:none">
            <path d="M20.979-18.014a1.3 1.3 0 0 1 .954.393 1.3 1.3 0 0 1 .393.955V2.291a1.3 1.3 0 0 1-.393.955 1.3 1.3 0 0 1-.955.393H2.021a1.3 1.3 0 0 1-.954-.393 1.3 1.3 0 0 1-.393-.955v-18.957a1.3 1.3 0 0 1 .393-.955 1.3 1.3 0 0 1 .954-.393h18.957m0-.674H2.021c-.554 0-1.029.199-1.426.596A1.946 1.946 0 0 0 0-16.666V2.291c0 .554.198 1.03.595 1.426.397.397.872.595 1.426.595h18.957c.555 0 1.03-.198 1.427-.595.397-.397.595-.872.595-1.426v-18.957c0-.554-.198-1.03-.595-1.426a1.946 1.946 0 0 0-1.426-.596M11.5-15.296c-1.123 0-2.179.21-3.167.629a8.07 8.07 0 0 0-2.583 1.73 8.069 8.069 0 0 0-1.73 2.582 8.024 8.024 0 0 0-.628 3.168c0 1.123.21 2.178.629 3.166A8.07 8.07 0 0 0 5.75-1.438 8.07 8.07 0 0 0 8.333.292c.988.42 2.044.629 3.167.629 1.123 0 2.179-.21 3.167-.629a8.069 8.069 0 0 0 2.583-1.73 8.07 8.07 0 0 0 1.73-2.583c.419-.988.628-2.043.628-3.167 0-1.123-.21-2.178-.628-3.167a8.07 8.07 0 0 0-1.73-2.582 8.07 8.07 0 0 0-2.583-1.73 8.024 8.024 0 0 0-3.167-.629m0 14.87a6.742 6.742 0 0 1-2.628-.517 6.945 6.945 0 0 1-2.156-1.46 6.945 6.945 0 0 1-1.46-2.157 6.742 6.742 0 0 1-.517-2.628c0-.928.172-1.804.517-2.627a6.946 6.946 0 0 1 1.46-2.157 6.945 6.945 0 0 1 2.156-1.46 6.742 6.742 0 0 1 2.628-.516c.928 0 1.804.172 2.628.516.824.36 1.542.846 2.156 1.46a6.945 6.945 0 0 1 1.46 2.157c.344.823.517 1.7.517 2.628 0 .928-.172 1.804-.517 2.627a6.945 6.945 0 0 1-1.46 2.157 6.946 6.946 0 0 1-2.156 1.46c-.824.344-1.7.516-2.628.516m3.055-6.76c0 .838-.3 1.557-.899 2.156a2.941 2.941 0 0 1-2.156.898 2.94 2.94 0 0 1-2.156-.898 2.94 2.94 0 0 1-.899-2.157c0-.838.3-1.557.899-2.156a2.94 2.94 0 0 1 2.156-.898c.839 0 1.557.3 2.156.898a2.94 2.94 0 0 1 .899 2.156" font-size="17.008" style="vector-effect:none;fill-rule:nonzero" transform="matrix(.6923 0 0 .6923 2.038 14.976)"/>
        </g>
        <g style="font-style:normal;font-weight:400;font-size:19.84250069px;font-family:icomoon;fill:#000;fill-opacity:1;stroke:none">
            <path d="M23.943-20.44c.373 0 .694.136.965.407.271.27.406.592.406.965V2.818c0 .373-.135.694-.406.965-.27.271-.592.406-.965.406H2.057c-.373 0-.694-.135-.965-.406a1.318 1.318 0 0 1-.406-.965v-21.886c0-.373.135-.694.406-.965.27-.271.592-.407.965-.407h21.886m0-.685H2.057c-.576 0-1.063.199-1.46.597A1.986 1.986 0 0 0 0-19.068V2.818c0 .576.199 1.063.597 1.46.397.398.884.597 1.46.597h21.886c.576 0 1.063-.199 1.46-.597.398-.397.597-.884.597-1.46v-21.886c0-.576-.199-1.063-.597-1.46a1.986 1.986 0 0 0-1.46-.597" font-size="19.843" style="vector-effect:none;fill-rule:nonzero" transform="matrix(.6923 0 0 .6923 1 15.625)"/>
        </g>
    </g>
</svg>
