<svg xmlns="http://www.w3.org/2000/svg" width="20" height="20" version="1.2">
    <g font-weight="400" style="fill:none;fill-rule:evenodd;stroke:#000;stroke-width:1;stroke-linecap:square;stroke-linejoin:bevel">
        <g style="font-style:normal;font-weight:400;font-size:22.67709923px;font-family:icomoon;fill:red;fill-opacity:1;stroke:none">
            <path d="M2.637-24.375h24.726c.723 0 1.343.259 1.86.776.518.518.777 1.138.777 1.86V2.989c0 .723-.259 1.343-.776 1.86a2.538 2.538 0 0 1-1.86.777H2.636a2.538 2.538 0 0 1-1.86-.776A2.538 2.538 0 0 1 0 2.989v-24.727c0-.723.259-1.343.776-1.86a2.538 2.538 0 0 1 1.86-.777" font-size="22.677" style="vector-effect:none;fill-rule:nonzero" transform="matrix(.66667 0 0 .66667 0 16.25)"/>
        </g>
        <g style="font-style:normal;font-weight:400;font-size:17.00779915px;font-family:icomoon;fill:#000;fill-opacity:1;stroke:none">
            <path d="M20.979-18.014a1.3 1.3 0 0 1 .954.393 1.3 1.3 0 0 1 .393.955V2.291a1.3 1.3 0 0 1-.393.955 1.3 1.3 0 0 1-.955.393H2.021a1.3 1.3 0 0 1-.954-.393 1.3 1.3 0 0 1-.393-.955v-18.957a1.3 1.3 0 0 1 .393-.955 1.3 1.3 0 0 1 .954-.393h18.957m0-.674H2.021c-.554 0-1.029.199-1.426.596A1.946 1.946 0 0 0 0-16.666V2.291c0 .554.198 1.03.595 1.426.397.397.872.595 1.426.595h18.957c.555 0 1.03-.198 1.427-.595.397-.397.595-.872.595-1.426v-18.957c0-.554-.198-1.03-.595-1.426a1.946 1.946 0 0 0-1.426-.596m-.292 11.613a.647.647 0 0 1-.472-.202.672.672 0 0 1-.202-.494c0-.165-.146-.337-.438-.517-.292-.18-.685-.27-1.18-.27-.494 0-.887.09-1.179.27-.292.18-.438.352-.438.517 0 .194-.067.359-.202.494a.672.672 0 0 1-.494.202.646.646 0 0 1-.472-.202.672.672 0 0 1-.202-.494c0-.165-.146-.337-.438-.517-.292-.18-.685-.27-1.179-.27s-.887.09-1.18.27c-.291.18-.437.352-.437.517 0 .194-.068.359-.202.494a.647.647 0 0 1-.472.202.647.647 0 0 1-.472-.202.672.672 0 0 1-.202-.494c0-.165-.146-.337-.438-.517-.292-.18-.685-.27-1.179-.27-.51 0-.906.09-1.19.27-.285.18-.427.352-.427.517 0 .194-.068.359-.202.494a.646.646 0 0 1-.472.202.672.672 0 0 1-.494-.202.672.672 0 0 1-.202-.494c0-.165-.146-.337-.438-.517-.292-.18-.685-.27-1.18-.27-.494 0-.887.09-1.179.27-.292.18-.438.352-.438.517 0 .194-.067.359-.202.494a.646.646 0 0 1-.472.202.636.636 0 0 1-.482-.202.693.693 0 0 1-.191-.494c0-.6.288-1.109.864-1.528.577-.42 1.277-.629 2.1-.629h.113c.42 0 .816.071 1.19.214.375.142.711.333 1.011.572.284-.24.61-.426.977-.561.367-.135.76-.202 1.18-.202h.055a.18.18 0 0 1 .079.022.076.076 0 0 1 .056-.022h.079c.404 0 .79.067 1.157.202.366.135.7.322.999.561.3-.24.633-.426 1-.561a3.328 3.328 0 0 1 1.156-.202h.079c.022 0 .049.007.079.022h-.023a.076.076 0 0 1 .056-.022h.056c.42 0 .816.07 1.19.213.375.142.712.333 1.012.573h-.023c.3-.24.636-.43 1.01-.573a3.322 3.322 0 0 1 1.191-.213h.068c.015 0 .03.007.045.022.823 0 1.523.206 2.1.618.576.412.864.925.864 1.538a.61.61 0 0 1-.202.46.665.665 0 0 1-.472.192m0 3.167a.665.665 0 0 1-.471-.191.636.636 0 0 1-.202-.483c0-.165-.146-.34-.438-.528-.292-.187-.685-.28-1.18-.28-.494 0-.887.093-1.179.28-.292.187-.438.363-.438.528a.636.636 0 0 1-.202.483.693.693 0 0 1-.494.19.665.665 0 0 1-.472-.19.636.636 0 0 1-.202-.483c0-.165-.146-.34-.438-.528-.292-.187-.685-.28-1.179-.28s-.887.093-1.18.28c-.291.187-.437.363-.437.528a.636.636 0 0 1-.202.483.665.665 0 0 1-.472.19.665.665 0 0 1-.472-.19.636.636 0 0 1-.202-.483c0-.165-.146-.34-.438-.528-.292-.187-.685-.28-1.179-.28-.51 0-.906.093-1.19.28-.285.187-.427.363-.427.528a.636.636 0 0 1-.202.483.665.665 0 0 1-.472.19.693.693 0 0 1-.494-.19.636.636 0 0 1-.202-.483c0-.165-.146-.34-.438-.528-.292-.187-.685-.28-1.18-.28-.494 0-.887.093-1.179.28-.292.187-.438.363-.438.528a.636.636 0 0 1-.202.483.665.665 0 0 1-.472.19.654.654 0 0 1-.673-.673c0-.599.288-1.108.864-1.527.577-.42 1.277-.63 2.1-.63h.113c.42 0 .816.068 1.19.203.375.135.711.33 1.011.584.284-.255.614-.45.988-.584a3.488 3.488 0 0 1 1.19-.202H9.3c.42 0 .816.067 1.19.202.375.135.711.33 1.011.584.3-.255.636-.45 1.01-.584a3.488 3.488 0 0 1 1.191-.202h.112-.022.112c.42 0 .816.067 1.19.202.375.135.712.33 1.012.584h-.023c.3-.255.636-.45 1.01-.584a3.487 3.487 0 0 1 1.191-.202h.113c.823 0 1.523.21 2.1.629.576.419.864.928.864 1.527a.654.654 0 0 1-.674.674" font-size="17.008" style="vector-effect:none;fill-rule:nonzero" transform="matrix(.66667 0 0 .66667 2.333 14.792)"/>
        </g>
        <g style="font-style:normal;font-weight:400;font-size:22.67709923px;font-family:icomoon;fill:#000;fill-opacity:1;stroke:none">
            <path d="M26.426-22.236c.39 0 .727.141 1.01.425.284.283.425.62.425 1.01V2.051c0 .39-.141.727-.425 1.01a1.38 1.38 0 0 1-1.01.425H3.574a1.38 1.38 0 0 1-1.01-.424 1.38 1.38 0 0 1-.425-1.011v-22.852c0-.39.141-.727.424-1.01a1.38 1.38 0 0 1 1.011-.425h22.852m0-.703H3.574c-.586 0-1.089.21-1.509.63-.42.42-.63.922-.63 1.508V2.051c0 .586.21 1.089.63 1.509.42.42.923.63 1.51.63h22.85c.587 0 1.09-.21 1.51-.63.42-.42.63-.923.63-1.51V-20.8c0-.587-.21-1.09-.63-1.51-.42-.42-.923-.63-1.51-.63m1.436-.732c.391 0 .728.142 1.011.425.283.283.425.62.425 1.01V3.487c0 .39-.142.728-.425 1.011a1.38 1.38 0 0 1-1.01.425H2.138a1.38 1.38 0 0 1-1.011-.425 1.38 1.38 0 0 1-.425-1.01v-25.723c0-.391.142-.728.425-1.011a1.38 1.38 0 0 1 1.01-.425h25.723m0-.703H2.14c-.586 0-1.09.21-1.51.63-.419.42-.629.923-.629 1.509V3.486c0 .586.21 1.09.63 1.51.42.419.923.629 1.509.629H27.86c.586 0 1.09-.21 1.51-.63.419-.42.629-.923.629-1.509v-25.722c0-.586-.21-1.09-.63-1.51-.42-.419-.923-.629-1.509-.629" font-size="22.677" style="vector-effect:none;fill-rule:nonzero" transform="matrix(.66667 0 0 .66667 0 16.25)"/>
        </g>
    </g>
</svg>
