<svg xmlns="http://www.w3.org/2000/svg" width="20" height="20" version="1.2">
    <g font-weight="400" style="fill:none;fill-rule:evenodd;stroke:#000;stroke-width:1;stroke-linecap:square;stroke-linejoin:bevel">
        <g style="font-style:normal;font-weight:400;font-size:22.67709923px;font-family:icomoon;fill:#ff0;fill-opacity:1;stroke:none">
            <path d="M2.637-24.375h24.726c.723 0 1.343.259 1.86.776.518.518.777 1.138.777 1.86V2.989c0 .723-.259 1.343-.776 1.86a2.538 2.538 0 0 1-1.86.777H2.636a2.538 2.538 0 0 1-1.86-.776A2.538 2.538 0 0 1 0 2.989v-24.727c0-.723.259-1.343.776-1.86a2.538 2.538 0 0 1 1.86-.777" font-size="22.677" style="vector-effect:none;fill-rule:nonzero" transform="matrix(.66667 0 0 .66667 0 16.25)"/>
        </g>
        <g style="font-style:normal;font-weight:400;font-size:17.00779915px;font-family:icomoon;fill:#000;fill-opacity:1;stroke:none">
            <path d="M20.979-18.014a1.3 1.3 0 0 1 .954.393 1.3 1.3 0 0 1 .393.955V2.291a1.3 1.3 0 0 1-.393.955 1.3 1.3 0 0 1-.955.393H2.021a1.3 1.3 0 0 1-.954-.393 1.3 1.3 0 0 1-.393-.955v-18.957a1.3 1.3 0 0 1 .393-.955 1.3 1.3 0 0 1 .954-.393h18.957m0-.674H2.021c-.554 0-1.029.199-1.426.596A1.946 1.946 0 0 0 0-16.666V2.291c0 .554.198 1.03.595 1.426.397.397.872.595 1.426.595h18.957c.555 0 1.03-.198 1.427-.595.397-.397.595-.872.595-1.426v-18.957c0-.554-.198-1.03-.595-1.426a1.946 1.946 0 0 0-1.426-.596m-2.426 8.67h-.135c-.42 0-.816-.074-1.19-.224a3.313 3.313 0 0 1-.989-.607 3.313 3.313 0 0 1-.988.607c-.374.15-.771.224-1.19.224h-.247c-.42 0-.817-.074-1.191-.224a3.313 3.313 0 0 1-.988-.607 3.313 3.313 0 0 1-.988.607c-.375.15-.772.224-1.19.224H9.23c-.434 0-.834-.074-1.201-.224-.367-.15-.7-.352-1-.607h.023c-.3.255-.633.457-1 .607-.367.15-.76.224-1.179.224h-.135c-.778 0-1.441-.19-1.988-.572-.546-.382-.82-.858-.82-1.427 0-.134.053-.25.158-.348a.513.513 0 0 1 .719 0 .459.459 0 0 1 .157.348c0 .24.165.465.494.674.33.21.756.315 1.28.315.54 0 .977-.105 1.314-.315.337-.21.506-.434.506-.674a.502.502 0 0 1 .517-.494c.134 0 .25.049.347.146a.475.475 0 0 1 .146.348c0 .24.169.465.506.674.337.21.767.315 1.291.315.524 0 .955-.105 1.292-.315.337-.21.505-.434.505-.674a.502.502 0 0 1 .517-.494c.134 0 .25.049.348.146a.475.475 0 0 1 .146.348c0 .24.165.465.494.674.33.21.764.315 1.303.315.524 0 .95-.105 1.28-.315.33-.21.494-.434.494-.674 0-.134.052-.25.157-.348a.513.513 0 0 1 .72 0 .459.459 0 0 1 .156.348c0 .24.165.465.494.674.33.21.757.315 1.28.315.54 0 .974-.105 1.303-.315.33-.21.495-.434.495-.674a.502.502 0 0 1 .517-.494c.134 0 .25.049.347.146a.475.475 0 0 1 .146.348c0 .57-.27 1.045-.808 1.427-.54.382-1.206.572-2 .572m0 4.066a.307.307 0 0 0-.067.011.308.308 0 0 1-.067.011c-.42 0-.816-.075-1.19-.224a3.092 3.092 0 0 1-.989-.63c-.284.27-.614.48-.988.63-.374.15-.771.224-1.19.224a.185.185 0 0 1-.057-.01.25.25 0 0 0-.078-.012.185.185 0 0 0-.056.011.184.184 0 0 1-.056.011c-.42 0-.817-.075-1.191-.224a3.092 3.092 0 0 1-.988-.63c-.285.27-.614.48-.988.63-.375.15-.772.224-1.19.224a.185.185 0 0 1-.057-.01.185.185 0 0 0-.056-.012.185.185 0 0 0-.056.011.185.185 0 0 1-.057.011 3.15 3.15 0 0 1-1.201-.224c-.367-.15-.7-.36-1-.63h.023c-.3.27-.633.48-1 .63a3.09 3.09 0 0 1-1.179.224.185.185 0 0 1-.056-.01.249.249 0 0 0-.079-.012c-.778 0-1.441-.191-1.988-.573-.546-.382-.82-.85-.82-1.404a.46.46 0 0 1 .158-.348.513.513 0 0 1 .719 0 .46.46 0 0 1 .157.348c0 .24.165.46.494.663.33.202.756.303 1.28.303.54 0 .974-.101 1.303-.303.33-.202.494-.423.494-.663a.502.502 0 0 1 .517-.494c.134 0 .25.049.348.146a.475.475 0 0 1 .146.348c0 .24.168.46.505.663.337.202.768.303 1.292.303s.954-.101 1.291-.303c.337-.202.506-.423.506-.663 0-.134.048-.25.146-.348a.475.475 0 0 1 .348-.146.502.502 0 0 1 .516.494c0 .24.165.46.495.663.329.202.756.303 1.28.303.539 0 .973-.101 1.303-.303.329-.202.494-.423.494-.663a.502.502 0 0 1 .517-.494c.134 0 .25.049.347.146a.475.475 0 0 1 .146.348c0 .24.169.46.506.663.337.202.767.303 1.291.303.524 0 .955-.101 1.292-.303.337-.202.505-.423.505-.663 0-.134.049-.25.146-.348a.475.475 0 0 1 .348-.146.502.502 0 0 1 .517.494c.015.554-.247 1.022-.786 1.404-.54.382-1.206.573-2 .573m0 3.728h-.134c-.42 0-.816-.075-1.19-.224a3.312 3.312 0 0 1-.989-.607 3.313 3.313 0 0 1-.988.607c-.374.15-.771.224-1.19.224h-.247c-.42 0-.817-.075-1.191-.224a3.312 3.312 0 0 1-.988-.607 3.313 3.313 0 0 1-.988.607c-.375.15-.772.224-1.19.224H9.23a3.15 3.15 0 0 1-1.201-.224 3.68 3.68 0 0 1-1-.607h.023a3.68 3.68 0 0 1-1 .607 3.09 3.09 0 0 1-1.179.224h-.135c-.778 0-1.441-.194-1.988-.584-.546-.389-.82-.86-.82-1.415a.46.46 0 0 1 .158-.348.513.513 0 0 1 .719 0 .46.46 0 0 1 .157.348c0 .24.165.465.494.674.33.21.756.315 1.28.315.54 0 .974-.105 1.303-.315.33-.21.494-.434.494-.674a.502.502 0 0 1 .517-.494c.134 0 .25.049.348.146a.475.475 0 0 1 .146.348c0 .24.168.465.505.674.337.21.768.315 1.292.315s.954-.105 1.291-.315c.337-.21.506-.434.506-.674 0-.134.048-.25.146-.348a.475.475 0 0 1 .348-.146.502.502 0 0 1 .516.494c0 .24.165.465.495.674.329.21.756.315 1.28.315.539 0 .973-.105 1.303-.315.329-.21.494-.434.494-.674a.502.502 0 0 1 .517-.494c.134 0 .25.049.347.146a.475.475 0 0 1 .146.348c0 .24.169.465.506.674.337.21.767.315 1.291.315.524 0 .955-.105 1.292-.315.337-.21.505-.434.505-.674 0-.134.049-.25.146-.348a.475.475 0 0 1 .348-.146.502.502 0 0 1 .517.494c.015.554-.247 1.026-.786 1.415-.54.39-1.206.584-2 .584" font-size="17.008" style="vector-effect:none;fill-rule:nonzero" transform="matrix(.66667 0 0 .66667 2.333 14.792)"/>
        </g>
        <g style="font-style:normal;font-weight:400;font-size:22.67709923px;font-family:icomoon;fill:#000;fill-opacity:1;stroke:none">
            <path d="M26.426-22.236c.39 0 .727.141 1.01.425.284.283.425.62.425 1.01V2.051c0 .39-.141.727-.425 1.01a1.38 1.38 0 0 1-1.01.425H3.574a1.38 1.38 0 0 1-1.01-.424 1.38 1.38 0 0 1-.425-1.011v-22.852c0-.39.141-.727.424-1.01a1.38 1.38 0 0 1 1.011-.425h22.852m0-.703H3.574c-.586 0-1.089.21-1.509.63-.42.42-.63.922-.63 1.508V2.051c0 .586.21 1.089.63 1.509.42.42.923.63 1.51.63h22.85c.587 0 1.09-.21 1.51-.63.42-.42.63-.923.63-1.51V-20.8c0-.587-.21-1.09-.63-1.51-.42-.42-.923-.63-1.51-.63m1.436-.732c.391 0 .728.142 1.011.425.283.283.425.62.425 1.01V3.487c0 .39-.142.728-.425 1.011a1.38 1.38 0 0 1-1.01.425H2.138a1.38 1.38 0 0 1-1.011-.425 1.38 1.38 0 0 1-.425-1.01v-25.723c0-.391.142-.728.425-1.011a1.38 1.38 0 0 1 1.01-.425h25.723m0-.703H2.14c-.586 0-1.09.21-1.51.63-.419.42-.629.923-.629 1.509V3.486c0 .586.21 1.09.63 1.51.42.419.923.629 1.509.629H27.86c.586 0 1.09-.21 1.51-.63.419-.42.629-.923.629-1.509v-25.722c0-.586-.21-1.09-.63-1.51-.42-.419-.923-.629-1.509-.629" font-size="22.677" style="vector-effect:none;fill-rule:nonzero" transform="matrix(.66667 0 0 .66667 0 16.25)"/>
        </g>
    </g>
</svg>
