<svg xmlns="http://www.w3.org/2000/svg" width="20" height="20" version="1.2">
    <g font-weight="400" style="fill:none;fill-rule:evenodd;stroke:#000;stroke-width:1;stroke-linecap:square;stroke-linejoin:bevel">
        <g style="font-style:normal;font-weight:400;font-size:17.00779915px;font-family:icomoon;fill:red;fill-opacity:1;stroke:none">
            <path d="M2.021-18.688h18.957c.555 0 1.03.199 1.427.596.397.396.595.872.595 1.426V2.291c0 .554-.198 1.03-.595 1.426a1.946 1.946 0 0 1-1.427.595H2.021c-.554 0-1.029-.198-1.426-.595A1.946 1.946 0 0 1 0 2.291v-18.957c0-.554.198-1.03.595-1.426a1.946 1.946 0 0 1 1.426-.596" font-size="17.008" style="vector-effect:none;fill-rule:nonzero" transform="matrix(.65217 0 0 .65217 2.5 14.687)"/>
        </g>
        <g style="font-style:normal;font-weight:400;font-size:17.00779915px;font-family:icomoon;fill:#000;fill-opacity:1;stroke:none">
            <path d="M20.979-18.014a1.3 1.3 0 0 1 .954.393 1.3 1.3 0 0 1 .393.955V2.291a1.3 1.3 0 0 1-.393.955 1.3 1.3 0 0 1-.955.393H2.021a1.3 1.3 0 0 1-.954-.393 1.3 1.3 0 0 1-.393-.955v-18.957a1.3 1.3 0 0 1 .393-.955 1.3 1.3 0 0 1 .954-.393h18.957m0-.674H2.021c-.554 0-1.029.199-1.426.596A1.946 1.946 0 0 0 0-16.666V2.291c0 .554.198 1.03.595 1.426.397.397.872.595 1.426.595h18.957c.555 0 1.03-.198 1.427-.595.397-.397.595-.872.595-1.426v-18.957c0-.554-.198-1.03-.595-1.426a1.946 1.946 0 0 0-1.426-.596M19.428-5.84a1.961 1.961 0 0 0-.169-.685 1.64 1.64 0 0 0-.393-.55 1.83 1.83 0 0 0 .27-.966 2.403 2.403 0 0 0-.472-1.235 2.356 2.356 0 0 0-1.01-.787h-.023c.21-.18.374-.396.494-.65.12-.255.187-.525.202-.81-.03-.643-.318-1.194-.865-1.65-.546-.457-1.209-.715-1.987-.775 0-.045.003-.094.01-.146.008-.053.012-.109.012-.169 0-.689-.273-1.265-.82-1.73-.546-.463-1.216-.696-2.01-.696h-.09c-.524 0-1.003.131-1.437.394a3 3 0 0 0-1.034 1.022h-.022a1.832 1.832 0 0 0-.595-.393 2.256 2.256 0 0 0-.753-.169 2.25 2.25 0 0 0-1.56.708 2.2 2.2 0 0 0-.64 1.583v.135a2.595 2.595 0 0 0 .134.83v-.022a2.347 2.347 0 0 0-1.381.798 2.22 2.22 0 0 0-.55 1.493v.068a2.61 2.61 0 0 0 .314 1.258v-.023c-.45.18-.813.468-1.09.865a2.28 2.28 0 0 0-.415 1.336V-6.693c0 .389.082.748.247 1.078.165.33.39.614.674.853a2.01 2.01 0 0 0-.101.393 2.805 2.805 0 0 0-.034.438v.113c0 .614.21 1.141.629 1.583.42.442.928.678 1.527.708h.023c.464-.015.88-.158 1.246-.427.367-.27.625-.614.775-1.033v-.023c.3.255.637.453 1.01.595.375.143.772.214 1.191.214h.09a3.958 3.958 0 0 0 .584-.045h-.022v3.302L5.795 2.29h12.174l-5.593-1.235v-3.617l.157-.067c.15.045.303.075.46.09.158.015.319.022.484.022H13.52c.225 0 .45-.018.674-.056.225-.037.442-.1.652-.19l-.023.022c.315.464.696.786 1.146.966.449.18.853.164 1.213-.045.21-.15.374-.345.494-.584.12-.24.18-.502.18-.786a1.646 1.646 0 0 0-.135-.674v.022c.464-.12.853-.36 1.168-.719.314-.359.494-.778.539-1.257v-.023" font-size="17.008" style="vector-effect:none;fill-rule:nonzero" transform="matrix(.65217 0 0 .65217 2.5 14.687)"/>
        </g>
    </g>
</svg>
