<svg xmlns="http://www.w3.org/2000/svg" width="20" height="20" version="1.2">
    <g font-weight="400" style="fill:none;fill-rule:evenodd;stroke:#000;stroke-width:1;stroke-linecap:square;stroke-linejoin:bevel">
        <g style="font-style:normal;font-weight:400;font-size:19.84250069px;font-family:icomoon;fill:#fff;fill-opacity:1;stroke:none">
            <path d="M2.285-21.125h21.43a2.2 2.2 0 0 1 1.612.673A2.2 2.2 0 0 1 26-18.84V2.59a2.2 2.2 0 0 1-.673 1.612 2.2 2.2 0 0 1-1.612.673H2.285a2.2 2.2 0 0 1-1.612-.673A2.2 2.2 0 0 1 0 2.59v-21.43a2.2 2.2 0 0 1 .673-1.612 2.2 2.2 0 0 1 1.612-.673" font-size="19.843" style="vector-effect:none;fill-rule:nonzero" transform="matrix(.6923 0 0 .6923 1 15.625)"/>
        </g>
        <g style="font-style:normal;font-weight:400;font-size:17.00779915px;font-family:icomoon;fill:#000;fill-opacity:1;stroke:none">
            <path d="M20.979-18.014a1.3 1.3 0 0 1 .954.393 1.3 1.3 0 0 1 .393.955V2.291a1.3 1.3 0 0 1-.393.955 1.3 1.3 0 0 1-.955.393H2.021a1.3 1.3 0 0 1-.954-.393 1.3 1.3 0 0 1-.393-.955v-18.957a1.3 1.3 0 0 1 .393-.955 1.3 1.3 0 0 1 .954-.393h18.957m0-.674H2.021c-.554 0-1.029.199-1.426.596A1.946 1.946 0 0 0 0-16.666V2.291c0 .554.198 1.03.595 1.426.397.397.872.595 1.426.595h18.957c.555 0 1.03-.198 1.427-.595.397-.397.595-.872.595-1.426v-18.957c0-.554-.198-1.03-.595-1.426a1.946 1.946 0 0 0-1.426-.596m-3.729 2.92-.45.36c-.299.24-.7.516-1.2.83-.503.315-1.075.63-1.72.944-.643.3-1.294.502-1.953.607-.674.12-1.445.307-2.314.561-.883.27-1.7.652-2.448 1.146A5.56 5.56 0 0 0 5.368-9.39c-.45.794-.576 1.782-.382 2.965.255 1.438.753 2.475 1.494 3.111.741.636 1.441 1.06 2.1 1.27-.629.373-1.299.692-2.01.954-.711.262-1.449.468-2.213.617h-.09C3.13-.322 2.895.116 3.56.842c.666.727 1.366.813 2.1.259A49.39 49.39 0 0 1 7.974-.438a66.847 66.847 0 0 1 2.178-1.336c.045-.03.262-.165.652-.405.374-.24.846-.655 1.415-1.246.569-.592 1.19-1.382 1.864-2.37.659-.988 1.303-2.239 1.932-3.75-.105.628-.24 1.272-.405 1.93-.18.66-.453 1.345-.82 2.056a13.29 13.29 0 0 1-1.448 2.19c-.614.764-1.4 1.565-2.359 2.403-.074.42.18.779.764 1.078.599.3 1.31.453 2.134.46.823.008 1.655-.16 2.493-.505.839-.359 1.475-.988 1.91-1.886a13.752 13.752 0 0 0 1.19-3.706c.224-1.318.288-2.606.19-3.864a13.3 13.3 0 0 0-.752-3.549c-.404-1.108-.958-2.05-1.662-2.83" font-size="17.008" style="vector-effect:none;fill-rule:nonzero" transform="matrix(.6923 0 0 .6923 2.038 14.976)"/>
        </g>
        <g style="font-style:normal;font-weight:400;font-size:19.84250069px;font-family:icomoon;fill:#000;fill-opacity:1;stroke:none">
            <path d="M23.943-20.44c.373 0 .694.136.965.407.271.27.406.592.406.965V2.818c0 .373-.135.694-.406.965-.27.271-.592.406-.965.406H2.057c-.373 0-.694-.135-.965-.406a1.318 1.318 0 0 1-.406-.965v-21.886c0-.373.135-.694.406-.965.27-.271.592-.407.965-.407h21.886m0-.685H2.057c-.576 0-1.063.199-1.46.597A1.986 1.986 0 0 0 0-19.068V2.818c0 .576.199 1.063.597 1.46.397.398.884.597 1.46.597h21.886c.576 0 1.063-.199 1.46-.597.398-.397.597-.884.597-1.46v-21.886c0-.576-.199-1.063-.597-1.46a1.986 1.986 0 0 0-1.46-.597" font-size="19.843" style="vector-effect:none;fill-rule:nonzero" transform="matrix(.6923 0 0 .6923 1 15.625)"/>
        </g>
    </g>
</svg>
