<svg xmlns="http://www.w3.org/2000/svg" xml:space="preserve" width="20" height="20"><path fill="#ff0" d="M1.756 0H18.22c.482 0 .894.173 1.238.52.345.347.518.763.518 1.248v16.576c0 .485-.172.9-.518 1.247-.344.346-.756.52-1.238.52H1.756a1.68 1.68 0 0 1-1.239-.52A1.69 1.702 0 0 1 0 18.344V1.768C0 1.283.172.868.517.52.861.174 1.274 0 1.756 0" font-family="icomoon" font-size="19.843" font-weight="400"/><path d="M9.472 4.778c-.013.003-.026.003-.04.008-.007.004-.019.005-.024.012-.008.009.024.003.033-.002a.207.207 0 0 0 .031-.018z" font-family="icomoon" font-size="17.008" font-weight="400"/><path d="M2.706 1.16c-.426 0-.792.154-1.096.461a1.495 1.505 0 0 0-.458 1.103v14.663c0 .43.153.797.458 1.103.304.307.67.462 1.096.462H17.27c.426 0 .791-.155 1.095-.462.306-.306.458-.673.458-1.103V2.724c0-.429-.152-.797-.458-1.103a1.495 1.505 0 0 0-1.095-.461Zm0 .522H17.27a.999 1.006 0 0 1 .732.304.999 1.006 0 0 1 .303.738v14.663a.999 1.006 0 0 1-.301.738.999 1.006 0 0 1-.734.305H2.706a.999 1.006 0 0 1-.733-.304.999 1.006 0 0 1-.303-.739V2.724a.999 1.006 0 0 1 .302-.737.999 1.006 0 0 1 .733-.305Z" font-family="icomoon" font-size="17.008" font-weight="400"/><path d="M1.58 0C1.138 0 .764.154.46.462A1.526 1.536 0 0 0 0 1.59v16.93c0 .446.153.823.458 1.129.306.308.68.462 1.121.462h16.817c.443 0 .816-.154 1.121-.461.307-.307.46-.684.46-1.128V1.59a1.54 1.54 0 0 0-.459-1.128 1.526 1.536 0 0 0-1.12-.463Zm0 .53h16.816c.287 0 .533.105.742.314.208.21.312.459.312.747v16.93c0 .288-.104.536-.311.746a1.012 1.019 0 0 1-.743.314H1.58a1.013 1.02 0 0 1-.741-.313 1.013 1.02 0 0 1-.312-.748V1.591c0-.288.103-.536.31-.746A1.013 1.02 0 0 1 1.58.53Z" font-family="icomoon" font-size="19.843" font-weight="400"/><path d="M12.516 17.854c-.122-.04-.429-.2-.7-.367-.937-.575-1.217-.61-1.85-.23-.391.234-.381.242-.381-.302 0-.549.008-.563.42-.726.619-.246 1.324-.138 1.921.294.854.617 1.257.627 2.145.053 1.03-.664 1.549-.67 2.492-.027.24.164.39.237.687.336.645.214.788.344.723.658-.125.598-.703.51-1.88-.283-.545-.368-.952-.327-1.81.182-.829.491-1.234.586-1.767.412zM1.61 15.68v-2.212l3.65-.018c2.009-.008 3.661-.01 3.673-.001.011.007.02 1.011.02 2.23v2.214H1.61Zm11.181.4c-.238-.046-.38-.112-.977-.461-.895-.523-1.27-.562-1.863-.197l-.324.2-.014-.47c-.016-.553-.017-.545.092-.617.63-.421 1.462-.356 2.274.179.835.55 1.372.583 1.94.12.912-.742 1.744-.779 2.64-.116.325.24.509.326.842.39.425.083.528.165.565.452.04.322-.144.506-.5.498-.387-.007-.65-.127-1.253-.564-.645-.468-1.036-.45-1.88.09-.774.495-1.057.586-1.542.495zm-.083-1.758c-.151-.042-.41-.182-.622-.338-.765-.56-1.384-.669-2.11-.37-.43.177-.39.215-.39-.386v-.514H9.27c-.368 0-.32.074-.386-.603-.065-.673-.182-1.153-.365-1.497-.09-.17-.226-.504-.226-.556 0-.1 1.297-.429 2.173-.553.22-.031.646-.095.949-.142a35.59 35.59 0 0 1 2.627-.318c.386-.03.775-.062.866-.073.807-.092 2.288-.085 2.558.01.247.089.021 1.687-.412 2.916-.282.799-.54 1.433-.689 1.687l-.055.096-.407-.116c-.697-.199-1.15-.125-1.751.285-.485.33-.646.423-.795.459-.144.035-.54.043-.65.012zm-10.769-2.05v-.44l.089-.023c.049-.012.26-.087.47-.165.21-.078.387-.134.395-.124.016.02-.07 1.118-.09 1.162-.008.017-.206.03-.44.03H1.94Zm1.228.417c-.034-.044-.017-.738.024-.963.393-2.153 2.338-3.353 3.85-2.375 1.018.658 1.711 2.126 1.537 3.251l-.018.11H5.873c-1.478 0-2.696-.01-2.706-.023zm1.332-.402c.555 0 .933-.015.933-.033 0-.042-1.073-1.43-1.245-1.612-.159-.166-.17-.158-.37.255-.225.466-.437 1.483-.295 1.412.024-.012.464-.022.977-.022zm3.766-.136c0-.41-.32-1.369-.53-1.595-.069-.073-1.267 1.351-1.394 1.656-.031.075-.031.075.946.075h.978ZM5.673 9.442c-.088-.076-.498.05-.833.255-.667.41-.655.463.413 1.749l.44.53.007-1.252c.006-.977 0-1.258-.028-1.282Zm1.134 1.578.646-.832-.137-.161c-.24-.28-.912-.608-1.259-.612-.011 0-.02.567-.02 1.26v1.26l.062-.041c.034-.023.352-.416.708-.874zm-4.868.05c0-.779.22-1.07 1.361-1.798.7-.447 1.349-.874 2.984-1.965.447-.298.954-.634 1.128-.747.174-.114.595-.393.935-.622a34.45 34.45 0 0 1 1.857-1.172c.414-.245.665-.412.727-.482.007-.007-.024-.06-.067-.12-.255-.341-.803-.17-1.786.559a34.17 34.17 0 0 1-.73.526 431.1 555.88 0 0 0-1.37.95A295.834 295.834 0 0 1 4.47 7.944c-.417.289-.607.418-1.334.903l-.59.396c-.175.121-.21.097-.154-.105.118-.434.498-.895 1.334-1.62.543-.471.578-.564.635-1.667.06-1.19.227-1.559.793-1.761.564-.202.858-.039 1.098.611.162.438.095.468 1.23-.568 3.023-2.762 3.559-2.8 3.947-.275.026.165.04.202.078.188.63-.235 1.353-.182 1.687.125.364.335.787 2.243.916 4.136.023.33.002.326-.348-.066-.525-.588-1.686-.619-3.195-.085l-.544.192-.85.302c-1.815.648-1.589.597-1.85.414-1.46-1.02-3.326-.317-4.099 1.545l-.115.278-.262.113c-.245.106-.85.331-.89.331-.008 0-.017-.117-.017-.26z"/><path d="M8.877 17.852h.042l-.036-.005.043.002.012.019.015.023v.678h-7.28v-1.22h7.213z" paint-order="stroke markers fill"/></svg>