<svg xmlns="http://www.w3.org/2000/svg" xml:space="preserve" width="20" height="20"><path fill="#fff" d="M1.758 0h16.484c.482 0 .895.173 1.24.517.345.346.518.759.518 1.24v16.486c0 .482-.173.895-.517 1.24a1.692 1.692 0 0 1-1.24.518H1.757a1.692 1.692 0 0 1-1.24-.518A1.692 1.692 0 0 1 0 18.243V1.758C0 1.276.173.863.517.518A1.692 1.692 0 0 1 1.757 0" font-family="icomoon" font-size="22.677" font-weight="400"/><path d="M3.754 2.333c-.37 0-.686.132-.95.396a1.297 1.297 0 0 0-.398.951v12.638c0 .37.133.687.397.951.265.265.582.397.951.397h12.639c.37 0 .687-.132.951-.397.265-.264.397-.581.397-.95V3.68c0-.37-.132-.686-.397-.95a1.297 1.297 0 0 0-.95-.397zm0 .449h12.639c.25 0 .462.087.637.262a.867.867 0 0 1 .262.636v12.638a.87.87 0 0 1-.262.637.866.866 0 0 1-.637.262H3.754a.866.866 0 0 1-.636-.262.866.866 0 0 1-.262-.637V3.68c0-.25.087-.461.262-.636a.867.867 0 0 1 .636-.262zm2.264 3.06c-.004.02-.011.035-.016.053l.029.002-.013-.054z" font-family="icomoon" font-size="17.008" font-weight="400"/><path d="M17.617 1.426a.92.92 0 0 1 .674.283c.19.189.283.414.283.674v15.234a.92.92 0 0 1-.283.674.92.92 0 0 1-.674.283H2.383a.92.92 0 0 1-.674-.283.92.92 0 0 1-.283-.674V2.383a.92.92 0 0 1 .283-.674.92.92 0 0 1 .674-.283h15.234m0-.469H2.383c-.391 0-.726.14-1.006.42-.28.28-.42.615-.42 1.006v15.234c0 .391.14.726.42 1.006.28.28.615.42 1.006.42h15.234c.391 0 .726-.14 1.006-.42.28-.28.42-.615.42-1.006V2.383c0-.391-.14-.726-.42-1.006-.28-.28-.615-.42-1.006-.42m.957-.488a.92.92 0 0 1 .674.283.92.92 0 0 1 .283.673v17.15a.92.92 0 0 1-.283.674.92.92 0 0 1-.673.283H1.425a.92.92 0 0 1-.674-.283.92.92 0 0 1-.283-.674V1.427A.92.92 0 0 1 .751.753a.92.92 0 0 1 .674-.284h17.148m0-.468H1.427A1.37 1.37 0 0 0 .42.42C.14.7 0 1.036 0 1.427v17.147c0 .39.14.727.42 1.007.28.279.616.419 1.007.419h17.146c.391 0 .727-.14 1.007-.42.28-.28.42-.615.42-1.006V1.426c0-.39-.14-.727-.42-1.007A1.38 1.38 0 0 0 18.572 0" font-family="icomoon" font-size="22.677" font-weight="400"/><path d="M12.254 16.708a4.107 4.107 0 0 1-.61-.318c-.814-.496-1.057-.526-1.608-.198-.34.202-.33.21-.33-.26 0-.474.006-.486.365-.628.538-.212 1.15-.119 1.67.254.742.533 1.092.542 1.864.046.896-.573 1.347-.578 2.166-.024.21.142.34.205.598.29.561.186.685.298.628.57-.109.515-.61.44-1.634-.245-.474-.318-.827-.283-1.574.157-.72.424-1.072.506-1.535.356zM2.77 14.829v-1.91l3.175-.015c1.745-.007 3.182-.008 3.192 0 .01.005.018.872.018 1.924v1.912H2.77Zm9.721.345c-.207-.038-.33-.096-.85-.397-.777-.452-1.104-.486-1.619-.17l-.282.173-.012-.406c-.014-.477-.015-.471.08-.533.548-.364 1.27-.307 1.977.154.726.475 1.193.504 1.687.104.792-.64 1.515-.672 2.294-.1.283.208.443.281.732.337.37.071.46.142.491.39.035.278-.125.437-.434.43-.337-.006-.566-.11-1.089-.487-.561-.405-.9-.388-1.635.078-.672.427-.919.506-1.34.427zm-.073-1.517c-.131-.036-.355-.157-.54-.292-.666-.484-1.203-.577-1.835-.32-.373.153-.339.187-.339-.333v-.444H9.43c-.32 0-.279.064-.336-.52-.056-.582-.158-.996-.317-1.293-.078-.146-.196-.435-.196-.48 0-.086 1.127-.37 1.889-.477.19-.027.562-.083.825-.123a31.14 31.14 0 0 1 2.283-.275 36.9 36.9 0 0 0 .753-.062c.701-.08 1.99-.074 2.224.009.215.075.018 1.455-.359 2.517-.245.69-.47 1.237-.598 1.457l-.048.082-.354-.1c-.606-.171-1-.108-1.522.246-.422.285-.562.366-.691.397-.126.03-.47.037-.565.01zm-9.36-1.77v-.38l.077-.02a6.89 6.89 0 0 0 .409-.142c.182-.067.336-.115.343-.107.014.018-.06.966-.078 1.004-.007.015-.18.026-.382.026h-.37zm1.067.36c-.03-.038-.015-.637.02-.83.343-1.86 2.033-2.896 3.348-2.052.885.569 1.488 1.836 1.336 2.808l-.015.095H6.478c-1.284 0-2.343-.008-2.352-.02zm1.158-.346c.483 0 .811-.013.811-.029 0-.036-.932-1.235-1.082-1.392-.138-.143-.149-.136-.322.22-.196.402-.38 1.28-.256 1.22.021-.01.403-.019.849-.019zm3.274-.118c0-.353-.278-1.182-.46-1.377-.06-.063-1.102 1.167-1.213 1.43-.027.065-.027.065.823.065h.85zM6.304 9.444c-.076-.066-.432.043-.723.22-.58.355-.57.4.359 1.51l.382.458.006-1.081c.005-.844 0-1.086-.024-1.107zm.987 1.363.561-.719-.12-.139c-.207-.242-.792-.525-1.093-.529-.01 0-.018.49-.018 1.088v1.089l.054-.036c.03-.02.306-.359.615-.754zm-4.233.043c0-.673.192-.924 1.184-1.553A149.5 149.5 0 0 0 6.836 7.6c.388-.257.83-.547.98-.645.152-.098.518-.34.814-.536.602-.402.983-.64 1.613-1.012.36-.212.579-.357.632-.417.006-.006-.02-.052-.058-.103-.22-.295-.698-.147-1.553.482a29.7 29.7 0 0 1-.634.454 374.767 479.999 0 0 0-1.19.821A257.226 257.226 0 0 1 5.258 8.15c-.362.25-.528.361-1.16.78l-.512.343c-.153.104-.183.083-.135-.092.104-.374.434-.772 1.16-1.398.472-.407.503-.487.552-1.44.053-1.028.197-1.346.69-1.52.49-.175.746-.034.954.527.14.378.083.405 1.07-.49 2.627-2.385 3.093-2.417 3.43-.238.023.143.036.175.068.163.548-.204 1.177-.157 1.467.108.317.289.684 1.936.797 3.571.019.285.002.282-.303-.057-.457-.508-1.466-.534-2.778-.074l-.472.166-.74.261c-1.577.56-1.38.516-1.608.358-1.268-.881-2.89-.274-3.563 1.333l-.1.241-.228.098a9.257 9.257 0 0 1-.773.285.856.856 0 0 1-.015-.224z"/><path d="M9.09 16.706h.036l-.03-.005.037.003.01.015.013.02v.586h-6.33v-1.053h6.271z" paint-order="stroke markers fill"/><path fill="red" d="M.95 19.693a.564.564 0 0 1-.236-.048.94.94 0 0 1-.198-.122.939.939 0 0 1-.123-.199.564.564 0 0 1-.047-.236c0-.088.015-.166.047-.236a.939.939 0 0 1 .123-.198L18.641.53a.94.94 0 0 1 .198-.123.565.565 0 0 1 .236-.047.58.58 0 0 1 .425.18c.12.12.179.26.179.424a.565.565 0 0 1-.047.236.94.94 0 0 1-.123.199L1.384 19.523a.939.939 0 0 1-.198.122.564.564 0 0 1-.236.048" font-family="icomoon" font-size="21.543" font-weight="400"/></svg>