<svg xmlns="http://www.w3.org/2000/svg" xml:space="preserve" width="547" height="546">
    <g style="display:inline">
        <path d="M56.655 53.396H68.78c.354 0 .659.127.912.38.254.255.381.559.381.913v12.126c0 .355-.127.659-.38.913-.254.253-.559.38-.913.38H56.655c-.354 0-.659-.127-.912-.38a1.245 1.245 0 0 1-.381-.913V54.69c0-.354.127-.658.38-.912.254-.254.559-.38.913-.38" style="font-style:normal;font-weight:400;font-size:22.6771px;font-family:icomoon;vector-effect:none;fill:#fff;fill-opacity:1;fill-rule:nonzero;stroke:none;stroke-width:.490407;stroke-linecap:square;stroke-linejoin:bevel" transform="translate(-55.07 -53.232)"/>
        <path d="m65.654 67.252-.005.004h.005z" style="font-style:normal;font-weight:400;font-size:17.0078px;font-family:icomoon;vector-effect:none;fill:#000;fill-opacity:1;fill-rule:nonzero;stroke:none;stroke-width:.394479;stroke-linecap:square;stroke-linejoin:bevel" transform="translate(-55.07 -53.232)"/>
        <path d="M56.55 53.232c-.36 0-.67.13-.929.389a1.268 1.268 0 0 0-.389.93v12.363c0 .361.13.67.389.93.259.258.568.388.93.388h12.363c.361 0 .67-.13.93-.388.258-.26.388-.569.388-.93V54.55c0-.362-.13-.671-.388-.93a1.268 1.268 0 0 0-.93-.389zm0 .44h12.364c.244 0 .452.085.623.256.17.17.256.378.256.623v12.363a.848.848 0 0 1-.256.623.848.848 0 0 1-.623.256H56.55a.848.848 0 0 1-.623-.256.848.848 0 0 1-.256-.623V54.55c0-.245.085-.453.256-.623a.848.848 0 0 1 .623-.256z" style="font-style:normal;font-weight:400;font-size:17.0078px;font-family:icomoon;vector-effect:none;fill:#000;fill-opacity:1;fill-rule:nonzero;stroke:none;stroke-width:.652173;stroke-linecap:square;stroke-linejoin:bevel" transform="translate(-55.07 -53.232)"/>
        <path d="M64.927 67.298a4.005 4.005 0 0 1-.596-.31c-.794-.484-1.032-.514-1.57-.194-.331.198-.322.205-.322-.255 0-.462.007-.473.356-.611.525-.208 1.123-.117 1.63.248.726.52 1.067.528 1.821.045.874-.56 1.314-.565 2.115-.024.204.138.33.2.583.283.548.181.669.291.613.555-.106.504-.596.43-1.595-.238-.463-.31-.808-.276-1.536.153-.703.414-1.047.494-1.5.348zm-9.258-1.834v-1.865l3.099-.014c1.704-.008 3.107-.009 3.116-.002.01.007.018.853.018 1.88v1.866H55.669zm9.49.337c-.202-.038-.322-.094-.83-.389-.759-.44-1.077-.473-1.58-.165l-.275.169-.012-.397c-.014-.466-.015-.46.077-.52.536-.355 1.241-.3 1.93.15.71.464 1.165.492 1.647.102.774-.626 1.48-.657 2.24-.098.276.203.433.275.715.33.361.069.449.138.48.38.034.272-.122.426-.424.42-.329-.006-.553-.107-1.064-.475-.547-.396-.88-.38-1.596.076-.656.417-.897.493-1.308.417zm-.07-1.482a1.986 1.986 0 0 1-.529-.284c-.65-.473-1.174-.564-1.79-.312-.365.148-.331.181-.331-.326v-.433h-.268c-.313 0-.272.062-.328-.509-.055-.567-.155-.972-.31-1.262-.076-.142-.191-.424-.191-.468 0-.084 1.1-.362 1.844-.466.186-.026.548-.08.805-.12.788-.123 1.606-.221 2.23-.268.327-.025.658-.052.735-.061.684-.078 1.941-.072 2.17.008.21.075.018 1.422-.35 2.458-.239.673-.458 1.208-.584 1.422l-.047.08-.345-.097c-.591-.167-.976-.105-1.486.24-.412.279-.548.357-.675.387-.122.03-.458.036-.55.01zm-9.14-1.727v-.371l.076-.02c.042-.01.222-.072.4-.138.177-.066.328-.113.334-.105.014.018-.058.942-.076.98-.007.014-.175.026-.373.026h-.36zm1.043.352c-.03-.038-.015-.623.02-.812.334-1.815 1.984-2.827 3.268-2.002.863.555 1.452 1.792 1.304 2.74l-.015.094h-2.28c-1.255 0-2.289-.009-2.297-.02zm1.13-.34c.472 0 .792-.012.792-.027 0-.035-.91-1.206-1.057-1.359-.134-.14-.145-.133-.314.215-.19.393-.37 1.25-.25 1.19.02-.01.394-.018.83-.018zm3.196-.114c0-.345-.27-1.154-.45-1.344-.058-.062-1.075 1.139-1.182 1.396-.027.063-.027.063.803.063h.83zm-2.2-2.283c-.074-.064-.422.041-.706.215-.567.345-.556.39.35 1.473l.374.447.005-1.055c.005-.823 0-1.06-.023-1.08zm.963 1.33.549-.701-.117-.136c-.203-.237-.774-.513-1.068-.517-.01 0-.018.478-.018 1.063v1.062l.053-.035c.029-.019.3-.35.601-.736zm-4.132.042c0-.657.188-.902 1.156-1.516.594-.377 1.144-.737 2.533-1.656.378-.251.809-.535.957-.63l.793-.524c.589-.392.96-.625 1.576-.988.351-.207.565-.348.617-.406.006-.007-.02-.052-.057-.101-.216-.289-.682-.144-1.516.47a29.13 29.13 0 0 1-.62.444c-.46.316-.864.595-1.161.801a249.706 249.706 0 0 1-2.13 1.47c-.354.243-.516.352-1.132.761-.206.136-.43.287-.5.334-.15.102-.179.082-.132-.089.1-.365.423-.754 1.133-1.365.46-.397.49-.475.538-1.405.052-1.004.193-1.315.673-1.485.48-.17.729-.033.932.515.137.369.081.395 1.044-.479 2.566-2.328 3.02-2.36 3.35-.232.022.14.035.17.066.159.535-.199 1.148-.154 1.432.105.31.282.668 1.89.777 3.487.02.278.002.275-.295-.056-.446-.495-1.43-.521-2.712-.072l-.461.162-.721.255c-1.541.546-1.35.503-1.571.35-1.238-.861-2.822-.268-3.478 1.301l-.098.235-.222.095a9.02 9.02 0 0 1-.755.279.838.838 0 0 1-.015-.219z" style="fill:#000;fill-opacity:1;stroke-width:.0264179" transform="translate(-55.07 -53.232)"/>
        <path d="M61.838 67.296h.035l-.03-.005.037.002.01.016.012.02v.57h-6.179v-1.027h6.122z" style="fill:#000;fill-opacity:1;stroke:#000;stroke-width:1.30778;stroke-linecap:round;stroke-linejoin:bevel;stroke-opacity:0;paint-order:stroke markers fill" transform="translate(-55.07 -53.232)"/>
        <path d="M56.312 67.58a.4.4 0 0 1-.167-.033.67.67 0 0 1-.14-.087.66.66 0 0 1-.087-.14.4.4 0 0 1-.033-.168.4.4 0 0 1 .033-.167.67.67 0 0 1 .087-.14l12.84-12.84a.659.659 0 0 1 .14-.087.4.4 0 0 1 .167-.033c.116 0 .216.042.301.127a.411.411 0 0 1 .127.3.398.398 0 0 1-.033.168.663.663 0 0 1-.087.14L56.62 67.46a.665.665 0 0 1-.14.087.4.4 0 0 1-.168.033" style="font-style:normal;font-weight:400;font-size:15.874px;font-family:icomoon;display:inline;vector-effect:none;fill:red;fill-opacity:1;fill-rule:nonzero;stroke:none;stroke-width:.652173;stroke-linecap:square;stroke-linejoin:bevel" transform="translate(-55.07 -53.232)"/>
    </g>
</svg>
