<svg xmlns="http://www.w3.org/2000/svg" xml:space="preserve" width="20" height="20"><path fill="#fff" d="M2.056.247h16.1c.472 0 .875.17 1.212.51.337.34.506.748.506 1.223v16.25c0 .475-.169.883-.505 1.222a1.653 1.668 0 0 1-1.212.511H2.056a1.653 1.668 0 0 1-1.211-.51 1.653 1.668 0 0 1-.506-1.223V1.98c0-.475.169-.882.506-1.222a1.653 1.668 0 0 1 1.21-.51" font-family="icomoon" font-size="22.677" font-weight="400"/><path d="M2.755 1.11a1.48 1.48 0 0 0-1.092.46 1.49 1.503 0 0 0-.457 1.102V17.34c0 .429.153.795.457 1.103.304.307.667.46 1.092.46h14.533c.424 0 .787-.153 1.092-.46a1.51 1.51 0 0 0 .456-1.103V2.672a1.51 1.51 0 0 0-.456-1.102 1.49 1.503 0 0 0-1.092-.46Zm0 .522h14.533c.287 0 .53.1.73.302a.994 1.004 0 0 1 .3.738V17.34c0 .29-.099.536-.3.737a.993 1.002 0 0 1-.73.304H2.755a.994 1.004 0 0 1-.73-.303.994 1.004 0 0 1-.302-.737V2.67c0-.29.1-.534.3-.738a.994 1.004 0 0 1 .731-.303z" font-family="icomoon" font-size="17.008" font-weight="400"/><path d="M1.633-.051A1.52 1.52 0 0 0 .514.41a1.52 1.534 0 0 0-.458 1.13v16.932c0 .446.154.821.458 1.128.306.308.677.463 1.119.463H18.41c.441 0 .813-.155 1.118-.463.304-.307.458-.682.458-1.128V1.54c0-.446-.154-.821-.458-1.129a1.52 1.534 0 0 0-1.118-.462zm0 .53H18.41c.285 0 .531.104.74.313.207.21.31.46.31.748v16.932c0 .288-.103.536-.31.746a1.01 1.02 0 0 1-.74.314H1.633a1.01 1.02 0 0 1-.74-.313 1.011 1.02 0 0 1-.311-.747V1.54c0-.288.103-.536.31-.746a1.011 1.02 0 0 1 .74-.314z" font-family="icomoon" font-size="19.843" font-weight="400"/><path d="M12.557 17.73c-.123-.04-.428-.2-.7-.365-.933-.569-1.212-.603-1.844-.227-.39.232-.379.24-.379-.3 0-.543.008-.556.42-.718.616-.244 1.318-.137 1.914.29.852.612 1.253.622 2.138.054 1.027-.658 1.544-.664 2.484-.028.24.163.389.235.686.333.643.213.785.341.72.652-.125.592-.701.506-1.874-.28-.544-.365-.949-.324-1.805.18-.825.487-1.23.58-1.76.408zM1.683 15.574v-2.191l3.64-.017c2.002-.009 3.649-.01 3.66-.002.012.008.02 1.002.02 2.208v2.193h-7.32Zm11.147.395c-.238-.044-.379-.11-.975-.456-.891-.517-1.266-.556-1.856-.194l-.324.198-.013-.466c-.017-.547-.018-.54.09-.611.63-.417 1.458-.352 2.268.177.832.545 1.368.577 1.934.12.91-.736 1.738-.772 2.631-.116.324.239.508.323.84.387.424.082.527.163.563.448.04.318-.143.5-.498.493-.386-.008-.65-.126-1.249-.559-.644-.464-1.033-.446-1.875.09-.77.49-1.054.58-1.536.49zm-.084-1.74c-.15-.041-.408-.18-.62-.334-.763-.556-1.38-.663-2.103-.367-.428.175-.389.213-.389-.382v-.51H9.32c-.366 0-.32.074-.384-.597-.065-.667-.182-1.142-.364-1.483-.09-.167-.225-.499-.225-.55 0-.098 1.293-.425 2.166-.548.218-.03.644-.094.946-.14a35.7 35.7 0 0 1 2.618-.316c.385-.029.773-.061.864-.071.804-.091 2.28-.085 2.55.01.246.087.02 1.67-.411 2.887-.281.791-.54 1.42-.687 1.671l-.055.095-.406-.115c-.694-.196-1.145-.124-1.745.282-.484.327-.644.42-.792.455-.144.035-.538.042-.648.012zM2.012 12.2v-.435l.089-.023a7.9 7.9 0 0 0 .469-.163c.209-.078.386-.133.393-.123.016.02-.069 1.107-.09 1.15-.008.018-.205.031-.438.031h-.423zm1.225.414c-.035-.044-.018-.732.023-.954.393-2.133 2.33-3.321 3.838-2.352 1.015.652 1.706 2.105 1.532 3.22l-.017.11h-2.68c-1.473 0-2.686-.01-2.697-.024zm1.327-.398c.554 0 .93-.015.93-.033 0-.042-1.069-1.417-1.241-1.597-.158-.164-.17-.156-.369.252-.224.462-.436 1.47-.293 1.4.024-.012.462-.022.973-.022zm3.754-.135c0-.405-.318-1.356-.528-1.58-.068-.072-1.263 1.338-1.39 1.64-.03.075-.03.075.944.075h.974zM5.734 9.398c-.088-.075-.496.049-.83.253-.665.406-.653.458.412 1.731l.438.525.007-1.24c.006-.967 0-1.246-.027-1.269zm1.131 1.563.644-.824-.137-.16c-.238-.278-.908-.602-1.254-.606-.012 0-.02.561-.02 1.248v1.248l.06-.041c.035-.023.352-.412.707-.865zm-4.853.049c0-.771.22-1.06 1.357-1.78.698-.443 1.344-.866 2.975-1.947.445-.295.95-.628 1.124-.74.174-.112.593-.39.932-.615a34.512 34.512 0 0 1 1.851-1.161c.413-.243.664-.409.725-.478.007-.007-.024-.06-.067-.118-.253-.339-.8-.17-1.78.553-.227.167-.555.401-.729.52a429.75 550.557 0 0 0-1.364.942 294.962 294.962 0 0 1-2.502 1.727c-.415.286-.605.414-1.33.894l-.587.393c-.175.12-.21.096-.154-.105.118-.429.496-.885 1.33-1.604.541-.466.576-.558.632-1.65.061-1.18.227-1.545.791-1.745.563-.2.856-.038 1.095.605.16.434.095.464 1.226-.563 3.013-2.735 3.547-2.772 3.935-.272.025.163.04.2.077.186.628-.233 1.349-.18 1.682.124.363.332.785 2.221.913 4.097.023.326.003.323-.346-.066-.525-.582-1.681-.613-3.186-.084l-.542.19-.847.3c-1.81.641-1.584.59-1.845.41-1.454-1.011-3.315-.315-4.085 1.53l-.116.275-.26.112c-.245.105-.847.328-.887.328-.01 0-.018-.116-.018-.257z"/><path d="M8.928 17.727h.042l-.035-.005.043.002.012.018.014.024v.67H1.746V17.23h7.191z" paint-order="stroke markers fill"/><path fill="red" d="M1.038 19.678a.56.564 0 0 1-.234-.047.931.94 0 0 1-.197-.123.928.936 0 0 1-.122-.2.56.564 0 0 1-.046-.235.55.55 0 0 1 .048-.236.932.941 0 0 1 .121-.199L18.574.505a.93.939 0 0 1 .198-.123.56.564 0 0 1 .233-.047.576.581 0 0 1 .421.179.576.581 0 0 1 .178.425c0 .09-.015.167-.046.237a.932.941 0 0 1-.122.199L1.469 19.508a.928.936 0 0 1-.197.123.56.564 0 0 1-.233.047" font-family="icomoon" font-size="18.709" font-weight="400"/></svg>