<svg xmlns="http://www.w3.org/2000/svg" xml:space="preserve" width="20" height="20"><path fill="#fff" d="M1.756 0H18.22c.482 0 .894.172 1.238.517.345.344.518.757.518 1.239V18.22c0 .482-.172.894-.518 1.238a1.69 1.69 0 0 1-1.238.518H1.756c-.482 0-.895-.172-1.239-.518A1.69 1.69 0 0 1 0 18.221V1.756C0 1.274.172.86.517.517A1.69 1.69 0 0 1 1.756 0" font-family="icomoon" font-size="19.843" font-weight="400"/><path d="M9.472 4.746c-.013.003-.026.003-.04.007-.007.005-.019.006-.024.013-.008.009.024.003.033-.003a.207.207 0 0 0 .031-.017z" font-family="icomoon" font-size="17.008" font-weight="400"/><path d="M2.706 1.152c-.426 0-.792.153-1.096.458a1.495 1.495 0 0 0-.458 1.096V17.27c0 .426.153.791.458 1.095.304.306.67.459 1.096.459H17.27c.426 0 .791-.153 1.095-.459a1.49 1.49 0 0 0 .458-1.095V2.706a1.49 1.49 0 0 0-.458-1.096 1.495 1.495 0 0 0-1.095-.458Zm0 .518H17.27a.999.999 0 0 1 .732.302.999.999 0 0 1 .303.734V17.27a.999.999 0 0 1-.301.732.999.999 0 0 1-.734.303H2.706a.999.999 0 0 1-.733-.301.999.999 0 0 1-.303-.734V2.706a.999.999 0 0 1 .302-.733.999.999 0 0 1 .733-.303Z" font-family="icomoon" font-size="17.008" font-weight="400"/><path d="M1.58 0C1.138 0 .764.153.46.458A1.526 1.526 0 0 0 0 1.58v16.817c0 .443.153.817.458 1.121.306.307.68.46 1.121.46h16.817a1.52 1.52 0 0 0 1.121-.459c.307-.305.46-.679.46-1.12V1.578a1.52 1.52 0 0 0-.459-1.12 1.526 1.526 0 0 0-1.12-.46Zm0 .527h16.816c.287 0 .533.104.742.311.208.209.312.456.312.743v16.815c0 .287-.104.533-.311.742a1.012 1.012 0 0 1-.743.312H1.58a1.013 1.013 0 0 1-.741-.311 1.013 1.013 0 0 1-.312-.743V1.581c0-.287.103-.533.31-.742A1.013 1.013 0 0 1 1.58.527Z" font-family="icomoon" font-size="19.843" font-weight="400"/><path d="M12.516 17.735c-.122-.04-.429-.2-.7-.366-.937-.57-1.217-.605-1.85-.228-.391.233-.381.241-.381-.3 0-.545.008-.558.42-.721.619-.244 1.324-.137 1.921.292.854.613 1.257.623 2.145.053 1.03-.66 1.549-.665 2.492-.027.24.163.39.235.687.333.645.214.788.343.723.654-.125.594-.703.508-1.88-.28-.545-.366-.952-.326-1.81.18-.829.488-1.234.582-1.767.41zM1.61 15.574v-2.197l3.65-.018c2.009-.008 3.661-.01 3.673-.001.011.007.02 1.004.02 2.214v2.2H1.61Zm11.181.396c-.238-.044-.38-.11-.977-.457-.895-.519-1.27-.558-1.863-.195l-.324.199-.014-.467c-.016-.55-.017-.542.092-.614.63-.418 1.462-.353 2.274.178.835.546 1.372.58 1.94.12.912-.738 1.744-.774 2.64-.116.325.24.509.324.842.388.425.082.528.164.565.45.04.319-.144.501-.5.494-.387-.008-.65-.126-1.253-.56-.645-.466-1.036-.448-1.88.089-.774.491-1.057.582-1.542.492zm-.083-1.745c-.151-.041-.41-.18-.622-.335-.765-.557-1.384-.665-2.11-.368-.43.175-.39.214-.39-.384v-.51H9.27c-.368 0-.32.073-.386-.6-.065-.668-.182-1.145-.365-1.487-.09-.168-.226-.5-.226-.552 0-.098 1.297-.425 2.173-.549.22-.03.646-.094.949-.141a35.82 35.82 0 0 1 2.627-.316c.386-.03.775-.061.866-.072.807-.091 2.288-.085 2.558.01.247.088.021 1.675-.412 2.896-.282.794-.54 1.424-.689 1.676l-.055.095-.407-.115c-.697-.197-1.15-.124-1.751.283-.485.328-.646.42-.795.456-.144.035-.54.043-.65.012zM1.939 12.19v-.437l.089-.023c.049-.012.26-.086.47-.164.21-.077.387-.133.395-.123.016.02-.07 1.11-.09 1.154-.008.017-.206.03-.44.03H1.94Zm1.228.414c-.034-.044-.017-.733.024-.956.393-2.14 2.338-3.331 3.85-2.36 1.018.654 1.711 2.112 1.537 3.23l-.018.11H5.873c-1.478 0-2.696-.01-2.706-.024zm1.332-.4c.555 0 .933-.014.933-.032 0-.042-1.073-1.42-1.245-1.601-.159-.165-.17-.157-.37.253-.225.463-.437 1.473-.295 1.402.024-.011.464-.02.977-.02zm3.766-.134c0-.407-.32-1.36-.53-1.585-.069-.072-1.267 1.342-1.394 1.646-.031.074-.031.074.946.074h.978ZM5.673 9.38c-.088-.077-.498.048-.833.252-.667.408-.655.46.413 1.737l.44.526.007-1.243c.006-.97 0-1.25-.028-1.273Zm1.134 1.567.646-.827-.137-.16c-.24-.279-.912-.604-1.259-.608-.011 0-.02.563-.02 1.251v1.252l.062-.041c.034-.023.352-.413.708-.867zm-4.868.049c0-.774.22-1.063 1.361-1.786.7-.444 1.349-.868 2.984-1.952.447-.296.954-.63 1.128-.742.174-.113.595-.39.935-.617a34.484 34.484 0 0 1 1.857-1.165c.414-.243.665-.41.727-.478.007-.008-.024-.061-.067-.12-.255-.339-.803-.169-1.786.555-.228.168-.557.403-.73.523a431.1 552.155 0 0 0-1.37.944A295.89 295.89 0 0 1 4.47 7.89c-.417.287-.607.415-1.334.897l-.59.393c-.175.12-.21.097-.154-.104.118-.431.498-.889 1.334-1.61.543-.467.578-.56.635-1.655.06-1.183.227-1.549.793-1.75.564-.2.858-.038 1.098.608.162.434.095.465 1.23-.565 3.023-2.743 3.559-2.78 3.947-.273.026.164.04.2.078.187.63-.234 1.353-.18 1.687.124.364.332.787 2.228.916 4.109.023.327.002.323-.348-.067-.525-.583-1.686-.614-3.195-.084a541.43 541.43 0 0 0-1.393.491c-1.816.644-1.59.593-1.851.412-1.46-1.014-3.326-.316-4.099 1.534l-.115.277-.262.112c-.245.105-.85.328-.89.328-.008 0-.017-.116-.017-.258z"/><path d="m8.877 17.733.042-.001-.036-.005.043.003.012.018.015.023v.673h-7.28v-1.211h7.213z" paint-order="stroke markers fill"/></svg>