<svg xmlns="http://www.w3.org/2000/svg" width="20" height="20" version="1.2">
    <g font-weight="400" style="fill:none;fill-rule:evenodd;stroke:#000;stroke-width:1;stroke-linecap:square;stroke-linejoin:bevel">
        <g style="font-style:normal;font-weight:400;font-size:17.00779915px;font-family:icomoon;fill:#ff0;fill-opacity:1;stroke:none">
            <path d="M2.021-18.688h18.957c.555 0 1.03.199 1.427.596.397.396.595.872.595 1.426V2.291c0 .554-.198 1.03-.595 1.426a1.946 1.946 0 0 1-1.427.595H2.021c-.554 0-1.029-.198-1.426-.595A1.946 1.946 0 0 1 0 2.291v-18.957c0-.554.198-1.03.595-1.426a1.946 1.946 0 0 1 1.426-.596" font-size="17.008" style="vector-effect:none;fill-rule:nonzero" transform="matrix(.65217 0 0 .65217 2.5 14.687)"/>
        </g>
        <g style="font-style:normal;font-weight:400;font-size:17.00779915px;font-family:icomoon;fill:#000;fill-opacity:1;stroke:none">
            <path d="M20.979-18.014a1.3 1.3 0 0 1 .954.393 1.3 1.3 0 0 1 .393.955V2.291a1.3 1.3 0 0 1-.393.955 1.3 1.3 0 0 1-.955.393H2.021a1.3 1.3 0 0 1-.954-.393 1.3 1.3 0 0 1-.393-.955v-18.957a1.3 1.3 0 0 1 .393-.955 1.3 1.3 0 0 1 .954-.393h18.957m0-.674H2.021c-.554 0-1.029.199-1.426.596A1.946 1.946 0 0 0 0-16.666V2.291c0 .554.198 1.03.595 1.426.397.397.872.595 1.426.595h18.957c.555 0 1.03-.198 1.427-.595.397-.397.595-.872.595-1.426v-18.957c0-.554-.198-1.03-.595-1.426a1.946 1.946 0 0 0-1.426-.596m-13.5 10.76c-.074.104-.13.22-.168.347a1.437 1.437 0 0 0 .045.92c.067.174.168.32.303.44.12.12.262.216.427.291a1.287 1.287 0 0 0 1.056 0c.164-.075.307-.172.426-.292.135-.12.236-.265.304-.438a1.437 1.437 0 0 0 .044-.92 1.492 1.492 0 0 0-.168-.371v.022c.075.105.131.217.168.337.038.12.057.255.057.405h4.986a1.387 1.387 0 0 1 .225-.764v.022c-.075.105-.131.221-.169.348a1.387 1.387 0 0 0-.056.394c0 .374.131.692.393.954a1.3 1.3 0 0 0 .955.393c.194 0 .374-.034.539-.1.164-.068.307-.17.427-.304.12-.12.217-.262.292-.427.074-.165.112-.337.112-.516a1.387 1.387 0 0 1 0-.022v.022h1.145V-8.49l-.786-1.146h-2.134l-1.64-2.448h-4.85l-1.416 2.56h-1.73l-.808 1.101v1.235h1.797a1.353 1.353 0 0 1 .224-.763v.022m9.322 1.236a.719.719 0 0 1-.214.146.618.618 0 0 1-.258.056.636.636 0 0 1-.483-.202.693.693 0 0 1-.19-.495c0-.18.063-.336.19-.471a.636.636 0 0 1 .483-.202c.18 0 .337.067.472.202a.647.647 0 0 1 .202.471.672.672 0 0 1-.202.495m-4.627-4.605H13.7l.786 1.775h-2.313v-1.775M9.097-6.693a.72.72 0 0 1-.214.146.671.671 0 0 1-.752-.146.686.686 0 0 1-.146-.225.696.696 0 0 1-.056-.27c0-.09.018-.18.056-.269a.686.686 0 0 1 .36-.37.671.671 0 0 1 .752.145c.06.06.108.135.146.225.037.09.056.18.056.27 0 .09-.019.18-.056.269a.686.686 0 0 1-.146.225m.876-4.605H11.5v1.775H9.187l.786-1.775m10.444 1.775v3.795H3.998v-3.324H2.763v3.324l.966 2.718h15.093l2.044-2.718v-3.795h-.449m-3.549 7.95-1.797-.785-1.752.74-1.797-.763-1.751.741-1.797-.786-1.752.741-1.797-.786-1.887.786.247.63 1.64-.674 1.774.786 1.775-.742L9.77-.92l1.752-.741 1.774.786 1.774-.741 1.797.786 1.752-.741 1.64.74.292-.628-1.932-.853-1.752.74" font-size="17.008" style="vector-effect:none;fill-rule:nonzero" transform="matrix(.65217 0 0 .65217 2.5 14.687)"/>
        </g>
    </g>
</svg>
