<svg xmlns="http://www.w3.org/2000/svg" xml:space="preserve" width="20" height="20"><defs><clipPath id="a" clipPathUnits="userSpaceOnUse"><path fill="red" d="M86.717 282.24c-.917.024-1.834.046-2.75.074l.092.004h2.925z"/></clipPath></defs><path fill="#11ff19" fill-opacity=".81" d="M137.958 197.253a50.361 55.068 0 0 0-50.362 55.068 50.361 55.068 0 0 0 2.49 16.93h5.928l-.121-.089c-.031-.024-.13-.069-.093-.071.081-.005.157.042.235.063.122.033.245.068.367.097h9.331c1.826 0 3.652 0 5.478-.002 2.503-.002 5.004-.003 7.507-.008 4.034-.009 8.07-.022 12.104-.051 5.389-.042 10.778-.097 16.166-.236 1.018-.107 2.036-.223 3.055-.316 2.848-.287 5.703-.458 8.561-.567 1.577-.07 3.156-.06 4.733-.107 1.524-.045 3.05-.14 4.572-.213 2.983-.164 5.96-.407 8.942-.59 2.265-.123 4.528-.255 6.795-.338.942-.016 1.885.01 2.827.03a50.361 55.068 0 0 0 1.846-14.532 50.361 55.068 0 0 0-50.362-55.068z" clip-path="url(#a)" paint-order="stroke markers fill" transform="translate(1.734 .53) scale(.04425)"/><path fill="red" d="M1.758 0h16.484c.482 0 .895.173 1.24.517.345.346.518.759.518 1.24v16.486c0 .482-.173.895-.517 1.24a1.692 1.692 0 0 1-1.24.518H1.757a1.692 1.692 0 0 1-1.24-.518A1.692 1.692 0 0 1 0 18.243V1.758C0 1.276.173.863.517.518A1.692 1.692 0 0 1 1.757 0" font-family="icomoon" font-size="22.677" font-weight="400"/><path d="M3.754 2.333c-.369 0-.686.132-.95.397a1.297 1.297 0 0 0-.397.95v12.639c0 .369.132.686.396.95.265.265.582.397.951.397h12.638c.37 0 .687-.132.951-.397.265-.264.397-.581.397-.95V3.681c0-.37-.132-.687-.397-.951a1.297 1.297 0 0 0-.95-.397zm0 .449h12.638c.25 0 .462.087.637.262a.867.867 0 0 1 .262.637v12.638c0 .25-.088.461-.262.636a.866.866 0 0 1-.637.262H3.754a.867.867 0 0 1-.636-.262.866.866 0 0 1-.262-.636V3.681c0-.25.087-.462.262-.637a.867.867 0 0 1 .636-.262Zm2.264 3.061c-.004.02-.01.035-.016.052l.029.002z" font-family="icomoon" font-size="17.008" font-weight="400"/><path d="M17.617 1.426a.92.92 0 0 1 .674.283c.19.189.283.414.283.674v15.234a.92.92 0 0 1-.283.674.92.92 0 0 1-.674.283H2.383a.92.92 0 0 1-.674-.283.92.92 0 0 1-.283-.674V2.383a.92.92 0 0 1 .283-.674.92.92 0 0 1 .674-.283h15.234m0-.469H2.383c-.391 0-.726.14-1.006.42-.28.28-.42.615-.42 1.006v15.234c0 .391.14.726.42 1.006.28.28.615.42 1.006.42h15.234c.391 0 .726-.14 1.006-.42.28-.28.42-.615.42-1.006V2.383c0-.391-.14-.726-.42-1.006-.28-.28-.615-.42-1.006-.42m.957-.488a.92.92 0 0 1 .674.283.92.92 0 0 1 .283.673v17.15a.92.92 0 0 1-.283.674.92.92 0 0 1-.673.283H1.425a.92.92 0 0 1-.674-.283.92.92 0 0 1-.283-.674V1.427A.92.92 0 0 1 .751.753a.92.92 0 0 1 .674-.284h17.148m0-.468H1.427A1.37 1.37 0 0 0 .42.42C.14.7 0 1.036 0 1.427v17.147c0 .39.14.727.42 1.007.28.279.616.419 1.007.419h17.146c.391 0 .727-.14 1.007-.42.28-.28.42-.615.42-1.006V1.426c0-.39-.14-.727-.42-1.007A1.38 1.38 0 0 0 18.572 0" font-family="icomoon" font-size="22.677" font-weight="400"/><path d="M12.061 16.64a4.015 4.015 0 0 1-.596-.311c-.795-.485-1.033-.514-1.572-.194-.332.198-.323.205-.323-.255 0-.463.007-.475.357-.613.526-.207 1.125-.116 1.633.248.726.521 1.068.53 1.823.046.875-.561 1.316-.566 2.117-.024.205.139.332.2.585.284.548.181.67.29.614.556-.107.504-.598.43-1.598-.24-.463-.31-.809-.275-1.538.155-.704.414-1.049.494-1.502.347zm-9.27-1.837v-1.868l3.103-.014c1.707-.008 3.111-.01 3.12-.002.01.007.018.854.018 1.882v1.87H2.791Zm9.503.337c-.202-.038-.322-.094-.83-.389-.76-.441-1.08-.474-1.583-.165l-.276.168-.012-.396c-.014-.467-.014-.461.078-.522.536-.355 1.242-.3 1.933.151.71.464 1.166.492 1.649.102.775-.627 1.482-.658 2.243-.098.277.203.433.275.716.33.361.07.449.139.48.381.034.272-.122.427-.425.42-.329-.006-.553-.107-1.064-.476-.549-.396-.881-.38-1.599.076-.657.418-.898.495-1.31.418zm-.07-1.484a1.988 1.988 0 0 1-.53-.285c-.65-.473-1.175-.565-1.793-.312-.364.149-.331.182-.331-.326v-.434h-.268c-.313 0-.273.062-.329-.51-.055-.568-.154-.973-.31-1.263-.076-.143-.192-.426-.192-.47 0-.083 1.103-.362 1.847-.466.186-.027.55-.08.807-.12a30.44 30.44 0 0 1 2.232-.27c.328-.024.66-.051.736-.06.686-.078 1.945-.072 2.174.009.21.074.018 1.423-.35 2.46-.24.675-.46 1.21-.585 1.425l-.048.08-.346-.097c-.591-.167-.976-.105-1.488.24-.412.28-.548.358-.675.388-.123.03-.459.037-.552.01zm-9.153-1.73v-.371l.076-.02c.042-.01.222-.073.4-.139.178-.065.33-.113.335-.104.014.017-.058.943-.076.98-.007.015-.175.027-.374.027h-.36Zm1.045.353c-.03-.038-.015-.624.02-.813.334-1.819 1.987-2.831 3.272-2.006.865.556 1.454 1.795 1.306 2.745l-.015.094H6.415c-1.256 0-2.291-.009-2.3-.02zm1.131-.34c.472 0 .793-.012.793-.027 0-.036-.911-1.208-1.058-1.362-.135-.14-.145-.133-.314.215-.192.394-.372 1.252-.25 1.193.02-.01.393-.018.83-.018zm3.2-.115c0-.345-.27-1.155-.45-1.346-.058-.062-1.076 1.14-1.184 1.398-.027.063-.027.063.804.063h.83ZM6.246 9.538c-.075-.065-.423.041-.707.215-.568.346-.557.39.35 1.476l.374.447.006-1.056c.005-.825 0-1.063-.023-1.082Zm.964 1.332.55-.703-.118-.136c-.203-.237-.774-.513-1.069-.517-.01 0-.018.479-.018 1.064v1.064l.053-.035c.029-.02.3-.35.602-.737zm-4.138.042c0-.658.188-.904 1.158-1.519.594-.377 1.146-.737 2.536-1.658.38-.252.81-.535.958-.631.148-.096.506-.332.795-.525.59-.393.962-.626 1.578-.99.352-.206.566-.347.618-.406.005-.006-.02-.052-.057-.101-.216-.289-.683-.144-1.518.47-.194.143-.473.343-.62.445a366.39 469.313 0 0 0-1.164.803 251.476 251.476 0 0 1-2.133 1.472 63.85 63.85 0 0 1-1.134.762l-.5.335c-.15.102-.18.081-.132-.09.1-.365.423-.755 1.134-1.367.461-.398.491-.476.54-1.407.05-1.005.192-1.317.673-1.488.48-.17.73-.032.934.517.137.37.08.395 1.045-.48 2.569-2.332 3.024-2.363 3.354-.232.022.14.035.17.066.159.536-.2 1.15-.154 1.434.105.31.283.67 1.894.78 3.492.018.279.001.275-.296-.056-.447-.496-1.434-.522-2.716-.072l-.462.163-.723.255c-1.543.547-1.35.504-1.573.35-1.24-.862-2.826-.268-3.483 1.303l-.098.236-.222.095c-.209.09-.722.28-.756.28a.837.837 0 0 1-.015-.22z"/><path d="M8.968 16.638h.036l-.03-.005.036.002.01.016.012.02v.571H2.845v-1.029h6.13z" paint-order="stroke markers fill"/></svg>