<svg xmlns="http://www.w3.org/2000/svg" width="20" height="20" version="1.2">
    <g font-weight="400" style="fill:none;fill-rule:evenodd;stroke:#000;stroke-width:1;stroke-linecap:square;stroke-linejoin:bevel">
        <g style="font-style:normal;font-weight:400;font-size:19.84250069px;font-family:icomoon;fill:#ff0;fill-opacity:1;stroke:none">
            <path d="M2.285-21.125h21.43a2.2 2.2 0 0 1 1.612.673A2.2 2.2 0 0 1 26-18.84V2.59a2.2 2.2 0 0 1-.673 1.612 2.2 2.2 0 0 1-1.612.673H2.285a2.2 2.2 0 0 1-1.612-.673A2.2 2.2 0 0 1 0 2.59v-21.43a2.2 2.2 0 0 1 .673-1.612 2.2 2.2 0 0 1 1.612-.673" font-size="19.843" style="vector-effect:none;fill-rule:nonzero" transform="matrix(.6923 0 0 .6923 1 15.625)"/>
        </g>
        <g style="font-style:normal;font-weight:400;font-size:17.00779915px;font-family:icomoon;fill:#000;fill-opacity:1;stroke:none">
            <path d="M20.979-18.014a1.3 1.3 0 0 1 .954.393 1.3 1.3 0 0 1 .393.955V2.291a1.3 1.3 0 0 1-.393.955 1.3 1.3 0 0 1-.955.393H2.021a1.3 1.3 0 0 1-.954-.393 1.3 1.3 0 0 1-.393-.955v-18.957a1.3 1.3 0 0 1 .393-.955 1.3 1.3 0 0 1 .954-.393h18.957m0-.674H2.021c-.554 0-1.029.199-1.426.596A1.946 1.946 0 0 0 0-16.666V2.291c0 .554.198 1.03.595 1.426.397.397.872.595 1.426.595h18.957c.555 0 1.03-.198 1.427-.595.397-.397.595-.872.595-1.426v-18.957c0-.554-.198-1.03-.595-1.426a1.946 1.946 0 0 0-1.426-.596m-2.92 4.178-.63.472c-.404.314-.89.816-1.46 1.505-.568.689-1.152 1.58-1.751 2.673-.614 1.093-1.123 2.418-1.528 3.975-.074.255-.314.075-.718-.539a52.03 52.03 0 0 0-1.696-2.358 27.833 27.833 0 0 0-2.55-2.898c-.988-1.003-2.08-1.744-3.279-2.223-.284.389-.494.89-.629 1.505a9.937 9.937 0 0 0-.224 1.909c-.015.659.03 1.288.135 1.886.09.6.232 1.071.426 1.416.285.494.652 1.003 1.1 1.527a25.412 25.412 0 0 0 2.36 2.493l.448.427a5.386 5.386 0 0 0-1.347 1.123c-.12.24-.535.198-1.247-.124-.711-.322-1.56.116-2.55 1.314A2.757 2.757 0 0 0 5.19.741c.404 0 .786-.086 1.145-.258.36-.172.666-.4.92-.685.136-.135.562-.157 1.281-.068.704.09 1.505.143 2.403.158a11.49 11.49 0 0 0 2.673-.27c.884-.21 1.558-.674 2.022-1.392.434-.734.857-1.15 1.269-1.247.412-.097.707-.071.887.079.285.24.737.329 1.359.27.621-.06.932-.225.932-.495 0-.674-.408-1.25-1.224-1.73-.816-.479-1.89-.284-3.223.584 0-.404.284-1.014.853-1.83.57-.816 1.228-1.351 1.977-1.606.374-.12.704-.42.988-.898.285-.48.446-1.041.483-1.685.037-.644-.079-1.34-.348-2.089-.285-.734-.794-1.43-1.527-2.089" font-size="17.008" style="vector-effect:none;fill-rule:nonzero" transform="matrix(.6923 0 0 .6923 2.038 14.976)"/>
        </g>
        <g style="font-style:normal;font-weight:400;font-size:19.84250069px;font-family:icomoon;fill:#000;fill-opacity:1;stroke:none">
            <path d="M23.943-20.44c.373 0 .694.136.965.407.271.27.406.592.406.965V2.818c0 .373-.135.694-.406.965-.27.271-.592.406-.965.406H2.057c-.373 0-.694-.135-.965-.406a1.318 1.318 0 0 1-.406-.965v-21.886c0-.373.135-.694.406-.965.27-.271.592-.407.965-.407h21.886m0-.685H2.057c-.576 0-1.063.199-1.46.597A1.986 1.986 0 0 0 0-19.068V2.818c0 .576.199 1.063.597 1.46.397.398.884.597 1.46.597h21.886c.576 0 1.063-.199 1.46-.597.398-.397.597-.884.597-1.46v-21.886c0-.576-.199-1.063-.597-1.46a1.986 1.986 0 0 0-1.46-.597" font-size="19.843" style="vector-effect:none;fill-rule:nonzero" transform="matrix(.6923 0 0 .6923 1 15.625)"/>
        </g>
    </g>
</svg>
