<?xml version="1.0" encoding="UTF-8" standalone="no"?>
<svg
   xmlns:dc="http://purl.org/dc/elements/1.1/"
   xmlns:cc="http://creativecommons.org/ns#"
   xmlns:rdf="http://www.w3.org/1999/02/22-rdf-syntax-ns#"
   xmlns:svg="http://www.w3.org/2000/svg"
   xmlns="http://www.w3.org/2000/svg"
   xmlns:sodipodi="http://sodipodi.sourceforge.net/DTD/sodipodi-0.dtd"
   xmlns:inkscape="http://www.inkscape.org/namespaces/inkscape"
   width="20"
   height="20"
   viewBox="0 0 20 20"
   version="1.2"
   id="svg52"
   sodipodi:docname="70301010034.svg"
   inkscape:version="0.92.4 (5da689c313, 2019-01-14)">
  <metadata
     id="metadata56">
    <rdf:RDF>
      <cc:Work
         rdf:about="">
        <dc:format>image/svg+xml</dc:format>
        <dc:type
           rdf:resource="http://purl.org/dc/dcmitype/StillImage" />
      </cc:Work>
    </rdf:RDF>
  </metadata>
  <sodipodi:namedview
     pagecolor="#ffffff"
     bordercolor="#666666"
     borderopacity="1"
     objecttolerance="10"
     gridtolerance="10"
     guidetolerance="10"
     inkscape:pageopacity="0"
     inkscape:pageshadow="2"
     inkscape:window-width="751"
     inkscape:window-height="480"
     id="namedview54"
     showgrid="false"
     inkscape:zoom="11.8"
     inkscape:cx="10"
     inkscape:cy="10"
     inkscape:window-x="0"
     inkscape:window-y="0"
     inkscape:window-maximized="0"
     inkscape:current-layer="svg52" />
  <title
     id="title2">Qt SVG Document</title>
  <desc
     id="desc4">Generated with Qt</desc>
  <defs
     id="defs6" />
  <g
     id="g50"
     transform="matrix(0.65217391,0,0,0.65217391,-0.43478256,-0.43478256)"
     style="fill:none;fill-rule:evenodd;stroke:#000000;stroke-width:1;stroke-linecap:square;stroke-linejoin:bevel">
    <g
       transform="translate(16,16)"
       font-size="8.25"
       font-weight="400"
       font-style="normal"
       id="g8"
       style="font-style:normal;font-weight:400;font-size:8.25px;font-family:'MS Shell Dlg 2';fill:none;stroke:#000000;stroke-width:1;stroke-linecap:square;stroke-linejoin:bevel;stroke-opacity:1" />
    <g
       transform="matrix(1.33333,0,0,1.33333,16,16)"
       font-size="8.25"
       font-weight="400"
       font-style="normal"
       id="g10"
       style="font-style:normal;font-weight:400;font-size:8.25px;font-family:'MS Shell Dlg 2';fill:none;stroke:#000000;stroke-width:1;stroke-linecap:square;stroke-linejoin:bevel;stroke-opacity:1" />
    <g
       transform="translate(4.5,23.1875)"
       font-size="17.0078"
       font-weight="400"
       font-style="normal"
       id="g14"
       style="font-style:normal;font-weight:400;font-size:17.00779915px;font-family:icomoon;fill:#ffffff;fill-opacity:1;stroke:none">
      <path
         d="M 2.02148,-18.6875 H 20.9785 c 0.5541,0 1.0295,0.1984 1.4263,0.5952 C 22.8016,-17.6955 23,-17.2201 23,-16.666 V 2.29102 C 23,2.84505 22.8016,3.32048 22.4048,3.71729 22.008,4.1141 21.5326,4.3125 20.9785,4.3125 H 2.02148 C 1.46745,4.3125 0.992025,4.1141 0.595215,3.71729 0.198405,3.32048 0,2.84505 0,2.29102 V -16.666 c 0,-0.5541 0.198405,-1.0295 0.595215,-1.4263 0.39681,-0.3968 0.872235,-0.5952 1.426265,-0.5952"
         id="path12"
         inkscape:connector-curvature="0"
         style="vector-effect:none;fill-rule:nonzero" />
    </g>
    <g
       transform="matrix(1.33333,0,0,1.33333,16,16)"
       font-size="8.25"
       font-weight="400"
       font-style="normal"
       id="g16"
       style="font-style:normal;font-weight:400;font-size:8.25px;font-family:'MS Shell Dlg 2';fill:none;stroke:#000000;stroke-width:1;stroke-linecap:square;stroke-linejoin:bevel;stroke-opacity:1" />
    <g
       transform="translate(16,16)"
       font-size="8.25"
       font-weight="400"
       font-style="normal"
       id="g18"
       style="font-style:normal;font-weight:400;font-size:8.25px;font-family:'MS Shell Dlg 2';fill:none;stroke:#000000;stroke-width:1;stroke-linecap:square;stroke-linejoin:bevel;stroke-opacity:1" />
    <g
       font-size="8.25"
       font-weight="400"
       font-style="normal"
       id="g20"
       style="font-style:normal;font-weight:400;font-size:8.25px;font-family:'MS Shell Dlg 2';fill:none;stroke:#000000;stroke-width:1;stroke-linecap:square;stroke-linejoin:bevel;stroke-opacity:1" />
    <g
       transform="translate(16,16)"
       font-size="8.25"
       font-weight="400"
       font-style="normal"
       id="g22"
       style="font-style:normal;font-weight:400;font-size:8.25px;font-family:'MS Shell Dlg 2';fill:none;stroke:#000000;stroke-width:1;stroke-linecap:square;stroke-linejoin:bevel;stroke-opacity:1" />
    <g
       transform="matrix(1.33333,0,0,1.33333,16,16)"
       font-size="8.25"
       font-weight="400"
       font-style="normal"
       id="g24"
       style="font-style:normal;font-weight:400;font-size:8.25px;font-family:'MS Shell Dlg 2';fill:none;stroke:#000000;stroke-width:1;stroke-linecap:square;stroke-linejoin:bevel;stroke-opacity:1" />
    <g
       transform="translate(4.5,23.1875)"
       font-size="17.0078"
       font-weight="400"
       font-style="normal"
       id="g28"
       style="font-style:normal;font-weight:400;font-size:17.00779915px;font-family:icomoon;fill:#000000;fill-opacity:1;stroke:none">
      <path
         d="m 20.9785,-18.0137 c 0.3744,0 0.6926,0.1311 0.9546,0.3931 0.262,0.262 0.3931,0.5802 0.3931,0.9546 V 2.29102 c 0,0.37434 -0.1311,0.69254 -0.3931,0.95459 -0.262,0.26204 -0.5802,0.39306 -0.9546,0.39306 H 2.02148 C 1.64714,3.63867 1.32894,3.50765 1.06689,3.24561 0.80485,2.98356 0.673828,2.66536 0.673828,2.29102 V -16.666 c 0,-0.3744 0.131022,-0.6926 0.393062,-0.9546 0.26205,-0.262 0.58025,-0.3931 0.95459,-0.3931 H 20.9785 m 0,-0.6738 H 2.02148 c -0.55403,0 -1.029455,0.1984 -1.426265,0.5952 C 0.198405,-17.6955 0,-17.2201 0,-16.666 V 2.29102 C 0,2.84505 0.198405,3.32048 0.595215,3.71729 0.992025,4.1141 1.46745,4.3125 2.02148,4.3125 H 20.9785 c 0.5541,0 1.0295,-0.1984 1.4263,-0.59521 C 22.8016,3.32048 23,2.84505 23,2.29102 V -16.666 c 0,-0.5541 -0.1984,-1.0295 -0.5952,-1.4263 -0.3968,-0.3968 -0.8722,-0.5952 -1.4263,-0.5952 m -6.289,2.583 c -0.7038,0 -1.3402,0.1872 -1.9092,0.5615 -0.569,0.3744 -0.9958,0.8535 -1.2803,1.4375 v 0.0225 c -0.2845,-0.6289 -0.715,-1.138 -1.2915,-1.5274 -0.5765,-0.3893 -1.22412,-0.5839 -1.94287,-0.5839 -0.97331,0 -1.80437,0.3444 -2.49317,1.0332 -0.6888,0.6888 -1.0332,1.5198 -1.0332,2.4931 0,0.03 0,0.0524 0,0.0674 0,0.015 0,0.03 0,0.0449 v 8.22074 h 0.67383 v -8.22074 c 0,-0.7936 0.28076,-1.4712 0.84228,-2.0327 0.56152,-0.5615 1.23161,-0.8423 2.01026,-0.8423 0.79361,0 1.47119,0.2808 2.03267,0.8423 0.5616,0.5615 0.8423,1.2391 0.8423,2.0327 v 5.57035 H 9.86035 v -5.57035 c 0,-0.0149 0,-0.0337 0,-0.0561 0,-0.0225 0,-0.0412 0,-0.0562 0,-0.3893 -0.13851,-0.7262 -0.41553,-1.0107 -0.27701,-0.2845 -0.61767,-0.4268 -1.02197,-0.4268 -0.38932,0 -0.72624,0.1423 -1.01074,0.4268 -0.28451,0.2845 -0.42676,0.6214 -0.42676,1.0107 0,0.015 0,0.0337 0,0.0562 0,0.0224 0,0.0412 0,0.0561 v 8.22074 h 0.67383 v -8.22074 c 0,-0.0149 0,-0.0299 0,-0.0449 0,-0.015 0,-0.0299 0,-0.0449 0,-0.2096 0.07487,-0.3893 0.22461,-0.5391 0.14974,-0.1497 0.32943,-0.2246 0.53906,-0.2246 0.20964,0 0.38932,0.0749 0.53906,0.2246 0.14974,0.1498 0.22461,0.3295 0.22461,0.5391 0,0.015 0,0.0299 0,0.0449 0,0.015 0,0.03 0,0.0449 v 5.57035 H 8.87207 v 6.154295 H 6.71582 V 1.72949 H 16.5537 V -0.831055 H 14.3975 V -6.98535 h -0.337 v -5.57035 c 0,-0.0149 0,-0.0299 0,-0.0449 0,-0.015 0,-0.0299 0,-0.0449 0,-0.2096 0.0749,-0.3893 0.2247,-0.5391 0.1497,-0.1497 0.3294,-0.2246 0.539,-0.2246 0.2097,0 0.3893,0.0749 0.5391,0.2246 0.1497,0.1498 0.2246,0.3295 0.2246,0.5391 0,0.015 0,0.0299 0,0.0449 0,0.015 0,0.03 0,0.0449 v 8.22074 h 0.6738 v -8.22074 c 0,-0.0149 0,-0.0337 0,-0.0561 0,-0.0225 0,-0.0412 0,-0.0562 0,-0.3893 -0.1385,-0.7262 -0.4155,-1.0107 -0.277,-0.2845 -0.6177,-0.4268 -1.022,-0.4268 -0.4043,0 -0.7449,0.1423 -1.022,0.4268 -0.277,0.2845 -0.4155,0.6214 -0.4155,1.0107 0,0.015 0,0.0337 0,0.0562 0,0.0224 0,0.0412 0,0.0561 v 5.57035 h -1.5498 v -5.57035 c 0,-0.7936 0.2808,-1.4712 0.8423,-2.0327 0.5615,-0.5615 1.2316,-0.8423 2.0103,-0.8423 0.7936,0 1.4711,0.2808 2.0327,0.8423 0.5615,0.5615 0.8423,1.2391 0.8423,2.0327 v 8.22074 h 0.6738 v -8.22074 c 0,-0.9882 -0.3444,-1.8268 -1.0332,-2.5156 -0.6888,-0.6888 -1.5274,-1.0332 -2.5156,-1.0332"
         id="path26"
         inkscape:connector-curvature="0"
         style="vector-effect:none;fill-rule:nonzero" />
    </g>
    <g
       transform="matrix(1.33333,0,0,1.33333,16,16)"
       font-size="8.25"
       font-weight="400"
       font-style="normal"
       id="g30"
       style="font-style:normal;font-weight:400;font-size:8.25px;font-family:'MS Shell Dlg 2';fill:none;stroke:#000000;stroke-width:1;stroke-linecap:square;stroke-linejoin:bevel;stroke-opacity:1" />
    <g
       transform="translate(16,16)"
       font-size="8.25"
       font-weight="400"
       font-style="normal"
       id="g32"
       style="font-style:normal;font-weight:400;font-size:8.25px;font-family:'MS Shell Dlg 2';fill:none;stroke:#000000;stroke-width:1;stroke-linecap:square;stroke-linejoin:bevel;stroke-opacity:1" />
    <g
       font-size="8.25"
       font-weight="400"
       font-style="normal"
       id="g34"
       style="font-style:normal;font-weight:400;font-size:8.25px;font-family:'MS Shell Dlg 2';fill:none;stroke:#000000;stroke-width:1;stroke-linecap:square;stroke-linejoin:bevel;stroke-opacity:1" />
    <g
       transform="translate(16,16)"
       font-size="8.25"
       font-weight="400"
       font-style="normal"
       id="g36"
       style="font-style:normal;font-weight:400;font-size:8.25px;font-family:'MS Shell Dlg 2';fill:none;stroke:#000000;stroke-width:1;stroke-linecap:square;stroke-linejoin:bevel;stroke-opacity:1" />
    <g
       transform="matrix(1.33333,0,0,1.33333,16,16)"
       font-size="8.25"
       font-weight="400"
       font-style="normal"
       id="g38"
       style="font-style:normal;font-weight:400;font-size:8.25px;font-family:'MS Shell Dlg 2';fill:none;stroke:#000000;stroke-width:1;stroke-linecap:square;stroke-linejoin:bevel;stroke-opacity:1" />
    <g
       transform="translate(5.5,22.5625)"
       font-size="15.874"
       font-weight="400"
       font-style="normal"
       id="g42"
       style="font-style:normal;font-weight:400;font-size:15.8739996px;font-family:icomoon;fill:#ff0000;fill-opacity:1;stroke:none">
      <path
         d="M 0.65625,3.9375 C 0.560547,3.9375 0.475098,3.92041 0.399902,3.88623 0.324707,3.85205 0.25293,3.80762 0.18457,3.75293 0.129883,3.68457 0.0854492,3.61279 0.0512695,3.5376 0.0170898,3.4624 0,3.37695 0,3.28125 0,3.18555 0.0170898,3.1001 0.0512695,3.0249 0.0854492,2.94971 0.129883,2.87793 0.18457,2.80957 L 19.8721,-16.8779 c 0.0683,-0.0547 0.1401,-0.0992 0.2153,-0.1333 0.0752,-0.0342 0.1606,-0.0513 0.2564,-0.0513 0.1777,0 0.3315,0.0649 0.4614,0.1948 0.1299,0.1299 0.1948,0.2837 0.1948,0.4614 0,0.0958 -0.0171,0.1812 -0.0513,0.2564 -0.0341,0.0752 -0.0786,0.147 -0.1333,0.2153 L 1.12793,3.75293 C 1.05957,3.80762 0.987793,3.85205 0.912598,3.88623 0.837402,3.92041 0.751953,3.9375 0.65625,3.9375"
         id="path40"
         inkscape:connector-curvature="0"
         style="vector-effect:none;fill-rule:nonzero" />
    </g>
    <g
       transform="matrix(1.33333,0,0,1.33333,16,16)"
       font-size="8.25"
       font-weight="400"
       font-style="normal"
       id="g44"
       style="font-style:normal;font-weight:400;font-size:8.25px;font-family:'MS Shell Dlg 2';fill:none;stroke:#000000;stroke-width:1;stroke-linecap:square;stroke-linejoin:bevel;stroke-opacity:1" />
    <g
       transform="translate(16,16)"
       font-size="8.25"
       font-weight="400"
       font-style="normal"
       id="g46"
       style="font-style:normal;font-weight:400;font-size:8.25px;font-family:'MS Shell Dlg 2';fill:none;stroke:#000000;stroke-width:1;stroke-linecap:square;stroke-linejoin:bevel;stroke-opacity:1" />
    <g
       font-size="8.25"
       font-weight="400"
       font-style="normal"
       id="g48"
       style="font-style:normal;font-weight:400;font-size:8.25px;font-family:'MS Shell Dlg 2';fill:none;stroke:#000000;stroke-width:1;stroke-linecap:square;stroke-linejoin:bevel;stroke-opacity:1" />
  </g>
</svg>
